<?xml version="1.0" encoding="utf-8"?>
<!-- Generator: Adobe Illustrator 15.0.0, SVG Export Plug-In . SVG Version: 6.00 Build 0)  -->
<!DOCTYPE svg PUBLIC "-//W3C//DTD SVG 1.1//EN" "http://www.w3.org/Graphics/SVG/1.1/DTD/svg11.dtd">
<svg version="1.1" id="图层_1" xmlns="http://www.w3.org/2000/svg" xmlns:xlink="http://www.w3.org/1999/xlink" x="0px" y="0px"
	 width="16px" height="16px" viewBox="92 92 16 16" enable-background="new 92 92 16 16" xml:space="preserve">
<path fill="#13131F" d="M100.729,98.923h-1.454c-0.201,0-0.364,0.162-0.364,0.362v4.418c0,0.2,0.163,0.363,0.364,0.363h1.454
	c0.202,0,0.364-0.163,0.364-0.363v-4.418C101.093,99.085,100.931,98.923,100.729,98.923z"/>
<path fill="#13131F" d="M100,92c-4.409,0-8,3.588-8,8.001c0,4.411,3.59,7.999,8,7.999c4.411,0,8-3.588,8-7.999
	C108,95.588,104.412,92,100,92z M99.993,106.983c-3.856,0-6.992-3.138-6.992-6.992c0-3.856,3.137-6.992,6.992-6.992
	s6.992,3.135,6.992,6.992C106.986,103.847,103.85,106.983,99.993,106.983L99.993,106.983z"/>
<path fill="#13131F" d="M100.002,95.917c-0.301,0-0.602,0.124-0.815,0.337c-0.213,0.213-0.337,0.513-0.337,0.813
	s0.124,0.601,0.337,0.813c0.214,0.213,0.514,0.337,0.815,0.337s0.602-0.124,0.815-0.337c0.213-0.213,0.337-0.513,0.337-0.813
	s-0.124-0.601-0.337-0.813C100.604,96.041,100.304,95.917,100.002,95.917z"/>
</svg>
