<svg id="Layer_1" data-name="Layer 1" xmlns="http://www.w3.org/2000/svg" viewBox="0 0 75.05 20"><defs><style>.cls-1{fill:#fff;}</style></defs><title>paypal-logo-white</title><g id="_Group_" data-name="&lt;Group&gt;"><path id="_Compound_Path_" data-name="&lt;Compound Path&gt;" class="cls-1" d="M228.15,251.47c-0.32,2.09-1.92,2.09-3.47,2.09H223.8l0.62-3.91a0.49,0.49,0,0,1,.48-0.41h0.4c1.05,0,2,0,2.56.6A2,2,0,0,1,228.15,251.47ZM227.48,246h-5.84a0.81,0.81,0,0,0-.8.68l-2.36,15a0.49,0.49,0,0,0,.48.56h2.79a0.81,0.81,0,0,0,.8-0.69l0.64-4a0.81,0.81,0,0,1,.8-0.69h1.85c3.85,0,6.06-1.86,6.64-5.55a4.5,4.5,0,0,0-.74-3.77A5.42,5.42,0,0,0,227.48,246Z" transform="translate(-218.47 -246)"/><path id="_Compound_Path_2" data-name="&lt;Compound Path&gt;" class="cls-1" d="M241,256.84a3.12,3.12,0,0,1-3.15,2.67,2.17,2.17,0,0,1-2.32-2.72,3.13,3.13,0,0,1,3.13-2.69,2.36,2.36,0,0,1,1.86.76A2.42,2.42,0,0,1,241,256.84Zm3.9-5.44h-2.8a0.49,0.49,0,0,0-.48.41l-0.12.78-0.2-.28c-0.61-.88-2-1.17-3.3-1.17a6.43,6.43,0,0,0-6.24,5.62,5.28,5.28,0,0,0,1,4.29,4.37,4.37,0,0,0,3.52,1.42,5.35,5.35,0,0,0,3.87-1.6l-0.12.78a0.49,0.49,0,0,0,.48.56h2.52a0.81,0.81,0,0,0,.8-0.69l1.51-9.57A0.48,0.48,0,0,0,244.93,251.4Z" transform="translate(-218.47 -246)"/><path id="_Path_" data-name="&lt;Path&gt;" class="cls-1" d="M259.82,251.4H257a0.81,0.81,0,0,0-.67.36l-3.87,5.71L250.82,252a0.81,0.81,0,0,0-.78-0.58h-2.76a0.49,0.49,0,0,0-.46.64l3.09,9.08L247,265.23a0.49,0.49,0,0,0,.4.77h2.81a0.81,0.81,0,0,0,.67-0.35l9.34-13.49A0.49,0.49,0,0,0,259.82,251.4Z" transform="translate(-218.47 -246)"/><path id="_Compound_Path_3" data-name="&lt;Compound Path&gt;" class="cls-1" d="M269.79,251.47c-0.32,2.09-1.92,2.09-3.47,2.09h-0.88l0.62-3.91a0.48,0.48,0,0,1,.48-0.41h0.4c1.05,0,2,0,2.56.6A2,2,0,0,1,269.79,251.47ZM269.12,246h-5.84a0.81,0.81,0,0,0-.8.68l-2.36,15a0.49,0.49,0,0,0,.48.56h3a0.57,0.57,0,0,0,.56-0.48l0.67-4.24a0.81,0.81,0,0,1,.8-0.69h1.85c3.85,0,6.06-1.86,6.65-5.55a4.49,4.49,0,0,0-.75-3.77A5.41,5.41,0,0,0,269.12,246Z" transform="translate(-218.47 -246)"/><path id="_Compound_Path_4" data-name="&lt;Compound Path&gt;" class="cls-1" d="M282.67,256.84a3.11,3.11,0,0,1-3.15,2.67,2.17,2.17,0,0,1-2.32-2.72,3.13,3.13,0,0,1,3.13-2.69,2.36,2.36,0,0,1,1.86.76A2.41,2.41,0,0,1,282.67,256.84Zm3.9-5.44h-2.79a0.48,0.48,0,0,0-.48.41l-0.12.78-0.2-.28c-0.61-.88-2-1.17-3.3-1.17a6.43,6.43,0,0,0-6.24,5.62,5.28,5.28,0,0,0,1,4.29,4.38,4.38,0,0,0,3.52,1.42,5.35,5.35,0,0,0,3.87-1.6l-0.12.78a0.49,0.49,0,0,0,.48.56h2.52a0.81,0.81,0,0,0,.8-0.69l1.51-9.57A0.49,0.49,0,0,0,286.57,251.4Z" transform="translate(-218.47 -246)"/><path id="_Path_2" data-name="&lt;Path&gt;" class="cls-1" d="M289.86,246.41l-2.4,15.24a0.49,0.49,0,0,0,.48.56h2.41a0.81,0.81,0,0,0,.8-0.69l2.36-15A0.49,0.49,0,0,0,293,246h-2.7A0.49,0.49,0,0,0,289.86,246.41Z" transform="translate(-218.47 -246)"/></g></svg>