<?xml version="1.0" encoding="utf-8"?>
<!-- Generator: Adobe Illustrator 15.0.0, SVG Export Plug-In . SVG Version: 6.00 Build 0)  -->
<!DOCTYPE svg PUBLIC "-//W3C//DTD SVG 1.1//EN" "http://www.w3.org/Graphics/SVG/1.1/DTD/svg11.dtd">
<svg version="1.1" id="图层_1" xmlns="http://www.w3.org/2000/svg" xmlns:xlink="http://www.w3.org/1999/xlink" x="0px" y="0px"
	 width="91.12px" height="17px" viewBox="21.44 60 91.12 17" enable-background="new 21.44 60 91.12 17" xml:space="preserve">
<title>black@1x</title>
<desc>Created with Sketch.</desc>
<g id="Page-1_1_">
	<g id="black_1_">
		<path id="Fill-1-Copy_1_" d="M36.915,72.628l-1.476-1.882c-0.07-0.091-0.179-0.143-0.294-0.143h-7.459
			c-2.034-0.207-3.57-1.888-3.57-3.908c0-2.169,1.79-3.933,3.986-3.933c0.096,0,0.191,0.004,0.287,0.011
			c0.89,0.063,1.732,0.418,2.398,1.016c0.735,0.661,1.002,1.56,1.096,2.532l0.002,0.066v2.118c0,0.206,0.169,0.374,0.375,0.374
			h1.969c0.206,0,0.374-0.168,0.374-0.374c0,0,0,0,0-0.001c-0.001-1.431-0.004-2.161-0.005-2.19
			c-0.207-3.438-3.081-6.129-6.542-6.129c-3.614,0-6.554,2.926-6.554,6.523c0,3.383,2.549,6.174,5.93,6.494
			c0.021,0.002,0.128,0.008,0.613,0.029h3.312l0.53,0.001v0.706v0.805v0.538c0,0.123,0.061,0.238,0.164,0.307l1.973,1.347
			c0.172,0.116,0.404,0.072,0.521-0.099c0.041-0.063,0.063-0.136,0.063-0.211v-2.687l-0.001-0.707h0.719h1.295
			c0.206,0,0.373-0.167,0.373-0.375C36.995,72.774,36.967,72.692,36.915,72.628z"/>
		<path id="QUADPAY-Copy-2_1_" d="M38.397,68.4c0,2.813,2.386,4.923,5.333,4.923c2.967,0,5.37-2.109,5.37-4.923v-7.862
			c0-0.186-0.169-0.353-0.357-0.353h-2.309c-0.206,0-0.356,0.167-0.356,0.353v7.716c0,1.35-0.995,2.108-2.347,2.108
			c-1.333,0-2.309-0.759-2.309-2.108v-7.716c0-0.186-0.15-0.353-0.356-0.353h-2.31c-0.188,0-0.357,0.167-0.357,0.353V68.4z
			 M51.108,73.139c-0.282,0-0.432-0.241-0.319-0.481l5.877-12.453c0.055-0.111,0.188-0.203,0.319-0.203h0.188
			c0.131,0,0.263,0.092,0.318,0.203l5.876,12.453c0.112,0.24-0.037,0.481-0.319,0.481h-2.083c-0.339,0-0.489-0.11-0.658-0.463
			l-0.676-1.462h-5.107l-0.675,1.479c-0.094,0.223-0.3,0.445-0.676,0.445H51.108z M55.652,68.696h2.854l-1.427-3.052H57.06
			L55.652,68.696z M65.603,72.787V60.538c0-0.186,0.15-0.353,0.337-0.353h4.58c3.625,0,6.593,2.905,6.593,6.459
			c0,3.589-2.968,6.494-6.593,6.494h-4.58C65.753,73.139,65.603,72.973,65.603,72.787z M68.532,70.399h1.97
			c2.123,0,3.493-1.646,3.493-3.755c0-2.092-1.37-3.739-3.493-3.739h-1.97V70.399z M80.097,72.787V60.538
			c0-0.186,0.149-0.353,0.356-0.353h4.525c2.478,0,4.204,1.85,4.204,4.089c0,2.295-1.727,4.163-4.187,4.163h-1.971v4.35
			c0,0.186-0.17,0.352-0.355,0.352h-2.217C80.246,73.139,80.097,72.973,80.097,72.787z M83.025,65.737h1.896
			c0.808,0,1.37-0.63,1.37-1.463c0-0.776-0.563-1.369-1.37-1.369h-1.896V65.737z M89.482,73.139c-0.28,0-0.43-0.241-0.318-0.481
			l5.877-12.453c0.057-0.111,0.188-0.203,0.318-0.203h0.189c0.131,0,0.262,0.092,0.317,0.203l5.878,12.453
			c0.112,0.24-0.039,0.481-0.319,0.481h-2.082c-0.34,0-0.49-0.11-0.659-0.463l-0.677-1.462h-5.105l-0.678,1.479
			c-0.092,0.223-0.298,0.445-0.675,0.445H89.482z M94.027,68.696h2.854l-1.426-3.052h-0.018L94.027,68.696z M105.35,72.787v-5.884
			l-4.149-6.181c-0.152-0.241,0-0.537,0.299-0.537h2.441c0.149,0,0.244,0.093,0.3,0.167l2.611,3.794l2.609-3.794
			c0.056-0.074,0.13-0.167,0.3-0.167h2.439c0.301,0,0.451,0.296,0.301,0.537l-4.204,6.163v5.901c0,0.186-0.171,0.352-0.356,0.352
			h-2.234C105.498,73.139,105.35,72.973,105.35,72.787z"/>
	</g>
</g>
</svg>
