<?xml version="1.0" encoding="UTF-8" standalone="no"?>
<svg xmlns="http://www.w3.org/2000/svg" width="140" height="27" viewBox="0 0 108 21" version="1.1"><title>  QuadPay - Pay in 4 installments</title><g style="fill-rule:evenodd;fill:none"><path id="qp-modal__logo-q" d="M18.27 15.61L16.5 13.26C16.41 13.15 16.28 13.08 16.14 13.08L7.32 13.08C4.91 12.82 3.1 10.75 3.1 8.26 3.1 5.58 5.21 3.41 7.81 3.41 7.93 3.41 8.04 3.41 8.15 3.42 9.21 3.5 10.2 3.94 10.99 4.67 11.86 5.49 12.18 6.6 12.29 7.8L12.29 7.88 12.29 10.51C12.29 10.76 12.49 10.95 12.73 10.95L15.07 10.95C15.31 10.95 15.51 10.76 15.51 10.51 15.51 10.51 15.51 10.51 15.51 10.51 15.51 8.73 15.5 7.82 15.5 7.79 15.26 3.55 11.85 0.23 7.76 0.23 3.48 0.23 0 3.84 0 8.28 0 12.45 3.02 15.89 7.02 16.29 7.04 16.29 7.17 16.3 7.74 16.32L11.66 16.32 12.29 16.32 12.29 17.2 12.29 18.19 12.29 18.87C12.29 19.01 12.36 19.14 12.48 19.23L14.82 20.89C15.02 21.03 15.29 20.98 15.43 20.78 15.49 20.71 15.52 20.62 15.52 20.52L15.51 17.2 15.51 16.32 16.36 16.32 17.92 16.32C18.16 16.32 18.36 16.12 18.36 15.88 18.36 15.78 18.33 15.69 18.27 15.61Z" fill="#FFFFFF"/><path id="qp-modal__logo-uqadpay" d="M20 10.36C20 13.83 22.82 16.43 26.31 16.43 29.82 16.43 32.67 13.83 32.67 10.36L32.67 0.66C32.67 0.43 32.47 0.23 32.24 0.23L29.51 0.23C29.27 0.23 29.09 0.43 29.09 0.66L29.09 10.18C29.09 11.85 27.91 12.78 26.31 12.78 24.73 12.78 23.58 11.85 23.58 10.18L23.58 0.66C23.58 0.43 23.4 0.23 23.16 0.23L20.42 0.23C20.2 0.23 20 0.43 20 0.66L20 10.36ZM35.04 16.21C34.71 16.21 34.53 15.91 34.67 15.61L41.62 0.25C41.69 0.11 41.84 0 42 0L42.22 0C42.38 0 42.53 0.11 42.6 0.25L49.56 15.61C49.69 15.91 49.51 16.21 49.18 16.21L46.71 16.21C46.31 16.21 46.13 16.07 45.93 15.64L45.13 13.83 39.09 13.83 38.29 15.66C38.18 15.93 37.93 16.21 37.49 16.21L35.04 16.21ZM40.42 10.73L43.8 10.73 42.11 6.96 42.09 6.96 40.42 10.73ZM52.2 15.77L52.2 0.66C52.2 0.43 52.38 0.23 52.6 0.23L58.02 0.23C62.31 0.23 65.82 3.81 65.82 8.19 65.82 12.62 62.31 16.21 58.02 16.21L52.6 16.21C52.38 16.21 52.2 16 52.2 15.77ZM55.67 12.83L58 12.83C60.51 12.83 62.13 10.8 62.13 8.19 62.13 5.62 60.51 3.58 58 3.58L55.67 3.58 55.67 12.83ZM69.36 15.77L69.36 0.66C69.36 0.43 69.53 0.23 69.78 0.23L75.13 0.23C78.07 0.23 80.11 2.51 80.11 5.27 80.11 8.1 78.07 10.41 75.16 10.41L72.82 10.41 72.82 15.77C72.82 16 72.62 16.21 72.4 16.21L69.78 16.21C69.53 16.21 69.36 16 69.36 15.77ZM72.82 7.08L75.07 7.08C76.02 7.08 76.69 6.3 76.69 5.27 76.69 4.31 76.02 3.58 75.07 3.58L72.82 3.58 72.82 7.08ZM80.47 16.21C80.13 16.21 79.96 15.91 80.09 15.61L87.04 0.25C87.11 0.11 87.27 0 87.42 0L87.64 0C87.8 0 87.96 0.11 88.02 0.25L94.98 15.61C95.11 15.91 94.93 16.21 94.6 16.21L92.13 16.21C91.73 16.21 91.56 16.07 91.36 15.64L90.56 13.83 84.51 13.83 83.71 15.66C83.6 15.93 83.36 16.21 82.91 16.21L80.47 16.21ZM85.84 10.73L89.22 10.73 87.53 6.96 87.51 6.96 85.84 10.73ZM99.24 15.77L99.24 8.51 94.33 0.89C94.16 0.59 94.33 0.23 94.69 0.23L97.58 0.23C97.76 0.23 97.87 0.34 97.93 0.43L101.02 5.11 104.11 0.43C104.18 0.34 104.27 0.23 104.47 0.23L107.36 0.23C107.71 0.23 107.89 0.59 107.71 0.89L102.73 8.49 102.73 15.77C102.73 16 102.53 16.21 102.31 16.21L99.67 16.21C99.42 16.21 99.24 16 99.24 15.77Z" fill="#FFFFFF"/></g></svg>
