<?xml version="1.0" encoding="UTF-8"?>
<svg width="45px" height="44px" viewBox="0 0 45 44" version="1.1" xmlns="http://www.w3.org/2000/svg" xmlns:xlink="http://www.w3.org/1999/xlink">
    <!-- Generator: Sketch 42 (36781) - http://www.bohemiancoding.com/sketch -->
    <title>Group 6 Copy 2</title>
    <desc>Created with Sketch.</desc>
    <defs></defs>
    <g id="Page-1" stroke="none" stroke-width="1" fill="none" fill-rule="evenodd">
        <g id="Artboard" transform="translate(-7.000000, -8.000000)" fill="#000000">
            <g id="Group-6-Copy-2" transform="translate(7.000000, 8.000000)">
                <path d="M22.5123167,23.5763886 C15.5687005,23.5763886 9.91945173,18.2881208 9.91945173,11.7881943 C9.91945173,5.28826776 15.5687005,0 22.5123167,0 C29.4559329,0 35.1051816,5.28826776 35.1051816,11.7881943 C35.1051816,18.2881208 29.4559329,23.5763886 22.5123167,23.5763886 Z M22.5123167,2.38934582 C16.97194,2.38934582 12.471896,6.60184177 12.471896,11.7881943 C12.471896,16.9745468 16.97194,21.1870428 22.5123167,21.1870428 C28.0526934,21.1870428 32.5527373,16.9745468 32.5527373,11.7881943 C32.5527373,6.60184177 28.0526934,2.38934582 22.5123167,2.38934582 Z" id="Shape"></path>
                <path d="M43.7060721,43.4272096 C43.0044523,43.4272096 42.4358984,42.8949856 42.4358984,42.2381986 C42.4358984,31.9447609 33.4962949,23.5763886 22.5002198,23.5763886 C11.5041446,23.5763886 2.55244429,31.933437 2.55244429,42.2268747 C2.55244429,42.8836617 1.98389035,43.4158856 1.28227059,43.4158856 C0.580650833,43.4158856 0,42.8836617 0,42.2268747 C0,30.619863 10.0888082,21.1757189 22.4881229,21.1757189 C34.8874376,21.1757189 44.9762458,30.619863 44.9762458,42.2268747 C44.9762458,42.8836617 44.4076918,43.4272096 43.7060721,43.4272096 Z" id="Shape"></path>
            </g>
        </g>
    </g>
</svg>