<?xml version="1.0" encoding="UTF-8"?>
<svg width="60px" height="60px" viewBox="0 0 60 60" version="1.1" xmlns="http://www.w3.org/2000/svg" xmlns:xlink="http://www.w3.org/1999/xlink">
    <!-- Generator: Sketch 41.2 (35397) - http://www.bohemiancoding.com/sketch -->
    <title>Calendar</title>
    <desc>Created with Sketch.</desc>
    <defs></defs>
    <g id="Page-1" stroke="none" stroke-width="1" fill="none" fill-rule="evenodd">
        <g id="Calendar" fill="#333332">
            <g id="1476418446_calendar" transform="translate(11.000000, 11.000000)">
                <g id="calendar_1_">
                    <path d="M34.834125,3.5625 L29.6875,3.5625 L29.6875,1.1875 C29.6875,0.5308125 29.1566875,0 28.5,0 C27.8433125,0 27.3125,0.5308125 27.3125,1.1875 L27.3125,3.5625 L20.1875,3.5625 L20.1875,1.1875 C20.1875,0.5308125 19.6555,0 19,0 C18.3445,0 17.8125,0.5308125 17.8125,1.1875 L17.8125,3.5625 L10.6875,3.5625 L10.6875,1.1875 C10.6875,0.5308125 10.1555,0 9.5,0 C8.8445,0 8.3125,0.5308125 8.3125,1.1875 L8.3125,3.5625 L3.1670625,3.5625 C1.417875,3.5625 0,4.9791875 0,6.728375 L0,34.8329375 C0,36.582125 1.417875,38 3.1670625,38 L34.834125,38 C36.5833125,38 38,36.582125 38,34.8329375 L38,6.728375 C38,4.9791875 36.5833125,3.5625 34.834125,3.5625 L34.834125,3.5625 Z M35.625,34.8329375 C35.625,35.2699375 35.2699375,35.625 34.834125,35.625 L3.1670625,35.625 C2.7300625,35.625 2.375,35.2699375 2.375,34.8329375 L2.375,6.728375 C2.375,6.2925625 2.7300625,5.9375 3.1670625,5.9375 L8.3125,5.9375 L8.3125,8.3125 C8.3125,8.9691875 8.8445,9.5 9.5,9.5 C10.1555,9.5 10.6875,8.9691875 10.6875,8.3125 L10.6875,5.9375 L17.8125,5.9375 L17.8125,8.3125 C17.8125,8.9691875 18.3445,9.5 19,9.5 C19.6555,9.5 20.1875,8.9691875 20.1875,8.3125 L20.1875,5.9375 L27.3125,5.9375 L27.3125,8.3125 C27.3125,8.9691875 27.8433125,9.5 28.5,9.5 C29.1566875,9.5 29.6875,8.9691875 29.6875,8.3125 L29.6875,5.9375 L34.834125,5.9375 C35.2699375,5.9375 35.625,6.2925625 35.625,6.728375 L35.625,34.8329375 L35.625,34.8329375 Z" id="Shape"></path>
                    <rect id="Rectangle-path" x="8.3125" y="14.25" width="4.75" height="3.5625"></rect>
                    <rect id="Rectangle-path" x="8.3125" y="20.1875" width="4.75" height="3.5625"></rect>
                    <rect id="Rectangle-path" x="8.3125" y="26.125" width="4.75" height="3.5625"></rect>
                    <rect id="Rectangle-path" x="16.625" y="26.125" width="4.75" height="3.5625"></rect>
                    <rect id="Rectangle-path" x="16.625" y="20.1875" width="4.75" height="3.5625"></rect>
                    <rect id="Rectangle-path" x="16.625" y="14.25" width="4.75" height="3.5625"></rect>
                    <rect id="Rectangle-path" x="24.9375" y="26.125" width="4.75" height="3.5625"></rect>
                    <rect id="Rectangle-path" x="24.9375" y="20.1875" width="4.75" height="3.5625"></rect>
                    <rect id="Rectangle-path" x="24.9375" y="14.25" width="4.75" height="3.5625"></rect>
                </g>
            </g>
        </g>
    </g>
</svg>