<?xml version="1.0" encoding="UTF-8"?>
<svg width="60px" height="60px" viewBox="0 0 60 60" version="1.1" xmlns="http://www.w3.org/2000/svg" xmlns:xlink="http://www.w3.org/1999/xlink">
    <!-- Generator: Sketch 41.2 (35397) - http://www.bohemiancoding.com/sketch -->
    <title>Cart</title>
    <desc>Created with Sketch.</desc>
    <defs>
        <polygon id="path-1" points="19.5510384 0.641025641 0.0615384615 0.641025641 0.0615384615 40.0235897 39.0405383 40.0235897 39.0405383 0.641025641 19.5510384 0.641025641"></polygon>
    </defs>
    <g id="Page-1" stroke="none" stroke-width="1" fill="none" fill-rule="evenodd">
        <g id="Cart">
            <g id="Group-3-Copy" transform="translate(11.000000, 7.000000)">
                <g id="Group">
                    <g id="shopping-purse-icon">
                        <mask id="mask-2" fill="white">
                            <use xlink:href="#path-1"></use>
                        </mask>
                        <g id="Clip-2"></g>
                        <path d="M12.7364103,17.1558974 C13.6420513,17.1558974 14.3794872,16.4184615 14.3794872,15.5128205 L14.3794872,9.11487179 C14.3794872,6.25025641 16.7066667,3.92205128 19.5671795,3.92205128 C22.4276923,3.92205128 24.7558974,6.25025641 24.7558974,9.11487179 L24.7558974,15.5128205 C24.7558974,16.4184615 25.4923077,17.1558974 26.3979487,17.1558974 C27.3035897,17.1558974 28.0410256,16.4184615 28.0410256,15.5128205 L28.0410256,9.11487179 C28.0410256,4.44307692 24.2389744,0.641025641 19.5671795,0.641025641 C14.8953846,0.641025641 11.0974359,4.44307692 11.0974359,9.11487179 L11.0974359,15.5128205 C11.0974359,16.4184615 11.8307692,17.1558974 12.7364103,17.1558974 Z" id="Fill-1" fill="#000000" mask="url(#mask-2)"></path>
                        <path d="M38.3938462,13.465641 L29.68,13.465641 L29.68,15.5128205 C29.68,17.3241026 28.2092308,18.7938462 26.3979487,18.7938462 C24.5876923,18.7938462 23.1169231,17.3241026 23.1169231,15.5128205 L23.1169231,13.465641 L16.0215385,13.465641 L16.0215385,15.5128205 C16.0215385,17.3241026 14.5476923,18.7938462 12.7405128,18.7938462 C10.9292308,18.7938462 9.45538462,17.3241026 9.45538462,15.5128205 L9.45538462,13.465641 L0.649230769,13.465641 C0.195897436,13.465641 -0.0841025641,13.8225641 0.0235897436,14.2625641 L5.76512821,37.6441026 C6.10974359,38.9579487 7.49641026,40.0235897 8.85435897,40.0235897 L30.1887179,40.0235897 C31.5466667,40.0235897 32.9282051,38.9579487 33.2769231,37.6441026 L39.0184615,14.2625641 C39.1230769,13.8225641 38.8461538,13.465641 38.3938462,13.465641 Z" id="Fill-3" fill="#000000" mask="url(#mask-2)"></path>
                    </g>
                </g>
            </g>
        </g>
    </g>
</svg>