<?xml version="1.0" encoding="UTF-8"?>
<svg width="45px" height="45px" viewBox="0 0 45 45" version="1.1" xmlns="http://www.w3.org/2000/svg" xmlns:xlink="http://www.w3.org/1999/xlink">
    <!-- Generator: Sketch 41.2 (35397) - http://www.bohemiancoding.com/sketch -->
    <title>Cart default</title>
    <desc>Created with Sketch.</desc>
    <defs>
        <polygon id="path-1" points="11.730623 1 0.0369230769 1 0.0369230769 24.99875 23.424323 24.99875 23.424323 1 11.730623 1"></polygon>
    </defs>
    <g id="Page-1" stroke="none" stroke-width="1" fill="none" fill-rule="evenodd">
        <g id="Cart-default">
            <g id="shopping-purse-icon" transform="translate(11.000000, 9.000000)">
                <mask id="mask-2" fill="white">
                    <use xlink:href="#path-1"></use>
                </mask>
                <g id="Clip-2"></g>
                <path d="M7.64184615,11.06375 C8.18523077,11.06375 8.62769231,10.614375 8.62769231,10.0625 L8.62769231,6.16375 C8.62769231,4.418125 10.024,2.999375 11.7403077,2.999375 C13.4566154,2.999375 14.8535385,4.418125 14.8535385,6.16375 L14.8535385,10.0625 C14.8535385,10.614375 15.2953846,11.06375 15.8387692,11.06375 C16.3821538,11.06375 16.8246154,10.614375 16.8246154,10.0625 L16.8246154,6.16375 C16.8246154,3.316875 14.5433846,1 11.7403077,1 C8.93723077,1 6.65846154,3.316875 6.65846154,6.16375 L6.65846154,10.0625 C6.65846154,10.614375 7.09846154,11.06375 7.64184615,11.06375 Z" id="Fill-1" fill="#000000" mask="url(#mask-2)"></path>
                <path d="M23.0363077,8.815 L17.808,8.815 L17.808,10.0625 C17.808,11.16625 16.9255385,12.061875 15.8387692,12.061875 C14.7526154,12.061875 13.8701538,11.16625 13.8701538,10.0625 L13.8701538,8.815 L9.61292308,8.815 L9.61292308,10.0625 C9.61292308,11.16625 8.72861538,12.061875 7.64430769,12.061875 C6.55753846,12.061875 5.67323077,11.16625 5.67323077,10.0625 L5.67323077,8.815 L0.389538462,8.815 C0.117538462,8.815 -0.0504615385,9.0325 0.0141538462,9.300625 L3.45907692,23.54875 C3.66584615,24.349375 4.49784615,24.99875 5.31261538,24.99875 L18.1132308,24.99875 C18.928,24.99875 19.7569231,24.349375 19.9661538,23.54875 L23.4110769,9.300625 C23.4738462,9.0325 23.3076923,8.815 23.0363077,8.815 Z" id="Fill-3" fill="#000000" mask="url(#mask-2)"></path>
            </g>
        </g>
    </g>
</svg>