<?xml version="1.0" encoding="UTF-8"?>
<svg width="450px" height="450px" viewBox="0 0 450 450" version="1.1" xmlns="http://www.w3.org/2000/svg" xmlns:xlink="http://www.w3.org/1999/xlink">
    <!-- Generator: Sketch 41.2 (35397) - http://www.bohemiancoding.com/sketch -->
    <title>Fabric and Colour</title>
    <desc>Created with Sketch.</desc>
    <defs></defs>
    <g id="Page-1" stroke="none" stroke-width="1" fill="none" fill-rule="evenodd" stroke-linecap="round" stroke-linejoin="round">
        <g id="Fabric-and-Colour" stroke="#1D1D1B" stroke-width="10">
            <g id="Page-1" transform="translate(69.000000, 70.000000)">
                <path d="M222.373,210.0282 L222.373,36.7952 C222.373,16.6702 205.98,2.1382 185.894,0.3152 C167.978,-1.2658 151.557,2.7462 116.668,20.4112 C79.543,39.1572 33.199,39.1572 0,5.8122 L0,179.0552 C33.199,212.4012 79.543,212.4012 116.668,193.6352 C151.557,175.9892 167.978,171.9592 185.894,173.5972 C205.98,175.3722 222.373,189.8942 222.373,210.0282 C222.373,230.1822 206.049,246.4982 185.894,246.4982 C171.324,246.6912 159.81,241.3292 159.81,241.3292 C146.32,236.8162 136.291,235.8332 125.81,236.7392 C105.715,238.5522 89.302,253.0932 89.302,273.2092 C89.302,293.3622 105.715,307.9042 125.81,309.6772 C143.736,311.2792 160.178,307.2672 195.046,289.6012 C232.189,270.8562 278.514,270.8562 311.725,304.2202 L311.725,132.7512 C286.258,107.2552 253.163,101.2582 222.335,108.2772" id="Stroke-3"></path>
                <path d="M80.8359,165.8447 L7.4529,301.2117" id="Stroke-5"></path>
                <path d="M80.8359,165.8447 C80.8359,165.8447 90.1899,148.8157 110.2069,131.1507 C120.7479,121.9117 134.2759,118.7307 141.0069,106.4837 C147.4779,94.6227 143.1669,79.9657 131.3359,73.6787 L131.1329,73.5817 L131.3359,73.6787 L131.1329,73.5817 C119.3499,67.2947 104.4409,71.8267 97.9609,83.6587 C91.2399,95.8957 96.0139,108.7787 93.9209,122.5487 C89.9569,148.7197 80.6229,165.7097 80.6229,165.7097" id="Stroke-7"></path>
                <path d="M89.3018,268.8886 L89.3018,203.6256" id="Stroke-9"></path>
            </g>
        </g>
    </g>
</svg>