<?xml version="1.0" encoding="UTF-8"?>
<svg width="450px" height="450px" viewBox="0 0 450 450" version="1.1" xmlns="http://www.w3.org/2000/svg" xmlns:xlink="http://www.w3.org/1999/xlink">
    <!-- Generator: Sketch 41.2 (35397) - http://www.bohemiancoding.com/sketch -->
    <title>Fit Adjustments</title>
    <desc>Created with Sketch.</desc>
    <defs></defs>
    <g id="Page-1" stroke="none" stroke-width="1" fill="none" fill-rule="evenodd" stroke-linecap="round" stroke-linejoin="round">
        <g id="Fit-Adjustments" stroke="#1D1D1B" stroke-width="10">
            <g id="Page-1" transform="translate(82.000000, 62.000000)">
                <path d="M111.1091,215.1708 L101.2321,216.0778 C71.0431,218.9638 21.7931,230.0768 5.4161,263.0658 C-9.2069,292.5448 8.1151,316.5848 29.6211,323.2338 C55.4061,331.2078 125.3411,316.2638 109.3341,191.4728 C103.7381,147.8178 42.9271,21.3698 42.9271,21.3698 C42.9271,21.3698 36.7461,7.6248 49.7521,1.3368 C61.7421,-4.4732 69.8241,10.5398 69.8241,10.5398 L166.3041,170.1818 C166.3041,170.1818 170.2241,177.4538 172.1541,182.4258 C173.5191,186.3058 174.3381,189.7368 174.3381,192.4078 C174.3381,208.9228 160.6301,222.3168 143.7071,222.3168 L142.3241,222.3168 C125.4001,222.3168 111.6931,208.9228 111.6931,192.4078 C111.6931,189.7368 112.5111,186.3058 113.8771,182.4258 C115.8061,177.4538 119.7261,170.1818 119.7261,170.1818 L216.2071,10.5398 C216.2071,10.5398 224.2891,-4.4732 236.2791,1.3368 C249.2851,7.6248 243.1031,21.3698 243.1031,21.3698 C243.1031,21.3698 182.2931,147.8178 176.6971,191.4728 C160.6891,316.2638 230.6251,331.2078 256.4101,323.2338 C277.9161,316.5848 295.2381,292.5448 280.6151,263.0658 C264.2381,230.0768 214.9881,218.9638 184.7971,216.0778 L174.9221,215.1708" id="Stroke-7"></path>
            </g>
        </g>
    </g>
</svg>