<?xml version="1.0" encoding="UTF-8"?>
<svg width="60px" height="60px" viewBox="0 0 60 60" version="1.1" xmlns="http://www.w3.org/2000/svg" xmlns:xlink="http://www.w3.org/1999/xlink">
    <!-- Generator: Sketch 41.2 (35397) - http://www.bohemiancoding.com/sketch -->
    <title>Hamburger</title>
    <desc>Created with Sketch.</desc>
    <defs></defs>
    <g id="Page-1" stroke="none" stroke-width="1" fill="none" fill-rule="evenodd">
        <g id="Hamburger" fill="#000000">
            <g id="1477278474_Menu1" transform="translate(10.000000, 16.000000)">
                <g id="Menu">
                    <path d="M1.25,2.47058824 L38.75,2.47058824 C39.44,2.47058824 40,1.91717647 40,1.23529412 C40,0.553411765 39.44,0 38.75,0 L1.25,0 C0.56,0 0,0.553411765 0,1.23529412 C0,1.91717647 0.56,2.47058824 1.25,2.47058824 L1.25,2.47058824 Z" id="Shape"></path>
                    <path d="M38.75,12.3529412 L1.25,12.3529412 C0.56,12.3529412 0,12.9063529 0,13.5882353 C0,14.2701176 0.56,14.8235294 1.25,14.8235294 L38.75,14.8235294 C39.44,14.8235294 40,14.2701176 40,13.5882353 C40,12.9063529 39.44,12.3529412 38.75,12.3529412 L38.75,12.3529412 Z" id="Shape"></path>
                    <path d="M38.75,24.7058824 L1.25,24.7058824 C0.56,24.7058824 0,25.2592941 0,25.9411765 C0,26.6230588 0.56,27.1764706 1.25,27.1764706 L38.75,27.1764706 C39.44,27.1764706 40,26.6230588 40,25.9411765 C40,25.2592941 39.44,24.7058824 38.75,24.7058824 L38.75,24.7058824 Z" id="Shape"></path>
                </g>
            </g>
        </g>
    </g>
</svg>