<?xml version="1.0" encoding="UTF-8"?>
<svg width="60px" height="60px" viewBox="0 0 60 60" version="1.1" xmlns="http://www.w3.org/2000/svg" xmlns:xlink="http://www.w3.org/1999/xlink">
    <!-- Generator: Sketch 41.2 (35397) - http://www.bohemiancoding.com/sketch -->
    <title>Help</title>
    <desc>Created with Sketch.</desc>
    <defs></defs>
    <g id="Page-1" stroke="none" stroke-width="1" fill="none" fill-rule="evenodd">
        <g id="Help" fill="#090909">
            <path d="M33.144,35.018 C33.144,34.512 33.144,34.144 33.098,33.96 L33.098,33.408 C33.098,31.43 33.374,31.016 35.72,29.314 C38.618,27.152 39.814,25.082 39.814,22.092 C39.814,17.216 36.134,13.812 30.89,13.812 C25.508,13.812 22.242,17.078 22.15,22.598 L27.624,22.598 C27.624,20.39 28.774,19.102 30.752,19.102 C32.592,19.102 33.88,20.39 33.88,22.138 C33.88,23.518 33.282,24.438 31.396,25.864 C27.762,28.716 27.21,29.682 27.21,33.362 C27.21,33.638 27.21,34.282 27.256,35.018 L33.144,35.018 Z M30.292,38.836 C28.268,38.836 26.842,40.262 26.842,42.194 C26.842,44.172 28.268,45.598 30.246,45.598 C32.178,45.598 33.65,44.172 33.65,42.286 C33.65,40.262 32.224,38.836 30.292,38.836 Z" id="?-copy"></path>
        </g>
    </g>
</svg>