<?xml version="1.0" encoding="UTF-8"?>
<svg width="450px" height="450px" viewBox="0 0 450 450" version="1.1" xmlns="http://www.w3.org/2000/svg" xmlns:xlink="http://www.w3.org/1999/xlink">
    <!-- Generator: Sketch 41.2 (35397) - http://www.bohemiancoding.com/sketch -->
    <title>Fit adjustment Hover</title>
    <desc>Created with Sketch.</desc>
    <defs></defs>
    <g id="Page-1" stroke="none" stroke-width="1" fill="none" fill-rule="evenodd">
        <g id="Fit-adjustment-Hover">
            <g id="Page-1" transform="translate(82.000000, 62.000000)">
                <path d="M101.2322,216.2421 C71.0432,219.1281 21.7932,230.1591 5.4162,263.1471 C-9.2068,292.6271 8.1152,316.7901 29.6212,323.4381 C53.6712,330.8771 116.1232,318.4991 111.4252,215.4991 L111.1092,215.4991 L101.2322,216.2421 Z" id="Fill-1" fill="#EDEDED"></path>
                <path d="M243.1033,21.3701 C243.1033,21.3701 249.2853,7.6251 236.2793,1.3371 C224.2893,-4.4729 216.2073,10.5401 216.2073,10.5401 L143.0153,131.6461 L69.8243,10.5401 C69.8243,10.5401 61.7423,-4.4729 49.7513,1.3371 C36.7463,7.6251 42.9273,21.3701 42.9273,21.3701 C42.9273,21.3701 103.7383,147.9821 109.3333,191.6371 C110.4103,200.0291 111.0853,207.4991 111.4253,215.4991 L122.4643,215.4991 C127.8113,219.4991 134.7423,222.4991 142.3243,222.4991 L143.7073,222.4991 C151.2893,222.4991 158.2193,219.4991 163.5663,215.4991 L174.6053,215.4991 C174.9453,207.4991 175.6213,200.0291 176.6973,191.6371 C182.2923,147.9821 243.1033,21.3701 243.1033,21.3701" id="Fill-3" fill="#EDEDED"></path>
                <path d="M280.615,263.0654 C264.238,230.0774 214.988,219.1274 184.797,216.2424 L174.922,215.4994 L174.605,215.4994 C169.908,318.4994 232.359,330.8364 256.41,323.3974 C277.916,316.7494 295.238,292.5444 280.615,263.0654" id="Fill-5" fill="#EDEDED"></path>
                <path d="M111.1091,215.1708 L101.2321,216.0778 C71.0431,218.9638 21.7931,230.0768 5.4161,263.0658 C-9.2069,292.5448 8.1151,316.5848 29.6211,323.2338 C55.4061,331.2078 125.3411,316.2638 109.3341,191.4728 C103.7381,147.8178 42.9271,21.3698 42.9271,21.3698 C42.9271,21.3698 36.7461,7.6248 49.7521,1.3368 C61.7421,-4.4732 69.8241,10.5398 69.8241,10.5398 L166.3041,170.1818 C166.3041,170.1818 170.2241,177.4538 172.1541,182.4258 C173.5191,186.3058 174.3381,189.7368 174.3381,192.4078 C174.3381,208.9228 160.6301,222.3168 143.7071,222.3168 L142.3241,222.3168 C125.4001,222.3168 111.6931,208.9228 111.6931,192.4078 C111.6931,189.7368 112.5111,186.3058 113.8771,182.4258 C115.8061,177.4538 119.7261,170.1818 119.7261,170.1818 L216.2071,10.5398 C216.2071,10.5398 224.2891,-4.4732 236.2791,1.3368 C249.2851,7.6248 243.1031,21.3698 243.1031,21.3698 C243.1031,21.3698 182.2931,147.8178 176.6971,191.4728 C160.6891,316.2638 230.6251,331.2078 256.4101,323.2338 C277.9161,316.5848 295.2381,292.5448 280.6151,263.0658 C264.2381,230.0768 214.9881,218.9638 184.7971,216.0778 L174.9221,215.1708" id="Stroke-7" stroke="#1D1D1B" stroke-width="10" stroke-linecap="round" stroke-linejoin="round"></path>
            </g>
        </g>
    </g>
</svg>