<?xml version="1.0" encoding="UTF-8"?>
<svg width="450px" height="450px" viewBox="0 0 450 450" version="1.1" xmlns="http://www.w3.org/2000/svg" xmlns:xlink="http://www.w3.org/1999/xlink">
    <!-- Generator: Sketch 41.2 (35397) - http://www.bohemiancoding.com/sketch -->
    <title>Size Profile Hover</title>
    <desc>Created with Sketch.</desc>
    <defs></defs>
    <g id="Page-1" stroke="none" stroke-width="1" fill="none" fill-rule="evenodd">
        <g id="Size-Profile-Hover">
            <g id="Page-1" transform="translate(147.000000, 15.000000)">
                <path d="M152.8647,371.6093 L155.5327,358.0323 C172.7927,258.4863 25.5977,234.3883 4.5977,161.6093 C4.5977,161.6093 -0.7793,141.3103 19.8317,139.0503 C37.2667,137.1423 53.0467,125.8823 53.3967,104.2203 C53.4557,100.8693 55.9687,98.0643 59.3777,98.0643 L78.3707,98.0643 L78.5657,98.0643 L97.5587,98.0643 C100.9687,98.0643 103.4807,100.8693 103.5397,104.2203 C103.9097,125.8823 119.6697,137.1423 137.1047,139.0503 C157.7157,141.3103 152.3387,161.6093 152.3387,161.6093 C131.3387,234.3883 -15.8563,258.4863 1.4037,358.0323 L4.0717,371.6093 L152.8647,371.6093 Z" id="Fill-1" fill="#EDEDED"></path>
                <path d="M78.3706,0 L78.1176,0 L78.3706,0 L78.1176,0 C64.3066,-0.039 53.0466,10.947 53.0076,24.525 C52.9486,38.551 67.5196,50.57 74.7866,66.252 C76.5986,70.168 77.7666,73.636 78.4686,76.636 C79.1696,73.636 80.3386,70.168 82.1696,66.252 C89.4166,50.57 103.9876,38.551 103.9296,24.525 C103.8906,10.947 92.6306,-0.039 78.8186,0 L78.5656,0 L78.8186,0 L78.5656,0" id="Fill-3" fill="#EDEDED"></path>
                <path d="M78.4683,372.0771 L78.4683,419.9991" id="Stroke-5" stroke="#1D1D1B" stroke-width="10" stroke-linecap="round" stroke-linejoin="round"></path>
                <path d="M152.8647,371.6093 L155.5327,358.0323 C172.7927,258.4863 25.5977,234.3883 4.5977,161.6093 C4.5977,161.6093 -0.7793,141.3103 19.8317,139.0503 C37.2667,137.1423 53.0467,125.8823 53.3967,104.2203 C53.4557,100.8693 55.9687,98.0643 59.3777,98.0643 L97.5587,98.0643 C100.9687,98.0643 103.4807,100.8693 103.5397,104.2203 C103.9097,125.8823 119.6697,137.1423 137.1047,139.0503 C157.7157,141.3103 152.3387,161.6093 152.3387,161.6093 C131.3387,234.3883 -15.8563,258.4863 1.4037,358.0323 L4.0717,371.6093 L152.8647,371.6093 Z" id="Stroke-7" stroke="#1D1D1B" stroke-width="10" stroke-linecap="round" stroke-linejoin="round"></path>
                <path d="M78.5659,0 L78.8189,0 L78.5659,0 L78.8189,0 C92.6299,-0.039 103.8899,10.947 103.9289,24.525 C103.9879,38.551 89.4169,50.57 82.1699,66.252 C80.3379,70.168 79.1699,73.636 78.4679,76.636 C77.7669,73.636 76.5979,70.168 74.7869,66.252 C67.5199,50.57 52.9489,38.551 53.0069,24.525 C53.0459,10.947 64.3059,-0.039 78.1179,0 L78.3709,0 L78.1179,0 L78.3709,0" id="Stroke-9" stroke="#1D1D1B" stroke-width="10" stroke-linecap="round" stroke-linejoin="round"></path>
                <path d="M78.4683,76.6357 L78.4083,95.5617" id="Stroke-11" stroke="#1D1D1B" stroke-width="10" stroke-linecap="round" stroke-linejoin="round"></path>
            </g>
        </g>
    </g>
</svg>