<?xml version="1.0" encoding="UTF-8"?>
<svg width="450px" height="450px" viewBox="0 0 450 450" version="1.1" xmlns="http://www.w3.org/2000/svg" xmlns:xlink="http://www.w3.org/1999/xlink">
    <!-- Generator: Sketch 41.2 (35397) - http://www.bohemiancoding.com/sketch -->
    <title>Length Hover</title>
    <desc>Created with Sketch.</desc>
    <defs></defs>
    <g id="Page-1" stroke="none" stroke-width="1" fill="none" fill-rule="evenodd">
        <g id="Length-Hover">
            <g id="Page-1" transform="translate(48.000000, 50.000000)">
                <path d="M161.8945,76.9004 C161.1915,73.8904 163.7715,70.4104 165.6095,66.4804 C172.8805,50.7534 187.5055,38.6904 187.4455,24.6144 C187.4065,10.9884 176.1075,-0.0386 162.2465,0.0004 L161.9925,0.0004 L162.2465,0.0004 L161.9925,0.0004 L161.7965,0.0004 L161.5425,0.0004 L161.7965,0.0004 L161.5425,0.0004 C147.6815,-0.0386 136.3805,10.9884 136.3415,24.6144 C136.2835,38.6904 150.9065,50.7534 158.1995,66.4804 C160.0175,70.4104 161.1915,73.8904 161.8945,76.9004" id="Fill-1" fill="#EDEDED"></path>
                <g id="Group-6" transform="translate(0.000000, 103.996000)">
                    <path d="M216.127,82.2491 C245.178,65.2791 317.326,50.0291 354.316,93.0021 L354.316,94.0761 L354.316,202.3451 C354.316,202.3451 304.697,159.5891 235.07,192.2571 C194.856,211.1031 167.877,222.8531 126.998,225.3161 C44.789,230.3011 0,198.1421 0,158.6891 L0,61.0181 L0,59.4141 C0,10.3831 105.16,-16.9689 181.699,13.5101 C192.393,17.7521 215.99,29.7751 215.99,54.5661 L215.871,53.7051 L215.871,137.1061" id="Fill-3" fill="#EDEDED"></path>
                    <path d="M216.127,82.2491 C245.178,65.2791 317.326,50.0291 354.316,93.0021 L354.316,94.0761 L354.316,202.3451 C354.316,202.3451 304.697,159.5891 235.07,192.2571 C194.856,211.1031 167.877,222.8531 126.998,225.3161 C44.789,230.3011 0,198.1421 0,158.6891 L0,61.0181 L0,59.4141 C0,10.3831 105.16,-16.9689 181.699,13.5101 C192.393,17.7521 215.99,29.7751 215.99,54.5661 L215.871,53.7051 L215.871,137.1061" id="Stroke-5" stroke="#1D1D1B" stroke-width="10" stroke-linecap="round" stroke-linejoin="round"></path>
                </g>
                <path d="M161.8945,148.455 L161.8945,111.191" id="Stroke-7" stroke="#1D1D1B" stroke-width="10" stroke-linecap="round" stroke-linejoin="round"></path>
                <path d="M107.9355,141.9628 L107.9355,104.7008" id="Stroke-9" stroke="#1D1D1B" stroke-width="10" stroke-linecap="round" stroke-linejoin="round"></path>
                <path d="M53.9785,150.3906 L53.9785,113.1266" id="Stroke-11" stroke="#1D1D1B" stroke-width="10" stroke-linecap="round" stroke-linejoin="round"></path>
                <path d="M161.8945,76.9004 C161.1915,73.8904 163.7715,70.4104 165.6095,66.4804 C172.8805,50.7534 187.5055,38.6904 187.4455,24.6144 C187.4065,10.9884 176.1075,-0.0386 162.2465,0.0004 L161.9925,0.0004 L162.2465,0.0004 L161.9925,0.0004 L161.7965,0.0004 L161.5425,0.0004 L161.7965,0.0004 L161.5425,0.0004 C147.6815,-0.0386 136.3805,10.9884 136.3415,24.6144 C136.2835,38.6904 150.9065,50.7534 158.1995,66.4804 C160.0175,70.4104 161.1915,73.8904 161.8945,76.9004 Z" id="Stroke-13" stroke="#1D1D1B" stroke-width="10" stroke-linecap="round" stroke-linejoin="round"></path>
                <path d="M161.8945,76.9004 L161.8945,111.1914" id="Stroke-15" stroke="#1D1D1B" stroke-width="10" stroke-linecap="round" stroke-linejoin="round"></path>
                <path d="M161.8945,198.0136 L161.8945,349.9956" id="Stroke-17" stroke="#1D1D1B" stroke-width="10" stroke-linecap="round" stroke-linejoin="round"></path>
                <path d="M20.4883,222.1972 C37.6933,209.8512 61.7403,210.0862 75.6383,214.0452 C123.4203,227.6332 126.8423,275.8822 176.6343,275.8822 C192.4903,275.8822 212.7053,266.7712 215.5973,245.1492 C218.7073,221.7282 195.9513,207.7302 184.2403,203.6832 C100.3123,174.7692 0.0003,205.8342 0.0003,262.6852" id="Stroke-19" stroke="#1D1D1B" stroke-width="10" stroke-linecap="round" stroke-linejoin="round"></path>
            </g>
        </g>
    </g>
</svg>