<?xml version="1.0" encoding="UTF-8"?>
<svg width="450px" height="450px" viewBox="0 0 450 450" version="1.1" xmlns="http://www.w3.org/2000/svg" xmlns:xlink="http://www.w3.org/1999/xlink">
    <!-- Generator: Sketch 41.2 (35397) - http://www.bohemiancoding.com/sketch -->
    <title>Fabric and Colour Hover</title>
    <desc>Created with Sketch.</desc>
    <defs></defs>
    <g id="Page-1" stroke="none" stroke-width="1" fill="none" fill-rule="evenodd">
        <g id="Fabric-and-Colour-Hover">
            <g id="Page-1" transform="translate(69.000000, 70.000000)">
                <path d="M311.7246,304.2206 C278.5136,270.8566 232.1896,270.8566 195.0456,289.6016 C160.1776,307.2676 143.7366,311.2796 125.8106,309.6776 C105.7146,307.9046 89.3016,293.3626 89.3016,273.2086 L89.3016,268.8886 L89.3016,204.2496 L89.3026,203.5596 C58.5226,210.5596 25.4126,204.5796 0.0016,179.0596 L-0.0004,179.0556 L-0.0004,5.8126 C33.1996,39.1576 79.5426,39.1576 116.6676,20.4106 C151.5566,2.7456 167.9786,-1.2654 185.8946,0.3156 C205.9806,2.1386 222.3726,16.6696 222.3726,36.7946 L222.8626,36.9996 L222.8626,107.9996 L222.3346,108.2776 C253.1626,101.2576 286.2576,107.2546 311.7246,132.7506 L311.7246,304.2206 Z" id="Fill-1" fill="#F2F2F2"></path>
                <path d="M222.373,210.0282 L222.373,36.7952 C222.373,16.6702 205.98,2.1382 185.894,0.3152 C167.978,-1.2658 151.557,2.7462 116.668,20.4112 C79.543,39.1572 33.199,39.1572 0,5.8122 L0,179.0552 C33.199,212.4012 79.543,212.4012 116.668,193.6352 C151.557,175.9892 167.978,171.9592 185.894,173.5972 C205.98,175.3722 222.373,189.8942 222.373,210.0282 C222.373,230.1822 206.049,246.4982 185.894,246.4982 C171.324,246.6912 159.81,241.3292 159.81,241.3292 C146.32,236.8162 136.291,235.8332 125.81,236.7392 C105.715,238.5522 89.302,253.0932 89.302,273.2092 C89.302,293.3622 105.715,307.9042 125.81,309.6772 C143.736,311.2792 160.178,307.2672 195.046,289.6012 C232.189,270.8562 278.514,270.8562 311.725,304.2202 L311.725,132.7512 C286.258,107.2552 253.163,101.2582 222.335,108.2772" id="Stroke-3" stroke="#1D1D1B" stroke-width="10" stroke-linecap="round" stroke-linejoin="round"></path>
                <path d="M80.8359,165.8447 L7.4529,301.2117" id="Stroke-5" stroke="#1D1D1B" stroke-width="10" stroke-linecap="round" stroke-linejoin="round"></path>
                <path d="M80.8359,165.8447 C80.8359,165.8447 90.1899,148.8157 110.2069,131.1507 C120.7479,121.9117 134.2759,118.7307 141.0069,106.4837 C147.4779,94.6227 143.1669,79.9657 131.3359,73.6787 L131.1329,73.5817 L131.3359,73.6787 L131.1329,73.5817 C119.3499,67.2947 104.4409,71.8267 97.9609,83.6587 C91.2399,95.8957 96.0139,108.7787 93.9209,122.5487 C89.9569,148.7197 80.6229,165.7097 80.6229,165.7097" id="Stroke-7" stroke="#1D1D1B" stroke-width="10" stroke-linecap="round" stroke-linejoin="round"></path>
                <path d="M89.3018,268.8886 L89.3018,203.6256" id="Stroke-9" stroke="#1D1D1B" stroke-width="10" stroke-linecap="round" stroke-linejoin="round"></path>
            </g>
        </g>
    </g>
</svg>