<?xml version="1.0" encoding="UTF-8"?>
<svg width="450px" height="450px" viewBox="0 0 450 450" version="1.1" xmlns="http://www.w3.org/2000/svg" xmlns:xlink="http://www.w3.org/1999/xlink">
    <!-- Generator: Sketch 41.2 (35397) - http://www.bohemiancoding.com/sketch -->
    <title>Style Addons Hover</title>
    <desc>Created with Sketch.</desc>
    <defs></defs>
    <g id="Page-1" stroke="none" stroke-width="1" fill="none" fill-rule="evenodd">
        <g id="Style-Addons-Hover">
            <g id="Page-1" transform="translate(51.000000, 75.000000)">
                <path d="M347.292,124.9326 L347.292,42.0016 C347.292,10.4636 321.815,-0.0004 304.075,-0.0004 C271.999,-0.0004 254.605,25.4756 241.775,37.7966 C221.242,57.5076 204.433,67.0626 174.255,68.8756 C144.079,67.0626 127.25,57.5076 106.717,37.7966 C93.866,25.4756 76.556,-0.0004 44.48,-0.0004 C26.759,-0.0004 1.292,10.4636 1.292,42.0016 L1.292,124.9326 C1.292,156.6666 26.915,173.9996 55.901,173.9996 L98.853,173.9996 C77.045,194.9996 28.323,227.3476 6.339,241.0786 L60.048,299.9756 L68.811,292.6716 C151.525,221.4386 174.272,173.9996 174.272,173.9996 L174.292,173.9996 L174.312,173.9996 C174.312,173.9996 197.059,221.4516 279.773,292.6836 L288.517,299.9606 L342.244,241.0576 C320.261,227.3276 271.539,194.9996 249.73,173.9996 L292.683,173.9996 C321.669,173.9996 347.292,156.6666 347.292,124.9326" id="Fill-1" fill="#EDEDED"></path>
                <path d="M347.584,124.9326 L347.584,42.0016 C347.584,10.4636 321.962,-0.0004 304.222,-0.0004 C272.146,-0.0004 254.679,25.4756 241.849,37.7966 C221.312,57.5126 204.462,67.0676 174.272,68.8766 L174.312,68.8766 C144.122,67.0676 127.272,57.5126 106.735,37.7966 C93.885,25.4756 76.419,-0.0004 44.343,-0.0004 C26.622,-0.0004 1,10.4636 1,42.0016 L1,124.9326" id="Stroke-3" stroke="#1D1D1B" stroke-width="10" stroke-linecap="round" stroke-linejoin="round"></path>
                <path d="M174.2725,174.0986 L292.6825,174.0986 C321.6685,174.0986 347.5845,156.6666 347.5845,124.9326 C347.5845,93.3836 317.2675,86.9296 308.6035,86.9296 C288.3985,86.9296 276.4675,97.5786 264.8885,111.0846 C249.8875,128.5896 220.5005,168.4266 174.3215,174.0986 L174.2725,174.0986 Z" id="Stroke-5" stroke="#1D1D1B" stroke-width="10" stroke-linecap="round" stroke-linejoin="round"></path>
                <path d="M174.3115,174.0986 L55.9015,174.0986 C26.9155,174.0986 0.9995,156.6666 0.9995,124.9326 C0.9995,93.3836 31.3165,86.9296 39.9805,86.9296 C60.1845,86.9296 72.1165,97.5786 83.6945,111.0846 C98.6965,128.5896 128.0835,168.4266 174.2625,174.0986 L174.3115,174.0986 Z" id="Stroke-7" stroke="#1D1D1B" stroke-width="10" stroke-linecap="round" stroke-linejoin="round"></path>
                <path d="M249.7305,174.0986 C271.5395,194.6556 320.2605,227.3966 342.2445,241.1266 L288.5165,299.9996 L279.7735,292.7626 C197.0585,221.5296 174.3115,174.1576 174.3115,174.1576 L174.2725,174.1576 C174.2725,174.1576 151.5255,221.5296 68.8105,292.7626 L60.0475,299.9996 L6.3385,241.1266 C28.3235,227.3966 77.0445,194.6556 98.8525,174.0986" id="Stroke-9" stroke="#1D1D1B" stroke-width="10" stroke-linecap="round" stroke-linejoin="round"></path>
                <path d="M174.3115,174.0986 C174.3115,174.0986 202.2215,155.4246 202.2215,114.7816 C202.2215,85.5796 186.4975,75.2916 174.3115,75.2916 C162.1455,75.2916 146.3625,85.5796 146.3625,114.7816 C146.3625,155.4246 174.3115,174.0986 174.3115,174.0986 Z" id="Stroke-11" stroke="#1D1D1B" stroke-width="10" stroke-linecap="round" stroke-linejoin="round"></path>
            </g>
        </g>
    </g>
</svg>