<?xml version="1.0" encoding="UTF-8"?>
<svg width="450px" height="450px" viewBox="0 0 450 450" version="1.1" xmlns="http://www.w3.org/2000/svg" xmlns:xlink="http://www.w3.org/1999/xlink">
    <!-- Generator: Sketch 41.2 (35397) - http://www.bohemiancoding.com/sketch -->
    <title>Silhoutte_Selected</title>
    <desc>Created with Sketch.</desc>
    <defs></defs>
    <g id="Page-1" stroke="none" stroke-width="1" fill="none" fill-rule="evenodd">
        <g id="Silhoutte_Selected">
            <g id="Page-1" transform="translate(111.000000, 35.000000)">
                <path d="M114.2335,41.6904 C114.2335,41.6904 114.2335,41.6794 114.2435,41.6794 C114.5335,41.2304 120.0235,32.9694 121.7035,30.0804 C131.8135,12.6604 149.9035,0.0004 171.7435,0.0004 C202.7945,0.0004 227.9535,24.7304 227.9535,55.2004 C227.9535,71.3304 222.5235,84.6904 215.5735,96.0894 L219.6425,88.3524 C219.6425,88.3524 182.4735,153.8784 191.2085,201.6454 C195.0115,222.5694 206.5805,237.2044 213.5675,248.0154 C228.8815,271.7334 228.2025,289.2024 228.2025,289.2024 L113.9765,380.0004 L114.2305,380.0004 L0.0045,289.2024 C0.0045,289.2024 -0.6745,271.7334 14.6585,248.0154 C21.6265,237.2044 33.1945,222.5694 37.0195,201.6454 C45.7335,153.8784 8.5835,88.3524 8.5835,88.3524 L10.9235,92.7004 C10.2735,91.5404 9.6335,90.3604 9.0335,89.1604 C4.0335,79.3494 0.5135,68.1694 0.5135,55.2004 C0.5135,24.7304 25.7035,0.0004 56.7435,0.0004 C78.5735,0.0004 96.6635,12.6604 106.7735,30.0804 C108.4735,32.9694 113.9535,41.2304 114.2435,41.6794 C114.2535,41.6794 114.2535,41.6904 114.2535,41.6904" id="Fill-1" fill="#000000"></path>
                <path d="M219.6427,89.3525 C219.6427,89.3525 182.4737,154.8785 191.2077,202.6455 C195.0117,223.5695 206.5797,238.2045 213.5677,249.0155 C228.8817,272.7335 228.2027,290.2025 228.2027,290.2025 L223.6607,293.6765 L113.9767,380.9995 L114.2307,380.9995 L4.5657,293.6765 L0.0047,290.2025 C0.0047,290.2025 -0.6743,272.7335 14.6587,249.0155 C21.6267,238.2045 33.1947,223.5695 37.0187,202.6455 C45.7337,154.8785 8.5837,89.3525 8.5837,89.3525" id="Stroke-3" stroke="#E2E2E2" stroke-width="10" stroke-linecap="round" stroke-linejoin="round"></path>
                <path d="M115.5685,195.0762 C158.5035,169.4162 189.4415,132.3252 204.9495,112.2752 C216.0325,97.9122 227.9505,80.0942 227.9505,56.2012 C227.9505,25.7272 202.7955,1.0002 171.7405,1.0002 C149.9045,1.0002 131.8145,13.6552 121.7025,31.0852 C119.9745,34.0552 114.2305,42.6912 114.2305,42.6912 L114.2505,42.6912 C114.2505,42.6912 108.5235,34.0552 106.7775,31.0852 C96.6645,13.6552 78.5745,1.0002 56.7385,1.0002 C25.7025,1.0002 0.5095,25.7272 0.5095,56.2012 C0.5095,80.0942 12.4655,97.9122 23.5485,112.2752 C39.0185,132.3252 69.9765,169.4162 112.9295,195.0762 L115.5685,195.0762 Z" id="Stroke-5" stroke="#E2E2E2" stroke-width="10" stroke-linecap="round" stroke-linejoin="round"></path>
                <path d="M137.4044,224.9863 C137.4044,207.4393 114.2504,195.4643 114.2504,195.4643 C114.2504,195.4643 91.0744,205.9653 91.0744,224.9863 C91.0744,237.4863 101.4394,247.5973 114.2504,247.5973 C127.0404,247.5973 137.4044,237.4863 137.4044,224.9863 Z" id="Stroke-7" stroke="#E2E2E2" stroke-width="10" stroke-linecap="round" stroke-linejoin="round"></path>
                <path d="M137.4044,100.4541 C137.4044,87.9751 114.2504,42.6721 114.2504,42.6721 C114.2504,42.6721 91.0744,87.9751 91.0744,100.4541 C91.0744,112.9541 101.4394,123.0661 114.2504,123.0661 C127.0404,123.0661 137.4044,112.9541 137.4044,100.4541 Z" id="Stroke-9" stroke="#E2E2E2" stroke-width="10" stroke-linecap="round" stroke-linejoin="round"></path>
            </g>
        </g>
    </g>
</svg>