<?xml version="1.0" encoding="UTF-8"?>
<svg width="60px" height="60px" viewBox="0 0 60 60" version="1.1" xmlns="http://www.w3.org/2000/svg" xmlns:xlink="http://www.w3.org/1999/xlink">
    <!-- Generator: Sketch 41.2 (35397) - http://www.bohemiancoding.com/sketch -->
    <title>Send to Chat</title>
    <desc>Created with Sketch.</desc>
    <defs>
        <polygon id="path-1" points="0.00764643855 0.0736279346 0.00764643855 43.7794565 45.5730303 43.7794565 45.5730303 0.0736279346"></polygon>
    </defs>
    <g id="Page-1" stroke="none" stroke-width="1" fill="none" fill-rule="evenodd">
        <g id="Send-to-Chat">
            <g id="speech-bubble" transform="translate(7.000000, 6.000000)">
                <g id="Group-3" transform="translate(0.000000, 4.383117)">
                    <mask id="mask-2" fill="white">
                        <use xlink:href="#path-1"></use>
                    </mask>
                    <g id="Clip-2"></g>
                    <path d="M5.45458754,35.9286704 L5.45458754,41.880665 C5.45458754,42.6563165 5.91299158,43.3408413 6.62691414,43.6363983 C6.86140488,43.7386176 7.10634512,43.7794565 7.36122643,43.7794565 C7.85059848,43.7794565 8.33984343,43.5856131 8.70674242,43.2182068 L15.9862795,35.9286704 L39.8635606,35.9286704 C43.013771,35.9286704 45.5730303,33.3664014 45.5730303,30.211358 L45.5730303,17.0315869 C45.5730303,16.3371073 45.0119108,15.7758492 44.3190152,15.7758492 C43.6254798,15.7758492 43.065,16.3371073 43.065,17.0315869 L43.065,30.2218185 C43.065,31.9979755 41.6273401,33.4376102 39.8531145,33.4376102 L15.4561279,33.4376102 C15.1296296,33.4376102 14.8035017,33.5701995 14.5690152,33.8050165 L7.94210101,40.4410302 L7.94210101,34.6933479 C7.94210101,33.9989948 7.381617,33.4376102 6.68808502,33.4376102 L5.69901852,33.4376102 C3.92529966,33.4376102 2.48764141,31.9979755 2.48764141,30.2218185 L2.48764141,5.79094031 C2.48764141,4.01479177 3.92529966,2.57503059 5.69901852,2.57503059 L28.8832744,2.57503059 C29.57617,2.57503059 30.1371633,2.01377248 30.1371633,1.31929289 C30.1371633,0.624931319 29.57617,0.0736279346 28.8832744,0.0736279346 L5.70946886,0.0736279346 C2.55875337,0.0736279346 0,2.63641109 0,5.79094031 L0,30.2218185 C0,33.2845973 2.42634259,35.7960727 5.45458754,35.9286704 Z" id="Fill-1" fill="#000000" mask="url(#mask-2)"></path>
                </g>
                <path d="M41.1275168,17.7596647 C41.8209259,17.7596647 42.381532,17.1979008 42.381532,16.503927 L42.381532,10.1435608 L48.7330471,10.1435608 C49.4265825,10.1435608 49.9870623,9.58179695 49.9870623,8.88782311 C49.9870623,8.19346154 49.4265825,7.63221185 48.7330471,7.63221185 L42.381532,7.63221185 L42.381532,1.28180039 C42.381532,0.587312375 41.8209259,0.0260626873 41.1275168,0.0260626873 C40.4344949,0.0260626873 39.8735017,0.587312375 39.8735017,1.28180039 L39.8735017,7.64216658 L33.5218603,7.64216658 C32.8289646,7.64216658 32.2678451,8.20341627 32.2678451,8.89790428 C32.2678451,9.59225743 32.8289646,10.1535155 33.5218603,10.1535155 L39.8735017,10.1535155 L39.8735017,16.5138817 C39.8735017,17.1979008 40.4344949,17.7596647 41.1275168,17.7596647 Z" id="Fill-4" fill="#000000"></path>
            </g>
        </g>
    </g>
</svg>