<?xml version="1.0" encoding="UTF-8"?>
<svg width="450px" height="450px" viewBox="0 0 450 450" version="1.1" xmlns="http://www.w3.org/2000/svg" xmlns:xlink="http://www.w3.org/1999/xlink">
    <!-- Generator: Sketch 41.2 (35397) - http://www.bohemiancoding.com/sketch -->
    <title>Silhoutte</title>
    <desc>Created with Sketch.</desc>
    <defs></defs>
    <g id="Page-1" stroke="none" stroke-width="1" fill="none" fill-rule="evenodd" stroke-linecap="round" stroke-linejoin="round">
        <g id="Silhoutte" stroke="#1D1D1B" stroke-width="10">
            <g id="Page-1" transform="translate(111.000000, 36.000000)">
                <path d="M219.6427,88.3525 C219.6427,88.3525 182.4737,153.8785 191.2077,201.6455 C195.0117,222.5695 206.5797,237.2045 213.5677,248.0155 C228.8817,271.7335 228.2027,289.2025 228.2027,289.2025 L223.6607,292.6765 L113.9767,379.9995 L114.2307,379.9995 L4.5657,292.6765 L0.0047,289.2025 C0.0047,289.2025 -0.6743,271.7335 14.6587,248.0155 C21.6267,237.2045 33.1947,222.5695 37.0187,201.6455 C45.7337,153.8785 8.5837,88.3525 8.5837,88.3525" id="Stroke-3"></path>
                <path d="M115.5685,194.0762 C158.5035,168.4162 189.4415,131.3252 204.9495,111.2752 C216.0325,96.9122 227.9505,79.0942 227.9505,55.2012 C227.9505,24.7272 202.7955,0.0002 171.7405,0.0002 C149.9045,0.0002 131.8145,12.6552 121.7025,30.0852 C119.9745,33.0552 114.2305,41.6912 114.2305,41.6912 L114.2505,41.6912 C114.2505,41.6912 108.5235,33.0552 106.7775,30.0852 C96.6645,12.6552 78.5745,0.0002 56.7385,0.0002 C25.7025,0.0002 0.5095,24.7272 0.5095,55.2012 C0.5095,79.0942 12.4655,96.9122 23.5485,111.2752 C39.0185,131.3252 69.9765,168.4162 112.9295,194.0762 L115.5685,194.0762 Z" id="Stroke-5"></path>
                <path d="M137.4044,223.9863 C137.4044,206.4393 114.2504,194.4643 114.2504,194.4643 C114.2504,194.4643 91.0744,204.9653 91.0744,223.9863 C91.0744,236.4863 101.4394,246.5973 114.2504,246.5973 C127.0404,246.5973 137.4044,236.4863 137.4044,223.9863 Z" id="Stroke-7"></path>
                <path d="M137.4044,99.4541 C137.4044,86.9751 114.2504,41.6721 114.2504,41.6721 C114.2504,41.6721 91.0744,86.9751 91.0744,99.4541 C91.0744,111.9541 101.4394,122.0661 114.2504,122.0661 C127.0404,122.0661 137.4044,111.9541 137.4044,99.4541 Z" id="Stroke-9"></path>
            </g>
        </g>
    </g>
</svg>