<?xml version="1.0" encoding="UTF-8"?>
<svg width="60px" height="60px" viewBox="0 0 60 60" version="1.1" xmlns="http://www.w3.org/2000/svg" xmlns:xlink="http://www.w3.org/1999/xlink">
    <!-- Generator: Sketch 41.2 (35397) - http://www.bohemiancoding.com/sketch -->
    <title>Add image</title>
    <desc>Created with Sketch.</desc>
    <defs></defs>
    <g id="Page-1" stroke="none" stroke-width="1" fill="none" fill-rule="evenodd">
        <g id="Add-image">
            <g id="Group-4" transform="translate(3.000000, 5.000000)">
                <g id="Group-2" transform="translate(5.322581, 19.691358)" fill="#000000">
                    <g id="1479959720_view_image">
                        <g id="Group">
                            <path d="M12.4050709,4.90168047 C12.4050709,2.75049689 10.611034,1.00069013 8.40547468,1.00069013 C6.19991536,1.00069013 4.40587851,2.75049689 4.40587851,4.90168047 C4.40587851,7.05216356 6.19991536,8.80197032 8.40547468,8.80197032 C10.611034,8.80197032 12.4050709,7.05286404 12.4050709,4.90168047 Z M5.8422571,4.90168047 C5.8422571,3.52383023 6.99207815,2.40165631 8.40547468,2.40165631 C9.81887121,2.40165631 10.9686923,3.52383023 10.9686923,4.90168047 C10.9686923,6.27953071 9.81887121,7.40170462 8.40547468,7.40170462 C6.99207815,7.40170462 5.8422571,6.28023119 5.8422571,4.90168047 Z" id="Shape"></path>
                            <path d="M1.40312908,21.077236 C1.54461237,21.2348447 1.74283262,21.3146998 1.94177105,21.3146998 C2.10982734,21.3146998 2.27932002,21.2572602 2.41577598,21.1402795 L14.1315979,11.0799413 L21.530384,18.2956177 C21.811196,18.5695066 22.2650916,18.5695066 22.5459037,18.2956177 C22.8267157,18.0217288 22.8267157,17.5790235 22.5459037,17.3051346 L19.0935677,13.9379124 L25.6872636,6.89525535 L33.7747932,14.1263423 C34.0670963,14.3876225 34.5217101,14.368009 34.7895947,14.0829124 C35.0574793,13.7978157 35.0380882,13.3544099 34.745067,13.0931297 L26.1267955,5.38781573 C25.9860304,5.26242926 25.8036103,5.19798482 25.6096992,5.20428916 C25.419379,5.21269496 25.2398317,5.29465148 25.1112758,5.43194617 L18.0773299,12.9460283 L14.6709581,9.62363699 C14.4023553,9.3623568 13.9728781,9.3497481 13.6884751,9.59281573 L1.46704793,20.0881539 C1.16971756,20.3438302 1.1402718,20.7865355 1.40312908,21.077236 Z" id="Shape"></path>
                        </g>
                    </g>
                </g>
                <path d="M47.9032258,46.0061728 L45.5967742,48.3333333 L45.5967742,46.0061728 L47.9032258,46.0061728 Z M2.30645161,46.0061728 L45.5967742,46.0061728 L45.5967742,13.0679012 L2.30645161,13.0679012 L2.30645161,46.0061728 Z M0,10.7407407 L47.9032258,10.7407407 L47.9032258,48.3333333 L0,48.3333333 L0,10.7407407 Z" id="Rectangle" fill="#000000"></path>
                <rect id="Rectangle-2" fill="#F5F5F5" x="30.1612903" y="0" width="24.8387097" height="25.0617284"></rect>
                <path d="M43.7527867,22.1370304 C44.5388131,22.1370304 45.1743085,21.492482 45.1743085,20.6962408 L45.1743085,13.3985829 L52.3743741,13.3985829 C53.1604006,13.3985829 53.7958959,12.7540345 53.7958959,11.9577933 C53.7958959,11.1611127 53.1604006,10.5171501 52.3743741,10.5171501 L45.1743085,10.5171501 L45.1743085,3.23091306 C45.1743085,2.43408613 44.5388131,1.79012346 43.7527867,1.79012346 C42.9673381,1.79012346 42.3312649,2.43408613 42.3312649,3.23091306 L42.3312649,10.528571 L35.1311992,10.528571 C34.3457506,10.528571 33.7096774,11.1725336 33.7096774,11.9693606 C33.7096774,12.7660411 34.3457506,13.4100037 35.1311992,13.4100037 L42.3312649,13.4100037 L42.3312649,20.7076617 C42.3312649,21.492482 42.9673381,22.1370304 43.7527867,22.1370304" id="Fill-4" fill="#221F20"></path>
            </g>
        </g>
    </g>
</svg>