<?xml version="1.0" encoding="UTF-8"?>
<svg width="55px" height="55px" viewBox="0 0 55 55" version="1.1" xmlns="http://www.w3.org/2000/svg" xmlns:xlink="http://www.w3.org/1999/xlink">
    <!-- Generator: Sketch 42 (36781) - http://www.bohemiancoding.com/sketch -->
    <title>Artboard</title>
    <desc>Created with Sketch.</desc>
    <defs></defs>
    <g id="Page-1" stroke="none" stroke-width="1" fill="none" fill-rule="evenodd">
        <g id="Artboard" fill="#000000">
            <g id="1479784662_ALL-55-Copy" transform="translate(2.000000, 5.000000)">
                <path d="M9.6,4.8 L0.8,4.8 C0.3581722,4.8 0,4.4418278 0,4 C0,3.5581722 0.3581722,3.2 0.8,3.2 L9.6,3.2 C10.0418278,3.2 10.4,3.5581722 10.4,4 C10.4,4.4418278 10.0418278,4.8 9.6,4.8 Z" id="Shape"></path>
                <path d="M48.8,4.8 L16.8,4.8 C16.3581722,4.8 16,4.4418278 16,4 C16,3.5581722 16.3581722,3.2 16.8,3.2 L48.8,3.2 C49.2418278,3.2 49.6,3.5581722 49.6,4 C49.6,4.4418278 49.2418278,4.8 48.8,4.8 Z" id="Shape"></path>
                <path d="M12.896,8 C11.278151,8 9.81960587,7.02543129 9.20048187,5.53073373 C8.58135787,4.03603617 8.92358089,2.31556486 10.0675729,1.17157288 C11.2115649,0.0275808911 12.9320362,-0.31464213 14.4267337,0.30448187 C15.9214313,0.92360587 16.896,2.38215102 16.896,4 C16.896,6.209139 15.105139,8 12.896,8 Z M12.896,1.6 C11.5705166,1.6 10.496,2.6745166 10.496,4 C10.496,5.3254834 11.5705166,6.4 12.896,6.4 C14.2214834,6.4 15.296,5.3254834 15.296,4 C15.296,2.6745166 14.2214834,1.6 12.896,1.6 Z" id="Shape"></path>
                <path d="M33.6,20.8 L0.8,20.8 C0.3581722,20.8 0,20.4418278 0,20 C0,19.5581722 0.3581722,19.2 0.8,19.2 L33.6,19.2 C34.0418278,19.2 34.4,19.5581722 34.4,20 C34.4,20.4418278 34.0418278,20.8 33.6,20.8 Z" id="Shape"></path>
                <path d="M48.8,20.8 L40.8,20.8 C40.3581722,20.8 40,20.4418278 40,20 C40,19.5581722 40.3581722,19.2 40.8,19.2 L48.8,19.2 C49.2418278,19.2 49.6,19.5581722 49.6,20 C49.6,20.4418278 49.2418278,20.8 48.8,20.8 Z" id="Shape"></path>
                <path d="M36.896,24 C34.686861,24 32.896,22.209139 32.896,20 C32.896,17.790861 34.686861,16 36.896,16 C39.105139,16 40.896,17.790861 40.896,20 C40.896,22.209139 39.105139,24 36.896,24 Z M36.896,17.6 C35.5705166,17.6 34.496,18.6745166 34.496,20 C34.496,21.3254834 35.5705166,22.4 36.896,22.4 C38.2214834,22.4 39.296,21.3254834 39.296,20 C39.296,18.6745166 38.2214834,17.6 36.896,17.6 L36.896,17.6 Z" id="Shape"></path>
                <path d="M17.6,36.8 L0.8,36.8 C0.3581722,36.8 0,36.4418278 0,36 C0,35.5581722 0.3581722,35.2 0.8,35.2 L17.6,35.2 C18.0418278,35.2 18.4,35.5581722 18.4,36 C18.4,36.4418278 18.0418278,36.8 17.6,36.8 Z" id="Shape"></path>
                <path d="M48.8,36.8 L24.8,36.8 C24.3581722,36.8 24,36.4418278 24,36 C24,35.5581722 24.3581722,35.2 24.8,35.2 L48.8,35.2 C49.2418278,35.2 49.6,35.5581722 49.6,36 C49.6,36.4418278 49.2418278,36.8 48.8,36.8 Z" id="Shape"></path>
                <path d="M20.896,40 C18.686861,40 16.896,38.209139 16.896,36 C16.896,33.790861 18.686861,32 20.896,32 C23.105139,32 24.896,33.790861 24.896,36 C24.896,37.060866 24.4745726,38.0782816 23.7244271,38.8284271 C22.9742816,39.5785726 21.956866,40 20.896,40 Z M20.896,33.6 C19.5705166,33.6 18.496,34.6745166 18.496,36 C18.496,37.3254834 19.5705166,38.4 20.896,38.4 C22.2214834,38.4 23.296,37.3254834 23.296,36 C23.296,34.6745166 22.2214834,33.6 20.896,33.6 Z" id="Shape"></path>
            </g>
        </g>
    </g>
</svg>