<?xml version="1.0" encoding="UTF-8" standalone="no"?>
<svg width="298px" height="23px" viewBox="0 0 298 23" version="1.1" xmlns="http://www.w3.org/2000/svg" xmlns:xlink="http://www.w3.org/1999/xlink">
    <!-- Generator: sketchtool 41 (35326) - http://www.bohemiancoding.com/sketch -->
    <title>0279822C-3948-441E-AEF3-657091430FC8</title>
    <desc>Created with sketchtool.</desc>
    <defs></defs>
    <g id="Onboarding-Mobile" stroke="none" stroke-width="1" fill="none" fill-rule="evenodd">
        <g id="Mobile-Portrait-Copy-4" transform="translate(-170.000000, -35.000000)" fill="#000000">
            <g id="Logo-Copy" transform="translate(170.982900, 34.996500)">
                <g id="Slice-1" transform="translate(0.000000, -0.000000)">
                    <g id="Page-1">
                        <path d="M76.7205738,22.6888009 L90.6358826,22.6888009 L90.6358826,18.6924186 L80.6550539,18.6924186 L80.6550539,13.4725062 L88.6822947,13.4725062 L88.6822947,9.50508321 L80.6550539,9.50508321 L80.6550539,4.28919292 L90.6358826,4.28919292 L90.6358826,0.290397345 L76.7205738,0.290397345 L76.7205738,22.6888009 L76.7205738,22.6888009 L76.7205738,22.6888009 L76.7205738,22.6888009 Z M274.874632,6.3851217 C274.874632,3.0777292 273.136702,0.284364159 267.442925,0.284364159 L262.929531,0.284364159 L262.929531,22.6839743 L265.424442,22.6839743 L265.424442,13.1109172 C266.601264,13.1410831 267.694197,13.0546076 268.707593,12.8543058 C270.026077,14.4526978 273.100298,18.6775367 276.086672,22.6839743 L279.299389,22.6839743 C275.633987,17.9181598 271.54914,12.5084031 271.139587,12.0269548 C273.528449,10.8854761 274.874632,8.86435885 274.874632,6.3851217 L274.874632,6.3851217 L274.874632,6.3851217 L274.874632,6.3851217 Z M265.424442,12.4726062 L265.424442,0.881649554 L266.772208,0.881649554 C269.769266,0.997888937 272.292667,3.30699027 272.292667,6.89874691 C272.292667,10.2596336 270.301092,12.5281115 265.424442,12.4726062 L265.424442,12.4726062 L265.424442,12.4726062 L265.424442,12.4726062 Z M0,22.6888009 L3.93408401,22.6888009 L3.93408401,13.4725062 L11.9605334,13.4725062 L11.9605334,9.50508321 L3.93408401,9.50508321 L3.93408401,4.28919292 L13.9133301,4.28919292 L13.9133301,0.290397345 L0,0.290397345 L0,22.6888009 L0,22.6888009 L0,22.6888009 L0,22.6888009 Z M108.397033,4.05430088 L106.496865,0.130719027 L104.596697,4.05430088 L104.066455,5.14027434 L103.54373,6.21981238 L104.596697,6.21981238 L105.120213,5.14027434 L107.866791,5.14027434 L108.397033,6.21981238 L109.441295,6.21981238 L108.918175,5.14027434 L108.397033,4.05430088 L108.397033,4.05430088 L108.397033,4.05430088 L108.397033,4.05430088 Z M105.640958,4.05430088 L106.496865,2.29743717 L107.344066,4.05430088 L105.640958,4.05430088 L105.640958,4.05430088 L105.640958,4.05430088 L105.640958,4.05430088 Z M46.8291328,0.290397345 L46.8291328,22.6888009 L50.7651954,22.6888009 L50.7651954,9.95153895 L56.650889,15.937666 L56.6837324,15.937666 L62.5702175,9.95153895 L62.5702175,22.6888009 L66.5046968,22.6888009 L66.5046968,0.290397345 L56.650889,10.3046814 L46.8291328,0.290397345 L46.8291328,0.290397345 L46.8291328,0.290397345 L46.8291328,0.290397345 Z M286.993052,4.79034956 C286.993052,4.27953983 287.08525,3.73615088 287.206732,3.24142965 C287.471061,2.16993584 288.028212,1.41256991 288.985023,0.871192037 C291.570154,-0.587632301 294.047257,2.46234425 295.430637,4.27551769 L295.430637,1.4833593 C294.033012,0.429562832 292.5974,0 290.944151,0 C288.6463,0 285.113064,1.68325884 285.113064,5.61448274 C285.113064,12.2823597 294.592933,12.4259495 294.592933,17.7552638 C294.592933,19.1380699 294.248275,21.0240438 293.006161,21.8389261 C292.171227,22.3863372 290.976598,22.370651 290.028493,22.2198213 C288.936351,22.04325 288.093898,21.3076035 287.317923,20.5558685 C286.547885,19.818211 285.876376,19.0161995 285.282821,18.1269079 L285.282821,21.0047376 C286.235279,22.0870911 288.308765,22.9977 290.047487,22.9977 C293.551045,22.9977 296.777611,20.7493327 296.777611,17.070296 C296.777611,9.74842167 286.993052,10.1478186 286.993052,4.79034956 L286.993052,4.79034956 L286.993052,4.79034956 L286.993052,4.79034956 Z M35.9330418,14.7229845 L28.9437312,0.290397345 L21.9548163,14.7229845 L20.0039981,18.723389 L18.0828576,22.6888009 L21.9548163,22.6888009 L23.8735825,18.723389 L33.9826193,18.723389 L35.9330418,22.6888009 L39.7769055,22.6888009 L37.8525994,18.723389 L35.9330418,14.7229845 L35.9330418,14.7229845 L35.9330418,14.7229845 L35.9330418,14.7229845 Z M25.7963056,14.7229845 L28.9437312,8.25742036 L32.0614789,14.7229845 L25.7963056,14.7229845 L25.7963056,14.7229845 L25.7963056,14.7229845 L25.7963056,14.7229845 Z M155.195302,0.283961947 L156.748042,4.21237036 L149.485696,22.6839743 L150.775294,22.6839743 L157.368504,5.78502079 L164.051541,22.6839743 L166.778334,22.6839743 L157.910619,0.283961947 L155.195302,0.283961947 L155.195302,0.283961947 L155.195302,0.283961947 L155.195302,0.283961947 Z M234.470537,18.356169 L218.460769,0.284364159 L216.02482,0.284364159 L216.02482,22.6839743 L217.223405,22.6839743 L217.223405,2.73866416 L235.252843,22.6839743 L235.675454,22.6839743 L235.675454,0.284364159 L234.470537,0.284364159 L234.470537,18.356169 L234.470537,18.356169 L234.470537,18.356169 L234.470537,18.356169 Z M191.770965,1.45480221 L199.400524,1.45480221 L199.400524,22.6839743 L201.893852,22.6839743 L201.893852,1.45480221 L209.490963,1.45480221 L209.490963,0.284364159 L191.770965,0.284364159 L191.770965,1.45480221 L191.770965,1.45480221 L191.770965,1.45480221 L191.770965,1.45480221 Z M113.307713,11.837915 L109.903872,8.3672243 L109.903872,14.4559155 L110.963566,14.4559155 L110.963566,10.9924646 L113.307713,13.3703443 L114.378883,14.4559155 L114.378883,8.3672243 L113.307713,8.3672243 L113.307713,11.837915 L113.307713,11.837915 L113.307713,11.837915 L113.307713,11.837915 Z M185.715515,6.3851217 C185.715515,3.0777292 183.979169,0.284364159 178.288556,0.284364159 L173.771206,0.284364159 L173.771206,22.6839743 L176.270469,22.6839743 L176.270469,13.1109172 C177.448874,13.1410831 178.539432,13.0546076 179.548081,12.8543058 C180.871313,14.4526978 183.942763,18.6775367 186.933491,22.6839743 L190.146207,22.6839743 C186.480806,17.9181598 182.397146,12.5084031 181.986405,12.0269548 C184.374872,10.8854761 185.715515,8.86435885 185.715515,6.3851217 L185.715515,6.3851217 L185.715515,6.3851217 L185.715515,6.3851217 Z M176.270469,12.4726062 L176.270469,0.881649554 L177.614673,0.881649554 C180.613314,0.997888937 183.135924,3.30699027 183.135924,6.89874691 C183.135924,10.2596336 181.14791,12.5281115 176.270469,12.4726062 L176.270469,12.4726062 L176.270469,12.4726062 L176.270469,12.4726062 Z M137.62488,0.285973009 L133.110299,0.285973009 L133.110299,22.6839743 L135.607187,22.6839743 L135.607187,13.1125261 C137.387062,13.1551606 139.547602,12.8880916 141.339744,12.057523 C142.750426,11.400308 143.931601,10.3927659 144.514472,8.90055794 C144.805711,8.15525842 145.05263,7.19316638 145.05263,6.3851217 C145.05263,3.0777292 143.317074,0.285973009 137.62488,0.285973009 L137.62488,0.285973009 L137.62488,0.285973009 L137.62488,0.285973009 Z M135.607187,12.4726062 L135.607187,0.883258407 L136.952579,0.883258407 C139.951221,0.998693363 142.4766,3.30699027 142.4766,6.89874691 C142.4766,10.2604381 140.484233,12.5281115 135.607187,12.4726062 L135.607187,12.4726062 L135.607187,12.4726062 L135.607187,12.4726062 Z M119.324385,17.4930212 C119.051745,17.2187124 118.736369,16.9987022 118.374697,16.8410349 C118.013024,16.6837699 117.621277,16.6013163 117.205788,16.6013163 L115.374869,16.6013163 L115.374869,22.6888009 L117.205788,22.6888009 C117.621277,22.6888009 118.013024,22.6087606 118.374697,22.4506912 C118.736369,22.2922195 119.051745,22.0738181 119.324385,21.7979004 C119.595837,21.5235915 119.808726,21.1977995 119.96582,20.8269597 C120.122915,20.4585332 120.200868,20.0627562 120.200868,19.6448575 C120.200868,19.2281654 120.122915,18.8323885 119.96582,18.462353 C119.808726,18.0923177 119.595837,17.7681345 119.324385,17.4930212 L119.324385,17.4930212 L119.324385,17.4930212 L119.324385,17.4930212 Z M118.990807,20.4114743 C118.890695,20.6471708 118.751406,20.8543102 118.575714,21.0336969 C118.398439,21.2102682 118.192673,21.3494336 117.959207,21.4483778 C117.726535,21.5529531 117.472888,21.6056429 117.205788,21.6056429 L116.443664,21.6056429 L116.443664,17.6884964 L117.205788,17.6884964 C117.472888,17.6884964 117.726535,17.7379685 117.959207,17.8425438 C118.192673,17.9406836 118.398439,18.0838713 118.575714,18.2620514 C118.751406,18.4434492 118.890695,18.6525995 118.990807,18.8899049 C119.089337,19.1247969 119.140383,19.3761797 119.140383,19.6448575 C119.140383,19.9203729 119.089337,20.1749734 118.990807,20.4114743 L118.990807,20.4114743 L118.990807,20.4114743 L118.990807,20.4114743 Z M244.221858,22.7004651 L254.3764,22.7004651 L254.3764,21.5589863 L246.72112,21.5589863 L246.72112,10.1948774 L253.057125,10.1948774 L251.694718,9.076727 L246.72112,9.076727 L246.72112,1.467673 L254.3764,1.467673 L254.3764,0.298441592 L244.221858,0.298441592 L244.221858,22.7004651 L244.221858,22.7004651 L244.221858,22.7004651 L244.221858,22.7004651 Z" id="LOGO"></path>
                    </g>
                </g>
            </g>
        </g>
    </g>
</svg>