<?xml version="1.0" encoding="UTF-8"?>
<svg width="18px" height="18px" viewBox="0 0 18 18" version="1.1" xmlns="http://www.w3.org/2000/svg" xmlns:xlink="http://www.w3.org/1999/xlink">
    <!-- Generator: Sketch 44.1 (41455) - http://www.bohemiancoding.com/sketch -->
    <title>Account Icon</title>
    <desc>Fame and Partners Account</desc>
    <defs></defs>
    <g id="Grid" stroke="none" stroke-width="1" fill="none" fill-rule="evenodd">
        <g id="XXXXXL" transform="translate(-2652.000000, -18.000000)" fill-rule="nonzero" fill="#000000">
            <g id="Account" transform="translate(2652.000000, 18.000000)">
                <g id="Group-18">
                    <path d="M9.00492668,9.64488625 C6.2274802,9.64488625 3.96778069,7.48150396 3.96778069,4.82244312 C3.96778069,2.16338227 6.2274802,0 9.00492668,0 C11.7823732,0 14.0420726,2.16338227 14.0420726,4.82244312 C14.0420726,7.48150396 11.7823732,9.64488625 9.00492668,9.64488625 Z M9.00492668,0.977459654 C6.788776,0.977459654 4.9887584,2.70075345 4.9887584,4.82244312 C4.9887584,6.94413278 6.788776,8.6674266 9.00492668,8.6674266 C11.2210774,8.6674266 13.0210949,6.94413278 13.0210949,4.82244312 C13.0210949,2.70075345 11.2210774,0.977459654 9.00492668,0.977459654 Z" id="Shape"></path>
                    <path d="M17.4824288,17.7656767 C17.2017809,17.7656767 16.9743594,17.5479487 16.9743594,17.2792631 C16.9743594,13.0683113 13.398518,9.64488625 9.00008792,9.64488625 C4.60165784,9.64488625 1.02097772,13.0636788 1.02097772,17.2746306 C1.02097772,17.5433162 0.79355614,17.7610441 0.512908236,17.7610441 C0.232260333,17.7610441 0,17.5433162 0,17.2746306 C0,12.5263076 4.03552328,8.6627941 8.99524916,8.6627941 C13.954975,8.6627941 17.9904983,12.5263076 17.9904983,17.2746306 C17.9904983,17.5433162 17.7630767,17.7656767 17.4824288,17.7656767 Z" id="Shape"></path>
                </g>
            </g>
        </g>
    </g>
</svg>
