<?xml version="1.0" encoding="UTF-8"?>
<svg width="213px" height="17px" viewBox="0 0 213 17" version="1.1" xmlns="http://www.w3.org/2000/svg" xmlns:xlink="http://www.w3.org/1999/xlink">
    <!-- Generator: Sketch 44.1 (41455) - http://www.bohemiancoding.com/sketch -->
    <title>Fame and Partners Logo</title>
    <defs></defs>
    <g id="Grid" stroke="none" stroke-width="1" fill="none" fill-rule="evenodd">
        <g id="XXXXXL" transform="translate(-1859.000000, -21.000000)" fill-rule="nonzero" fill="#000000">
            <g id="logo" transform="translate(1859.000000, 21.000000)">
                <path d="M55.0510782,15.873752 L65.0360497,15.873752 L65.0360497,13.0777655 L57.8742761,13.0777655 L57.8742761,9.42576135 L63.6342469,9.42576135 L63.6342469,6.65003559 L57.8742761,6.65003559 L57.8742761,3.00084544 L65.0360497,3.00084544 L65.0360497,0.203170518 L55.0510782,0.203170518 L55.0510782,15.873752 L55.0510782,15.873752 L55.0510782,15.873752 Z M197.237118,4.46721882 C197.237118,2.15326981 195.990061,0.198949524 191.904474,0.198949524 L188.665875,0.198949524 L188.665875,15.8703752 L190.456105,15.8703752 L190.456105,9.17278304 C191.300537,9.19388802 192.084775,9.13338716 192.81194,8.99325015 C193.758023,10.1115322 195.963939,13.0673537 198.10682,15.8703752 L200.412115,15.8703752 C197.781995,12.5360712 194.850901,8.75124648 194.557025,8.41441111 C196.27116,7.61579904 197.237118,6.201766 197.237118,4.46721882 L197.237118,4.46721882 L197.237118,4.46721882 Z M190.456105,8.7262019 L190.456105,0.616827943 L191.423199,0.616827943 C193.573747,0.698152431 195.384421,2.3136676 195.384421,4.82656612 C195.384421,7.17794123 193.95536,8.76503502 190.456105,8.7262019 L190.456105,8.7262019 L190.456105,8.7262019 Z M0,15.873752 L2.8229138,15.873752 L2.8229138,9.42576135 L8.58231666,9.42576135 L8.58231666,6.65003559 L2.8229138,6.65003559 L2.8229138,3.00084544 L9.98355178,3.00084544 L9.98355178,0.203170518 L0,0.203170518 L0,15.873752 L0,15.873752 L0,15.873752 Z M77.7806166,2.83650806 L76.4171454,0.0914548733 L75.0536742,2.83650806 L74.673197,3.59628702 L74.2981147,4.35156356 L75.0536742,4.35156356 L75.4293245,3.59628702 L77.4001395,3.59628702 L77.7806166,4.35156356 L78.5299298,4.35156356 L78.1545636,3.59628702 L77.7806166,2.83650806 L77.7806166,2.83650806 L77.7806166,2.83650806 Z M75.8029869,2.83650806 L76.4171454,1.60735457 L77.0250571,2.83650806 L75.8029869,2.83650806 L75.8029869,2.83650806 L75.8029869,2.83650806 Z M33.6023849,0.203170518 L33.6023849,15.873752 L36.4267184,15.873752 L36.4267184,6.96238915 L40.6500155,11.1504596 L40.6735824,11.1504596 L44.8974474,6.96238915 L44.8974474,15.873752 L47.7206449,15.873752 L47.7206449,0.203170518 L40.6500155,7.20945801 L33.6023849,0.203170518 L33.6023849,0.203170518 L33.6023849,0.203170518 Z M205.932726,3.35146935 C205.932726,2.99409185 205.998883,2.61392098 206.086053,2.26779946 C206.275723,1.51815089 206.675508,0.988275428 207.362071,0.609511556 C209.21704,-0.41112483 210.994493,1.72272841 211.987141,2.99127785 L211.987141,1.03780176 C210.984271,0.300534783 209.954143,0 208.767849,0 C207.119019,0 204.583735,1.17765736 204.583735,3.92805715 C204.583735,8.59309986 211.386044,8.69355952 211.386044,12.4221044 C211.386044,13.3895562 211.138734,14.709039 210.247451,15.2791546 C209.648342,15.6621395 208.791132,15.6511649 208.110816,15.5456401 C207.327147,15.4221056 206.722642,14.9074257 206.165839,14.3814898 C205.613296,13.8654029 205.131452,13.3042921 204.705545,12.6821176 L204.705545,14.6955318 C205.388984,15.4527781 206.87682,16.0898669 208.124445,16.0898669 C210.638434,16.0898669 212.953666,14.5168431 212.953666,11.9428808 C212.953666,6.82028233 205.932726,7.09971215 205.932726,3.35146935 L205.932726,3.35146935 L205.932726,3.35146935 Z M25.7838621,10.3006327 L20.7686612,0.203170518 L15.7537444,10.3006327 L14.3539289,13.0994333 L12.9754088,15.873752 L15.7537444,15.873752 L17.1305608,13.0994333 L24.3843305,13.0994333 L25.7838621,15.873752 L28.542038,15.873752 L27.1612464,13.0994333 L25.7838621,10.3006327 L25.7838621,10.3006327 L25.7838621,10.3006327 Z M18.5102166,10.3006327 L20.7686612,5.777134 L23.0058105,10.3006327 L18.5102166,10.3006327 L18.5102166,10.3006327 L18.5102166,10.3006327 Z M111.360855,0.198668125 L112.475028,2.94709812 L107.26391,15.8703752 L108.189265,15.8703752 L112.920243,4.04737059 L117.715676,15.8703752 L119.672294,15.8703752 L113.309239,0.198668125 L111.360855,0.198668125 L111.360855,0.198668125 L111.360855,0.198668125 Z M168.245038,12.8425154 L156.757181,0.198949524 L155.009258,0.198949524 L155.009258,15.8703752 L155.869306,15.8703752 L155.869306,1.91604994 L168.806384,15.8703752 L169.10963,15.8703752 L169.10963,0.198949524 L168.245038,0.198949524 L168.245038,12.8425154 L168.245038,12.8425154 L168.245038,12.8425154 Z M137.605832,1.01782238 L143.080445,1.01782238 L143.080445,15.8703752 L144.86954,15.8703752 L144.86954,1.01782238 L150.320869,1.01782238 L150.320869,0.198949524 L137.605832,0.198949524 L137.605832,1.01782238 L137.605832,1.01782238 L137.605832,1.01782238 Z M81.3042898,8.28215329 L78.8618537,5.85395606 L78.8618537,10.1137834 L79.62224,10.1137834 L79.62224,7.69065134 L81.3042898,9.35428585 L82.0729111,10.1137834 L82.0729111,5.85395606 L81.3042898,5.85395606 L81.3042898,8.28215329 L81.3042898,8.28215329 L81.3042898,8.28215329 Z M133.260725,4.46721882 C133.260725,2.15326981 132.014805,0.198949524 127.931489,0.198949524 L124.690051,0.198949524 L124.690051,15.8703752 L126.483404,15.8703752 L126.483404,9.17278304 C127.328972,9.19388802 128.111506,9.13338716 128.835264,8.99325015 C129.784754,10.1115322 131.988682,13.0673537 134.134688,15.8703752 L136.439982,15.8703752 C133.809862,12.5360712 130.87962,8.75124648 130.584892,8.41441111 C132.298743,7.61579904 133.260725,6.201766 133.260725,4.46721882 L133.260725,4.46721882 L133.260725,4.46721882 Z M126.483404,8.7262019 L126.483404,0.616827943 L127.447942,0.616827943 C129.599626,0.698152431 131.409732,2.3136676 131.409732,4.82656612 C131.409732,7.17794123 129.983227,8.76503502 126.483404,8.7262019 L126.483404,8.7262019 L126.483404,8.7262019 Z M98.7531459,0.200075122 L95.5136947,0.200075122 L95.5136947,15.8703752 L97.3053446,15.8703752 L97.3053446,9.17390865 C98.5824993,9.20373705 100.132801,9.01688772 101.418758,8.43579747 C102.430997,7.97599055 103.278553,7.27108451 103.696794,6.22709195 C103.905773,5.7056585 104.08295,5.03255063 104.08295,4.46721882 C104.08295,2.15326981 102.837597,0.200075122 98.7531459,0.200075122 L98.7531459,0.200075122 L98.7531459,0.200075122 Z M97.3053446,8.7262019 L97.3053446,0.617953543 L98.2707343,0.617953543 C100.422419,0.698715232 102.234512,2.3136676 102.234512,4.82656612 C102.234512,7.17850406 100.804883,8.76503502 97.3053446,8.7262019 L97.3053446,8.7262019 L97.3053446,8.7262019 Z M85.621571,12.2386318 C85.4259373,12.0467173 85.1996383,11.8927917 84.9401193,11.7824831 C84.6805995,11.6724558 84.3995006,11.6147689 84.1013655,11.6147689 L82.7875836,11.6147689 L82.7875836,15.873752 L84.1013655,15.873752 C84.3995006,15.873752 84.6805995,15.8177534 84.9401193,15.7071634 C85.1996383,15.596292 85.4259373,15.443492 85.621571,15.2504518 C85.8163521,15.0585373 85.9691114,14.8306036 86.0818346,14.5711532 C86.1945586,14.3133911 86.2504939,14.0364939 86.2504939,13.7441198 C86.2504939,13.4525897 86.1945586,13.1756925 86.0818346,12.9168048 C85.9691114,12.6579173 85.8163521,12.4311091 85.621571,12.2386318 L85.621571,12.2386318 L85.621571,12.2386318 Z M85.3822111,14.2804674 C85.310375,14.4453676 85.2104282,14.5902884 85.0843596,14.7157926 C84.9571556,14.839327 84.8095072,14.9366913 84.6419833,15.0059155 C84.4750285,15.0790795 84.2930238,15.1159429 84.1013655,15.1159429 L83.5545005,15.1159429 L83.5545005,12.375392 L84.1013655,12.375392 C84.2930238,12.375392 84.4750285,12.4100042 84.6419833,12.4831681 C84.8095072,12.5518295 84.9571556,12.6520079 85.0843596,12.7766679 C85.2104282,12.9035791 85.310375,13.0499069 85.3822111,13.2159327 C85.4529117,13.3802701 85.4895397,13.5561448 85.4895397,13.7441198 C85.4895397,13.9368784 85.4529117,14.1150044 85.3822111,14.2804674 L85.3822111,14.2804674 L85.3822111,14.2804674 Z M175.242127,15.8819126 L182.52855,15.8819126 L182.52855,15.0833005 L177.035481,15.0833005 L177.035481,7.1326359 L181.5819,7.1326359 L180.604301,6.350345 L177.035481,6.350345 L177.035481,1.02682717 L182.52855,1.02682717 L182.52855,0.20879851 L175.242127,0.20879851 L175.242127,15.8819126 L175.242127,15.8819126 L175.242127,15.8819126 Z" id="LOGO-Copy-3"></path>
            </g>
        </g>
    </g>
</svg>
