<?xml version="1.0" encoding="UTF-8"?>
<svg width="18px" height="18px" viewBox="0 0 18 18" version="1.1" xmlns="http://www.w3.org/2000/svg" xmlns:xlink="http://www.w3.org/1999/xlink">
    <!-- Generator: Sketch 44.1 (41455) - http://www.bohemiancoding.com/sketch -->
    <title>Search Icon</title>
    <defs></defs>
    <g id="Grid" stroke="none" stroke-width="1" fill="none" fill-rule="evenodd">
        <g id="XXXXXL" transform="translate(-2583.000000, -18.000000)" fill-rule="nonzero" fill="#010101">
            <g id="1489720454_131" transform="translate(2583.000000, 18.000000)">
                <path d="M16.0125,1.95 C14.5125,0.45 12.375,-0.15 10.2375,0.3375 C9.7125,0.45 9.1875,0.675 8.7375,0.9375 C5.4,2.8875 4.8,7.125 6.9,9.9 C6.975,10.0125 6.975,10.1625 6.8625,10.275 L0.375,16.8375 C0.15,17.0625 0.1125,17.4 0.3,17.625 C0.4125,17.775 0.5625,17.8125 0.7125,17.8125 C0.8625,17.8125 1.0125,17.775 1.125,17.6625 L7.65,11.1375 C7.7625,11.025 7.9125,11.025 8.025,11.1 C9.4875,12.225 11.3625,12.6 13.2375,12.15 C13.7625,12.0375 14.25,11.8125 14.7,11.55 C18.3375,9.4125 18.75,4.6875 16.0125,1.95 Z M15.225,9.75 C14.2875,10.6875 13.05,11.2125 11.7375,11.2125 C10.425,11.2125 9.1875,10.6875 8.25,9.75 C7.3125,8.8125 6.7875,7.575 6.7875,6.2625 C6.7875,4.95 7.3125,3.7125 8.25,2.775 C9.1875,1.8375 10.425,1.3125 11.7375,1.3125 C13.05,1.3125 14.2875,1.8375 15.225,2.775 C16.1625,3.7125 16.6875,4.95 16.6875,6.2625 C16.6875,7.575 16.1625,8.8125 15.225,9.75 Z" id="Shape"></path>
            </g>
        </g>
    </g>
</svg>
