<?xml version="1.0" encoding="UTF-8"?>
<svg width="18px" height="20px" viewBox="0 0 18 20" version="1.1" xmlns="http://www.w3.org/2000/svg" xmlns:xlink="http://www.w3.org/1999/xlink">
    <title>Shopping Bag</title>
    <defs></defs>
    <g id="Grid" stroke="none" stroke-width="1" fill="none" fill-rule="evenodd">
        <path d="M15.6366742,4.83157895 C15.6366742,4.65322435 15.4912782,4.50947368 15.3108823,4.50947368 L2.27920809,4.50947368 C2.09881217,4.50947368 1.95341623,4.65322435 1.95207827,4.86074099 L0.650248814,19.0042105 C0.650248814,19.1825651 0.79564475,19.3263158 0.976040669,19.3263158 L16.6140497,19.3263158 C16.7903332,19.3263158 16.9331943,19.1890445 16.9396162,19.016353 L15.6366742,4.83157895 Z M4.5721026,3.86526316 C4.73852673,1.70353244 6.56603673,-1.77635684e-15 8.79504519,-1.77635684e-15 C11.0240537,-1.77635684e-15 12.8515637,1.70353244 13.0179878,3.86526316 L15.3108823,3.86526316 C15.851138,3.86526316 16.2882579,4.2974367 16.2869199,4.80241691 L17.5900873,18.9750485 C17.5914253,19.5383528 17.1543054,19.9705263 16.6140497,19.9705263 L0.976040669,19.9705263 C0.435785004,19.9705263 -0.00133489659,19.5383528 3.0632936e-06,18.9750485 L1.30183252,4.83157895 C1.30183252,4.2974367 1.73895242,3.86526316 2.27920809,3.86526316 L4.5721026,3.86526316 Z M5.22595448,3.86526316 L12.3641359,3.86526316 C12.1994599,2.05975175 10.6639933,0.644210526 8.79504519,0.644210526 C6.92609708,0.644210526 5.39063051,2.05975175 5.22595448,3.86526316 Z" id="Combined-Shape" fill="#000000" fill-rule="nonzero"></path>
    </g>
</svg>
