<?xml version="1.0" encoding="UTF-8"?>
<svg width="17px" height="17px" viewBox="0 0 17 17" version="1.1" xmlns="http://www.w3.org/2000/svg" xmlns:xlink="http://www.w3.org/1999/xlink">
    <!-- Generator: Sketch 44.1 (41455) - http://www.bohemiancoding.com/sketch -->
    <title>Share Icon</title>
    <defs></defs>
    <g id="Grid" stroke="none" stroke-width="1" fill="none" fill-rule="evenodd">
        <g id="XXXXXL" transform="translate(-2624.000000, -227.000000)" fill-rule="nonzero" fill="#010202">
            <g id="Group-16" transform="translate(2589.000000, 225.000000)">
                <path d="M51.9423751,8.40857875 L44.7742974,2.05210398 C44.712832,2.00145995 44.6219324,1.98587717 44.54272,2.01357989 C44.4630747,2.03998404 44.4115649,2.10361372 44.4115649,2.17460193 L44.4223863,5.19852653 C40.7998233,5.25479767 35,8.39256312 35,18.3244197 C35,18.4235435 35.0718539,18.5070845 35.1705448,18.5209358 C35.1796348,18.5222344 35.1895905,18.5231001 35.1982476,18.5231001 C35.2856843,18.5231001 35.364031,18.4663961 35.3895694,18.3811237 C36.6907314,14.0253044 41.2331111,11.8735825 43.8419278,11.8735825 C44.0877894,11.8735825 44.286037,11.8800754 44.4228192,11.8844039 L44.4119978,14.9429569 C44.4119978,15.0139451 44.4639404,15.0780076 44.5431528,15.1044118 C44.6240967,15.1312488 44.7145634,15.1160989 44.7747302,15.0654548 L51.9436737,8.68733733 C52.0189905,8.61028915 52.0189905,8.48562693 51.9423751,8.40857875 Z" id="Shape"></path>
            </g>
        </g>
    </g>
</svg>
