<?xml version="1.0" encoding="UTF-8"?>
<svg xmlns="http://www.w3.org/2000/svg" xmlns:xlink="http://www.w3.org/1999/xlink" width="39px" height="36px" viewBox="0 0 39 36" version="1.1">
  <!-- Generator: Sketch 46.1 (44463) - http://www.bohemiancoding.com/sketch -->
  <desc>Created with Sketch.</desc>
  <defs/>
  <g id="Style" stroke="none" stroke-width="1" fill="none" fill-rule="evenodd">
    <g id="Styleguide-Copy" transform="translate(-554.000000, -1956.000000)">
      <g id="twitter-copy" transform="translate(554.000000, 1956.000000)"/>
      <path d="M574.560976,1956 C564.862113,1956 557,1963.86211 557,1973.56098 C557,1983.25984 564.862113,1991.12195 574.560976,1991.12195 C584.259839,1991.12195 592.121951,1983.25984 592.121951,1973.56098 C592.121951,1963.86211 584.259839,1956 574.560976,1956 Z M581.577377,1975.55294 C580.800905,1977.32616 578.792197,1978.77068 576.830663,1978.87911 C575.515112,1978.95139 573.954939,1978.79807 573.31999,1977.50306 C573.235533,1978.12926 572.80678,1979.87509 572.626833,1980.50053 C572.431669,1981.17695 572.255527,1982.13755 571.70998,1982.6344 C571.412859,1982.90489 570.156656,1983.59424 569.823012,1982.71505 C569.38589,1981.56423 570.320243,1978.89623 570.671006,1977.59285 C570.859323,1976.89056 570.973074,1976.20311 571.0834,1975.48599 C571.175466,1974.89098 571.436065,1974.32527 571.463457,1973.71962 C571.49199,1973.0957 571.281228,1972.487 571.265249,1971.86537 C571.249651,1971.21977 571.261825,1970.51444 571.601175,1969.94226 C572.155472,1969.00752 573.588578,1968.28774 574.563639,1968.99573 C575.449677,1969.63829 575.27886,1971.01547 574.950543,1971.91749 C574.715433,1972.56271 574.530541,1973.11472 574.397007,1973.79609 C574.302278,1974.27696 574.197658,1974.9956 573.984613,1975.41637 C574.670541,1976.11409 574.958152,1976.82855 576.069028,1976.82094 C576.875935,1976.816 577.693875,1976.37697 578.177791,1975.73213 C578.650294,1975.10289 579.076383,1974.3656 579.386059,1973.64277 C579.858562,1972.53874 579.793127,1971.11819 579.68318,1969.94416 C579.574756,1968.79144 578.980513,1967.73686 578.052627,1967.04561 C575.83582,1965.39527 572.135309,1965.75973 570.357146,1967.9092 C569.283552,1969.20763 568.756647,1971.01661 568.94154,1972.69244 C569.004692,1973.265 569.49051,1973.64239 569.757577,1974.12136 C570.004861,1974.56533 569.977089,1975.62066 569.535402,1975.9992 C569.08991,1976.38001 568.412732,1975.62941 568.081752,1975.3243 C567.135224,1974.4512 566.728537,1973.34299 566.535275,1972.09477 C566.425709,1971.3864 566.474405,1970.55476 566.718265,1969.90954 C566.993321,1969.18443 567.186203,1968.4616 567.646151,1967.86964 C568.033817,1967.37088 568.462189,1966.80822 568.893604,1966.34104 C569.296868,1965.90468 569.784208,1965.62582 570.349157,1965.34277 C570.950628,1965.04109 571.508348,1964.6519 572.134928,1964.43429 C572.842541,1964.18853 573.536078,1964.08048 574.272604,1964.01809 C575.479731,1963.91613 577.032675,1963.95912 578.164095,1964.50886 C579.071057,1964.9494 580.062857,1965.53337 580.818405,1966.2737 C581.810204,1967.2461 582.473306,1968.90405 582.6076,1970.25574 C582.78184,1972.00841 582.277381,1973.95435 581.577377,1975.55294 Z" id="Shape" fill="#000000" fill-rule="nonzero"/>
    </g>
  </g>
</svg>