<?xml version="1.0" encoding="UTF-8"?>
<svg xmlns="http://www.w3.org/2000/svg" xmlns:xlink="http://www.w3.org/1999/xlink" width="38px" height="35px" viewBox="0 0 38 35" version="1.1">
  <!-- Generator: Sketch 46.1 (44463) - http://www.bohemiancoding.com/sketch -->
  <desc>Created with Sketch.</desc>
  <defs/>
  <g id="Style" stroke="none" stroke-width="1" fill="none" fill-rule="evenodd">
    <g id="Styleguide-Copy" transform="translate(-611.000000, -1956.000000)">
      <g id="instagram-copy" transform="translate(611.000000, 1956.000000)"/>
      <circle id="Oval" fill="#000000" fill-rule="nonzero" cx="631.5" cy="1973.5" r="17.5"/>
      <path d="M641.101644,1967.83494 C640.386376,1968.15185 639.627673,1968.35985 638.850786,1968.45199 C639.66923,1967.96228 640.281681,1967.19167 640.573982,1966.2838 C639.804696,1966.74033 638.963007,1967.06197 638.085304,1967.23478 C636.87036,1965.94354 634.940341,1965.62772 633.377203,1966.46438 C631.814065,1967.30104 631.006418,1969.08217 631.407023,1970.80928 C628.255598,1970.65157 625.319348,1969.16317 623.329169,1966.71459 C622.289515,1968.50534 622.820497,1970.79575 624.542043,1971.94637 C623.919731,1971.9269 623.311105,1971.75884 622.766978,1971.45622 L622.766978,1971.50555 C622.767338,1973.37127 624.082153,1974.9784 625.910823,1975.34836 C625.333676,1975.50515 624.728354,1975.5281 624.14099,1975.41548 C624.654216,1977.01193 626.12541,1978.10565 627.802034,1978.13719 C626.41383,1979.22668 624.699517,1979.81756 622.934843,1979.8148 C622.622426,1979.81488 622.310274,1979.79662 622,1979.76009 C625.431121,1981.95786 629.788079,1982.10815 633.362488,1980.15204 C636.936896,1978.19592 639.159007,1974.4452 639.157518,1970.37056 C639.157518,1970.20065 639.153731,1970.03164 639.146157,1969.86352 C639.913362,1969.30891 640.57555,1968.62197 641.101644,1967.83494 Z" id="Shape" fill="#FFFFFF" fill-rule="nonzero"/>
    </g>
  </g>
</svg>