<?xml version="1.0" encoding="UTF-8"?>
<svg xmlns="http://www.w3.org/2000/svg" xmlns:xlink="http://www.w3.org/1999/xlink" width="38px" height="36px" viewBox="0 0 38 36" version="1.1">
  <!-- Generator: Sketch 46.1 (44463) - http://www.bohemiancoding.com/sketch -->
  <desc>Created with Sketch.</desc>
  <defs/>
  <g id="Style" stroke="none" stroke-width="1" fill="none" fill-rule="evenodd">
    <g id="Styleguide-Copy" transform="translate(-497.000000, -1955.000000)">
      <g id="1495342956_social_media_circled_network-13-copy" transform="translate(497.000000, 1955.000000)"/>
      <path d="M535,1973.5 C535,1983.16462 527.16462,1991 517.5,1991 C507.83531,1991 500,1983.16462 500,1973.5 C500,1963.83531 507.83531,1956 517.5,1956 C527.16462,1956 535,1963.83531 535,1973.5 L535,1973.5 Z" id="Shape" fill="#000000" fill-rule="nonzero"/>
      <path d="M522.10338,1974.3967 L518.98082,1974.3967 L518.98082,1985.83589 L514.25001,1985.83589 L514.25001,1974.3967 L512,1974.3967 L512,1970.37527 L514.25001,1970.37527 L514.25001,1967.77407 C514.25001,1965.91403 515.13327,1963 519.02345,1963 L522.52681,1963.01519 L522.52681,1966.91783 L519.98462,1966.91783 C519.56728,1966.91783 518.98082,1967.12636 518.98082,1968.01305 L518.98082,1970.3801 L522.51771,1970.3801 L522.10338,1974.3967 Z" id="Shape" fill="#FFFFFF" fill-rule="nonzero"/>
    </g>
  </g>
</svg>