<?xml version="1.0" standalone="no"?>
<!DOCTYPE svg PUBLIC "-//W3C//DTD SVG 1.1//EN" "http://www.w3.org/Graphics/SVG/1.1/DTD/svg11.dtd" >
<svg>
<metadata>
Created by FontForge 20110222 at Mon Mar  7 03:45:19 2011
 By www-data
Created for MadCaps by Annie de la Vega.
</metadata>
<defs>
<font id="Annifont" horiz-adv-x="1756" >
  <font-face 
    font-family="Annifont"
    font-weight="400"
    font-stretch="normal"
    units-per-em="1000"
    panose-1="2 11 6 3 5 3 2 2 2 4"
    ascent="800"
    descent="-200"
    x-height="472"
    cap-height="873"
    bbox="-97 -461 1315.33 1294"
    underline-thickness="0"
    underline-position="0"
    unicode-range="U+0020-2122"
  />
    <missing-glyph />
    <glyph glyph-name="space" unicode=" " horiz-adv-x="445" 
 />
    <glyph glyph-name="exclam" unicode="!" horiz-adv-x="451" 
d="M423 785q-35 -41 -62.5 -82.5t-51.5 -93.5t-39 -112l-15 -60l-13 -58q-6 -27 -31 -37q-15 -3 -30 6q-22 19 -22 54l2 60q11 49 21 88t26 85q26 80 66 158l18 35l9 13.5t11 14.5q18 24 41 28q32 0 52 -23q9 -10 20 -40l2 -19q0 -12 -4 -17zM61 185q9 14 42 22q24 0 43 -19
q15 -21 18 -42l4 -30q0 -22 -12 -40q-16 -22 -41 -22l-25 3q-10 3 -18 13q-15 17 -21 41l-2 24q0 26 12 50z" />
    <glyph glyph-name="quotedbl" unicode="&#x22;" horiz-adv-x="561" 
d="M235 762l-1 -15l3 -25q3 -16 -31 -16q-33 3 -43 20q-15 27 -15 50q0 11 2.5 16.5t2.5 17.5l1 20l-1 27v29v10l-7 49l-1 13q0 15 7 18h19q11 -3 15 -4l43 -10q26 -6 26 -42l-1 -17l-18 -111l1 -14q0 -12 -2 -16zM418 762l-1 -15l3 -25q3 -16 -31 -16q-33 3 -43 20
q-15 29 -15 51l2 14l2 19l1 20l-1 27v29v10l-6 49l-1 13q0 15 7 18h19q11 -3 15 -4l43 -10q26 -6 26 -45l-1 -14l-18 -111l1 -14q0 -12 -2 -16z" />
    <glyph glyph-name="numbersign" unicode="#" horiz-adv-x="951" 
d="M693 789l-38 -79q59 0 125 -10q60 -6 99 -24q16 -6 23 -20q3 -9 -7 -26q-11 -7 -42 -7l-44 5l-90 12l-93 10l-79 -181h10h12q91 0 164 -11q58 -6 100 -24q16 -9 23 -20q3 -12 -8 -26q-9 -7 -41 -7l-44 5l-113 17q-30 4 -55.5 6t-53.5 2l-18 1l-58 -154l-50 -145
q-6 -6 -15 -9t-13 2.5t-5 19.5q0 27 17 87l26 93q8 25 16.5 52t18.5 54q-35 0 -68 -3t-73 -11l-25 -4l-53 -140l-49 -141q-3 -6 -15 -9q-9 -3 -12 2t-5 21q0 27 13 75l24 83l31 98l-13 -2l-101 -10l-16 -1h-10q-38 0 -63 15t-25 35t45 28h51h19q67 0 136 6l33 96l30 82
l-52 -9l-101 -10l-16 -1h-10q-41 0 -67 17q-17 12 -22 33q-3 21 46 28h50h19l69 1q23 0 73 6l18 1q14 0 18 2q18 47 42 93l45 91q1 3 12 8q9 0 17 -8q14 -18 20 -35l4 -27q0 -12 -1.5 -17.5t-6.5 -15.5l-21 -42l-19 -40h16l26 2h16h13l13 2h17h34l40 86l43 87q1 3 12 8
q9 0 16 -8q5 -8 11 -18t10 -20l4 -24q0 -15 -9 -33zM479 469l35 103l30 82h-43.5t-34.5 -2q-20 0 -65 -6l-42 -93l-38 -92l147 8h4h7z" />
    <glyph glyph-name="dollar" unicode="$" horiz-adv-x="813" 
d="M668 898q32 -41 39 -94q6 -54 -52 -79q-10 0 -28 -6q-16 -6 -20 12q-3 15 6 37l2 9q0 13 -25 26l-46 14q-38 -81 -65 -141q-3 -6 -42 -95l39 -6q8 0 18 -1t22 -4q79 -9 155 -30q58 -18 89 -98l4 -27q0 -34 -25 -63q-35 -42 -68 -64l-101 -63q-29 -17 -53.5 -30t-49.5 -24
q-48 -22 -102 -39.5t-117 -31.5l-66 -189q-4 -4 -24 -14q-15 -5 -21 8q-5 5 -5 27v14l2 18q8 56 29 122l-10 -2h-8l-28 -2l-32 2q-34 0 -57 20q-28 22 -28 69q0 30 54 30l27 -1q16 0 25 -2h26h32l32 1l46 146l24 76l26 72l-36 15l-16 6l-18 11q-47 23 -91 61q-39 33 -55 86
l-4 15l-1 15q0 19 7 33q11 31 37 54q84 78 194 109l72 17l75 15l47 96l47 96q5 12 20 12q13 0 25 -12q23 -30 33 -60q6 -20 6 -39q0 -27 -13 -52l-19 -38q36 -16 66 -37zM407 816q-46 -12 -98 -32.5t-80 -65.5q-5 -8 -7 -21q0 -14 18 -32l47 -38l18 -10l25 -13l45 128z
M291 217l68 17l62 20q84 30 166 103q22 19 22 40l-1 9q-6 23 -33 27q-71 9 -173 30l-8 1l-6 2l-7 -16q-51 -124 -90 -233z" />
    <glyph glyph-name="percent" unicode="%" horiz-adv-x="728" 
d="M247 1026q17 -3 27 -11q13 -6 21 -20q6 -17 6 -31q0 -9 -1.5 -14t-6.5 -14l-16 -28l-19 -25q-30 -27 -72 -51q-36 -19 -84 -28l-11 -2h-9q-16 0 -26 2l-30 12q-33 18 -33 46q0 11 6 26q15 42 42 75q33 36 71 58q43 22 86 33l12 2l14 -2q12 -6 19 -19zM225 910
q11 16 13 33q0 14 -15 31l-18 4l-11 1h-16l-11 -4q-31 -10 -51 -26l-25 -25q-16 -17 -21 -29l-4 -21l2 -12q3 -8 33 -8q18 0 33 4.5t33 14.5q29 14 58 37zM77 -81q0 -12 -24 -15q-21 -3 -25 14q3 23 31 96l72 180q45 115 93.5 222t103.5 214q66 131 138 249l153 243
q3 6 44 6q38 0 48 -20q6 -13 -47 -81q-48 -64 -128 -205q-65 -115 -125 -227q-56 -105 -114 -222zM659 214q15 -3 26 -11q13 -6 21 -20q6 -15 6 -30q0 -11 -1 -16t-7 -15q-16 -31 -34 -51q-32 -29 -71 -50q-35 -17 -86 -28l-19 -2l-16 2q-9 0 -20 4l-20 7q-34 19 -34 46
q0 11 6 26q18 47 43 75q30 35 70 57q20 11 40.5 19t46.5 15l12 1l14 -1q12 -6 19 -19zM636 98q3 4 8 14t5 20q0 16 -14 30q-12 5 -29 5h-16l-12 -4q-28 -9 -50 -26q-12 -9 -25 -25l-22 -32l-3 -17v-6l3 -10q2 -5 32 -5q34 0 66 19q28 13 57 37z" />
    <glyph glyph-name="ampersand" unicode="&#x26;" horiz-adv-x="703" 
d="M612 798l3 -10q0 -7 -4.5 -16.5t-9.5 -17.5q-13 -21 -23 -22l-8 3q-14 5 -33 9t-35 4q-9 0 -19 -1t-22 -4q-51 -12 -95 -34q-79 -45 -99 -76q-8 -13 -10 -27q0 -11 10.5 -20.5t44.5 -9.5h14l10 1q51 6 120 36q37 15 74 41q27 19 47 19l16 -4l40 -17q13 -3 13 -20l-3 -20
l-158 -88q-105 -58 -181 -126l-59 -57q-15 -17 -15 -34q0 -10 5 -23q15 -13 40 -13q12 0 31 4.5t30 7.5t30 9t39 18l53 28q14 7 52 39q9 9 25 9q8 0 26 -5q19 -3 28.5 -10.5t9.5 -15.5q0 -7 -8 -16q-13 -15 -45 -37q-24 -15 -61 -34l-48 -21l-25 -9l-24 -7q-14 -17 -15 -23
l-16 -55l-25 -85l-12 -37q-2 -7 -6 -18.5t-11 -26.5q-15 -39 -27 -51q-4 -4 -24 -4q-16 0 -26 5q-16 6 -17 20l3 15l19 58l21 59l21 63l21 61l-29 -1q-21 0 -41.5 6t-37.5 16q-30 20 -39 47q-5 13 -5 30l2 27q1 14 33 49q13 14 25 25q16 15 34 30q36 33 79 51q-51 5 -74 14
t-40 29q-22 22 -22 55q0 14 6 37q27 83 139 149q24 14 67 31l2 5l37 99l28 75l21 58l23 58q7 19 22 20l12 -2l23 -13q15 -9 16 -17l-2 -20l-8 -30l-13 -39l-15 -40l-15 -38l-17 -40l-25 -57q40 0 71 -6.5t61 -21.5z" />
    <glyph glyph-name="quotesingle" unicode="'" horiz-adv-x="345" 
d="M96 639l39 121l21 57l26 66q8 19 22.5 36.5t33.5 20.5q20 0 35 -21l20 -42l3 -25l-2 -21l-92 -102l-96 -107z" />
    <glyph glyph-name="parenleft" unicode="(" horiz-adv-x="724" 
d="M58 -13q-38 58 -52 130q0 50 1.5 97t2.5 76q0 34 4.5 63t15.5 67q36 143 105 268q66 120 162 227q82 91 187 173q34 26 107 50l23 3q48 0 76 -65q-96 -69 -181 -138q-75 -60 -122.5 -116.5t-112 -162.5t-109 -223.5t-59.5 -240.5q0 -12 -2 -18v-18q0 -89 48 -155
q25 -34 25 -57q0 -15 -13 -29q-12 -5 -27 -7l-15 3q-15 6 -29 26z" />
    <glyph glyph-name="parenright" unicode=")" horiz-adv-x="722" 
d="M246 -29l-85 -38q-51 -21 -92 -21l-15 1q-17 0 -28 8.5t-17 27.5q3 31 43 47l74 26q44 15 85 49t79 80q100 121 167 292q64 165 83 268q2 13 5 37t3 39l2 96l-3 77l-7 150l22 5l23 3q45 0 66 -43q15 -37 23 -65t8 -49v-30q0 -29 -0.5 -59.5t-1.5 -63.5q0 -41 -10 -105.5
t-28 -133t-43 -133.5q-50 -132 -135.5 -251.5t-217.5 -213.5z" />
    <glyph glyph-name="asterisk" unicode="*" horiz-adv-x="586" 
d="M334 792l13 1q7 3 12 6q12 7 35 23q67 43 110 63l13 3l22 -6q14 -4 20 -26l-1 -12q0 -6 -13 -12l-86 -46l-80 -42l125 -77q5 -3 5 -11t-5 -21q-9 -22 -22 -19q-43 20 -103 61l-38 23q-10 6 -15.5 8t-9.5 3l-40 -83l-35 -80l-12 -39q-6 -28 -17 -32q-20 -3 -30 13t-18 39
l52 125l-59 -31l-105 -51l-16 -4q-8 0 -17 6q-14 12 -21 28v13q71 30 125 59q63 33 123 75q-37 28 -77 52l-82 51l-33 16q-9 3 -10 10q0 5 12 16q15 9 30 9q12 0 39 -7.5t85.5 -50t66.5 -42.5q5 2 27 59l21 55l23 47q2 4 11 5l10 -2q7 0 10 -2q23 -9 23 -19l-40 -91z" />
    <glyph glyph-name="plus" unicode="+" horiz-adv-x="716" 
d="M568 537q-77 0 -151 -9q-45 -93 -84 -192l-20 -56q-8 -24 -29 -24l-15 2q-16 22 -16 32l8 39l34 100l31 85l-54 -9l-32 -1l-73 -10l-13 -1h-10q-45 0 -74 19q-17 10 -23 34q-3 21 48 28h29h25h69q33 0 57.5 3t38.5 5l18 1l20 2q19 53 43 96l48 96q1 3 12 8q9 0 17 -8
q13 -17 22 -40l4 -25q0 -15 -9 -35l-22 -42l-20 -42l44 1l44 3l42 -1h21h51l32 -6l18 -18v-20l-12 -15l-30 -6h-44z" />
    <glyph glyph-name="comma" unicode="," horiz-adv-x="246" 
d="M97 96q-8 22 -8 38l-1 17q0 27 14 45q17 18 41 18t40 -19q9 -13 17 -40q0 -26 -6 -50l-22 -71l-10 -24l-10 -19q-9 -19 -25 -41q-3 -3 -13 -5l-14 3q-18 6 -28 23q-6 11 -6 22q0 13 10 27q9 16 15 35t6 41z" />
    <glyph glyph-name="hyphen" unicode="-" horiz-adv-x="685" 
d="M648 495q-19 -19 -39 -19q-13 0 -21 4q-34 14 -94 27q-108 22 -184 22q-47 0 -88.5 -9.5t-89.5 -30.5q-14 -5 -29 -7q-16 0 -29 14l-33 48q0 28 16.5 45.5t44.5 20.5l77 6l89 3h50q56 0 116 -10l83 -12q13 -2 25.5 -5t35.5 -12l52 -18q18 -9 25 -31l3 -13q0 -10 -10 -23z
" />
    <glyph glyph-name="period" unicode="." horiz-adv-x="289" 
d="M262 89q-9 -17 -41 -21q-23 0 -41 19q-14 17 -17 34l-3 23v10q0 25 11 39q16 22 39 22q24 0 41 -16q10 -13 20 -39l1 -10v-10q0 -31 -10 -51z" />
    <glyph glyph-name="slash" unicode="/" horiz-adv-x="746" 
d="M33 -39q-3 -8 -24 -13q-21 0 -24 16l34 86q24 62 72 160l45 93l54 104q51 99 114 199l78 121l81 115l173 229q6 11 53 11q46 0 54 -15q3 -12 -60.5 -73.5t-153.5 -195.5q-150 -220 -256 -415l-72 -130q-31 -58 -44 -80q-24 -39 -36 -60z" />
    <glyph glyph-name="zero" unicode="0" horiz-adv-x="870" 
d="M808 788q52 -40 62 -95l1 -16q0 -37 -16 -72q-18 -45 -39 -81q-69 -123 -177 -225q-75 -72 -170 -125q-45 -24 -93 -40q-28 -8 -50 -10.5t-41 -2.5h-15q-42 0 -58 1.5t-39 6.5q-40 8 -86 53q-30 30 -45 69q-10 32 -16 76q0 12 -2 18v14v28q3 14 4 21l10 48q5 22 6 26
q6 12 8 18q21 63 52 110l66 97l37 48q16 21 48 50q40 34 93 49l22 3q39 0 84 -36q44 9 91 15t94 6q22 0 43 -3t45 -11q46 -12 81 -40zM164 232q28 -34 74 -34l14 1q54 6 112.5 32.5t112.5 65.5t82 65q150 138 177 229q10 33 10 59q0 44 -31 72q-41 35 -119 35
q-27 0 -39.5 -1.5t-39.5 -6.5q-134 -24 -250 -120q-12 -11 -27.5 -29t-32.5 -42q-32 -46 -51.5 -106t-19.5 -127q0 -64 28 -93z" />
    <glyph glyph-name="one" unicode="1" horiz-adv-x="681" 
d="M539 880q9 11 24 13q17 0 39 -13q37 -22 37 -49l-3 -15l-138 -347l-67 -172l-76 -190q-11 -9 -26 -11q-19 0 -44 25q-37 40 -28 56q174 317 282 703z" />
    <glyph glyph-name="two" unicode="2" horiz-adv-x="891" 
d="M292 794q107 46 175 72q15 6 35.5 10.5t39.5 4.5l112 4q44 0 78 -11.5t60 -33.5q42 -36 48 -77l1 -15q0 -86 -91 -190q-56 -66 -122 -120l-132 -107l-112 -82q-48 -33 -60 -45l116 16l76 5l57 2h42q12 0 26 -0.5t33 -7.5q25 -6 42 -22q19 -14 19 -40l-2 -12q0 -7 -2 -11
l-37 4l-39 1q-55 0 -126 -10l-92 -12l-99 -7l-77 -4q-34 0 -64 12q-38 15 -38 37q0 20 28 54q56 71 192.5 164t243.5 197q50 50 78 97t28 95q-25 38 -68 44l-45 -3q-9 0 -18 -2.5t-29 -9.5l-59 -24q-10 -4 -29 -14t-34 -20q-59 -34 -109 -46l-18 -2q-52 0 -52 92z" />
    <glyph glyph-name="three" unicode="3" horiz-adv-x="807" 
d="M297 843l69 11l65 10l48 5l46 1h24l24 -2q69 -9 117 -36t65 -67l4 -29q0 -34 -20 -74q-27 -58 -129 -145q56 -24 84 -71q13 -21 13 -47q0 -14 -4 -30.5t-13 -32.5q-21 -42 -73 -85q-43 -37 -109 -71l-50 -23l-54 -19q-54 -18 -101 -18q-82 0 -123 35q-5 7 -7 21l3 19
q6 22 26 22l43 -3q69 0 155 30q111 39 179 107q30 30 30 54l-1 10q-6 25 -69 34l-31 1q-39 0 -74 -7l-38 -3q-33 0 -51 11q-27 15 -27 60q-4 12 5.5 16.5t26.5 4.5h11q7 0 19 2l41 10l58 19l21 9l40 23q34 20 54 35t38 49l12 31l5 27q0 11 -2 15q-9 24 -37 34l-25 5l-32 1
h-10l-71 -9l-80 -19q-39 -9 -81 -9q-16 3 -37 30q-6 11 -8 24q0 12 10 23z" />
    <glyph glyph-name="four" unicode="4" horiz-adv-x="868" 
d="M517 831q15 15 45 20q29 0 46 -16l11 -20q2 -5 -1 -22l-80 -58l-78 -56l-110 -84l-108 -83q-6 -4 -7.5 -6.5t-1.5 -3.5q0 -6 23 -6l46 1l104 4l105 3q30 61 65 128q32 61 70 129q60 104 89 161q16 16 55 16q17 0 25.5 -3.5t7.5 -10.5q-4 -17 -9.5 -33.5t-13.5 -33.5
q-13 -35 -32 -71l-66 -131l-40 -77l-39 -78q13 0 15 -2l16 -1q62 -15 68 -58q0 -27 -14 -31l-34 -3l-46 3l-44 5q-19 -43 -36 -85.5t-30.5 -84t-20.5 -77.5t-7 -74l-20 -21q-17 6 -35.5 17.5t-27.5 33.5q-6 20 -6 46q0 20 2 31l5 28q12 64 43 139l11 26l12 27h-14l-13 1
l-88 1l-42 1l-45 1h-37l-37 1h-13q-7 0 -18 2t-19 8q-12 10 -26 37q-6 24 -3 35q3 8 24 29l186 147z" />
    <glyph glyph-name="five" unicode="5" horiz-adv-x="955" 
d="M877 776l-119 7l-61 1l-62 1h-41q-18 -3 -31 -4t-35 -3.5t-48 -7.5q-52 -6 -96 -31l-21 -10l-36 -72l-36 -71l-5 -11q0 -6 10 -6l15 2l77 15l97 14l45 3q69 0 127 -32q28 -18 44 -56q9 -27 9 -51l-1 -18q-60 -87 -130.5 -166.5t-161.5 -133.5q-38 -22 -99 -49l-27 -8
l-29 -3l-23 1l-26 6q-19 6 -42 37q-9 13 -11 24q0 9 13 13q155 27 261 106q97 70 160 192l9 18q6 12 -5 15l-90 12l-18 1l-13 1q-39 0 -78 -11q-54 -15 -98 -34l-49 -17q-23 -6 -49 -6q-19 0 -30 3.5t-25.5 18t-14.5 29.5q0 9 5 18q45 76 82 151q26 54 65 149q3 22 17 26
l47 5q73 6 131 16l69 8l65 4h66h31l35 -2q21 0 31 -1t37 -7t63 -18l20 -42l3 -13q0 -13 -23 -13z" />
    <glyph glyph-name="six" unicode="6" horiz-adv-x="814" 
d="M348 612q-40 -43 -88 -130q-31 -59 -31 -98q0 -16 6 -31q1 -2 3.5 -5t5.5 -5q6 -3 11 1l39 37l47 35l96 59q26 14 63 22q19 3 38 5t40 2q37 0 70 -9t69 -27q25 -25 44 -66q6 -15 6 -31q0 -21 -12 -48q-32 -67 -80.5 -109.5t-103.5 -76.5l-44 -25l-47 -22q-19 -7 -45 -12
l-49 -4q-14 0 -27 1t-26 4l-56 19q-52 21 -90 67q-45 51 -57 131l-3 49q0 53 16 101q51 120 140 227q52 64 110.5 112t128.5 84q24 12 49 12t46.5 -9.5t21.5 -25.5q0 -10 -9 -25q-5 -7 -37 -27l-76 -49q-44 -28 -89 -61.5t-80 -71.5zM296 197q24 -10 50.5 -15t59.5 -5
q57 0 113 38q30 19 89 75q36 35 36 71q0 19 -7 33q-21 8 -51 8q-9 0 -21 -1t-27 -4q-62 -11 -115 -38q-88 -43 -126 -95q-19 -25 -19 -43q0 -15 18 -24z" />
    <glyph glyph-name="seven" unicode="7" horiz-adv-x="727" 
d="M664 828l14 -14l15 -19l-2 -4q0 -23 -12 -49l-17 -43l-205 -256q-109 -136 -178 -271l-3 -15q0 -7 -5 -15l-3 -30q-3 -12 -30 -20l-13 -1h-7l-21 3q-18 12 -24 28l-7 33q0 27 3 42.5t17 40.5l192 259l193 259l-26 2h-23h-55l-97 -17l-48 -5l-49 -3h-22l-22 -2l-41 3
q-16 3 -20 7q-31 38 -54 83l-2 9q4 3 7 3l56 -10l59 -3q94 11 179 31l57 6l58 6q37 -5 63.5 -11t56.5 -17l5 -3z" />
    <glyph glyph-name="eight" unicode="8" horiz-adv-x="722" 
d="M531 515q39 -33 75 -87q17 -25 17 -51q0 -29 -20 -58l-64 -64l-66 -58q-46 -35 -94 -59.5t-103 -30.5q-15 0 -21 -2h-15q-24 0 -35.5 1.5t-33.5 6.5q-36 9 -59 41l-37 64q-11 19 -11 45q0 24 11 42q30 71 82 113q44 35 44 82v9q0 15 -17 27t-28 41q-3 11 -5 29
q0 21 10 47q18 45 48 89.5t68.5 78t70.5 42.5l63 4q36 0 102.5 -7.5t124.5 -55.5l30 -33q17 -21 20 -37l-3 -24l-9 -26q-19 -46 -66 -92zM259 568q26 -41 66 -41q15 0 23 1.5t23 9.5q74 35 108 63.5t61 61.5q12 15 18 33.5t6 43.5q-40 25 -85 42q-19 8 -41 8
q-21 0 -45.5 -12.5t-51.5 -36t-57 -55.5q-38 -40 -38 -76q0 -22 13 -42zM202 208q6 -5 15 -8t23 -3l25 1l25 7q63 20 103 52l85 65q35 26 35 62q0 14 -4 26q-41 42 -86 42q-20 0 -38 -7q-66 -24 -123 -60q-35 -21 -69 -83q-15 -27 -15 -48q0 -25 24 -46z" />
    <glyph glyph-name="nine" unicode="9" horiz-adv-x="769" 
d="M264 520q49 0 100 18q23 8 48.5 20.5t50.5 28.5q81 53 123 145q6 7 7 23l-1 12q-5 24 -44 24q-48 0 -105.5 -15.5t-99.5 -48.5q-24 -18 -51 -60l-24 -39l-17 -32q-5 -9 -8 -28l-2 -29q0 -19 23 -19zM733 700q-48 -164 -132.5 -338t-222.5 -282q-7 -6 -20 -7q-17 0 -44 21
q-24 21 -24 37q0 9 7 16q92 83 174.5 178t111.5 220l-7 -2l-4.5 -1.5t-9.5 -6.5l-24 -13l-121 -64q-55 -26 -103 -26q-34 0 -64 10q-39 28 -74 73q-20 29 -20 64v20l4 14q21 52 61 104l41 46q21 21 49 43q40 31 85 54t96 34l15 1l49 -3q50 0 73 -20q9 -6 10 -14q0 -22 5 -32
l14 -22q11 -15 19.5 -25.5t21.5 -23.5q21 -19 34 -55z" />
    <glyph glyph-name="colon" unicode=":" horiz-adv-x="395" 
d="M343 469q-9 -15 -40 -22q-12 0 -22 3.5t-19 15.5q-15 18 -18 44l-3 26q0 20 11 37q15 21 40 21q24 0 41 -16q10 -13 20 -39l2 -23q0 -26 -12 -47zM262 89q-9 -17 -41 -21q-23 0 -41 19q-14 17 -17 34l-3 23v10q0 25 11 39q16 22 39 22q24 0 41 -16q10 -13 20 -39l1 -10
v-10q0 -31 -10 -51z" />
    <glyph glyph-name="semicolon" unicode=";" horiz-adv-x="395" 
d="M340 469q-9 -15 -40 -22q-23 0 -40 18q-13 18 -18 39l-4 33q0 19 11 36q6 9 16 15.5t24 6.5q24 0 41 -16l10 -16l10 -23l1 -10v-10q0 -32 -11 -51zM172 96q-8 22 -8 38l-1 17q0 27 14 45q17 18 41 18t40 -19q9 -13 17 -40q0 -26 -6 -50l-22 -71l-10 -24l-10 -19
q-9 -19 -25 -41q-3 -3 -13 -5l-14 3q-18 6 -28 23q-6 11 -6 22q0 13 10 27q9 16 15 35t6 41z" />
    <glyph glyph-name="less" unicode="&#x3c;" horiz-adv-x="771" 
d="M162 392l388 -190q37 -19 37 -42l-1 -9q-9 -27 -40 -34l-53 22l-125 56l-164 68q-79 32 -166 58q-15 5 -15 28l3 24q9 45 41 64q145 84 274 181q117 85 262 201q5 3 11 3q11 0 23 -4t38 -16q43 -20 43 -40q0 -6 -6 -17l-137 -98l-155 -105q-162 -105 -258 -150z" />
    <glyph glyph-name="equal" unicode="=" horiz-adv-x="746" 
d="M441 386l-60 3l-29 -1l-30 -4q-54 -8 -115 -25l-86 -14l-19 -2q-33 0 -59 24q-13 14 -19 46q-3 30 39 39h43h27h26q11 2 16 2q13 0 27 1.5t32.5 5t31.5 5.5t24 2l62 1l112 -2l73 -3q17 -1 33.5 -4t33.5 -7q52 -12 84 -34q15 -12 19 -28q1 -5 1 -13q0 -12 -7 -23t-35 -11
q-27 3 -37 7l-93 21l-53 8zM441 609l-60 3l-29 -1l-30 -4q-54 -8 -115 -25l-86 -15l-19 -2q-34 0 -59 25q-13 14 -19 46q-3 28 39 38h22l87 1q25 0 62 8q18 3 31 5t25 2l62 1l112 -1q69 0 140 -15q49 -11 84 -34q13 -9 19 -27q3 -21 -6 -37q-7 -10 -37 -10l-16 1l-19 6
l-93 20z" />
    <glyph glyph-name="greater" unicode="&#x3e;" horiz-adv-x="771" 
d="M604 558l-387 190q-38 18 -38 40l1 10q9 25 41 35l52 -24l125 -56l163 -68q89 -33 168 -57q14 -5 14 -26l-3 -26q-9 -45 -40 -63q-72 -42 -137.5 -85.5t-139.5 -98.5q-129 -95 -259 -198q-3 -3 -14 -4q-19 0 -60.5 19.5t-41.5 41.5q0 9 7 17q131 97 290 201.5t259 151.5z
" />
    <glyph glyph-name="question" unicode="?" horiz-adv-x="809" 
d="M355 364l3 -9q-3 -7 -5 -9l-14 -12l-20 -14q-8 -6 -23 -8l-12 2q-31 18 -40 41q-8 26 -8 49q0 41 27 85q37 56 88 98.5t114 75.5l43 17l65 26q34 15 58 31q26 15 27 31q0 15 -30 35q-30 15 -69 27t-75 18l-51 9l-48 1l-51 1l-60 -3q-29 0 -62 -6t-92 -27l-26 -8l-22 -3
q-21 0 -27.5 15.5t-6.5 30.5q0 19 14.5 39.5t43.5 30.5l55 14q78 12 154 12q34 0 70 -3t81.5 -11t100.5 -23l103 -30q31 -10 74 -42q35 -27 35 -73q0 -37 -31 -69q-25 -26 -53 -44q-70 -44 -152.5 -72t-141.5 -80q-27 -23 -42 -70q-6 -18 -6 -34q0 -21 12 -39zM332 76
q-12 -18 -47 -22q-29 0 -46.5 18t-21.5 39l-4 32q0 23 13 39q9 10 20.5 16t25.5 6q31 0 48 -17q13 -13 23 -39l2 -25q0 -27 -13 -47z" />
    <glyph glyph-name="at" unicode="@" horiz-adv-x="1023" 
d="M923 514q-22 -36 -83 -89t-121 -74l-22 -4l-14 -1q-19 0 -32 4q-30 9 -52 56l-14 55q0 16 -6 22q-3 4 -13 0l-108 -85q-51 -39 -120 -60l-33 -8l-29 -3q-25 0 -36 11q-27 24 -31 61q0 21 5.5 37t20.5 32q83 96 180 163q52 37 100 60q35 18 87 18q23 0 36.5 -2t33 -12.5
t22.5 -29.5l2 -30q0 -38 -18 -74q-13 -26 -13 -57v-21l4 -15q6 -29 38 -29q30 3 50 18q38 32 69 70.5t45 86.5l4 30q0 20 -8 43q-12 38 -52.5 69.5t-97.5 47.5t-124 16q-62 0 -126 -19q-58 -16 -123 -50q-159 -78 -226 -220q-14 -31 -21 -62.5t-7 -70.5q0 -63 72 -137
q48 -48 111 -60l61 -6l69 -2q39 0 96 10l42 5h15l17 -1l18 -3q15 -9 9 -19l-14 -17l-87 -21q-22 -4 -42.5 -6t-43.5 -2h-45h-47l-30 4q-29 3 -58 12q-15 4 -27.5 9t-27.5 14q-75 36 -124 100q-11 15 -21 34.5t-20 43.5q-3 13 -5 26t-2 29v18l2 18q15 95 89 184
q54 68 137 124q72 50 158.5 80.5t178.5 45.5l28 3l33 1q79 0 155 -25q106 -33 161 -139q19 -38 19 -75l-3 -31q-11 -52 -41 -101zM328 421l22 -3q51 0 110 60q69 74 96 133l-22 2q-36 0 -65 -22l-78 -57q-19 -14 -62 -61q-18 -20 -20 -34q0 -12 19 -18z" />
    <glyph glyph-name="A" unicode="A" horiz-adv-x="783" 
d="M669 408l36 -6q18 0 22 -25l2 -13q0 -12 -9.5 -27.5t-29.5 -21.5l-7 1h-4q-13 0 -14 -14l1 -15l-3 -16v-236q-6 -21 -25 -24h-17q-14 0 -18 2q-33 18 -33 50l-1 31v20q-3 10 -4 14l-3 89l1 91h-71l-68 -3l-138 -12q-46 -57 -89 -136q-36 -73 -97 -126l-21 -4q-12 0 -20 8
q-5 7 -7 19l3 14q9 14 13 32l54 91l53 95l-33 5q-17 0 -23 24l-1 16l2 18q5 18 21 30q19 10 51 16l58 6l88 123l91 124q96 129 199 237l17 6q11 3 28 3q27 0 27 -24l-15 -117q-3 -29 -5 -58t-2 -56zM383 414l177 5l3 218l-95 -109q-22 -25 -42 -52t-43 -62z" />
    <glyph glyph-name="B" unicode="B" horiz-adv-x="979" 
d="M465 738q-34 -65 -66 -135t-68 -153q96 20 198 57q81 31 133 59.5t121 74.5q24 21 24 53q-3 13 -13 23l-22 17l-32 9l-31 7l-65 8q-24 0 -46.5 -1t-41.5 -4l-49 -7q-11 0 -23 -3t-19 -5zM293 355q-48 -120 -90 -243q58 6 119 18l119 27q35 11 64 22t58 25l57 28l61 34
q21 21 21 36l-3 9q-8 13 -42 35l-35 13l-38 9l-76 10l-46 -1q-22 0 -41 -4l-85 -10l-22 -5zM187 64l-6 -17l-5 -17q-6 -6 -17 -10q-7 -3 -14 6q-14 14 -20.5 32t-6.5 42l9 86q28 140 74 260l60 157l40 95q-27 3 -40 35q-7 15 -5 30q3 13 16 27l17 9l20 8l42 11q3 9 9 18
t17 21q20 20 42 28q18 -3 32 -20l23 -29h16h13l14 2l44 3h16h13h12h37l38 1l38 -1l79 -10q26 -9 49 -21q10 -5 18.5 -9.5t20.5 -13.5q32 -21 48 -80v-21q0 -12 -2 -24q0 -12 -9 -27q-12 -26 -56 -67l-80 -47l-64 -35l-40 -20l-38 -18l16 -3q11 0 16 -2l59 -13q27 -6 50 -16
q41 -15 62 -54q3 -7 5 -25q0 -33 -39 -77q-39 -33 -69 -54q-20 -14 -89 -53q-40 -19 -71.5 -33t-57 -24t-56.5 -19.5t-77 -22.5l-69 -11l-68 -10l-15 2l-14 3l-11 5l-10 6z" />
    <glyph glyph-name="C" unicode="C" horiz-adv-x="1001" 
d="M943 752l-18 -22q-9 -12 -24 -9q-43 37 -99 37h-13l-14 -2q-69 -12 -125 -40q-132 -69 -242.5 -187.5t-174.5 -254.5l-8 -22l-8 -25l-2 -20q0 -17 9 -35q24 -45 73 -49h48h17h13l14 2q31 0 58.5 3t57.5 11.5t55.5 17t58.5 23.5q106 44 211 81q7 3 19.5 -2.5t15.5 -19.5
q0 -46 -46 -70l-78 -32l-133 -44q-81 -25 -185 -46l-55 -8l-47 -6l-30 -1h-29h-16l-17 2q-38 0 -69.5 12t-54 35t-32.5 66l-2 25q0 36 14 78q33 108 105 213t170 192q79 73 165.5 125.5t184.5 80.5l44 8l46 3h32l20 -4q61 -11 93 -56q6 -11 6 -22l-1 -9z" />
    <glyph glyph-name="D" unicode="D" horiz-adv-x="1132" 
d="M462 726q-66 -136 -129 -282q-14 -33 -44.5 -109.5t-71.5 -187.5l60 16l60 19l126 39l72 29l71 33l65 32l64 38q74 47 109 82t63 82q14 26 22 52q3 13 5 25t2 27q0 21 -15.5 43.5t-46.5 42.5q-19 12 -47 22l-65 23h-21h-18h-16h-13h-11h-38l-36 1q-20 0 -30 -1t-35 -7
q-35 -6 -48 -9q-23 -7 -34 -10zM181 41l-4 -10l-2 -8q-6 -6 -17 -10q-9 -3 -15 6q-30 30 -30 74q0 46 13 85l49 160q22 79 49 151l36 105q19 56 40 103q-30 9 -34 49q15 51 57 69l32 8q9 18 24 33t39 21q27 0 48 -30l49 8l53 9q22 0 58 -1t49 -1q38 0 90 -10q47 -7 93.5 -22
t93.5 -37q60 -34 95 -103q8 -17 12 -32.5t4 -34.5q0 -35 -17 -69q-57 -132 -163 -220t-238 -151q-63 -32 -135 -61q-67 -25 -161 -51q-56 -11 -92 -22l-37 -6z" />
    <glyph glyph-name="E" unicode="E" horiz-adv-x="994" 
d="M439 710l-57 -98l-61 -111l58 5l62 5l120 7l128 6q27 0 35 -2q11 0 35 -8q25 -6 43 -33q5 -4 1 -13q-3 -6 -9 -9q-59 0 -100 -4q-19 0 -167 -22q-141 -17 -262 -43q-39 -79 -60 -142q-12 -38 -12 -62q0 -15 6 -29q12 -14 33 -19l40 -2l98 3h17h13q10 2 14 2l58 9l109 26
l110 28q19 12 57 20q29 5 29 -29l-1 -10q-6 -27 -14 -35l-28 -24l-101 -31l-102 -23l-117 -23l-117 -20h-15h-13l-79 3q-30 3 -45 8t-22 8.5t-25 15.5l-21 32l-10 38l3 45l12 45l35 77l36 83q-12 9 -28 25q-6 9 -8 22l2 12q6 14 19 22t35 15q14 0 23 4l47 107q27 61 52 105
l-3 2l-27 24q-9 11 -9 22l2 12q6 15 21 24t34 12l41 7l13 22l16 23q9 9 22 16l17 3l11 -1l32 -11q20 -6 24 -35l45 4l47 4l119 7l128 6q27 0 35 -2q11 0 36 -6.5t43 -34.5q3 -6 0 -13q-3 -6 -9 -9q-80 0 -163 -9q-45 -4 -83.5 -9t-87.5 -14z" />
    <glyph glyph-name="F" unicode="F" horiz-adv-x="940" 
d="M344 392q-70 -172 -140 -379q-6 -6 -17 -9q-9 -3 -14 5q-30 30 -30 74q0 41 12 86l34 110l32 103l-29 25q-9 11 -9 22l2 13q6 15 21 24t33 12l7 1l8 2l21 65q5 15 10.5 30.5t12.5 30.5l49 123l-14 6l-27 24q-9 11 -9 22l2 13q6 15 21 24t34 12l46 8q17 23 47 29
q21 0 39 -18l66 6l70 7l119 7l128 6q27 0 35 -2q11 0 36 -6.5t43 -34.5q6 -8 -9 -23q-81 0 -150 -7q-32 0 -56 -3q-3 0 -108 -19l-151 -27l-4 -11q-50 -98 -115 -243l57 5h20q4 0 14.5 1t25.5 4l120 7l128 6q27 0 35 -2q11 0 35 -8q25 -6 43 -33q5 -4 1 -13l-9 -10
q-86 0 -167 -8t-181 -25z" />
    <glyph glyph-name="G" unicode="G" horiz-adv-x="1001" 
d="M852 685q-10 -15 -36 -20q-26 0 -42 4q-40 6 -40 39l1 10q6 40 -39 50q-62 0 -116 -25t-102 -70.5t-88 -91.5q-19 -21 -38 -45t-37 -50q-43 -67 -72 -149q-12 -35 -12 -70q0 -45 21 -90q18 -19 41 -31q23 -10 48 -10h27h19l29 1h16l12 4q83 18 163.5 56.5t147.5 88.5
q-8 26 -56 26q-63 0 -111 -11l-70 -14l-21 -1q-23 0 -47 7q-15 3 -22 20l-3 17l1 13q15 33 42.5 46t69.5 22l64 6l63 6l63 -1h67q34 0 63 -10q16 -5 29 -11.5t29 -17.5q30 -23 30 -60l-1 -15q-18 -57 -75 -90l-52 -32l-48 -33q-109 -58 -241 -103q-80 -26 -158 -26l-52 3
l-55 8q-45 15 -80.5 53.5t-50.5 86.5q-4 22 -7 50t-3 52q0 135 78 260q105 165 265 277q13 8 27 15t43 20q37 14 76 22q18 4 33.5 6t31.5 2q21 0 39.5 -3t39.5 -11q47 -19 80 -69q12 -19 20 -54l2 -22q0 -17 -6 -35z" />
    <glyph glyph-name="H" unicode="H" horiz-adv-x="938" 
d="M909 790l-83 -173l-80 -187q18 -9 30 -28q9 -9 -9 -22q-16 0 -22 -2l-21 -1l-81 -205l-70 -191q-3 -6 -14 -9q-9 -2 -17 5q-29 32 -29 73t12 86l35 109l42 121q-169 -18 -347 -51q-61 -154 -108 -298q-6 -6 -17 -10q-7 -3 -14 6q-30 30 -30 74q0 41 12 85l20 66l19 62
l-11 6l-27 24q-9 11 -9 22l2 12q6 15 20.5 23.5t33.5 13.5l12 1l12 3l12 38l14 40l60 167q30 80 70 164q10 19 26.5 38t39.5 19q24 0 38 -20l13 -22l10 -20l2 -13l2 -14q0 -15 -9 -35q-85 -165 -150 -325l57 5l60 6l105 6l109 5l13 41l16 41l60 167q30 80 69 165
q10 20 26 36q15 18 38 21q14 0 22.5 -4t17.5 -17l13 -22l10 -20l2 -13l2 -14q0 -15 -9 -35z" />
    <glyph glyph-name="I" unicode="I" horiz-adv-x="511" 
d="M473 749q-90 -177 -165 -360l-47 -121l-46 -125l-43 -124q-6 -6 -17 -10q-7 -3 -14 6q-30 30 -30 73q0 44 13 86l48 160q22 79 49 151l60 166q15 40 32 81t38 84q10 20 26 36q15 18 38 21q14 0 22.5 -4t19 -18.5t21.5 -39.5l2 -13l2 -14q0 -15 -9 -35z" />
    <glyph glyph-name="J" unicode="J" horiz-adv-x="751" 
d="M582 350q-22 -43 -49.5 -86t-61.5 -87q-67 -86 -155 -135q-52 -29 -122 -41l-21 -1q-51 0 -97 37q-27 29 -44 68q-15 38 -15 86l15 43q9 19 35 32l22 3q13 0 29 -5q18 -3 27 -29q18 -131 74 -131q27 0 64.5 28.5t92.5 89.5q50 54 86 128q27 58 61 147q8 23 16 47.5t21 79
t29 148.5l4 43q0 24 9.5 40.5t27.5 23.5l33 15l11 2q12 0 24 -13q17 -18 18 -33l-1 -41q0 -23 -4 -42l-3 -36q-1 -15 -2 -19.5t-6 -23.5q-15 -82 -48 -173q-17 -50 -18 -52q-10 -21 -14 -30q-12 -31 -16.5 -40.5t-21.5 -42.5z" />
    <glyph glyph-name="K" unicode="K" horiz-adv-x="1080" 
d="M447 749l-46 -92l-42 -92l2 2q56 36 131 77l137 71l122 58l132 61q27 12 71 20l14 1q27 0 53 -17q6 -3 6 -13q-2 -12 -5 -15q-151 -75 -302 -160q-67 -37 -145 -87q-65 -40 -142 -93l-4 -2l104 -61l104 -65l113 -77l119 -81q14 -9 26 -20.5t27 -30.5q10 -11 15 -29
t5.5 -24t0.5 -13q0 -9 -7 -12l-17 -2q-292 193 -592 333q-21 9 -33 31l-78 -198l-70 -200q-6 -6 -17 -9q-7 -3 -14 6q-30 30 -30 73q0 44 13 86l48 160q22 79 49 151l60 166q15 40 32 81t38 84q10 20 26 36q15 18 38 21q14 0 22.5 -4t19 -18.5t21.5 -39.5l2 -13l2 -14
q0 -18 -9 -36z" />
    <glyph glyph-name="L" unicode="L" horiz-adv-x="781" 
d="M135 15l-28 -5q-12 -2 -22 4l-3 1l-6 7q-17 18 -21 32l-7 27l-2 35q3 34 13 65l49 160q22 79 49 151l60 167l32 80l37 84q9 20 26 38.5t40 18.5q24 0 39 -21l23 -41l3 -24q0 -18 -9 -38q-37 -74 -73 -151q-29 -63 -70 -158q-32 -78 -64 -160q-24 -62 -61 -164l117 15
l120 11l120 7l128 6q27 0 35 -2q10 0 34 -6.5t45 -34.5q3 -6 0 -13q-3 -6 -9 -9q-100 0 -197 -11t-201 -31q-77 -13 -197 -40z" />
    <glyph glyph-name="M" unicode="M" horiz-adv-x="1144" 
d="M1076 749q-93 -183 -159 -356l-83 -226l-51 -140q-3 -6 -15 -11q-12 0 -16 7q-31 31 -31 74q0 46 13 85l51 154l24 78l28 81q-55 -40 -128 -80q-66 -33 -121 -45l-44 -3q-105 0 -150 79q-51 93 -63 211q-70 -150 -136 -311q-49 -124 -116 -319l-16 -10q-9 -3 -15 6
q-30 30 -30 74q0 46 13 85l49 160q22 79 49 151l60 167l32 80l37 84q10 20 26 36q15 18 38 21h5h5l1 4l25 5l11 1l15 -2q19 -6 28 -12q5 -1 23 -21q9 -20 12 -38l10 -38l6 -79l3 -50q3 -30 4 -34q5 -17 6 -24q11 -58 33.5 -92t63.5 -34l10 1q88 12 162.5 79.5t126.5 148.5
q19 23 43 60l38 60l28 37q12 14 37 20q26 3 40 -20l13 -22l10 -20l2 -13l2 -14q0 -15 -9 -35z" />
    <glyph glyph-name="N" unicode="N" horiz-adv-x="1009" 
d="M359 628q-36 -79 -66 -148q-33 -76 -60 -145l-55 -148l-52 -151q-6 -6 -17 -10q-9 -3 -15 6q-30 30 -30 74t13 86l49 160q22 79 49 151l60 166q30 80 69 165q9 20 25 36t40 21q25 0 49 -37l22 -46q69 -156 84 -312t90 -309q13 -25 24 -25q6 0 17 12q98 159 126 309
l62 327q3 17 18 36t38 25q25 3 43.5 -18t15.5 -38l-15 -102q-13 -87 -55.5 -248.5t-120.5 -321.5l-40 -86q-21 -50 -74 -50q-36 3 -63 21.5t-51 56.5q-18 34 -33 79q-9 28 -19.5 66t-15.5 57l-39 145q-11 41 -18 65t-20 60q-18 57 -35 71z" />
    <glyph glyph-name="O" unicode="O" horiz-adv-x="1152" 
d="M754 805q111 -24 215.5 -103.5t128.5 -201.5q-12 -117 -109 -202t-183 -143q-130 -75 -277 -123q-98 -29 -192 -29q-54 0 -111 9q-49 15 -86.5 55t-52.5 94l-3 59q0 43 6 80t20 75q36 100 102 189t153.5 161t182.5 125q33 18 104 35l23 2q47 0 72 -46zM275 126
q21 -6 51 -6q47 0 122 15q119 24 236.5 75t207.5 124q19 16 35.5 35t26.5 37q20 37 20 78q0 24 -10.5 48t-31.5 49q-38 45 -89 76q-24 14 -50.5 26t-59.5 24q-16 5 -44 10l-53 4q-37 0 -117 -56q-75 -51 -148 -124q-47 -47 -98 -118q-41 -61 -64 -126q-12 -38 -12 -70
q0 -22 4 -38q12 -47 74 -63z" />
    <glyph glyph-name="P" unicode="P" horiz-adv-x="1055" 
d="M439 735q-66 -130 -139 -303l46 13l23 6l25 8l225 93q127 55 210 121q12 21 12 34q0 15 -21 21l-68 16q-30 3 -59.5 5t-60.5 2l-124 -3zM243 290q-42 -106 -94 -264q-6 -6 -17 -10q-9 -3 -15 6q-30 30 -30 73q0 44 13 86l49 160q22 79 49 151l39 112l42 109l-13 -1
q-43 0 -43 37q0 21 15 59l19 9l23 11l45 14l4 3l13 3q19 26 50 32q21 0 39 -19l101 4l101 4q71 -6 129 -18q19 -3 29 -5t31.5 -7.5t32.5 -8.5t34 -11q96 -47 96 -100l-4 -22q-23 -66 -122 -133q-122 -82 -275 -155q-138 -61 -288 -112z" />
    <glyph glyph-name="Q" unicode="Q" horiz-adv-x="1043" 
d="M926 791q33 -45 42 -104l3 -27l1 -29q0 -29 -6 -61q-21 -83 -67.5 -157.5t-109.5 -140.5l101 -119l98 -115l3 -15q0 -8 -5.5 -18t-22.5 -14q-51 0 -86 15t-65 55q-54 77 -119 124q-52 -37 -113 -73t-134.5 -71t-155.5 -35q-52 0 -113 16q-66 27 -101 92t-35 139
q18 182 132.5 339.5t271.5 260.5q56 33 85 33l16 -3q9 -4 19.5 -6t26.5 -2l45 3l40 4l20 1q45 0 93 -12q79 -18 136 -80zM814 532q20 47 39 100q6 18 6 36q0 34 -26 66q-77 43 -149 43q-63 0 -123 -33q-123 -67 -220 -162q-76 -76 -135 -179q-44 -79 -44 -167l3 -47
q3 -24 21 -36l37 -19l21 -2h21q84 0 154 40q42 24 85 54t81 62l-75 73q-15 22 -19 53q-3 27 19 50q16 16 36 16q19 0 36 -7q30 -15 56 -47t58 -51q36 27 65 73l25 42q13 23 28 42z" />
    <glyph glyph-name="R" unicode="R" horiz-adv-x="972" 
d="M433 722q-58 -115 -111 -235q57 20 87 31q36 14 90 37q96 41 159 80q91 55 104 89q6 15 -26 28t-113 27l-19 1h-18l-24 -1l-20 -1l-30 -1l-70 -9q0 -22 -9 -46zM258 335q-66 -162 -126 -342q-6 -6 -17 -9q-9 -3 -14 5q-30 29 -30 73q0 46 13 85l48 160q22 79 49 151
l51 143l57 139l-54 -8l-35 -2q-22 0 -39.5 10t-20.5 23l-2 21q0 12 6 30t25 27q147 56 308 56q87 0 161 -9t146 -30t101.5 -50t35.5 -59l1 -6v-5q0 -26 -19 -57q-9 -15 -22.5 -30.5t-33.5 -32.5q-30 -23 -76 -52l-91 -50q-114 -61 -246 -115l56 -47l59 -47l101 -91l107 -97
q27 -24 46 -58q13 -23 13 -46q0 -16 -2 -21q0 -5 -9 -10l-16 -1q-62 54 -116 97l-120 95q-120 93 -246 177l-23 -7z" />
    <glyph glyph-name="S" unicode="S" horiz-adv-x="990" 
d="M875 745q6 -52 -54 -80q-9 0 -29 -6q-14 -6 -20 12q-3 16 6 38l2 10q0 13 -25 26q-31 12 -88 20l-21 1l-15 1q-17 0 -27 -2q-16 0 -31 -5q-47 -11 -103.5 -34t-84.5 -68l-7 -20q0 -16 19 -34q30 -27 48 -39q43 -29 110 -41l124 -17q95 -12 157 -30.5t92 -100.5l4 -28
q0 -34 -26 -64q-36 -42 -69 -66l-103 -64q-27 -16 -51 -28.5t-54 -26.5q-143 -66 -329 -89l-22 -1h-23h-17q-31 3 -58 21q-14 11 -23 29q-6 17 -6 42q0 30 56 30l37 -2l53 -2q35 0 51 1.5t45.5 6.5t46 8.5t45 11t35.5 9.5q30 9 61 20q85 29 170 105q26 23 22 50
q-6 24 -34 28q-73 9 -173 30t-188 66q-56 28 -93.5 61.5t-55.5 88.5l-4 15l-1 15q0 19 7 34q12 30 38 56q85 80 195 109.5t231 46.5q33 0 42 -2q11 0 31 -9q35 -12 66 -36q32 -39 41 -97z" />
    <glyph glyph-name="T" unicode="T" horiz-adv-x="870" 
d="M645 755q-174 -347 -300 -730q-6 -6 -17 -10q-9 -3 -15 6q-30 30 -30 73q0 44 13 86l49 160q22 79 49 151l48 136q19 55 54 134l-114 -19l-113 -19l-16 -2q-20 0 -42 13l-15 13l-19 19q-9 12 -9 25q0 9 4.5 22t23.5 23t44 16l167 19l168 13l106 4l117 4q41 0 79 -11
t62 -46q6 -6 0 -16l-12 -12l-74 -3q-13 0 -29 -2t-34 -5l-136 -16q0 -9 -9 -26z" />
    <glyph glyph-name="U" unicode="U" horiz-adv-x="1079" 
d="M927 475l-56 -102q-26 -47 -64 -95q-43 -55 -106 -113q-54 -48 -123 -85q-65 -32 -133 -43q-15 0 -22 -2h-16q-49 0 -101 13.5t-92 54t-55 98.5l-10 77l-2 86q0 37 6.5 68t21.5 80q22 81 64.5 161.5t84.5 146.5q22 33 58 38q31 0 31 -59q0 -46 -32 -88q-28 -37 -47 -82
t-36 -96.5t-36 -118.5q-11 -47 -11 -84q0 -67 32 -131q17 -35 61 -42l47 -3h19l11 1q145 15 246 145t148 262l22 67l19 70q10 43 10 83v19l-2 19q-3 20 23 27l51 11l19 1q13 0 26 -4q15 -3 21 -21q9 -38 9 -77q0 -60 -24 -128q-40 -114 -62 -154z" />
    <glyph glyph-name="V" unicode="V" horiz-adv-x="900" 
d="M247 101q0 129 -10 243q0 43 -3.5 75.5t-24.5 179.5q-16 114 -40 248q2 10 8 15.5t16 2.5q36 -12 57 -48q18 -33 29 -78l31 -156l28 -148l12 -102l12 -99l98 132l40 55l61 89q65 83 126 154l131 149l46 39q33 27 66 42t59 12q16 -3 16 -29l-3 -25l-161 -191l-161 -195
q-154 -190 -290 -407q-19 -32 -64 -47l-44 -3q-15 0 -30 31q-5 12 -7 30z" />
    <glyph glyph-name="W" unicode="W" horiz-adv-x="1384" 
d="M640 102l-5 121l-7 131l-3 50l-6 58q0 42 -10 51q-3 3 -12 -7l-25 -34q-24 -36 -68 -113l-77 -142l-62 -127q-11 -27 -35 -48q-14 -14 -31 -14q-11 0 -20 4q-20 3 -35 21l-2 4q-26 24 -26 58q0 29 -2.5 82.5t-2.5 67.5q0 44 -8 126q-3 34 -10.5 105t-19.5 157.5
t-31 184.5l9 15q6 6 17 3q30 -9 54 -62t39 -114q8 -32 14 -61q2 -9 12 -66l14 -90l13 -92l13 -88q24 43 64 104l69 109q37 68 67 107l19 25l31 38l36 36q17 17 28 20l14 3q18 0 22 -25l6 -31q8 -46 15 -96.5t16 -128.5l11 -113l14 -113q44 59 102 157l112 182l52 63l36 47
l40 49l61 70l22 25l25 23q24 21 53 34q20 6 39 6h12l14 -2q10 -5 8 -18l-5 -19l-146 -172q-61 -71 -127 -166q-33 -47 -63 -96t-60 -107l-43 -82q-35 -68 -82 -146q-19 -30 -63 -47l-42 -3q-13 0 -29 31l-4 8l-2 10q-9 18 -9 37z" />
    <glyph glyph-name="X" unicode="X" horiz-adv-x="1015" 
d="M921 712l-87 -58l-91 -67q-80 -61 -193 -153q67 -104 133 -196l138 -196l3 -10l-3 -12q-5 -9 -18 -11l-18 -1q-37 0 -73 23q-11 8 -20.5 15.5t-18.5 16t-16.5 17t-16.5 21.5l-99 129l-91 121l-215 -184q-102 -90 -189 -159q-5 -3 -11 -3l-10 1q-12 3 -13 17l-3 28
q0 31 18 64q27 42 65 77l145 130l68 60l73 62l4 3l-52 74l-50 75l-48 76l-48 82q-2 4 -8 21t-9 27l-1 17q0 16 8 35q18 33 36 33l10 -3l48 -24q38 -15 54 -48l37 -70l41 -70l83 -134l188 175q99 93 168 141l19 10l29 10l22 3q14 0 29 -6q28 -12 28 -45v-22v-16l-2 -17
q-12 -37 -43 -59z" />
    <glyph glyph-name="Y" unicode="Y" horiz-adv-x="1031" 
d="M398 769l61 -110q37 -63 64 -105l79 77l71 75q61 70 154 140q22 14 61 33l23 8l21 3q13 0 21 -4q28 -14 28 -46l-3 -56q-6 -18 -23 -25l-37 -18l-75 -57q-37 -29 -63.5 -50.5t-60.5 -53.5q-48 -45 -84 -84l-36 -38l-44 -112q-21 -57 -36 -111q-26 -100 -69 -226
q-5 -5 -18 -8l-16 -2h-4q-8 0 -14 6q-30 30 -30 75q0 48 13 87l30 107l18 77q3 16 5 30.5t2 27.5q0 18 -1 26.5t-7 25.5q-12 43 -54 101q-26 38 -101 165l-49 65q-24 33 -18 44q6 12 32 22l45 16l7 1h5l10 -2l22 -14l21 -22l17 -20q21 -27 33 -48z" />
    <glyph glyph-name="Z" unicode="Z" horiz-adv-x="934" 
d="M186 131q29 0 84 2.5t71 2.5q76 0 132 3.5t115 8.5l133 -1q74 0 98 -10q46 -15 46 -50l-3 -17q-6 -24 -25 -36.5t-50 -12.5q-21 3 -119 3l-214 -3l-220 -6l-135 -6q-18 3 -44 18q-21 15 -27 33l-5 32q0 31 25 57l63 64q138 134 270 271q142 148 281 260l-134 16
q-69 9 -128 9l-288 20q-9 0 -15 13l-2 10q0 7 4 12q21 41 63 49q42 6 85 6l167 -2l89 -2l70 -2l71 -3l46 -1h26l20 -4q23 0 40 -4l36 -7q17 -2 38 -17q21 -12 31 -37l3 -20q0 -17 -12 -35l-13 -18l-19 -21q-159 -117 -331 -280l-111 -104l-108 -98q-32 -29 -63 -58
q-23 -21 -41 -35z" />
    <glyph glyph-name="bracketleft" unicode="[" horiz-adv-x="850" 
d="M792 1292q6 3 18.5 -9.5t15.5 -23.5l2 -18q0 -12 -4 -20q-3 -13 -22 -13l-177 -31l-508 -1330l12 -1l13 1l56 13l62 14l34 4l12 -1q15 6 49 -31q19 -22 19 -35q0 -6 -9 -11l-66 -9q-15 -3 -35.5 -7t-40.5 -10q-37 -9 -70 -15.5t-72 -12.5q-26 0 -35 -2h-32
q-15 3 -21 15.5t-3 23.5l98 261q12 33 24 67q19 52 29 77l128 360l116 343l119 357l143 21z" />
    <glyph glyph-name="backslash" unicode="\" horiz-adv-x="746" 
d="M701 -39q-135 228 -241 421q-98 183 -255 416q-92 133 -154 193t-59 76q5 15 51 15q44 0 55 -11l172 -229q82 -112 160 -236q22 -37 53 -91t60 -108l99 -197l73 -160l34 -86q0 -16 -24 -16q-21 0 -24 13z" />
    <glyph glyph-name="bracketright" unicode="]" horiz-adv-x="896" 
d="M48 -253q-9 -3 -20 8t-14 23l-2 21q0 10 4 22t23 9l177 31l507 1330q-7 1 -13 1q-8 0 -14 -1l-55 -13l-62 -14l-34 -4l-11 1q-15 -6 -49 31q-19 22 -19 35q0 6 9 11l65 9q15 3 35.5 7t40.5 10q72 18 144 28l34 1l32 1q15 -3 21 -15t4 -24l-54 -142l-51 -136l-48 -129
l-128 -360l-116 -343l-117 -355l-145 -21z" />
    <glyph glyph-name="asciicircum" unicode="^" horiz-adv-x="703" 
d="M621 617q16 -29 32 -90q3 -18 -15 -22l-13 -1l-21 3q-7 3 -26 25l-13 18l-10 18l-122 184q-10 15 -28 23q-15 5 -26 -11.5t-22.5 -32.5t-22.5 -29l-42 -46l-52 -52l-74 -75q-9 -9 -29 -16l-33 -9q-17 -3 -26.5 7.5t-3.5 20.5l81 106l47 58l48 54q45 48 63 105t57 87
q13 10 55 10q39 0 48 -20l86 -193z" />
    <glyph glyph-name="underscore" unicode="_" horiz-adv-x="932" 
d="M331 -93l-117 -24l-115 -13l-26 -2q-45 0 -78 24q-18 14 -26 46q0 29 52 38l104 1q58 0 135 9l149 16q35 3 92 3h37h77l93 -3q23 0 32 -1t68.5 -10t106.5 -34q18 -8 26 -27q3 -16 -8 -37q-4 -5 -15 -7l-32 -1l-50 5l-124 24q-74 11 -128 11q-46 0 -79.5 -1t-64.5 -2
q-24 0 -43.5 -3t-65.5 -12z" />
    <glyph glyph-name="grave" unicode="`" horiz-adv-x="555" 
d="M399 873q9 -9 37 -20q7 -3 8 -10q0 -9 -12 -24q-21 -27 -39 -27q-43 0 -63 24t-87 57l-46 21q-25 12 -22 20l30 39q15 18 38 25q20 3 47 -15l85 -73q13 -5 24 -17z" />
    <glyph glyph-name="a" unicode="a" horiz-adv-x="702" 
d="M508 318q-9 -12 -23 -16l-27 -4q-16 0 -29 16q-9 15 -26 22l-22 2q-31 0 -58 -20l-35 -28l-33 -27l-43 -46q-19 -21 -19 -35q0 -8 6.5 -14t17.5 -3l18 10q35 12 71 41l32 22l40 19l20 4q19 0 39 -17l47 -44q15 -17 32.5 -30t42.5 -26l41 -17l46 -15q12 -3 20 -27l2 -21
q0 -13 -2 -17q-6 -8 -14 -9l-15 -1h-10q-36 0 -63 14q-37 18 -77 43q-16 8 -46 35t-50 27l-12 1q-52 0 -107 -50t-114 -61q-21 -6 -40 -6q-24 0 -48 12q-13 9 -13 25v31q30 104 114 194q78 81 180 142q22 12 80 23l17 1q39 0 58.5 -26.5t19.5 -61.5q0 -32 -18 -62z" />
    <glyph glyph-name="b" unicode="b" horiz-adv-x="719" 
d="M247 105l18 -3q31 0 85 25q75 35 135 79t87 88q5 9 7 21q0 22 -45 31l-19 1q-70 0 -141 -56q-83 -65 -121 -122l-16 -36l-2 -8v-4q0 -10 12 -16zM517 755q-77 -93 -143 -203q-32 -54 -54.5 -107.5t-37.5 -115.5l55 31l72 43q34 20 86 32q23 4 53.5 7t59.5 3q36 -6 57 -39
q14 -22 14 -50l-1 -18q-12 -53 -61 -117t-130 -117q-55 -35 -118 -57l-58 -17l-60 -15l-53 -5h-15l-21 1q-37 0 -67 20q-19 13 -19 36q0 13 5 28q51 91 95 213q39 117 85 215l50 98q40 83 95 154q39 51 82 80l12 6l17 4q20 0 39 -25q6 -15 -10 -41l-16 -24z" />
    <glyph glyph-name="c" unicode="c" horiz-adv-x="599" 
d="M542 394q-97 -12 -176 -64.5t-146 -118.5l-16 -21l-15 -21q-9 -14 -9 -25q0 -9 7 -22q23 -21 52 -21l11 1l66 12l40 12l43 17q38 15 77 46l18 1l18 -1q8 -8 8 -29q-72 -68 -194 -105q-95 -29 -166 -29l-29 1l-28 4q-5 1 -14 4.5t-17 9.5q-18 9 -21 25l-3 33q0 39 27 72
l35 41l33 39q64 62 159 136q83 64 192 82l14 -2l29 -3q33 -3 33 -23q0 -6 -1 -10t-6.5 -18.5t-20.5 -22.5z" />
    <glyph glyph-name="d" unicode="d" horiz-adv-x="787" 
d="M507 364l6 23q3 8 -11 18l-24 2q-16 0 -34 -6l-54 -16q-85 -37 -152 -99l-46 -49q-19 -22 -33 -54q-1 -3 -7 -20.5t-6 -25.5q0 -11 2.5 -16.5t20.5 -5.5q14 0 39 5.5t57 23.5l59 34q60 38 106.5 81.5t76.5 104.5zM747 706l-34 -80l-31 -79q-27 -68 -55 -160
q-39 -128 -57 -272l-7 -29l-3 -29q0 -31 -31 -43q-21 -3 -35 8q-18 20 -18 66v16l2 19q0 37 3 58t11 48q-4 5 -7 5q-74 -74 -152 -131q-43 -31 -86 -48t-89 -17q-30 0 -51.5 10t-42.5 37q-17 28 -17 58q0 18 5 33q9 46 42 85q45 66 118 121q65 49 142 88l33 12l50 14l23 3
l14 1q24 0 50 -9l19 -12l11 -7q36 107 50.5 168.5t76.5 129.5q10 13 26 13q11 0 23 -6q8 -7 16 -30l1 -13v-17v-11z" />
    <glyph glyph-name="e" unicode="e" horiz-adv-x="602" 
d="M426 369l11 13l18 22q6 6 7 13q0 8 -29 8l-32 -11l-16 -6l-14 -6q-14 -8 -28.5 -18t-29.5 -23q-28 -23 -42 -53q-5 -11 4 -12h16q73 24 135 73zM466 294q-59 -48 -130 -77q-67 -26 -137 -26q-17 -14 -17 -33q0 -11 4 -20q8 -15 21.5 -23t34.5 -8h13h10q7 2 14.5 2.5
t13 1.5t18.5 6q36 9 67 21l26 11l32 12q22 3 30 -8l2 -11q0 -14 -17 -25q-110 -69 -228 -69h-19l-19 2q-30 3 -62 21q-30 15 -43 49l-8 23l-2 29q0 18 2 26q1 11 9 28q24 75 94 139t142 104l60 26l37 10l30 3q45 0 89 -19q30 -15 30 -51l-4 -29q-14 -38 -41 -64l-28 -28z
" />
    <glyph glyph-name="f" unicode="f" horiz-adv-x="606" 
d="M416 523l40 -1q19 0 28.5 -6.5t12.5 -14.5l-6 -19q-6 -12 -23 -15q-40 -9 -86 -15l-45 -6l-44 -6q-49 -104 -88 -213q-17 -51 -37.5 -106.5t-42.5 -110.5q-14 -19 -38 -29q-18 5 -40 22q-14 13 -14 40q24 93 69 195l44 98l43 92q-28 -3 -80 -19q-30 -9 -53 -9l-23 2
q-14 3 -31 21q-3 24 16 44l52 16l54 16l48 8l63 9l29 58l29 53l29 49l33 51q30 38 59 62q10 6 29 11l42 4q30 -3 56.5 -25.5t33.5 -55.5q3 -24 -18 -33l-10 -2q-11 0 -24 12t-33 18q-19 3 -36 -14q-34 -40 -61 -84l-25 -44l-27 -52h23h21z" />
    <glyph glyph-name="g" unicode="g" horiz-adv-x="573" 
d="M239 170l50 27q21 12 65 51q60 56 60 103l-2 18q-6 16 -25 20l-36 2q-69 -14 -121 -71l-47 -58l-17 -29l-12 -31l-3 -24q0 -26 25 -26q33 3 63 18zM377 -125q-38 -76 -102 -163q-59 -84 -151 -125q-39 -15 -101 -23l-13 -1h-10q-38 0 -77 14q-20 11 -20 32l2 16
q6 20 23 24l27 3l12 -1l12 -1h11q20 0 41 4t43 13q60 24 120 109q56 79 101 169l36 78l32 76l13 40l8 25l-33 -22l-32 -19q-62 -45 -146 -59l-21 -2q-26 0 -55 13q-39 15 -45 44l-4 45l3 30q18 79 76 138q53 59 122 103q41 27 89 40l26 6l28 2q9 0 20 -1t23 -4q12 0 21 6.5
t29 11.5q27 -8 42 -37l13 -29q3 -9 5 -26q-5 -57 -23.5 -129.5t-42.5 -142.5l-26 -74q-2 -7 -5.5 -17.5t-7.5 -18.5l-13 -34l-27 -62z" />
    <glyph glyph-name="h" unicode="h" horiz-adv-x="595" 
d="M382 729q-147 -223 -224 -482l-2 -12q0 -8 8 -7q9 0 29 12l35 22l20 16q41 25 76.5 56t89.5 31q36 0 68 -26q22 -22 47 -58q13 -28 19 -52t6 -48q0 -58 13 -103l-1 -38q0 -18 -17 -32q-3 -1 -10 -2t-11 0l-14 5l-5 3q-17 21 -27 61l-11 41l-4 17q0 8 -7 25q-11 40 -30 74
q-15 31 -43 35q-31 0 -58 -24l-49 -42l-39 -34l-36 -31l-38 -30l-39 -26q-31 -17 -53 -17l-16 2q-8 2 -14.5 14t-6.5 52q0 47 12 95.5t28 88.5l25 73l22 53q4 12 12.5 34.5t16.5 39.5q3 9 9 22t15 31l19 44l31 65q33 71 79 131q26 34 52 51q20 13 45 13l13 -1q30 -17 30 -38
q0 -15 -13 -31l-30 -40z" />
    <glyph glyph-name="i" unicode="i" horiz-adv-x="445" 
d="M345 456l-28 -36l-29 -41q-22 -32 -45.5 -80.5t-38.5 -108.5l-13 -55l-13 -54q-6 -24 -28 -34q-12 -3 -28 6q-20 17 -20 49l2 56q18 86 43.5 163t60.5 142q6 12 15.5 28.5t19.5 29.5q16 22 38 26q30 0 48 -21q10 -13 19 -37l1 -16q0 -12 -4 -17zM481 690q-9 -15 -39 -21
q-24 0 -40 17q-12 17 -17 44l-3 24q0 21 11 36q15 21 38 21q24 0 40 -16q13 -16 19 -37l2 -23q0 -26 -11 -45z" />
    <glyph glyph-name="j" unicode="j" horiz-adv-x="600" 
d="M379 534q13 19 38 29q15 3 38 -23l9 -27l1 -24l-33 -107q-9 -25 -19 -51.5t-22 -55.5q-17 -41 -29 -67q-6 -12 -21 -43q-27 -56 -58 -112l-34 -58l-29 -49q-26 -46 -81 -121q-19 -28 -57 -59q-15 -12 -34.5 -17.5t-42.5 -5.5q-26 3 -56 27q-23 21 -32 54q-6 24 18 33
l13 3q10 0 19 -12q13 -19 31 -19q21 0 59 42l28 36l19 24q33 46 67 105q31 55 64 126l51 123l44 112l11 34l12 35q10 35 26 68zM557 715q-12 -15 -39 -21q-26 0 -38 16t-18 38l-4 32q0 18 11 35q15 21 38 21q24 0 39 -16q4 -5 9.5 -15.5t10.5 -21.5l2 -23q0 -26 -11 -45z
" />
    <glyph glyph-name="k" unicode="k" horiz-adv-x="718" 
d="M409 726l-26 -43l-38 -56q-39 -57 -55 -104l2 -5h10l22 5q24 3 38 7t36 16l68 39q32 18 65 47.5t74 35.5q15 6 51 -12q12 -9 21 -27l2 -13q0 -5 -6 -13q-75 -53 -163 -97q-43 -21 -80 -36l-42 -17l-20 -6l-20 -8q-9 -2 -11 -3t-7 -5l-18 -13q-10 -7 -11 -17q0 -8 4 -13
q16 -28 41 -55q19 -22 63 -47l44 -23l51 -21l41 -13l38 -10q22 -6 22 -35q-2 -15 -14 -22l-21 -8l-27 -2h-22l-15 4q-82 9 -153 68l-71 57l-60 45q-10 6 -26 -24l-14 -36l-13 -38l-14 -43l-11 -42l-6 -25l-12 -31q-4 -8 -19 -14l-21 -10l-21 1q-9 0 -17 11q-2 2 -4 12l-1 17
l6 32q16 83 37.5 150t57.5 152q25 64 72 151l32 61l49 88q19 35 62 44q27 3 44 -14l7 -21z" />
    <glyph glyph-name="l" unicode="l" horiz-adv-x="394" 
d="M366 835l-132 -300q-33 -77 -52 -170t-19 -196q0 -30 12 -39q8 -9 24 -11l11 1q18 6 30 -15q0 -12 -1.5 -18.5t-9.5 -17.5q-26 -15 -62 -15q-33 0 -59 21q-15 10 -26 36l-5 22l-2 23l1 36l1 18q0 14 2 18q17 163 59 295q11 37 25 81.5t28 82t29.5 72.5t35.5 75l19 37
q10 16 41 23q31 3 44 -12q9 -17 9 -31z" />
    <glyph glyph-name="m" unicode="m" horiz-adv-x="930" 
d="M277 406l-12 -23l-16 -31q-16 -28 -16 -46q0 -7 1 -10q13 -9 25 -7q31 12 62 40l57 51q60 57 139 78q27 0 42 -5q11 -2 18.5 -5.5t18.5 -11.5q23 -17 23 -48q0 -18 2 -27.5t7.5 -17t15.5 -9.5q10 0 19 8l34 27q9 6 19 12q20 11 42 23q17 6 35 6h12l21 -4q27 -9 45 -55
q15 -47 15 -73t-2 -44t-9 -41q-10 -37 -34 -77l-18 -20q-8 -6 -16 -6q-9 0 -12 2q-13 3 -13 17q0 41 4 58l1 23v23v14l-5 38q-3 27 -21 33l-13 1q-19 0 -37 -12l-39 -31q-34 -31 -54 -71q-24 -40 -60 -61l-17 -4q-12 0 -23 11q-21 20 -21 51l3 25l7 45l7 46l3 25l-3 25
q-9 9 -20 9l-16 -4l-67 -48q-16 -13 -31.5 -26.5t-34.5 -32.5l-62 -61l-60 -59q-18 -18 -41 -33t-42 -19l-29 -3q-12 0 -24 6q-18 6 -18 41l1 20q0 9 1 20t4 22t7 22.5t10 24.5l15 39l10 26l36 87q21 52 55 87q15 15 34 15q12 0 23 -4q19 -10 19 -33q0 -24 -7 -38z" />
    <glyph glyph-name="n" unicode="n" horiz-adv-x="644" 
d="M264 343l13 -1q40 0 89 34q30 22 73 22q29 0 59 -9t60 -34q25 -22 34 -54l7 -51l10 -70v-38l1 -34l-1 -20q-3 -16 -28 -20q-25 -3 -41 15q-12 18 -17 43l-10 82q0 14 -7 35l-10 35q-12 38 -49 38q-17 0 -30 -5q-57 -18 -94 -39q-61 -37 -96 -83l-79 -100q-16 -19 -39 -19
l-22 3q-26 6 -26 28q0 8 5 22q39 93 69 174l28 82l28 90q3 21 40 28l24 -3q10 -3 17 -26q3 -12 -4 -38l-9 -28l-7 -25l-3 -14q0 -14 15 -20z" />
    <glyph glyph-name="o" unicode="o" horiz-adv-x="662" 
d="M501 262q28 31 28 63q0 33 -31 64q-31 11 -59 11q-24 0 -54 -9q-55 -18 -100 -53q-23 -18 -50 -48.5t-42 -65.5q-9 -18 -9 -33q0 -8 6 -25t66 -17q33 0 64.5 9t65.5 29l60 31q31 17 55 44zM525 467q24 -3 48 -18q24 -12 36 -36q10 -28 10 -52q0 -14 -3 -27t-11 -29
q-27 -48 -60 -90q-54 -50 -129 -91q-66 -34 -148 -49l-17 -3l-18 -1h-17l-18 4q-31 6 -64 21q-60 32 -60 83q0 19 10 45q37 84 77 133q46 53 126 101q72 39 151 60l22 3q14 0 25 -5q21 -9 33 -33z" />
    <glyph glyph-name="p" unicode="p" horiz-adv-x="641" 
d="M607 375q0 -20 -1 -28.5t-7 -23.5q-6 -22 -24 -42l-71 -70q-96 -81 -213 -126l-39 -10q-33 9 -42 33q3 15 17 25l26 18q65 23 128 66q31 22 55 48t44 62l8 33q0 17 -9 32q-38 35 -89 35t-96 -9l-5 -8q-30 -45 -63 -156l-31 -111l-28 -112l-26 -105l-22 -96
q-21 -87 -31 -97l-34 -26q-17 -14 -38 -18l-10 3l-7 4l-3 15l-2 21l2 21l13 55q32 150 75 309l44 151l51 154l-1 13l2 11l3 26q5 18 25 30l14 7l24 11l27 3l30 1h23l33 -4l54 -12l22 -4q10 0 32 -7l43 -17q21 -6 42 -21q22 -19 36 -37q15 -16 19 -47z" />
    <glyph glyph-name="q" unicode="q" horiz-adv-x="665" 
d="M235 170q27 6 45 16q20 9 46 28q45 32 81 63q46 40 72 83q18 30 18 57q0 14 -5 28q-9 15 -27 15l-15 1l-16 -2q-76 -31 -152 -96q-22 -19 -80 -88q-30 -38 -30 -67q0 -18 15 -38q5 -3 21 -5q16 0 27 5zM619 359l-12 -40l-12 -38l-12 -36l-17 -39q-47 -111 -70 -238
q-10 -60 -16 -128t-6 -133v-13v-15q0 -15 -11 -25q-9 -11 -21 -11q-7 0 -16 5q-36 24 -42 87l-2 28v24l1 40q0 21 4 40q9 78 22 128l11 48l8 29q12 48 36 117l16 53l-4 2q-37 -37 -65 -61t-66 -50q-72 -51 -154 -72q-17 -6 -33 -6l-22 2q-28 6 -49 20q-25 23 -25 62t13 68
q23 47 54 91.5t68 83.5q75 80 171 141q13 6 41 17.5t55 22.5q23 6 43 6q29 0 61 -12l32 -22q13 -10 22 -30l6 -25l2 -28l-1 -20z" />
    <glyph glyph-name="r" unicode="r" horiz-adv-x="618" 
d="M276 399q8 -3 66.5 27t82.5 36l39 9l34 10l36 4l40 -3q7 -3 13 -15l2 -22q-3 -18 -15 -26q-45 -15 -79.5 -21t-75.5 -30l-34 -21l-33 -20q-34 -19 -60 -50l-39 -46l-36 -46q-34 -45 -64 -96q-10 -13 -29 -17l-34 -3q-10 -2 -15 5l-8 14l-5 22l4 21l6 19l7 22l23 58l24 59
q9 26 18 57q14 46 19 66q9 23 12 50q0 23 21 46q9 9 39 15l11 1q18 0 28 -11q11 -20 11 -41l-3 -18l-4 -26z" />
    <glyph glyph-name="s" unicode="s" horiz-adv-x="626" 
d="M592 496q-15 -12 -35 -18.5t-41 -6.5l-18 1l-13 1l-18 -1l-33 -4l-71 -16q-33 -8 -52 -44q-3 -7 -5 -22q0 -14 8 -25q13 -17 37 -32l42 -23l43 -22q21 -12 30 -36l2 -22q0 -31 -28 -53l-68 -48q-56 -27 -116 -43t-118 -16l-16 3l-16 5q-15 3 -20 21q0 12 24 23
q61 6 117.5 22.5t97.5 61.5q6 7 7 17q0 15 -27 35l-57 34q-39 12 -55 56q-7 21 -7 37q0 23 10 43q21 49 68 78.5t100 44.5l67 14l78 11q21 0 46 -9t42 -37z" />
    <glyph glyph-name="t" unicode="t" horiz-adv-x="574" 
d="M497 757l-22 -32l-20 -26l-18 -26l-18 -26l-14 -22l-8 -15l3 -5l66 9l33 3l33 -3q12 -19 15 -29q-6 -17 -23 -26l-35 -10l-65 -15l-65 -15q-15 -9 -24 -27l-7 -12l-10 -15q-14 -19 -35.5 -67t-33.5 -90q-5 -19 -8 -39t-3 -38l1 -22q0 -42 37 -64l24 -2q37 0 67 20
q23 16 42.5 31t30.5 25.5t19 10.5q7 0 15 -7q6 -9 3 -22q-9 -30 -36 -51l-51 -39q-67 -49 -137 -49q-97 0 -122 100q0 15 -2 22v16q0 35 4 60.5t16 61.5q27 81 61 152q-7 4 -68 -11l-76 -18l-18 -2l-22 2q-14 3 -23 22l-2 15q0 12 2 19.5t13 20.5q27 29 125 45l78 12l46 8
l7 9l20 27l54 82q31 51 62 92q15 20 22 28q19 22 36.5 34.5t34.5 12.5q13 0 24 -4q12 -9 16 -17q3 -32 -13 -52q-11 -11 -31 -42z" />
    <glyph glyph-name="u" unicode="u" horiz-adv-x="673" 
d="M623 330l-3 -34v-36v-60l4 -133q0 -17 -17 -21l-15 -4l-12 3q-12 6 -22 16q-27 27 -27 74l-3 45l-1 38l1 46l1 21q0 13 4 29q-3 9 -9 9l-9 -3q-72 -60 -127 -115q-73 -73 -125 -114q-40 -34 -89 -34l-21 1l-24 6q-33 9 -55 40q-11 13 -17.5 28.5t-6.5 35.5q0 46 4.5 75
t19.5 66.5t29.5 67t31.5 56.5q23 32 56 32l16 -2q25 -9 34 -36q2 -13 -2 -22l-10 -19l-22 -35l-25 -46q-18 -36 -26 -88q0 -30 22 -40q12 -6 26 -6l20 3q39 24 70 64q30 36 66 72q53 53 86 82q42 39 90 75q15 5 31 5q27 0 50 -19q18 -18 18 -45l-1 -15l-7 -36z" />
    <glyph glyph-name="v" unicode="v" horiz-adv-x="709" 
d="M665 445l-40 -53l-37 -45l-40 -46l-44 -46q-25 -27 -52 -52.5t-60 -52.5q-60 -50 -127 -93q-18 -12 -45 -18l-12 -1q-20 0 -34 13q-39 36 -39 91v53v24l2 28v39l4 56l1 33q0 12 3 31.5l5 32.5q6 55 52 76q12 3 32 5l22 -3q12 -2 12 -32l-8 -74l-4 -30q0 -11 -6 -37
l-6 -52l-1 -61v-38l3 -22q3 -12 14 -9q32 6 99 73l57 58l38 40l58 67l26 32l29 37l33 37q19 19 46 19q24 -3 39 -18l3 -16q0 -9 -5 -18z" />
    <glyph glyph-name="w" unicode="w" horiz-adv-x="845" 
d="M785 253q-39 -51 -106 -115q-63 -54 -133 -71l-14 -1q-28 0 -54 26q-26 17 -35 56l-5 33l-9 35q-5 3 -23 -1l-66 -47l-66 -44q-63 -43 -139 -70l-12 -3l-14 -1q-14 0 -26.5 8.5t-21.5 51.5v39q0 22 5 38q9 42 18 63q48 110 139 195q14 14 39 14l22 -3q9 -1 16 -17l8 -26
q4 -22 -15 -37q-20 -13 -30 -26l-59 -74q-30 -42 -30 -68l3 -17q3 -9 14 -9q15 0 40 19l65 48q36 27 70 64l33 34l35 35q10 8 27 10l16 -2q35 -24 35 -67v-41v-19l2 -20l5 -18l6 -32q3 -18 28 -18q19 0 36 6.5t32.5 20t32.5 32t31 35.5q31 37 57 85q11 25 11 44q0 27 -18 54
q-3 4 -5 14q0 11 8 23q3 3 19.5 10t30.5 7q9 -2 25 -13q14 -13 18 -20q9 -29 9 -59l-3 -32l-4 -25q-15 -60 -48 -104z" />
    <glyph glyph-name="x" unicode="x" horiz-adv-x="589" 
d="M314 402l44 26l45 27q35 21 92 50q15 6 30 8q17 0 29 -21l3 -24v-11l-2 -12q-6 -22 -24 -34l-23 -13l-18 -9l-43 -22l-41 -27l-25 -18l14 -25l19 -37l23 -54l8 -27l9 -28l12 -69q0 -6 -8 -19t-19 -16l-17 -3q-20 0 -29 24l-16 44l-13 35l-12 36l-17 37l-12 25
q-12 27 -24 21l-63 -39q-13 -9 -28 -20t-27 -21l-53 -45l-67 -55l-20 -23q-6 -13 -18.5 -15.5t-14.5 -2.5q-7 0 -9 7l-1 22q0 32 19 66q27 44 65.5 82t80.5 71l37 30l31 26q-3 15 -51 48l-40 27l-23 17q-26 24 -26 50l1 9q0 13 16 23l29 9q15 0 24.5 -2t18.5 -8l39 -26
q28 -22 48 -46l21 -23z" />
    <glyph glyph-name="y" unicode="y" horiz-adv-x="677" 
d="M187 245q-6 -21 -6 -44q0 -20 15 -38q15 -12 32 -12q15 0 24 5l28 12l27 13q67 27 134 103q63 72 119 128q15 15 37 15q13 0 24 -4q18 -9 23 -39q0 -30 -16 -52l-30 -45q-60 -96 -108 -186q-39 -71 -92 -188l-30 -70l-30 -76l-30 -74l-31 -80q-11 -23 -29 -44t-49 -30
q-12 0 -26 14q-8 10 -8 26l1 13q21 128 90 260l62 126q36 71 57 122l5 23l-1 9q-4 0 -6 -1q-63 -48 -129 -69q-33 -10 -66 -10q-37 0 -66 20q-35 23 -35 75v23.5t2 26.5q0 10 3 26.5t8.5 39.5t14.5 51t22 59q19 48 39 79q15 20 48 20q32 0 45 -23l2 -13q0 -28 -29 -85
q-39 -74 -45 -106z" />
    <glyph glyph-name="z" unicode="z" horiz-adv-x="460" 
d="M375 403q-3 -15 -24 -44l-23 -27l-27 -28l-38 -38l-38 -37q-39 -36 -54 -57q0 -6 10 -7l13 1l28 7l35 10l35 12l36 12l30 10q13 3 18 7l24 3q14 0 24 -5q14 -9 14 -32q0 -19 -41 -40q-19 -9 -34 -15t-55 -20l-96 -27l-63 -15q-20 -5 -43 -5q-21 0 -37 22l-16 33l-4 18
q0 9 5 18q30 57 86 110q44 41 97 105l7 10l8 11q3 6 0 9q-2 2 -15 5h-46l-45 -3l-32 -2q-30 0 -63 12q-21 12 -21 35l2 20q3 15 21 21l37 2h16l35 -1h37h46h44q42 0 53 -8l19 -14l22 -23q13 -13 13 -45z" />
    <glyph glyph-name="braceleft" unicode="{" horiz-adv-x="657" 
d="M236 1020q0 35 9 63.5t28 51.5q32 39 76 54q38 11 73 11h19l28 -4q67 -9 109 -22q31 -9 41 -34q6 -22 -48 -41l-15 -4l-15 -1q-21 0 -44 11q-36 18 -72 24l-12 1q-42 0 -63.5 -47t-21.5 -86q0 -27 4 -57t13 -63l13 -60l9 -62l1 -22l1 -18q0 -25 -1 -36.5t-7 -36.5
q-12 -51 -64 -91l-43 -30q-19 -12 -32 -29q-4 -6 -7 -22v-26q0 -23 -4 -48.5t-13 -50.5q-17 -51 -49 -102q-52 -87 -52 -174l1 -25q0 -41 27 -88t73 -71q3 -2 5 -10l-4 -18q-6 -23 -18 -24q-23 0 -42 7.5t-40 27.5q-34 34 -61 73q-18 30 -27 60q-3 16 -5 32t-2 35q0 17 2 30
t8 31q11 31 31 61q32 49 53 133q15 69 22 117q0 39 -8 56q-6 18 -34 23t-28 51v14q0 9 14.5 15.5t30 9.5t26.5 3l12 -1q23 0 48 7q11 2 21.5 5.5t26.5 11.5q27 15 36 34q9 27 9 61q0 20 -4 46.5t-11.5 50.5t-11 44.5t-7.5 51.5z" />
    <glyph glyph-name="bar" unicode="|" horiz-adv-x="370" 
d="M145 1074h104l-28 -1115h-48z" />
    <glyph glyph-name="braceright" unicode="}" horiz-adv-x="614" 
d="M550 936q-35 -79 -112.5 -140.5t-111.5 -148.5l-3 -18l4 -21q8 -21 30 -30q31 -10 82 -16q43 0 73 -37q5 -10 4 -20l-7 -13q-19 -38 -79 -47q-27 0 -48.5 -18t-37.5 -54t-37 -113q-12 -45 -12 -86q0 -26 6 -55q0 -19 -1 -30t-5.5 -33.5t-7.5 -33t-13 -32.5
q-21 -60 -87 -99q-33 -19 -91 -38q-21 -6 -40 -6q-27 0 -47 13q-6 5 -6 18l2 23q1 13 14 14q48 0 91.5 34t73.5 63q21 41 30 93q4 23 7 52.5t3 57.5q0 65 7.5 111.5t29.5 94.5l12 23q3 7 5 23q-3 20 -15 42l-23 47q-17 37 -17 68q0 22 8 45t22 46.5t36 49.5q40 48 88 94.5
t81 98.5q8 14 12 32l4 38q0 35 -51 56l-42 10l-34 3q-39 0 -68 29q-14 15 -21 26t-7 21q0 8 5 13q13 13 35 13l18 -2l96 -20q57 -11 99 -36t63 -75q6 -17 6 -37q0 -22 -5 -43.5t-18 -49.5z" />
    <glyph glyph-name="asciitilde" unicode="~" horiz-adv-x="777" 
d="M745 569q31 -15 28 -44q-6 -27 -29.5 -54.5t-52.5 -47.5l-43 -30q-47 -27 -92 -27h-12q-8 0 -16 2q-49 9 -88 44l-80 65q-36 29 -83 47l-13 3l-19 2q-28 0 -62 -17q-74 -38 -106 -42q-33 -3 -33 13q0 10 9 24.5t34 39.5q46 42 110 63q33 9 67 9q33 0 65 -19
q60 -36 106 -79t100 -58q11 -3 16 -4t18 -1q20 0 38 12q23 19 44 48q16 24 39 47q11 11 26 11q9 0 29 -7z" />
    <glyph glyph-name="quotesinglbase" unicode="&#x201a;" 
 />
    <glyph glyph-name="florin" unicode="&#x192;" 
 />
    <glyph glyph-name="quotedblbase" unicode="&#x201e;" 
 />
    <glyph glyph-name="ellipsis" unicode="&#x2026;" 
 />
    <glyph glyph-name="dagger" unicode="&#x2020;" 
 />
    <glyph glyph-name="daggerdbl" unicode="&#x2021;" 
 />
    <glyph glyph-name="circumflex" unicode="&#x2c6;" 
 />
    <glyph glyph-name="perthousand" unicode="&#x2030;" 
 />
    <glyph glyph-name="Scaron" unicode="&#x160;" 
 />
    <glyph glyph-name="guilsinglleft" unicode="&#x2039;" 
 />
    <glyph glyph-name="OE" unicode="&#x152;" 
 />
    <glyph glyph-name="quoteleft" unicode="&#x2018;" horiz-adv-x="246" 
d="M158 742l6 -18l2 -20v-13q0 -7 -2 -21q0 -16 -11 -27q-19 -19 -41 -19q-26 0 -41 18q-11 17 -16 42v23q0 13 5 26l23 71l18 43q10 24 26 42q6 6 14 6l13 -3q15 -5 29 -24l5 -21q0 -15 -11 -32q-19 -30 -19 -73z" />
    <glyph glyph-name="quoteright" unicode="&#x2019;" horiz-adv-x="246" 
d="M97 784l-6 17l-2 21l-1 17q0 24 14 44q19 19 41 19q25 0 39 -18q12 -18 18 -42q0 -24 -6 -50l-22 -70l-20 -45q-9 -21 -25 -40q-7 -7 -15 -7t-12 2q-18 8 -28 26q-6 11 -6 22q0 12 11 29q20 31 20 75z" />
    <glyph glyph-name="quotedblleft" unicode="&#x201c;" horiz-adv-x="490" 
d="M385 815l6 -18l2 -20v-13q0 -7 -2 -21q0 -16 -11 -27q-19 -19 -41 -19q-27 0 -40 20q-12 15 -17 40v21q0 14 5 29l23 70l18 44q9 21 26 41q6 6 14 6q3 -1 7 -1.5t10 -3.5q12 -3 25 -22l5 -20q0 -15 -11 -33q-19 -30 -19 -73zM177 815l4 -19l3 -19l1 -17q0 -24 -14 -44
q-16 -19 -41 -19q-27 0 -40 20q-9 11 -17 40l1 27q0 12 5 23l22 70l18 44q7 16 27 41q6 6 13 6q3 -1 7 -1.5t10 -3.5q12 -3 25 -22l5 -20q0 -15 -11 -33q-18 -27 -18 -73z" />
    <glyph glyph-name="quotedblright" unicode="&#x201d;" horiz-adv-x="490" 
d="M115 857l-5 18l-3 20l-1 17q0 27 15 45t41 18q23 0 39 -19q11 -16 17 -41l-1 -27q0 -13 -4 -22l-23 -71l-19 -45q-9 -21 -25 -40q-6 -6 -14 -7l-14 3q-18 8 -27 25q-5 8 -7 22q0 15 11 30q20 28 20 74zM324 857l-6 17l-2 21l-1 17q0 24 14 44q16 19 41 19q24 0 40 -19
q11 -16 17 -41q0 -25 -6 -49l-22 -71l-20 -45q-9 -21 -25 -40q-6 -6 -14 -7l-13 3q-18 6 -28 25q-6 11 -6 22q0 13 11 30q20 28 20 74z" />
    <glyph glyph-name="bullet" unicode="&#x2022;" 
 />
    <glyph glyph-name="endash" unicode="&#x2013;" 
 />
    <glyph glyph-name="emdash" unicode="&#x2014;" 
 />
    <glyph glyph-name="tilde" unicode="&#x2dc;" 
 />
    <glyph glyph-name="trademark" unicode="&#x2122;" 
 />
    <glyph glyph-name="scaron" unicode="&#x161;" 
 />
    <glyph glyph-name="guilsinglright" unicode="&#x203a;" 
 />
    <glyph glyph-name="oe" unicode="&#x153;" 
 />
    <glyph glyph-name="Ydieresis" unicode="&#x178;" 
 />
    <glyph glyph-name="nonbreakingspace" unicode="&#xa0;" horiz-adv-x="500" 
 />
    <glyph glyph-name="exclamdown" unicode="&#xa1;" 
 />
    <glyph glyph-name="cent" unicode="&#xa2;" 
 />
    <glyph glyph-name="sterling" unicode="&#xa3;" 
 />
    <glyph glyph-name="currency" unicode="&#xa4;" 
 />
    <glyph glyph-name="yen" unicode="&#xa5;" 
 />
    <glyph glyph-name="brokenbar" unicode="&#xa6;" 
 />
    <glyph glyph-name="section" unicode="&#xa7;" 
 />
    <glyph glyph-name="dieresis" unicode="&#xa8;" 
 />
    <glyph glyph-name="copyright" unicode="&#xa9;" 
 />
    <glyph glyph-name="ordfeminine" unicode="&#xaa;" 
 />
    <glyph glyph-name="guillemotleft" unicode="&#xab;" 
 />
    <glyph glyph-name="logicalnot" unicode="&#xac;" 
 />
    <glyph glyph-name="minus" unicode="&#xad;" 
 />
    <glyph glyph-name="registered" unicode="&#xae;" 
 />
    <glyph glyph-name="macron" unicode="&#xaf;" 
 />
    <glyph glyph-name="degree" unicode="&#xb0;" 
 />
    <glyph glyph-name="plusminus" unicode="&#xb1;" 
 />
    <glyph glyph-name="twosuperior" unicode="&#xb2;" 
 />
    <glyph glyph-name="threesuperior" unicode="&#xb3;" 
 />
    <glyph glyph-name="acute" unicode="&#xb4;" 
 />
    <glyph glyph-name="mu" unicode="&#xb5;" 
 />
    <glyph glyph-name="paragraph" unicode="&#xb6;" 
 />
    <glyph glyph-name="periodcentered" unicode="&#xb7;" 
 />
    <glyph glyph-name="periodcentered" unicode="&#x2219;" 
 />
    <glyph glyph-name="cedilla" unicode="&#xb8;" 
 />
    <glyph glyph-name="onesuperior" unicode="&#xb9;" 
 />
    <glyph glyph-name="ordmasculine" unicode="&#xba;" 
 />
    <glyph glyph-name="guillemotright" unicode="&#xbb;" 
 />
    <glyph glyph-name="onequarter" unicode="&#xbc;" 
 />
    <glyph glyph-name="onehalf" unicode="&#xbd;" 
 />
    <glyph glyph-name="threequarters" unicode="&#xbe;" 
 />
    <glyph glyph-name="questiondown" unicode="&#xbf;" 
 />
    <glyph glyph-name="Agrave" unicode="&#xc0;" 
 />
    <glyph glyph-name="Aacute" unicode="&#xc1;" 
 />
    <glyph glyph-name="Acircumflex" unicode="&#xc2;" 
 />
    <glyph glyph-name="Atilde" unicode="&#xc3;" 
 />
    <glyph glyph-name="Adieresis" unicode="&#xc4;" 
 />
    <glyph glyph-name="Aring" unicode="&#xc5;" 
 />
    <glyph glyph-name="AE" unicode="&#xc6;" 
 />
    <glyph glyph-name="Ccedilla" unicode="&#xc7;" 
 />
    <glyph glyph-name="Egrave" unicode="&#xc8;" 
 />
    <glyph glyph-name="Eacute" unicode="&#xc9;" horiz-adv-x="962" 
d="M439 710l-57 -98l-61 -111l58 5l62 5l120 7l128 6q25 0 35 -1.5t35.5 -8t42.5 -33.5q6 -5 1 -13q-3 -6 -9 -9q-55 0 -100 -4q-17 -1 -167 -22q-137 -17 -262 -43q-39 -79 -60 -142q-12 -38 -12 -62q0 -17 6 -29q12 -16 33 -19l40 -2l98 3q23 0 44.5 2.5t57.5 8.5l109 26
l110 28q22 14 57 20q29 5 29 -29q-1 -6 -1 -10q-6 -27 -14 -35l-28 -24q-48 -17 -101 -31l-102 -23l-117 -23l-117 -20h-15h-13q-48 0 -79 3.5t-48 9t-44 22.5l-21 32l-10 38l3 45l12 45l35 77l36 83v1q-12 8 -28 24q-8 11 -8 22q0 4 2 12q6 15 20.5 23.5t33.5 13.5
q14 0 23 4l47 107q26 58 52 105l-3 2l-27 24q-9 11 -9 22q0 4 2 12q6 15 21.5 24t33.5 12l41 7l13 22l16 23q10 10 22 16q9 3 17 3q7 0 11 -1l32 -11q20 -6 24 -35l45 4l47 4l119 7l128 6q25 0 35 -1.5t36 -7.5t43 -34q4 -6 0 -13q-3 -6 -9 -9q-82 0 -162.5 -8.5
t-171.5 -23.5q-18 -3 -160 -30zM600 996l85 73q23 19 47 16q20 -5 36 -25l32 -40q4 -6 -23 -20l-45 -21q-65 -30 -86 -55q-10 -12 -25.5 -18.5t-38.5 -6.5q-17 0 -40 27q-11 14 -11 23q0 8 8 11q23 6 34.5 18t26.5 18z" />
    <glyph glyph-name="Ecircumflex" unicode="&#xca;" 
 />
    <glyph glyph-name="Edieresis" unicode="&#xcb;" 
 />
    <glyph glyph-name="Igrave" unicode="&#xcc;" 
 />
    <glyph glyph-name="Iacute" unicode="&#xcd;" 
 />
    <glyph glyph-name="Icircumflex" unicode="&#xce;" 
 />
    <glyph glyph-name="Idieresis" unicode="&#xcf;" 
 />
    <glyph glyph-name="Eth" unicode="&#xd0;" 
 />
    <glyph glyph-name="Ntilde" unicode="&#xd1;" horiz-adv-x="1103" 
d="M359 628q-69 -151 -126 -293q-25 -65 -55 -148q-23 -65 -52 -151q-6 -6 -17 -10q-9 -3 -15 6q-30 30 -30 74t13 86l49 160q22 77 49 151l60 166q30 80 69 165q10 20 26.5 37t38.5 20q26 0 49 -37l22 -46q69 -156 84 -312.5t90 -308.5q12 -25 24 -25q8 0 17 12
q98 159 126 291q14 68 21 105q35 174 41 204q3 18 18 37t38 24q26 3 44 -18t15 -38l-15 -66q-13 -83 -55 -245.5t-121 -324.5l-40 -86q-22 -50 -74 -50q-35 4 -63.5 23t-50.5 55q-18 34 -33 79.5t-35 122.5l-39 145q-18 67 -37.5 125t-35.5 71zM1019 1113q31 -15 26 -42
q-4 -24 -27 -51t-50 -48t-41 -28q-44 -27 -86 -27q-14 0 -28 3q-47 9 -84 41q-26 23 -37 32l-39 30q-36 29 -79 44q-15 6 -32 6q-23 0 -57 -16q-67 -35 -100 -38q-31 0 -31 14q0 10 10 25.5t30 34.5q44 41 104 60q13 4 29.5 6t33.5 2q33 0 63 -18q54 -33 101 -75
q43 -39 95 -55q20 -5 32 -5q21 0 36 12q24 19 43 46q5 7 17 21.5t20.5 23.5t22.5 9t28 -7z" />
    <glyph glyph-name="Ograve" unicode="&#xd2;" 
 />
    <glyph glyph-name="Oacute" unicode="&#xd3;" 
 />
    <glyph glyph-name="Ocircumflex" unicode="&#xd4;" 
 />
    <glyph glyph-name="Otilde" unicode="&#xd5;" 
 />
    <glyph glyph-name="Odieresis" unicode="&#xd6;" 
 />
    <glyph glyph-name="multiply" unicode="&#xd7;" 
 />
    <glyph glyph-name="Oslash" unicode="&#xd8;" 
 />
    <glyph glyph-name="Ugrave" unicode="&#xd9;" 
 />
    <glyph glyph-name="Uacute" unicode="&#xda;" 
 />
    <glyph glyph-name="Ucircumflex" unicode="&#xdb;" 
 />
    <glyph glyph-name="Udieresis" unicode="&#xdc;" 
 />
    <glyph glyph-name="Yacute" unicode="&#xdd;" 
 />
    <glyph glyph-name="Thorn" unicode="&#xde;" 
 />
    <glyph glyph-name="germandbls" unicode="&#xdf;" 
 />
    <glyph glyph-name="agrave" unicode="&#xe0;" 
 />
    <glyph glyph-name="aacute" unicode="&#xe1;" 
 />
    <glyph glyph-name="acircumflex" unicode="&#xe2;" 
 />
    <glyph glyph-name="atilde" unicode="&#xe3;" 
 />
    <glyph glyph-name="adieresis" unicode="&#xe4;" 
 />
    <glyph glyph-name="aring" unicode="&#xe5;" 
 />
    <glyph glyph-name="ae" unicode="&#xe6;" 
 />
    <glyph glyph-name="ccedilla" unicode="&#xe7;" 
 />
    <glyph glyph-name="egrave" unicode="&#xe8;" 
 />
    <glyph glyph-name="eacute" unicode="&#xe9;" horiz-adv-x="602" 
d="M426 369l11 13l18 22q7 7 7 13q0 8 -29 8l-32 -11l-16 -6l-14 -6q-30 -17 -57.5 -40.5t-42.5 -53.5q-5 -11 4 -12h16q73 24 135 73zM466 294q-62 -50 -129.5 -76.5t-137.5 -26.5q-17 -14 -17 -33q0 -11 4 -20q16 -31 56 -31q18 0 33.5 2t35.5 8q38 9 67 21l26 11l32 12
q22 3 30 -8q2 -4 2 -11q0 -14 -17 -25q-110 -69 -228 -69h-19q-13 2 -19 2q-32 3 -62 21q-30 16 -43 49q-6 12 -8 23.5t-2 28.5q0 15 2 26.5t9 27.5q24 75 95 140t141 103l60 26q24 8 37 10.5t30 2.5q45 0 89 -19q30 -15 30 -51q0 -7 -4 -29q-14 -38 -41 -64l-28 -28z
M325 676l85 73q22 19 47 16q20 -5 36 -25l32 -39q3 -3 -6 -10t-17 -11l-45 -21q-65 -30 -86 -55q-10 -12 -25.5 -18.5t-38.5 -6.5q-17 0 -40 27q-11 14 -11 23q0 8 8 11q23 7 34.5 18.5t26.5 17.5z" />
    <glyph glyph-name="ecircumflex" unicode="&#xea;" 
 />
    <glyph glyph-name="edieresis" unicode="&#xeb;" 
 />
    <glyph glyph-name="igrave" unicode="&#xec;" 
 />
    <glyph glyph-name="iacute" unicode="&#xed;" 
 />
    <glyph glyph-name="icircumflex" unicode="&#xee;" 
 />
    <glyph glyph-name="idieresis" unicode="&#xef;" 
 />
    <glyph glyph-name="eth" unicode="&#xf0;" 
 />
    <glyph glyph-name="ntilde" unicode="&#xf1;" horiz-adv-x="708" 
d="M264 343q4 -1 13 -1q41 0 89 34q29 22 73 22q30 0 59 -9t60 -34q26 -23 34 -54q2 -9 7.5 -50.5t9.5 -70.5v-38t1 -34q0 -14 -1 -20q-4 -17 -28 -20q-26 -4 -40.5 15.5t-17.5 42.5l-10 82q-1 14 -7 35.5t-10 34.5q-13 38 -49 38q-16 0 -30 -5q-59 -19 -94 -39
q-61 -37 -96 -83l-79 -100q-15 -19 -39 -19q-10 0 -22 3q-26 6 -26 28q0 7 5 22q39 93 69 174l28 82l28 90q4 21 40 28l24 -3q11 -4 17 -26q3 -12 -4 -38l-9 -28l-7 -25q-3 -8 -3 -14q0 -15 15 -20zM633 667q21 -11 21 -27q0 -18 -22 -41q-42 -45 -58 -55q-27 -17 -55 -17
q-13 0 -19 2q-56 12 -104 66q-29 34 -63 34q-21 0 -45 -12q-52 -28 -73 -28q-10 0 -12 9q-2 15 26 48t68 46q20 6 37 6q24 0 44 -12q36 -23 63.5 -48t62.5 -36q11 -4 21 -4q12 0 23 8q15 12 27 30l24 29q6 6 16 6q9 0 18 -4z" />
    <glyph glyph-name="ograve" unicode="&#xf2;" 
 />
    <glyph glyph-name="oacute" unicode="&#xf3;" 
 />
    <glyph glyph-name="ocircumflex" unicode="&#xf4;" 
 />
    <glyph glyph-name="otilde" unicode="&#xf5;" 
 />
    <glyph glyph-name="odieresis" unicode="&#xf6;" 
 />
    <glyph glyph-name="divide" unicode="&#xf7;" 
 />
    <glyph glyph-name="oslash" unicode="&#xf8;" 
 />
    <glyph glyph-name="ugrave" unicode="&#xf9;" 
 />
    <glyph glyph-name="uacute" unicode="&#xfa;" 
 />
    <glyph glyph-name="ucircumflex" unicode="&#xfb;" 
 />
    <glyph glyph-name="udieresis" unicode="&#xfc;" 
 />
    <glyph glyph-name="yacute" unicode="&#xfd;" 
 />
    <glyph glyph-name="thorn" unicode="&#xfe;" 
 />
    <glyph glyph-name="ydieresis" unicode="&#xff;" 
 />
    <glyph glyph-name="c274" 
 />
  </font>
</defs>
</svg>
