<?xml version="1.0" standalone="no"?>
<!DOCTYPE svg PUBLIC "-//W3C//DTD SVG 1.1//EN" "http://www.w3.org/Graphics/SVG/1.1/DTD/svg11.dtd" >
<svg>
<metadata>
Created by FontForge 20110222 at Wed Oct  1 21:04:49 2014
 By Orthosie Webhosting
(c)2003-09 Paul Barnes and Commercial Type.
</metadata>
<defs>
<font id="AustinFatItalic" horiz-adv-x="665" >
  <font-face 
    font-family="AustinFatItalic"
    font-weight="900"
    font-style="italic"
    font-stretch="normal"
    units-per-em="1000"
    panose-1="2 2 10 3 7 7 2 10 4 3"
    ascent="781"
    descent="-219"
    x-height="456"
    cap-height="657"
    bbox="-270 -312 1178 1076"
    underline-thickness="50"
    underline-position="-50"
    slope="-14"
    unicode-range="U+0020-FB06"
  />
<missing-glyph horiz-adv-x="1000" 
 />
    <glyph glyph-name="f_f" unicode="ff" horiz-adv-x="627" 
d="M827 594q0 -24 -17 -42.5t-47 -18.5t-47 14.5t-17 40.5q0 10 2.5 32.5t2.5 30.5q0 20 -17 20q-21 0 -29 -23q-6 -18 -53 -201h89l-5 -22h-88q-30 -117 -58 -203.5t-68.5 -172.5t-85.5 -140.5t-106.5 -88t-134.5 -33.5q-40 0 -72 20t-35 58q-86 -78 -193 -78
q-42 0 -74.5 22.5t-32.5 64.5q0 28 19 44t40 16q59 0 63 -49q1 -11 -3.5 -35t-3.5 -29q3 -17 20 -17q23 0 38 11t30 39q17 30 35 88t31.5 115t39 164t44.5 182l6 22h-61l4 22h62q19 61 51 107t63.5 70t70 38.5t64.5 18.5t53 4q101 0 133 -40q64 40 146 40q68 0 104.5 -27.5
t36.5 -63.5zM400 425h-99q-86 -334 -199 -491q57 -1 61 -49q1 -11 -3.5 -35t-3.5 -29q3 -17 20 -17q23 0 38 11t30 39q17 30 35 88t31.5 115t39 164t44.5 182zM448 546q-22 15 -22 42q0 10 4 32.5t4 30.5q0 11 -5.5 15.5t-25.5 4.5q-33 0 -53 -51q-7 -18 -11 -33.5
t-13.5 -56.5t-20.5 -83h100q17 55 43 99z" />
    <glyph glyph-name="f_i" unicode="fi" horiz-adv-x="619" 
d="M601 129q-36 -62 -93 -100t-130 -38q-31 0 -52.5 19.5t-21.5 53.5q0 32 53 204q10 33 22.5 72t18.5 59q8 26 -18 26h-78q-21 -82 -40.5 -147t-45.5 -133.5t-52.5 -120t-60.5 -98t-71.5 -76t-84 -47t-99.5 -17.5q-42 0 -74.5 22.5t-32.5 64.5q0 28 19 44t40 16
q59 0 63 -49q1 -11 -3.5 -35t-3.5 -29q3 -17 20 -17q23 0 38 11t30 39q17 30 35 88.5t32 115t39.5 165t44.5 181.5l6 22h-61l4 22h62q19 61 52 107t66 70t72.5 38.5t66.5 18.5t54 4q86 0 128.5 -24.5t42.5 -66.5q0 -24 -18 -42.5t-48 -18.5t-47.5 16.5t-17.5 42.5
q0 10 4 30.5t4 28.5q0 9 -17.5 14.5t-29.5 5.5q-26 0 -42 -14t-29 -48q-5 -14 -8.5 -27t-6 -25t-10 -42.5t-16.5 -67.5h283q-45 -158 -58 -196q-49 -149 -49 -177q0 -19 15 -19q16 0 45 22.5t50 56.5z" />
    <glyph glyph-name="f_l" unicode="fl" horiz-adv-x="601" 
d="M661 681q0 -3 -10 -35q-3 -8 -10.5 -31t-15 -45.5t-12.5 -41.5q-8 -29 -92 -304q-38 -127 -38 -150q0 -19 15 -19q16 0 45.5 22.5t50.5 56.5l9 -5q-35 -59 -96 -98.5t-125 -39.5q-37 0 -58 19t-21 54q0 22 42 164l57 197h-102q-25 -96 -48 -170.5t-53.5 -151t-65 -130.5
t-77 -98t-95 -66t-113.5 -22q-42 0 -74.5 22.5t-32.5 64.5q0 28 19 44t40 16q59 0 63 -49q1 -11 -3.5 -35t-3.5 -29q3 -17 20 -17q23 0 38 11t30 39q17 30 34.5 88t31.5 115.5t39 163.5t44 182l6 22h-61l6 22h62q19 61 51 106.5t65 69.5t72.5 39t66.5 19t54 4h242q4 0 4 -4z
M451 644q0 27 -33 27q-26 0 -42 -14t-29 -48q-5 -14 -8.5 -27t-6 -25t-10 -42.5t-16.5 -67.5h102l37 125q-2 14 -2 31q0 4 8 41z" />
    <glyph glyph-name="f_f_i" unicode="ffi" horiz-adv-x="915" 
d="M897 129q-36 -62 -93 -100t-130 -38q-31 0 -52.5 19.5t-21.5 53.5q0 32 53 204l39 131q8 26 -18 26h-75q-21 -82 -40.5 -147t-45 -133.5t-51.5 -119.5t-60 -97.5t-71.5 -76t-83.5 -47t-99 -17.5q-40 0 -72 20t-35 58q-86 -78 -193 -78q-42 0 -74.5 22.5t-32.5 64.5
q0 28 19 44t40 16q59 0 63 -49q1 -11 -3.5 -35t-3.5 -29q3 -17 20 -17q23 0 38 11t30 39q21 38 40.5 107.5t53 214.5t54.5 227l6 22h-61l6 22h62q19 61 51 107t63.5 70t70 38.5t64.5 18.5t53 4q101 0 133 -40q64 40 173 40q86 0 128.5 -24.5t42.5 -66.5q0 -24 -18 -42.5
t-48 -18.5t-47.5 16.5t-17.5 42.5q0 10 4 30.5t4 28.5q0 9 -17.5 14.5t-29.5 5.5q-26 0 -42 -14t-29 -48q-5 -14 -8.5 -27t-6 -25t-10 -42.5t-16.5 -67.5h283q-45 -158 -58 -196q-49 -149 -49 -177q0 -19 15 -19q16 0 45 22.5t50 56.5zM398 425h-99q-43 -167 -88.5 -285.5
t-108.5 -205.5q57 -1 61 -49q1 -11 -3.5 -35t-3.5 -29q3 -17 20 -17q23 0 38 11t30 39q21 38 40.5 107.5t53 214.5t54.5 227zM448 546q-22 15 -22 42q0 10 4 32.5t4 30.5q0 11 -5.5 15.5t-25.5 4.5q-33 0 -53 -51q-7 -18 -11 -33.5t-13.5 -56.5t-20.5 -83h100q17 55 43 99z
" />
    <glyph glyph-name="f_f_l" unicode="ffl" horiz-adv-x="897" 
d="M957 681q0 -3 -10 -35q-3 -8 -10.5 -31t-15 -45.5t-12.5 -41.5q-8 -29 -92 -304q-38 -127 -38 -150q0 -19 15 -19q16 0 45.5 22.5t50.5 56.5l9 -5q-35 -59 -96 -98.5t-125 -39.5q-37 0 -58 19t-21 54q0 22 42 164l58 197h-102q-25 -97 -48 -170.5t-53 -150.5t-64 -131
t-76 -98t-94.5 -66t-113.5 -22q-40 0 -72 20t-35 58q-86 -78 -193 -78q-42 0 -74.5 22.5t-32.5 64.5q0 28 19 44t40 16q59 0 63 -49q1 -11 -3.5 -35t-3.5 -29q3 -17 20 -17q23 0 38 11t30 39q21 38 40.5 108.5t51.5 212t54 228.5l6 22h-61l5 22h62q19 61 51 107t63.5 70
t70 38.5t64.5 18.5t53 4q108 0 137 -46q75 46 170 46h242q4 0 4 -4zM396 425h-99q-43 -170 -88 -287.5t-107 -203.5q57 -1 61 -49q1 -11 -3.5 -35t-3.5 -29q3 -17 20 -17q23 0 38 11t30 39q21 38 40.5 108.5t51.5 212t54 228.5zM747 644q0 27 -33 27q-26 0 -42 -14t-29 -48
q-5 -14 -8.5 -27t-6 -25t-10 -42.5t-16.5 -67.5h102l37 125q-2 14 -2 31q0 4 8 41zM446 545q-23 15 -23 43q0 10 4 32.5t4 30.5q0 11 -5.5 15.5t-25.5 4.5q-33 0 -53 -51q-7 -18 -11 -33.5t-13.5 -56.5t-20.5 -83h100q18 56 44 98z" />
    <glyph glyph-name="f_b" unicode="fb" horiz-adv-x="847" 
d="M365 292l44 133h-110q-21 -82 -40.5 -147t-45 -133.5t-51.5 -119.5t-60 -97.5t-71.5 -76t-83.5 -47t-99 -17.5q-42 0 -74.5 22.5t-32.5 64.5q0 28 19 44t40 16q59 0 63 -49q1 -11 -3.5 -35t-3.5 -29q3 -17 20 -17q23 0 38 11t30 39q21 38 40.5 107.5t53 214.5t54.5 227
l6 22h-61l6 22h62q19 61 52 107t66.5 70t73.5 38.5t67.5 18.5t54.5 4h242q4 0 4 -4q0 -3 -10 -35q-3 -8 -10.5 -31t-15 -45.5t-12.5 -41.5l-49 -151h6q23 38 57.5 58.5t68.5 20.5q58 0 97.5 -37.5t39.5 -106.5q0 -52 -29 -125t-69 -109q-53 -48 -102 -67.5t-131 -19.5
q-49 0 -84 14.5t-52.5 39.5t-25 50t-7.5 53q0 61 28 144zM674 399q0 10 -6.5 19t-15.5 9q-22 0 -49 -32t-44 -70q-24 -50 -50.5 -146t-26.5 -140q0 -35 23 -35q21 0 37.5 18.5t38.5 68.5q93 218 93 308zM347 609q-3 -8 -42 -162h112l41 124q-11 11 -11 32q0 4 8 41
q0 11 -9.5 19t-27.5 8q-26 0 -42 -14t-29 -48z" />
    <glyph glyph-name="f_f_b" unicode="ffb" horiz-adv-x="1149" 
d="M-137 -115q1 -11 -3.5 -35t-3.5 -29q3 -17 20 -17q23 0 38 11t30 39q17 30 35 88t31.5 115t39 164t44.5 182l6 22h-61l4 22h62q19 61 51 107t63.5 70t70 38.5t64.5 18.5t53 4q101 0 133 -40q64 40 181 40h242q4 0 4 -4q0 -3 -10 -35q-3 -8 -10.5 -31t-15 -45.5
t-12.5 -41.5l-49 -151h6q23 38 57.5 58.5t68.5 20.5q58 0 97.5 -37.5t39.5 -106.5q0 -52 -29 -125t-69 -109q-53 -48 -102 -67.5t-131 -19.5q-49 0 -84 14.5t-52.5 39.5t-25 50t-7.5 53q0 61 28 144l44 133h-110q-30 -117 -58 -203.5t-68.5 -172.5t-85.5 -140.5t-106.5 -88
t-134.5 -33.5q-40 0 -72 20t-35 58q-86 -78 -193 -78q-42 0 -74.5 22.5t-32.5 64.5q0 28 19 44t40 16q59 0 63 -49zM400 425h-99q-86 -334 -199 -491q57 -1 61 -49q1 -11 -3.5 -35t-3.5 -29q3 -17 20 -17q23 0 38 11t30 39q17 30 35 88t31.5 115t39 164t44.5 182zM976 399
q0 10 -6.5 19t-15.5 9q-22 0 -49 -32t-44 -70q-24 -50 -50.5 -146t-26.5 -140q0 -35 23 -35q21 0 37.5 18.5t38.5 68.5q93 218 93 308zM649 609q-3 -8 -42 -162h112l41 124q-11 11 -11 32q0 4 8 41q0 11 -9.5 19t-27.5 8q-26 0 -42 -14t-29 -48zM448 546q-22 15 -22 42
q0 10 4 32.5t4 30.5q0 11 -5.5 15.5t-25.5 4.5q-33 0 -53 -51q-7 -18 -11 -33.5t-13.5 -56.5t-20.5 -83h100q17 55 43 99z" />
    <glyph glyph-name="f_f_h" unicode="ffh" horiz-adv-x="1186" 
d="M926 552l-91 -293h7q49 104 100 150.5t97 46.5q55 0 79 -24.5t24 -71.5q0 -12 -2 -24t-3.5 -20.5t-7.5 -24.5t-8.5 -23.5t-12 -30t-13.5 -32.5q-41 -100 -41 -131q0 -19 12 -19q16 0 45.5 22.5t50.5 56.5l9 -5q-34 -59 -97 -98.5t-128 -39.5q-31 0 -52.5 19.5t-21.5 53.5
q0 43 52 167q49 115 49 138q0 22 -19 22q-47 0 -150 -256q-26 -65 -49 -135h-180l137 425h-111q-30 -117 -58 -203.5t-68.5 -172.5t-85.5 -140.5t-106.5 -88t-134.5 -33.5q-40 0 -72 20t-35 58q-86 -78 -193 -78q-42 0 -74.5 22.5t-32.5 64.5q0 28 19 44t40 16q59 0 63 -49
q1 -11 -3.5 -35t-3.5 -29q3 -17 20 -17q23 0 38 11t30 39q17 30 35 88t31.5 115t39 164t44.5 182l6 22h-61l4 22h62q19 61 51 107t63.5 70t70 38.5t64.5 18.5t53 4q101 0 133 -40q64 40 181 40h242q4 0 4 -4q0 -3 -10 -35q-1 -4 -12.5 -36.5t-18.5 -57.5zM400 425h-99
q-86 -334 -199 -491q57 -1 61 -49q1 -11 -3.5 -35t-3.5 -29q3 -17 20 -17q23 0 38 11t30 39q17 30 35 88t31.5 115t39 164t44.5 182zM649 609q-3 -8 -42 -162h112l41 124q-11 11 -11 32q0 4 8 41q0 11 -9.5 19t-27.5 8q-26 0 -42 -14t-29 -48zM448 546q-22 15 -22 42
q0 10 4 32.5t4 30.5q0 11 -5.5 15.5t-25.5 4.5q-33 0 -53 -51q-7 -18 -11 -33.5t-13.5 -56.5t-20.5 -83h100q17 55 43 99z" />
    <glyph glyph-name="f_f_j" unicode="ffj" horiz-adv-x="884" 
d="M721 685q86 0 130 -24.5t44 -66.5q0 -24 -18 -42.5t-48 -18.5t-47.5 16.5t-17.5 42.5q0 10 4 30.5t4 28.5q0 20 -41 20q-64 0 -87 -62q-5 -14 -8.5 -27t-6 -25t-10 -42.5t-16.5 -67.5h283q-17 -70 -95 -311q-34 -106 -69 -161.5t-86 -104.5q-87 -83 -191 -83
q-39 0 -73.5 15t-51.5 42q-78 -57 -172 -57q-40 0 -72 20t-35 58q-86 -78 -193 -78q-42 0 -74.5 22.5t-32.5 64.5q0 28 19 44t40 16q59 0 63 -49q1 -11 -3.5 -35t-3.5 -29q3 -17 20 -17q23 0 38 11t30 39q21 38 40.5 107.5t53 214.5t54.5 227l6 22h-61l6 22h62q19 61 51 107
t63.5 70t70 38.5t64.5 18.5t53 4q101 0 133 -40q64 40 181 40zM398 425h-99q-43 -167 -88.5 -285.5t-108.5 -205.5q57 -1 61 -49q1 -11 -3.5 -35t-3.5 -29q3 -17 20 -17q23 0 38 11t30 39q21 38 40.5 107.5t53 214.5t54.5 227zM599 425q-84 -320 -171 -458q38 -22 38 -67
q0 -31 -21 -59q-2 -3 -7 -8t-7.5 -8.5t-2.5 -6.5q0 -15 19 -15q33 0 60 43q13 21 35.5 79.5t50.5 140t31 90.5q79 216 79 243q8 26 -18 26h-86zM448 546q-22 15 -22 42q0 10 4 32.5t4 30.5q0 11 -5.5 15.5t-25.5 4.5q-33 0 -53 -51q-7 -18 -11 -33.5t-13.5 -56.5t-20.5 -83
h100q17 55 43 99z" />
    <glyph glyph-name="f_f_k" unicode="ffk" horiz-adv-x="1165" 
d="M713 685h247q4 0 4 -4q0 -3 -10 -35q-5 -16 -16.5 -48t-14.5 -40l-91 -288h37q71 0 111 81q28 55 51 80q25 25 63 25q39 0 61.5 -22.5t22.5 -58.5q0 -38 -21 -60t-51 -22q-29 0 -48.5 16.5t-19.5 47.5q0 17 9 34q3 5 7 11.5t6.5 10.5t2.5 5q0 7 -7 7q-6 0 -11 -3
t-11.5 -11.5t-10.5 -15t-13.5 -24t-15.5 -27.5q-39 -66 -80 -79v-4q61 -5 97.5 -35t38.5 -84q2 -57 4 -68q3 -21 18 -21t42 23.5t49 58.5l9 -6q-35 -61 -92 -99.5t-121 -38.5q-32 0 -58 19.5t-26 53.5q0 38 15.5 90t15.5 63q0 12 -1.5 19t-11 14t-28.5 7h-37l-81 -257h-180
l142 425h-110q-21 -82 -40.5 -147t-45 -133.5t-51.5 -119.5t-60 -97.5t-71.5 -76t-83.5 -47t-99 -17.5q-40 0 -72 20t-35 58q-86 -78 -193 -78q-42 0 -74.5 22.5t-32.5 64.5q0 28 19 44t40 16q59 0 63 -49q1 -11 -3.5 -35t-3.5 -29q3 -17 20 -17q23 0 38 11t30 39
q21 38 40.5 107.5t53 214.5t54.5 227l6 22h-61l6 22h62q19 61 51 107t63.5 70t70 38.5t64.5 18.5t53 4q101 0 133 -40q64 40 173 40zM398 425h-99q-43 -167 -88.5 -285.5t-108.5 -205.5q57 -1 61 -49q1 -11 -3.5 -35t-3.5 -29q3 -17 20 -17q23 0 38 11t30 39
q21 38 40.5 107.5t53 214.5t54.5 227zM647 609q-3 -8 -42 -162h111l42 124q-11 11 -11 32q0 4 8 41q0 11 -9.5 19t-27.5 8q-26 0 -42 -14t-29 -48zM448 546q-22 15 -22 42q0 10 4 32.5t4 30.5q0 11 -5.5 15.5t-25.5 4.5q-33 0 -53 -51q-7 -18 -11 -33.5t-13.5 -56.5
t-20.5 -83h100q17 55 43 99z" />
    <glyph glyph-name="f_h" unicode="fh" horiz-adv-x="878" 
d="M623 558l-96 -299h7q49 104 100 150.5t97 46.5q55 0 79 -24.5t24 -71.5q0 -12 -2 -24t-3.5 -20.5t-7.5 -24.5t-8.5 -23.5t-12 -30t-13.5 -32.5q-41 -100 -41 -131q0 -19 12 -19q16 0 45.5 22.5t50.5 56.5l9 -5q-34 -59 -97 -98.5t-128 -39.5q-31 0 -52.5 19.5t-21.5 53.5
q0 43 52 167q49 115 49 138q0 22 -19 22q-47 0 -150 -256q-26 -64 -49 -135h-180l142 425h-110q-21 -82 -40.5 -147t-45 -133.5t-51.5 -119.5t-60 -97.5t-71.5 -76t-83.5 -47t-99 -17.5q-42 0 -74.5 22.5t-32.5 64.5q0 28 19 44t40 16q59 0 63 -49q1 -11 -3.5 -35t-3.5 -29
q3 -17 20 -17q23 0 38 11t30 39q21 38 40.5 107.5t53 214.5t54.5 227l6 22h-61l6 22h62q19 61 52 107t66.5 70t73.5 38.5t67.5 18.5t54.5 4h242q4 0 4 -4q0 -3 -10 -35q-3 -10 -14 -36.5t-18 -51.5zM347 609q-3 -8 -42 -162h111l42 124q-11 11 -11 32q0 4 8 41q0 11 -9.5 19
t-27.5 8q-26 0 -42 -14t-29 -48z" />
    <glyph glyph-name="f_j" unicode="fj" horiz-adv-x="630" 
d="M306 447h283q-17 -70 -95 -311q-34 -106 -69 -161.5t-86 -104.5q-87 -83 -191 -83q-88 0 -125 58q-78 -59 -175 -59q-42 0 -74.5 22.5t-32.5 64.5q0 28 19 44t40 16q59 0 63 -49q1 -11 -3.5 -35t-3.5 -29q3 -17 20 -17q23 0 38 11t30 39q17 30 35 88.5t32 115t39.5 165
t44.5 181.5l6 22h-61l4 22h62q19 61 53 107t68.5 70t75.5 38.5t69 18.5t55 4q86 0 128.5 -24.5t42.5 -66.5q0 -24 -18 -42.5t-48 -18.5t-47.5 16.5t-17.5 42.5q0 10 4 30.5t4 28.5q0 20 -41 20q-64 0 -87 -62q-5 -14 -8.5 -27t-6 -25t-10 -42.5t-16.5 -67.5zM302 425
q-82 -316 -172 -458q39 -22 39 -67q0 -31 -21 -59q-2 -3 -7 -8t-7.5 -8.5t-2.5 -6.5q0 -15 19 -15q33 0 60 43q13 21 35.5 79.5t50.5 140t31 90.5q79 216 79 243q8 26 -18 26h-86z" />
    <glyph glyph-name="f_k" unicode="fk" horiz-adv-x="865" 
d="M267 0l142 425h-110q-21 -82 -40.5 -147t-45 -133.5t-51.5 -119.5t-60 -97.5t-71.5 -76t-83.5 -47t-99 -17.5q-42 0 -74.5 22.5t-32.5 64.5q0 28 19 44t40 16q59 0 63 -49q1 -11 -3.5 -35t-3.5 -29q3 -17 20 -17q23 0 38 11t30 39q21 38 40.5 107.5t53 214.5t54.5 227
l6 22h-61l6 22h62q19 61 52 107t66.5 70t73.5 38.5t67.5 18.5t54.5 4h242q4 0 4 -4q0 -3 -10 -35q-3 -10 -14 -36.5t-18 -51.5l-91 -288h37q71 0 111 81q28 55 51 80q25 25 63 25q39 0 61.5 -22.5t22.5 -58.5q0 -38 -21 -60t-51 -22q-29 0 -48.5 16.5t-19.5 47.5q0 17 9 34
q3 5 7 11.5t6.5 10.5t2.5 5q0 7 -7 7q-6 0 -11 -3t-11.5 -11.5t-10.5 -15t-13.5 -24t-15.5 -27.5q-39 -66 -80 -79v-4q61 -5 97.5 -35t38.5 -84q2 -57 4 -68q3 -21 18 -21t42 23.5t49 58.5l9 -6q-35 -61 -92 -99.5t-121 -38.5q-32 0 -58 19.5t-26 53.5q0 38 15.5 90t15.5 63
q0 12 -1.5 19t-11 14t-28.5 7h-37l-81 -257h-180zM347 609q-3 -8 -42 -162h111l42 124q-11 11 -11 32q0 4 8 41q0 11 -9.5 19t-27.5 8q-26 0 -42 -14t-29 -48z" />
    <glyph glyph-name=".notdef" horiz-adv-x="1000" 
 />
    <glyph glyph-name=".null" horiz-adv-x="0" 
 />
    <glyph glyph-name="nonmarkingreturn" horiz-adv-x="333" 
 />
    <glyph glyph-name="space" unicode=" " horiz-adv-x="170" 
 />
    <glyph glyph-name="exclam" unicode="!" horiz-adv-x="321" 
d="M340 570q0 -14 -5.5 -31.5t-20 -43t-24.5 -41.5t-33.5 -52.5t-32.5 -50.5q-61 -96 -87 -149h-11q1 17 1 33t-0.5 50t-0.5 70q0 54 -5 112t-5 74q0 55 32 91.5t93 36.5q45 0 72 -29t27 -70zM157 62q0 -33 -22.5 -56t-56.5 -23t-56 23t-22 56t22.5 56.5t55.5 23.5t56 -23.5
t23 -56.5z" />
    <glyph glyph-name="quotedbl" unicode="&#x22;" horiz-adv-x="353" 
d="M408 611q0 -11 -5 -25.5t-10.5 -24.5t-16.5 -29t-16 -28q-12 -23 -42.5 -66.5t-38.5 -56.5h-8q0 13 -6 142q-3 79 1 95q13 56 79 56q26 0 44.5 -17t18.5 -46zM228 611q0 -11 -5 -25.5t-10.5 -24.5t-16.5 -29t-16 -28q-12 -23 -42.5 -66.5t-38.5 -56.5h-8q0 13 -6 142
q-3 79 1 95q13 56 79 56q26 0 44.5 -17t18.5 -46z" />
    <glyph glyph-name="numbersign" unicode="#" horiz-adv-x="564" 
d="M582 428h-144l-52 -196h149v-30h-157l-54 -202h-19l54 202h-187l-53 -202h-20l54 202h-153v30h161l52 196h-164v30h172l52 197h19l-52 -197h187l52 197h19l-52 -197h136v-30zM419 428h-187l-52 -196h187z" />
    <glyph glyph-name="dollar" unicode="$" horiz-adv-x="526" 
d="M541 545q0 -46 -23 -70.5t-57 -24.5q-33 0 -57 21t-24 57q0 24 15.5 57t15.5 42q0 10 -15 18.5t-38 10.5l-54 -213q19 -16 60 -46t59.5 -47t35.5 -52.5t17 -80.5q0 -94 -84.5 -166t-202.5 -69l-23 -90h-17l23 91q-78 7 -125 49.5t-47 90.5q0 46 23 70t57 24
q33 0 54.5 -24t21.5 -70q0 -25 -17 -56.5t-17 -36.5q0 -9 15.5 -18t38.5 -12l60 238q-75 60 -108.5 106t-33.5 112q0 93 71 155t181 62l16 65h16l-16 -65q82 -4 130.5 -43t48.5 -85zM342 657q-36 -1 -65 -29t-29 -71q0 -59 43 -102zM339 96q0 42 -15.5 63.5t-73.5 67.5
l-57 -229q75 0 110.5 30t35.5 68z" />
    <glyph glyph-name="percent" unicode="%" horiz-adv-x="707" 
d="M378 547q0 -56 -21.5 -100.5t-55.5 -69.5t-71 -37.5t-72 -12.5q-59 0 -93.5 35.5t-34.5 87.5q0 56 21.5 100.5t55.5 69.5t71 37.5t72 12.5q59 0 93.5 -35.5t34.5 -87.5zM269 620q0 35 -23 35q-32 0 -50 -30q-24 -40 -40.5 -112t-16.5 -136q0 -35 23 -35q32 0 50 30
q24 40 40.5 112t16.5 136zM687 201q0 -56 -21.5 -100.5t-55.5 -69.5t-71 -37.5t-72 -12.5q-59 0 -93.5 35.5t-34.5 87.5q0 56 21.5 100.5t55.5 69.5t71 37.5t72 12.5q59 0 93.5 -35.5t34.5 -87.5zM578 274q0 35 -23 35q-32 0 -50 -30q-24 -40 -40.5 -112t-16.5 -136
q0 -35 23 -35q32 0 50 30q24 40 40.5 112t16.5 136zM585 648l-471 -668l-14 11l471 668z" />
    <glyph glyph-name="ampersand" unicode="&#x26;" horiz-adv-x="782" 
d="M812 535q0 -65 -37 -119.5t-96 -54.5q-56 0 -138 21q41 -23 64 -68t23 -81q0 -39 -21 -81.5t-60 -80t-104.5 -61.5t-143.5 -24q-140 0 -209.5 62.5t-69.5 171.5q0 68 56.5 121t111.5 67q-20 16 -35.5 51.5t-15.5 64.5q0 67 39.5 107t118.5 40q68 0 102 -29t34 -79
q0 -24 -18 -50t-40 -37l-3 4q12 14 12 44q0 21 -20 35.5t-56 14.5q-53 0 -81 -30t-28 -85q0 -8 10 -41q7 9 24.5 16.5t26.5 7.5q29 0 40.5 -12t11.5 -35q0 -14 -12.5 -24t-28.5 -10q-31 0 -73 35l-8 -7q-9 -7 -10.5 -9t-8 -10t-8 -14l-4 -16t-2.5 -22q0 -180 188 -180
q96 0 163.5 45t67.5 102q0 34 -12 57.5t-32.5 34t-38.5 14.5t-38 4q-42 0 -66.5 -22.5t-24.5 -55.5q0 -26 16 -41t30 -17q-5 30 -5 34q0 34 19.5 50.5t48.5 16.5q32 0 50 -23t18 -54t-21.5 -52.5t-60.5 -21.5q-48 0 -82 41.5t-34 103.5q0 76 64 120t124 44q49 0 84 -5
q87 -10 99 -10q77 0 77 67q0 20 -15.5 29t-35.5 9q-2 -30 -19.5 -52.5t-41.5 -22.5q-30 0 -46.5 17.5t-16.5 47.5q0 28 21.5 45t51.5 17q49 0 87 -33.5t38 -91.5z" />
    <glyph glyph-name="quotesingle" unicode="'" horiz-adv-x="198" 
d="M228 607q0 -11 -5 -25.5t-10.5 -24.5t-16.5 -29t-16 -28q-12 -23 -42.5 -66.5t-38.5 -56.5h-8q0 13 -6 142q-3 79 1 95q13 56 79 56q26 0 44.5 -17t18.5 -46z" />
    <glyph glyph-name="parenleft" unicode="(" horiz-adv-x="323" 
d="M195 -106h-8q-71 39 -125.5 124t-54.5 194q0 91 38 173.5t98 140.5t128 97.5t134 55.5h9q-106 -73 -182.5 -245t-76.5 -340q-1 -103 40 -200z" />
    <glyph glyph-name="parenright" unicode=")" horiz-adv-x="323" 
d="M104 679h8q71 -39 125.5 -124t54.5 -194q0 -73 -25.5 -142t-66.5 -121t-93.5 -95t-106.5 -70t-106 -39h-9q106 73 182.5 245t76.5 340q1 103 -40 200z" />
    <glyph glyph-name="asterisk" unicode="*" horiz-adv-x="420" 
d="M236 484q4 -25 23 -79.5t19 -67.5q0 -16 -11 -27t-31 -11t-31.5 11t-11.5 27q0 13 19 67.5t23 79.5q-18 -21 -41 -73t-32 -61q-26 -26 -57 4q-14 14 -15 30t11 27q9 9 60.5 32.5t72.5 41.5q-29 -2 -81.5 -22.5t-65.5 -20.5q-16 0 -26.5 11.5t-10.5 31.5t10.5 31.5
t26.5 11.5q13 0 66 -20t81 -22q-21 18 -73 41t-61 32q-26 27 4 57t57 4q9 -9 32.5 -60.5t41.5 -72.5q-3 28 -22.5 80t-19.5 65q0 16 11.5 26.5t31.5 10.5t31 -10.5t11 -26.5q0 -13 -19.5 -65t-22.5 -80q18 21 41.5 72.5t32.5 60.5q26 26 57 -4q14 -14 15 -30t-11 -27
q-9 -9 -61 -32t-73 -41q117 42 146 42q16 0 26.5 -11.5t10.5 -31.5t-10.5 -31.5t-26.5 -11.5q-13 0 -65.5 20t-80.5 23q21 -18 72.5 -41.5t60.5 -32.5q26 -26 -4 -56q-14 -14 -30 -15t-27 11q-9 9 -32 60.5t-41 72.5z" />
    <glyph glyph-name="plus" unicode="+" horiz-adv-x="455" 
d="M410 253h-175v-174h-16v174h-174v16h174v175h16v-175h175v-16z" />
    <glyph glyph-name="comma" unicode="," horiz-adv-x="244" 
d="M154 55q0 -59 -69.5 -114t-152.5 -76l-2 13q45 13 89 42.5t44 48.5q0 12 -9 16q-25 3 -46.5 25t-21.5 48q0 43 27 65t58 22q37 0 60 -24.5t23 -65.5z" />
    <glyph glyph-name="hyphen" unicode="-" horiz-adv-x="300" 
d="M260 303l-22 -90h-213l22 90h213z" />
    <glyph glyph-name="period" unicode="." horiz-adv-x="237" 
d="M157 65q0 -33 -22.5 -56t-56.5 -23t-56 23t-22 56t22.5 56t55.5 23t56 -23t23 -56z" />
    <glyph glyph-name="slash" unicode="/" horiz-adv-x="292" 
d="M372 673l-444 -775l-35 16l445 776z" />
    <glyph glyph-name="zero" unicode="0" horiz-adv-x="618" 
d="M405 670q56 0 97 -22.5t63.5 -59.5t32.5 -77.5t10 -84.5q0 -96 -33 -180t-87 -140t-123.5 -88t-143.5 -32q-56 0 -97 22.5t-63.5 59.5t-32.5 77.5t-10 84.5q0 96 33 180t87 140t123.5 88t143.5 32zM226 3q39 0 70 59q45 86 92.5 257t47.5 269q0 65 -36 65q-39 0 -70 -59
q-45 -86 -92.5 -257t-47.5 -269q0 -65 36 -65z" />
    <glyph glyph-name="one" unicode="1" horiz-adv-x="404" 
d="M389 664l-24 -92l-90 -354q-25 -96 -25 -136q0 -52 39 -67q8 -3 34 -10l-1 -5h-388l1 5q2 1 10.5 2.5t16 3t11.5 3.5q36 16 53 46q33 58 57 154l81 327q11 40 16 66q4 23 -9 33q-8 6 -53 11l1 5q127 6 165 9q78 6 100 6q6 0 5 -7z" />
    <glyph glyph-name="two" unicode="2" horiz-adv-x="570" 
d="M62 143q20 21 61 61.5t67.5 67.5t61 68t55 74t35 74t13.5 79q-1 42 -20 61.5t-45 19.5q-37 0 -70 -30.5t-33 -92.5q0 -30 12 -48.5t33 -18.5q16 0 26 8t25 28l9 -4q-9 -43 -48 -76.5t-96 -33.5q-41 0 -70.5 26t-29.5 69q0 87 85 141t209 54q65 0 112.5 -16t71 -41.5
t34 -49.5t10.5 -48q0 -59 -43.5 -108t-135.5 -107q-24 -15 -47 -27.5t-50.5 -25.5t-46.5 -21t-58.5 -24.5t-61.5 -26.5l-1 -5h211q28 0 62.5 15t58.5 32q55 40 84 85h8l-137 -302h-488z" />
    <glyph glyph-name="three" unicode="3" horiz-adv-x="533" 
d="M533 544q0 -142 -240 -177l-1 -3q96 0 151 -38t55 -108q0 -117 -94 -174.5t-244 -57.5q-103 0 -151.5 42.5t-48.5 99.5q0 36 23 62.5t56 26.5q43 0 65.5 -22.5t22.5 -61.5q0 -31 -23 -71q-14 -25 -14 -34q0 -19 40 -19q52 0 89 38.5t52 92t15 115.5q0 76 -77 76
q-14 0 -27 -4l-35 -12l-4 14l70 24q157 54 157 238q0 58 -61 58q-46 0 -77 -30.5t-31 -101.5q0 -24 11 -38t24 -14q19 0 44 19l7 -4q-33 -74 -108 -74q-45 0 -72.5 27t-27.5 65q0 70 70.5 121t175.5 51q97 0 152.5 -34t55.5 -92z" />
    <glyph glyph-name="four" unicode="4" horiz-adv-x="565" 
d="M545 354l-68 -253h-7q3 57 -13 91q-1 2 -3 7t-3.5 7t-5.5 5.5t-9.5 5t-15 2.5t-23.5 1h-30l-12 -43q-13 -45 -13 -95t39 -65q29 -10 34 -12l-1 -5h-382l1 5q17 3 33 9q35 16 52 46q33 60 46 110l13 51h-217l5 19l386 417h126q2 0 2 -3q-2 -6 -8 -27l-10 -35l-91 -357h31
q10 0 18.5 0.5t14.5 1.5t12 3l9 3t7 4t5.5 4.5t6 5.5t5.5 5q39 39 59 92h7zM250 519h-1l-268 -284h199z" />
    <glyph glyph-name="five" unicode="5" horiz-adv-x="511" 
d="M531 690q-46 -109 -106 -162.5t-157 -53.5q-66 0 -116 15l-56 -142l3 -1q58 65 171 65q104 0 154.5 -47t50.5 -117q0 -109 -78 -185t-216 -76q-103 0 -157 43t-54 99q0 40 25.5 66.5t62.5 26.5q41 0 63 -24t22 -60q0 -29 -21 -71q-13 -26 -13 -31q0 -21 36 -21
q43 0 71 37.5t39.5 94t11.5 130.5q0 43 -23 67.5t-61 24.5q-61 0 -105 -67l-14 9l135 345h6q18 -19 65.5 -30t98.5 -11q111 0 156 77z" />
    <glyph glyph-name="six" unicode="6" horiz-adv-x="577" 
d="M617 558q0 -43 -24 -68t-63 -25q-77 0 -77 75q0 20 16 52q12 26 12 37q0 7 -1 11t-8 8.5t-21 4.5q-50 0 -102.5 -69t-82.5 -176h4q14 13 45.5 21.5t59.5 8.5q78 0 116.5 -49t38.5 -116q0 -117 -85 -202t-227 -85q-57 0 -98 19.5t-62.5 54.5t-30.5 73t-9 83
q0 101 41 188.5t104.5 144t139.5 89t148 32.5q166 0 166 -112zM351 373q0 35 -32 35q-37 0 -57 -43q-23 -51 -52.5 -170t-29.5 -159q0 -33 38 -33q31 0 48 36q25 56 55 175.5t30 158.5z" />
    <glyph glyph-name="seven" unicode="7" horiz-adv-x="475" 
d="M595 657l-2 -6q-66 -65 -122.5 -149t-83.5 -138t-66.5 -146t-48.5 -111q-29 -61 -64.5 -91t-87.5 -30q-51 0 -72.5 29t-21.5 70q0 44 33 83.5t87 80.5q69 52 285 238l1 2h-231q-50 0 -79 -12q-30 -12 -50.5 -27.5t-39.5 -49.5h-7l132 293h7q10 -36 65 -36h366z" />
    <glyph glyph-name="eight" unicode="8" horiz-adv-x="535" 
d="M524 548q0 -46 -38.5 -83t-90.5 -55q54 -38 81.5 -77t27.5 -100q0 -102 -84.5 -174.5t-192.5 -72.5q-217 0 -217 141q0 53 49 93.5t122 54.5q-51 38 -76.5 76t-25.5 98q0 94 78.5 157.5t183.5 63.5q89 0 136 -33t47 -89zM347 103q0 18 -3.5 31t-7 22t-19 22t-23.5 19
t-37.5 25.5t-46.5 31.5l-15 11q-38 -13 -68 -48t-30 -89q0 -60 34.5 -93t94.5 -33q54 0 87.5 27t33.5 74zM443 555q0 48 -27 74t-76 26q-52 0 -78 -26t-26 -65q0 -18 6.5 -33.5t21.5 -29.5t26.5 -22t36 -23.5t35.5 -22.5l18 -12q30 19 45 48.5t16.5 45t1.5 40.5z" />
    <glyph glyph-name="nine" unicode="9" horiz-adv-x="599" 
d="M0 98q0 43 24 68t63 25q72 0 72 -75q0 -21 -11.5 -47t-11.5 -42q0 -7 1 -11t8 -8.5t21 -4.5q60 0 101.5 61.5t73.5 183.5h-4q-14 -13 -45.5 -21.5t-59.5 -8.5q-78 0 -116.5 49t-38.5 116q0 117 85 202t227 85q57 0 98 -19t62.5 -53t30.5 -71.5t9 -82.5q0 -102 -34.5 -189
t-92.5 -145.5t-135 -91t-161 -32.5q-82 0 -124 34.5t-42 77.5zM256 283q0 -35 32 -35q37 0 57 43q23 51 52.5 170t29.5 159q0 33 -38 33q-31 0 -48 -36q-25 -56 -55 -175.5t-30 -158.5z" />
    <glyph glyph-name="colon" unicode=":" horiz-adv-x="267" 
d="M237 379q0 -33 -22.5 -56t-56.5 -23t-56 23t-22 56t22.5 56t55.5 23t56 -23t23 -56zM147 65q0 -33 -22.5 -56t-56.5 -23t-56 23t-22 56t22.5 56t55.5 23t56 -23t23 -56z" />
    <glyph glyph-name="semicolon" unicode=";" horiz-adv-x="267" 
d="M237 379q0 -33 -22.5 -56t-56.5 -23t-56 23t-22 56t22.5 56t55.5 23t56 -23t23 -56zM154 62q0 -59 -69.5 -114t-152.5 -76l-2 13q45 13 89 42.5t44 48.5q0 12 -9 16q-25 3 -46.5 24.5t-21.5 48.5q0 43 27 65t58 22q37 0 60 -24.5t23 -65.5z" />
    <glyph glyph-name="less" unicode="&#x3c;" horiz-adv-x="338" 
d="M298 111l-278 142v18l278 142v-17l-266 -134l266 -134v-17z" />
    <glyph glyph-name="equal" unicode="=" horiz-adv-x="415" 
d="M360 338h-325v16h325v-16zM360 163h-325v16h325v-16z" />
    <glyph glyph-name="greater" unicode="&#x3e;" horiz-adv-x="328" 
d="M308 253l-278 -142v17l266 134l-266 134v17l278 -142v-18z" />
    <glyph glyph-name="question" unicode="?" horiz-adv-x="476" 
d="M496 509q0 -94 -55 -156.5t-152 -87.5q-63 -16 -86 -31t-23 -39q0 -11 10 -19.5t23 -8.5q28 0 53 35l5 -5q-25 -63 -95 -63q-56 0 -93.5 32t-37.5 88q0 65 42.5 99t134.5 56q89 21 117 54t28 87q0 44 -25.5 72t-83.5 28q-41 0 -72.5 -30t-31.5 -78q0 -38 19 -55.5
t46 -17.5q9 0 18 9.5t10 18.5q-40 13 -40 52q0 25 15.5 40.5t39.5 15.5q25 0 40.5 -16t15.5 -42q0 -33 -40.5 -68.5t-97.5 -35.5q-42 0 -71.5 26t-29.5 62q0 61 56.5 100t151.5 39q99 0 154 -44t55 -117zM192 51q0 -27 -20 -46t-47 -19t-45.5 19t-18.5 46t18.5 46t45.5 19
t47 -19t20 -46z" />
    <glyph glyph-name="at" unicode="@" horiz-adv-x="779" 
d="M749 278q0 -112 -78.5 -202t-183.5 -90q-32 0 -55.5 18.5t-23.5 52.5q0 19 5 46h-3q-19 -50 -39 -71q-43 -46 -98 -46t-79 33.5t-24 97.5q0 100 85.5 189.5t185.5 89.5q30 0 41.5 -10.5t14.5 -29.5h5q8 15 21 32h135l-66 -203q-5 -16 -11.5 -35t-9 -26.5t-5.5 -17t-4 -14
t-1.5 -9.5t-0.5 -12q0 -12 5 -19t12 -7q57 0 107.5 74t50.5 159q0 118 -81 190t-219 72q-165 0 -261 -110.5t-96 -281.5q0 -155 82 -234t233 -79q143 0 300 90l5 -11q-49 -33 -138.5 -62t-166.5 -29q-169 0 -278.5 88t-109.5 237q0 85 25 154.5t67 115.5t98 76.5t115.5 44
t123.5 13.5q149 0 232 -77t83 -197zM485 341q0 35 -18 35q-21 0 -49 -52q-34 -62 -63.5 -138t-29.5 -107q0 -35 21 -35q18 0 42 43q27 47 44 97q11 32 25.5 66t21 52.5t6.5 38.5z" />
    <glyph glyph-name="A" unicode="A" horiz-adv-x="646" 
d="M631 657l-113 -439q-24 -92 -24 -136q0 -50 39 -65q29 -11 43 -12l-1 -5h-382l1 5q19 2 36 9q30 12 48 45q20 37 48 155l9 38h-170l-95 -112q-32 -39 -32 -74q0 -30 25 -44t54 -17l-1 -5h-261l1 5q23 3 51 16q64 31 132 111l446 525h146zM404 528h-5l-217 -256h158z" />
    <glyph glyph-name="B" unicode="B" horiz-adv-x="674" 
d="M639 515q0 -137 -210 -162l-1 -4q82 -10 136.5 -47t54.5 -102q0 -92 -75 -146t-189 -54h-430l1 5q15 1 41 9q35 10 57 46q24 40 53 154l57 225q24 93 24 136q0 50 -39 65q-26 9 -43 11l1 6h317q245 0 245 -142zM423 263q0 39 -18.5 60t-72.5 21h-32l-46 -185
q-17 -68 -17 -86q0 -28 12 -42q12 -15 36 -15h14q49 0 86.5 78.5t37.5 168.5zM475 571q0 37 -12.5 53t-40.5 16h-5q-13 0 -23 -5q-25 -14 -33 -46l-57 -229h37q61 0 88 37q46 61 46 174z" />
    <glyph glyph-name="C" unicode="C" horiz-adv-x="597" 
d="M627 647l-62 -245h-7q5 119 -35 185t-101 66q-37 0 -60 -19t-48 -59q-34 -54 -76.5 -200.5t-42.5 -254.5q0 -43 22.5 -71t60.5 -28q76 0 148 61t111 144l12 -8q-41 -98 -120.5 -165t-171.5 -67q-119 0 -184 76t-65 174q0 186 111.5 310t292.5 124q53 0 91 -20t53 -47h3
l62 44h6z" />
    <glyph glyph-name="D" unicode="D" horiz-adv-x="710" 
d="M685 407q0 -90 -42.5 -188t-106.5 -143q-45 -32 -105 -54t-114 -22h-392l1 5q15 1 41 9q35 10 57 46q26 43 54 154l56 226q24 99 24 135q0 50 -39 65q-26 9 -43 11l1 6h355q68 0 118.5 -21t79 -57t42 -79t13.5 -93zM492 530q0 110 -62 110h-9q-24 0 -39 -14.5t-25 -54.5
l-103 -412q-17 -68 -17 -86q0 -28 12 -42q12 -15 36 -15h13q49 0 90 72q35 62 69.5 191t34.5 251z" />
    <glyph glyph-name="E" unicode="E" horiz-adv-x="630" 
d="M630 657l-22 -227h-6q-10 75 -53 145q-41 65 -101 65h-27q-27 0 -40 -15t-23 -54l-56 -222h21q62 0 102 35q22 19 46 54t32 60h6l-80 -322h-6q4 25 -2.5 66t-19.5 61q-19 30 -81 30h-22l-44 -174q-19 -74 -19 -92q0 -29 15 -40t45 -11h11q43 0 129 78q90 81 128 142h5
l-66 -236h-577l1 5q17 1 42 9q34 9 56 46q26 43 54 154l56 226q25 103 25 135q0 50 -39 65q-25 9 -44 11l1 6h553z" />
    <glyph glyph-name="F" unicode="F" horiz-adv-x="600" 
d="M630 657l-21 -271h-6q-5 37 -24.5 93t-36.5 84q-17 27 -26 39t-28 25.5t-41 13.5h-25q-29 0 -41.5 -15.5t-21.5 -53.5l-53 -211h17q62 0 102 35q22 19 46 54t32 60h6l-81 -322h-6q4 25 -2.5 65.5t-19.5 60.5q-20 31 -81 31h-17l-32 -127q-25 -97 -25 -136q0 -50 40 -66
q26 -9 43 -11l-1 -5h-402l1 5q25 2 42 9q37 14 56 46q28 47 54 154l55 225q25 103 25 136q0 50 -39 65q-26 9 -43 11l1 6h553z" />
    <glyph glyph-name="G" unicode="G" horiz-adv-x="652" 
d="M278 16q51 0 69 23q23 30 33 79l10 45q9 45 9 59q0 38 -26 53q-19 12 -50 17l2 5h347l-1 -5q-43 -2 -69 -25q-32 -27 -50 -104l-35 -145h-5q-28 20 -55 20q-28 0 -82 -27q-50 -25 -118 -25q-119 0 -184 76t-65 174q0 186 111.5 310t292.5 124q53 0 91 -20t53 -47h3l62 44
h6l-62 -245h-7q5 119 -35 185t-101 66q-37 0 -60 -19t-48 -59q-34 -54 -76.5 -200.5t-42.5 -254.5q0 -44 22.5 -74t60.5 -30z" />
    <glyph glyph-name="H" unicode="H" horiz-adv-x="793" 
d="M858 657l-1 -6q-21 -2 -42 -8q-34 -9 -56 -46q-26 -43 -54 -154l-56 -225q-25 -103 -25 -136q0 -49 40 -65q29 -11 43 -12l-1 -5h-382l1 5q19 2 36 9q30 12 48 45q16 30 48 155l26 104h-188l-25 -100q-29 -119 -29 -139q0 -49 30 -64q15 -8 37 -10l-1 -5h-382l1 5
q25 2 42 9q37 14 56 46q26 43 54 154l56 225q25 103 25 136q0 50 -39 65q-25 9 -44 11l1 6h381l-2 -6q-12 -1 -29 -8q-32 -15 -50 -45q-20 -34 -51 -155l-25 -101h188l24 97q27 111 27 137q0 48 -28 65q-15 8 -37 10l1 6h382z" />
    <glyph glyph-name="I" unicode="I" horiz-adv-x="414" 
d="M479 657l-1 -6q-21 -2 -42 -8q-34 -9 -56 -46q-26 -43 -54 -154l-56 -225q-25 -103 -25 -136q0 -50 39 -65q29 -11 44 -12l-1 -5h-402l1 5q17 1 42 9q34 9 56 46q26 43 54 154l56 225q25 103 25 136q0 50 -39 65q-25 9 -44 11l1 6h402z" />
    <glyph glyph-name="J" unicode="J" horiz-adv-x="513" 
d="M608 657l-1 -6q-21 -2 -42 -8q-34 -9 -56 -46q-26 -43 -54 -154l-56 -222q-26 -103 -103.5 -169t-192.5 -66q-88 0 -130.5 42t-42.5 98q0 46 30 72.5t71 26.5q35 0 64 -24t29 -68q0 -37 -35 -76q-2 -3 -8 -8.5t-9.5 -9.5t-7 -9t-3.5 -8q0 -10 8.5 -15.5t16.5 -5.5
q34 0 58 28t47 121l72 289q25 101 25 136q0 50 -39 65q-25 9 -44 11l1 6h402z" />
    <glyph glyph-name="K" unicode="K" horiz-adv-x="701" 
d="M750 657l-1 -5q-49 -10 -90 -30q-25 -12 -57 -38t-107 -95l-145 -132v-4q32 17 69 17q62 0 100.5 -37.5t41.5 -134.5q3 -82 17 -110t45 -28t55 43l8 -3q-16 -44 -61 -79t-116 -35q-36 0 -62.5 11t-41 27t-23.5 41t-12 44.5t-4 46.5q-2 40 -2.5 73.5t-1.5 46.5
q-3 42 -38 42q-16 0 -33 -16l-21 -84q-29 -119 -29 -139q0 -49 30 -64q15 -8 37 -10l-1 -5h-382l1 5q17 1 42 9q34 9 56 46q26 43 54 154l56 225q25 103 25 136q0 50 -39 65q-25 9 -44 11l1 6h381l-2 -6q-12 -1 -29 -8q-32 -15 -50 -45q-21 -35 -51 -155l-28 -114l186 175
q68 64 68 98q0 27 -29 40q-20 9 -37 10l2 5h262z" />
    <glyph glyph-name="L" unicode="L" horiz-adv-x="588" 
d="M568 236l-66 -236h-577l1 5q17 1 42 9q34 9 56 46q26 43 54 154l56 225q25 103 25 136q0 50 -39 65q-25 9 -44 11l1 6h394l-2 -6q-15 -2 -46 -14q-27 -10 -46 -39q-4 -6 -8 -14t-6.5 -14t-6.5 -17.5t-6 -17.5t-6 -21t-5.5 -21t-6 -25t-6.5 -25l-72 -284q-19 -74 -19 -92
q0 -25 10 -36q14 -15 50 -15h11q43 0 129 78q90 81 128 142h5z" />
    <glyph glyph-name="M" unicode="M" horiz-adv-x="851" 
d="M916 657l-2 -5q-20 -2 -41 -8q-34 -10 -57 -47q-25 -41 -53 -153l-56 -226q-25 -103 -25 -136q0 -51 39 -66q25 -9 44 -11l-2 -5h-382l2 5q17 1 35 9q31 13 49 45q5 10 10 21.5t10 29l8 28t9.5 38t9.5 38.5l90 357h-6l-331 -575h-38l-40 575h-3l-99 -399q-16 -64 -16 -99
q0 -50 38 -62q14 -4 38 -6l-1 -5h-221l2 5q22 2 35 6q31 9 53 38q30 39 52 125l69 278q25 99 25 132q0 46 -38 61q-11 4 -37 7l1 5h279l27 -396h4l232 396h287z" />
    <glyph glyph-name="N" unicode="N" horiz-adv-x="638" 
d="M713 657l-1 -5q-2 -1 -12.5 -2.5t-16.5 -3.5q-30 -9 -50 -37q-25 -33 -47 -124l-122 -493h-19l-265 543h-3l-90 -363q-14 -56 -14 -99q0 -51 36 -62q14 -4 38 -6l-1 -5h-221l1 5q24 3 36 6q31 9 53 38q32 41 52 125l69 280q21 87 21 121q0 20 -14.5 40t-35.5 28
q-20 7 -38 9l1 5h268l176 -368h2l46 188q18 72 18 104q0 46 -41 63q-14 6 -39 8l1 5h212z" />
    <glyph glyph-name="O" unicode="O" horiz-adv-x="667" 
d="M255 3q57 0 95 84q32 68 72.5 210.5t40.5 250.5q0 23 -1.5 38.5t-7 32.5t-17 25.5t-29.5 8.5q-62 0 -100 -84q-32 -68 -72.5 -210.5t-40.5 -250.5q0 -105 60 -105zM401 670q114 0 181.5 -72.5t67.5 -186.5q0 -79 -25 -153t-72 -135.5t-124 -99t-172 -37.5
q-114 0 -181.5 72.5t-67.5 186.5q0 79 25 153t72 135.5t124 99t172 37.5z" />
    <glyph glyph-name="P" unicode="P" horiz-adv-x="633" 
d="M663 509q0 -50 -39 -102.5t-92 -76.5q-73 -32 -201 -32h-41l-20 -80q-25 -101 -25 -136q0 -50 39 -65q29 -11 44 -12l-1 -5h-402l1 5q17 1 42 9q34 9 56 46q24 40 53 154l56 226q25 103 25 134q0 51 -39 66q-29 11 -44 12l2 5h368q122 0 170 -38.5t48 -109.5zM484 582
q0 26 -12.5 42t-35.5 16h-14q-31 0 -47 -23q-8 -12 -16 -46l-65 -257h42q30 0 48.5 11t38.5 37q25 33 43 102t18 118z" />
    <glyph glyph-name="Q" unicode="Q" horiz-adv-x="673" 
d="M406 670q114 0 181.5 -72.5t67.5 -186.5q0 -138 -76 -247.5t-215 -146.5q-8 -2 -85.5 -21.5t-126.5 -34.5v-2q163 -4 290 -31q18 -4 51.5 -11.5t51 -11.5t41.5 -7.5t43 -3.5q81 0 122 94l8 -4q-27 -119 -78 -184q-22 -28 -64 -46t-94 -18q-21 0 -42.5 5.5t-37 11
t-42.5 23t-38.5 25t-48 34t-48.5 35.5q-57 41 -94 59t-72 18q-10 0 -21.5 -6t-11.5 -16q0 -4 4.5 -8.5t11.5 -9.5t9 -8q20 -22 20 -47q0 -29 -18.5 -45t-44.5 -16q-28 0 -46 16.5t-18 51.5q0 74 156 119q9 3 37.5 11.5t51.5 14.5v3q-102 9 -159.5 71.5t-57.5 166.5
q0 79 25 153t72 135.5t124 99t172 37.5zM263 23q54 0 92 84q35 73 74 203.5t39 237.5q0 105 -63 105q-54 0 -92 -84q-35 -73 -74 -203.5t-39 -237.5q0 -105 63 -105z" />
    <glyph glyph-name="R" unicode="R" horiz-adv-x="681" 
d="M681 100q-16 -45 -56.5 -79t-110.5 -34q-45 0 -77 15t-48 40.5t-22.5 52.5t-6.5 57q0 93 -3 133q-3 42 -40 42h-20l-27 -109q-25 -103 -25 -136q0 -50 39 -65q26 -9 54 -12l-1 -5h-412l1 5q17 1 42 9q34 9 56 46q24 40 53 154l56 226q25 103 25 134q0 51 -39 66
q-29 11 -44 12l2 5h346q122 0 173 -39t51 -109q0 -50 -31 -89t-86 -61q-46 -19 -115 -26l-1 -3q65 -5 102.5 -42t40.5 -104q3 -81 16.5 -105.5t45.5 -24.5q34 0 54 49zM468 582q0 29 -7.5 43.5t-29.5 14.5h-15q-38 0 -51 -48l-64 -249h42q22 0 37 6.5t32 28.5q25 33 40.5 94
t15.5 110z" />
    <glyph glyph-name="S" unicode="S" horiz-adv-x="536" 
d="M526 653l-53 -215h-8q0 46 -5.5 81.5t-18.5 68t-40 50t-67 17.5q-42 0 -64 -27t-22 -69q0 -34 21.5 -63.5t70.5 -64.5q89 -66 120 -110t31 -114q0 -90 -75.5 -155.5t-190.5 -65.5q-102 0 -164 85h-5l-62 -69h-4l52 260h8q26 -260 173 -260q52 0 81.5 25t29.5 70
q0 40 -23 68.5t-102 91.5q-62 51 -91 95t-29 105q0 92 65.5 152.5t182.5 60.5q91 0 137 -68h1l43 51h8z" />
    <glyph glyph-name="T" unicode="T" horiz-adv-x="639" 
d="M694 657l-30 -239h-6q-16 96 -61.5 159t-100.5 63h-16l-105 -422q-24 -99 -24 -136q0 -50 39 -65q29 -11 43 -12l-1 -5h-402l1 5q17 1 42 9q34 9 56 46q26 43 54 154l106 426h-13q-15 0 -28.5 -3t-28 -11t-25.5 -14.5t-26.5 -22l-25 -25t-27.5 -32t-27 -34t-30.5 -39.5
t-31.5 -41h-6l78 239h596z" />
    <glyph glyph-name="U" unicode="U" 
d="M735 657l-1 -5q-2 -1 -12.5 -2.5t-16.5 -3.5q-30 -9 -50 -37q-22 -30 -49 -134l-65 -261q-29 -114 -87.5 -171t-167.5 -57q-221 0 -221 204q0 34 28 146l25 104q25 103 25 136q0 50 -39 65q-25 9 -44 11l1 5h381l-2 -5q-14 -2 -30 -8q-29 -14 -50 -46q-21 -31 -44 -130
l-63 -262q-10 -41 -10 -87q0 -45 23.5 -73t67.5 -28q66 0 114.5 51.5t71.5 145.5l64 257q18 72 18 109q0 45 -42 63q-14 6 -39 8l2 5h212z" />
    <glyph glyph-name="V" unicode="V" horiz-adv-x="661" 
d="M804 657l-1 -6q-26 -3 -51 -15q-59 -28 -129 -111l-446 -525h-147l113 439q25 96 25 136q0 49 -40 65q-29 11 -43 12l1 5h382l-1 -5q-19 -2 -36 -9q-30 -12 -48 -45q-16 -30 -48 -155l-78 -313h5l329 387q32 39 32 74q0 30 -25 44q-23 13 -54 16l1 6h259z" />
    <glyph glyph-name="W" unicode="W" horiz-adv-x="1021" 
d="M1167 657l-1 -6q-26 -3 -51 -15q-67 -32 -129 -111l-416 -525h-150l113 439l1 2l-354 -441h-150l113 439q25 96 25 136q0 49 -40 65q-29 11 -43 12l1 5h382l-1 -5q-19 -2 -36 -9q-30 -12 -48 -45q-20 -37 -48 -155l-70 -299h5l273 338q15 68 15 93q0 49 -40 65
q-32 12 -33 12l1 5h372l-1 -5q-19 -2 -36 -9q-30 -12 -48 -45q-20 -37 -48 -155l-70 -299h5l291 373q32 42 32 74q0 30 -25 44q-23 13 -54 16l1 6h262z" />
    <glyph glyph-name="X" unicode="X" horiz-adv-x="649" 
d="M739 657l-1 -5q-26 -5 -65 -24q-52 -26 -149 -123l-104 -112l55 -238q12 -53 38 -94q18 -29 46 -44q18 -10 40 -12l-1 -5h-385l2 5q13 1 31 7q23 9 32 23t9 40q0 19 -14 82l-22 95l-108 -101q-37 -35 -48.5 -57t-11.5 -45q0 -24 21 -36q12 -6 30 -8l-1 -5h-223l1 5
q29 7 58 26q11 7 20.5 14t19.5 14.5t17.5 13t17.5 14t15 13t15.5 14t14 13t14.5 14t13 12.5l129 122l-56 240q-10 44 -34 82q-18 29 -46 44q-16 9 -40 11l1 5h380l-2 -5l-22 -6q-25 -9 -34 -22t-9 -39q0 -30 12 -85l19 -84l84 90q36 38 47.5 59t11.5 43q0 24 -21 36
q-12 6 -30 8l1 5h232z" />
    <glyph glyph-name="Y" unicode="Y" horiz-adv-x="612" 
d="M732 657l-1 -5q-28 -6 -55 -21q-63 -34 -130 -130l-157 -223l-14 -60q-25 -109 -25 -136q0 -50 39 -65q29 -11 44 -12l-1 -5h-402l1 5q17 1 42 9q34 9 56 46q26 43 54 154l13 51l-72 278q-25 94 -94 109l1 5h363l-1 -5q-23 -2 -40 -9q-33 -14 -33 -46q0 -10 16 -76
l51 -204h5l139 196q44 62 44 95q0 24 -20 34q-17 9 -31 10l1 5h207z" />
    <glyph glyph-name="Z" unicode="Z" horiz-adv-x="570" 
d="M640 657l-1 -5l-458 -637h50q33 0 82 22.5t87 56.5q90 81 128 142h5l-66 -236h-527l1 5l454 636h-25q-76 0 -174 -65q-29 -19 -71 -61.5t-55 -64.5h-5l59 207h516z" />
    <glyph glyph-name="bracketleft" unicode="[" horiz-adv-x="401" 
d="M461 640q0 -58 -39.5 -99t-95.5 -41q-54 0 -94 37t-58 101l-180 -721q82 135 201 135q51 0 78.5 -25t27.5 -67q0 -31 -19.5 -59t-34.5 -38.5t-26 -16.5h-8q12 21 12 40q0 54 -58 54q-21 0 -42 -3.5t-46 -12t-38 -13t-43.5 -18t-37.5 -16.5l199 798q96 -52 199 -52
q27 0 47 15t20 44q0 5 -3 23h8q31 -22 31 -65z" />
    <glyph glyph-name="backslash" unicode="\" horiz-adv-x="249" 
d="M279 -88l-35 -14l-245 780l34 12z" />
    <glyph glyph-name="bracketright" unicode="]" horiz-adv-x="401" 
d="M421 674l-199 -798q-96 52 -199 52q-27 0 -47.5 -15t-20.5 -44q0 -5 3 -23h-8q-30 21 -30 65q0 58 39 99t95 41q54 0 94.5 -37t58.5 -101l180 721q-82 -135 -201 -135q-51 0 -78.5 25t-27.5 67q0 31 19 59t34 38.5t26 16.5h8q-11 -19 -11 -40q0 -54 58 -54q21 0 42 3.5
t46 12t38 13t43.5 18t37.5 16.5z" />
    <glyph glyph-name="grave" unicode="`" horiz-adv-x="325" 
d="M305 489l-4 -5q-50 10 -153 45q-42 14 -65 38t-23 48q0 30 18 47.5t41 17.5q42 0 77 -43q6 -8 109 -148z" />
    <glyph glyph-name="a" unicode="a" horiz-adv-x="553" 
d="M548 128q-34 -59 -97 -98t-128 -39q-31 0 -50.5 18t-19.5 53q0 24 8 53h-3q-18 -39 -45 -71q-47 -53 -102 -53q-56 0 -83.5 30.5t-27.5 101.5q0 80 45 158t115.5 126.5t141.5 48.5q59 0 65 -41h6q12 21 20 32h147l-66 -203q-4 -13 -11 -33.5t-10.5 -31l-8.5 -25.5
t-7.5 -24t-5 -19.5t-3.5 -18t-1 -14.5q0 -24 17 -24q16 0 45 22.5t50 55.5zM346 401q0 37 -18 37q-21 0 -50 -54q-32 -59 -70.5 -163.5t-38.5 -136.5q0 -23 4.5 -28.5t12.5 -5.5q20 0 45 41q24 39 45 98q6 17 22.5 57.5t24.5 62.5t15.5 49.5t7.5 42.5z" />
    <glyph glyph-name="b" unicode="b" horiz-adv-x="530" 
d="M520 312q0 -52 -29 -125t-69 -109q-53 -48 -102 -67.5t-131 -19.5q-49 0 -84 14.5t-52.5 39.5t-25 50t-7.5 53q0 61 28 144l93 279q13 39 13 61t-13 33q-11 11 -37 14l2 5h241q5 0 5 -4q0 -2 -13 -35q-11 -28 -30 -87l-58 -181h6q23 38 57.5 58.5t68.5 20.5
q58 0 97.5 -37.5t39.5 -106.5zM357 399q0 10 -6.5 19t-15.5 9q-22 0 -49 -32t-44 -70q-24 -50 -50.5 -146t-26.5 -140q0 -35 23 -35q21 0 37.5 18.5t38.5 68.5q93 218 93 308z" />
    <glyph glyph-name="c" unicode="c" horiz-adv-x="478" 
d="M483 359q0 -29 -20.5 -48.5t-50.5 -19.5q-29 0 -46.5 17.5t-17.5 44.5q0 13 6.5 38t6.5 34q0 17 -19 17q-25 0 -48.5 -23.5t-39.5 -63.5q-55 -139 -55 -221q0 -89 71 -89q36 0 77 31.5t71 67.5l8 -6q-91 -147 -267 -147q-65 0 -104.5 45.5t-39.5 119.5q0 67 36 126.5
t91 99.5q48 35 103 54.5t100 19.5q67 0 102.5 -30t35.5 -67z" />
    <glyph glyph-name="d" unicode="d" horiz-adv-x="558" 
d="M623 680q0 -4 -12 -35q-5 -14 -14 -40.5t-16 -46.5l-107 -314q-43 -126 -43 -172q0 -18 13 -18q16 0 45 22.5t50 55.5l9 -4q-35 -60 -93 -98.5t-122 -38.5q-32 0 -55 18.5t-23 52.5q0 31 6 53h-3q-18 -39 -45 -71q-47 -53 -102 -53q-111 0 -111 132q0 80 50.5 158.5
t126 126.5t146.5 48q31 0 47 -11h2l41 126q13 39 13 61t-13 33q-11 11 -37 14l2 5h241q4 0 4 -4zM347 402q0 36 -19 36q-21 0 -50 -54q-32 -59 -70.5 -163.5t-38.5 -136.5q0 -34 17 -34q21 0 45 41q28 46 45 98q10 30 30 80.5t30.5 82.5t10.5 50z" />
    <glyph glyph-name="e" unicode="e" horiz-adv-x="470" 
d="M470 360q0 -41 -41 -74q-22 -17 -83.5 -40.5t-135.5 -39.5q-11 -64 -11 -114q0 -27 12 -46t35 -19q22 0 43.5 7t36 14.5t31 23.5t24 24.5t21.5 26.5t16 21l8 -6q-37 -63 -102 -105t-155 -42q-68 0 -111 45t-43 130q0 145 144 234q92 56 178 56q68 0 100.5 -26.5
t32.5 -69.5zM355 403q0 39 -23 39q-38 0 -69.5 -64t-49.5 -156q62 18 85 37q26 22 41.5 69.5t15.5 74.5z" />
    <glyph glyph-name="f" unicode="f" horiz-adv-x="327" 
d="M527 593q0 -24 -17 -42.5t-47 -18.5t-47 14.5t-17 40.5q0 10 2.5 32.5t2.5 30.5q0 20 -17 20q-21 0 -29 -23q-7 -20 -53 -200h89l-7 -22h-88q-21 -82 -40.5 -147t-45 -133.5t-51.5 -119.5t-60 -97.5t-71.5 -76t-83.5 -47t-99 -17.5q-42 0 -74.5 22.5t-32.5 64.5
q0 28 19 44t40 16q59 0 63 -49q1 -11 -3.5 -35t-3.5 -29q3 -17 20 -17q23 0 38 11t30 39q21 38 40.5 107.5t53 214.5t54.5 227l6 22h-61l6 22h62q75 237 281 237q68 0 104.5 -27.5t36.5 -63.5z" />
    <glyph glyph-name="g" unicode="g" horiz-adv-x="463" 
d="M547 414q0 -25 -14 -36.5t-34 -11.5q-27 0 -49 31q-2 3 -5 8.5t-5 8.5t-5 7t-5 5.5t-4 1.5q-17 0 -17 -42q0 -8 8 -32q8 -20 8 -40q0 -44 -20 -76t-53 -48t-67.5 -23.5t-70.5 -7.5q-28 0 -53 7t-29 7q-32 0 -32 -22q0 -16 50 -25q13 -2 72 -11q112 -17 149.5 -46.5
t37.5 -86.5q0 -85 -89.5 -140t-201.5 -55q-93 0 -154 25t-61 79q0 37 42.5 60t110.5 23v2q-41 15 -58 39.5t-17 63.5q0 85 138 103q-67 38 -67 118q0 44 20.5 76t54 48.5t68.5 24t71 7.5q85 0 130 -55h3q1 32 23.5 51.5t55.5 19.5q29 0 49 -14.5t20 -43.5zM290 407
q0 35 -25 35q-24 0 -38 -34q-13 -35 -27 -99t-14 -101q0 -36 26 -36q25 0 38 32q13 34 26.5 100t13.5 103zM297 -109q0 25 -30.5 35.5t-119.5 26.5q-31 6 -63 11q-40 0 -70.5 -19.5t-30.5 -59.5q0 -86 137 -86q75 0 126 28t51 64z" />
    <glyph glyph-name="h" unicode="h" horiz-adv-x="601" 
d="M586 129q-34 -59 -97 -98.5t-128 -39.5q-31 0 -52.5 19.5t-21.5 53.5q0 43 52 167q49 115 49 138q0 22 -19 22q-47 0 -150 -256q-25 -64 -49 -135h-180l188 571q13 39 13 61t-13 33q-11 11 -37 14l2 5h241q4 0 4 -4t-12 -35q-11 -28 -30 -87l-96 -299h7q49 104 100 150.5
t97 46.5q55 0 79 -24.5t24 -71.5q0 -12 -2 -24t-3.5 -20.5t-7.5 -24.5t-8.5 -23.5t-12 -30t-13.5 -32.5q-41 -100 -41 -131q0 -19 12 -19q16 0 45.5 22.5t50.5 56.5z" />
    <glyph glyph-name="i" unicode="i" horiz-adv-x="337" 
d="M347 580q0 -34 -24 -58.5t-59 -24.5t-58.5 24.5t-23.5 58.5t23.5 59t58.5 25t59 -25t24 -59zM321 129q-34 -59 -97 -98.5t-128 -39.5q-31 0 -52.5 19.5t-21.5 53.5q0 10 3 24t9 32.5t11 33.5t14 38.5t13 35.5q1 4 17.5 44.5t24 65.5t7.5 41q0 13 -4.5 16.5t-14.5 3.5
q-12 0 -37 -23t-49 -61l-11 6q78 135 213 135q32 0 53 -20t21 -55t-46 -157q-44 -117 -44 -150q0 -19 15 -19q16 0 45 22.5t50 56.5z" />
    <glyph glyph-name="j" unicode="j" horiz-adv-x="302" 
d="M357 584q0 -34 -24 -58.5t-59 -24.5t-58.5 24.5t-23.5 58.5t23.5 59t58.5 25t59 -25t24 -59zM302 381q0 -23 -26 -104t-50 -141q-44 -110 -77.5 -166.5t-77.5 -99.5q-87 -83 -191 -83q-55 0 -97 29t-42 77q0 37 22.5 60.5t57.5 23.5q38 0 59 -24t21 -53q0 -31 -21 -59
q-2 -3 -7 -8t-7.5 -8.5t-2.5 -6.5q0 -15 19 -15q33 0 60 43q13 21 35.5 79.5t50.5 140t31 90.5q72 197 72 223q0 13 -4.5 16.5t-14.5 3.5q-12 0 -37 -23t-49 -61l-11 6q78 135 208 135q79 0 79 -75z" />
    <glyph glyph-name="k" unicode="k" horiz-adv-x="588" 
d="M601 375q0 -38 -21 -60t-51 -22q-29 0 -48.5 16.5t-19.5 47.5q0 17 9 34q3 5 7 11.5t6.5 10.5t2.5 5q0 7 -7 7q-6 0 -11 -3t-11.5 -11.5t-10.5 -15t-13.5 -24t-15.5 -27.5q-39 -66 -80 -79v-4q61 -5 97.5 -35t38.5 -84q2 -57 4 -68q3 -21 18 -21t42 23.5t49 58.5l9 -6
q-35 -61 -92 -99.5t-121 -38.5q-32 0 -58 19.5t-26 53.5q0 38 15.5 90t15.5 63q0 12 -1.5 19t-11 14t-28.5 7h-37l-81 -257h-180l188 571q13 39 13 61t-13 33q-11 11 -37 14l2 5h241q4 0 4 -4q0 -9 -10 -35q-25 -64 -32 -87l-91 -288h37q70 0 111 81q28 55 51 80
q25 25 63 25q39 0 61.5 -22.5t22.5 -58.5z" />
    <glyph glyph-name="l" unicode="l" horiz-adv-x="310" 
d="M370 680q0 -4 -12 -35l-32 -87q-17 -48 -57 -176t-50 -158q-43 -124 -43 -150q0 -19 15 -19q16 0 45 22.5t50 56.5l9 -5q-35 -59 -96 -98.5t-125 -39.5q-74 0 -74 73q0 31 55 189q10 30 103 318q13 39 13 61t-13 33q-11 11 -37 14l2 5h243q4 0 4 -4z" />
    <glyph glyph-name="m" unicode="m" horiz-adv-x="900" 
d="M885 129q-34 -59 -97 -98.5t-128 -39.5q-31 0 -52.5 19.5t-21.5 53.5q0 43 52 167q47 111 47 138q0 22 -18 22q-21 0 -67 -79.5t-99 -210.5l-34 -101h-184l78 236q6 17 13.5 40t11 34t7.5 24t5.5 21t1.5 14q0 22 -18 22q-12 0 -32 -25t-51 -85t-66 -146q-26 -64 -49 -135
h-176l89 268q23 69 23 105q0 30 -21 30q-13 0 -36 -24t-47 -64l-11 6q78 135 190 135q42 0 64.5 -20.5t22.5 -56.5q0 -59 -18 -120h7q47 108 100.5 152.5t103.5 44.5q55 0 77 -24t22 -72q0 -30 -21 -101h3q93 197 195 197q55 0 79 -24.5t24 -71.5q0 -44 -39 -140l-6 -15
q-41 -100 -41 -131q0 -19 12 -19q16 0 45.5 22.5t50.5 56.5z" />
    <glyph glyph-name="n" unicode="n" horiz-adv-x="615" 
d="M600 129q-34 -59 -97.5 -98.5t-128.5 -39.5q-31 0 -52.5 19.5t-21.5 53.5q0 40 53 167q49 115 49 138q0 22 -19 22q-48 0 -151 -256q-26 -64 -49 -135h-176l89 268q24 72 24 105q0 30 -21 30q-13 0 -36 -24t-47 -64l-11 6q78 135 189 135q42 0 65 -20.5t23 -56.5
q0 -59 -18 -120h7q49 104 100 150.5t97 46.5q55 0 78.5 -24t23.5 -72q0 -12 -2 -24t-3.5 -20.5t-7.5 -24.5t-8.5 -23.5t-12 -30t-13.5 -32.5q-41 -100 -41 -131q0 -19 13 -19q16 0 45 22.5t50 56.5z" />
    <glyph glyph-name="o" unicode="o" horiz-adv-x="510" 
d="M490 267q0 -58 -27 -114t-71 -94q-78 -68 -191 -68q-85 0 -135.5 52.5t-50.5 136.5q0 58 27 114t71 94q78 68 191 68q85 0 135.5 -52.5t50.5 -136.5zM336 420q0 10 -6.5 17.5t-17.5 7.5q-7 0 -13 -2.5t-15.5 -14t-19.5 -33.5q-25 -53 -60 -180t-35 -179q0 -34 24 -34
q26 0 47 45q29 63 62.5 183.5t33.5 189.5z" />
    <glyph glyph-name="p" unicode="p" horiz-adv-x="591" 
d="M576 302q0 -61 -29 -122.5t-79 -111.5q-77 -77 -189 -77q-58 0 -86 17l-33 -97q-14 -40 -14 -67q0 -32 24 -45q16 -10 40 -14l-1 -4h-333l1 4q40 9 53 21q21 18 37 67q123 374 129 395q24 78 24 105q0 30 -21 30q-13 0 -36 -24t-47 -64l-11 6q78 135 189 135
q43 0 68 -20.5t25 -56.5q0 -22 -5 -45h6q58 122 148 122q61 0 100.5 -36.5t39.5 -117.5zM413 397q0 11 -6.5 20.5t-15.5 9.5q-22 0 -49 -32q-35 -41 -55 -96q-16 -43 -48.5 -147.5t-34.5 -110.5q2 -12 14 -21t28 -9q20 0 34.5 15.5t39.5 64.5q28 56 60.5 154t32.5 152z" />
    <glyph glyph-name="q" unicode="q" horiz-adv-x="546" 
d="M556 457l-181 -546q-15 -43 -15 -68q0 -33 25 -45q13 -7 40 -13l-1 -4h-353l1 4q47 11 69 29q28 24 53 96l70 205h-6q-18 -39 -45 -71q-47 -53 -102 -53q-111 0 -111 132q0 79 53 158t131 127t149 48q39 0 65 -13.5t34.5 -27t11.5 -27.5h6l94 69h12zM347 402q0 36 -19 36
q-21 0 -50 -54q-32 -59 -70.5 -163.5t-38.5 -136.5q0 -34 17 -34q10 0 23 12t22 29q32 60 45 98q10 30 30 80.5t30.5 82.5t10.5 50z" />
    <glyph glyph-name="r" unicode="r" horiz-adv-x="485" 
d="M509 368q0 -42 -19 -69t-54 -27q-56 0 -77 49q-4 10 -8 22.5t-6 17t-6 4.5q-13 0 -106 -230q-32 -81 -50 -135h-176l89 268q24 72 24 105q0 30 -21 30q-13 0 -36 -24t-47 -64l-11 6q78 135 189 135q42 0 65 -20.5t23 -56.5q0 -49 -21 -120h7q38 115 73.5 156t80.5 41
q87 0 87 -88z" />
    <glyph glyph-name="s" unicode="s" horiz-adv-x="398" 
d="M384 363q0 -26 -17.5 -42.5t-45.5 -16.5q-24 0 -40.5 15t-19.5 36q-2 12 -1.5 33.5t-2.5 29.5q-6 25 -36 25q-39 0 -39 -45q0 -46 85 -101q101 -65 101 -145q0 -68 -63.5 -114.5t-146.5 -46.5q-72 0 -115 28.5t-43 78.5q0 30 17.5 46.5t42.5 16.5q50 0 59 -50
q2 -12 0.5 -36.5t-0.5 -32.5q3 -18 18.5 -27.5t32.5 -9.5q74 0 74 59q0 17 -14 31.5t-63 51.5q-16 12 -25 19q-38 29 -56.5 60t-18.5 75q0 76 49 115.5t117 39.5q67 0 109 -23t42 -70z" />
    <glyph glyph-name="t" unicode="t" horiz-adv-x="328" 
d="M393 425h-100l-72 -201q-49 -139 -49 -155t14 -16q19 0 50 24.5t54 56.5l10 -5q-34 -59 -97.5 -98.5t-128.5 -39.5q-31 0 -52.5 19.5t-21.5 53.5q0 28 48 164l76 197h-69l8 22h69l48 130h165l-45 -130h101z" />
    <glyph glyph-name="u" unicode="u" horiz-adv-x="610" 
d="M600 128q-36 -61 -87.5 -99t-109.5 -38q-40 0 -63.5 23.5t-23.5 69.5q0 27 23 104h-7q-56 -119 -103 -158t-106 -39q-38 0 -64.5 26t-26.5 70q0 12 2 24t3.5 20.5t7.5 24.5t8.5 23.5t12 30t13.5 32.5q41 100 41 131q0 30 -22 30q-13 0 -36 -24t-47 -64l-10 7
q77 134 189 134q51 0 78 -24t27 -59q0 -40 -49 -157q-49 -115 -49 -138q0 -22 19 -22q47 0 150 256q26 65 49 135h176l-89 -268q-23 -69 -23 -105q0 -22 18 -22q15 0 41.5 23t48.5 58z" />
    <glyph glyph-name="v" unicode="v" horiz-adv-x="464" 
d="M464 380q0 -46 -25 -116.5t-57 -119.5q-44 -66 -109.5 -109.5t-147.5 -43.5q-40 0 -66 25.5t-26 70.5q0 12 2 24t3.5 20.5t7.5 24.5t8.5 23.5t12 30t13.5 32.5q40 97 40 131q0 30 -21 30q-13 0 -36 -24t-47 -64l-11 7q77 134 189 134q50 0 76.5 -29.5t26.5 -66.5
q0 -32 -40 -127q-5 -11 -7 -17q-48 -113 -48 -138q0 -13 8 -23t22 -10q52 0 118 82.5t66 160.5q0 34 -25 75q-20 32 -20 47q0 22 13.5 34t29.5 12q50 0 50 -76z" />
    <glyph glyph-name="w" unicode="w" horiz-adv-x="783" 
d="M778 377q0 -53 -19.5 -133.5t-55.5 -136.5q-75 -115 -205 -115q-71 0 -118 44q-88 -44 -176 -44q-63 0 -101.5 36t-38.5 100q0 58 47.5 103t103.5 73q-16 7 -77 45q-7 4 -17.5 11.5t-16 10.5t-13 7t-14 5.5t-13.5 1.5q-3 0 -7 -3.5t-4 -6.5t5.5 -7.5t13.5 -10t11 -7.5
q22 -19 22 -35q0 -24 -14.5 -40t-39.5 -16t-38 16t-13 39q0 29 49 78q62 64 111 64q30 0 80 -36q45 -33 66 -33q13 0 25 11t19 28q7 18 12 24t16 6q7 0 12 -4.5t5 -11.5q0 -9 -27 -28q-7 -4 -26 -31q-89 -123 -89 -262q0 -33 15 -54t46 -21q24 0 50 9q-33 42 -33 93
q0 77 38.5 146.5t92.5 116.5q55 47 92 47q25 0 42.5 -20.5t17.5 -63.5q0 -116 -93 -225q25 -77 94 -77q44 0 74 46q44 66 44 173q0 16 -18 44.5t-22 36.5q-10 23 -10 35q0 17 12 32.5t34 15.5q21 0 35 -20.5t14 -55.5zM589 362q0 32 -12 47t-28 15q-19 0 -33 -28.5
t-14 -88.5q0 -81 11 -133q76 96 76 188z" />
    <glyph glyph-name="x" unicode="x" horiz-adv-x="568" 
d="M588 386q0 -33 -19.5 -65.5t-47.5 -54.5l-7 2q24 55 24 110q0 57 -33 57q-13 0 -32.5 -15t-35.5 -39q-29 -43 -62 -160q-19 -72 -19 -94q0 -40 10 -56.5t38 -16.5q27 0 54.5 25.5t44.5 54.5l8 -5q-28 -56 -80.5 -97t-113.5 -41q-66 0 -89.5 32t-23.5 93q0 9 5 39h-4
q-29 -61 -79.5 -112.5t-92.5 -51.5q-28 0 -45.5 18t-17.5 52q0 33 19.5 65.5t47.5 54.5l7 -2q-24 -55 -24 -110q0 -57 33 -57q13 0 32.5 15t35.5 39q31 45 63 160q18 68 18 94q0 40 -10 56.5t-38 16.5q-27 0 -54.5 -25.5t-44.5 -54.5l-8 5q28 56 80.5 97t113.5 41
q66 0 89.5 -31.5t22.5 -93.5q0 -15 -4 -39h4q29 61 79.5 112.5t92.5 51.5q28 0 45.5 -18t17.5 -52z" />
    <glyph glyph-name="y" unicode="y" horiz-adv-x="433" 
d="M423 406q0 -77 -33 -163t-85 -159t-100 -128t-93 -94q-84 -75 -149 -75q-42 0 -65.5 21t-23.5 50t18.5 45.5t38.5 16.5q25 0 37 -7.5t28 -26.5q31 -37 52 -37q20 0 50 27q6 6 21 19t28 25t23 24q-7 220 -52 357q-20 62 -30 72q-9 9 -20 9q-36 0 -70 -67l-11 6
q63 135 179 135q78 0 113 -111q11 -37 19 -105.5t8 -121.5h3q63 103 63 178q0 50 -20 75q-17 23 -17 36q0 25 13 37t31 12q19 0 31.5 -14.5t12.5 -35.5z" />
    <glyph glyph-name="z" unicode="z" horiz-adv-x="503" 
d="M519 421q0 -28 -33 -45q-9 -5 -44 -27t-44 -29q-20 -15 -101.5 -70.5t-112.5 -78.5q24 4 39 4q40 0 87 -10q71 -16 80 -16q52 0 69 30q13 21 21 38l11 -4q-10 -34 -16.5 -54.5t-18.5 -50t-25 -47t-31 -35.5t-41.5 -26t-51.5 -8q-69 0 -110 51q-5 6 -13.5 17t-13 16
t-11 13t-10.5 11.5t-9.5 8t-10 6t-9.5 1.5q-33 0 -62 -90q-5 -14 -17 -24t-26 -10q-30 0 -30 31q0 23 33 46l75 56l261 187q-12 -5 -53 -5q-61 0 -117 23q-66 27 -75 27q-22 0 -38.5 -14.5t-16.5 -40.5q0 -13 13 -21q13 47 58 47q23 0 40.5 -16t17.5 -41q0 -26 -17.5 -44
t-42.5 -18q-37 0 -60.5 28.5t-23.5 81.5q0 61 40.5 99t97.5 38q37 0 61 -11.5t47 -36.5q7 -8 22.5 -30t28.5 -34.5t26 -12.5q27 0 49 26.5t31 61.5q10 37 41 37q17 0 26.5 -10.5t9.5 -24.5z" />
    <glyph glyph-name="braceleft" unicode="{" horiz-adv-x="401" 
d="M299 -145q-130 0 -191 37.5t-61 114.5q0 21 27.5 107t27.5 98q-1 34 -16 44.5t-60 14.5l3 15q47 0 64 13q31 25 50 103l21 87q43 187 327 187l-3 -11q-49 0 -79.5 -36.5t-52.5 -114.5q-20 -69 -24 -89q-14 -63 -77 -102t-160 -43l-1 -3q96 -3 136.5 -42t40.5 -96
q0 -11 -23 -92.5t-23 -99.5q0 -74 76 -81z" />
    <glyph glyph-name="bar" unicode="|" horiz-adv-x="203" 
d="M113 -99h-33v786h33v-786z" />
    <glyph glyph-name="braceright" unicode="}" horiz-adv-x="338" 
d="M49 677q132 0 190.5 -33t58.5 -109q0 -21 -26 -112t-26 -103q1 -34 16 -44.5t60 -14.5l-3 -15q-47 0 -64 -13q-31 -25 -50 -103l-21 -87q-43 -187 -327 -187l3 11q49 0 79.5 36.5t52.5 114.5q20 69 24 89q14 63 77 102t160 43l1 3q-96 3 -136.5 42t-40.5 96q0 11 23 92.5
t23 99.5q0 74 -76 81z" />
    <glyph glyph-name="nbspace" unicode="&#xa0;" horiz-adv-x="200" 
 />
    <glyph glyph-name="exclamdown" unicode="&#xa1;" horiz-adv-x="306" 
d="M1 83q0 14 5.5 31.5t20 43t24.5 41.5t33.5 52.5t32.5 50.5q61 96 87 149h11q-1 -17 -1 -33t0.5 -50t0.5 -70q0 -54 5 -112t5 -74q0 -55 -32 -91.5t-93 -36.5q-45 0 -72 29t-27 70zM184 591q0 33 22.5 56t56.5 23t56 -23t22 -56t-22.5 -56.5t-55.5 -23.5t-56 23.5
t-23 56.5z" />
    <glyph glyph-name="cent" unicode="&#xa2;" horiz-adv-x="488" 
d="M493 359q0 -29 -20.5 -48.5t-50.5 -19.5q-29 0 -46.5 17.5t-17.5 44.5q0 13 6.5 38t6.5 34q0 15 -26 17l-104 -392q13 -5 29 -5q36 0 77 31.5t71 67.5l8 -6q-75 -121 -200 -142l-25 -96l-19 5l23 88q-24 -2 -36 -2q-66 0 -110 46t-44 119q0 67 36 126.5t91 99.5
q88 66 187 73l21 81l19 -5l-20 -75q66 -1 105 -31.5t39 -65.5zM324 439q-52 -19 -88.5 -129.5t-36.5 -175.5q0 -54 24 -74z" />
    <glyph glyph-name="sterling" unicode="&#xa3;" horiz-adv-x="659" 
d="M721 553q0 -58 -36.5 -87.5t-90.5 -29.5q-39 0 -76 23t-44 54l8 4q7 -16 31 -26.5t44 -10.5q32 0 57 28t25 69q0 77 -63 77q-35 0 -65.5 -26.5t-43.5 -78.5q-43 -174 -64 -234h105l-5 -20h-107q-23 -63 -44 -103q35 -3 62 -3q82 0 128 17.5t72 61.5l11 -4
q0 -104 -78.5 -197t-189.5 -93q-79 0 -134 59q-70 -48 -158 -48q-50 0 -87.5 24t-37.5 79q0 53 49 91.5t122 38.5q23 0 84 -7q-16 66 -18 84h-80l5 20h74q0 73 27.5 134.5t69.5 101.5t95 68t102 40t92 12q159 0 159 -118zM190 68q-32 32 -48.5 46.5t-45 29.5t-57.5 15
q-32 0 -54 -18.5t-22 -53.5q0 -36 28 -60.5t73 -24.5q40 0 73.5 19t52.5 47z" />
    <glyph glyph-name="yen" unicode="&#xa5;" horiz-adv-x="496" 
d="M460 216l-7 -21h-143q-20 -86 -20 -113q0 -22 9 -38t24 -24t26.5 -11t23.5 -4l-1 -5h-402l1 5q62 5 92 46t55 144h-141l7 21h139l21 88h-138l6 21h123l-71 218q-30 95 -94 109l1 5h363l-1 -5q-73 -6 -73 -55q0 -23 16 -76l53 -177h5l137 169q44 54 44 95q0 39 -51 44l1 5
h207l-1 -5q-41 -9 -77.5 -37t-107.5 -114l-145 -176h147l-6 -21h-146l-22 -88h146z" />
    <glyph glyph-name="section" unicode="&#xa7;" horiz-adv-x="516" 
d="M536 578q0 -26 -17 -45t-49 -19q-27 0 -43 16.5t-16 39.5q0 10 3.5 32t3.5 30q0 23 -58 23q-26 0 -43.5 -19t-17.5 -42q0 -9 2 -17.5t3.5 -14t7 -14t8 -12.5t12 -13.5l12.5 -12.5t16 -15t17 -15q43 -39 59.5 -57t29.5 -50.5t13 -77.5q0 -56 -44 -100.5t-111 -62.5
q48 -59 48 -125q0 -86 -75.5 -139t-157.5 -53q-80 0 -124.5 25t-44.5 67q0 26 17.5 45t49.5 19q27 0 43 -16.5t16 -39.5q0 -10 -4 -29t-4 -27q0 -11 17.5 -20t41.5 -9q37 0 52.5 21.5t15.5 49.5q0 21 -4 36.5t-14.5 29t-17 20t-25 20.5t-24.5 19q-59 48 -80.5 83.5
t-21.5 101.5q0 57 45.5 103.5t111.5 60.5q-41 53 -41 113q0 86 70.5 134t152.5 48q80 0 124.5 -25t44.5 -67zM179 308q0 -37 17.5 -59t64.5 -58q9 -7 13 -10q24 -20 34 -30q19 16 19 47q0 21 -8 37.5t-16.5 25.5t-32 29.5t-38.5 34.5q-18 17 -32 32q-21 -16 -21 -49z" />
    <glyph glyph-name="dieresis" unicode="&#xa8;" horiz-adv-x="451" 
d="M130 646q31 0 53 -22.5t22 -53.5q0 -30 -21.5 -52t-53.5 -22t-53 21.5t-21 52.5t21.5 53.5t52.5 22.5zM321 646q31 0 53 -22.5t22 -53.5q0 -30 -21.5 -52t-53.5 -22t-53 21.5t-21 52.5t21.5 53.5t52.5 22.5z" />
    <glyph glyph-name="copyright" unicode="&#xa9;" horiz-adv-x="869" 
d="M854 260q0 -171 -121.5 -293t-291.5 -122q-171 0 -293.5 122t-122.5 293q0 170 122.5 291.5t293.5 121.5q170 0 291.5 -121.5t121.5 -291.5zM831 260q0 163 -116 278t-274 115t-275.5 -115t-117.5 -278q0 -108 54.5 -200t145 -144t193.5 -52q158 0 274 115.5t116 280.5z
M628 193q-14 -64 -63 -112.5t-121 -48.5q-121 0 -179 61q-66 69 -66 172q0 106 72.5 165t179.5 59q95 0 142 -56h2l22 36h6v-177h-12q-7 29 -11 43.5t-13 40t-18.5 38.5t-24 28t-34 21.5t-44.5 6.5q-37 0 -58 -34q-25 -42 -25 -165q0 -98 34 -168q15 -32 54 -32
q101 0 145 127z" />
    <glyph glyph-name="ordfeminine" unicode="&#xaa;" horiz-adv-x="498" 
d="M530 383q-31 -53 -87.5 -88t-114.5 -35q-28 0 -45.5 16.5t-17.5 47.5q0 25 7 48h-3q-15 -34 -40 -64q-42 -48 -92 -48q-51 0 -75.5 27.5t-24.5 91.5q0 110 87 204.5t185 94.5q27 0 41.5 -10.5t16.5 -25.5h6q8 14 18 28h132l-59 -182q-43 -126 -43 -149q0 -21 16 -21
q14 0 40 20t45 50zM348 629q0 19 -3.5 25.5t-12.5 6.5q-19 0 -45 -47q-29 -54 -63.5 -147.5t-34.5 -121.5q0 -14 2.5 -21.5t5 -8.5t7.5 -1q18 0 41 37q24 41 40 87q20 47 41.5 106t21.5 85z" />
    <glyph glyph-name="guillemotleft" unicode="&#xab;" horiz-adv-x="464" 
d="M474 415l-124 -173l58 -169l-9 -7l-169 175l2 8l235 176zM274 415l-124 -173l58 -169l-9 -7l-169 175l2 8l235 176z" />
    <glyph glyph-name="registered" unicode="&#xae;" horiz-adv-x="528" 
d="M528 420q0 -103 -74 -176.5t-177 -73.5q-104 0 -178 73.5t-74 176.5t74 176.5t178 73.5q103 0 177 -73.5t74 -176.5zM505 420q0 93 -67.5 161.5t-160.5 68.5t-161 -68.5t-68 -161.5q0 -94 67.5 -162.5t161.5 -68.5q93 0 160.5 68.5t67.5 162.5zM438 289h-123
q-12 19 -17 58q-1 7 -1.5 18t-1 17t-2.5 14t-6 15q-9 18 -28 18h-11v-76q0 -28 2 -35q3 -12 12 -15q10 -4 23 -4v-10h-166v10q11 0 21 4t13 15q2 7 2 35v155q0 28 -2 35q-3 11 -13 15t-21 4v10h168q110 0 110 -69q0 -28 -24.5 -46t-72.5 -20v-1q46 -4 67 -20t29 -57
q9 -47 24 -55q8 -5 18 -5v-10zM296 503q0 32 -5.5 43.5t-26.5 11.5h-16v-115h15q20 0 26.5 14t6.5 46z" />
    <glyph glyph-name="macron" unicode="&#xaf;" horiz-adv-x="396" 
d="M345 536h-250l16 62h250z" />
    <glyph glyph-name="degree" unicode="&#xb0;" horiz-adv-x="299" 
d="M314 544q0 -56 -38 -92t-87 -36t-87 36t-38 92t38 92t87 36t87 -36t38 -92zM267 544q0 56 -21 85.5t-57 29.5t-57 -29.5t-21 -85.5t21 -85.5t57 -29.5t57 29.5t21 85.5z" />
    <glyph glyph-name="acute" unicode="&#xb4;" horiz-adv-x="300" 
d="M297 613q0 -49 -75 -76q-72 -26 -191 -54l-1 5q90 111 125 146q43 45 77 45q65 0 65 -66z" />
    <glyph glyph-name="paragraph" unicode="&#xb6;" horiz-adv-x="505" 
d="M591 641h-82l-198 -792h-22l198 792h-106l-198 -792h-21l94 377h-20q-91 0 -148.5 51t-57.5 127q0 114 79.5 183.5t209.5 69.5h276z" />
    <glyph glyph-name="periodcentered" unicode="&#xb7;" horiz-adv-x="315" 
d="M245 278q0 -36 -25 -61.5t-63 -25.5t-62.5 25.5t-24.5 61.5q0 37 25 63t62 26q36 0 62 -26.5t26 -62.5z" />
    <glyph glyph-name="cedilla" unicode="&#xb8;" horiz-adv-x="343" 
d="M219 -107q0 -84 -146 -84q-31 0 -65 18l4 7q22 -9 50 -9q35 0 53 19t18 51q0 19 -11 34.5t-24 15.5q-16 0 -26 -9l-12 4l33 60h16l-26 -47q19 13 56 13q80 0 80 -73z" />
    <glyph glyph-name="ordmasculine" unicode="&#xba;" horiz-adv-x="459" 
d="M475 500q0 -52 -24 -102.5t-64 -84.5q-69 -61 -172 -61q-77 0 -122 47.5t-45 122.5q0 52 24 102.5t64 84.5q69 61 172 61q76 0 121.5 -47.5t45.5 -122.5zM336 636q0 9 -6 16t-15 7q-7 0 -12 -2t-13.5 -12t-17.5 -29q-23 -48 -54.5 -162t-31.5 -160q0 -30 22 -30
q25 0 42 38q26 56 56 164t30 170z" />
    <glyph glyph-name="guillemotright" unicode="&#xbb;" horiz-adv-x="474" 
d="M454 250l-2 -8l-235 -176l-7 10l124 173l-58 169l9 7zM254 250l-2 -8l-235 -176l-7 10l124 173l-58 169l9 7z" />
    <glyph glyph-name="questiondown" unicode="&#xbf;" horiz-adv-x="461" 
d="M435 604q0 -27 -18.5 -46t-45.5 -19t-47 19t-20 46t20 46t47 19t45.5 -19t18.5 -46zM451 399q0 -65 -42.5 -99t-134.5 -56q-89 -21 -117 -54t-28 -87q0 -43 26.5 -70t85.5 -27q38 0 69.5 31t31.5 74q0 38 -19 55.5t-46 17.5q-9 0 -18 -9.5t-10 -18.5q40 -12 40 -52
q0 -24 -15.5 -40t-39.5 -16q-25 0 -40.5 16t-15.5 42q0 31 49.5 67.5t102.5 36.5q41 0 64 -25.5t23 -62.5q0 -57 -65.5 -97.5t-142.5 -40.5q-93 0 -151 45t-58 115q0 94 55 156.5t152 87.5q63 16 86 31t23 39q0 11 -10 19.5t-23 8.5q-28 0 -53 -35l-5 5q25 63 95 63
q56 0 93.5 -32t37.5 -88z" />
    <glyph glyph-name="Agrave" unicode="&#xc0;" horiz-adv-x="646" 
d="M631 657l-113 -439q-24 -92 -24 -136q0 -50 39 -65q29 -11 43 -12l-1 -5h-382l1 5q19 2 36 9q30 12 48 45q20 37 48 155l9 38h-170l-95 -112q-32 -39 -32 -74q0 -30 25 -44t54 -17l-1 -5h-261l1 5q23 3 51 16q64 31 132 111l446 525h146zM404 528h-5l-217 -256h158z
M671 698l-4 -6q-6 1 -60.5 10t-85.5 13q-113 15 -113 71q0 30 17 48.5t39 18.5q37 0 78 -36q34 -30 129 -119z" />
    <glyph glyph-name="Aacute" unicode="&#xc1;" horiz-adv-x="646" 
d="M631 657l-113 -439q-24 -92 -24 -136q0 -50 39 -65q29 -11 43 -12l-1 -5h-382l1 5q19 2 36 9q30 12 48 45q20 37 48 155l9 38h-170l-95 -112q-32 -39 -32 -74q0 -30 25 -44t54 -17l-1 -5h-261l1 5q23 3 51 16q64 31 132 111l446 525h146zM404 528h-5l-217 -256h158z
M455 691l-4 6q96 84 139 124q34 33 75 33q24 0 41.5 -18.5t17.5 -50.5q0 -47 -69 -62q-32 -7 -200 -32z" />
    <glyph glyph-name="Acircumflex" unicode="&#xc2;" horiz-adv-x="646" 
d="M631 657l-113 -439q-24 -92 -24 -136q0 -50 39 -65q29 -11 43 -12l-1 -5h-382l1 5q19 2 36 9q30 12 48 45q20 37 48 155l9 38h-170l-95 -112q-32 -39 -32 -74q0 -30 25 -44t54 -17l-1 -5h-261l1 5q23 3 51 16q64 31 132 111l446 525h146zM404 528h-5l-217 -256h158z
M703 707l-4 -4l-123 57l-173 -59l-1 5l154 142h66z" />
    <glyph glyph-name="Atilde" unicode="&#xc3;" horiz-adv-x="646" 
d="M631 657l-113 -439q-24 -92 -24 -136q0 -50 39 -65q29 -11 43 -12l-1 -5h-382l1 5q19 2 36 9q30 12 48 45q20 37 48 155l9 38h-170l-95 -112q-32 -39 -32 -74q0 -30 25 -44t54 -17l-1 -5h-261l1 5q23 3 51 16q64 31 132 111l446 525h146zM404 528h-5l-217 -256h158z
M744 853h11q-17 -61 -52 -97.5t-86 -36.5q-23 0 -67 13t-59 13q-21 0 -31.5 -1t-25 -9.5t-23.5 -26.5h-11q33 128 143 128q14 0 54.5 -12t65.5 -12q31 0 49 7t32 34z" />
    <glyph glyph-name="Adieresis" unicode="&#xc4;" horiz-adv-x="646" 
d="M631 657l-113 -439q-24 -92 -24 -136q0 -50 39 -65q29 -11 43 -12l-1 -5h-382l1 5q19 2 36 9q30 12 48 45q20 37 48 155l9 38h-170l-95 -112q-32 -39 -32 -74q0 -30 25 -44t54 -17l-1 -5h-261l1 5q23 3 51 16q64 31 132 111l446 525h146zM404 528h-5l-217 -256h158z
M452 854q32 0 54.5 -23t22.5 -55q0 -31 -22 -53.5t-55 -22.5t-54.5 22.5t-21.5 53.5q0 32 22 55t54 23zM688 854q32 0 54.5 -23t22.5 -55q0 -31 -22 -53.5t-55 -22.5t-54.5 22.5t-21.5 53.5q0 32 22 55t54 23z" />
    <glyph glyph-name="Aring" unicode="&#xc5;" horiz-adv-x="646" 
d="M631 657l-113 -439q-24 -92 -24 -136q0 -50 39 -65q29 -11 43 -12l-1 -5h-382l1 5q19 2 36 9q30 12 48 45q20 37 48 155l9 38h-170l-95 -112q-32 -39 -32 -74q0 -30 25 -44t54 -17l-1 -5h-261l1 5q23 3 51 16q64 31 132 111l446 525h146zM404 528h-5l-217 -256h158z
M683 794q1 -38 -28.5 -65.5t-67.5 -27.5q-40 0 -68 26.5t-28 66.5t27.5 66.5t67.5 26.5q41 0 68.5 -26t28.5 -67zM646 793q0 29 -16.5 46.5t-44.5 17.5q-27 0 -43.5 -17.5t-16.5 -45.5q0 -27 16 -44.5t43 -17.5q29 0 45.5 16t16.5 45z" />
    <glyph glyph-name="AE" unicode="&#xc6;" horiz-adv-x="922" 
d="M922 657l-22 -227h-6q-10 75 -53 145q-40 65 -101 65h-27q-30 0 -41.5 -15.5t-21.5 -53.5l-56 -222h21q62 0 102 35q22 19 46 54t32 60h6l-80 -322h-6q4 25 -2.5 66t-19.5 61q-19 30 -81 30h-22l-44 -174q-19 -74 -19 -92q0 -25 10 -36q14 -15 50 -15h11q50 0 136 78
q75 67 121 142h5l-66 -236h-577l1 5q17 1 42 9q34 9 56 46q23 38 54 154l10 38h-215l-95 -112q-32 -39 -32 -74q0 -30 25 -44t54 -17l-1 -5h-266l1 5q23 3 51 16q59 28 129 111l416 488q-7 8 -37.5 19t-41.5 12l1 6h553zM473 613h-6l-285 -340h203z" />
    <glyph glyph-name="Ccedilla" unicode="&#xc7;" horiz-adv-x="597" 
d="M303 -107q0 -84 -146 -84q-31 0 -65 18l4 7q22 -9 50 -9q35 0 53 19t18 51q0 19 -11 34.5t-24 15.5q-16 0 -26 -9l-12 4l32 58q-81 24 -124.5 91.5t-43.5 146.5q0 186 111.5 310t292.5 124q53 0 91 -20t53 -47h3l62 44h6l-62 -245h-7q5 119 -35 185t-101 66
q-37 0 -60 -19t-48 -59q-34 -54 -76.5 -200.5t-42.5 -254.5q0 -43 22.5 -71t60.5 -28q76 0 148 61t111 144l12 -8q-41 -98 -120.5 -165t-171.5 -67q-33 0 -67 8l-23 -41q19 13 56 13q80 0 80 -73z" />
    <glyph glyph-name="Egrave" unicode="&#xc8;" horiz-adv-x="630" 
d="M630 657l-22 -227h-6q-10 75 -53 145q-41 65 -101 65h-27q-27 0 -40 -15t-23 -54l-56 -222h21q62 0 102 35q22 19 46 54t32 60h6l-80 -322h-6q4 25 -2.5 66t-19.5 61q-19 30 -81 30h-22l-44 -174q-19 -74 -19 -92q0 -29 15 -40t45 -11h11q43 0 129 78q90 81 128 142h5
l-66 -236h-577l1 5q17 1 42 9q34 9 56 46q26 43 54 154l56 226q25 103 25 135q0 50 -39 65q-25 9 -44 11l1 6h553zM516 698l-4 -6q-6 1 -60.5 10t-85.5 13q-113 15 -113 71q0 30 17 48.5t39 18.5q37 0 78 -36q34 -30 129 -119z" />
    <glyph glyph-name="Eacute" unicode="&#xc9;" horiz-adv-x="630" 
d="M630 657l-22 -227h-6q-10 75 -53 145q-41 65 -101 65h-27q-27 0 -40 -15t-23 -54l-56 -222h21q62 0 102 35q22 19 46 54t32 60h6l-80 -322h-6q4 25 -2.5 66t-19.5 61q-19 30 -81 30h-22l-44 -174q-19 -74 -19 -92q0 -29 15 -40t45 -11h11q43 0 129 78q90 81 128 142h5
l-66 -236h-577l1 5q17 1 42 9q34 9 56 46q26 43 54 154l56 226q25 103 25 135q0 50 -39 65q-25 9 -44 11l1 6h553zM300 691l-4 6q96 84 139 124q34 33 75 33q24 0 41.5 -18.5t17.5 -50.5q0 -47 -69 -62q-32 -7 -200 -32z" />
    <glyph glyph-name="Ecircumflex" unicode="&#xca;" horiz-adv-x="630" 
d="M630 657l-22 -227h-6q-10 75 -53 145q-41 65 -101 65h-27q-27 0 -40 -15t-23 -54l-56 -222h21q62 0 102 35q22 19 46 54t32 60h6l-80 -322h-6q4 25 -2.5 66t-19.5 61q-19 30 -81 30h-22l-44 -174q-19 -74 -19 -92q0 -29 15 -40t45 -11h11q43 0 129 78q90 81 128 142h5
l-66 -236h-577l1 5q17 1 42 9q34 9 56 46q26 43 54 154l56 226q25 103 25 135q0 50 -39 65q-25 9 -44 11l1 6h553zM548 707l-4 -4l-123 57l-173 -59l-1 5l154 142h66z" />
    <glyph glyph-name="Edieresis" unicode="&#xcb;" horiz-adv-x="630" 
d="M630 657l-22 -227h-6q-10 75 -53 145q-41 65 -101 65h-27q-27 0 -40 -15t-23 -54l-56 -222h21q62 0 102 35q22 19 46 54t32 60h6l-80 -322h-6q4 25 -2.5 66t-19.5 61q-19 30 -81 30h-22l-44 -174q-19 -74 -19 -92q0 -29 15 -40t45 -11h11q43 0 129 78q90 81 128 142h5
l-66 -236h-577l1 5q17 1 42 9q34 9 56 46q26 43 54 154l56 226q25 103 25 135q0 50 -39 65q-25 9 -44 11l1 6h553zM297 854q32 0 54.5 -23t22.5 -55q0 -31 -22 -53.5t-55 -22.5t-54.5 22.5t-21.5 53.5q0 32 22 55t54 23zM533 854q32 0 54.5 -23t22.5 -55q0 -31 -22 -53.5
t-55 -22.5t-54.5 22.5t-21.5 53.5q0 32 22 55t54 23z" />
    <glyph glyph-name="Igrave" unicode="&#xcc;" horiz-adv-x="414" 
d="M479 657l-1 -6q-21 -2 -42 -8q-34 -9 -56 -46q-26 -43 -54 -154l-56 -225q-25 -103 -25 -136q0 -50 39 -65q29 -11 44 -12l-1 -5h-402l1 5q17 1 42 9q34 9 56 46q26 43 54 154l56 225q25 103 25 136q0 50 -39 65q-25 9 -44 11l1 6h402zM407 698l-4 -6q-6 1 -60.5 10
t-85.5 13q-113 15 -113 71q0 30 17 48.5t39 18.5q37 0 78 -36q34 -30 129 -119z" />
    <glyph glyph-name="Iacute" unicode="&#xcd;" horiz-adv-x="414" 
d="M479 657l-1 -6q-21 -2 -42 -8q-34 -9 -56 -46q-26 -43 -54 -154l-56 -225q-25 -103 -25 -136q0 -50 39 -65q29 -11 44 -12l-1 -5h-402l1 5q17 1 42 9q34 9 56 46q26 43 54 154l56 225q25 103 25 136q0 50 -39 65q-25 9 -44 11l1 6h402zM191 691l-4 6q96 84 139 124
q34 33 75 33q24 0 41.5 -18.5t17.5 -50.5q0 -47 -69 -62q-32 -7 -200 -32z" />
    <glyph glyph-name="Icircumflex" unicode="&#xce;" horiz-adv-x="414" 
d="M479 657l-1 -6q-21 -2 -42 -8q-34 -9 -56 -46q-26 -43 -54 -154l-56 -225q-25 -103 -25 -136q0 -50 39 -65q29 -11 44 -12l-1 -5h-402l1 5q17 1 42 9q34 9 56 46q26 43 54 154l56 225q25 103 25 136q0 50 -39 65q-25 9 -44 11l1 6h402zM439 707l-4 -4l-123 57l-173 -59
l-1 5l154 142h66z" />
    <glyph glyph-name="Idieresis" unicode="&#xcf;" horiz-adv-x="414" 
d="M479 657l-1 -6q-21 -2 -42 -8q-34 -9 -56 -46q-26 -43 -54 -154l-56 -225q-25 -103 -25 -136q0 -50 39 -65q29 -11 44 -12l-1 -5h-402l1 5q17 1 42 9q34 9 56 46q26 43 54 154l56 225q25 103 25 136q0 50 -39 65q-25 9 -44 11l1 6h402zM188 854q32 0 54.5 -23t22.5 -55
q0 -31 -22 -53.5t-55 -22.5t-54.5 22.5t-21.5 53.5q0 32 22 55t54 23zM424 854q32 0 54.5 -23t22.5 -55q0 -31 -22 -53.5t-55 -22.5t-54.5 22.5t-21.5 53.5q0 32 22 55t54 23z" />
    <glyph glyph-name="Eth" unicode="&#xd0;" horiz-adv-x="710" 
d="M27 321l6 25h77l24 94q24 99 24 135q0 50 -39 65q-26 9 -43 11l1 6h355q68 0 118.5 -21t79 -57t42 -79t13.5 -93q0 -90 -42.5 -188t-106.5 -143q-45 -32 -105 -54t-114 -22h-392l1 5q15 1 41 9q35 10 57 46q26 43 54 154l26 107h-77zM492 530q0 110 -62 110h-9
q-24 0 -39 -14.5t-25 -54.5l-57 -225h98l-6 -25h-98l-40 -162q-17 -68 -17 -86q0 -28 12 -42q12 -15 36 -15h13q49 0 90 72q35 62 69.5 191t34.5 251z" />
    <glyph glyph-name="Ntilde" unicode="&#xd1;" horiz-adv-x="638" 
d="M713 657l-1 -5q-2 -1 -12.5 -2.5t-16.5 -3.5q-30 -9 -50 -37q-25 -33 -47 -124l-122 -493h-19l-265 543h-3l-90 -363q-14 -56 -14 -99q0 -51 36 -62q14 -4 38 -6l-1 -5h-221l1 5q24 3 36 6q31 9 53 38q32 41 52 125l69 280q21 87 21 121q0 20 -14.5 40t-35.5 28
q-20 7 -38 9l1 5h268l176 -368h2l46 188q18 72 18 104q0 46 -41 63q-14 6 -39 8l1 5h212zM620 853h11q-17 -61 -52 -97.5t-86 -36.5q-23 0 -67 13t-59 13q-21 0 -31.5 -1t-25 -9.5t-23.5 -26.5h-11q33 128 143 128q14 0 54.5 -12t65.5 -12q31 0 49 7t32 34z" />
    <glyph glyph-name="Ograve" unicode="&#xd2;" horiz-adv-x="667" 
d="M255 3q57 0 95 84q32 68 72.5 210.5t40.5 250.5q0 23 -1.5 38.5t-7 32.5t-17 25.5t-29.5 8.5q-62 0 -100 -84q-32 -68 -72.5 -210.5t-40.5 -250.5q0 -105 60 -105zM401 670q114 0 181.5 -72.5t67.5 -186.5q0 -79 -25 -153t-72 -135.5t-124 -99t-172 -37.5
q-114 0 -181.5 72.5t-67.5 186.5q0 79 25 153t72 135.5t124 99t172 37.5zM527 698l-4 -6q-6 1 -60.5 10t-85.5 13q-113 15 -113 71q0 30 17 48.5t39 18.5q37 0 78 -36q34 -30 129 -119z" />
    <glyph glyph-name="Oacute" unicode="&#xd3;" horiz-adv-x="667" 
d="M255 3q57 0 95 84q32 68 72.5 210.5t40.5 250.5q0 23 -1.5 38.5t-7 32.5t-17 25.5t-29.5 8.5q-62 0 -100 -84q-32 -68 -72.5 -210.5t-40.5 -250.5q0 -105 60 -105zM401 670q114 0 181.5 -72.5t67.5 -186.5q0 -79 -25 -153t-72 -135.5t-124 -99t-172 -37.5
q-114 0 -181.5 72.5t-67.5 186.5q0 79 25 153t72 135.5t124 99t172 37.5zM311 691l-4 6q96 84 139 124q34 33 75 33q24 0 41.5 -18.5t17.5 -50.5q0 -47 -69 -62q-32 -7 -200 -32z" />
    <glyph glyph-name="Ocircumflex" unicode="&#xd4;" horiz-adv-x="667" 
d="M255 3q57 0 95 84q32 68 72.5 210.5t40.5 250.5q0 23 -1.5 38.5t-7 32.5t-17 25.5t-29.5 8.5q-62 0 -100 -84q-32 -68 -72.5 -210.5t-40.5 -250.5q0 -105 60 -105zM401 670q114 0 181.5 -72.5t67.5 -186.5q0 -79 -25 -153t-72 -135.5t-124 -99t-172 -37.5
q-114 0 -181.5 72.5t-67.5 186.5q0 79 25 153t72 135.5t124 99t172 37.5zM559 707l-4 -4l-123 57l-173 -59l-1 5l154 142h66z" />
    <glyph glyph-name="Otilde" unicode="&#xd5;" horiz-adv-x="667" 
d="M255 3q57 0 95 84q32 68 72.5 210.5t40.5 250.5q0 23 -1.5 38.5t-7 32.5t-17 25.5t-29.5 8.5q-62 0 -100 -84q-32 -68 -72.5 -210.5t-40.5 -250.5q0 -105 60 -105zM401 670q114 0 181.5 -72.5t67.5 -186.5q0 -79 -25 -153t-72 -135.5t-124 -99t-172 -37.5
q-114 0 -181.5 72.5t-67.5 186.5q0 79 25 153t72 135.5t124 99t172 37.5zM600 853h11q-17 -61 -52 -97.5t-86 -36.5q-23 0 -67 13t-59 13q-21 0 -31.5 -1t-25 -9.5t-23.5 -26.5h-11q33 128 143 128q14 0 54.5 -12t65.5 -12q31 0 49 7t32 34z" />
    <glyph glyph-name="Odieresis" unicode="&#xd6;" horiz-adv-x="667" 
d="M255 3q57 0 95 84q32 68 72.5 210.5t40.5 250.5q0 23 -1.5 38.5t-7 32.5t-17 25.5t-29.5 8.5q-62 0 -100 -84q-32 -68 -72.5 -210.5t-40.5 -250.5q0 -105 60 -105zM401 670q114 0 181.5 -72.5t67.5 -186.5q0 -79 -25 -153t-72 -135.5t-124 -99t-172 -37.5
q-114 0 -181.5 72.5t-67.5 186.5q0 79 25 153t72 135.5t124 99t172 37.5zM308 854q32 0 54.5 -23t22.5 -55q0 -31 -22 -53.5t-55 -22.5t-54.5 22.5t-21.5 53.5q0 32 22 55t54 23zM544 854q32 0 54.5 -23t22.5 -55q0 -31 -22 -53.5t-55 -22.5t-54.5 22.5t-21.5 53.5
q0 32 22 55t54 23z" />
    <glyph glyph-name="multiply" unicode="&#xd7;" horiz-adv-x="403" 
d="M361 402l-141 -147l140 -146l-11 -11l-141 146l-141 -147l-11 11l141 147l-141 147l11 11l141 -147l141 147z" />
    <glyph glyph-name="Oslash" unicode="&#xd8;" horiz-adv-x="667" 
d="M650 411q0 -108 -46 -206.5t-132 -156.5q-92 -62 -215 -62q-41 0 -80 11l-29 -62l-18 7l29 61q-71 27 -111 91.5t-40 150.5q0 97 37.5 188t108.5 151q101 86 247 86q38 0 71 -9l27 56l18 -8l-26 -54q75 -25 117 -90.5t42 -153.5zM463 548q0 15 -2 43l-259 -543
q14 -45 53 -45q57 0 95 84q32 68 72.5 210.5t40.5 250.5zM195 108q0 -18 1 -27l257 540q-12 32 -45 32q-62 0 -100 -84q-32 -68 -72.5 -210.5t-40.5 -250.5z" />
    <glyph glyph-name="Ugrave" unicode="&#xd9;" 
d="M735 657l-1 -5q-2 -1 -12.5 -2.5t-16.5 -3.5q-30 -9 -50 -37q-22 -30 -49 -134l-65 -261q-29 -114 -87.5 -171t-167.5 -57q-221 0 -221 204q0 34 28 146l25 104q25 103 25 136q0 50 -39 65q-25 9 -44 11l1 5h381l-2 -5q-14 -2 -30 -8q-29 -14 -50 -46q-21 -31 -44 -130
l-63 -262q-10 -41 -10 -87q0 -45 23.5 -73t67.5 -28q66 0 114.5 51.5t71.5 145.5l64 257q18 72 18 109q0 45 -42 63q-14 6 -39 8l2 5h212zM565 698l-4 -6q-6 1 -60.5 10t-85.5 13q-113 15 -113 71q0 30 17 48.5t39 18.5q37 0 78 -36q34 -30 129 -119z" />
    <glyph glyph-name="Uacute" unicode="&#xda;" 
d="M735 657l-1 -5q-2 -1 -12.5 -2.5t-16.5 -3.5q-30 -9 -50 -37q-22 -30 -49 -134l-65 -261q-29 -114 -87.5 -171t-167.5 -57q-221 0 -221 204q0 34 28 146l25 104q25 103 25 136q0 50 -39 65q-25 9 -44 11l1 5h381l-2 -5q-14 -2 -30 -8q-29 -14 -50 -46q-21 -31 -44 -130
l-63 -262q-10 -41 -10 -87q0 -45 23.5 -73t67.5 -28q66 0 114.5 51.5t71.5 145.5l64 257q18 72 18 109q0 45 -42 63q-14 6 -39 8l2 5h212zM349 691l-4 6q96 84 139 124q34 33 75 33q24 0 41.5 -18.5t17.5 -50.5q0 -47 -69 -62q-32 -7 -200 -32z" />
    <glyph glyph-name="Ucircumflex" unicode="&#xdb;" 
d="M735 657l-1 -5q-2 -1 -12.5 -2.5t-16.5 -3.5q-30 -9 -50 -37q-22 -30 -49 -134l-65 -261q-29 -114 -87.5 -171t-167.5 -57q-221 0 -221 204q0 34 28 146l25 104q25 103 25 136q0 50 -39 65q-25 9 -44 11l1 5h381l-2 -5q-14 -2 -30 -8q-29 -14 -50 -46q-21 -31 -44 -130
l-63 -262q-10 -41 -10 -87q0 -45 23.5 -73t67.5 -28q66 0 114.5 51.5t71.5 145.5l64 257q18 72 18 109q0 45 -42 63q-14 6 -39 8l2 5h212zM598 707l-4 -4l-123 57l-173 -59l-1 5l154 142h66z" />
    <glyph glyph-name="Udieresis" unicode="&#xdc;" 
d="M735 657l-1 -5q-2 -1 -12.5 -2.5t-16.5 -3.5q-30 -9 -50 -37q-22 -30 -49 -134l-65 -261q-29 -114 -87.5 -171t-167.5 -57q-221 0 -221 204q0 34 28 146l25 104q25 103 25 136q0 50 -39 65q-25 9 -44 11l1 5h381l-2 -5q-14 -2 -30 -8q-29 -14 -50 -46q-21 -31 -44 -130
l-63 -262q-10 -41 -10 -87q0 -45 23.5 -73t67.5 -28q66 0 114.5 51.5t71.5 145.5l64 257q18 72 18 109q0 45 -42 63q-14 6 -39 8l2 5h212zM347 854q32 0 54.5 -23t22.5 -55q0 -31 -22 -53.5t-55 -22.5t-54.5 22.5t-21.5 53.5q0 32 22 55t54 23zM583 854q32 0 54.5 -23
t22.5 -55q0 -31 -22 -53.5t-55 -22.5t-54.5 22.5t-21.5 53.5q0 32 22 55t54 23z" />
    <glyph glyph-name="Yacute" unicode="&#xdd;" horiz-adv-x="612" 
d="M732 657l-1 -5q-28 -6 -55 -21q-63 -34 -130 -130l-157 -223l-14 -60q-25 -109 -25 -136q0 -50 39 -65q29 -11 44 -12l-1 -5h-402l1 5q17 1 42 9q34 9 56 46q26 43 54 154l13 51l-72 278q-25 94 -94 109l1 5h363l-1 -5q-23 -2 -40 -9q-33 -14 -33 -46q0 -10 16 -76
l51 -204h5l139 196q44 62 44 95q0 24 -20 34q-17 9 -31 10l1 5h207zM344 691l-4 6q96 84 139 124q34 33 75 33q24 0 41.5 -18.5t17.5 -50.5q0 -47 -69 -62q-32 -7 -200 -32z" />
    <glyph glyph-name="Thorn" unicode="&#xde;" horiz-adv-x="633" 
d="M448 441q0 26 -12.5 42t-35.5 16h-14q-31 0 -47 -23q-8 -12 -16 -46l-64 -257h41q30 0 48.5 11t38.5 37q25 33 43 102t18 118zM345 515l64 1q121 2 169.5 -37t48.5 -111q0 -50 -39 -102.5t-92 -76.5q-73 -32 -201 -32h-40q-14 -58 -14 -78q0 -28 9.5 -41t31.5 -23
q18 -8 37 -10l-1 -5h-393l1 5q25 2 42 9q37 14 56 46q26 43 54 154l56 225q25 103 25 136q0 50 -39 65q-25 9 -44 11l1 6h381l-2 -6q-12 -1 -29 -8q-35 -17 -50 -45q-21 -38 -32 -83z" />
    <glyph glyph-name="germandbls" unicode="&#xdf;" horiz-adv-x="617" 
d="M603 152q0 -69 -54.5 -115t-135.5 -46q-72 0 -115 28.5t-43 78.5q0 30 17.5 46.5t42.5 16.5q50 0 59 -50q2 -12 0.5 -36.5t-0.5 -32.5q3 -18 18.5 -27.5t32.5 -9.5q54 0 54 54q0 19 -13.5 36t-68.5 71q-82 80 -82 143q0 31 16 57t38.5 46.5t44.5 41.5t38 51.5t16 68.5
q0 45 -14.5 71t-42.5 26q-18 0 -34 -13.5t-26.5 -31t-21 -47t-15 -48t-11.5 -48.5t-8 -35q-25 -97 -48.5 -173t-54.5 -155t-66.5 -135.5t-78.5 -103t-96 -70t-114 -23.5q-42 0 -74.5 22.5t-32.5 64.5q0 28 19 44t40 16q59 0 63 -49q1 -11 -3.5 -35t-3.5 -29q3 -17 20 -17
q23 0 38 11t30 39q21 37 43 116t59.5 235t59.5 242q16 51 40.5 92t52.5 65.5t55.5 41.5t58 24.5t51.5 10.5t43 3q75 0 123 -27.5t48 -69.5q0 -34 -23.5 -60t-51.5 -39t-51.5 -30.5t-23.5 -36.5q0 -12 7 -25.5t21 -28.5t25 -25.5t29 -25.5t23 -20q42 -38 61.5 -71.5
t19.5 -73.5z" />
    <glyph glyph-name="agrave" unicode="&#xe0;" horiz-adv-x="553" 
d="M548 128q-34 -59 -97 -98t-128 -39q-31 0 -50.5 18t-19.5 53q0 24 8 53h-3q-18 -39 -45 -71q-47 -53 -102 -53q-56 0 -83.5 30.5t-27.5 101.5q0 80 45 158t115.5 126.5t141.5 48.5q59 0 65 -41h6q12 21 20 32h147l-66 -203q-4 -13 -11 -33.5t-10.5 -31l-8.5 -25.5
t-7.5 -24t-5 -19.5t-3.5 -18t-1 -14.5q0 -24 17 -24q16 0 45 22.5t50 55.5zM346 401q0 37 -18 37q-21 0 -50 -54q-32 -59 -70.5 -163.5t-38.5 -136.5q0 -23 4.5 -28.5t12.5 -5.5q20 0 45 41q24 39 45 98q6 17 22.5 57.5t24.5 62.5t15.5 49.5t7.5 42.5zM455 489l-4 -5
q-50 10 -153 45q-42 14 -65 38t-23 48q0 30 18 47.5t41 17.5q42 0 77 -43q6 -8 109 -148z" />
    <glyph glyph-name="aacute" unicode="&#xe1;" horiz-adv-x="553" 
d="M548 128q-34 -59 -97 -98t-128 -39q-31 0 -50.5 18t-19.5 53q0 24 8 53h-3q-18 -39 -45 -71q-47 -53 -102 -53q-56 0 -83.5 30.5t-27.5 101.5q0 80 45 158t115.5 126.5t141.5 48.5q59 0 65 -41h6q12 21 20 32h147l-66 -203q-4 -13 -11 -33.5t-10.5 -31l-8.5 -25.5
t-7.5 -24t-5 -19.5t-3.5 -18t-1 -14.5q0 -24 17 -24q16 0 45 22.5t50 55.5zM346 401q0 37 -18 37q-21 0 -50 -54q-32 -59 -70.5 -163.5t-38.5 -136.5q0 -23 4.5 -28.5t12.5 -5.5q20 0 45 41q24 39 45 98q6 17 22.5 57.5t24.5 62.5t15.5 49.5t7.5 42.5zM532 613
q0 -49 -75 -76q-72 -26 -191 -54l-1 5q90 111 125 146q43 45 77 45q65 0 65 -66z" />
    <glyph glyph-name="acircumflex" unicode="&#xe2;" horiz-adv-x="553" 
d="M548 128q-34 -59 -97 -98t-128 -39q-31 0 -50.5 18t-19.5 53q0 24 8 53h-3q-18 -39 -45 -71q-47 -53 -102 -53q-56 0 -83.5 30.5t-27.5 101.5q0 80 45 158t115.5 126.5t141.5 48.5q59 0 65 -41h6q12 21 20 32h147l-66 -203q-4 -13 -11 -33.5t-10.5 -31l-8.5 -25.5
t-7.5 -24t-5 -19.5t-3.5 -18t-1 -14.5q0 -24 17 -24q16 0 45 22.5t50 55.5zM346 401q0 37 -18 37q-21 0 -50 -54q-32 -59 -70.5 -163.5t-38.5 -136.5q0 -23 4.5 -28.5t12.5 -5.5q20 0 45 41q24 39 45 98q6 17 22.5 57.5t24.5 62.5t15.5 49.5t7.5 42.5zM496 486l-4 -4
l-123 77l-173 -79l-4 6l166 181h66z" />
    <glyph glyph-name="atilde" unicode="&#xe3;" horiz-adv-x="553" 
d="M548 128q-34 -59 -97 -98t-128 -39q-31 0 -50.5 18t-19.5 53q0 24 8 53h-3q-18 -39 -45 -71q-47 -53 -102 -53q-56 0 -83.5 30.5t-27.5 101.5q0 80 45 158t115.5 126.5t141.5 48.5q59 0 65 -41h6q12 21 20 32h147l-66 -203q-4 -13 -11 -33.5t-10.5 -31l-8.5 -25.5
t-7.5 -24t-5 -19.5t-3.5 -18t-1 -14.5q0 -24 17 -24q16 0 45 22.5t50 55.5zM540 667h11q-17 -63 -52.5 -103.5t-85.5 -40.5q-23 0 -67 13t-59 13q-55 0 -80 -51h-11q38 147 143 147q14 0 54.5 -12t65.5 -12q29 0 48 9.5t33 36.5zM346 401q0 37 -18 37q-21 0 -50 -54
q-32 -59 -70.5 -163.5t-38.5 -136.5q0 -23 4.5 -28.5t12.5 -5.5q20 0 45 41q24 39 45 98q6 17 22.5 57.5t24.5 62.5t15.5 49.5t7.5 42.5z" />
    <glyph glyph-name="adieresis" unicode="&#xe4;" horiz-adv-x="553" 
d="M548 128q-34 -59 -97 -98t-128 -39q-31 0 -50.5 18t-19.5 53q0 24 8 53h-3q-18 -39 -45 -71q-47 -53 -102 -53q-56 0 -83.5 30.5t-27.5 101.5q0 80 45 158t115.5 126.5t141.5 48.5q59 0 65 -41h6q12 21 20 32h147l-66 -203q-4 -13 -11 -33.5t-10.5 -31l-8.5 -25.5
t-7.5 -24t-5 -19.5t-3.5 -18t-1 -14.5q0 -24 17 -24q16 0 45 22.5t50 55.5zM346 401q0 37 -18 37q-21 0 -50 -54q-32 -59 -70.5 -163.5t-38.5 -136.5q0 -23 4.5 -28.5t12.5 -5.5q20 0 45 41q24 39 45 98q6 17 22.5 57.5t24.5 62.5t15.5 49.5t7.5 42.5zM263 646
q31 0 53 -22.5t22 -53.5q0 -30 -21.5 -52t-53.5 -22t-53 21.5t-21 52.5t21.5 53.5t52.5 22.5zM454 646q31 0 53 -22.5t22 -53.5q0 -30 -21.5 -52t-53.5 -22t-53 21.5t-21 52.5t21.5 53.5t52.5 22.5z" />
    <glyph glyph-name="aring" unicode="&#xe5;" horiz-adv-x="553" 
d="M548 128q-34 -59 -97 -98t-128 -39q-31 0 -50.5 18t-19.5 53q0 24 8 53h-3q-18 -39 -45 -71q-47 -53 -102 -53q-56 0 -83.5 30.5t-27.5 101.5q0 80 45 158t115.5 126.5t141.5 48.5q59 0 65 -41h6q12 21 20 32h147l-66 -203q-4 -13 -11 -33.5t-10.5 -31l-8.5 -25.5
t-7.5 -24t-5 -19.5t-3.5 -18t-1 -14.5q0 -24 17 -24q16 0 45 22.5t50 55.5zM460 589q1 -38 -28.5 -65.5t-67.5 -27.5q-40 0 -68 26.5t-28 66.5t27.5 66.5t67.5 26.5q41 0 68.5 -26t28.5 -67zM346 401q0 37 -18 37q-21 0 -50 -54q-32 -59 -70.5 -163.5t-38.5 -136.5
q0 -23 4.5 -28.5t12.5 -5.5q20 0 45 41q24 39 45 98q6 17 22.5 57.5t24.5 62.5t15.5 49.5t7.5 42.5zM423 588q0 29 -16.5 46.5t-44.5 17.5q-27 0 -43.5 -17.5t-16.5 -45.5q0 -27 16 -44.5t43 -17.5q29 0 45.5 16t16.5 45z" />
    <glyph glyph-name="ae" unicode="&#xe6;" horiz-adv-x="764" 
d="M764 360q0 -41 -41 -74q-21 -17 -86 -40.5t-133 -39.5q-11 -64 -11 -114q0 -28 8 -42t31 -14q51 0 99.5 34.5t80.5 73.5l8 -6q-91 -147 -257 -147q-152 0 -157 169h-7q-38 -83 -66 -116q-21 -24 -51.5 -38.5t-55.5 -14.5q-111 0 -111 132q0 80 45 158t115.5 126.5
t141.5 48.5q30 0 41 -11t14 -30h6q12 21 20 32h119l-8 -25h2q65 34 120 34q63 0 98 -29t35 -67zM654 403q0 39 -28 39q-38 0 -70 -64t-49 -156q77 22 103 44q44 37 44 137zM361 401q0 37 -18 37q-21 0 -50 -54q-32 -59 -70.5 -163.5t-38.5 -136.5q0 -23 4.5 -28.5t12.5 -5.5
q20 0 45 41q24 39 45 98q6 17 22.5 57.5t24.5 62.5t15.5 49.5t7.5 42.5z" />
    <glyph glyph-name="ccedilla" unicode="&#xe7;" horiz-adv-x="478" 
d="M249 -107q0 -84 -146 -84q-31 0 -65 18l4 7q22 -9 50 -9q35 0 53 19t18 51q0 19 -11 34.5t-24 15.5q-16 0 -26 -9l-12 4l31 56q-49 12 -77.5 55t-28.5 105q0 67 36 126.5t91 99.5q48 35 103 54.5t100 19.5q67 0 102.5 -30t35.5 -67q0 -29 -20.5 -48.5t-50.5 -19.5
q-29 0 -46.5 17.5t-17.5 44.5q0 13 6.5 38t6.5 34q0 17 -19 17q-25 0 -48.5 -23.5t-39.5 -63.5q-55 -139 -55 -221q0 -89 71 -89q36 0 77 31.5t71 67.5l8 -6q-91 -147 -267 -147q-8 0 -24 2l-22 -40q19 13 56 13q80 0 80 -73z" />
    <glyph glyph-name="egrave" unicode="&#xe8;" horiz-adv-x="470" 
d="M470 360q0 -41 -41 -74q-22 -17 -83.5 -40.5t-135.5 -39.5q-11 -64 -11 -114q0 -27 12 -46t35 -19q22 0 43.5 7t36 14.5t31 23.5t24 24.5t21.5 26.5t16 21l8 -6q-37 -63 -102 -105t-155 -42q-68 0 -111 45t-43 130q0 145 144 234q92 56 178 56q68 0 100.5 -26.5
t32.5 -69.5zM355 403q0 39 -23 39q-38 0 -69.5 -64t-49.5 -156q62 18 85 37q26 22 41.5 69.5t15.5 74.5zM422 489l-4 -5q-50 10 -153 45q-42 14 -65 38t-23 48q0 30 18 47.5t41 17.5q42 0 77 -43q7 -8 109 -148z" />
    <glyph glyph-name="eacute" unicode="&#xe9;" horiz-adv-x="470" 
d="M470 360q0 -41 -41 -74q-22 -17 -83.5 -40.5t-135.5 -39.5q-11 -64 -11 -114q0 -27 12 -46t35 -19q22 0 43.5 7t36 14.5t31 23.5t24 24.5t21.5 26.5t16 21l8 -6q-37 -63 -102 -105t-155 -42q-68 0 -111 45t-43 130q0 145 144 234q92 56 178 56q68 0 100.5 -26.5
t32.5 -69.5zM355 403q0 39 -23 39q-38 0 -69.5 -64t-49.5 -156q62 18 85 37q26 22 41.5 69.5t15.5 74.5zM499 613q0 -49 -75 -76q-72 -26 -191 -54l-1 5q90 111 125 146q43 45 77 45q65 0 65 -66z" />
    <glyph glyph-name="ecircumflex" unicode="&#xea;" horiz-adv-x="470" 
d="M470 360q0 -41 -41 -74q-22 -17 -83.5 -40.5t-135.5 -39.5q-11 -64 -11 -114q0 -27 12 -46t35 -19q22 0 43.5 7t36 14.5t31 23.5t24 24.5t21.5 26.5t16 21l8 -6q-37 -63 -102 -105t-155 -42q-68 0 -111 45t-43 130q0 145 144 234q92 56 178 56q68 0 100.5 -26.5
t32.5 -69.5zM355 403q0 39 -23 39q-38 0 -69.5 -64t-49.5 -156q62 18 85 37q26 22 41.5 69.5t15.5 74.5zM463 486l-4 -4l-123 77l-173 -79l-4 6l166 181h66z" />
    <glyph glyph-name="edieresis" unicode="&#xeb;" horiz-adv-x="470" 
d="M470 360q0 -41 -41 -74q-22 -17 -83.5 -40.5t-135.5 -39.5q-11 -64 -11 -114q0 -27 12 -46t35 -19q22 0 43.5 7t36 14.5t31 23.5t24 24.5t21.5 26.5t16 21l8 -6q-37 -63 -102 -105t-155 -42q-68 0 -111 45t-43 130q0 145 144 234q92 56 178 56q68 0 100.5 -26.5
t32.5 -69.5zM355 403q0 39 -23 39q-38 0 -69.5 -64t-49.5 -156q62 18 85 37q26 22 41.5 69.5t15.5 74.5zM230 646q31 0 53 -22.5t22 -53.5q0 -30 -21.5 -52t-53.5 -22t-53 21.5t-21 52.5t21.5 53.5t52.5 22.5zM421 646q31 0 53 -22.5t22 -53.5q0 -30 -21.5 -52t-53.5 -22
t-53 21.5t-21 52.5t21.5 53.5t52.5 22.5z" />
    <glyph glyph-name="igrave" unicode="&#xec;" horiz-adv-x="337" 
d="M319 129q-34 -59 -97 -98.5t-128 -39.5q-31 0 -52.5 19.5t-21.5 53.5q0 8 2.5 20t5 22t9 28t10 28t12.5 33.5t13 32.5q2 6 11 27t13.5 34.5t11.5 32t10 33t3 24.5q0 13 -4.5 16.5t-14.5 3.5q-12 0 -37 -23t-49 -61l-11 6q78 135 213 135q32 0 53 -20t21 -55
q0 -40 -46 -157q-46 -118 -46 -150q0 -19 15 -19q16 0 45 22.5t50 56.5zM327 489l-4 -5q-50 10 -153 45q-42 14 -65 38t-23 48q0 30 18 47.5t41 17.5q42 0 77 -43q6 -8 109 -148z" />
    <glyph glyph-name="iacute" unicode="&#xed;" horiz-adv-x="337" 
d="M319 129q-34 -59 -97 -98.5t-128 -39.5q-31 0 -52.5 19.5t-21.5 53.5q0 8 2.5 20t5 22t9 28t10 28t12.5 33.5t13 32.5q2 6 11 27t13.5 34.5t11.5 32t10 33t3 24.5q0 13 -4.5 16.5t-14.5 3.5q-12 0 -37 -23t-49 -61l-11 6q78 135 213 135q32 0 53 -20t21 -55
q0 -40 -46 -157q-46 -118 -46 -150q0 -19 15 -19q16 0 45 22.5t50 56.5zM404 613q0 -49 -75 -76q-72 -26 -191 -54l-1 5q90 111 125 146q43 45 77 45q65 0 65 -66z" />
    <glyph glyph-name="icircumflex" unicode="&#xee;" horiz-adv-x="337" 
d="M319 129q-34 -59 -97 -98.5t-128 -39.5q-31 0 -52.5 19.5t-21.5 53.5q0 8 2.5 20t5 22t9 28t10 28t12.5 33.5t13 32.5q2 6 11 27t13.5 34.5t11.5 32t10 33t3 24.5q0 13 -4.5 16.5t-14.5 3.5q-12 0 -37 -23t-49 -61l-11 6q78 135 213 135q32 0 53 -20t21 -55
q0 -40 -46 -157q-46 -118 -46 -150q0 -19 15 -19q16 0 45 22.5t50 56.5zM368 486l-4 -4l-123 77l-173 -79l-4 6l166 181h66z" />
    <glyph glyph-name="idieresis" unicode="&#xef;" horiz-adv-x="337" 
d="M319 129q-34 -59 -97 -98.5t-128 -39.5q-31 0 -52.5 19.5t-21.5 53.5q0 8 2.5 20t5 22t9 28t10 28t12.5 33.5t13 32.5q2 6 11 27t13.5 34.5t11.5 32t10 33t3 24.5q0 13 -4.5 16.5t-14.5 3.5q-12 0 -37 -23t-49 -61l-11 6q78 135 213 135q32 0 53 -20t21 -55
q0 -40 -46 -157q-46 -118 -46 -150q0 -19 15 -19q16 0 45 22.5t50 56.5zM135 646q31 0 53 -22.5t22 -53.5q0 -30 -21.5 -52t-53.5 -22t-53 21.5t-21 52.5t21.5 53.5t52.5 22.5zM326 646q31 0 53 -22.5t22 -53.5q0 -30 -21.5 -52t-53.5 -22t-53 21.5t-21 52.5t21.5 53.5
t52.5 22.5z" />
    <glyph glyph-name="eth" unicode="&#xf0;" horiz-adv-x="510" 
d="M179 502l5 19l92 40q-38 58 -99 123h8q100 -41 164 -91l97 42l-5 -19l-78 -34q131 -111 131 -274q0 -161 -102 -249q-78 -68 -191 -68q-85 0 -135.5 52.5t-50.5 136.5q0 58 27 114t71 94q78 68 191 68q15 0 27 -5q-16 48 -46 97zM336 420q0 10 -6.5 17.5t-17.5 7.5
q-7 0 -13 -2.5t-15.5 -14t-19.5 -33.5q-25 -53 -60 -180t-35 -179q0 -34 24 -34q26 0 47 45q29 63 62.5 183.5t33.5 189.5z" />
    <glyph glyph-name="ntilde" unicode="&#xf1;" horiz-adv-x="615" 
d="M600 129q-34 -59 -97.5 -98.5t-128.5 -39.5q-31 0 -52.5 19.5t-21.5 53.5q0 40 53 167q49 115 49 138q0 22 -19 22q-48 0 -151 -256q-26 -64 -49 -135h-176l89 268q24 72 24 105q0 30 -21 30q-13 0 -36 -24t-47 -64l-11 6q78 135 189 135q42 0 65 -20.5t23 -56.5
q0 -59 -18 -120h7q49 104 100 150.5t97 46.5q55 0 78.5 -24t23.5 -72q0 -12 -2 -24t-3.5 -20.5t-7.5 -24.5t-8.5 -23.5t-12 -30t-13.5 -32.5q-41 -100 -41 -131q0 -19 13 -19q16 0 45 22.5t50 56.5zM553 667h11q-17 -63 -52.5 -103.5t-85.5 -40.5q-23 0 -67 13t-59 13
q-54 0 -80 -51h-11q38 147 143 147q14 0 54.5 -12t65.5 -12q29 0 48 9.5t33 36.5z" />
    <glyph glyph-name="ograve" unicode="&#xf2;" horiz-adv-x="510" 
d="M490 267q0 -58 -27 -114t-71 -94q-78 -68 -191 -68q-85 0 -135.5 52.5t-50.5 136.5q0 58 27 114t71 94q78 68 191 68q85 0 135.5 -52.5t50.5 -136.5zM336 420q0 10 -6.5 17.5t-17.5 7.5q-7 0 -13 -2.5t-15.5 -14t-19.5 -33.5q-25 -53 -60 -180t-35 -179q0 -34 24 -34
q26 0 47 45q29 63 62.5 183.5t33.5 189.5zM423 489l-4 -5q-50 10 -153 45q-42 14 -65 38t-23 48q0 30 18 47.5t41 17.5q42 0 77 -43q7 -8 109 -148z" />
    <glyph glyph-name="oacute" unicode="&#xf3;" horiz-adv-x="510" 
d="M490 267q0 -58 -27 -114t-71 -94q-78 -68 -191 -68q-85 0 -135.5 52.5t-50.5 136.5q0 58 27 114t71 94q78 68 191 68q85 0 135.5 -52.5t50.5 -136.5zM336 420q0 10 -6.5 17.5t-17.5 7.5q-7 0 -13 -2.5t-15.5 -14t-19.5 -33.5q-25 -53 -60 -180t-35 -179q0 -34 24 -34
q26 0 47 45q29 63 62.5 183.5t33.5 189.5zM500 613q0 -49 -75 -76q-72 -26 -191 -54l-1 5q90 111 125 146q43 45 77 45q65 0 65 -66z" />
    <glyph glyph-name="ocircumflex" unicode="&#xf4;" horiz-adv-x="510" 
d="M490 267q0 -58 -27 -114t-71 -94q-78 -68 -191 -68q-85 0 -135.5 52.5t-50.5 136.5q0 58 27 114t71 94q78 68 191 68q85 0 135.5 -52.5t50.5 -136.5zM336 420q0 10 -6.5 17.5t-17.5 7.5q-7 0 -13 -2.5t-15.5 -14t-19.5 -33.5q-25 -53 -60 -180t-35 -179q0 -34 24 -34
q26 0 47 45q29 63 62.5 183.5t33.5 189.5zM464 486l-4 -4l-123 77l-173 -79l-4 6l166 181h66z" />
    <glyph glyph-name="otilde" unicode="&#xf5;" horiz-adv-x="510" 
d="M490 267q0 -58 -27 -114t-71 -94q-78 -68 -191 -68q-85 0 -135.5 52.5t-50.5 136.5q0 58 27 114t71 94q78 68 191 68q85 0 135.5 -52.5t50.5 -136.5zM336 420q0 10 -6.5 17.5t-17.5 7.5q-7 0 -13 -2.5t-15.5 -14t-19.5 -33.5q-25 -53 -60 -180t-35 -179q0 -34 24 -34
q26 0 47 45q29 63 62.5 183.5t33.5 189.5zM508 667h11q-17 -63 -52.5 -103.5t-85.5 -40.5q-23 0 -67 13t-59 13q-55 0 -80 -51h-11q38 147 143 147q14 0 54.5 -12t65.5 -12q29 0 48 9.5t33 36.5z" />
    <glyph glyph-name="odieresis" unicode="&#xf6;" horiz-adv-x="510" 
d="M490 267q0 -58 -27 -114t-71 -94q-78 -68 -191 -68q-85 0 -135.5 52.5t-50.5 136.5q0 58 27 114t71 94q78 68 191 68q85 0 135.5 -52.5t50.5 -136.5zM336 420q0 10 -6.5 17.5t-17.5 7.5q-7 0 -13 -2.5t-15.5 -14t-19.5 -33.5q-25 -53 -60 -180t-35 -179q0 -34 24 -34
q26 0 47 45q29 63 62.5 183.5t33.5 189.5zM231 646q31 0 53 -22.5t22 -53.5q0 -30 -21.5 -52t-53.5 -22t-53 21.5t-21 52.5t21.5 53.5t52.5 22.5zM422 646q31 0 53 -22.5t22 -53.5q0 -30 -21.5 -52t-53.5 -22t-53 21.5t-21 52.5t21.5 53.5t52.5 22.5z" />
    <glyph glyph-name="divide" unicode="&#xf7;" horiz-adv-x="575" 
d="M520 278v-34h-485v34h485zM361 419q0 -38 -26 -59t-58 -21q-31 0 -57 22.5t-26 57.5q0 36 26 59.5t57 23.5t57.5 -22.5t26.5 -60.5zM361 111q0 -38 -26 -59t-58 -21q-31 0 -57 22.5t-26 57.5q0 36 26 59.5t57 23.5t57.5 -22.5t26.5 -60.5z" />
    <glyph glyph-name="oslash" unicode="&#xf8;" horiz-adv-x="510" 
d="M490 267q0 -58 -27 -114t-71 -94q-78 -68 -191 -68q-31 0 -60 8l-30 -57l-16 9l29 54q-52 20 -80.5 66.5t-28.5 108.5q0 58 27 114t71 94q78 68 191 68q29 0 58 -8l37 69l16 -7l-36 -67q52 -20 81.5 -67t29.5 -109zM240 47q22 47 49.5 138t39.5 164l-159 -297
q-1 -6 -1 -16q0 -34 24 -34q26 0 47 45zM336 420q0 10 -6.5 17.5t-17.5 7.5q-7 0 -13 -2.5t-15.5 -14t-19.5 -33.5q-19 -39 -46 -129.5t-41 -161.5l158 294q0 4 0.5 11.5t0.5 10.5z" />
    <glyph glyph-name="ugrave" unicode="&#xf9;" horiz-adv-x="610" 
d="M600 128q-36 -61 -87.5 -99t-109.5 -38q-40 0 -63.5 23.5t-23.5 69.5q0 27 23 104h-7q-56 -119 -103 -158t-106 -39q-38 0 -64.5 26t-26.5 70q0 12 2 24t3.5 20.5t7.5 24.5t8.5 23.5t12 30t13.5 32.5q41 100 41 131q0 30 -22 30q-13 0 -36 -24t-47 -64l-10 7
q77 134 189 134q51 0 78 -24t27 -59q0 -40 -49 -157q-49 -115 -49 -138q0 -22 19 -22q47 0 150 256q26 65 49 135h176l-89 -268q-23 -69 -23 -105q0 -22 18 -22q15 0 41.5 23t48.5 58zM472 489l-4 -5q-50 10 -153 45q-42 14 -65 38t-23 48q0 30 18 47.5t41 17.5q42 0 77 -43
q6 -8 109 -148z" />
    <glyph glyph-name="uacute" unicode="&#xfa;" horiz-adv-x="610" 
d="M600 128q-36 -61 -87.5 -99t-109.5 -38q-40 0 -63.5 23.5t-23.5 69.5q0 27 23 104h-7q-56 -119 -103 -158t-106 -39q-38 0 -64.5 26t-26.5 70q0 12 2 24t3.5 20.5t7.5 24.5t8.5 23.5t12 30t13.5 32.5q41 100 41 131q0 30 -22 30q-13 0 -36 -24t-47 -64l-10 7
q77 134 189 134q51 0 78 -24t27 -59q0 -40 -49 -157q-49 -115 -49 -138q0 -22 19 -22q47 0 150 256q26 65 49 135h176l-89 -268q-23 -69 -23 -105q0 -22 18 -22q15 0 41.5 23t48.5 58zM550 613q0 -49 -75 -76q-72 -26 -191 -54l-1 5q90 111 125 146q43 45 77 45q65 0 65 -66
z" />
    <glyph glyph-name="ucircumflex" unicode="&#xfb;" horiz-adv-x="610" 
d="M600 128q-36 -61 -87.5 -99t-109.5 -38q-40 0 -63.5 23.5t-23.5 69.5q0 27 23 104h-7q-56 -119 -103 -158t-106 -39q-38 0 -64.5 26t-26.5 70q0 12 2 24t3.5 20.5t7.5 24.5t8.5 23.5t12 30t13.5 32.5q41 100 41 131q0 30 -22 30q-13 0 -36 -24t-47 -64l-10 7
q77 134 189 134q51 0 78 -24t27 -59q0 -40 -49 -157q-49 -115 -49 -138q0 -22 19 -22q47 0 150 256q26 65 49 135h176l-89 -268q-23 -69 -23 -105q0 -22 18 -22q15 0 41.5 23t48.5 58zM514 486l-4 -4l-123 77l-173 -79l-4 6l166 181h66z" />
    <glyph glyph-name="udieresis" unicode="&#xfc;" horiz-adv-x="610" 
d="M600 128q-36 -61 -87.5 -99t-109.5 -38q-40 0 -63.5 23.5t-23.5 69.5q0 27 23 104h-7q-56 -119 -103 -158t-106 -39q-38 0 -64.5 26t-26.5 70q0 12 2 24t3.5 20.5t7.5 24.5t8.5 23.5t12 30t13.5 32.5q41 100 41 131q0 30 -22 30q-13 0 -36 -24t-47 -64l-10 7
q77 134 189 134q51 0 78 -24t27 -59q0 -40 -49 -157q-49 -115 -49 -138q0 -22 19 -22q47 0 150 256q26 65 49 135h176l-89 -268q-23 -69 -23 -105q0 -22 18 -22q15 0 41.5 23t48.5 58zM280 646q31 0 53 -22.5t22 -53.5q0 -30 -21.5 -52t-53.5 -22t-53 21.5t-21 52.5
t21.5 53.5t52.5 22.5zM471 646q31 0 53 -22.5t22 -53.5q0 -30 -21.5 -52t-53.5 -22t-53 21.5t-21 52.5t21.5 53.5t52.5 22.5z" />
    <glyph glyph-name="yacute" unicode="&#xfd;" horiz-adv-x="433" 
d="M423 406q0 -77 -33 -163t-85 -159t-100 -128t-93 -94q-84 -75 -149 -75q-42 0 -65.5 21t-23.5 50t18.5 45.5t38.5 16.5q25 0 37 -7.5t28 -26.5q31 -37 52 -37q20 0 50 27q6 6 21 19t28 25t23 24q-7 220 -52 357q-20 62 -30 72q-9 9 -20 9q-36 0 -70 -67l-11 6
q63 135 179 135q78 0 113 -111q11 -37 19 -105.5t8 -121.5h3q63 103 63 178q0 50 -20 75q-17 23 -17 36q0 25 13 37t31 12q19 0 31.5 -14.5t12.5 -35.5zM454 613q0 -49 -75 -76q-72 -26 -191 -54l-1 5q90 111 125 146q43 45 77 45q65 0 65 -66z" />
    <glyph glyph-name="thorn" unicode="&#xfe;" horiz-adv-x="545" 
d="M367 397q0 11 -6.5 20.5t-15.5 9.5q-22 0 -49 -32q-35 -41 -55 -96q-16 -43 -48.5 -147.5t-34.5 -110.5q2 -12 14 -21t28 -9q20 0 34.5 15.5t39.5 64.5q28 56 60.5 154t32.5 152zM390 456q61 0 100.5 -36.5t39.5 -117.5q0 -61 -29 -122.5t-79 -111.5q-77 -77 -189 -77
q-58 0 -86 17l-33 -97q-14 -40 -14 -67q0 -32 24 -45q16 -10 40 -14l-1 -4h-333l1 4q40 9 53 21q21 18 37 67l230 698q13 39 13 61t-13 33q-11 11 -37 14l2 5h241q5 0 5 -4q0 -2 -13 -35q-11 -28 -30 -87l-58 -181h6q23 37 57 58t66 21z" />
    <glyph glyph-name="ydieresis" unicode="&#xff;" horiz-adv-x="433" 
d="M423 406q0 -77 -33 -163t-85 -159t-100 -128t-93 -94q-84 -75 -149 -75q-42 0 -65.5 21t-23.5 50t18.5 45.5t38.5 16.5q25 0 37 -7.5t28 -26.5q31 -37 52 -37q20 0 50 27q6 6 21 19t28 25t23 24q-7 220 -52 357q-20 62 -30 72q-9 9 -20 9q-36 0 -70 -67l-11 6
q63 135 179 135q78 0 113 -111q11 -37 19 -105.5t8 -121.5h3q63 103 63 178q0 50 -20 75q-17 23 -17 36q0 25 13 37t31 12q19 0 31.5 -14.5t12.5 -35.5zM172 646q31 0 53 -22.5t22 -53.5q0 -30 -21.5 -52t-53.5 -22t-53 21.5t-21 52.5t21.5 53.5t52.5 22.5zM363 646
q31 0 53 -22.5t22 -53.5q0 -30 -21.5 -52t-53.5 -22t-53 21.5t-21 52.5t21.5 53.5t52.5 22.5z" />
    <glyph glyph-name="Amacron" unicode="&#x100;" horiz-adv-x="646" 
d="M631 657l-113 -439q-24 -92 -24 -136q0 -50 39 -65q29 -11 43 -12l-1 -5h-382l1 5q19 2 36 9q30 12 48 45q20 37 48 155l9 38h-170l-95 -112q-32 -39 -32 -74q0 -30 25 -44t54 -17l-1 -5h-261l1 5q23 3 51 16q64 31 132 111l446 525h146zM404 528h-5l-217 -256h158z
M705 707h-290l16 62h290z" />
    <glyph glyph-name="amacron" unicode="&#x101;" horiz-adv-x="553" 
d="M548 128q-34 -59 -97 -98t-128 -39q-31 0 -50.5 18t-19.5 53q0 24 8 53h-3q-18 -39 -45 -71q-47 -53 -102 -53q-56 0 -83.5 30.5t-27.5 101.5q0 80 45 158t115.5 126.5t141.5 48.5q59 0 65 -41h6q12 21 20 32h147l-66 -203q-4 -13 -11 -33.5t-10.5 -31l-8.5 -25.5
t-7.5 -24t-5 -19.5t-3.5 -18t-1 -14.5q0 -24 17 -24q16 0 45 22.5t50 55.5zM346 401q0 37 -18 37q-21 0 -50 -54q-32 -59 -70.5 -163.5t-38.5 -136.5q0 -23 4.5 -28.5t12.5 -5.5q20 0 45 41q24 39 45 98q6 17 22.5 57.5t24.5 62.5t15.5 49.5t7.5 42.5zM486 536h-250l16 62
h250z" />
    <glyph glyph-name="Abreve" unicode="&#x102;" horiz-adv-x="646" 
d="M631 657l-113 -439q-24 -92 -24 -136q0 -50 39 -65q29 -11 43 -12l-1 -5h-382l1 5q19 2 36 9q30 12 48 45q20 37 48 155l9 38h-170l-95 -112q-32 -39 -32 -74q0 -30 25 -44t54 -17l-1 -5h-261l1 5q23 3 51 16q64 31 132 111l446 525h146zM404 528h-5l-217 -256h158z
M448 851l9 4q12 -34 43 -53.5t74 -19.5q45 0 84.5 19.5t61.5 53.5l7 -6q-29 -151 -161 -151q-54 0 -87 32t-34 79q0 28 3 42z" />
    <glyph glyph-name="abreve" unicode="&#x103;" horiz-adv-x="553" 
d="M548 128q-34 -59 -97 -98t-128 -39q-31 0 -50.5 18t-19.5 53q0 24 8 53h-3q-18 -39 -45 -71q-47 -53 -102 -53q-56 0 -83.5 30.5t-27.5 101.5q0 80 45 158t115.5 126.5t141.5 48.5q59 0 65 -41h6q12 21 20 32h147l-66 -203q-4 -13 -11 -33.5t-10.5 -31l-8.5 -25.5
t-7.5 -24t-5 -19.5t-3.5 -18t-1 -14.5q0 -24 17 -24q16 0 45 22.5t50 55.5zM346 401q0 37 -18 37q-21 0 -50 -54q-32 -59 -70.5 -163.5t-38.5 -136.5q0 -23 4.5 -28.5t12.5 -5.5q20 0 45 41q24 39 45 98q6 17 22.5 57.5t24.5 62.5t15.5 49.5t7.5 42.5zM253 670l9 4
q11 -32 43 -52.5t67 -20.5q40 0 77 19.5t58 53.5l9 -6q-28 -151 -152 -151q-50 0 -81.5 32.5t-32.5 78.5q0 28 3 42z" />
    <glyph glyph-name="Aogonek" unicode="&#x104;" horiz-adv-x="646" 
d="M215 -217q-85 -2 -129.5 18.5t-44.5 58.5q0 11 4 21.5t13.5 19.5t18 16t23.5 15t24.5 12.5t27 12.5t24.5 11q47 22 71 41t35 45q15 37 44 160l9 38h-170l-95 -112q-32 -39 -32 -74q0 -30 25 -44t54 -17l-1 -5h-261l1 5q23 3 51 16q64 31 132 111l446 525h146l-113 -439
q-24 -92 -24 -136q0 -50 39 -65q29 -11 43 -12l-1 -5h-183q-97 0 -127.5 -5t-54.5 -25q-22 -17 -36 -50.5t-14 -69.5q0 -56 58 -61zM404 528h-5l-217 -256h158z" />
    <glyph glyph-name="aogonek" unicode="&#x105;" horiz-adv-x="553" 
d="M338 -217q-85 -2 -129.5 18.5t-44.5 58.5q0 24 22 45.5t47 33.5t66 29t58 26q-18 -3 -34 -3q-31 0 -50.5 18t-19.5 53q0 24 8 53h-3q-18 -39 -45 -71q-47 -53 -102 -53q-56 0 -83.5 30.5t-27.5 101.5q0 80 45 158t115.5 126.5t141.5 48.5q59 0 65 -41h6q12 21 20 32h147
l-66 -203q-4 -13 -11 -33.5t-10.5 -31l-8.5 -25.5t-7.5 -24t-5 -19.5t-3.5 -18t-1 -14.5q0 -24 17 -24q16 0 45 22.5t50 55.5l9 -4q-48 -81 -138 -119q-49 -20 -88 -66t-39 -93q0 -56 58 -61zM346 401q0 37 -18 37q-21 0 -50 -54q-32 -59 -70.5 -163.5t-38.5 -136.5
q0 -23 4.5 -28.5t12.5 -5.5q20 0 45 41q24 39 45 98q6 17 22.5 57.5t24.5 62.5t15.5 49.5t7.5 42.5z" />
    <glyph glyph-name="Cacute" unicode="&#x106;" horiz-adv-x="597" 
d="M627 647l-62 -245h-7q5 119 -35 185t-101 66q-37 0 -60 -19t-48 -59q-34 -54 -76.5 -200.5t-42.5 -254.5q0 -43 22.5 -71t60.5 -28q76 0 148 61t111 144l12 -8q-41 -98 -120.5 -165t-171.5 -67q-119 0 -184 76t-65 174q0 186 111.5 310t292.5 124q53 0 91 -20t53 -47h3
l62 44h6zM314 691l-4 6q96 84 139 124q34 33 75 33q24 0 41.5 -18.5t17.5 -50.5q0 -47 -69 -62q-32 -7 -200 -32z" />
    <glyph glyph-name="cacute" unicode="&#x107;" horiz-adv-x="478" 
d="M483 359q0 -29 -20.5 -48.5t-50.5 -19.5q-29 0 -46.5 17.5t-17.5 44.5q0 13 6.5 38t6.5 34q0 17 -19 17q-25 0 -48.5 -23.5t-39.5 -63.5q-55 -139 -55 -221q0 -89 71 -89q36 0 77 31.5t71 67.5l8 -6q-91 -147 -267 -147q-65 0 -104.5 45.5t-39.5 119.5q0 67 36 126.5
t91 99.5q48 35 103 54.5t100 19.5q67 0 102.5 -30t35.5 -67zM507 613q0 -49 -75 -76q-72 -26 -191 -54l-1 5q90 111 125 146q43 45 77 45q65 0 65 -66z" />
    <glyph glyph-name="Ccircumflex" unicode="&#x108;" horiz-adv-x="597" 
d="M627 647l-62 -245h-7q5 119 -35 185t-101 66q-37 0 -60 -19t-48 -59q-34 -54 -76.5 -200.5t-42.5 -254.5q0 -43 22.5 -71t60.5 -28q76 0 148 61t111 144l12 -8q-41 -98 -120.5 -165t-171.5 -67q-119 0 -184 76t-65 174q0 186 111.5 310t292.5 124q53 0 91 -20t53 -47h3
l62 44h6zM569 707l-4 -4l-123 57l-173 -59l-1 5l154 142h66z" />
    <glyph glyph-name="ccircumflex" unicode="&#x109;" horiz-adv-x="478" 
d="M483 359q0 -29 -20.5 -48.5t-50.5 -19.5q-29 0 -46.5 17.5t-17.5 44.5q0 13 6.5 38t6.5 34q0 17 -19 17q-25 0 -48.5 -23.5t-39.5 -63.5q-55 -139 -55 -221q0 -89 71 -89q36 0 77 31.5t71 67.5l8 -6q-91 -147 -267 -147q-65 0 -104.5 45.5t-39.5 119.5q0 67 36 126.5
t91 99.5q48 35 103 54.5t100 19.5q67 0 102.5 -30t35.5 -67zM471 486l-4 -4l-123 77l-173 -79l-4 6l166 181h66z" />
    <glyph glyph-name="Cdotaccent" unicode="&#x10a;" horiz-adv-x="597" 
d="M627 647l-62 -245h-7q5 119 -35 185t-101 66q-37 0 -60 -19t-48 -59q-34 -54 -76.5 -200.5t-42.5 -254.5q0 -43 22.5 -71t60.5 -28q76 0 148 61t111 144l12 -8q-41 -98 -120.5 -165t-171.5 -67q-119 0 -184 76t-65 174q0 186 111.5 310t292.5 124q53 0 91 -20t53 -47h3
l62 44h6zM515 786q0 -36 -25 -61.5t-63 -25.5q-37 0 -61.5 25.5t-24.5 61.5t25 62.5t61 26.5q37 0 62.5 -26.5t25.5 -62.5z" />
    <glyph glyph-name="cdotaccent" unicode="&#x10b;" horiz-adv-x="478" 
d="M483 359q0 -29 -20.5 -48.5t-50.5 -19.5q-29 0 -46.5 17.5t-17.5 44.5q0 13 6.5 38t6.5 34q0 17 -19 17q-25 0 -48.5 -23.5t-39.5 -63.5q-55 -139 -55 -221q0 -89 71 -89q36 0 77 31.5t71 67.5l8 -6q-91 -147 -267 -147q-65 0 -104.5 45.5t-39.5 119.5q0 67 36 126.5
t91 99.5q48 35 103 54.5t100 19.5q67 0 102.5 -30t35.5 -67zM414 580q0 -34 -24 -58.5t-59 -24.5t-58.5 24.5t-23.5 58.5t23.5 59t58.5 25t59 -25t24 -59z" />
    <glyph glyph-name="Ccaron" unicode="&#x10c;" horiz-adv-x="597" 
d="M627 647l-62 -245h-7q5 119 -35 185t-101 66q-37 0 -60 -19t-48 -59q-34 -54 -76.5 -200.5t-42.5 -254.5q0 -43 22.5 -71t60.5 -28q76 0 148 61t111 144l12 -8q-41 -98 -120.5 -165t-171.5 -67q-119 0 -184 76t-65 174q0 186 111.5 310t292.5 124q53 0 91 -20t53 -47h3
l62 44h6zM315 843l4 4l123 -57l173 59l1 -5l-154 -142h-66z" />
    <glyph glyph-name="ccaron" unicode="&#x10d;" horiz-adv-x="478" 
d="M483 359q0 -29 -20.5 -48.5t-50.5 -19.5q-29 0 -46.5 17.5t-17.5 44.5q0 13 6.5 38t6.5 34q0 17 -19 17q-25 0 -48.5 -23.5t-39.5 -63.5q-55 -139 -55 -221q0 -89 71 -89q36 0 77 31.5t71 67.5l8 -6q-91 -147 -267 -147q-65 0 -104.5 45.5t-39.5 119.5q0 67 36 126.5
t91 99.5q48 35 103 54.5t100 19.5q67 0 102.5 -30t35.5 -67zM218 660l4 4l123 -87l173 89l4 -6l-166 -181h-66z" />
    <glyph glyph-name="Dcaron" unicode="&#x10e;" horiz-adv-x="710" 
d="M685 407q0 -90 -42.5 -188t-106.5 -143q-45 -32 -105 -54t-114 -22h-392l1 5q15 1 41 9q35 10 57 46q26 43 54 154l56 226q24 99 24 135q0 50 -39 65q-26 9 -43 11l1 6h355q68 0 118.5 -21t79 -57t42 -79t13.5 -93zM492 530q0 110 -62 110h-9q-24 0 -39 -14.5t-25 -54.5
l-103 -412q-17 -68 -17 -86q0 -28 12 -42q12 -15 36 -15h13q49 0 90 72q35 62 69.5 191t34.5 251zM308 843l4 4l123 -57l173 59l1 -5l-154 -142h-66z" />
    <glyph glyph-name="dcaron" unicode="&#x10f;" horiz-adv-x="558" 
d="M610 484l59 200h115q-77 -88 -162 -200h-12zM623 680q0 -4 -12 -35q-5 -14 -14 -40.5t-16 -46.5l-107 -314q-43 -126 -43 -172q0 -18 13 -18q16 0 45 22.5t50 55.5l9 -4q-35 -60 -93 -98.5t-122 -38.5q-32 0 -55 18.5t-23 52.5q0 31 6 53h-3q-18 -39 -45 -71
q-47 -53 -102 -53q-111 0 -111 132q0 80 50.5 158.5t126 126.5t146.5 48q31 0 47 -11h2l41 126q13 39 13 61t-13 33q-11 11 -37 14l2 5h241q4 0 4 -4zM347 402q0 36 -19 36q-21 0 -50 -54q-32 -59 -70.5 -163.5t-38.5 -136.5q0 -34 17 -34q21 0 45 41q28 46 45 98
q10 30 30 80.5t30.5 82.5t10.5 50z" />
    <glyph glyph-name="Dcroat" unicode="&#x110;" horiz-adv-x="710" 
d="M27 321l6 25h77l24 94q24 99 24 135q0 50 -39 65q-26 9 -43 11l1 6h355q68 0 118.5 -21t79 -57t42 -79t13.5 -93q0 -90 -42.5 -188t-106.5 -143q-45 -32 -105 -54t-114 -22h-392l1 5q15 1 41 9q35 10 57 46q26 43 54 154l26 107h-77zM492 530q0 110 -62 110h-9
q-24 0 -39 -14.5t-25 -54.5l-57 -225h98l-6 -25h-98l-40 -162q-17 -68 -17 -86q0 -28 12 -42q12 -15 36 -15h13q49 0 90 72q35 62 69.5 191t34.5 251z" />
    <glyph glyph-name="dcroat" unicode="&#x111;" horiz-adv-x="558" 
d="M623 680q0 -4 -12 -35q-5 -12 -13 -35.5t-13 -38.5h49l-7 -21h-49l-104 -306q-43 -126 -43 -172q0 -18 13 -18q16 0 45 22.5t50 55.5l9 -4q-35 -60 -93 -98.5t-122 -38.5q-32 0 -55 18.5t-23 52.5q0 31 6 53h-3q-18 -39 -45 -71q-47 -53 -102 -53q-111 0 -111 132
q0 80 50.5 158.5t126 126.5t146.5 48q31 0 47 -11h2l34 105h-117l7 21h117q13 39 13 61t-13 33q-11 11 -37 14l2 5h241q4 0 4 -4zM347 402q0 36 -19 36q-21 0 -50 -54q-32 -59 -70.5 -163.5t-38.5 -136.5q0 -34 17 -34q21 0 45 41q28 46 45 98q10 30 30 80.5t30.5 82.5
t10.5 50z" />
    <glyph glyph-name="Emacron" unicode="&#x112;" horiz-adv-x="630" 
d="M630 657l-22 -227h-6q-10 75 -53 145q-41 65 -101 65h-27q-27 0 -40 -15t-23 -54l-56 -222h21q62 0 102 35q22 19 46 54t32 60h6l-80 -322h-6q4 25 -2.5 66t-19.5 61q-19 30 -81 30h-22l-44 -174q-19 -74 -19 -92q0 -29 15 -40t45 -11h11q43 0 129 78q90 81 128 142h5
l-66 -236h-577l1 5q17 1 42 9q34 9 56 46q26 43 54 154l56 226q25 103 25 135q0 50 -39 65q-25 9 -44 11l1 6h553zM550 707h-290l16 62h290z" />
    <glyph glyph-name="emacron" unicode="&#x113;" horiz-adv-x="470" 
d="M470 360q0 -41 -41 -74q-22 -17 -83.5 -40.5t-135.5 -39.5q-11 -64 -11 -114q0 -27 12 -46t35 -19q22 0 43.5 7t36 14.5t31 23.5t24 24.5t21.5 26.5t16 21l8 -6q-37 -63 -102 -105t-155 -42q-68 0 -111 45t-43 130q0 145 144 234q92 56 178 56q68 0 100.5 -26.5
t32.5 -69.5zM355 403q0 39 -23 39q-38 0 -69.5 -64t-49.5 -156q62 18 85 37q26 22 41.5 69.5t15.5 74.5zM453 536h-250l16 62h250z" />
    <glyph glyph-name="Ebreve" unicode="&#x114;" horiz-adv-x="630" 
d="M630 657l-22 -227h-6q-10 75 -53 145q-41 65 -101 65h-27q-27 0 -40 -15t-23 -54l-56 -222h21q62 0 102 35q22 19 46 54t32 60h6l-80 -322h-6q4 25 -2.5 66t-19.5 61q-19 30 -81 30h-22l-44 -174q-19 -74 -19 -92q0 -29 15 -40t45 -11h11q43 0 129 78q90 81 128 142h5
l-66 -236h-577l1 5q17 1 42 9q34 9 56 46q26 43 54 154l56 226q25 103 25 135q0 50 -39 65q-25 9 -44 11l1 6h553zM293 851l9 4q12 -34 43 -53.5t74 -19.5q45 0 84.5 19.5t61.5 53.5l7 -6q-29 -151 -161 -151q-54 0 -87 32t-34 79q0 28 3 42z" />
    <glyph glyph-name="ebreve" unicode="&#x115;" horiz-adv-x="470" 
d="M470 360q0 -41 -41 -74q-22 -17 -83.5 -40.5t-135.5 -39.5q-11 -64 -11 -114q0 -27 12 -46t35 -19q22 0 43.5 7t36 14.5t31 23.5t24 24.5t21.5 26.5t16 21l8 -6q-37 -63 -102 -105t-155 -42q-68 0 -111 45t-43 130q0 145 144 234q92 56 178 56q68 0 100.5 -26.5
t32.5 -69.5zM355 403q0 39 -23 39q-38 0 -69.5 -64t-49.5 -156q62 18 85 37q26 22 41.5 69.5t15.5 74.5zM220 670l9 4q11 -32 43 -52.5t67 -20.5q40 0 77 19.5t58 53.5l9 -6q-28 -151 -152 -151q-50 0 -81.5 32.5t-32.5 78.5q0 28 3 42z" />
    <glyph glyph-name="Edotaccent" unicode="&#x116;" horiz-adv-x="630" 
d="M630 657l-22 -227h-6q-10 75 -53 145q-41 65 -101 65h-27q-27 0 -40 -15t-23 -54l-56 -222h21q62 0 102 35q22 19 46 54t32 60h6l-80 -322h-6q4 25 -2.5 66t-19.5 61q-19 30 -81 30h-22l-44 -174q-19 -74 -19 -92q0 -29 15 -40t45 -11h11q43 0 129 78q90 81 128 142h5
l-66 -236h-577l1 5q17 1 42 9q34 9 56 46q26 43 54 154l56 226q25 103 25 135q0 50 -39 65q-25 9 -44 11l1 6h553zM494 786q0 -36 -25 -61.5t-63 -25.5q-37 0 -61.5 25.5t-24.5 61.5t25 62.5t61 26.5q37 0 62.5 -26.5t25.5 -62.5z" />
    <glyph glyph-name="edotaccent" unicode="&#x117;" horiz-adv-x="470" 
d="M470 360q0 -41 -41 -74q-22 -17 -83.5 -40.5t-135.5 -39.5q-11 -64 -11 -114q0 -27 12 -46t35 -19q22 0 43.5 7t36 14.5t31 23.5t24 24.5t21.5 26.5t16 21l8 -6q-37 -63 -102 -105t-155 -42q-68 0 -111 45t-43 130q0 145 144 234q92 56 178 56q68 0 100.5 -26.5
t32.5 -69.5zM355 403q0 39 -23 39q-38 0 -69.5 -64t-49.5 -156q62 18 85 37q26 22 41.5 69.5t15.5 74.5zM406 580q0 -34 -24 -58.5t-59 -24.5t-58.5 24.5t-23.5 58.5t23.5 59t58.5 25t59 -25t24 -59z" />
    <glyph glyph-name="Eogonek" unicode="&#x118;" horiz-adv-x="630" 
d="M359 -217q-85 -2 -129.5 18.5t-44.5 58.5q0 33 34 57.5t93 48t77 34.5h-464l1 5q17 1 42 9q34 9 56 46q26 43 54 154l56 226q25 103 25 135q0 50 -39 65q-25 9 -44 11l1 6h553l-22 -227h-6q-10 75 -53 145q-41 65 -101 65h-27q-27 0 -40 -15t-23 -54l-56 -222h21
q62 0 102 35q22 19 46 54t32 60h6l-80 -322h-6q4 25 -2.5 66t-19.5 61q-19 30 -81 30h-22l-44 -174q-19 -74 -19 -92q0 -29 15 -40t45 -11h11q43 0 129 78q90 81 128 142h5l-66 -236h-100q-98 -81 -98 -150q0 -56 58 -61z" />
    <glyph glyph-name="eogonek" unicode="&#x119;" horiz-adv-x="470" 
d="M199 -217q-85 -2 -129.5 18.5t-44.5 58.5q0 20 14 37.5t40 31.5t50 24.5t58 23.5t50 21q-34 -7 -68 -7q-68 0 -111 45t-43 130q0 145 144 234q92 56 178 56q68 0 100.5 -26.5t32.5 -69.5q0 -41 -41 -74q-22 -17 -83.5 -40.5t-135.5 -39.5q-11 -64 -11 -114q0 -27 12 -46
t35 -19q22 0 43.5 7t36 14.5t31 23.5t24 24.5t21.5 26.5t16 21l8 -6q-46 -77 -120 -115q-35 -18 -56.5 -31t-49.5 -35t-42 -49t-14 -58q0 -56 58 -61zM355 403q0 39 -23 39q-38 0 -69.5 -64t-49.5 -156q62 18 85 37q26 22 41.5 69.5t15.5 74.5z" />
    <glyph glyph-name="Ecaron" unicode="&#x11a;" horiz-adv-x="630" 
d="M630 657l-22 -227h-6q-10 75 -53 145q-41 65 -101 65h-27q-27 0 -40 -15t-23 -54l-56 -222h21q62 0 102 35q22 19 46 54t32 60h6l-80 -322h-6q4 25 -2.5 66t-19.5 61q-19 30 -81 30h-22l-44 -174q-19 -74 -19 -92q0 -29 15 -40t45 -11h11q43 0 129 78q90 81 128 142h5
l-66 -236h-577l1 5q17 1 42 9q34 9 56 46q26 43 54 154l56 226q25 103 25 135q0 50 -39 65q-25 9 -44 11l1 6h553zM294 843l4 4l123 -57l173 59l1 -5l-154 -142h-66z" />
    <glyph glyph-name="ecaron" unicode="&#x11b;" horiz-adv-x="470" 
d="M470 360q0 -41 -41 -74q-22 -17 -83.5 -40.5t-135.5 -39.5q-11 -64 -11 -114q0 -27 12 -46t35 -19q22 0 43.5 7t36 14.5t31 23.5t24 24.5t21.5 26.5t16 21l8 -6q-37 -63 -102 -105t-155 -42q-68 0 -111 45t-43 130q0 145 144 234q92 56 178 56q68 0 100.5 -26.5
t32.5 -69.5zM355 403q0 39 -23 39q-38 0 -69.5 -64t-49.5 -156q62 18 85 37q26 22 41.5 69.5t15.5 74.5zM210 660l4 4l123 -87l173 89l4 -6l-166 -181h-66z" />
    <glyph glyph-name="Gcircumflex" unicode="&#x11c;" horiz-adv-x="652" 
d="M278 16q51 0 69 23q23 30 33 79l10 45q9 45 9 59q0 38 -26 53q-19 12 -50 17l2 5h347l-1 -5q-43 -2 -69 -25q-32 -27 -50 -104l-35 -145h-5q-28 20 -55 20q-28 0 -82 -27q-50 -25 -118 -25q-119 0 -184 76t-65 174q0 186 111.5 310t292.5 124q53 0 91 -20t53 -47h3l62 44
h6l-62 -245h-7q5 119 -35 185t-101 66q-37 0 -60 -19t-48 -59q-34 -54 -76.5 -200.5t-42.5 -254.5q0 -44 22.5 -74t60.5 -30zM554 707l-4 -4l-123 57l-173 -59l-1 5l154 142h66z" />
    <glyph glyph-name="gcircumflex" unicode="&#x11d;" horiz-adv-x="463" 
d="M547 414q0 -25 -14 -36.5t-34 -11.5q-27 0 -49 31q-2 3 -5 8.5t-5 8.5t-5 7t-5 5.5t-4 1.5q-17 0 -17 -42q0 -8 8 -32q8 -20 8 -40q0 -44 -20 -76t-53 -48t-67.5 -23.5t-70.5 -7.5q-28 0 -53 7t-29 7q-32 0 -32 -22q0 -16 50 -25q13 -2 72 -11q112 -17 149.5 -46.5
t37.5 -86.5q0 -85 -89.5 -140t-201.5 -55q-93 0 -154 25t-61 79q0 37 42.5 60t110.5 23v2q-41 15 -58 39.5t-17 63.5q0 85 138 103q-67 38 -67 118q0 44 20.5 76t54 48.5t68.5 24t71 7.5q85 0 130 -55h3q1 32 23.5 51.5t55.5 19.5q29 0 49 -14.5t20 -43.5zM290 407
q0 35 -25 35q-24 0 -38 -34q-13 -35 -27 -99t-14 -101q0 -36 26 -36q25 0 38 32q13 34 26.5 100t13.5 103zM297 -109q0 25 -30.5 35.5t-119.5 26.5q-31 6 -63 11q-40 0 -70.5 -19.5t-30.5 -59.5q0 -86 137 -86q75 0 126 28t51 64zM434 486l-4 -4l-123 77l-173 -79l-4 6
l166 181h66z" />
    <glyph glyph-name="Gbreve" unicode="&#x11e;" horiz-adv-x="652" 
d="M278 16q51 0 69 23q23 30 33 79l10 45q9 45 9 59q0 38 -26 53q-19 12 -50 17l2 5h347l-1 -5q-43 -2 -69 -25q-32 -27 -50 -104l-35 -145h-5q-28 20 -55 20q-28 0 -82 -27q-50 -25 -118 -25q-119 0 -184 76t-65 174q0 186 111.5 310t292.5 124q53 0 91 -20t53 -47h3l62 44
h6l-62 -245h-7q5 119 -35 185t-101 66q-37 0 -60 -19t-48 -59q-34 -54 -76.5 -200.5t-42.5 -254.5q0 -44 22.5 -74t60.5 -30zM299 851l9 4q12 -34 43 -53.5t74 -19.5q45 0 84.5 19.5t61.5 53.5l7 -6q-29 -151 -161 -151q-54 0 -87 32t-34 79q0 28 3 42z" />
    <glyph glyph-name="gbreve" unicode="&#x11f;" horiz-adv-x="463" 
d="M547 414q0 -25 -14 -36.5t-34 -11.5q-27 0 -49 31q-2 3 -5 8.5t-5 8.5t-5 7t-5 5.5t-4 1.5q-17 0 -17 -42q0 -8 8 -32q8 -20 8 -40q0 -44 -20 -76t-53 -48t-67.5 -23.5t-70.5 -7.5q-28 0 -53 7t-29 7q-32 0 -32 -22q0 -16 50 -25q13 -2 72 -11q112 -17 149.5 -46.5
t37.5 -86.5q0 -85 -89.5 -140t-201.5 -55q-93 0 -154 25t-61 79q0 37 42.5 60t110.5 23v2q-41 15 -58 39.5t-17 63.5q0 85 138 103q-67 38 -67 118q0 44 20.5 76t54 48.5t68.5 24t71 7.5q85 0 130 -55h3q1 32 23.5 51.5t55.5 19.5q29 0 49 -14.5t20 -43.5zM290 407
q0 35 -25 35q-24 0 -38 -34q-13 -35 -27 -99t-14 -101q0 -36 26 -36q25 0 38 32q13 34 26.5 100t13.5 103zM297 -109q0 25 -30.5 35.5t-119.5 26.5q-31 6 -63 11q-40 0 -70.5 -19.5t-30.5 -59.5q0 -86 137 -86q75 0 126 28t51 64zM191 670l9 4q11 -32 43 -52.5t67 -20.5
q40 0 77 19.5t58 53.5l9 -6q-28 -151 -152 -151q-50 0 -81.5 32.5t-32.5 78.5q0 28 3 42z" />
    <glyph glyph-name="Gdotaccent" unicode="&#x120;" horiz-adv-x="652" 
d="M278 16q51 0 69 23q23 30 33 79l10 45q9 45 9 59q0 38 -26 53q-19 12 -50 17l2 5h347l-1 -5q-43 -2 -69 -25q-32 -27 -50 -104l-35 -145h-5q-28 20 -55 20q-28 0 -82 -27q-50 -25 -118 -25q-119 0 -184 76t-65 174q0 186 111.5 310t292.5 124q53 0 91 -20t53 -47h3l62 44
h6l-62 -245h-7q5 119 -35 185t-101 66q-37 0 -60 -19t-48 -59q-34 -54 -76.5 -200.5t-42.5 -254.5q0 -44 22.5 -74t60.5 -30zM500 786q0 -36 -25 -61.5t-63 -25.5q-37 0 -61.5 25.5t-24.5 61.5t25 62.5t61 26.5q37 0 62.5 -26.5t25.5 -62.5z" />
    <glyph glyph-name="gdotaccent" unicode="&#x121;" horiz-adv-x="463" 
d="M547 414q0 -25 -14 -36.5t-34 -11.5q-27 0 -49 31q-2 3 -5 8.5t-5 8.5t-5 7t-5 5.5t-4 1.5q-17 0 -17 -42q0 -8 8 -32q8 -20 8 -40q0 -44 -20 -76t-53 -48t-67.5 -23.5t-70.5 -7.5q-28 0 -53 7t-29 7q-32 0 -32 -22q0 -16 50 -25q13 -2 72 -11q112 -17 149.5 -46.5
t37.5 -86.5q0 -85 -89.5 -140t-201.5 -55q-93 0 -154 25t-61 79q0 37 42.5 60t110.5 23v2q-41 15 -58 39.5t-17 63.5q0 85 138 103q-67 38 -67 118q0 44 20.5 76t54 48.5t68.5 24t71 7.5q85 0 130 -55h3q1 32 23.5 51.5t55.5 19.5q29 0 49 -14.5t20 -43.5zM290 407
q0 35 -25 35q-24 0 -38 -34q-13 -35 -27 -99t-14 -101q0 -36 26 -36q25 0 38 32q13 34 26.5 100t13.5 103zM297 -109q0 25 -30.5 35.5t-119.5 26.5q-31 6 -63 11q-40 0 -70.5 -19.5t-30.5 -59.5q0 -86 137 -86q75 0 126 28t51 64zM376 580q0 -34 -24 -58.5t-59 -24.5
t-58.5 24.5t-23.5 58.5t23.5 59t58.5 25t59 -25t24 -59z" />
    <glyph glyph-name="Gcommaaccent" unicode="&#x122;" horiz-adv-x="652" 
d="M278 16q51 0 69 23q23 30 33 79l10 45q9 45 9 59q0 38 -26 53q-19 12 -50 17l2 5h347l-1 -5q-43 -2 -69 -25q-32 -27 -50 -104l-35 -145h-5q-28 20 -55 20q-28 0 -82 -27q-50 -25 -118 -25q-119 0 -184 76t-65 174q0 186 111.5 310t292.5 124q53 0 91 -20t53 -47h3l62 44
h6l-62 -245h-7q5 119 -35 185t-101 66q-37 0 -60 -19t-48 -59q-34 -54 -76.5 -200.5t-42.5 -254.5q0 -44 22.5 -74t60.5 -30zM319 -115q0 -110 -163 -150l-2 13q105 31 105 62q0 8 -4.5 12t-19.5 8q-25 6 -43.5 22.5t-18.5 40.5q0 35 22.5 54t51.5 19q32 0 52 -21t20 -60z
" />
    <glyph glyph-name="gcommaaccent" unicode="&#x123;" horiz-adv-x="463" 
d="M547 414q0 -25 -14 -36.5t-34 -11.5q-27 0 -49 31q-2 3 -5 8.5t-5 8.5t-5 7t-5 5.5t-4 1.5q-17 0 -17 -42q0 -8 8 -32q8 -20 8 -40q0 -44 -20 -76t-53 -48t-67.5 -23.5t-70.5 -7.5q-28 0 -53 7t-29 7q-32 0 -32 -22q0 -16 50 -25q13 -2 72 -11q112 -17 149.5 -46.5
t37.5 -86.5q0 -85 -89.5 -140t-201.5 -55q-93 0 -154 25t-61 79q0 37 42.5 60t110.5 23v2q-41 15 -58 39.5t-17 63.5q0 85 138 103q-67 38 -67 118q0 44 20.5 76t54 48.5t68.5 24t71 7.5q85 0 130 -55h3q1 32 23.5 51.5t55.5 19.5q29 0 49 -14.5t20 -43.5zM290 407
q0 35 -25 35q-24 0 -38 -34q-13 -35 -27 -99t-14 -101q0 -36 26 -36q25 0 38 32q13 34 26.5 100t13.5 103zM297 -109q0 25 -30.5 35.5t-119.5 26.5q-31 6 -63 11q-40 0 -70.5 -19.5t-30.5 -59.5q0 -86 137 -86q75 0 126 28t51 64zM234 574q0 110 163 150l2 -13
q-105 -31 -105 -62q0 -8 4.5 -12t19.5 -8q25 -6 43.5 -22.5t18.5 -40.5q0 -35 -22.5 -54t-51.5 -19q-32 0 -52 21t-20 60z" />
    <glyph glyph-name="Hcircumflex" unicode="&#x124;" horiz-adv-x="793" 
d="M858 657l-1 -6q-21 -2 -42 -8q-34 -9 -56 -46q-26 -43 -54 -154l-56 -225q-25 -103 -25 -136q0 -49 40 -65q29 -11 43 -12l-1 -5h-382l1 5q19 2 36 9q30 12 48 45q16 30 48 155l26 104h-188l-25 -100q-29 -119 -29 -139q0 -49 30 -64q15 -8 37 -10l-1 -5h-382l1 5
q25 2 42 9q37 14 56 46q26 43 54 154l56 225q25 103 25 136q0 50 -39 65q-25 9 -44 11l1 6h381l-2 -6q-12 -1 -29 -8q-32 -15 -50 -45q-20 -34 -51 -155l-25 -101h188l24 97q27 111 27 137q0 48 -28 65q-15 8 -37 10l1 6h382zM628 707l-4 -4l-123 57l-173 -59l-1 5l154 142
h66z" />
    <glyph glyph-name="hcircumflex" unicode="&#x125;" horiz-adv-x="601" 
d="M586 129q-34 -59 -97 -98.5t-128 -39.5q-31 0 -52.5 19.5t-21.5 53.5q0 43 52 167q49 115 49 138q0 22 -19 22q-47 0 -150 -256q-25 -64 -49 -135h-180l188 571q13 39 13 61t-13 33q-11 11 -37 14l2 5h241q4 0 4 -4t-12 -35q-11 -28 -30 -87l-96 -299h7q49 104 100 150.5
t97 46.5q55 0 79 -24.5t24 -71.5q0 -12 -2 -24t-3.5 -20.5t-7.5 -24.5t-8.5 -23.5t-12 -30t-13.5 -32.5q-41 -100 -41 -131q0 -19 12 -19q16 0 45.5 22.5t50.5 56.5zM577 722l-4 -4l-123 57l-173 -59l-1 5l154 142h66z" />
    <glyph glyph-name="Hbar" unicode="&#x126;" horiz-adv-x="793" 
d="M858 657l-1 -6q-21 -2 -42 -8q-34 -9 -56 -46q-23 -38 -43 -113h98l-6 -24h-99q-2 -7 -4 -17l-56 -225q-25 -103 -25 -136q0 -49 40 -65q29 -11 43 -12l-1 -5h-382l1 5q19 2 36 9q30 12 48 45q16 30 48 155l26 104h-188l-25 -100q-29 -119 -29 -139q0 -49 30 -64
q15 -8 37 -10l-1 -5h-382l1 5q25 2 42 9q37 14 56 46q26 43 54 154l56 225l5 21h-99l6 24h98q15 64 15 91q0 50 -39 65q-25 9 -44 11l1 6h381l-2 -6q-12 -1 -29 -8q-32 -15 -50 -45q-19 -31 -41 -114h188q16 70 16 92q0 48 -28 65q-15 8 -37 10l1 6h382zM513 439l5 21h-188
q-2 -7 -4 -17l-25 -101h188z" />
    <glyph glyph-name="hbar" unicode="&#x127;" horiz-adv-x="601" 
d="M102 550l7 21h69q13 39 13 61t-13 33q-11 11 -37 14l2 5h240q4 0 4 -4q0 -2 -11 -35q-3 -8 -11.5 -31.5t-14.5 -42.5h97l-7 -21h-97l-93 -291h7q49 104 100 150.5t97 46.5q55 0 79 -24.5t24 -71.5q0 -12 -2 -24t-3.5 -20.5t-7.5 -24.5t-8.5 -23.5t-12 -30t-13.5 -32.5
q-41 -100 -41 -131q0 -19 12 -19q16 0 45.5 22.5t50.5 56.5l9 -5q-34 -59 -97 -98.5t-128 -39.5q-31 0 -52.5 19.5t-21.5 53.5q0 43 52 167q49 115 49 138q0 22 -19 22q-47 0 -150 -256q-25 -64 -49 -135h-180l181 550h-69z" />
    <glyph glyph-name="Itilde" unicode="&#x128;" horiz-adv-x="414" 
d="M479 657l-1 -6q-21 -2 -42 -8q-34 -9 -56 -46q-26 -43 -54 -154l-56 -225q-25 -103 -25 -136q0 -50 39 -65q29 -11 44 -12l-1 -5h-402l1 5q17 1 42 9q34 9 56 46q26 43 54 154l56 225q25 103 25 136q0 50 -39 65q-25 9 -44 11l1 6h402zM480 853h11q-17 -61 -52 -97.5
t-86 -36.5q-23 0 -67 13t-59 13q-21 0 -31.5 -1t-25 -9.5t-23.5 -26.5h-11q33 128 143 128q14 0 54.5 -12t65.5 -12q31 0 49 7t32 34z" />
    <glyph glyph-name="itilde" unicode="&#x129;" horiz-adv-x="337" 
d="M319 129q-34 -59 -97 -98.5t-128 -39.5q-31 0 -52.5 19.5t-21.5 53.5q0 8 2.5 20t5 22t9 28t10 28t12.5 33.5t13 32.5q2 6 11 27t13.5 34.5t11.5 32t10 33t3 24.5q0 13 -4.5 16.5t-14.5 3.5q-12 0 -37 -23t-49 -61l-11 6q78 135 213 135q32 0 53 -20t21 -55
q0 -40 -46 -157q-46 -118 -46 -150q0 -19 15 -19q16 0 45 22.5t50 56.5zM412 667h11q-17 -63 -52.5 -103.5t-85.5 -40.5q-23 0 -67 13t-59 13q-55 0 -80 -51h-11q38 147 143 147q14 0 54.5 -12t65.5 -12q29 0 48 9.5t33 36.5z" />
    <glyph glyph-name="Imacron" unicode="&#x12a;" horiz-adv-x="414" 
d="M479 657l-1 -6q-21 -2 -42 -8q-34 -9 -56 -46q-26 -43 -54 -154l-56 -225q-25 -103 -25 -136q0 -50 39 -65q29 -11 44 -12l-1 -5h-402l1 5q17 1 42 9q34 9 56 46q26 43 54 154l56 225q25 103 25 136q0 50 -39 65q-25 9 -44 11l1 6h402zM441 707h-290l16 62h290z" />
    <glyph glyph-name="imacron" unicode="&#x12b;" horiz-adv-x="337" 
d="M345 536h-254l16 62h254zM319 129q-34 -59 -97 -98.5t-128 -39.5q-31 0 -52.5 19.5t-21.5 53.5q0 8 2.5 20t5 22t9 28t10 28t12.5 33.5t13 32.5q2 6 11 27t13.5 34.5t11.5 32t10 33t3 24.5q0 13 -4.5 16.5t-14.5 3.5q-12 0 -37 -23t-49 -61l-11 6q78 135 213 135
q32 0 53 -20t21 -55q0 -40 -46 -157q-46 -118 -46 -150q0 -19 15 -19q16 0 45 22.5t50 56.5z" />
    <glyph glyph-name="Ibreve" unicode="&#x12c;" horiz-adv-x="414" 
d="M479 657l-1 -6q-21 -2 -42 -8q-34 -9 -56 -46q-26 -43 -54 -154l-56 -225q-25 -103 -25 -136q0 -50 39 -65q29 -11 44 -12l-1 -5h-402l1 5q17 1 42 9q34 9 56 46q26 43 54 154l56 225q25 103 25 136q0 50 -39 65q-25 9 -44 11l1 6h402zM184 851l9 4q12 -34 43 -53.5
t74 -19.5q45 0 84.5 19.5t61.5 53.5l7 -6q-29 -151 -161 -151q-54 0 -87 32t-34 79q0 28 3 42z" />
    <glyph glyph-name="ibreve" unicode="&#x12d;" horiz-adv-x="337" 
d="M319 129q-34 -59 -97 -98.5t-128 -39.5q-31 0 -52.5 19.5t-21.5 53.5q0 8 2.5 20t5 22t9 28t10 28t12.5 33.5t13 32.5q2 6 11 27t13.5 34.5t11.5 32t10 33t3 24.5q0 13 -4.5 16.5t-14.5 3.5q-12 0 -37 -23t-49 -61l-11 6q78 135 213 135q32 0 53 -20t21 -55
q0 -40 -46 -157q-46 -118 -46 -150q0 -19 15 -19q16 0 45 22.5t50 56.5zM125 670l9 4q11 -32 43 -52.5t67 -20.5q40 0 77 19.5t58 53.5l9 -6q-28 -151 -152 -151q-50 0 -81.5 32.5t-32.5 78.5q0 28 3 42z" />
    <glyph glyph-name="Iogonek" unicode="&#x12e;" horiz-adv-x="414" 
d="M181 -217q-85 -2 -129.5 18.5t-44.5 58.5q0 25 21 47.5t46.5 35t63.5 30t55 27.5h-268l1 5q17 1 42 9q34 9 56 46q26 43 54 154l56 225q25 103 25 136q0 50 -39 65q-25 9 -44 11l1 6h402l-1 -6q-21 -2 -42 -8q-34 -9 -56 -46q-26 -43 -54 -154l-56 -225
q-25 -103 -25 -136q0 -50 39 -65q29 -11 44 -12l-1 -5h-121q-80 -66 -80 -150q0 -56 58 -61z" />
    <glyph glyph-name="iogonek" unicode="&#x12f;" horiz-adv-x="337" 
d="M120 -217q-85 -2 -129.5 18.5t-44.5 58.5q0 32 32 55.5t93.5 48t76.5 33.5q-26 -6 -52 -6q-31 0 -52.5 19.5t-21.5 53.5q0 10 3 24t9 32.5t11 33.5t14 38.5t13 35.5q1 4 17.5 44.5t24 65.5t7.5 41q0 13 -4.5 16.5t-14.5 3.5q-12 0 -37 -23t-49 -61l-11 6q78 135 213 135
q32 0 53 -20t21 -55t-46 -157q-44 -117 -44 -150q0 -19 15 -19q16 0 45 22.5t50 56.5l9 -5q-40 -68 -113 -108q-143 -80 -143 -171q0 -56 58 -61zM347 580q0 -34 -24 -58.5t-59 -24.5t-58.5 24.5t-23.5 58.5t23.5 59t58.5 25t59 -25t24 -59z" />
    <glyph glyph-name="Idotaccent" unicode="&#x130;" horiz-adv-x="414" 
d="M479 657l-1 -6q-21 -2 -42 -8q-34 -9 -56 -46q-26 -43 -54 -154l-56 -225q-25 -103 -25 -136q0 -50 39 -65q29 -11 44 -12l-1 -5h-402l1 5q17 1 42 9q34 9 56 46q26 43 54 154l56 225q25 103 25 136q0 50 -39 65q-25 9 -44 11l1 6h402zM385 786q0 -36 -25 -61.5
t-63 -25.5q-37 0 -61.5 25.5t-24.5 61.5t25 62.5t61 26.5q37 0 62.5 -26.5t25.5 -62.5z" />
    <glyph glyph-name="dotlessi" unicode="&#x131;" horiz-adv-x="337" 
d="M319 129q-34 -59 -97 -98.5t-128 -39.5q-31 0 -52.5 19.5t-21.5 53.5q0 8 2.5 20t5 22t9 28t10 28t12.5 33.5t13 32.5q2 6 11 27t13.5 34.5t11.5 32t10 33t3 24.5q0 13 -4.5 16.5t-14.5 3.5q-12 0 -37 -23t-49 -61l-11 6q78 135 213 135q32 0 53 -20t21 -55
q0 -40 -46 -157q-46 -118 -46 -150q0 -19 15 -19q16 0 45 22.5t50 56.5z" />
    <glyph glyph-name="IJ" unicode="&#x132;" horiz-adv-x="887" 
d="M479 657l-1 -6q-21 -2 -42 -8q-34 -9 -56 -46q-26 -43 -54 -154l-56 -225q-25 -103 -25 -136q0 -50 39 -65q29 -11 44 -12l-1 -5h-402l1 5q17 1 42 9q34 9 56 46q26 43 54 154l56 225q25 103 25 136q0 50 -39 65q-25 9 -44 11l1 6h402zM982 657l-1 -6q-21 -2 -42 -8
q-34 -9 -56 -46q-26 -43 -54 -154l-56 -222q-26 -103 -103.5 -169t-192.5 -66q-88 0 -130.5 42t-42.5 98q0 46 30 72.5t71 26.5q35 0 64 -24t29 -68q0 -37 -35 -76q-2 -3 -8 -8.5t-9.5 -9.5t-7 -9t-3.5 -8q0 -10 8.5 -15.5t16.5 -5.5q34 0 58 28t47 121l72 289
q25 101 25 136q0 50 -39 65q-25 9 -44 11l1 6h402z" />
    <glyph glyph-name="ij" unicode="&#x133;" horiz-adv-x="639" 
d="M347 580q0 -34 -24 -58.5t-59 -24.5t-58.5 24.5t-23.5 58.5t23.5 59t58.5 25t59 -25t24 -59zM321 129q-34 -59 -97 -98.5t-128 -39.5q-31 0 -52.5 19.5t-21.5 53.5q0 10 3 24t9 32.5t11 33.5t14 38.5t13 35.5q1 4 17.5 44.5t24 65.5t7.5 41q0 13 -4.5 16.5t-14.5 3.5
q-12 0 -37 -23t-49 -61l-11 6q78 135 213 135q32 0 53 -20t21 -55t-46 -157q-44 -117 -44 -150q0 -19 15 -19q16 0 45 22.5t50 56.5zM694 584q0 -34 -24 -58.5t-59 -24.5t-58.5 24.5t-23.5 58.5t23.5 59t58.5 25t59 -25t24 -59zM639 381q0 -23 -26 -104t-50 -141
q-44 -110 -77.5 -166.5t-77.5 -99.5q-87 -83 -191 -83q-55 0 -97 29t-42 77q0 37 22.5 60.5t57.5 23.5q38 0 59 -24t21 -53q0 -31 -21 -59q-2 -3 -7 -8t-7.5 -8.5t-2.5 -6.5q0 -15 19 -15q33 0 60 43q13 21 35.5 79.5t50.5 140t31 90.5q72 197 72 223q0 13 -4.5 16.5
t-14.5 3.5q-12 0 -37 -23t-49 -61l-11 6q78 135 208 135q79 0 79 -75z" />
    <glyph glyph-name="Jcircumflex" unicode="&#x134;" horiz-adv-x="513" 
d="M608 657l-1 -6q-21 -2 -42 -8q-34 -9 -56 -46q-26 -43 -54 -154l-56 -222q-26 -103 -103.5 -169t-192.5 -66q-88 0 -130.5 42t-42.5 98q0 46 30 72.5t71 26.5q35 0 64 -24t29 -68q0 -37 -35 -76q-2 -3 -8 -8.5t-9.5 -9.5t-7 -9t-3.5 -8q0 -10 8.5 -15.5t16.5 -5.5
q34 0 58 28t47 121l72 289q25 101 25 136q0 50 -39 65q-25 9 -44 11l1 6h402zM573 707l-4 -4l-123 57l-173 -59l-1 5l154 142h66z" />
    <glyph glyph-name="jcircumflex" unicode="&#x135;" horiz-adv-x="302" 
d="M302 381q0 -23 -26 -104t-50 -141q-44 -110 -77.5 -166.5t-77.5 -99.5q-87 -83 -191 -83q-55 0 -97 29t-42 77q0 37 22.5 60.5t57.5 23.5q38 0 59 -24t21 -53q0 -31 -21 -59q-2 -3 -7 -8t-7.5 -8.5t-2.5 -6.5q0 -15 19 -15q33 0 60 43q13 21 35.5 79.5t50.5 140t31 90.5
q72 197 72 223q0 13 -4.5 16.5t-14.5 3.5q-12 0 -37 -23t-49 -61l-11 6q78 135 208 135q79 0 79 -75zM380 486l-4 -4l-123 77l-173 -79l-4 6l166 181h66z" />
    <glyph glyph-name="Kcommaaccent" unicode="&#x136;" horiz-adv-x="701" 
d="M750 657l-1 -5q-49 -10 -90 -30q-25 -12 -57 -38t-107 -95l-145 -132v-4q32 17 69 17q62 0 100.5 -37.5t41.5 -134.5q3 -82 17 -110t45 -28t55 43l8 -3q-16 -44 -61 -79t-116 -35q-36 0 -62.5 11t-41 27t-23.5 41t-12 44.5t-4 46.5q-2 40 -2.5 73.5t-1.5 46.5
q-3 42 -38 42q-16 0 -33 -16l-21 -84q-29 -119 -29 -139q0 -49 30 -64q15 -8 37 -10l-1 -5h-382l1 5q17 1 42 9q34 9 56 46q26 43 54 154l56 225q25 103 25 136q0 50 -39 65q-25 9 -44 11l1 6h381l-2 -6q-12 -1 -29 -8q-32 -15 -50 -45q-21 -35 -51 -155l-28 -114l186 175
q68 64 68 98q0 27 -29 40q-20 9 -37 10l2 5h262zM378 -115q0 -110 -163 -150l-2 13q105 31 105 62q0 8 -4.5 12t-19.5 8q-25 6 -43.5 22.5t-18.5 40.5q0 35 22.5 54t51.5 19q32 0 52 -21t20 -60z" />
    <glyph glyph-name="kcommaaccent" unicode="&#x137;" horiz-adv-x="588" 
d="M601 375q0 -38 -21 -60t-51 -22q-29 0 -48.5 16.5t-19.5 47.5q0 17 9 34q3 5 7 11.5t6.5 10.5t2.5 5q0 7 -7 7q-6 0 -11 -3t-11.5 -11.5t-10.5 -15t-13.5 -24t-15.5 -27.5q-39 -66 -80 -79v-4q61 -5 97.5 -35t38.5 -84q2 -57 4 -68q3 -21 18 -21t42 23.5t49 58.5l9 -6
q-35 -61 -92 -99.5t-121 -38.5q-32 0 -58 19.5t-26 53.5q0 38 15.5 90t15.5 63q0 12 -1.5 19t-11 14t-28.5 7h-37l-81 -257h-180l188 571q13 39 13 61t-13 33q-11 11 -37 14l2 5h241q4 0 4 -4q0 -9 -10 -35q-25 -64 -32 -87l-91 -288h37q70 0 111 81q28 55 51 80
q25 25 63 25q39 0 61.5 -22.5t22.5 -58.5zM293 -105q0 -110 -163 -150l-2 13q105 31 105 62q0 8 -4.5 12t-19.5 8q-25 6 -43.5 22.5t-18.5 40.5q0 35 22.5 54t51.5 19q32 0 52 -21t20 -60z" />
    <glyph glyph-name="Lacute" unicode="&#x139;" horiz-adv-x="588" 
d="M568 236l-66 -236h-577l1 5q17 1 42 9q34 9 56 46q26 43 54 154l56 225q25 103 25 136q0 50 -39 65q-25 9 -44 11l1 6h394l-2 -6q-15 -2 -46 -14q-27 -10 -46 -39q-4 -6 -8 -14t-6.5 -14t-6.5 -17.5t-6 -17.5t-6 -21t-5.5 -21t-6 -25t-6.5 -25l-72 -284q-19 -74 -19 -92
q0 -25 10 -36q14 -15 50 -15h11q43 0 129 78q90 81 128 142h5zM196 691l-4 6q96 84 139 124q34 33 75 33q24 0 41.5 -18.5t17.5 -50.5q0 -47 -69 -62q-32 -7 -200 -32z" />
    <glyph glyph-name="lacute" unicode="&#x13a;" horiz-adv-x="310" 
d="M370 680q0 -4 -12 -35l-32 -87q-17 -48 -57 -176t-50 -158q-43 -124 -43 -150q0 -19 15 -19q16 0 45 22.5t50 56.5l9 -5q-35 -59 -96 -98.5t-125 -39.5q-74 0 -74 73q0 31 55 189q10 30 103 318q13 39 13 61t-13 33q-11 11 -37 14l2 5h243q4 0 4 -4zM161 706l-4 6
q96 84 139 124q34 33 75 33q24 0 41.5 -18.5t17.5 -50.5q0 -47 -69 -62q-32 -7 -200 -32z" />
    <glyph glyph-name="Lcommaaccent" unicode="&#x13b;" horiz-adv-x="588" 
d="M568 236l-66 -236h-577l1 5q17 1 42 9q34 9 56 46q26 43 54 154l56 225q25 103 25 136q0 50 -39 65q-25 9 -44 11l1 6h394l-2 -6q-15 -2 -46 -14q-27 -10 -46 -39q-4 -6 -8 -14t-6.5 -14t-6.5 -17.5t-6 -17.5t-6 -21t-5.5 -21t-6 -25t-6.5 -25l-72 -284q-19 -74 -19 -92
q0 -25 10 -36q14 -15 50 -15h11q43 0 129 78q90 81 128 142h5zM315 -115q0 -110 -163 -150l-2 13q105 31 105 62q0 8 -4.5 12t-19.5 8q-25 6 -43.5 22.5t-18.5 40.5q0 35 22.5 54t51.5 19q32 0 52 -21t20 -60z" />
    <glyph glyph-name="lcommaaccent" unicode="&#x13c;" horiz-adv-x="310" 
d="M370 680q0 -4 -12 -35l-32 -87q-17 -48 -57 -176t-50 -158q-43 -124 -43 -150q0 -19 15 -19q16 0 45 22.5t50 56.5l9 -5q-35 -59 -96 -98.5t-125 -39.5q-74 0 -74 73q0 31 55 189q10 30 103 318q13 39 13 61t-13 33q-11 11 -37 14l2 5h243q4 0 4 -4zM139 -105
q0 -110 -163 -150l-2 13q105 31 105 62q0 8 -4.5 12t-19.5 8q-25 6 -43.5 22.5t-18.5 40.5q0 35 22.5 54t51.5 19q32 0 52 -21t20 -60z" />
    <glyph glyph-name="Lcaron" unicode="&#x13d;" horiz-adv-x="588" 
d="M568 236l-66 -236h-577l1 5q17 1 42 9q34 9 56 46q26 43 54 154l56 225q25 103 25 136q0 50 -39 65q-25 9 -44 11l1 6h394l-2 -6q-15 -2 -46 -14q-27 -10 -46 -39q-4 -6 -8 -14t-6.5 -14t-6.5 -17.5t-6 -17.5t-6 -21t-5.5 -21t-6 -25t-6.5 -25l-72 -284q-19 -74 -19 -92
q0 -25 10 -36q14 -15 50 -15h11q43 0 129 78q90 81 128 142h5zM451 447l63 210h120l-171 -210h-12z" />
    <glyph glyph-name="lcaron" unicode="&#x13e;" horiz-adv-x="310" 
d="M370 680q0 -4 -12 -35l-32 -87q-17 -48 -57 -176t-50 -158q-43 -124 -43 -150q0 -19 15 -19q16 0 45 22.5t50 56.5l9 -5q-35 -59 -96 -98.5t-125 -39.5q-74 0 -74 73q0 31 55 189q10 30 103 318q13 39 13 61t-13 33q-11 11 -37 14l2 5h243q4 0 4 -4zM355 484l59 200h115
q-77 -88 -162 -200h-12z" />
    <glyph glyph-name="Ldot" unicode="&#x13f;" horiz-adv-x="588" 
d="M562 215l-60 -215h-577l1 5q17 1 42 9q34 9 56 46q26 43 54 154l56 225q25 103 25 136q0 50 -39 65q-25 9 -44 11l1 6h394l-2 -6q-15 -2 -46 -14q-27 -10 -46 -39q-4 -6 -8 -14t-6.5 -14t-6.5 -17.5t-6 -17.5t-6 -21t-5.5 -21t-6 -25t-6.5 -25l-72 -284q-19 -74 -19 -92
q0 -25 10 -36q14 -15 50 -15h11q52 0 128 69q92 82 123 130h5zM611 357q0 -36 -25 -61.5t-63 -25.5t-62.5 25.5t-24.5 61.5q0 37 25 63t62 26q36 0 62 -26.5t26 -62.5z" />
    <glyph glyph-name="ldot" unicode="&#x140;" horiz-adv-x="405" 
d="M370 680q0 -4 -12 -35l-32 -87q-17 -48 -57 -176t-50 -158q-43 -124 -43 -150q0 -19 15 -19q16 0 45 22.5t50 56.5l9 -5q-35 -59 -96 -98.5t-125 -39.5q-74 0 -74 73q0 31 55 189q10 30 103 318q13 39 13 61t-13 33q-11 11 -37 14l2 5h243q4 0 4 -4zM435 325
q0 -30 -21 -51.5t-53 -21.5t-52.5 21t-20.5 52t21 53t52 22q30 0 52 -22.5t22 -52.5z" />
    <glyph glyph-name="Lslash" unicode="&#x141;" horiz-adv-x="588" 
d="M2 227l5 21l86 28l41 163q25 103 25 136q0 50 -39 65q-25 9 -44 11l1 6h394l-2 -6q-15 -2 -46 -14q-27 -10 -46 -39q-4 -6 -8 -14t-6.5 -14t-6.5 -17.5t-6 -17.5t-6 -21t-5.5 -21t-6 -25t-6.5 -25l-25 -98l203 67l-6 -21l-202 -67l-42 -165q-19 -74 -19 -92q0 -25 10 -36
q14 -15 50 -15h11q43 0 129 78q90 81 128 142h5l-66 -236h-577l1 5q17 1 42 9q34 9 56 46q26 43 54 154l10 41z" />
    <glyph glyph-name="lslash" unicode="&#x142;" horiz-adv-x="310" 
d="M6 295l5 20l74 27l73 229q13 39 13 61t-13 33q-11 11 -37 14l2 5h243q4 0 4 -4t-12 -35l-32 -87q-22 -63 -46 -142l75 28l-5 -20l-77 -29q-38 -122 -54 -171q-43 -124 -43 -150q0 -19 15 -19q16 0 45 22.5t50 56.5l9 -5q-35 -59 -96 -98.5t-125 -39.5q-74 0 -74 73
q0 31 55 189l23 69z" />
    <glyph glyph-name="Nacute" unicode="&#x143;" horiz-adv-x="638" 
d="M713 657l-1 -5q-2 -1 -12.5 -2.5t-16.5 -3.5q-30 -9 -50 -37q-25 -33 -47 -124l-122 -493h-19l-265 543h-3l-90 -363q-14 -56 -14 -99q0 -51 36 -62q14 -4 38 -6l-1 -5h-221l1 5q24 3 36 6q31 9 53 38q32 41 52 125l69 280q21 87 21 121q0 20 -14.5 40t-35.5 28
q-20 7 -38 9l1 5h268l176 -368h2l46 188q18 72 18 104q0 46 -41 63q-14 6 -39 8l1 5h212zM331 691l-4 6q96 84 139 124q34 33 75 33q24 0 41.5 -18.5t17.5 -50.5q0 -47 -69 -62q-32 -7 -200 -32z" />
    <glyph glyph-name="nacute" unicode="&#x144;" horiz-adv-x="615" 
d="M600 129q-34 -59 -97.5 -98.5t-128.5 -39.5q-31 0 -52.5 19.5t-21.5 53.5q0 40 53 167q49 115 49 138q0 22 -19 22q-48 0 -151 -256q-26 -64 -49 -135h-176l89 268q24 72 24 105q0 30 -21 30q-13 0 -36 -24t-47 -64l-11 6q78 135 189 135q42 0 65 -20.5t23 -56.5
q0 -59 -18 -120h7q49 104 100 150.5t97 46.5q55 0 78.5 -24t23.5 -72q0 -12 -2 -24t-3.5 -20.5t-7.5 -24.5t-8.5 -23.5t-12 -30t-13.5 -32.5q-41 -100 -41 -131q0 -19 13 -19q16 0 45 22.5t50 56.5zM545 613q0 -49 -75 -76q-72 -26 -191 -54l-1 5q90 111 125 146
q43 45 77 45q65 0 65 -66z" />
    <glyph glyph-name="Ncommaaccent" unicode="&#x145;" horiz-adv-x="638" 
d="M713 657l-1 -5q-2 -1 -12.5 -2.5t-16.5 -3.5q-30 -9 -50 -37q-25 -33 -47 -124l-122 -493h-19l-265 543h-3l-90 -363q-14 -56 -14 -99q0 -51 36 -62q14 -4 38 -6l-1 -5h-221l1 5q24 3 36 6q31 9 53 38q32 41 52 125l69 280q21 87 21 121q0 20 -14.5 40t-35.5 28
q-20 7 -38 9l1 5h268l176 -368h2l46 188q18 72 18 104q0 46 -41 63q-14 6 -39 8l1 5h212zM306 -115q0 -110 -163 -150l-2 13q105 31 105 62q0 8 -4.5 12t-19.5 8q-25 6 -43.5 22.5t-18.5 40.5q0 35 22.5 54t51.5 19q32 0 52 -21t20 -60z" />
    <glyph glyph-name="ncommaaccent" unicode="&#x146;" horiz-adv-x="615" 
d="M600 129q-34 -59 -97.5 -98.5t-128.5 -39.5q-31 0 -52.5 19.5t-21.5 53.5q0 40 53 167q49 115 49 138q0 22 -19 22q-48 0 -151 -256q-26 -64 -49 -135h-176l89 268q24 72 24 105q0 30 -21 30q-13 0 -36 -24t-47 -64l-11 6q78 135 189 135q42 0 65 -20.5t23 -56.5
q0 -59 -18 -120h7q49 104 100 150.5t97 46.5q55 0 78.5 -24t23.5 -72q0 -12 -2 -24t-3.5 -20.5t-7.5 -24.5t-8.5 -23.5t-12 -30t-13.5 -32.5q-41 -100 -41 -131q0 -19 13 -19q16 0 45 22.5t50 56.5zM306 -105q0 -110 -163 -150l-2 13q105 31 105 62q0 8 -4.5 12t-19.5 8
q-25 6 -43.5 22.5t-18.5 40.5q0 35 22.5 54t51.5 19q32 0 52 -21t20 -60z" />
    <glyph glyph-name="Ncaron" unicode="&#x147;" horiz-adv-x="638" 
d="M713 657l-1 -5q-2 -1 -12.5 -2.5t-16.5 -3.5q-30 -9 -50 -37q-25 -33 -47 -124l-122 -493h-19l-265 543h-3l-90 -363q-14 -56 -14 -99q0 -51 36 -62q14 -4 38 -6l-1 -5h-221l1 5q24 3 36 6q31 9 53 38q32 41 52 125l69 280q21 87 21 121q0 20 -14.5 40t-35.5 28
q-20 7 -38 9l1 5h268l176 -368h2l46 188q18 72 18 104q0 46 -41 63q-14 6 -39 8l1 5h212zM325 843l4 4l123 -57l173 59l1 -5l-154 -142h-66z" />
    <glyph glyph-name="ncaron" unicode="&#x148;" horiz-adv-x="615" 
d="M600 129q-34 -59 -97.5 -98.5t-128.5 -39.5q-31 0 -52.5 19.5t-21.5 53.5q0 40 53 167q49 115 49 138q0 22 -19 22q-48 0 -151 -256q-26 -64 -49 -135h-176l89 268q24 72 24 105q0 30 -21 30q-13 0 -36 -24t-47 -64l-11 6q78 135 189 135q42 0 65 -20.5t23 -56.5
q0 -59 -18 -120h7q49 104 100 150.5t97 46.5q55 0 78.5 -24t23.5 -72q0 -12 -2 -24t-3.5 -20.5t-7.5 -24.5t-8.5 -23.5t-12 -30t-13.5 -32.5q-41 -100 -41 -131q0 -19 13 -19q16 0 45 22.5t50 56.5zM256 660l4 4l123 -87l173 89l4 -6l-166 -181h-66z" />
    <glyph glyph-name="napostrophe" unicode="&#x149;" horiz-adv-x="615" 
d="M600 129q-34 -59 -97.5 -98.5t-128.5 -39.5q-31 0 -52.5 19.5t-21.5 53.5q0 40 53 167q49 115 49 138q0 22 -19 22q-48 0 -151 -256q-26 -64 -49 -135h-176l89 268q24 72 24 105q0 30 -21 30q-13 0 -36 -24t-47 -64l-11 6q78 135 189 135q42 0 65 -20.5t23 -56.5
q0 -59 -18 -120h7q49 104 100 150.5t97 46.5q55 0 78.5 -24t23.5 -72q0 -12 -2 -24t-3.5 -20.5t-7.5 -24.5t-8.5 -23.5t-12 -30t-13.5 -32.5q-41 -100 -41 -131q0 -19 13 -19q16 0 45 22.5t50 56.5zM157 579q0 -56 -60.5 -100.5t-144.5 -65.5l-2 13q48 14 85.5 35t37.5 38
q0 11 -20 18q-53 21 -53 74q0 34 21.5 56.5t52.5 22.5q39 0 61 -24t22 -67z" />
    <glyph glyph-name="Eng" unicode="&#x14a;" horiz-adv-x="638" 
d="M439 -16l3 14l-262 537h-3l-90 -363q-14 -56 -14 -99q0 -51 36 -62q14 -4 38 -6l-1 -5h-221l1 5q24 3 36 6q31 9 53 38q32 41 52 125l69 280q21 87 21 121q0 20 -14.5 40t-35.5 28q-20 7 -38 9l1 5h268l176 -368h2l46 188q18 72 18 104q0 46 -41 63q-14 6 -39 8l1 5h212
l-1 -5q-2 -1 -12.5 -2.5t-16.5 -3.5q-30 -9 -50 -37q-25 -33 -47 -124l-123 -496q-26 -104 -60.5 -148.5t-100.5 -44.5q-67 0 -106 42t-39 95q0 46 30 74t71 28q35 0 64 -24t29 -68q0 -41 -31 -76q-2 -3 -8 -8.5t-9.5 -9.5t-7 -9t-3.5 -8q0 -19 14 -19q52 0 82.5 44.5
t50.5 126.5z" />
    <glyph glyph-name="eng" unicode="&#x14b;" horiz-adv-x="615" 
d="M402 373q0 18 -19 18q-48 0 -151 -256q-26 -64 -49 -135h-176l89 268q24 72 24 105q0 30 -21 30q-13 0 -36 -24t-47 -64l-11 6q78 135 189 135q42 0 65 -20.5t23 -56.5q0 -59 -18 -120h7q49 104 100 150.5t97 46.5q55 0 78.5 -24t23.5 -72q0 -58 -66 -224
q-44 -110 -77.5 -166.5t-77.5 -99.5q-87 -83 -191 -83q-55 0 -97 29t-42 77q0 37 22.5 60.5t57.5 23.5q38 0 59 -24t21 -53q0 -31 -21 -59q-2 -3 -7 -8t-7.5 -8.5t-2.5 -6.5q0 -15 19 -15q33 0 60 43q13 21 35.5 79.5t50.5 140t31 90.5q16 43 40.5 122t24.5 95z" />
    <glyph glyph-name="Omacron" unicode="&#x14c;" horiz-adv-x="667" 
d="M255 3q57 0 95 84q32 68 72.5 210.5t40.5 250.5q0 23 -1.5 38.5t-7 32.5t-17 25.5t-29.5 8.5q-62 0 -100 -84q-32 -68 -72.5 -210.5t-40.5 -250.5q0 -105 60 -105zM401 670q114 0 181.5 -72.5t67.5 -186.5q0 -79 -25 -153t-72 -135.5t-124 -99t-172 -37.5
q-114 0 -181.5 72.5t-67.5 186.5q0 79 25 153t72 135.5t124 99t172 37.5zM561 707h-290l16 62h290z" />
    <glyph glyph-name="omacron" unicode="&#x14d;" horiz-adv-x="510" 
d="M490 267q0 -58 -27 -114t-71 -94q-78 -68 -191 -68q-85 0 -135.5 52.5t-50.5 136.5q0 58 27 114t71 94q78 68 191 68q85 0 135.5 -52.5t50.5 -136.5zM336 420q0 10 -6.5 17.5t-17.5 7.5q-7 0 -13 -2.5t-15.5 -14t-19.5 -33.5q-25 -53 -60 -180t-35 -179q0 -34 24 -34
q26 0 47 45q29 63 62.5 183.5t33.5 189.5zM454 536h-250l16 62h250z" />
    <glyph glyph-name="Obreve" unicode="&#x14e;" horiz-adv-x="667" 
d="M255 3q57 0 95 84q32 68 72.5 210.5t40.5 250.5q0 23 -1.5 38.5t-7 32.5t-17 25.5t-29.5 8.5q-62 0 -100 -84q-32 -68 -72.5 -210.5t-40.5 -250.5q0 -105 60 -105zM401 670q114 0 181.5 -72.5t67.5 -186.5q0 -79 -25 -153t-72 -135.5t-124 -99t-172 -37.5
q-114 0 -181.5 72.5t-67.5 186.5q0 79 25 153t72 135.5t124 99t172 37.5zM304 851l9 4q12 -34 43 -53.5t74 -19.5q45 0 84.5 19.5t61.5 53.5l7 -6q-29 -151 -161 -151q-54 0 -87 32t-34 79q0 28 3 42z" />
    <glyph glyph-name="obreve" unicode="&#x14f;" horiz-adv-x="510" 
d="M490 267q0 -58 -27 -114t-71 -94q-78 -68 -191 -68q-85 0 -135.5 52.5t-50.5 136.5q0 58 27 114t71 94q78 68 191 68q85 0 135.5 -52.5t50.5 -136.5zM336 420q0 10 -6.5 17.5t-17.5 7.5q-7 0 -13 -2.5t-15.5 -14t-19.5 -33.5q-25 -53 -60 -180t-35 -179q0 -34 24 -34
q26 0 47 45q29 63 62.5 183.5t33.5 189.5zM221 670l9 4q11 -32 43 -52.5t67 -20.5q40 0 77 19.5t58 53.5l9 -6q-28 -151 -152 -151q-50 0 -81.5 32.5t-32.5 78.5q0 28 3 42z" />
    <glyph glyph-name="Ohungarumlaut" unicode="&#x150;" horiz-adv-x="667" 
d="M255 3q57 0 95 84q32 68 72.5 210.5t40.5 250.5q0 23 -1.5 38.5t-7 32.5t-17 25.5t-29.5 8.5q-62 0 -100 -84q-32 -68 -72.5 -210.5t-40.5 -250.5q0 -105 60 -105zM401 670q114 0 181.5 -72.5t67.5 -186.5q0 -79 -25 -153t-72 -135.5t-124 -99t-172 -37.5
q-114 0 -181.5 72.5t-67.5 186.5q0 79 25 153t72 135.5t124 99t172 37.5zM497 830q0 -17 -19 -35.5t-44 -31.5q-11 -6 -31.5 -15t-51 -23t-51.5 -24h-11q26 37 51 77t36 55q33 46 70 46q51 0 51 -49zM677 830q0 -17 -19 -35.5t-44 -31.5q-11 -6 -31.5 -15t-51 -23t-51.5 -24
h-11q26 37 51 77t36 55q33 46 70 46q51 0 51 -49z" />
    <glyph glyph-name="ohungarumlaut" unicode="&#x151;" horiz-adv-x="510" 
d="M490 267q0 -58 -27 -114t-71 -94q-78 -68 -191 -68q-85 0 -135.5 52.5t-50.5 136.5q0 58 27 114t71 94q78 68 191 68q85 0 135.5 -52.5t50.5 -136.5zM336 420q0 10 -6.5 17.5t-17.5 7.5q-7 0 -13 -2.5t-15.5 -14t-19.5 -33.5q-25 -53 -60 -180t-35 -179q0 -34 24 -34
q26 0 47 45q29 63 62.5 183.5t33.5 189.5zM323 672q25 0 42 -16t17 -45q0 -33 -41 -58q-62 -39 -158 -77l-5 4q45 88 76 143q27 49 69 49zM515 672q25 0 42 -16t17 -45q0 -33 -41 -58q-62 -39 -158 -77l-5 4q45 88 76 143q27 49 69 49z" />
    <glyph glyph-name="OE" unicode="&#x152;" horiz-adv-x="973" 
d="M973 657l-22 -227h-6q-10 75 -53 145q-41 65 -101 65h-27q-30 0 -42 -16t-21 -53l-56 -222h21q62 0 102 35q22 19 45.5 54t32.5 60h6l-80 -322h-6q3 26 -3 66.5t-19 60.5q-19 30 -81 30h-22l-44 -174q-19 -74 -19 -92q0 -29 15 -40t45 -11h11q41 0 129 78q87 79 128 142
h5l-66 -236h-456q-23 0 -76 -3.5t-65 -3.5q-97 0 -168.5 63.5t-71.5 189.5q0 181 117 297.5t296 116.5q3 0 57 -1.5t75 -1.5h420zM489 562q0 36 -19 58.5t-52 22.5q-54 0 -79 -34q-26 -34 -90.5 -245.5t-64.5 -282.5t67 -71q46 0 79 44q27 35 93 236.5t66 271.5z" />
    <glyph glyph-name="oe" unicode="&#x153;" horiz-adv-x="762" 
d="M762 360q0 -41 -41 -74q-30 -23 -219 -80q-11 -64 -11 -114q0 -28 8 -42t31 -14q51 0 99.5 34.5t80.5 73.5l8 -6q-41 -66 -104 -106.5t-143 -40.5q-36 0 -69 19.5t-42 47.5h-3q-26 -31 -70 -49t-86 -18q-85 0 -135.5 52.5t-50.5 136.5q0 58 27 114t71 94q78 68 191 68
q42 0 82 -23t58 -52h3q27 29 85.5 52t96.5 23q63 0 98 -29t35 -67zM652 403q0 39 -28 39q-38 0 -70 -64t-49 -156q77 22 103 44q44 37 44 137zM336 420q0 10 -6.5 17.5t-17.5 7.5q-7 0 -13 -2.5t-15.5 -14t-19.5 -33.5q-25 -53 -60 -180t-35 -179q0 -34 24 -34q26 0 47 45
q29 63 62.5 183.5t33.5 189.5z" />
    <glyph glyph-name="Racute" unicode="&#x154;" horiz-adv-x="681" 
d="M681 100q-16 -45 -56.5 -79t-110.5 -34q-45 0 -77 15t-48 40.5t-22.5 52.5t-6.5 57q0 93 -3 133q-3 42 -40 42h-20l-27 -109q-25 -103 -25 -136q0 -50 39 -65q26 -9 54 -12l-1 -5h-412l1 5q17 1 42 9q34 9 56 46q24 40 53 154l56 226q25 103 25 134q0 51 -39 66
q-29 11 -44 12l2 5h346q122 0 173 -39t51 -109q0 -50 -31 -89t-86 -61q-46 -19 -115 -26l-1 -3q65 -5 102.5 -42t40.5 -104q3 -81 16.5 -105.5t45.5 -24.5q34 0 54 49zM468 582q0 29 -7.5 43.5t-29.5 14.5h-15q-38 0 -51 -48l-64 -249h42q22 0 37 6.5t32 28.5q25 33 40.5 94
t15.5 110zM309 691l-4 6q96 84 139 124q34 33 75 33q24 0 41.5 -18.5t17.5 -50.5q0 -47 -69 -62q-32 -7 -200 -32z" />
    <glyph glyph-name="racute" unicode="&#x155;" horiz-adv-x="485" 
d="M509 368q0 -42 -19 -69t-54 -27q-56 0 -77 49q-4 10 -8 22.5t-6 17t-6 4.5q-13 0 -106 -230q-32 -81 -50 -135h-176l89 268q24 72 24 105q0 30 -21 30q-13 0 -36 -24t-47 -64l-11 6q78 135 189 135q42 0 65 -20.5t23 -56.5q0 -49 -21 -120h7q38 115 73.5 156t80.5 41
q87 0 87 -88zM517 613q0 -49 -75 -76q-72 -26 -191 -54l-1 5q90 111 125 146q43 45 77 45q65 0 65 -66z" />
    <glyph glyph-name="Rcommaaccent" unicode="&#x156;" horiz-adv-x="681" 
d="M681 100q-16 -45 -56.5 -79t-110.5 -34q-45 0 -77 15t-48 40.5t-22.5 52.5t-6.5 57q0 93 -3 133q-3 42 -40 42h-20l-27 -109q-25 -103 -25 -136q0 -50 39 -65q26 -9 54 -12l-1 -5h-412l1 5q17 1 42 9q34 9 56 46q24 40 53 154l56 226q25 103 25 134q0 51 -39 66
q-29 11 -44 12l2 5h346q122 0 173 -39t51 -109q0 -50 -31 -89t-86 -61q-46 -19 -115 -26l-1 -3q65 -5 102.5 -42t40.5 -104q3 -81 16.5 -105.5t45.5 -24.5q34 0 54 49zM468 582q0 29 -7.5 43.5t-29.5 14.5h-15q-38 0 -51 -48l-64 -249h42q22 0 37 6.5t32 28.5q25 33 40.5 94
t15.5 110zM377 -115q0 -110 -163 -150l-2 13q105 31 105 62q0 8 -4.5 12t-19.5 8q-25 6 -43.5 22.5t-18.5 40.5q0 35 22.5 54t51.5 19q32 0 52 -21t20 -60z" />
    <glyph glyph-name="rcommaaccent" unicode="&#x157;" horiz-adv-x="485" 
d="M509 368q0 -42 -19 -69t-54 -27q-56 0 -77 49q-4 10 -8 22.5t-6 17t-6 4.5q-13 0 -106 -230q-32 -81 -50 -135h-176l89 268q24 72 24 105q0 30 -21 30q-13 0 -36 -24t-47 -64l-11 6q78 135 189 135q42 0 65 -20.5t23 -56.5q0 -49 -21 -120h7q38 115 73.5 156t80.5 41
q87 0 87 -88zM153 -105q0 -110 -163 -150l-2 13q105 31 105 62q0 8 -4.5 12t-19.5 8q-25 6 -43.5 22.5t-18.5 40.5q0 35 22.5 54t51.5 19q32 0 52 -21t20 -60z" />
    <glyph glyph-name="Rcaron" unicode="&#x158;" horiz-adv-x="681" 
d="M681 100q-16 -45 -56.5 -79t-110.5 -34q-45 0 -77 15t-48 40.5t-22.5 52.5t-6.5 57q0 93 -3 133q-3 42 -40 42h-20l-27 -109q-25 -103 -25 -136q0 -50 39 -65q26 -9 54 -12l-1 -5h-412l1 5q17 1 42 9q34 9 56 46q24 40 53 154l56 226q25 103 25 134q0 51 -39 66
q-29 11 -44 12l2 5h346q122 0 173 -39t51 -109q0 -50 -31 -89t-86 -61q-46 -19 -115 -26l-1 -3q65 -5 102.5 -42t40.5 -104q3 -81 16.5 -105.5t45.5 -24.5q34 0 54 49zM468 582q0 29 -7.5 43.5t-29.5 14.5h-15q-38 0 -51 -48l-64 -249h42q22 0 37 6.5t32 28.5q25 33 40.5 94
t15.5 110zM304 843l4 4l123 -57l173 59l1 -5l-154 -142h-66z" />
    <glyph glyph-name="rcaron" unicode="&#x159;" horiz-adv-x="485" 
d="M509 368q0 -42 -19 -69t-54 -27q-56 0 -77 49q-4 10 -8 22.5t-6 17t-6 4.5q-13 0 -106 -230q-32 -81 -50 -135h-176l89 268q24 72 24 105q0 30 -21 30q-13 0 -36 -24t-47 -64l-11 6q78 135 189 135q42 0 65 -20.5t23 -56.5q0 -49 -21 -120h7q38 115 73.5 156t80.5 41
q87 0 87 -88zM211 660l4 4l123 -87l173 89l4 -6l-166 -181h-66z" />
    <glyph glyph-name="Sacute" unicode="&#x15a;" horiz-adv-x="536" 
d="M526 653l-53 -215h-8q0 46 -5.5 81.5t-18.5 68t-40 50t-67 17.5q-42 0 -64 -27t-22 -69q0 -34 21.5 -63.5t70.5 -64.5q89 -66 120 -110t31 -114q0 -90 -75.5 -155.5t-190.5 -65.5q-102 0 -164 85h-5l-62 -69h-4l52 260h8q26 -260 173 -260q52 0 81.5 25t29.5 70
q0 40 -23 68.5t-102 91.5q-62 51 -91 95t-29 105q0 92 65.5 152.5t182.5 60.5q91 0 137 -68h1l43 51h8zM255 691l-4 6q96 84 139 124q34 33 75 33q24 0 41.5 -18.5t17.5 -50.5q0 -47 -69 -62q-32 -7 -200 -32z" />
    <glyph glyph-name="sacute" unicode="&#x15b;" horiz-adv-x="398" 
d="M384 363q0 -26 -17.5 -42.5t-45.5 -16.5q-24 0 -40.5 15t-19.5 36q-2 12 -1.5 33.5t-2.5 29.5q-6 25 -36 25q-39 0 -39 -45q0 -46 85 -101q101 -65 101 -145q0 -68 -63.5 -114.5t-146.5 -46.5q-72 0 -115 28.5t-43 78.5q0 30 17.5 46.5t42.5 16.5q50 0 59 -50
q2 -12 0.5 -36.5t-0.5 -32.5q3 -18 18.5 -27.5t32.5 -9.5q74 0 74 59q0 17 -14 31.5t-63 51.5q-16 12 -25 19q-38 29 -56.5 60t-18.5 75q0 76 49 115.5t117 39.5q67 0 109 -23t42 -70zM444 613q0 -49 -75 -76q-72 -26 -191 -54l-1 5q90 111 125 146q43 45 77 45q65 0 65 -66
z" />
    <glyph glyph-name="Scircumflex" unicode="&#x15c;" horiz-adv-x="536" 
d="M526 653l-53 -215h-8q0 46 -5.5 81.5t-18.5 68t-40 50t-67 17.5q-42 0 -64 -27t-22 -69q0 -34 21.5 -63.5t70.5 -64.5q89 -66 120 -110t31 -114q0 -90 -75.5 -155.5t-190.5 -65.5q-102 0 -164 85h-5l-62 -69h-4l52 260h8q26 -260 173 -260q52 0 81.5 25t29.5 70
q0 40 -23 68.5t-102 91.5q-62 51 -91 95t-29 105q0 92 65.5 152.5t182.5 60.5q91 0 137 -68h1l43 51h8zM503 707l-4 -4l-123 57l-173 -59l-1 5l154 142h66z" />
    <glyph glyph-name="scircumflex" unicode="&#x15d;" horiz-adv-x="398" 
d="M384 363q0 -26 -17.5 -42.5t-45.5 -16.5q-24 0 -40.5 15t-19.5 36q-2 12 -1.5 33.5t-2.5 29.5q-6 25 -36 25q-39 0 -39 -45q0 -46 85 -101q101 -65 101 -145q0 -68 -63.5 -114.5t-146.5 -46.5q-72 0 -115 28.5t-43 78.5q0 30 17.5 46.5t42.5 16.5q50 0 59 -50
q2 -12 0.5 -36.5t-0.5 -32.5q3 -18 18.5 -27.5t32.5 -9.5q74 0 74 59q0 17 -14 31.5t-63 51.5q-16 12 -25 19q-38 29 -56.5 60t-18.5 75q0 76 49 115.5t117 39.5q67 0 109 -23t42 -70zM408 486l-4 -4l-123 77l-173 -79l-4 6l166 181h66z" />
    <glyph glyph-name="Scedilla" unicode="&#x15e;" horiz-adv-x="536" 
d="M286 -107q0 -84 -146 -84q-31 0 -65 18l4 7q22 -9 50 -9q35 0 53 19t18 51q0 19 -11 34.5t-24 15.5q-16 0 -26 -9l-12 4l31 57q-56 18 -97 74h-5l-62 -69h-4l52 260h8q26 -260 173 -260q52 0 81.5 25t29.5 70q0 40 -23 68.5t-102 91.5q-62 51 -91 95t-29 105
q0 92 65.5 152.5t182.5 60.5q91 0 137 -68h1l43 51h8l-53 -215h-8q0 46 -5.5 81.5t-18.5 68t-40 50t-67 17.5q-42 0 -64 -27t-22 -69q0 -34 21.5 -63.5t70.5 -64.5q89 -66 120 -110t31 -114q0 -90 -75.5 -155.5t-190.5 -65.5q-29 0 -53 7l-22 -40q19 13 56 13q80 0 80 -73z
" />
    <glyph glyph-name="scedilla" unicode="&#x15f;" horiz-adv-x="398" 
d="M238 -107q0 -84 -146 -84q-31 0 -65 18l4 7q22 -9 50 -9q35 0 53 19t18 51q0 19 -11 34.5t-24 15.5q-16 0 -26 -9l-12 4l30 55q-51 8 -80 35t-29 68q0 30 17.5 46.5t42.5 16.5q50 0 59 -50q2 -12 0.5 -36.5t-0.5 -32.5q3 -18 18.5 -27.5t32.5 -9.5q74 0 74 59
q0 17 -14 31.5t-63 51.5q-16 12 -25 19q-38 29 -56.5 60t-18.5 75q0 76 49 115.5t117 39.5q67 0 109 -23t42 -70q0 -26 -17.5 -42.5t-45.5 -16.5q-24 0 -40.5 15t-19.5 36q-2 12 -1.5 33.5t-2.5 29.5q-6 25 -36 25q-39 0 -39 -45q0 -46 85 -101q101 -65 101 -145
q0 -68 -63.5 -114.5t-146.5 -46.5q-16 0 -34 2l-22 -40q19 13 56 13q80 0 80 -73z" />
    <glyph glyph-name="Scaron" unicode="&#x160;" horiz-adv-x="536" 
d="M526 653l-53 -215h-8q0 46 -5.5 81.5t-18.5 68t-40 50t-67 17.5q-42 0 -64 -27t-22 -69q0 -34 21.5 -63.5t70.5 -64.5q89 -66 120 -110t31 -114q0 -90 -75.5 -155.5t-190.5 -65.5q-102 0 -164 85h-5l-62 -69h-4l52 260h8q26 -260 173 -260q52 0 81.5 25t29.5 70
q0 40 -23 68.5t-102 91.5q-62 51 -91 95t-29 105q0 92 65.5 152.5t182.5 60.5q91 0 137 -68h1l43 51h8zM249 843l4 4l123 -57l173 59l1 -5l-154 -142h-66z" />
    <glyph glyph-name="scaron" unicode="&#x161;" horiz-adv-x="398" 
d="M384 363q0 -26 -17.5 -42.5t-45.5 -16.5q-24 0 -40.5 15t-19.5 36q-2 12 -1.5 33.5t-2.5 29.5q-6 25 -36 25q-39 0 -39 -45q0 -46 85 -101q101 -65 101 -145q0 -68 -63.5 -114.5t-146.5 -46.5q-72 0 -115 28.5t-43 78.5q0 30 17.5 46.5t42.5 16.5q50 0 59 -50
q2 -12 0.5 -36.5t-0.5 -32.5q3 -18 18.5 -27.5t32.5 -9.5q74 0 74 59q0 17 -14 31.5t-63 51.5q-16 12 -25 19q-38 29 -56.5 60t-18.5 75q0 76 49 115.5t117 39.5q67 0 109 -23t42 -70zM155 660l4 4l123 -87l173 89l4 -6l-166 -181h-66z" />
    <glyph glyph-name="Tcommaaccent" unicode="&#x162;" horiz-adv-x="639" 
d="M694 657l-30 -239h-6q-16 96 -61.5 159t-100.5 63h-16l-105 -422q-24 -99 -24 -136q0 -50 39 -65q29 -11 43 -12l-1 -5h-402l1 5q17 1 42 9q34 9 56 46q26 43 54 154l106 426h-13q-15 0 -28.5 -3t-28 -11t-25.5 -14.5t-26.5 -22l-25 -25t-27.5 -32t-27 -34t-30.5 -39.5
t-31.5 -41h-6l78 239h596zM274 -115q0 -110 -163 -150l-2 13q105 31 105 62q0 8 -4.5 12t-19.5 8q-25 6 -43.5 22.5t-18.5 40.5q0 35 22.5 54t51.5 19q32 0 52 -21t20 -60z" />
    <glyph glyph-name="tcommaaccent" unicode="&#x163;" horiz-adv-x="328" 
d="M393 425h-100l-72 -201q-49 -139 -49 -155t14 -16q19 0 50 24.5t54 56.5l10 -5q-34 -59 -97.5 -98.5t-128.5 -39.5q-31 0 -52.5 19.5t-21.5 53.5q0 28 48 164l76 197h-69l8 22h69l48 130h165l-45 -130h101zM137 -105q0 -110 -163 -150l-2 13q105 31 105 62q0 8 -4.5 12
t-19.5 8q-25 6 -43.5 22.5t-18.5 40.5q0 35 22.5 54t51.5 19q32 0 52 -21t20 -60z" />
    <glyph glyph-name="Tcaron" unicode="&#x164;" horiz-adv-x="639" 
d="M694 657l-30 -239h-6q-16 96 -61.5 159t-100.5 63h-16l-105 -422q-24 -99 -24 -136q0 -50 39 -65q29 -11 43 -12l-1 -5h-402l1 5q17 1 42 9q34 9 56 46q26 43 54 154l106 426h-13q-15 0 -28.5 -3t-28 -11t-25.5 -14.5t-26.5 -22l-25 -25t-27.5 -32t-27 -34t-30.5 -39.5
t-31.5 -41h-6l78 239h596zM293 843l4 4l123 -57l173 59l1 -5l-154 -142h-66z" />
    <glyph glyph-name="tcaron" unicode="&#x165;" horiz-adv-x="328" 
d="M393 425h-100l-72 -201q-49 -139 -49 -155t14 -16q19 0 50 24.5t54 56.5l10 -5q-34 -59 -97.5 -98.5t-128.5 -39.5q-31 0 -52.5 19.5t-21.5 53.5q0 28 48 164l76 197h-69l8 22h69l48 130h165l-45 -130h101zM355 484l59 200h115q-77 -88 -162 -200h-12z" />
    <glyph glyph-name="Tbar" unicode="&#x166;" horiz-adv-x="639" 
d="M694 657l-30 -239h-6q-16 96 -61.5 159t-100.5 63h-16l-56 -226h105l-6 -24h-105l-43 -172q-24 -99 -24 -136q0 -50 39 -65q29 -11 43 -12l-1 -5h-402l1 5q17 1 42 9q34 9 56 46q26 43 54 154l44 176h-102l6 24h102l56 226h-13q-15 0 -28.5 -3t-28 -11t-25.5 -14.5
t-26.5 -22l-25 -25t-27.5 -32t-27 -34t-30.5 -39.5t-31.5 -41h-6l78 239h596z" />
    <glyph glyph-name="tbar" unicode="&#x167;" horiz-adv-x="328" 
d="M390 425h-100l-29 -84h110l-8 -22h-110l-32 -95q-49 -139 -49 -155t14 -16q19 0 50 24.5t54 56.5l10 -5q-34 -59 -97.5 -98.5t-128.5 -39.5q-31 0 -52.5 19.5t-21.5 53.5q0 28 48 164l33 91h-64l8 22h64l32 84h-69l8 22h71l49 130h165l-46 -130h99z" />
    <glyph glyph-name="Utilde" unicode="&#x168;" 
d="M735 657l-1 -5q-2 -1 -12.5 -2.5t-16.5 -3.5q-30 -9 -50 -37q-22 -30 -49 -134l-65 -261q-29 -114 -87.5 -171t-167.5 -57q-221 0 -221 204q0 34 28 146l25 104q25 103 25 136q0 50 -39 65q-25 9 -44 11l1 5h381l-2 -5q-14 -2 -30 -8q-29 -14 -50 -46q-21 -31 -44 -130
l-63 -262q-10 -41 -10 -87q0 -45 23.5 -73t67.5 -28q66 0 114.5 51.5t71.5 145.5l64 257q18 72 18 109q0 45 -42 63q-14 6 -39 8l2 5h212zM638 853h11q-17 -61 -52 -97.5t-86 -36.5q-23 0 -67 13t-59 13q-21 0 -31.5 -1t-25 -9.5t-23.5 -26.5h-11q33 128 143 128
q14 0 54.5 -12t65.5 -12q31 0 49 7t32 34z" />
    <glyph glyph-name="utilde" unicode="&#x169;" horiz-adv-x="610" 
d="M600 128q-36 -61 -87.5 -99t-109.5 -38q-40 0 -63.5 23.5t-23.5 69.5q0 27 23 104h-7q-56 -119 -103 -158t-106 -39q-38 0 -64.5 26t-26.5 70q0 12 2 24t3.5 20.5t7.5 24.5t8.5 23.5t12 30t13.5 32.5q41 100 41 131q0 30 -22 30q-13 0 -36 -24t-47 -64l-10 7
q77 134 189 134q51 0 78 -24t27 -59q0 -40 -49 -157q-49 -115 -49 -138q0 -22 19 -22q47 0 150 256q26 65 49 135h176l-89 -268q-23 -69 -23 -105q0 -22 18 -22q15 0 41.5 23t48.5 58zM557 667h11q-17 -63 -52.5 -103.5t-85.5 -40.5q-23 0 -67 13t-59 13q-54 0 -80 -51h-11
q38 147 143 147q14 0 54.5 -12t65.5 -12q29 0 48 9.5t33 36.5z" />
    <glyph glyph-name="Umacron" unicode="&#x16a;" 
d="M735 657l-1 -5q-2 -1 -12.5 -2.5t-16.5 -3.5q-30 -9 -50 -37q-22 -30 -49 -134l-65 -261q-29 -114 -87.5 -171t-167.5 -57q-221 0 -221 204q0 34 28 146l25 104q25 103 25 136q0 50 -39 65q-25 9 -44 11l1 5h381l-2 -5q-14 -2 -30 -8q-29 -14 -50 -46q-21 -31 -44 -130
l-63 -262q-10 -41 -10 -87q0 -45 23.5 -73t67.5 -28q66 0 114.5 51.5t71.5 145.5l64 257q18 72 18 109q0 45 -42 63q-14 6 -39 8l2 5h212zM600 707h-290l16 62h290z" />
    <glyph glyph-name="umacron" unicode="&#x16b;" horiz-adv-x="610" 
d="M600 128q-36 -61 -87.5 -99t-109.5 -38q-40 0 -63.5 23.5t-23.5 69.5q0 27 23 104h-7q-56 -119 -103 -158t-106 -39q-38 0 -64.5 26t-26.5 70q0 12 2 24t3.5 20.5t7.5 24.5t8.5 23.5t12 30t13.5 32.5q41 100 41 131q0 30 -22 30q-13 0 -36 -24t-47 -64l-10 7
q77 134 189 134q51 0 78 -24t27 -59q0 -40 -49 -157q-49 -115 -49 -138q0 -22 19 -22q47 0 150 256q26 65 49 135h176l-89 -268q-23 -69 -23 -105q0 -22 18 -22q15 0 41.5 23t48.5 58zM503 536h-250l16 62h250z" />
    <glyph glyph-name="Ubreve" unicode="&#x16c;" 
d="M735 657l-1 -5q-2 -1 -12.5 -2.5t-16.5 -3.5q-30 -9 -50 -37q-22 -30 -49 -134l-65 -261q-29 -114 -87.5 -171t-167.5 -57q-221 0 -221 204q0 34 28 146l25 104q25 103 25 136q0 50 -39 65q-25 9 -44 11l1 5h381l-2 -5q-14 -2 -30 -8q-29 -14 -50 -46q-21 -31 -44 -130
l-63 -262q-10 -41 -10 -87q0 -45 23.5 -73t67.5 -28q66 0 114.5 51.5t71.5 145.5l64 257q18 72 18 109q0 45 -42 63q-14 6 -39 8l2 5h212zM342 851l9 4q12 -34 43 -53.5t74 -19.5q45 0 84.5 19.5t61.5 53.5l7 -6q-29 -151 -161 -151q-54 0 -87 32t-34 79q0 28 3 42z" />
    <glyph glyph-name="ubreve" unicode="&#x16d;" horiz-adv-x="610" 
d="M600 128q-36 -61 -87.5 -99t-109.5 -38q-40 0 -63.5 23.5t-23.5 69.5q0 27 23 104h-7q-56 -119 -103 -158t-106 -39q-38 0 -64.5 26t-26.5 70q0 12 2 24t3.5 20.5t7.5 24.5t8.5 23.5t12 30t13.5 32.5q41 100 41 131q0 30 -22 30q-13 0 -36 -24t-47 -64l-10 7
q77 134 189 134q51 0 78 -24t27 -59q0 -40 -49 -157q-49 -115 -49 -138q0 -22 19 -22q47 0 150 256q26 65 49 135h176l-89 -268q-23 -69 -23 -105q0 -22 18 -22q15 0 41.5 23t48.5 58zM270 670l9 4q11 -32 43 -52.5t67 -20.5q40 0 77 19.5t58 53.5l9 -6q-28 -151 -152 -151
q-50 0 -81.5 32.5t-32.5 78.5q0 28 3 42z" />
    <glyph glyph-name="Uring" unicode="&#x16e;" 
d="M735 657l-1 -5q-2 -1 -12.5 -2.5t-16.5 -3.5q-30 -9 -50 -37q-22 -30 -49 -134l-65 -261q-29 -114 -87.5 -171t-167.5 -57q-221 0 -221 204q0 34 28 146l25 104q25 103 25 136q0 50 -39 65q-25 9 -44 11l1 5h381l-2 -5q-14 -2 -30 -8q-29 -14 -50 -46q-21 -31 -44 -130
l-63 -262q-10 -41 -10 -87q0 -45 23.5 -73t67.5 -28q66 0 114.5 51.5t71.5 145.5l64 257q18 72 18 109q0 45 -42 63q-14 6 -39 8l2 5h212zM580 764q1 -38 -28.5 -65.5t-67.5 -27.5q-40 0 -68 26.5t-28 66.5t27.5 66.5t67.5 26.5q41 0 68.5 -26t28.5 -67zM543 763
q0 29 -16.5 46.5t-44.5 17.5q-27 0 -43.5 -17.5t-16.5 -45.5q0 -27 16 -44.5t43 -17.5q29 0 45.5 16t16.5 45z" />
    <glyph glyph-name="uring" unicode="&#x16f;" horiz-adv-x="610" 
d="M600 128q-36 -61 -87.5 -99t-109.5 -38q-40 0 -63.5 23.5t-23.5 69.5q0 27 23 104h-7q-56 -119 -103 -158t-106 -39q-38 0 -64.5 26t-26.5 70q0 12 2 24t3.5 20.5t7.5 24.5t8.5 23.5t12 30t13.5 32.5q41 100 41 131q0 30 -22 30q-13 0 -36 -24t-47 -64l-10 7
q77 134 189 134q51 0 78 -24t27 -59q0 -40 -49 -157q-49 -115 -49 -138q0 -22 19 -22q47 0 150 256q26 65 49 135h176l-89 -268q-23 -69 -23 -105q0 -22 18 -22q15 0 41.5 23t48.5 58zM478 589q1 -38 -28.5 -65.5t-67.5 -27.5q-40 0 -68 26.5t-28 66.5t27.5 66.5t67.5 26.5
q41 0 68.5 -26t28.5 -67zM441 588q0 29 -16.5 46.5t-44.5 17.5q-27 0 -43.5 -17.5t-16.5 -45.5q0 -27 16 -44.5t43 -17.5q29 0 45.5 16t16.5 45z" />
    <glyph glyph-name="Uhungarumlaut" unicode="&#x170;" 
d="M735 657l-1 -5q-2 -1 -12.5 -2.5t-16.5 -3.5q-30 -9 -50 -37q-22 -30 -49 -134l-65 -261q-29 -114 -87.5 -171t-167.5 -57q-221 0 -221 204q0 34 28 146l25 104q25 103 25 136q0 50 -39 65q-25 9 -44 11l1 5h381l-2 -5q-14 -2 -30 -8q-29 -14 -50 -46q-21 -31 -44 -130
l-63 -262q-10 -41 -10 -87q0 -45 23.5 -73t67.5 -28q66 0 114.5 51.5t71.5 145.5l64 257q18 72 18 109q0 45 -42 63q-14 6 -39 8l2 5h212zM536 830q0 -17 -19 -35.5t-44 -31.5q-11 -6 -31.5 -15t-51 -23t-51.5 -24h-11q26 37 51 77t36 55q33 46 70 46q51 0 51 -49zM716 830
q0 -17 -19 -35.5t-44 -31.5q-11 -6 -31.5 -15t-51 -23t-51.5 -24h-11q26 37 51 77t36 55q33 46 70 46q51 0 51 -49z" />
    <glyph glyph-name="uhungarumlaut" unicode="&#x171;" horiz-adv-x="610" 
d="M600 128q-36 -61 -87.5 -99t-109.5 -38q-40 0 -63.5 23.5t-23.5 69.5q0 27 23 104h-7q-56 -119 -103 -158t-106 -39q-38 0 -64.5 26t-26.5 70q0 12 2 24t3.5 20.5t7.5 24.5t8.5 23.5t12 30t13.5 32.5q41 100 41 131q0 30 -22 30q-13 0 -36 -24t-47 -64l-10 7
q77 134 189 134q51 0 78 -24t27 -59q0 -40 -49 -157q-49 -115 -49 -138q0 -22 19 -22q47 0 150 256q26 65 49 135h176l-89 -268q-23 -69 -23 -105q0 -22 18 -22q15 0 41.5 23t48.5 58zM373 672q25 0 42 -16t17 -45q0 -33 -41 -58q-62 -39 -158 -77l-5 4q45 88 76 143
q27 49 69 49zM565 672q25 0 42 -16t17 -45q0 -33 -41 -58q-62 -39 -158 -77l-5 4q45 88 76 143q27 49 69 49z" />
    <glyph glyph-name="Uogonek" unicode="&#x172;" 
d="M320 -217q-85 -2 -129.5 18.5t-44.5 58.5q0 19 11 35t35 30.5t41.5 23t53 22.5t47.5 19q-19 -4 -48 -4q-221 0 -221 204q0 34 28 146l25 104q25 103 25 136q0 50 -39 65q-25 9 -44 11l1 5h381l-2 -5q-14 -2 -30 -8q-29 -14 -50 -46q-21 -31 -44 -130l-63 -262
q-10 -41 -10 -87q0 -45 23.5 -73t67.5 -28q66 0 114.5 51.5t71.5 145.5l64 257q18 72 18 109q0 45 -42 63q-14 6 -39 8l2 5h212l-1 -5q-2 -1 -12.5 -2.5t-16.5 -3.5q-30 -9 -50 -37q-22 -30 -49 -134l-65 -261q-21 -85 -58.5 -138t-99.5 -75q-46 -17 -82 -58.5t-36 -92.5
q0 -56 58 -61z" />
    <glyph glyph-name="uogonek" unicode="&#x173;" horiz-adv-x="610" 
d="M418 -217q-85 -2 -129.5 18.5t-44.5 58.5q0 24 22.5 46t48.5 34.5t67.5 29.5t58.5 26q-20 -5 -38 -5q-40 0 -63.5 23.5t-23.5 69.5q0 27 23 104h-7q-56 -119 -103 -158t-106 -39q-38 0 -64.5 26t-26.5 70q0 12 2 24t3.5 20.5t7.5 24.5t8.5 23.5t12 30t13.5 32.5
q41 100 41 131q0 30 -22 30q-13 0 -36 -24t-47 -64l-10 7q77 134 189 134q51 0 78 -24t27 -59q0 -40 -49 -157q-49 -115 -49 -138q0 -22 19 -22q47 0 150 256q26 65 49 135h176l-89 -268q-23 -69 -23 -105q0 -22 18 -22q15 0 41.5 23t48.5 58l9 -5q-41 -69 -95 -104
q-35 -23 -52.5 -35.5t-42.5 -35.5t-36 -48t-11 -55q0 -56 58 -61z" />
    <glyph glyph-name="Wcircumflex" unicode="&#x174;" horiz-adv-x="1021" 
d="M1167 657l-1 -6q-26 -3 -51 -15q-67 -32 -129 -111l-416 -525h-150l113 439l1 2l-354 -441h-150l113 439q25 96 25 136q0 49 -40 65q-29 11 -43 12l1 5h382l-1 -5q-19 -2 -36 -9q-30 -12 -48 -45q-20 -37 -48 -155l-70 -299h5l273 338q15 68 15 93q0 49 -40 65
q-32 12 -33 12l1 5h372l-1 -5q-19 -2 -36 -9q-30 -12 -48 -45q-20 -37 -48 -155l-70 -299h5l291 373q32 42 32 74q0 30 -25 44q-23 13 -54 16l1 6h262zM817 707l-4 -4l-123 57l-173 -59l-1 5l154 142h66z" />
    <glyph glyph-name="wcircumflex" unicode="&#x175;" horiz-adv-x="783" 
d="M778 377q0 -53 -19.5 -133.5t-55.5 -136.5q-75 -115 -205 -115q-71 0 -118 44q-88 -44 -176 -44q-63 0 -101.5 36t-38.5 100q0 58 47.5 103t103.5 73q-16 7 -77 45q-7 4 -17.5 11.5t-16 10.5t-13 7t-14 5.5t-13.5 1.5q-3 0 -7 -3.5t-4 -6.5t5.5 -7.5t13.5 -10t11 -7.5
q22 -19 22 -35q0 -24 -14.5 -40t-39.5 -16t-38 16t-13 39q0 29 49 78q62 64 111 64q30 0 80 -36q45 -33 66 -33q13 0 25 11t19 28q7 18 12 24t16 6q7 0 12 -4.5t5 -11.5q0 -9 -27 -28q-7 -4 -26 -31q-89 -123 -89 -262q0 -33 15 -54t46 -21q24 0 50 9q-33 42 -33 93
q0 77 38.5 146.5t92.5 116.5q55 47 92 47q25 0 42.5 -20.5t17.5 -63.5q0 -116 -93 -225q25 -77 94 -77q44 0 74 46q44 66 44 173q0 16 -18 44.5t-22 36.5q-10 23 -10 35q0 17 12 32.5t34 15.5q21 0 35 -20.5t14 -55.5zM589 362q0 32 -12 47t-28 15q-19 0 -33 -28.5
t-14 -88.5q0 -81 11 -133q76 96 76 188zM698 486l-4 -4l-123 77l-173 -79l-4 6l166 181h66z" />
    <glyph glyph-name="Ycircumflex" unicode="&#x176;" horiz-adv-x="612" 
d="M732 657l-1 -5q-28 -6 -55 -21q-63 -34 -130 -130l-157 -223l-14 -60q-25 -109 -25 -136q0 -50 39 -65q29 -11 44 -12l-1 -5h-402l1 5q17 1 42 9q34 9 56 46q26 43 54 154l13 51l-72 278q-25 94 -94 109l1 5h363l-1 -5q-23 -2 -40 -9q-33 -14 -33 -46q0 -10 16 -76
l51 -204h5l139 196q44 62 44 95q0 24 -20 34q-17 9 -31 10l1 5h207zM592 707l-4 -4l-123 57l-173 -59l-1 5l154 142h66z" />
    <glyph glyph-name="ycircumflex" unicode="&#x177;" horiz-adv-x="433" 
d="M423 406q0 -77 -33 -163t-85 -159t-100 -128t-93 -94q-84 -75 -149 -75q-42 0 -65.5 21t-23.5 50t18.5 45.5t38.5 16.5q25 0 37 -7.5t28 -26.5q31 -37 52 -37q20 0 50 27q6 6 21 19t28 25t23 24q-7 220 -52 357q-20 62 -30 72q-9 9 -20 9q-36 0 -70 -67l-11 6
q63 135 179 135q78 0 113 -111q11 -37 19 -105.5t8 -121.5h3q63 103 63 178q0 50 -20 75q-17 23 -17 36q0 25 13 37t31 12q19 0 31.5 -14.5t12.5 -35.5zM418 486l-4 -4l-123 77l-173 -79l-4 6l166 181h66z" />
    <glyph glyph-name="Ydieresis" unicode="&#x178;" horiz-adv-x="612" 
d="M732 657l-1 -5q-28 -6 -55 -21q-63 -34 -130 -130l-157 -223l-14 -60q-25 -109 -25 -136q0 -50 39 -65q29 -11 44 -12l-1 -5h-402l1 5q17 1 42 9q34 9 56 46q26 43 54 154l13 51l-72 278q-25 94 -94 109l1 5h363l-1 -5q-23 -2 -40 -9q-33 -14 -33 -46q0 -10 16 -76
l51 -204h5l139 196q44 62 44 95q0 24 -20 34q-17 9 -31 10l1 5h207zM338 854q32 0 54.5 -23t22.5 -55q0 -31 -22 -53.5t-55 -22.5t-54.5 22.5t-21.5 53.5q0 32 22 55t54 23zM574 854q32 0 54.5 -23t22.5 -55q0 -31 -22 -53.5t-55 -22.5t-54.5 22.5t-21.5 53.5q0 32 22 55
t54 23z" />
    <glyph glyph-name="Zacute" unicode="&#x179;" horiz-adv-x="570" 
d="M640 657l-1 -5l-458 -637h50q33 0 82 22.5t87 56.5q90 81 128 142h5l-66 -236h-527l1 5l454 636h-25q-76 0 -174 -65q-29 -19 -71 -61.5t-55 -64.5h-5l59 207h516zM292 691l-4 6q96 84 139 124q34 33 75 33q24 0 41.5 -18.5t17.5 -50.5q0 -47 -69 -62q-32 -7 -200 -32z
" />
    <glyph glyph-name="zacute" unicode="&#x17a;" horiz-adv-x="503" 
d="M519 421q0 -28 -33 -45q-9 -5 -44 -27t-44 -29q-20 -15 -101.5 -70.5t-112.5 -78.5q24 4 39 4q40 0 87 -10q71 -16 80 -16q52 0 69 30q13 21 21 38l11 -4q-10 -34 -16.5 -54.5t-18.5 -50t-25 -47t-31 -35.5t-41.5 -26t-51.5 -8q-69 0 -110 51q-5 6 -13.5 17t-13 16
t-11 13t-10.5 11.5t-9.5 8t-10 6t-9.5 1.5q-33 0 -62 -90q-5 -14 -17 -24t-26 -10q-30 0 -30 31q0 23 33 46l75 56l261 187q-12 -5 -53 -5q-61 0 -117 23q-66 27 -75 27q-22 0 -38.5 -14.5t-16.5 -40.5q0 -13 13 -21q13 47 58 47q23 0 40.5 -16t17.5 -41q0 -26 -17.5 -44
t-42.5 -18q-37 0 -60.5 28.5t-23.5 81.5q0 61 40.5 99t97.5 38q37 0 61 -11.5t47 -36.5q7 -8 22.5 -30t28.5 -34.5t26 -12.5q27 0 49 26.5t31 61.5q10 37 41 37q17 0 26.5 -10.5t9.5 -24.5zM505 613q0 -49 -75 -76q-72 -26 -191 -54l-1 5q90 111 125 146q43 45 77 45
q65 0 65 -66z" />
    <glyph glyph-name="Zdotaccent" unicode="&#x17b;" horiz-adv-x="570" 
d="M640 657l-1 -5l-458 -637h50q33 0 82 22.5t87 56.5q90 81 128 142h5l-66 -236h-527l1 5l454 636h-25q-76 0 -174 -65q-29 -19 -71 -61.5t-55 -64.5h-5l59 207h516zM486 786q0 -36 -25 -61.5t-63 -25.5q-37 0 -61.5 25.5t-24.5 61.5t25 62.5t61 26.5q37 0 62.5 -26.5
t25.5 -62.5z" />
    <glyph glyph-name="zdotaccent" unicode="&#x17c;" horiz-adv-x="503" 
d="M519 421q0 -28 -33 -45q-9 -5 -44 -27t-44 -29q-20 -15 -101.5 -70.5t-112.5 -78.5q24 4 39 4q40 0 87 -10q71 -16 80 -16q52 0 69 30q13 21 21 38l11 -4q-10 -34 -16.5 -54.5t-18.5 -50t-25 -47t-31 -35.5t-41.5 -26t-51.5 -8q-69 0 -110 51q-5 6 -13.5 17t-13 16
t-11 13t-10.5 11.5t-9.5 8t-10 6t-9.5 1.5q-33 0 -62 -90q-5 -14 -17 -24t-26 -10q-30 0 -30 31q0 23 33 46l75 56l261 187q-12 -5 -53 -5q-61 0 -117 23q-66 27 -75 27q-22 0 -38.5 -14.5t-16.5 -40.5q0 -13 13 -21q13 47 58 47q23 0 40.5 -16t17.5 -41q0 -26 -17.5 -44
t-42.5 -18q-37 0 -60.5 28.5t-23.5 81.5q0 61 40.5 99t97.5 38q37 0 61 -11.5t47 -36.5q7 -8 22.5 -30t28.5 -34.5t26 -12.5q27 0 49 26.5t31 61.5q10 37 41 37q17 0 26.5 -10.5t9.5 -24.5zM412 580q0 -34 -24 -58.5t-59 -24.5t-58.5 24.5t-23.5 58.5t23.5 59t58.5 25
t59 -25t24 -59z" />
    <glyph glyph-name="Zcaron" unicode="&#x17d;" horiz-adv-x="570" 
d="M640 657l-1 -5l-458 -637h50q33 0 82 22.5t87 56.5q90 81 128 142h5l-66 -236h-527l1 5l454 636h-25q-76 0 -174 -65q-29 -19 -71 -61.5t-55 -64.5h-5l59 207h516zM286 843l4 4l123 -57l173 59l1 -5l-154 -142h-66z" />
    <glyph glyph-name="zcaron" unicode="&#x17e;" horiz-adv-x="503" 
d="M519 421q0 -28 -33 -45q-9 -5 -44 -27t-44 -29q-20 -15 -101.5 -70.5t-112.5 -78.5q24 4 39 4q40 0 87 -10q71 -16 80 -16q52 0 69 30q13 21 21 38l11 -4q-10 -34 -16.5 -54.5t-18.5 -50t-25 -47t-31 -35.5t-41.5 -26t-51.5 -8q-69 0 -110 51q-5 6 -13.5 17t-13 16
t-11 13t-10.5 11.5t-9.5 8t-10 6t-9.5 1.5q-33 0 -62 -90q-5 -14 -17 -24t-26 -10q-30 0 -30 31q0 23 33 46l75 56l261 187q-12 -5 -53 -5q-61 0 -117 23q-66 27 -75 27q-22 0 -38.5 -14.5t-16.5 -40.5q0 -13 13 -21q13 47 58 47q23 0 40.5 -16t17.5 -41q0 -26 -17.5 -44
t-42.5 -18q-37 0 -60.5 28.5t-23.5 81.5q0 61 40.5 99t97.5 38q37 0 61 -11.5t47 -36.5q7 -8 22.5 -30t28.5 -34.5t26 -12.5q27 0 49 26.5t31 61.5q10 37 41 37q17 0 26.5 -10.5t9.5 -24.5zM216 660l4 4l123 -87l173 89l4 -6l-166 -181h-66z" />
    <glyph glyph-name="florin" unicode="&#x192;" horiz-adv-x="462" 
d="M114 425l9 32q32 111 107 162.5t168 51.5q71 0 112.5 -29.5t41.5 -75.5q0 -85 -75 -85q-42 0 -61.5 20t-22.5 48q-1 9 6.5 43t5.5 45q-1 8 -2.5 11.5t-4.5 5.5t-10 2q-38 0 -64 -132q-4 -20 -18 -99h80l-6 -21h-79q-43 -225 -96 -376q-73 -210 -255 -210q-64 0 -107 30.5
t-43 74.5q0 29 13.5 46.5t27.5 22t29 4.5q37 0 54 -21t18 -49q0 -7 -5.5 -33.5t-4.5 -34.5q2 -12 6.5 -16.5t16.5 -4.5q36 0 48 76q12 73 30.5 159t42.5 188t33 144h-72l5 21h72z" />
    <glyph glyph-name="Aringacute" unicode="&#x1fa;" horiz-adv-x="646" 
d="M631 657l-113 -439q-24 -92 -24 -136q0 -50 39 -65q29 -11 43 -12l-1 -5h-382l1 5q19 2 36 9q30 12 48 45q20 37 48 155l9 38h-170l-95 -112q-32 -39 -32 -74q0 -30 25 -44t54 -17l-1 -5h-261l1 5q23 3 51 16q64 31 132 111l446 525h146zM404 528h-5l-217 -256h158z
M683 794q1 -38 -28.5 -65.5t-67.5 -27.5q-40 0 -68 26.5t-28 66.5t27.5 66.5t67.5 26.5q41 0 68.5 -26t28.5 -67zM646 793q0 29 -16.5 46.5t-44.5 17.5q-27 0 -43.5 -17.5t-16.5 -45.5q0 -27 16 -44.5t43 -17.5q29 0 45.5 16t16.5 45zM513 913l-4 6q96 84 139 124
q34 33 75 33q24 0 41.5 -18.5t17.5 -50.5q0 -47 -69 -62q-32 -7 -200 -32z" />
    <glyph glyph-name="aringacute" unicode="&#x1fb;" horiz-adv-x="553" 
d="M548 128q-34 -59 -97 -98t-128 -39q-31 0 -50.5 18t-19.5 53q0 24 8 53h-3q-18 -39 -45 -71q-47 -53 -102 -53q-56 0 -83.5 30.5t-27.5 101.5q0 80 45 158t115.5 126.5t141.5 48.5q59 0 65 -41h6q12 21 20 32h147l-66 -203q-4 -13 -11 -33.5t-10.5 -31l-8.5 -25.5
t-7.5 -24t-5 -19.5t-3.5 -18t-1 -14.5q0 -24 17 -24q16 0 45 22.5t50 55.5zM460 589q1 -38 -28.5 -65.5t-67.5 -27.5q-40 0 -68 26.5t-28 66.5t27.5 66.5t67.5 26.5q41 0 68.5 -26t28.5 -67zM346 401q0 37 -18 37q-21 0 -50 -54q-32 -59 -70.5 -163.5t-38.5 -136.5
q0 -23 4.5 -28.5t12.5 -5.5q20 0 45 41q24 39 45 98q6 17 22.5 57.5t24.5 62.5t15.5 49.5t7.5 42.5zM296 701l-4 6q96 84 139 124q34 33 75 33q24 0 41.5 -18.5t17.5 -50.5q0 -47 -69 -62q-32 -7 -200 -32zM423 588q0 29 -16.5 46.5t-44.5 17.5q-27 0 -43.5 -17.5
t-16.5 -45.5q0 -27 16 -44.5t43 -17.5q29 0 45.5 16t16.5 45z" />
    <glyph glyph-name="AEacute" unicode="&#x1fc;" horiz-adv-x="922" 
d="M922 657l-22 -227h-6q-10 75 -53 145q-40 65 -101 65h-27q-30 0 -41.5 -15.5t-21.5 -53.5l-56 -222h21q62 0 102 35q22 19 46 54t32 60h6l-80 -322h-6q4 25 -2.5 66t-19.5 61q-19 30 -81 30h-22l-44 -174q-19 -74 -19 -92q0 -25 10 -36q14 -15 50 -15h11q50 0 136 78
q75 67 121 142h5l-66 -236h-577l1 5q17 1 42 9q34 9 56 46q23 38 54 154l10 38h-215l-95 -112q-32 -39 -32 -74q0 -30 25 -44t54 -17l-1 -5h-266l1 5q23 3 51 16q59 28 129 111l416 488q-7 8 -37.5 19t-41.5 12l1 6h553zM473 613h-6l-285 -340h203zM567 691l-4 6
q96 84 139 124q34 33 75 33q24 0 41.5 -18.5t17.5 -50.5q0 -47 -69 -62q-32 -7 -200 -32z" />
    <glyph glyph-name="aeacute" unicode="&#x1fd;" horiz-adv-x="764" 
d="M764 360q0 -41 -41 -74q-21 -17 -86 -40.5t-133 -39.5q-11 -64 -11 -114q0 -28 8 -42t31 -14q51 0 99.5 34.5t80.5 73.5l8 -6q-91 -147 -257 -147q-152 0 -157 169h-7q-38 -83 -66 -116q-21 -24 -51.5 -38.5t-55.5 -14.5q-111 0 -111 132q0 80 45 158t115.5 126.5
t141.5 48.5q30 0 41 -11t14 -30h6q12 21 20 32h119l-8 -25h2q65 34 120 34q63 0 98 -29t35 -67zM654 403q0 39 -28 39q-38 0 -70 -64t-49 -156q77 22 103 44q44 37 44 137zM361 401q0 37 -18 37q-21 0 -50 -54q-32 -59 -70.5 -163.5t-38.5 -136.5q0 -23 4.5 -28.5t12.5 -5.5
q20 0 45 41q24 39 45 98q6 17 22.5 57.5t24.5 62.5t15.5 49.5t7.5 42.5zM657 613q0 -49 -75 -76q-72 -26 -191 -54l-1 5q90 111 125 146q43 45 77 45q65 0 65 -66z" />
    <glyph glyph-name="Oslashacute" unicode="&#x1fe;" horiz-adv-x="667" 
d="M650 411q0 -108 -46 -206.5t-132 -156.5q-92 -62 -215 -62q-41 0 -80 11l-29 -62l-18 7l29 61q-71 27 -111 91.5t-40 150.5q0 97 37.5 188t108.5 151q101 86 247 86q38 0 71 -9l27 56l18 -8l-26 -54q75 -25 117 -90.5t42 -153.5zM463 548q0 15 -2 43l-259 -543
q14 -45 53 -45q57 0 95 84q32 68 72.5 210.5t40.5 250.5zM195 108q0 -18 1 -27l257 540q-12 32 -45 32q-62 0 -100 -84q-32 -68 -72.5 -210.5t-40.5 -250.5zM311 691l-4 6q96 84 139 124q34 33 75 33q24 0 41.5 -18.5t17.5 -50.5q0 -47 -69 -62q-32 -7 -200 -32z" />
    <glyph glyph-name="oslashacute" unicode="&#x1ff;" horiz-adv-x="510" 
d="M490 267q0 -58 -27 -114t-71 -94q-78 -68 -191 -68q-31 0 -60 8l-30 -57l-16 9l29 54q-52 20 -80.5 66.5t-28.5 108.5q0 58 27 114t71 94q78 68 191 68q29 0 58 -8l37 69l16 -7l-36 -67q52 -20 81.5 -67t29.5 -109zM500 613q0 -49 -75 -76q-72 -26 -191 -54l-1 5
q90 111 125 146q43 45 77 45q65 0 65 -66zM240 47q22 47 49.5 138t39.5 164l-159 -297q-1 -6 -1 -16q0 -34 24 -34q26 0 47 45zM336 420q0 10 -6.5 17.5t-17.5 7.5q-7 0 -13 -2.5t-15.5 -14t-19.5 -33.5q-19 -39 -46 -129.5t-41 -161.5l158 294q0 4 0.5 11.5t0.5 10.5z" />
    <glyph glyph-name="Scommaaccent" unicode="&#x218;" horiz-adv-x="536" 
d="M526 653l-53 -215h-8q0 46 -5.5 81.5t-18.5 68t-40 50t-67 17.5q-42 0 -64 -27t-22 -69q0 -34 21.5 -63.5t70.5 -64.5q89 -66 120 -110t31 -114q0 -90 -75.5 -155.5t-190.5 -65.5q-102 0 -164 85h-5l-62 -69h-4l52 260h8q26 -260 173 -260q52 0 81.5 25t29.5 70
q0 40 -23 68.5t-102 91.5q-62 51 -91 95t-29 105q0 92 65.5 152.5t182.5 60.5q91 0 137 -68h1l43 51h8zM248 -115q0 -110 -163 -150l-2 13q105 31 105 62q0 8 -4.5 12t-19.5 8q-25 6 -43.5 22.5t-18.5 40.5q0 35 22.5 54t51.5 19q32 0 52 -21t20 -60z" />
    <glyph glyph-name="scommaaccent" unicode="&#x219;" horiz-adv-x="398" 
d="M384 363q0 -26 -17.5 -42.5t-45.5 -16.5q-24 0 -40.5 15t-19.5 36q-2 12 -1.5 33.5t-2.5 29.5q-6 25 -36 25q-39 0 -39 -45q0 -46 85 -101q101 -65 101 -145q0 -68 -63.5 -114.5t-146.5 -46.5q-72 0 -115 28.5t-43 78.5q0 30 17.5 46.5t42.5 16.5q50 0 59 -50
q2 -12 0.5 -36.5t-0.5 -32.5q3 -18 18.5 -27.5t32.5 -9.5q74 0 74 59q0 17 -14 31.5t-63 51.5q-16 12 -25 19q-38 29 -56.5 60t-18.5 75q0 76 49 115.5t117 39.5q67 0 109 -23t42 -70zM205 -105q0 -110 -163 -150l-2 13q105 31 105 62q0 8 -4.5 12t-19.5 8q-25 6 -43.5 22.5
t-18.5 40.5q0 35 22.5 54t51.5 19q32 0 52 -21t20 -60z" />
    <glyph glyph-name="uni0237" unicode="&#x237;" horiz-adv-x="302" 
d="M302 381q0 -23 -26 -104t-50 -141q-44 -110 -77.5 -166.5t-77.5 -99.5q-87 -83 -191 -83q-55 0 -97 29t-42 77q0 37 22.5 60.5t57.5 23.5q38 0 59 -24t21 -53q0 -31 -21 -59q-2 -3 -7 -8t-7.5 -8.5t-2.5 -6.5q0 -15 19 -15q33 0 60 43q13 21 35.5 79.5t50.5 140t31 90.5
q72 197 72 223q0 13 -4.5 16.5t-14.5 3.5q-12 0 -37 -23t-49 -61l-11 6q78 135 208 135q79 0 79 -75z" />
    <glyph glyph-name="circumflex" unicode="&#x2c6;" horiz-adv-x="349" 
d="M369 486l-4 -4l-123 77l-173 -79l-4 6l166 181h66z" />
    <glyph glyph-name="caron" unicode="&#x2c7;" horiz-adv-x="369" 
d="M100 660l4 4l123 -87l173 89l4 -6l-166 -181h-66z" />
    <glyph glyph-name="breve" unicode="&#x2d8;" horiz-adv-x="332" 
d="M111 670l9 4q11 -32 43 -52.5t67 -20.5q40 0 77 19.5t58 53.5l9 -6q-28 -151 -152 -151q-50 0 -81.5 32.5t-32.5 78.5q0 28 3 42z" />
    <glyph glyph-name="dotaccent" unicode="&#x2d9;" horiz-adv-x="255" 
d="M265 580q0 -34 -24 -58.5t-59 -24.5t-58.5 24.5t-23.5 58.5t23.5 59t58.5 25t59 -25t24 -59z" />
    <glyph glyph-name="ring" unicode="&#x2da;" horiz-adv-x="295" 
d="M282 589q1 -38 -28.5 -65.5t-67.5 -27.5q-40 0 -68 26.5t-28 66.5t27.5 66.5t67.5 26.5q41 0 68.5 -26t28.5 -67zM245 588q0 29 -16.5 46.5t-44.5 17.5q-27 0 -43.5 -17.5t-16.5 -45.5q0 -27 16 -44.5t43 -17.5q29 0 45.5 16t16.5 45z" />
    <glyph glyph-name="ogonek" unicode="&#x2db;" horiz-adv-x="282" 
d="M198 -217q-85 -2 -129.5 18.5t-44.5 58.5q0 33 34 57.5t93 48t77 34.5h13q-98 -81 -98 -150q0 -56 58 -61z" />
    <glyph glyph-name="tilde" unicode="&#x2dc;" horiz-adv-x="363" 
d="M404 667h11q-17 -63 -52.5 -103.5t-85.5 -40.5q-23 0 -67 13t-59 13q-55 0 -80 -51h-11q38 147 143 147q14 0 54.5 -12t65.5 -12q29 0 48 9.5t33 36.5z" />
    <glyph glyph-name="hungarumlaut" unicode="&#x2dd;" horiz-adv-x="547" 
d="M228 672q25 0 42 -16t17 -45q0 -33 -41 -58q-62 -39 -158 -77l-5 4q45 88 76 143q27 49 69 49zM420 672q25 0 42 -16t17 -45q0 -33 -41 -58q-62 -39 -158 -77l-5 4q45 88 76 143q27 49 69 49z" />
    <glyph glyph-name="Wgrave" unicode="&#x1e80;" horiz-adv-x="1021" 
d="M1167 657l-1 -6q-26 -3 -51 -15q-67 -32 -129 -111l-416 -525h-150l113 439l1 2l-354 -441h-150l113 439q25 96 25 136q0 49 -40 65q-29 11 -43 12l1 5h382l-1 -5q-19 -2 -36 -9q-30 -12 -48 -45q-20 -37 -48 -155l-70 -299h5l273 338q15 68 15 93q0 49 -40 65
q-32 12 -33 12l1 5h372l-1 -5q-19 -2 -36 -9q-30 -12 -48 -45q-20 -37 -48 -155l-70 -299h5l291 373q32 42 32 74q0 30 -25 44q-23 13 -54 16l1 6h262zM785 698l-4 -6q-6 1 -60.5 10t-85.5 13q-113 15 -113 71q0 30 17 48.5t39 18.5q37 0 78 -36q34 -30 129 -119z" />
    <glyph glyph-name="wgrave" unicode="&#x1e81;" horiz-adv-x="783" 
d="M778 377q0 -53 -19.5 -133.5t-55.5 -136.5q-75 -115 -205 -115q-71 0 -118 44q-88 -44 -176 -44q-63 0 -101.5 36t-38.5 100q0 58 47.5 103t103.5 73q-16 7 -77 45q-7 4 -17.5 11.5t-16 10.5t-13 7t-14 5.5t-13.5 1.5q-3 0 -7 -3.5t-4 -6.5t5.5 -7.5t13.5 -10t11 -7.5
q22 -19 22 -35q0 -24 -14.5 -40t-39.5 -16t-38 16t-13 39q0 29 49 78q62 64 111 64q30 0 80 -36q45 -33 66 -33q13 0 25 11t19 28q7 18 12 24t16 6q7 0 12 -4.5t5 -11.5q0 -9 -27 -28q-7 -4 -26 -31q-89 -123 -89 -262q0 -33 15 -54t46 -21q24 0 50 9q-33 42 -33 93
q0 77 38.5 146.5t92.5 116.5q55 47 92 47q25 0 42.5 -20.5t17.5 -63.5q0 -116 -93 -225q25 -77 94 -77q44 0 74 46q44 66 44 173q0 16 -18 44.5t-22 36.5q-10 23 -10 35q0 17 12 32.5t34 15.5q21 0 35 -20.5t14 -55.5zM589 362q0 32 -12 47t-28 15q-19 0 -33 -28.5
t-14 -88.5q0 -81 11 -133q76 96 76 188zM656 489l-4 -5q-50 10 -153 45q-42 14 -65 38t-23 48q0 30 18 47.5t41 17.5q42 0 77 -43q7 -8 109 -148z" />
    <glyph glyph-name="Wacute" unicode="&#x1e82;" horiz-adv-x="1021" 
d="M1167 657l-1 -6q-26 -3 -51 -15q-67 -32 -129 -111l-416 -525h-150l113 439l1 2l-354 -441h-150l113 439q25 96 25 136q0 49 -40 65q-29 11 -43 12l1 5h382l-1 -5q-19 -2 -36 -9q-30 -12 -48 -45q-20 -37 -48 -155l-70 -299h5l273 338q15 68 15 93q0 49 -40 65
q-32 12 -33 12l1 5h372l-1 -5q-19 -2 -36 -9q-30 -12 -48 -45q-20 -37 -48 -155l-70 -299h5l291 373q32 42 32 74q0 30 -25 44q-23 13 -54 16l1 6h262zM569 691l-4 6q96 84 139 124q34 33 75 33q24 0 41.5 -18.5t17.5 -50.5q0 -47 -69 -62q-32 -7 -200 -32z" />
    <glyph glyph-name="wacute" unicode="&#x1e83;" horiz-adv-x="783" 
d="M778 377q0 -53 -19.5 -133.5t-55.5 -136.5q-75 -115 -205 -115q-71 0 -118 44q-88 -44 -176 -44q-63 0 -101.5 36t-38.5 100q0 58 47.5 103t103.5 73q-16 7 -77 45q-7 4 -17.5 11.5t-16 10.5t-13 7t-14 5.5t-13.5 1.5q-3 0 -7 -3.5t-4 -6.5t5.5 -7.5t13.5 -10t11 -7.5
q22 -19 22 -35q0 -24 -14.5 -40t-39.5 -16t-38 16t-13 39q0 29 49 78q62 64 111 64q30 0 80 -36q45 -33 66 -33q13 0 25 11t19 28q7 18 12 24t16 6q7 0 12 -4.5t5 -11.5q0 -9 -27 -28q-7 -4 -26 -31q-89 -123 -89 -262q0 -33 15 -54t46 -21q24 0 50 9q-33 42 -33 93
q0 77 38.5 146.5t92.5 116.5q55 47 92 47q25 0 42.5 -20.5t17.5 -63.5q0 -116 -93 -225q25 -77 94 -77q44 0 74 46q44 66 44 173q0 16 -18 44.5t-22 36.5q-10 23 -10 35q0 17 12 32.5t34 15.5q21 0 35 -20.5t14 -55.5zM589 362q0 32 -12 47t-28 15q-19 0 -33 -28.5
t-14 -88.5q0 -81 11 -133q76 96 76 188zM734 613q0 -49 -75 -76q-72 -26 -191 -54l-1 5q90 111 125 146q43 45 77 45q65 0 65 -66z" />
    <glyph glyph-name="Wdieresis" unicode="&#x1e84;" horiz-adv-x="1021" 
d="M1167 657l-1 -6q-26 -3 -51 -15q-67 -32 -129 -111l-416 -525h-150l113 439l1 2l-354 -441h-150l113 439q25 96 25 136q0 49 -40 65q-29 11 -43 12l1 5h382l-1 -5q-19 -2 -36 -9q-30 -12 -48 -45q-20 -37 -48 -155l-70 -299h5l273 338q15 68 15 93q0 49 -40 65
q-32 12 -33 12l1 5h372l-1 -5q-19 -2 -36 -9q-30 -12 -48 -45q-20 -37 -48 -155l-70 -299h5l291 373q32 42 32 74q0 30 -25 44q-23 13 -54 16l1 6h262zM566 854q32 0 54.5 -23t22.5 -55q0 -31 -22 -53.5t-55 -22.5t-54.5 22.5t-21.5 53.5q0 32 22 55t54 23zM802 854
q32 0 54.5 -23t22.5 -55q0 -31 -22 -53.5t-55 -22.5t-54.5 22.5t-21.5 53.5q0 32 22 55t54 23z" />
    <glyph glyph-name="wdieresis" unicode="&#x1e85;" horiz-adv-x="783" 
d="M778 377q0 -53 -19.5 -133.5t-55.5 -136.5q-75 -115 -205 -115q-71 0 -118 44q-88 -44 -176 -44q-63 0 -101.5 36t-38.5 100q0 58 47.5 103t103.5 73q-16 7 -77 45q-7 4 -17.5 11.5t-16 10.5t-13 7t-14 5.5t-13.5 1.5q-3 0 -7 -3.5t-4 -6.5t5.5 -7.5t13.5 -10t11 -7.5
q22 -19 22 -35q0 -24 -14.5 -40t-39.5 -16t-38 16t-13 39q0 29 49 78q62 64 111 64q30 0 80 -36q45 -33 66 -33q13 0 25 11t19 28q7 18 12 24t16 6q7 0 12 -4.5t5 -11.5q0 -9 -27 -28q-7 -4 -26 -31q-89 -123 -89 -262q0 -33 15 -54t46 -21q24 0 50 9q-33 42 -33 93
q0 77 38.5 146.5t92.5 116.5q55 47 92 47q25 0 42.5 -20.5t17.5 -63.5q0 -116 -93 -225q25 -77 94 -77q44 0 74 46q44 66 44 173q0 16 -18 44.5t-22 36.5q-10 23 -10 35q0 17 12 32.5t34 15.5q21 0 35 -20.5t14 -55.5zM589 362q0 32 -12 47t-28 15q-19 0 -33 -28.5
t-14 -88.5q0 -81 11 -133q76 96 76 188zM465 646q31 0 53 -22.5t22 -53.5q0 -30 -21.5 -52t-53.5 -22t-53 21.5t-21 52.5t21.5 53.5t52.5 22.5zM656 646q31 0 53 -22.5t22 -53.5q0 -30 -21.5 -52t-53.5 -22t-53 21.5t-21 52.5t21.5 53.5t52.5 22.5z" />
    <glyph glyph-name="Ygrave" unicode="&#x1ef2;" horiz-adv-x="612" 
d="M732 657l-1 -5q-28 -6 -55 -21q-63 -34 -130 -130l-157 -223l-14 -60q-25 -109 -25 -136q0 -50 39 -65q29 -11 44 -12l-1 -5h-402l1 5q17 1 42 9q34 9 56 46q26 43 54 154l13 51l-72 278q-25 94 -94 109l1 5h363l-1 -5q-23 -2 -40 -9q-33 -14 -33 -46q0 -10 16 -76
l51 -204h5l139 196q44 62 44 95q0 24 -20 34q-17 9 -31 10l1 5h207zM560 698l-4 -6q-6 1 -60.5 10t-85.5 13q-113 15 -113 71q0 30 17 48.5t39 18.5q37 0 78 -36q34 -30 129 -119z" />
    <glyph glyph-name="ygrave" unicode="&#x1ef3;" horiz-adv-x="433" 
d="M423 406q0 -77 -33 -163t-85 -159t-100 -128t-93 -94q-84 -75 -149 -75q-42 0 -65.5 21t-23.5 50t18.5 45.5t38.5 16.5q25 0 37 -7.5t28 -26.5q31 -37 52 -37q20 0 50 27q6 6 21 19t28 25t23 24q-7 220 -52 357q-20 62 -30 72q-9 9 -20 9q-36 0 -70 -67l-11 6
q63 135 179 135q78 0 113 -111q11 -37 19 -105.5t8 -121.5h3q63 103 63 178q0 50 -20 75q-17 23 -17 36q0 25 13 37t31 12q19 0 31.5 -14.5t12.5 -35.5zM390 489l-4 -5q-50 10 -153 45q-42 14 -65 38t-23 48q0 30 18 47.5t41 17.5q42 0 77 -43q6 -8 109 -148z" />
    <glyph glyph-name="uni2009" unicode="&#x2009;" horiz-adv-x="80" 
 />
    <glyph glyph-name="endash" unicode="&#x2013;" horiz-adv-x="500" 
d="M440 227h-440l9 41h440z" />
    <glyph glyph-name="emdash" unicode="&#x2014;" horiz-adv-x="760" 
d="M700 227h-700l9 41h700z" />
    <glyph glyph-name="quoteleft" unicode="&#x2018;" horiz-adv-x="217" 
d="M257 657q-49 -14 -86 -34.5t-37 -37.5q0 -10 21 -18q53 -21 53 -75q0 -34 -22 -56.5t-53 -22.5q-38 0 -60.5 24.5t-22.5 67.5q0 55 60 99t145 66z" />
    <glyph glyph-name="quoteright" unicode="&#x2019;" horiz-adv-x="217" 
d="M267 579q0 -56 -60.5 -100.5t-144.5 -65.5l-2 13q48 14 85.5 35t37.5 38q0 11 -20 18q-53 21 -53 74q0 34 21.5 56.5t52.5 22.5q39 0 61 -24t22 -67z" />
    <glyph glyph-name="quotesinglbase" unicode="&#x201a;" horiz-adv-x="250" 
d="M150 66q0 -59 -36.5 -108.5t-100.5 -69.5l-6 13q34 15 57 36t23 40q0 17 -10 21q-34 4 -55.5 26.5t-21.5 57.5q0 27 21 48.5t48 21.5q39 0 60 -23.5t21 -62.5z" />
    <glyph glyph-name="quotedblleft" unicode="&#x201c;" horiz-adv-x="407" 
d="M447 657q-49 -14 -86 -34.5t-37 -37.5q0 -10 21 -18q53 -21 53 -75q0 -34 -22 -56.5t-53 -22.5q-38 0 -60.5 24.5t-22.5 67.5q0 55 60 99t145 66zM257 657q-49 -14 -86 -34.5t-37 -37.5q0 -10 21 -18q53 -21 53 -75q0 -34 -22 -56.5t-53 -22.5q-38 0 -60.5 24.5
t-22.5 67.5q0 55 60 99t145 66z" />
    <glyph glyph-name="quotedblright" unicode="&#x201d;" horiz-adv-x="407" 
d="M457 579q0 -56 -60.5 -100.5t-144.5 -65.5l-2 13q48 14 85.5 35t37.5 38q0 11 -20 18q-53 21 -53 74q0 34 21.5 56.5t52.5 22.5q39 0 61 -24t22 -67zM267 579q0 -56 -60.5 -100.5t-144.5 -65.5l-2 13q48 14 85.5 35t37.5 38q0 11 -20 18q-53 21 -53 74q0 34 21.5 56.5
t52.5 22.5q39 0 61 -24t22 -67z" />
    <glyph glyph-name="quotedblbase" unicode="&#x201e;" horiz-adv-x="398" 
d="M-59 -93q49 14 86 34.5t37 37.5q0 10 -21 18q-53 21 -53 75q0 34 22 56.5t53 22.5q38 0 60.5 -24.5t22.5 -67.5q0 -55 -60 -99t-145 -66zM131 -93q49 14 86 34.5t37 37.5q0 10 -21 18q-53 21 -53 75q0 34 22 56.5t53 22.5q38 0 60.5 -24.5t22.5 -67.5q0 -55 -60 -99
t-145 -66z" />
    <glyph glyph-name="dagger" unicode="&#x2020;" horiz-adv-x="555" 
d="M545 395q0 -29 -24 -48.5t-54 -19.5q-45 0 -69 49q-3 7 -7 15.5t-6 13t-4.5 9t-5.5 6.5t-7 2q-7 0 -11 -4t-8 -16l-215 -626l-26 7l104 653q2 12 -2.5 19.5t-11.5 7.5t-10.5 -2t-12.5 -10t-18 -15q-26 -18 -53 -18q-30 0 -52 23.5t-22 63.5q0 19 13 30t29 11q33 0 33 -38
q0 -11 -9 -20.5t-18 -13.5q-19 -8 -19 -13q0 -12 11 -12q8 0 45 32q34 29 60 29q7 0 13.5 -4.5t9.5 -8.5t9.5 -15t8.5 -14q1 -1 5 -8.5t6.5 -11t7 -8.5t9 -7.5t9.5 -2.5q26 0 26 18q0 2 -0.5 3.5t-1.5 3.5t-2 3.5t-4 4.5l-5 5l-6.5 6.5l-7.5 7.5q-20 18 -20 49q0 39 46 52
q5 1 11 2.5t9.5 2t7 1.5t5 2.5t1.5 2.5q0 5 -6.5 15.5t-6.5 22.5q0 13 10.5 22t27.5 9q13 0 22.5 -11t9.5 -25q0 -16 -17 -26q-3 -2 -8 -3.5t-7 -3.5t-2 -5q0 -2 12.5 -11.5t24.5 -24.5t12 -33q0 -23 -15 -39t-30 -20q-40 -12 -44 -19q-1 -2 -1 -5q0 -24 23 -24q6 0 12.5 2
t10.5 4.5t10.5 6.5t9.5 6t9.5 6t9.5 5.5l8 4t8.5 3t8 0.5t9.5 -1q23 -7 42 -54q1 -1 3.5 -8.5t5.5 -13.5t6.5 -13.5t7.5 -11.5t8 -4q10 0 10 8q0 6 -11 20q-10 11 -10 29q0 16 10 25t26 9q14 0 24 -11t10 -30z" />
    <glyph glyph-name="daggerdbl" unicode="&#x2021;" horiz-adv-x="587" 
d="M244 436q3 12 -2 19.5t-12 7.5t-10.5 -2t-12.5 -10t-18 -15q-26 -18 -53 -18q-30 0 -52 23.5t-22 63.5q0 19 13 30t29 11q33 0 33 -38q0 -11 -9 -20.5t-18 -13.5q-19 -8 -19 -13q0 -12 11 -12q8 0 45 32q34 29 60 29q7 0 13.5 -4.5t9.5 -8.5t9.5 -15t8.5 -14q1 -1 5 -8.5
t6.5 -11t7 -8.5t9 -7.5t9.5 -2.5q26 0 26 18q0 2 -0.5 3.5t-1.5 3.5t-2 3.5t-4 4.5l-5 5l-6.5 6.5l-7.5 7.5q-20 18 -20 49q0 39 46 52q5 1 11 2.5t9.5 2t7 1.5t5 2.5t1.5 2.5q0 5 -6.5 15.5t-6.5 22.5q0 13 10.5 22t27.5 9q13 0 22.5 -11t9.5 -25q0 -16 -17 -26
q-3 -2 -8 -3.5t-7 -3.5t-2 -5q0 -2 12.5 -11.5t24.5 -24.5t12 -33q0 -23 -15 -39t-30 -20q-40 -12 -44 -19q-1 -2 -1 -5q0 -24 23 -24q6 0 12.5 2t10.5 4.5t10.5 6.5t9.5 6t9.5 6t9.5 5.5l8 4t8.5 3t8 0.5t9.5 -1q23 -7 42 -54q0 -1 3.5 -8.5t6 -13.5t6.5 -13.5t8 -11.5
t7 -4q10 0 10 8q0 6 -11 20q-10 11 -10 29q0 16 10 25t26 9q14 0 24 -11t10 -30q0 -29 -24 -48.5t-54 -19.5q-45 0 -69 49q-3 7 -7 15.5t-6 13t-4.5 9t-5.5 6.5t-7 2q-7 0 -11 -3.5t-8 -16.5l-108 -399q-3 -12 2 -19.5t12 -7.5t10.5 2t12.5 10t18 15q26 18 53 18
q30 0 52 -23.5t22 -63.5q0 -19 -13 -30t-29 -11q-33 0 -33 38q0 11 9 20.5t18 13.5q19 8 19 13q0 12 -11 12q-8 0 -45 -32q-34 -29 -60 -29q-7 0 -13.5 4.5t-9.5 8.5t-9.5 15t-8.5 14q-1 1 -5 8.5t-6.5 11t-7 8.5t-9 7.5t-9.5 2.5q-26 0 -26 -18q0 -2 0.5 -3.5t1.5 -3.5
t2 -3.5t4 -4.5l5 -5l6.5 -6.5l7.5 -7.5q20 -18 20 -49q0 -39 -46 -52q-34 -8 -34 -11q0 -5 6.5 -15.5t6.5 -22.5q0 -13 -10.5 -22t-27.5 -9q-13 0 -22.5 11t-9.5 25q0 16 17 26q3 2 8 3.5t7 3.5t2 5q0 2 -12 11.5t-24.5 24.5t-12.5 33q0 23 15 39t30 20q40 12 44 19q1 2 1 5
q0 24 -23 24q-6 0 -12.5 -2t-10.5 -4.5t-10.5 -6.5t-9.5 -6t-9.5 -6t-9.5 -5.5l-8 -4t-8.5 -3t-8 -0.5t-9.5 1q-23 7 -42 54q-1 1 -3.5 8.5t-5.5 13.5t-6.5 13.5t-7.5 11.5t-8 4q-10 0 -10 -8q0 -6 11 -20q10 -11 10 -29q0 -16 -10 -25t-26 -9q-14 0 -24 11t-10 30
q0 29 24 48.5t54 19.5q20 0 34.5 -8.5t21 -17.5t13.5 -23q3 -7 7 -15.5t6 -13t4.5 -9t5.5 -6.5t7 -2q7 0 11 3.5t8 16.5z" />
    <glyph glyph-name="bullet" unicode="&#x2022;" horiz-adv-x="441" 
d="M376 325q0 -60 -42.5 -102t-102.5 -42t-103 42t-43 102q0 59 43.5 102.5t102.5 43.5q60 0 102.5 -43t42.5 -103z" />
    <glyph glyph-name="ellipsis" unicode="&#x2026;" horiz-adv-x="797" 
d="M697 69q0 -33 -22.5 -56t-56.5 -23t-56 23t-22 56t22.5 56t55.5 23t56 -23t23 -56zM427 69q0 -33 -22.5 -56t-56.5 -23t-56 23t-22 56t22.5 56t55.5 23t56 -23t23 -56zM157 69q0 -33 -22.5 -56t-56.5 -23t-56 23t-22 56t22.5 56t55.5 23t56 -23t23 -56z" />
    <glyph glyph-name="perthousand" unicode="&#x2030;" horiz-adv-x="1097" 
d="M378 547q0 -56 -21.5 -100.5t-55.5 -69.5t-71 -37.5t-72 -12.5q-59 0 -93.5 35.5t-34.5 87.5q0 56 21.5 100.5t55.5 69.5t71 37.5t72 12.5q59 0 93.5 -35.5t34.5 -87.5zM269 620q0 35 -23 35q-32 0 -50 -30q-24 -40 -40.5 -112t-16.5 -136q0 -35 23 -35q32 0 50 30
q24 40 40.5 112t16.5 136zM687 206q0 -56 -21.5 -100.5t-55.5 -69.5t-71 -37.5t-72 -12.5q-59 0 -93.5 35.5t-34.5 87.5q0 56 21.5 100.5t55.5 69.5t71 37.5t72 12.5q59 0 93.5 -35.5t34.5 -87.5zM578 279q0 35 -23 35q-32 0 -50 -30q-24 -40 -40.5 -112t-16.5 -136
q0 -35 23 -35q32 0 50 30q24 40 40.5 112t16.5 136zM585 648l-471 -668l-14 11l471 668zM1077 206q0 -56 -21.5 -100.5t-55.5 -69.5t-71 -37.5t-72 -12.5q-59 0 -93.5 35.5t-34.5 87.5q0 56 21.5 100.5t55.5 69.5t71 37.5t72 12.5q59 0 93.5 -35.5t34.5 -87.5zM968 279
q0 35 -23 35q-32 0 -50 -30q-24 -40 -40.5 -112t-16.5 -136q0 -35 23 -35q32 0 50 30q24 40 40.5 112t16.5 136z" />
    <glyph glyph-name="guilsinglleft" unicode="&#x2039;" horiz-adv-x="314" 
d="M274 415l-124 -173l58 -169l-9 -7l-169 175l2 8l235 176z" />
    <glyph glyph-name="guilsinglright" unicode="&#x203a;" horiz-adv-x="274" 
d="M254 250l-2 -8l-235 -176l-7 10l124 173l-58 169l9 7z" />
    <glyph glyph-name="fraction" unicode="&#x2044;" horiz-adv-x="319" 
d="M-80 -2l463 742l36 -21l-464 -743z" />
    <glyph glyph-name="Euro" unicode="&#x20ac;" horiz-adv-x="622" 
d="M461 671q82 0 125.5 -41t43.5 -90q0 -45 -24.5 -69.5t-58.5 -24.5q-33 0 -58 21t-25 57q0 24 17.5 59t17.5 44q0 10 -10.5 18t-21.5 8q-25 0 -46.5 -16t-47.5 -57q-43 -70 -79 -180h168l-6 -25h-170q-17 -59 -25 -95h131l-6 -25h-130q-13 -68 -13 -122q0 -46 25.5 -74
t64.5 -28q130 0 219 191l12 -4q-43 -102 -109.5 -167t-152.5 -65q-61 0 -108 22t-73 58.5t-39 79t-13 88.5v21h-79l6 25h75q5 50 18 95h-69l6 25h71q41 118 144.5 194.5t219.5 76.5z" />
    <glyph glyph-name="trademark" unicode="&#x2122;" horiz-adv-x="788" 
d="M788 373h-188v8q4 0 22 3q14 3 18 16q4 16 4 60v162h-2l-70 -250h-49l-70 250h-2v-163q0 -39 5 -59q4 -13 17 -16q18 -3 22 -3v-8h-105v8q4 0 22 3q14 3 18 16q5 20 5 60v110q0 39 -5 59q-4 13 -18 16q-18 3 -22 3v8h155l46 -156h2l45 156h150v-8q-4 0 -22 -3
q-13 -3 -17 -16q-5 -20 -5 -59v-111q0 -39 5 -59q4 -13 17 -16q18 -3 22 -3v-8zM369 535h-12q-21 45 -41 73q-11 15 -25.5 25.5t-22.5 10.5h-4v-185q0 -39 5 -59q4 -13 18 -16q18 -3 22 -3v-8h-188v8q4 0 22 3q13 3 17 16q5 20 5 59v185h-4q-8 0 -22.5 -10.5t-25.5 -25.5
q-20 -28 -41 -73h-12l16 121h277z" />
    <glyph glyph-name="minus" unicode="&#x2212;" horiz-adv-x="455" 
d="M410 253h-365v16h365v-16z" />
    <glyph glyph-name="s_t" unicode="&#xfb06;" horiz-adv-x="735" 
d="M384 363q0 -26 -17.5 -42.5t-45.5 -16.5q-24 0 -40.5 15t-19.5 36q-2 12 -1.5 33.5t-2.5 29.5q-6 25 -36 25q-39 0 -39 -45q0 -46 85 -101q101 -65 101 -145q0 -68 -63.5 -114.5t-146.5 -46.5q-72 0 -115 28.5t-43 78.5q0 30 17.5 46.5t42.5 16.5q50 0 59 -50
q2 -12 0.5 -36.5t-0.5 -32.5q3 -18 18.5 -27.5t32.5 -9.5q74 0 74 59q0 17 -14 31.5t-63 51.5q-16 12 -25 19q-38 29 -56.5 60t-18.5 75q0 82 55 120.5t129 34.5q-41 13 -67.5 43t-26.5 60q0 49 44.5 76.5t105.5 27.5q32 0 123 -14q124 -19 159 -19q52 0 120 20.5t91 43.5
l8 -5q-53 -117 -57 -128l-44 -114h100l-5 -22h-102l-80 -201q-6 -16 -15.5 -39t-15.5 -37.5t-12 -31t-9 -27.5t-3 -18q0 -18 20 -18q16 0 47 24t52 57l10 -5q-34 -59 -97.5 -98.5t-128.5 -39.5q-31 0 -52.5 19.5t-21.5 53.5q0 32 53 164l82 197h-65l5 22h67l50 110h-2
q-42 -48 -89 -48q-11 0 -22.5 2.5t-19 4t-22 8.5t-17.5 8.5t-20.5 12t-18.5 10.5q-13 8 -33 20.5t-29.5 18t-22 10.5t-23.5 5q-22 0 -38 -12.5t-16 -42.5q0 -79 83 -103q43 -13 65.5 -33t22.5 -55z" />
    <glyph glyph-name="space_uni0326" horiz-adv-x="170" 
d="M177 -105q0 -110 -163 -150l-2 13q105 31 105 62q0 8 -4.5 12t-19.5 8q-25 6 -43.5 22.5t-18.5 40.5q0 35 22.5 54t51.5 19q32 0 52 -21t20 -60z" />
    <glyph glyph-name="caron.alt" horiz-adv-x="369" 
d="M125 484l59 200h115q-77 -88 -162 -200h-12z" />
    <glyph glyph-name="space_uni0326.alt" horiz-adv-x="170" 
d="M32 574q0 110 163 150l2 -13q-105 -31 -105 -62q0 -8 4.5 -12t19.5 -8q25 -6 43.5 -22.5t18.5 -40.5q0 -35 -22.5 -54t-51.5 -19q-32 0 -52 21t-20 60z" />
    <glyph glyph-name="grave.uc" horiz-adv-x="325" 
d="M363 698l-4 -6q-6 1 -60.5 10t-85.5 13q-113 15 -113 71q0 30 17 48.5t39 18.5q37 0 78 -36q34 -30 129 -119z" />
    <glyph glyph-name="dieresis.uc" horiz-adv-x="451" 
d="M216 854q32 0 54.5 -23t22.5 -55q0 -31 -22 -53.5t-55 -22.5t-54.5 22.5t-21.5 53.5q0 32 22 55t54 23zM452 854q32 0 54.5 -23t22.5 -55q0 -31 -22 -53.5t-55 -22.5t-54.5 22.5t-21.5 53.5q0 32 22 55t54 23z" />
    <glyph glyph-name="macron.uc" horiz-adv-x="400" 
d="M417 707h-290l16 62h290z" />
    <glyph glyph-name="acute.uc" horiz-adv-x="400" 
d="M154 691l-4 6q96 84 139 124q34 33 75 33q24 0 41.5 -18.5t17.5 -50.5q0 -47 -69 -62q-32 -7 -200 -32z" />
    <glyph glyph-name="circumflex.uc" horiz-adv-x="400" 
d="M424 707l-4 -4l-123 57l-173 -59l-1 5l154 142h66z" />
    <glyph glyph-name="caron.uc" horiz-adv-x="400" 
d="M149 843l4 4l123 -57l173 59l1 -5l-154 -142h-66z" />
    <glyph glyph-name="breve.uc" horiz-adv-x="412" 
d="M153 851l9 4q12 -34 43 -53.5t74 -19.5q45 0 84.5 19.5t61.5 53.5l7 -6q-29 -151 -161 -151q-54 0 -87 32t-34 79q0 28 3 42z" />
    <glyph glyph-name="dotaccent.uc" horiz-adv-x="400" 
d="M369 786q0 -36 -25 -61.5t-63 -25.5q-37 0 -61.5 25.5t-24.5 61.5t25 62.5t61 26.5q37 0 62.5 -26.5t25.5 -62.5z" />
    <glyph glyph-name="ring.uc" horiz-adv-x="400" 
d="M368 794q1 -38 -28.5 -65.5t-67.5 -27.5q-40 0 -68 26.5t-28 66.5t27.5 66.5t67.5 26.5q41 0 68.5 -26t28.5 -67zM331 793q0 29 -16.5 46.5t-44.5 17.5q-27 0 -43.5 -17.5t-16.5 -45.5q0 -27 16 -44.5t43 -17.5q29 0 45.5 16t16.5 45z" />
    <glyph glyph-name="tilde.uc" horiz-adv-x="400" 
d="M494 853h11q-17 -61 -52 -97.5t-86 -36.5q-23 0 -67 13t-59 13q-21 0 -31.5 -1t-25 -9.5t-23.5 -26.5h-11q33 128 143 128q14 0 54.5 -12t65.5 -12q31 0 49 7t32 34z" />
    <glyph glyph-name="hungarumlaut.uc" horiz-adv-x="400" 
d="M309 830q0 -17 -19 -35.5t-44 -31.5q-11 -6 -31.5 -15t-51 -23t-51.5 -24h-11q26 37 51 77t36 55q33 46 70 46q51 0 51 -49zM489 830q0 -17 -19 -35.5t-44 -31.5q-11 -6 -31.5 -15t-51 -23t-51.5 -24h-11q26 37 51 77t36 55q33 46 70 46q51 0 51 -49z" />
    <glyph glyph-name="idotaccent" horiz-adv-x="337" 
d="M347 580q0 -34 -24 -58.5t-59 -24.5t-58.5 24.5t-23.5 58.5t23.5 59t58.5 25t59 -25t24 -59zM321 129q-34 -59 -97 -98.5t-128 -39.5q-31 0 -52.5 19.5t-21.5 53.5q0 10 3 24t9 32.5t11 33.5t14 38.5t13 35.5q1 4 17.5 44.5t24 65.5t7.5 41q0 13 -4.5 16.5t-14.5 3.5
q-12 0 -37 -23t-49 -61l-11 6q78 135 213 135q32 0 53 -20t21 -55t-46 -157q-44 -117 -44 -150q0 -19 15 -19q16 0 45 22.5t50 56.5z" />
    <glyph glyph-name="c_t" horiz-adv-x="795" 
d="M867 447l-7 -22h-102l-78 -201q-6 -16 -15.5 -39t-15.5 -37.5t-12 -31t-9 -27.5t-3 -18q0 -18 20 -18q16 0 47 24t52 57l10 -5q-34 -59 -97.5 -98.5t-128.5 -39.5q-31 0 -52.5 19.5t-21.5 53.5q0 36 53 164l80 197h-65l7 22h67q11 29 23.5 56.5t19.5 40.5l7 13h-2
q-44 -47 -98 -47q-12 0 -24.5 3t-27 10t-22.5 10.5t-22 12.5l-15 9q-13 7 -32 19t-29.5 18t-23 11t-23.5 5q-17 0 -27.5 -16t-10.5 -38q0 -81 75 -99q58 -4 88.5 -33t30.5 -63q0 -29 -20.5 -48.5t-50.5 -19.5q-29 0 -46.5 17.5t-17.5 44.5q0 13 6.5 38t6.5 34q0 17 -19 17
q-25 0 -48.5 -23.5t-39.5 -63.5q-55 -139 -55 -221q0 -89 71 -89q36 0 77 31.5t71 67.5l8 -6q-91 -147 -267 -147q-65 0 -104.5 45.5t-39.5 119.5q0 67 36 126.5t91 99.5q93 69 192 74q-48 10 -74.5 39.5t-26.5 63.5q0 50 37.5 77t96.5 27q34 0 130 -14q15 -2 47.5 -8
t55.5 -8.5t49 -2.5q52 0 120 20.5t91 43.5l8 -5q-53 -117 -57 -128l-44 -114h100z" />
    <glyph glyph-name="i.low" horiz-adv-x="337" 
d="M343 572q0 -34 -24 -58.5t-59 -24.5t-58.5 24.5t-23.5 58.5t23.5 59t58.5 25t59 -25t24 -59zM321 129q-34 -59 -97 -98.5t-128 -39.5q-31 0 -52.5 19.5t-21.5 53.5q0 10 3 24t9 32.5t11 33.5t14 38.5t13 35.5q1 4 17.5 44.5t24 65.5t7.5 41q0 13 -4.5 16.5t-14.5 3.5
q-12 0 -37 -23t-49 -61l-11 6q78 135 213 135q32 0 53 -20t21 -55t-46 -157q-44 -117 -44 -150q0 -19 15 -19q16 0 45 22.5t50 56.5z" />
    <glyph glyph-name="j.low" horiz-adv-x="302" 
d="M302 381q0 -23 -26 -104t-50 -141q-44 -110 -77.5 -166.5t-77.5 -99.5q-87 -83 -191 -83q-55 0 -97 29t-42 77q0 37 22.5 60.5t57.5 23.5q38 0 59 -24t21 -53q0 -31 -21 -59q-2 -3 -7 -8t-7.5 -8.5t-2.5 -6.5q0 -15 19 -15q33 0 60 43q13 21 35.5 79.5t50.5 140t31 90.5
q72 197 72 223q0 13 -4.5 16.5t-14.5 3.5q-12 0 -37 -23t-49 -61l-11 6q78 135 208 135q79 0 79 -75zM353 572q0 -34 -24 -58.5t-59 -24.5t-58.5 24.5t-23.5 58.5t23.5 59t58.5 25t59 -25t24 -59z" />
    <glyph glyph-name="adieresis.low" horiz-adv-x="553" 
d="M548 128q-34 -59 -97 -98t-128 -39q-31 0 -50.5 18t-19.5 53q0 24 8 53h-3q-18 -39 -45 -71q-47 -53 -102 -53q-56 0 -83.5 30.5t-27.5 101.5q0 80 45 158t115.5 126.5t141.5 48.5q59 0 65 -41h6q12 21 20 32h147l-66 -203q-4 -13 -11 -33.5t-10.5 -31l-8.5 -25.5
t-7.5 -24t-5 -19.5t-3.5 -18t-1 -14.5q0 -24 17 -24q16 0 45 22.5t50 55.5zM346 401q0 37 -18 37q-21 0 -50 -54q-32 -59 -70.5 -163.5t-38.5 -136.5q0 -23 4.5 -28.5t12.5 -5.5q20 0 45 41q24 39 45 98q6 17 22.5 57.5t24.5 62.5t15.5 49.5t7.5 42.5zM261 636
q31 0 53 -22.5t22 -53.5q0 -30 -21.5 -52t-53.5 -22t-53 21.5t-21 52.5t21.5 53.5t52.5 22.5zM452 636q31 0 53 -22.5t22 -53.5q0 -30 -21.5 -52t-53.5 -22t-53 21.5t-21 52.5t21.5 53.5t52.5 22.5z" />
    <glyph glyph-name="edieresis.low" horiz-adv-x="470" 
d="M470 360q0 -41 -41 -74q-22 -17 -83.5 -40.5t-135.5 -39.5q-11 -64 -11 -114q0 -27 12 -46t35 -19q22 0 43.5 7t36 14.5t31 23.5t24 24.5t21.5 26.5t16 21l8 -6q-37 -63 -102 -105t-155 -42q-68 0 -111 45t-43 130q0 145 144 234q92 56 178 56q68 0 100.5 -26.5
t32.5 -69.5zM355 403q0 39 -23 39q-38 0 -69.5 -64t-49.5 -156q62 18 85 37q26 22 41.5 69.5t15.5 74.5zM228 636q31 0 53 -22.5t22 -53.5q0 -30 -21.5 -52t-53.5 -22t-53 21.5t-21 52.5t21.5 53.5t52.5 22.5zM419 636q31 0 53 -22.5t22 -53.5q0 -30 -21.5 -52t-53.5 -22
t-53 21.5t-21 52.5t21.5 53.5t52.5 22.5z" />
    <glyph glyph-name="idieresis.low" horiz-adv-x="337" 
d="M319 129q-34 -59 -97 -98.5t-128 -39.5q-31 0 -52.5 19.5t-21.5 53.5q0 8 2.5 20t5 22t9 28t10 28t12.5 33.5t13 32.5q2 6 11 27t13.5 34.5t11.5 32t10 33t3 24.5q0 13 -4.5 16.5t-14.5 3.5q-12 0 -37 -23t-49 -61l-11 6q78 135 213 135q32 0 53 -20t21 -55
q0 -40 -46 -157q-46 -118 -46 -150q0 -19 15 -19q16 0 45 22.5t50 56.5zM132 636q31 0 53 -22.5t22 -53.5q0 -30 -21.5 -52t-53.5 -22t-53 21.5t-21 52.5t21.5 53.5t52.5 22.5zM323 636q31 0 53 -22.5t22 -53.5q0 -30 -21.5 -52t-53.5 -22t-53 21.5t-21 52.5t21.5 53.5
t52.5 22.5z" />
    <glyph glyph-name="odieresis.low" horiz-adv-x="510" 
d="M490 267q0 -58 -27 -114t-71 -94q-78 -68 -191 -68q-85 0 -135.5 52.5t-50.5 136.5q0 58 27 114t71 94q78 68 191 68q85 0 135.5 -52.5t50.5 -136.5zM336 420q0 10 -6.5 17.5t-17.5 7.5q-7 0 -13 -2.5t-15.5 -14t-19.5 -33.5q-25 -53 -60 -180t-35 -179q0 -34 24 -34
q26 0 47 45q29 63 62.5 183.5t33.5 189.5zM229 636q31 0 53 -22.5t22 -53.5q0 -30 -21.5 -52t-53.5 -22t-53 21.5t-21 52.5t21.5 53.5t52.5 22.5zM420 636q31 0 53 -22.5t22 -53.5q0 -30 -21.5 -52t-53.5 -22t-53 21.5t-21 52.5t21.5 53.5t52.5 22.5z" />
    <glyph glyph-name="udieresis.low" horiz-adv-x="610" 
d="M600 128q-36 -61 -87.5 -99t-109.5 -38q-40 0 -63.5 23.5t-23.5 69.5q0 27 23 104h-7q-56 -119 -103 -158t-106 -39q-38 0 -64.5 26t-26.5 70q0 12 2 24t3.5 20.5t7.5 24.5t8.5 23.5t12 30t13.5 32.5q41 100 41 131q0 30 -22 30q-13 0 -36 -24t-47 -64l-10 7
q77 134 189 134q51 0 78 -24t27 -59q0 -40 -49 -157q-49 -115 -49 -138q0 -22 19 -22q47 0 150 256q26 65 49 135h176l-89 -268q-23 -69 -23 -105q0 -22 18 -22q15 0 41.5 23t48.5 58zM276 636q31 0 53 -22.5t22 -53.5q0 -30 -21.5 -52t-53.5 -22t-53 21.5t-21 52.5
t21.5 53.5t52.5 22.5zM467 636q31 0 53 -22.5t22 -53.5q0 -30 -21.5 -52t-53.5 -22t-53 21.5t-21 52.5t21.5 53.5t52.5 22.5z" />
    <glyph glyph-name="ydieresis.low" horiz-adv-x="433" 
d="M423 406q0 -77 -33 -163t-85 -159t-100 -128t-93 -94q-84 -75 -149 -75q-42 0 -65.5 21t-23.5 50t18.5 45.5t38.5 16.5q25 0 37 -7.5t28 -26.5q31 -37 52 -37q20 0 50 27q6 6 21 19t28 25t23 24q-7 220 -52 357q-20 62 -30 72q-9 9 -20 9q-36 0 -70 -67l-11 6
q63 135 179 135q78 0 113 -111q11 -37 19 -105.5t8 -121.5h3q63 103 63 178q0 50 -20 75q-17 23 -17 36q0 25 13 37t31 12q19 0 31.5 -14.5t12.5 -35.5zM173 636q31 0 53 -22.5t22 -53.5q0 -30 -21.5 -52t-53.5 -22t-53 21.5t-21 52.5t21.5 53.5t52.5 22.5zM364 636
q31 0 53 -22.5t22 -53.5q0 -30 -21.5 -52t-53.5 -22t-53 21.5t-21 52.5t21.5 53.5t52.5 22.5z" />
    <glyph glyph-name="wdieresis.low" horiz-adv-x="783" 
d="M778 377q0 -53 -19.5 -133.5t-55.5 -136.5q-75 -115 -205 -115q-71 0 -118 44q-88 -44 -176 -44q-63 0 -101.5 36t-38.5 100q0 58 47.5 103t103.5 73q-16 7 -77 45q-7 4 -17.5 11.5t-16 10.5t-13 7t-14 5.5t-13.5 1.5q-3 0 -7 -3.5t-4 -6.5t5.5 -7.5t13.5 -10t11 -7.5
q22 -19 22 -35q0 -24 -14.5 -40t-39.5 -16t-38 16t-13 39q0 29 49 78q62 64 111 64q30 0 80 -36q45 -33 66 -33q13 0 25 11t19 28q7 18 12 24t16 6q7 0 12 -4.5t5 -11.5q0 -9 -27 -28q-7 -4 -26 -31q-89 -123 -89 -262q0 -33 15 -54t46 -21q24 0 50 9q-33 42 -33 93
q0 77 38.5 146.5t92.5 116.5q55 47 92 47q25 0 42.5 -20.5t17.5 -63.5q0 -116 -93 -225q25 -77 94 -77q44 0 74 46q44 66 44 173q0 16 -18 44.5t-22 36.5q-10 23 -10 35q0 17 12 32.5t34 15.5q21 0 35 -20.5t14 -55.5zM589 362q0 32 -12 47t-28 15q-19 0 -33 -28.5
t-14 -88.5q0 -81 11 -133q76 96 76 188zM458 636q31 0 53 -22.5t22 -53.5q0 -30 -21.5 -52t-53.5 -22t-53 21.5t-21 52.5t21.5 53.5t52.5 22.5zM649 636q31 0 53 -22.5t22 -53.5q0 -30 -21.5 -52t-53.5 -22t-53 21.5t-21 52.5t21.5 53.5t52.5 22.5z" />
    <glyph glyph-name="A.swash" horiz-adv-x="771" 
d="M222 150q6 12 33.5 65.5t38 73t37.5 69.5t42.5 73t41.5 63t46 61t45.5 46t49.5 38t49 18h96l-77 -439q-21 -109 -21 -145q0 -25 8.5 -37t27.5 -19q29 -11 43 -12l-1 -5h-388l1 5q19 2 36 9q30 12 48 45q9 16 13.5 33.5t11.5 56.5t11 59l8 44h-122l-59 -114
q-41 -78 -77 -113.5t-93 -35.5q-43 0 -82 31.5t-39 93.5q0 45 30.5 75.5t73.5 30.5q44 0 70.5 -28.5t26.5 -65.5q0 -31 -23 -63q-5 -6 -15 -14l-17.5 -14t-7.5 -9q0 -11 15 -11q51 1 119 135zM472 535q-56 -65 -161 -263h115l51 263h-5z" />
    <glyph glyph-name="J.swash" horiz-adv-x="609" 
d="M679 608q0 -54 -48 -86.5t-112 -43.5q-18 -63 -38 -160h96l-6 -25h-95q-20 -90 -34 -134q-54 -175 -160.5 -273t-209.5 -98q-70 0 -111 40.5t-41 92.5q0 47 27 77.5t71 30.5q51 0 74.5 -27.5t23.5 -64.5q0 -27 -23 -58q-5 -7 -16.5 -18t-19 -19t-7.5 -13q0 -22 33 -22
q40 0 66 81q9 26 27 93t38.5 132.5t43.5 121.5q10 26 30 58h-104l6 25h114q63 94 161 156q-68 2 -120.5 30.5t-75.5 61.5q-68 96 -101 96q-24 0 -36 -12t-12 -27q0 -17 61 -51q55 -31 55 -84q0 -36 -20 -57t-58 -21q-47 0 -75 35.5t-28 87.5q0 76 54.5 122.5t125.5 46.5
q121 0 163 -79q6 -11 17.5 -36.5t20 -42.5t19.5 -31.5t21 -14.5q16 0 34 5q4 90 32 129t82 39q21 0 38 -18t17 -45z" />
    <glyph glyph-name="M.swash" horiz-adv-x="980" 
d="M1045 657l-2 -5q-20 -2 -41 -8q-34 -10 -57 -47q-25 -41 -53 -153l-56 -226q-25 -103 -25 -136q0 -51 39 -66q25 -9 44 -11l-2 -5h-382l2 5q17 1 35 9q31 13 49 45q5 10 10 21.5t10 29l8 28t9.5 38t9.5 38.5l90 357h-6l-331 -575h-38l-40 575h-3l-112 -433
q-40 -152 -160 -152q-49 0 -87.5 31t-38.5 94q0 45 30.5 75.5t73.5 30.5q44 0 70.5 -28.5t26.5 -65.5q0 -31 -23 -63q-4 -6 -13 -13.5t-15 -13.5t-6 -9q0 -11 15 -11q72 0 108 137l81 303q25 93 25 131q0 46 -38 61q-11 4 -37 7l1 5h279l27 -396h4l232 396h287z" />
    <glyph glyph-name="N.swash" horiz-adv-x="918" 
d="M988 544q0 -45 -30.5 -75.5t-73.5 -30.5q-44 0 -70.5 28.5t-26.5 65.5q0 31 23 63q4 6 13 13.5t15 13.5t6 9q0 11 -15 11q-33 0 -62 -41t-45 -102l-132 -507h-19l-265 543h-3l-96 -386q-40 -163 -161 -163q-49 0 -87.5 31t-38.5 94q0 45 30.5 75.5t73.5 30.5
q44 0 70.5 -28.5t26.5 -65.5q0 -31 -23 -63q-4 -6 -13 -13.5t-15 -13.5t-6 -9q0 -11 15 -11q34 0 63.5 39t44.5 98l75 304q21 87 21 121q0 20 -14.5 40t-35.5 28q-20 7 -38 9l1 5h268l176 -368h2l55 208q46 172 161 172q50 0 90 -31.5t40 -93.5z" />
    <glyph glyph-name="Q.swash" horiz-adv-x="698" 
d="M371 444q-5 -19 -24 -36.5t-44 -17.5q-28 0 -45 17t-17 42q0 31 19.5 47t51.5 16q43 0 70.5 -25.5t27.5 -68.5q0 -97 -51 -159.5t-137 -62.5q-69 0 -120.5 47.5t-51.5 136.5q0 120 104 205.5t236 85.5q139 0 214.5 -64t75.5 -165q0 -110 -70.5 -202.5t-182.5 -158.5
q51 -37 111 -113q34 -44 81.5 -117.5t76 -108t52.5 -34.5q29 0 37 28q-25 0 -49 22.5t-24 51.5q0 42 21.5 62.5t55.5 20.5q35 0 57 -26.5t22 -62.5t-41.5 -76t-116.5 -40q-104 0 -197 56t-148 132q-44 59 -89 137q-87 -27 -148 -27q-44 0 -77.5 17.5t-33.5 55.5
q0 39 40.5 65.5t113.5 26.5q119 0 192 -33q49 62 78.5 144t29.5 158q0 47 -5.5 81t-20.5 65t-45.5 47t-76.5 16q-82 0 -131 -52t-49 -145q0 -132 135 -132q46 0 77.5 34t31.5 69q0 25 -16 41zM169 137q-19 0 -37 -17.5t-18 -41.5q0 -31 16 -49t44 -18q58 0 93 24
q-1 3 -7.5 17.5t-9.5 20t-10.5 18t-13.5 18.5t-15 14t-19.5 11t-22.5 3z" />
    <glyph glyph-name="T.swash" 
d="M247 451q0 -88 -103 -88q-39 0 -71.5 34t-32.5 87q0 85 65 140.5t172 55.5q66 0 241 -21t184 -21q25 0 25 17q0 5 -12.5 15.5t-25.5 25t-13 30.5q0 21 13.5 32.5t29.5 11.5q19 0 32.5 -15t13.5 -38q0 -30 -10 -57.5t-31.5 -53.5t-64.5 -41t-101 -15q-31 0 -56 1l-83 -333
q-24 -99 -24 -136q0 -50 39 -65q29 -11 43 -12l-1 -5h-402l1 5q17 1 42 9q34 9 56 46q26 43 54 154l85 343q-128 5 -163 5q-36 0 -61.5 -14t-25.5 -37q0 -24 18 -24q9 0 36.5 19t58.5 19q30 0 51 -21.5t21 -52.5z" />
    <glyph glyph-name="V.swash" horiz-adv-x="661" 
d="M514 513q-97 -187 -283 -513h-191l77 439q21 109 21 145q0 25 -8.5 37t-27.5 19q-29 11 -43 12l1 5h388l-1 -5q-19 -2 -36 -9q-30 -12 -48 -45q-9 -16 -13.5 -33.5t-11.5 -56.5t-11 -59l-63 -336h5q100 172 226 412q39 74 77.5 108.5t97.5 34.5q43 0 82 -31.5t39 -93.5
q0 -45 -30.5 -75.5t-73.5 -30.5q-44 0 -70.5 28.5t-26.5 65.5q0 31 23 63q5 6 15 14l17.5 14t7.5 9q0 11 -15 11q-59 -2 -124 -129z" />
    <glyph glyph-name="W.swash" horiz-adv-x="1034" 
d="M887 513q-97 -187 -283 -513h-191l77 439l3 15q-43 -78 -129.5 -216.5t-142.5 -237.5h-181l77 439q21 120 21 145t-8.5 37t-27.5 19q-29 11 -43 12l1 5h378l-1 -5q-16 -1 -27 -6q-23 -10 -40 -39q-19 -33 -43 -158l-56 -309h5q31 53 103.5 169t124.5 215q7 46 7 60
q0 45 -19 58q-12 8 -39 10l1 5h367l-1 -5q-19 -2 -36 -9q-30 -12 -48 -45q-7 -12 -12 -29t-7.5 -29.5t-8 -42.5t-8.5 -48l-63 -336h5q100 172 226 412q39 74 77.5 108.5t97.5 34.5q43 0 82 -31.5t39 -93.5q0 -45 -30.5 -75.5t-73.5 -30.5q-44 0 -70.5 28.5t-26.5 65.5
q0 31 23 63q5 6 15 14l17.5 14t7.5 9q0 11 -15 11q-59 -2 -124 -129z" />
    <glyph glyph-name="Y.swash" horiz-adv-x="636" 
d="M778 591q0 -31 -16.5 -54t-49.5 -23q-25 0 -44 15.5t-27 36.5q-11 29 -20.5 40.5t-26.5 11.5q-36 0 -76.5 -52.5t-67 -111t-36.5 -101.5l-33 -135q-25 -103 -25 -136q0 -50 39 -65q29 -11 44 -12l-1 -5h-402l1 5q17 1 42 9q34 9 56 46q26 43 54 154l47 187q10 38 10 94
q0 53 -24.5 89.5t-65.5 36.5q-48 0 -85 -36.5t-50 -99.5l-11 2q14 78 72.5 131t133.5 53q191 0 191 -185q0 -55 -6 -99h4q43 136 108 210t167 74q41 0 69.5 -24t28.5 -56z" />
    <glyph glyph-name="Adieresis.swash" horiz-adv-x="771" 
d="M222 150q6 12 33.5 65.5t38 73t37.5 69.5t42.5 73t41.5 63t46 61t45.5 46t49.5 38t49 18h96l-77 -439q-21 -109 -21 -145q0 -25 8.5 -37t27.5 -19q29 -11 43 -12l-1 -5h-388l1 5q19 2 36 9q30 12 48 45q9 16 13.5 33.5t11.5 56.5t11 59l8 44h-122l-59 -114
q-41 -78 -77 -113.5t-93 -35.5q-43 0 -82 31.5t-39 93.5q0 45 30.5 75.5t73.5 30.5q44 0 70.5 -28.5t26.5 -65.5q0 -31 -23 -63q-5 -6 -15 -14l-17.5 -14t-7.5 -9q0 -11 15 -11q51 1 119 135zM511 854q32 0 54.5 -23t22.5 -55q0 -31 -22 -53.5t-55 -22.5t-54.5 22.5
t-21.5 53.5q0 32 22 55t54 23zM747 854q32 0 54.5 -23t22.5 -55q0 -31 -22 -53.5t-55 -22.5t-54.5 22.5t-21.5 53.5q0 32 22 55t54 23zM472 535q-56 -65 -161 -263h115l51 263h-5z" />
    <glyph glyph-name="Aring.swash" horiz-adv-x="771" 
d="M222 150q6 12 33.5 65.5t38 73t37.5 69.5t42.5 73t41.5 63t46 61t45.5 46t49.5 38t49 18h96l-77 -439q-21 -109 -21 -145q0 -25 8.5 -37t27.5 -19q29 -11 43 -12l-1 -5h-388l1 5q19 2 36 9q30 12 48 45q9 16 13.5 33.5t11.5 56.5t11 59l8 44h-122l-59 -114
q-41 -78 -77 -113.5t-93 -35.5q-43 0 -82 31.5t-39 93.5q0 45 30.5 75.5t73.5 30.5q44 0 70.5 -28.5t26.5 -65.5q0 -31 -23 -63q-5 -6 -15 -14l-17.5 -14t-7.5 -9q0 -11 15 -11q51 1 119 135zM742 794q1 -38 -28.5 -65.5t-67.5 -27.5q-40 0 -68 26.5t-28 66.5t27.5 66.5
t67.5 26.5q41 0 68.5 -26t28.5 -67zM472 535q-56 -65 -161 -263h115l51 263h-5zM705 793q0 29 -16.5 46.5t-44.5 17.5q-27 0 -43.5 -17.5t-16.5 -45.5q0 -27 16 -44.5t43 -17.5q29 0 45.5 16t16.5 45z" />
    <glyph glyph-name="Agrave.swash" horiz-adv-x="771" 
d="M222 150q6 12 33.5 65.5t38 73t37.5 69.5t42.5 73t41.5 63t46 61t45.5 46t49.5 38t49 18h96l-77 -439q-21 -109 -21 -145q0 -25 8.5 -37t27.5 -19q29 -11 43 -12l-1 -5h-388l1 5q19 2 36 9q30 12 48 45q9 16 13.5 33.5t11.5 56.5t11 59l8 44h-122l-59 -114
q-41 -78 -77 -113.5t-93 -35.5q-43 0 -82 31.5t-39 93.5q0 45 30.5 75.5t73.5 30.5q44 0 70.5 -28.5t26.5 -65.5q0 -31 -23 -63q-5 -6 -15 -14l-17.5 -14t-7.5 -9q0 -11 15 -11q51 1 119 135zM730 698l-4 -6q-6 1 -60.5 10t-85.5 13q-113 15 -113 71q0 30 17 48.5t39 18.5
q37 0 78 -36q34 -30 129 -119zM472 535q-56 -65 -161 -263h115l51 263h-5z" />
    <glyph glyph-name="Atilde.swash" horiz-adv-x="771" 
d="M222 150q6 12 33.5 65.5t38 73t37.5 69.5t42.5 73t41.5 63t46 61t45.5 46t49.5 38t49 18h96l-77 -439q-21 -109 -21 -145q0 -25 8.5 -37t27.5 -19q29 -11 43 -12l-1 -5h-388l1 5q19 2 36 9q30 12 48 45q9 16 13.5 33.5t11.5 56.5t11 59l8 44h-122l-59 -114
q-41 -78 -77 -113.5t-93 -35.5q-43 0 -82 31.5t-39 93.5q0 45 30.5 75.5t73.5 30.5q44 0 70.5 -28.5t26.5 -65.5q0 -31 -23 -63q-5 -6 -15 -14l-17.5 -14t-7.5 -9q0 -11 15 -11q51 1 119 135zM803 853h11q-17 -61 -52 -97.5t-86 -36.5q-23 0 -67 13t-59 13q-21 0 -31.5 -1
t-25 -9.5t-23.5 -26.5h-11q33 128 143 128q14 0 54.5 -12t65.5 -12q31 0 49 7t32 34zM472 535q-56 -65 -161 -263h115l51 263h-5z" />
    <glyph glyph-name="Acircumflex.swash" horiz-adv-x="771" 
d="M222 150q6 12 33.5 65.5t38 73t37.5 69.5t42.5 73t41.5 63t46 61t45.5 46t49.5 38t49 18h96l-77 -439q-21 -109 -21 -145q0 -25 8.5 -37t27.5 -19q29 -11 43 -12l-1 -5h-388l1 5q19 2 36 9q30 12 48 45q9 16 13.5 33.5t11.5 56.5t11 59l8 44h-122l-59 -114
q-41 -78 -77 -113.5t-93 -35.5q-43 0 -82 31.5t-39 93.5q0 45 30.5 75.5t73.5 30.5q44 0 70.5 -28.5t26.5 -65.5q0 -31 -23 -63q-5 -6 -15 -14l-17.5 -14t-7.5 -9q0 -11 15 -11q51 1 119 135zM762 707l-4 -4l-123 57l-173 -59l-1 5l154 142h66zM472 535q-56 -65 -161 -263
h115l51 263h-5z" />
    </font>
</defs>
</svg>
