<?xml version="1.0" standalone="no"?>
<!DOCTYPE svg PUBLIC "-//W3C//DTD SVG 1.1//EN" "http://www.w3.org/Graphics/SVG/1.1/DTD/svg11.dtd" >
<svg xmlns="http://www.w3.org/2000/svg">
<metadata>
<json>
<![CDATA[
{
	"fontFamily": "icomoon_fame_2015",
	"majorVersion": 2,
	"minorVersion": 0,
	"version": "Version 2.0",
	"fontId": "icomoon_fame_2015",
	"psName": "icomoon_fame_2015",
	"subFamily": "Regular",
	"fullName": "icomoon_fame_2015",
	"description": "Font generated by IcoMoon."
}
]]>
</json>
</metadata>
<defs>
<font id="icomoon_fame_2015" horiz-adv-x="1024">
<font-face units-per-em="1024" ascent="960" descent="-64" />
<missing-glyph horiz-adv-x="1024" />
<glyph unicode="&#x20;" horiz-adv-x="512" d="" />
<glyph unicode="&#xe000;" glyph-name="dropdown-up" data-tags="dropdown-up" d="M36 200.451l475.998 476.812 476.002-476.812z" />
<glyph unicode="&#xe001;" glyph-name="dropdown-down" data-tags="dropdown-down" d="M988 677.263l-476.002-476.812-475.998 476.812z" />
<glyph unicode="&#xe003;" glyph-name="square" data-tags="square" d="M512 918.239l477.688-477.686-477.688-477.686-477.686 477.686z" />
<glyph unicode="&#xe004;" glyph-name="hr-right" data-tags="hr-right" d="M400.65 439.159c-97.542-109.070-143.998-324.73-147.82-474.302 133.698 200.822 307.444 376.090 517.722 474.28-210.274 94.058-376.374 279.884-517.718 474.328 11.488-160.216 46.484-354.74 147.816-474.306z" />
<glyph unicode="&#xe005;" glyph-name="hr-left" data-tags="hr-left" d="M622.736 439.159c97.542-109.070 143.998-324.73 147.82-474.302-133.698 200.822-307.444 376.090-517.722 474.28 210.27 94.056 376.372 279.882 517.714 474.328-11.484-160.216-46.482-354.74-147.812-474.306z" />
<glyph unicode="&#xe006;" glyph-name="heart" data-tags="heart" d="M988.080 609.541c-0.318 9.228-1.164 18.276-2.334 27.144-0.46 3.53-0.65 6.914-1.17 10.578-0.194 2.314-0.778 4.58-1.556 6.762-24.804 118.346-129.462 207.2-255.154 207.2-89.666 0-168.674-45.44-215.484-114.464-46.942 69.022-126.018 114.464-216.008 114.464-125.626 0-230.482-88.854-255.088-207.2-0.972-2.18-1.622-4.446-1.816-6.762-0.46-3.662-0.718-7.048-1.17-10.578-1.23-8.868-2.074-17.916-2.34-27.144-4.022-62.652 3.896-91.342 3.896-91.342 12.858-111.126 146.802-264.868 267.234-365.8 109.524-91.632 205.938-135.912 205.938-135.912s95.184 44.276 204.708 135.912c120.442 100.934 253.532 254.674 266.324 365.8-0.002 0.002 7.982 28.688 4.020 91.342z" />
<glyph unicode="&#xe007;" glyph-name="hr-up" data-tags="hr-up" d="M512.302 328.121c-109.070-97.542-324.73-143.998-474.302-147.82 200.822 133.698 376.090 307.444 474.28 517.722 94.056-210.27 279.882-376.372 474.328-517.714-160.216 11.484-354.74 46.482-474.306 147.812z" />
<glyph unicode="&#xe008;" glyph-name="hr-down" data-tags="hr-down" d="M511.698 549.593c109.070 97.542 324.73 143.998 474.302 147.82-200.822-133.698-376.090-307.444-474.28-517.722-94.056 210.27-279.882 376.372-474.328 517.714 160.216-11.484 354.74-46.482 474.306-147.812z" />
<glyph unicode="&#xe600;" glyph-name="phone-chat" data-tags="Call" d="M143.238 786.774c-18.481 0-33.524-15.14-33.524-33.645v-615.603c0-18.285 15.043-33.425 33.524-33.425h298.667c18.481 0 33.524 15.14 33.524 33.425v615.603c0 18.505-15.043 33.645-33.524 33.645h-298.667zM441.905 79.744h-298.667c-31.939 0-57.905 26.063-57.905 57.781v615.603c0 31.938 25.966 58.025 57.905 58.025h298.667c31.939 0 57.905-26.087 57.905-58.025v-615.603c0-31.719-25.966-57.781-57.905-57.781v0zM475.429 664.872h-365.714c-6.729 0-12.19 5.364-12.19 12.19s5.461 12.166 12.19 12.166h365.714c6.729 0 12.19-5.339 12.19-12.166s-5.461-12.19-12.19-12.19zM304.494 725.799c-3.145 0-6.315 1.243-8.753 3.657-2.194 2.194-3.438 5.388-3.438 8.557s1.243 6.339 3.682 8.777c3.901 4.145 12.434 4.632 17.067-0.244 2.414-2.194 3.633-5.364 3.633-8.533s-1.219-6.363-3.389-8.557c-2.706-2.414-5.632-3.657-8.802-3.657zM329.143 152.885h-48.762c-6.729 0-12.19 5.364-12.19 12.19s5.461 12.166 12.19 12.166h48.762c6.729 0 12.19-5.339 12.19-12.166s-5.461-12.19-12.19-12.19zM475.429 201.646h-365.714c-6.729 0-12.19 5.364-12.19 12.166 0 6.851 5.461 12.215 12.19 12.215h365.714c6.729 0 12.19-5.364 12.19-12.215 0-6.802-5.461-12.166-12.19-12.166zM746.374 786.774c-94.11 0-170.667-62.901-170.667-140.187 0-35.595 16.53-69.728 46.543-95.815 3.901-3.413 5.193-9.021 3.316-13.653-14.507-37.326-33.963-68.021-58.075-92.182 54.077 6.363 95.817 27.33 121.88 61.926 2.901 3.925 7.778 5.632 12.386 4.632 111.811-24.868 215.284 45.859 215.284 135.091 0 77.286-76.556 140.187-170.667 140.187v0zM531.797 418.606c-5.315 0-10.045 3.438-11.63 8.557-1.609 4.876 0.268 10.484 4.632 13.629 31.768 22.21 56.954 54.856 74.947 97.302-31.305 30.232-48.421 68.265-48.421 108.492 0 90.695 87.503 164.567 195.048 164.567s195.048-73.872 195.048-164.567c0-90.695-87.503-164.567-195.048-164.567-13.897 0-28.136 1.438-42.374 4.145-26.819-32.182-77.775-67.558-172.203-67.558v0z" />
<glyph unicode="&#xe601;" glyph-name="chat-bubbles" data-tags="chat-bubbles live chat" horiz-adv-x="1041" d="M412.252 687.86c-146.225 0-265.204-79.001-265.204-176.454 0-61.665 50.333-120.037 131.374-151.832 3.462-1.396 6.253-4.215 7.733-7.537 1.452-3.378 1.507-7.258 0.167-10.608-11.446-28.474-28.977-57.785-45.28-80.117 47.402 7.258 89.276 30.986 124.841 70.877 2.931 3.378 7.23 5.053 11.641 4.774 11.39-1.145 22.919-1.703 34.728-1.703 146.253 0 265.204 79.001 265.204 176.147 0 97.453-118.951 176.454-265.204 176.454v0zM209.245 231.135c-5.639 0-10.748 3.378-12.897 8.682-2.15 4.997-0.977 11.138 3.015 15.074 13.819 13.958 38.692 47.735 55.581 84.305-84.139 37.1-135.812 102.171-135.812 172.211 0 112.806 131.485 204.369 293.12 204.369 161.607 0 293.12-91.563 293.12-204.369 0-112.499-131.513-204.062-293.12-204.062-10.245 0-20.295 0.279-30.261 1.145-47.932-51.364-106.026-77.354-172.745-77.354v0zM830.492 196.241c-61.779 0-115.573 24.035-159.988 71.464-9.045-0.81-18.201-1.089-27.525-1.089-63.9 0-125.93 15.633-174.616 44.106-6.644 3.908-8.877 12.255-5.025 18.983 3.88 6.672 12.479 8.933 19.095 4.997 44.498-25.933 101.531-40.198 160.546-40.198 10.887 0 21.468 0.586 31.964 1.424 4.467 0.558 8.71-1.117 11.641-4.466 32.076-36.011 69.679-57.785 112.139-64.764-14.656 20.378-30.149 46.591-40.367 72.022-1.396 3.322-1.34 7.23 0.14 10.859 1.452 3.378 4.243 5.862 7.705 7.286 74.397 29.311 120.626 82.63 120.626 139.27 0 89.33-109.404 161.938-243.848 161.938-7.705 0-13.958 6.421-13.958 13.958 0 7.816 6.253 13.958 13.958 13.958 149.854 0 271.764-85.17 271.764-189.853 0-64.764-47.541-125.033-125.009-159.649 15.466-33.219 38.050-63.926 50.612-76.516 3.992-3.908 5.22-10.022 3.043-15.074-2.177-5.276-7.258-8.654-12.897-8.654z" />
<glyph unicode="&#xe602;" glyph-name="lock" data-tags="Lock padlock secure" horiz-adv-x="1041" d="M271.353 495.831v139.374c0 120.907 95.262 209.061 226.483 209.061h34.844c131.256 0 226.483-88.154 226.483-209.061v-139.374h-487.81zM584.945 269.696v-52.614c0-27.875-20.836-69.687-52.265-69.687h-34.844c-31.429 0-52.265 41.812-52.265 69.687v52.614c-11.254 14.948-17.422 33.067-17.422 51.917 0 48.084 39.094 87.109 87.109 87.109 48.049 0 87.109-39.025 87.109-87.109 0-18.85-6.132-36.969-17.422-51.917v0zM811.428 495.831h-17.422v139.374c0 138.991-112.336 243.905-261.327 243.905h-34.844c-148.991 0-261.327-104.914-261.327-243.905v-139.374h-17.422c-9.617 0-17.422-8.014-17.422-17.422v-261.327c0-96.203 78.189-174.218 174.218-174.218h278.749c96.099 0 174.218 78.015 174.218 174.218v261.327c0 9.408-7.77 17.422-17.422 17.422v0zM515.258 373.879c-28.781 0-52.265-23.728-52.265-52.265 0-16.028 7.143-27.561 13.136-34.147 2.787-3.136 4.286-7.317 4.286-11.533v-58.851c0-14.286 11.847-34.147 17.491-34.844h34.739c5.645 0.697 17.457 20.558 17.457 34.844v58.851c0 4.216 1.568 8.397 4.321 11.533 5.993 6.585 13.101 18.119 13.101 34.147 0 28.537-23.415 52.265-52.265 52.265z" />
<glyph unicode="&#xe603;" glyph-name="shopping-bag-check" data-tags="shopping bag check" d="M646.339 467.475c-6.864 0-12.434 5.471-12.434 12.409v226.82c0 59.683-39.417 96.488-102.881 96.488h-31.086c-55.233 0-114.719-30.090-114.719-96.488v-226.82c0-6.938-5.571-12.409-12.434-12.409s-12.434 5.471-12.434 12.409v226.82c0 70.376 58.69 121.331 139.587 121.331h31.086c77.615 0 127.75-47.498 127.75-121.331v-226.82c0-6.938-5.571-12.409-12.434-12.409zM584.168 81.997h-426.173c-3.979 0-7.734 2.014-10.072 5.222-2.338 3.233-2.959 7.237-1.716 11.215l155.429 472.491c1.666 4.974 6.416 8.455 11.788 8.455h404.114c5.347 0 10.122-3.482 11.813-8.455l68.214-205.658c2.164-6.714-1.368-13.702-7.883-15.94-6.491-1.965-13.553 1.517-15.717 7.983l-65.404 197.178h-386.134l-147.222-447.623h408.964c6.864 0 12.434-5.446 12.434-12.409s-5.571-12.459-12.434-12.459zM701.995 134.742c-3.283 0-6.441 1.492-8.779 3.73l-62.171 62.145c-4.874 4.998-4.874 12.683 0 17.681 4.849 4.725 12.708 4.725 17.582 0l52.348-52.471 115.664 144.707c4.277 5.222 12.111 6.242 17.483 1.989 5.347-4.451 6.242-12.185 1.94-17.631l-124.343-155.449c-2.213-2.711-5.521-4.451-9.027-4.451-0.224-0.249-0.448-0.249-0.696-0.249z" />
<glyph unicode="&#xe604;" glyph-name="account" data-tags="Account" d="M509.509 911.263c-255.824 0-463.935-208.005-463.935-464.090 0-255.785 208.11-463.756 463.935-463.756s463.935 207.971 463.935 463.756c0 256.085-208.11 464.090-463.935 464.090v0zM509.509-50.018c-274.248 0-497.371 223.017-497.371 497.192 0 274.509 223.123 497.493 497.371 497.493s497.371-222.984 497.371-497.493c0-274.174-223.123-497.192-497.371-497.192v0zM307.618 376.924c30.394-51.458 103.052-100.642 203.864-100.642 100.845 0 173.57 49.184 203.964 100.642l-68.88 103.35c-1.839 3.009-2.809 5.985-2.809 9.362 0 104.654-10.232 206.6-132.276 206.6-121.977 0-132.175-101.946-132.175-206.6 0-3.377-1.003-6.353-2.809-9.362l-68.88-103.35zM511.482 242.847c-120.539 0-206.539 63.863-238.337 127.759-2.675 5.35-2.274 11.703 1.037 16.718l71.688 107.329c0.067 84.927 3.277 235.054 165.612 235.054 162.436 0 165.646-150.127 165.712-235.054l71.655-107.329c3.344-5.015 3.745-11.368 1.070-16.718-31.798-63.896-117.864-127.759-238.437-127.759v0zM782.52 48.918c-5.283 0-10.466 2.675-13.709 7.389-27.853 39.789-70.518 58.145-134.215 58.145-37.349 0-79.111 30.092-79.111 70.55v74.562c0 9.028 7.49 16.718 16.718 16.718 9.262 0 16.718-7.69 16.718-16.718v-74.562c0-20.028 25.111-37.080 45.675-37.080 74.53 0 127.394-23.773 161.6-72.556 5.283-7.389 3.477-18.089-4.113-23.071-2.909-2.341-6.253-3.377-9.563-3.377zM237.835 50.925c-3.377 0-6.821 1.003-9.764 3.043-7.49 5.35-9.195 16.049-3.778 23.405 34.172 47.479 86.568 70.55 160.162 70.55 20.564 0 45.641 17.052 45.641 37.080v74.562c0 9.028 7.49 16.718 16.718 16.718 9.262 0 16.718-7.69 16.718-16.718v-74.562c0-40.457-41.729-70.55-79.078-70.55-62.928 0-105.192-18.055-133.045-56.507-3.277-4.681-8.393-7.022-13.575-7.022z" />
<glyph unicode="&#xe605;" glyph-name="magnified" data-tags="magnified" horiz-adv-x="1047" d="M398.204 916.376c-93.207 0-180.843-36.372-246.779-102.306-136.169-136.894-136.169-358.946 0-495.84 65.936-66.262 153.573-102.707 246.779-102.707 93.243 0 180.879 36.444 246.816 102.707 136.169 136.894 136.169 358.946 0 495.84-65.936 65.935-153.573 102.306-246.816 102.306v0zM398.204 179.115c-102.964 0-199.776 40.449-272.557 113.593-150.296 150.729-150.296 396.155 0 546.848 72.781 73.216 169.593 113.229 272.557 113.229 103.001 0 199.812-40.012 272.63-113.229 150.259-150.693 150.259-396.119-0.036-546.848-72.781-73.144-169.593-113.593-272.593-113.593v0zM646.076 267.95l285.81-286.895c11.979-11.978 32.914-11.978 44.965 0l3.604 3.677c12.452 12.342 12.452 32.731 0.036 45.109l-285.955 286.931-48.46-48.823zM954.35-64.819c-18.241 0-35.353 7.282-48.242 20.024l-311.442 312.744 99.87 100.522 311.733-312.744c26.578-26.942 26.578-70.304-0.073-96.845l-3.604-3.677c-12.889-12.743-30.037-20.024-48.242-20.024v0z" />
<glyph unicode="&#xe606;" glyph-name="shopping-bag" data-tags="shopping-bag" d="M1006.458-30.119l-209.836 629.508c-2.854 8.435-10.828 14.311-19.892 14.311h-62.951v-125.902c0-11.793-9.359-20.984-20.984-20.984-11.583 0-20.984 9.191-20.984 20.984v125.902h-335.738v-125.902c0-11.793-9.359-20.984-20.984-20.984-11.583 0-20.984 9.191-20.984 20.984v125.902h-62.951c-9.023 0-17.039-5.875-19.892-14.311l-209.836-629.508c-2.182-6.673-1.049-13.388 2.896-19.305 3.945-5.414 10.282-8.351 16.997-8.351h965.246c6.757 0 13.094 2.938 17.039 8.351 3.945 5.917 4.994 12.632 2.854 19.305zM336.073 781.569c0 86.872 73.778 125.902 146.885 125.902h41.967c73.107 0 146.885-39.030 146.885-125.902v-125.902h41.967v125.902c0 98.623-77.639 167.869-188.852 167.869h-41.967c-111.171 0-188.852-69.246-188.852-167.869v-125.902h41.967v125.902z" />
<glyph unicode="&#xe607;" glyph-name="logo" data-tags="logo" horiz-adv-x="1156" d="M496.282 579.574c0 1.811-1.442 2.159-3.624 2.159-3.618 0-9.026 0.36-14.473 2.174-7.584 2.174-18.080 7.958-31.093 40.158-22.056 54.981-78.862 204.371-84.269 218.11-4.349 11.225-5.8 13.028-7.971 13.028-2.182 0-3.603-2.169-7.947-14.112l-82.12-224.623c-6.503-18.092-13.741-31.838-30.374-34.008-2.902-0.36-7.967-0.721-10.486-0.721-1.817 0-3.266-0.715-3.266-2.159 0-2.174 2.181-2.895 6.867-2.895 16.992 0 36.897 1.084 40.882 1.084 3.975 0 19.527-1.084 28.218-1.084 3.258 0 5.422 0.719 5.422 2.895 0 1.443-1.078 2.159-3.613 2.159h-3.628c-6.139 0-13.741 3.262-13.741 10.494 0 6.503 1.821 15.192 5.076 24.233l21.701 64.029c0.712 1.791 1.802 2.885 3.605 2.885h77.764c1.823 0 2.548-0.721 3.27-2.157l33.625-88.991c2.182-5.786 0-9.043-2.149-9.775-1.447-0.36-2.539-1.068-2.539-2.519 0-2.174 3.974-2.174 10.837-2.534 24.964-0.719 51.385-0.719 56.793-0.719 3.981 0 7.238 0.719 7.238 2.895zM384.509 696.406h-69.075c-1.085 0-1.809 0.732-1.085 2.524l31.835 97.669c1.816 5.432 3.612 5.432 5.416 0l34.366-97.669c0.35-1.448 0.35-2.524-1.453-2.524zM138.187 688.451c0-1.816 0.728-3.261 2.547-3.261 2.534 0 2.534 3.625 2.534 6.875 0 2.534 0.721 16.992 1.448 24.231 1.089 11.94 2.903 18.091 2.903 20.259 0 1.807-0.364 2.889-1.816 2.889-1.447 0-2.535-1.805-3.991-3.61-3.266-4.711-7.958-5.793-16.642-6.513-5.049-0.364-10.122-0.364-16.281-0.364l-46.301-0.36c-2.169 0-2.535 1.084-2.535 3.258v99.832c0 2.893 1.090 3.985 3.267 3.985l55.707-1.089c14.107-0.355 22.424-6.869 24.603-11.567 2.174-4.697 3.258-10.85 3.258-13.753 0-2.524 0.734-4.33 2.528-4.33 1.805 0 2.531 2.167 2.891 3.975 0.725 4.34 1.443 20.259 1.807 23.871 1.084 10.133 2.903 14.472 2.903 17.007 0 1.799-0.729 3.258-2.182 3.258-1.446 0-2.887-1.455-5.067-2.181-3.241-1.080-9.035-1.080-15.911-1.443-8.318-0.364-81.74 0-88.988 0l-14.821 0.365c-7.95 0.353-17.727 0.353-26.047 0.353-3.985 0-5.8-0.717-5.8-2.889 0-1.443 1.45-2.169 2.893-2.169 3.27 0 9.413-0.365 12.313-1.090 11.931-2.524 14.839-8.319 15.553-20.618 0.712-11.577 0.712-21.702 0.712-78.126v-63.658c0-34.724 0-63.297-1.787-78.491-1.455-10.5-3.253-18.458-10.507-19.903-3.258-0.729-7.59-1.45-10.829-1.45-2.182 0-2.912-1.068-2.912-2.159 0-2.174 1.817-2.895 5.805-2.895 10.842 0 33.627 1.084 35.43 1.084 1.817 0 24.609-1.084 44.498-1.084 3.967 0 5.773 1.084 5.773 2.895 0 1.090-0.709 2.159-2.885 2.159-3.25 0-11.212 0.721-16.291 1.45-10.837 1.443-13.003 9.403-14.101 19.903-1.817 15.19-1.817 43.77-1.817 78.491v30.753c0 2.513 0.734 3.241 2.535 3.241 6.168 0 45.59 0 54.639-1.090 11.212-1.446 16.987-7.958 18.793-13.018 1.442-4.33 1.793-9.403 2.159-13.019zM1142.147 584.997c1.823 7.592 4.704 32.189 4.704 35.093 0 2.519 0 5.416-2.167 5.416-1.807 0-2.543-1.443-3.249-5.416-2.523-14.849-6.875-22.073-16.275-26.053-9.416-3.987-25.332-3.987-34.721-3.987-35.47 0-40.878 4.711-41.971 29.676-0.346 7.59 0 49.546 0 61.848v31.82c0 1.443 0.721 2.529 2.543 2.529 6.144 0 41.966-0.717 51.719-1.807 14.109-1.44 17.362-7.596 18.813-12.657 1.457-4.691 1.457-8.319 1.457-11.928 0-1.805 0.715-3.261 2.513-3.261 2.547 0 2.547 3.964 2.547 6.867 0 2.534 0.728 15.914 1.436 23.149 1.090 11.94 2.899 18.091 2.899 20.259s-0.721 2.889-1.807 2.889c-1.436 0-2.891-1.805-5.416-4.691-3.258-3.629-8.323-4.35-16.991-5.073-8.34-0.721-52.823-0.721-57.53-0.721-1.807 0-2.173 1.084-2.173 3.622v99.832c0 2.524 0.721 3.625 2.173 3.625 3.965 0 43.42-0.369 49.544-1.096 19.55-2.167 23.177-6.501 25.69-12.293 1.817-4.337 2.182-10.49 2.182-13.021 0-2.895 0.728-4.698 2.885-4.698 1.448 0 2.182 2.167 2.543 3.975 0.721 4.34 1.448 20.259 1.807 23.871 1.082 10.133 2.903 14.472 2.903 17.007 0 1.799-0.369 3.258-1.457 3.258-1.802 0-3.249-1.455-5.064-1.809-2.885-0.732-8.667-1.447-15.554-1.812-8.316-0.364-80.29-0.364-82.82-0.364l-14.839 0.735c-7.957 0.353-17.716 0.353-26.044 0.353-3.975 0-5.799-0.717-5.799-2.889 0-1.443 1.453-2.169 2.906-2.169 3.239 0 9.404-0.365 12.302-1.090 11.928-2.524 14.83-8.319 15.535-20.618 0.738-11.577 0.738-21.702 0.738-78.126v-63.658c0-34.724 0-63.297-1.817-78.491-1.448-10.5-3.258-18.458-10.477-19.903-3.267-0.729-7.602-1.45-10.859-1.45-2.182 0-2.902-1.068-2.902-2.159 0-2.174 1.812-2.895 5.802-2.895 5.422 0 13.747 0.719 20.969 0.719 7.602 0.36 13.76 0.36 14.476 0.36 5.406 0 14.109-0.36 28.219-1.084 14.101-0.369 33.985-1.090 61.124-1.090 14.099-0.001 17.010-0.001 19.516 9.406zM914.579 581.386c-3.61 0-13.017 0-23.495 3.241-15.558 5.064-18.092 25.327-19.547 38.339l-24.215 222.466c-0.734 6.875-1.823 9.763-4.352 9.763-2.543 0-3.991-2.529-5.44-5.792l-106.342-227.163-110.67 227.529c-1.817 3.964-3.267 5.423-5.416 5.423-2.187 0-3.633-2.529-3.991-6.516l-26.040-235.844c-1.448-13.747-2.534-27.844-14.473-30.025-5.432-1.084-7.968-1.084-10.867-1.084-1.787 0-3.611-0.715-3.611-1.799 0-2.534 2.534-3.258 6.151-3.258 9.763 0 27.134 1.084 30.376 1.084 2.899 0 20.263-1.084 33.651-1.084 4.349 0 6.498 0.719 6.498 3.258 0 1.084-1.421 1.799-2.871 1.799-2.175 0-7.616 0.36-13.747 1.811-5.448 1.084-9.422 5.8-9.422 11.218 0 6.144 0 12.659 0.359 18.442l14.468 167.839h1.453c3.986-9.768 44.493-96.587 47.742-103.093 1.823-3.622 32.919-66.186 42.328-83.919 6.865-13.021 8.691-16.64 11.224-16.64 3.249 0 4.343 3.266 11.925 19.174l88.619 188.077h1.090l17.367-187.712c0.728-6.518 0.364-12.674-1.453-13.035-1.807-0.36-2.534-1.090-2.534-2.519 0-1.811 1.807-2.903 10.133-3.625 13.391-1.084 52.445-1.45 60.427-1.45 4.33 0 7.578 1.090 7.578 3.266 0.002 1.442-1.084 1.809-2.9 1.809zM498.981 384.423c-22.525-13.277-44.149-35.771-44.149-69.531 0-25.086 19.599-63.751 70.106-63.751 42.689 0 65.477 24.521 72.128 31.155 31.703-25.097 38.639-27.124 59.99-27.124h28.266c2.601 0 4.909 0.879 4.909 2.024 0 1.743-1.441 2.015-4.041 2.015-10.391 0-25.115 5.796-34.315 11.255-8.092 4.627-20.776 12.403-39.814 28.57 12.68 15.555 28.543 44.712 28.543 68.075 0 2.877-0.868 5.188-5.202 5.76-16.139 1.743-27.667 2.024-34.603 2.024-2.301 0-4.637-0.572-4.637-2.024 0-1.443 1.749-2.009 3.465-2.009 4.338 0 10.408-0.877 14.146-4.627 4.328-4.32 5.485-9.804 5.485-14.119 0-17.614-6.644-36.928-14.714-47.903-9.237 7.79-44.702 40.967-54.534 51.639-29.986 32.601-45.562 51.35-45.562 73.857 0 27.11 19.335 37.783 36.639 37.783 12.691 0 22.477-6.047 28.836-12.68 7.2-7.508 8.949-17.023 8.949-24.521 0-4.338 0.28-5.481 1.718-5.481 1.154 0 2.036 0.565 2.891 4.9 0.877 4.33 2.009 24.514 2.009 33.17 0 3.476-0.269 5.206-3.741 7.225-7.78 4.337-20.179 7.203-34.891 7.203-38.647 0-62.020-30.291-62.020-53.069 0-12.999 3.441-24.808 14.139-39.811zM503.299 376.916c8.086-11.831 26.545-32.306 34.037-40.387 7.501-8.077 36.070-35.471 52.22-48.757-9.821-10.097-27.695-21.357-54.542-21.357-32.298 0-57.684 25.975-57.684 62.031 0 23.071 10.951 38.662 25.966 48.467zM57.711 153.995c-7.651 0-17.326-0.499-20.974-0.499-1.331 0-11.316 0.499-18.808 0.499-1.841 0-2.673-0.343-2.673-1.331 0-0.68 0.659-1.022 1.325-1.022 1.502 0 4.324-0.152 5.661-0.481 5.493-1.166 6.823-3.826 7.164-9.498 0.327-5.317 0.327-9.985 0.327-35.967v-29.293c0-15.989 0-29.138-0.825-36.122-0.671-4.844-1.493-8.511-4.828-9.181-1.51-0.316-3.501-0.664-4.993-0.664-1.001 0-1.325-0.488-1.325-0.985 0-1.016 0.826-1.346 2.654-1.346 4.998 0 15.47 0.511 15.988 0.511 0.826 0 11.316-0.511 20.467-0.511 1.845 0 2.669 0.511 2.669 1.346 0 0.497-0.327 0.985-1.335 0.985-1.495 0-5.148 0.346-7.486 0.664-4.991 0.669-5.992 4.328-6.49 9.181-0.841 6.985-0.841 20.131-0.841 36.122v68.423c0 1.664 0.332 2.839 1.345 3.162 1.493 0.669 4.319 1.006 7.16 1.006 3.826 0 13.985 0.659 22.808-8.33 8.821-8.988 9.323-20.145 9.323-25.63 0-15.322-12.663-27.149-28.803-27.149-3.5 0-4.494-0.162-4.494-1.495 0-0.826 0.994-1.159 1.831-1.159 0.833-0.173 2.664-0.173 3.492-0.173 23.641 0 40.962 15.989 40.962 39.618 0 8.825-4.663 16.328-8.319 19.826-2.669 2.492-10.167 9.493-30.982 9.493zM722.433 153.995c-6.819 0-12.329-0.499-14.156-0.499-1.829 0-9.826 0.499-17.319 0.499-1.991 0-3.322-0.173-3.322-1.166 0-0.669 0.162-1.188 1.325-1.188 1.325 0 5.158-0.152 8.159-0.815 5.161-1.319 6.339-4.993 6.483-15.811l1.841-84.583c-5.325 5.491-23.475 25.811-39.964 43.453-25.636 27.483-50.45 54.277-52.94 57.116-1.664 1.664-4.507 5.325-5.835 5.325-1.325 0-1.829-1.831-1.829-8.334l-0.173-95.392c0-15.146-0.826-19.99-4.99-21.149-2.492-0.833-5.493-1.006-6.839-1.006-0.811 0-1.317-0.316-1.317-0.985 0-1.184 0.99-1.346 2.664-1.346 7.493 0 14.475 0.511 15.989 0.511 1.493 0 8.159-0.511 17.632-0.511 2.009 0 2.997 0.327 2.997 1.346 0 0.669-0.488 0.985-1.319 0.985-1.515 0-5.158 0.173-8.323 1.006-4.494 1.331-6.166 5.655-6.498 19.309l-2.159 79.758c5.331-5.998 24.136-26.966 43.457-47.785 17.644-18.972 41.625-43.453 43.453-45.116 8.827-8.827 10.828-10.658 12.163-10.658 1.164 0 1.487 0.826 1.487 11.816l0.337 97.575c0 9.983 0.664 13.642 6.172 14.813 1.997 0.481 3.161 0.481 3.993 0.481 1.166 0 1.829 0.517 1.829 1.188-0.002 0.996-1.161 1.166-2.996 1.166zM421.139 30.443c-0.986 0-3.33 0-6.489 0.499-4.164 0.669-11.327 2.503-20.314 11.989-9.66 10.34-20.975 25.152-34.623 42.635 14.982 13.81 20.143 26.144 20.143 38.456 0 11.485-7.324 19.646-11.507 22.649-8.82 6.328-19.97 7.327-30.458 7.327-5.167 0-17.813-0.499-19.642-0.499-0.834 0-11.316 0.499-18.816 0.499-1.842 0-2.674-0.343-2.674-1.331 0-0.68 0.671-1.022 1.335-1.022 1.51 0 4.33-0.152 5.661-0.481 5.493-1.166 6.829-3.826 7.164-9.498 0.327-5.317 0.327-9.985 0.327-35.967v-29.293c0-15.989 0-29.138-0.831-36.122-0.669-4.844-1.485-8.511-4.829-9.181-1.51-0.316-3.499-0.664-4.991-0.664-0.986 0-1.335-0.488-1.335-0.985 0-1.016 0.838-1.346 2.668-1.346 5.001 0 15.483 0.511 15.639 0.511 0.841 0 11.327-0.511 20.493-0.511 1.823 0 2.647 0.511 2.647 1.346 0 0.497-0.327 0.985-1.318 0.985-1.497 0-5.167 0.346-7.49 0.664-4.991 0.669-5.994 4.328-6.492 9.181-0.831 6.985-0.831 20.131-0.831 36.122v3.993c0 0.828 0.327 1.325 1.159 1.325l20.49-0.337c0.986 0 1.492-0.327 2.153-0.99 3.334-4.33 11.154-15.483 18.149-24.652 9.486-12.482 15.316-20.639 22.477-24.468 4.33-2.327 8.489-3.166 17.814-3.166h11.82c2.997 0 3.997 0.327 3.997 1.346 0 0.498-0.667 0.988-1.504 0.988zM355.718 89.724c-3.831-2.666-8.499-3.161-12.49-3.161-7.316 0-14.985 1.159-17.487 2.654-0.833 0.504-1.159 1.175-1.159 2.003v54.447c0 1.001 0.495 1.673 1.325 1.997 1.676 0.497 6.156 0.996 11.163 0.996 17.807 0 28.8-12.475 28.8-33.299 0.001-12.647-4.339-21.645-10.152-25.638zM1119.99 99.544l-4.676 3.667c-15.969 12.475-20.308 18.481-20.308 27.971 0 12.14 8.988 19.302 20.479 19.302 15.322 0 19.818-6.985 20.824-8.825 0.985-1.817 1.997-6.322 2.153-8.323 0.173-1.319 0.337-2.153 1.331-2.153 0.823 0 1.159 1.159 1.159 3.83 0 11.316 0.671 16.809 0.671 17.654 0 0.833-0.337 1.159-1.664 1.159s-2.673 0.173-5.828 0.833c-4.164 1.001-8.998 1.673-15.479 1.673-21.153 0-34.467-12.163-34.467-29.975 0-11.316 3.991-21.645 21.645-36.13l7.487-6.166c14.322-11.816 19.154-18.476 19.154-29.964 0-10.658-7.821-22.143-23.814-22.143-11.154 0-22.141 4.653-24.643 16.985-0.497 2.327-0.497 4.653-0.497 6.156 0 1.325-0.168 1.823-1.166 1.823-0.833 0-1.166-0.833-1.325-2.654-0.168-2.664-0.838-9.331-0.838-17.658 0-4.494 0.162-5.158 2.509-6.316 6.823-3.334 14.482-4.494 22.306-4.494 8.983 0 17.98 1.985 25.133 6.985 11.497 8.159 14.157 20.81 14.157 27.639-0.001 13.324-4.652 23.642-24.308 39.129zM541.073 155.156c-0.664 0-2.169-0.501-4.672-0.826-2.665-0.504-6.492-0.833-11.812-0.833h-62.442c-1.997 0-8.318 0.327-13.155 0.833-4.492 0.327-6.156 1.997-7.326 1.997-0.671 0-1.325-2.167-1.658-3.173-0.328-1.331-3.665-15.654-3.665-17.308 0-1.001 0.327-1.51 0.825-1.51 0.67 0 1.167 0.337 1.676 1.673 0.498 1.166 0.997 2.327 2.822 5.161 2.669 3.993 6.661 5.161 16.985 5.325l24.637 0.337v-70.426c0-15.989 0-29.138-0.825-36.122-0.664-4.844-1.495-8.511-4.844-9.181-1.485-0.316-3.484-0.664-4.985-0.664-0.996 0-1.329-0.488-1.329-0.985 0-1.016 0.833-1.346 2.673-1.346 4.985 0 15.479 0.511 16.309 0.511 0.833 0 11.316-0.511 20.478-0.511 1.831 0 2.666 0.511 2.666 1.346 0 0.497-0.328 0.985-1.329 0.985-1.497 0-5.159 0.346-7.497 0.664-4.991 0.669-5.991 4.328-6.481 9.181-0.838 6.985-0.838 20.131-0.838 36.122v70.425l20.981-0.337c15.989-0.337 19.978-4.158 20.478-9.15l0.162-1.841c0.166-2.327 0.503-2.822 1.335-2.822 0.667 0 1.167 0.659 1.167 2.167 0 1.829 0.487 13.313 0.487 18.311 0 1.004 0 1.999-0.828 1.999zM1046.022 30.443c-0.996 0-3.328 0-6.49 0.499-4.166 0.669-11.326 2.503-20.32 11.989-9.66 10.34-20.974 25.152-34.618 42.635 14.974 13.81 20.128 26.144 20.128 38.456 0 11.485-7.324 19.646-11.469 22.649-8.837 6.328-19.99 7.327-30.484 7.327-5.152 0-17.813-0.499-19.646-0.499-0.823 0-11.316 0.499-18.806 0.499-1.845 0-2.666-0.343-2.666-1.331 0-0.68 0.671-1.022 1.325-1.022 1.504 0 4.328-0.152 5.663-0.481 5.491-1.166 6.834-3.826 7.16-9.498 0.327-5.317 0.327-9.985 0.327-35.967v-29.293c0-15.989 0-29.138-0.828-36.122-0.664-4.844-1.495-8.511-4.831-9.181-1.487-0.316-3.501-0.664-4.99-0.664-0.995 0-1.331-0.488-1.331-0.985 0-1.016 0.833-1.346 2.673-1.346 4.985 0 15.479 0.511 15.636 0.511 0.833 0 11.333-0.511 20.49-0.511 1.823 0 2.649 0.511 2.649 1.346 0 0.497-0.327 0.985-1.325 0.985-1.501 0-5.161 0.346-7.487 0.664-4.998 0.669-5.998 4.328-6.498 9.181-0.833 6.985-0.833 20.131-0.833 36.122v3.993c0 0.828 0.337 1.325 1.159 1.325l20.485-0.337c1.001 0 1.495-0.327 2.167-0.99 3.334-4.33 11.154-15.483 18.152-24.652 9.483-12.482 15.309-20.639 22.469-24.468 4.343-2.327 8.49-3.166 17.826-3.166h11.823c2.994 0 3.993 0.327 3.993 1.346 0.001 0.498-0.671 0.988-1.5 0.988zM980.59 89.724c-3.837-2.666-8.49-3.161-12.494-3.161-7.316 0-14.979 1.159-17.482 2.654-0.823 0.504-1.159 1.175-1.159 2.003v54.447c0 1.001 0.504 1.673 1.325 1.997 1.676 0.497 6.169 0.996 11.149 0.996 17.826 0 28.812-12.475 28.812-33.299 0-12.647-4.328-21.645-10.15-25.638zM859.511 50.583c-0.838 0-1.159-0.659-1.495-2.479-1.175-6.839-3.177-10.173-7.501-11.996-4.325-1.829-11.66-1.829-15.985-1.829-16.31 0-18.804 2.167-19.309 13.653-0.168 3.497 0 22.814 0 28.479v14.652c0 0.653 0.327 1.159 1.159 1.159 2.842 0 19.314-0.327 23.808-0.833 6.498-0.664 7.992-3.499 8.662-5.82 0.671-2.167 0.671-3.837 0.671-5.491 0-0.843 0.327-1.501 1.164-1.501 1.154 0 1.154 1.828 1.154 3.151 0 1.175 0.337 7.335 0.664 10.658 0.517 5.485 1.351 8.319 1.351 9.326 0 1.006-0.343 1.331-0.833 1.331-0.669 0-1.331-0.843-2.509-2.167-1.495-1.673-3.83-1.997-7.831-2.339-3.83-0.327-24.302-0.327-26.469-0.327-0.815 0-0.996 0.488-0.996 1.658v45.959c0 1.164 0.327 1.658 0.996 1.658 1.845 0 19.982-0.152 22.81-0.497 8.988-1.001 10.667-2.994 11.831-5.663 0.838-1.997 0.99-4.824 0.99-5.991 0-1.33 0.337-2.167 1.344-2.167 0.671 0 1.006 0.995 1.164 1.841 0.337 1.991 0.664 9.316 0.833 10.98 0.497 4.672 1.331 6.673 1.331 7.831 0 0.833-0.168 1.487-0.659 1.487-0.843 0-1.507-0.653-2.339-0.815-1.331-0.332-3.991-0.669-7.156-0.838-3.83-0.158-36.965-0.158-38.134-0.158l-6.819 0.327c-3.668 0.173-8.167 0.173-11.994 0.173-1.831 0-2.664-0.343-2.664-1.331 0-0.68 0.664-1.022 1.325-1.022 1.501 0 4.325-0.152 5.66-0.481 5.493-1.166 6.834-3.826 7.16-9.498 0.337-5.317 0.337-9.985 0.337-35.967v-29.293c0-15.989 0-29.138-0.833-36.122-0.669-4.844-1.507-8.511-4.831-9.181-1.492-0.316-3.501-0.664-4.998-0.664-0.99 0-1.317-0.488-1.317-0.985 0-1.016 0.833-1.346 2.654-1.346 2.5 0 6.336 0.327 9.66 0.327 3.492 0.184 6.328 0.184 6.652 0.184 2.5 0 6.502-0.184 12.992-0.511 6.498-0.168 15.653-0.497 28.131-0.497 6.508 0 7.831 0 9.010 4.33 0.823 3.487 2.144 14.821 2.144 16.154 0.001 1.164 0.001 2.486-0.984 2.486zM259.559 30.443c-1.664 0-4.166 0.173-6.671 1.006-3.492 0.99-8.323 3.663-14.306 18.476-10.159 25.31-36.296 94.078-38.795 100.399-2.003 5.161-2.68 5.998-3.665 5.998-1.010 0-1.658-1.016-3.665-6.49l-37.795-103.412c-2.996-8.319-6.332-14.652-13.985-15.637-1.325-0.173-3.655-0.346-4.822-0.346-0.833 0-1.511-0.316-1.511-0.985 0-1.016 1.015-1.346 3.182-1.346 7.821 0 16.961 0.511 18.794 0.511 1.837 0 8.999-0.511 12.999-0.511 1.494 0 2.502 0.327 2.502 1.346 0 0.669-0.503 0.985-1.677 0.985h-1.666c-2.815 0-6.328 1.504-6.328 4.841 0 2.987 0.845 6.99 2.339 11.145l9.982 29.479c0.342 0.826 0.834 1.325 1.666 1.325h35.801c0.833 0 1.172-0.332 1.497-0.99l15.493-40.959c0.99-2.678 0-4.18-1.010-4.494-0.654-0.173-1.164-0.501-1.164-1.166 0-0.995 1.83-0.995 4.997-1.184 11.481-0.327 23.639-0.327 26.14-0.327 1.83 0 3.331 0.327 3.331 1.346-0.001 0.834-0.687 0.988-1.665 0.988zM209.777 83.227h-31.799c-0.509 0-0.84 0.333-0.509 1.166l14.664 44.952c0.825 2.5 1.656 2.5 2.492 0l15.817-44.952c0.168-0.675 0.168-1.166-0.667-1.166z" />
<glyph unicode="&#xe608;" glyph-name="guarantee" data-tags="guarantee" horiz-adv-x="984" d="M380.41 393.711l-121.888-390.765 99.981 45.635 56.258-94.413 121.912 390.779zM484.205 365.203l84.995-400.341 64.82 88.617 95.361-54.671-84.993 400.375zM835 556.004c-4.9-35.258-43.99-59.795-58.69-90.21-15.291-31.467-10.642-77.25-34.362-101.944-24.004-24.961-70.044-22.006-100.55-38.382-30.203-16.225-53.273-56.23-87.72-62.375-33.24-5.947-68.629 23.244-103.907 28.113-35.259 4.883-77.153-13.691-107.646 1.066-31.542 15.26-42.827 59.971-67.503 83.751-24.978 24.068-70.022 33.64-86.404 64.207-16.21 30.186 0.628 72.922-5.477 107.449-6.005 33.259-36.996 67.412-32.117 102.703 4.9 35.283 43.936 59.708 58.638 90.176 15.271 31.467 10.616 77.228 34.414 101.964 24.008 24.919 70.022 21.988 100.526 38.351 30.229 16.19 53.266 56.258 87.72 62.387 33.259 5.949 68.646-23.287 103.868-28.064 35.278-4.865 77.219 13.615 107.606-1.106 31.503-15.262 42.906-59.998 67.562-83.79 24.919-24.037 70.059-33.599 86.436-64.171 16.166-30.19-0.725-72.941 5.453-107.438 5.946-33.252 36.97-67.404 32.131-102.684z" />
<glyph unicode="&#xe609;" glyph-name="comment" data-tags="comment" horiz-adv-x="1032" d="M978.86 112.907c-92.465 4.398-132.254 101.99-148.977 170.757 71.545 57.736 115.311 133.404 115.311 216.573 0 180.714-205.080 327.218-458.083 327.218-253.006 0-458.113-146.502-458.113-327.218s205.112-327.222 458.113-327.222c55.518 0 108.495 7.412 157.739 20.322 206.569-176.751 333.995-80.443 333.995-80.443z" />
<glyph unicode="&#xe60a;" glyph-name="arrows" data-tags="arrows" horiz-adv-x="1016" d="M53.859 231.979l350.909 350.909 25.056-25.056-350.909-350.909-25.056 25.056zM118.129 271.155c0 52.308-39.236 116.54-74.071 153.577 12.273-84.064 7.733-172.638-25.059-252.359 78.926 33.818 167.915 33.818 252.359 25.059-41.64 35.438-97.498 72.62-153.577 74.071zM359.154 531.992l-35.438 119.847 22.779 22.779 26.622-123.484 22.779 22.779-26.622 123.484 22.779 22.779 26.622-123.484 22.779 22.779-26.351 123.484 22.779 22.779 26.351-123.484 17.619 17.619 25.056-25.056-17.619-17.619 123.484-26.622-22.761-22.779-123.484 26.622-22.779-22.779 123.484-26.622-22.779-22.779-123.484 26.622-22.779-22.779 123.484-26.622-22.779-22.779-119.847 35.438zM967.309 705.999l-350.909-350.909-25.056 25.056 350.909 350.909 25.056-25.056zM902.962 666.679c0-52.308 39.236-116.54 74.071-153.577-12.273 84.064-7.733 172.638 25.059 252.359-78.926-33.818-167.915-33.818-252.359-25.059 41.64-35.438 97.498-72.62 153.577-74.071zM661.89 405.789l35.438-120.187-22.779-22.779-26.622 123.484-22.779-22.779 26.622-123.484-22.779-22.779-26.622 123.484-22.779-22.779 26.351-123.484-22.779-22.779-26.351 123.484-17.619-17.439-25.056 25.056 17.619 17.619-123.484 26.622 22.761 22.779 123.645-26.622 22.779 22.779-123.484 26.622 22.779 22.779 123.484-26.622 22.779 22.779-123.484 26.622 22.779 22.779 119.847-35.428z" />
<glyph unicode="&#xe60b;" glyph-name="price-free" data-tags="price-free" horiz-adv-x="1112" d="M515.808 83.439c-59.395 6.93-101.971 27.723-131.678 55.43-29.728 26.729-45.566 59.391-48.49 91.067-2.927 31.677 9.953 59.395 41.566 67.324 31.72 7.966 63.447-10.943 71.309-42.579 7.966-30.687-10.833-63.378-42.655-71.254-16.859-3.971-31.677-0.981-45.566 7.885 6.93-15.831 20.808-36.646 45.566-54.447 24.736-17.798 61.397-35.667 109.884-40.578v299.060c-47.501 19.801-91.112 44.571-122.769 77.203s-51.516 73.266-51.516 124.764c0 59.395 18.813 105.924 50.437 139.604 30.687 33.657 73.258 55.477 123.72 64.343v51.482h14.849v-49.501c18.813 3.971 53.413 5.912 70.301 3.005v46.518h14.88v-47.501c58.388-6.93 101.971-30.687 130.664-58.417 27.719-28.657 42.551-61.416 43.544-89.118 0.981-32.605-9.953-60.384-40.578-68.277-31.677-7.885-63.397 10.833-71.254 42.579-8.934 31.72 10.943 63.397 41.535 71.254 16.819 3.971 31.677 1.975 45.573-6.93-18.813 42.579-71.309 84.215-149.509 95.060v-254.473c58.388-24.736 106.923-51.482 140.583-88.121 33.649-36.609 52.467-85.101 52.467-153.472 0-64.343-22.761-112.898-57.408-147.523-35.57-34.647-84.131-54.447-135.607-62.38v-48.49h-14.857v46.555c-12.865-1.975-25.734-2.927-36.609-2.927s-22.806 0-33.657 0.981v-44.557h-14.849v46.555zM515.808 775.489c-36.646-22.761-58.454-60.384-58.454-101.013 0-36.609 19.801-66.369 58.454-91.112v192.063zM600.938 793.307c-30.687 0.981-51.516-0.981-70.301-9.848v-208.89c18.813-10.833 42.579-20.792 70.301-31.72v250.501zM530.586 95.311c26.802-0.981 47.555-0.981 70.301 6.93v251.464c-18.813 10.833-42.655 22.761-70.301 35.667v-294.068zM615.811 108.167c42.655 19.806 72.237 61.416 72.237 111.886 0 51.482-23.737 89.118-72.237 123.778v-235.665zM173.156 120.433c-32.338-30.599-68.209-57.539-98.877-84.131l36.888 31.781c-18.49-15.855-35.765-27.065-57.946-39.124 2.27 9.073 17.535 15.711 15.855 23.963 46.367 37.375 99.132 66.706 150.212 94.865-7.733-27.667-33.649-17.074-46.209-27.421zM-3.289-6.066l13.342 11.467c-4.261-4.498-8.565-8.823-13.342-11.467zM451.964 408.317c5.118 4.686 10.426 9.222 15.942 13.020-4.653-5.154-10.341-8.953-15.942-13.020zM210.065 200.874c2.039 3.219 4.303 6.272 6.713 9.126 23.104 14.961 46.839 29.54 71.358 43.953-26.101-16.456-48.090-41.836-78.069-53.143zM176.581 195.723c-21.899-17.535-46.236-32.537-72.090-42.863 24.694 11.665 48.49 26.701 72.090 42.863zM584.13 597.138c-0.863 1.188-0.981 2.467-0.736 3.655 0.536 0.81 0.891 1.705 1.013 2.802l33.006 12.365c-2.063-2.105-2.927-5.886-5.446-7.476-12.13-4.54-17.964-0.002-27.812-11.374zM445.851 403.669l-0.015-1.046-5.184-4.803-0.981-0.008c1.937 2.173 4.099 4.128 6.3 5.912zM571.169 590.226c-1.6 2.243-3.283 4.54-5.283 5.886l18.413 7.385c-0.015-0.891-0.691-1.795-0.863-2.714-2.732-3.895-9.98-4.993-12.299-10.601zM433.089 530.141c-3.412-2.467-3.43-9.222-4.357-11.517-11.109-2.802-22.229-5.619-34.241-10.696-0.863-2.27-4.261-4.733-5.987-9.402-3.219 0.589-6.422 0.81-9.638 0.76 23.849 15.032 48.667 29.769 74.75 43.953-6.503-4.686-13.266-9.182-20.693-13.176zM1061.243 783.409c-31.781-19.097-76.845-23.803-102.641-53.182 42.011 10.143 96.128 31.413 111.942 11.543 15.831-19.713-51.001-25.817-79.949-41.372l10.026-0.92c-5.022 0.015-10.026 0.92-12.273-3.379 10.026-0.92 27.208 1.975 35.019-3.323l-4.423-8.505c27.719-7.242 66.469 6.503 93.898-1.266-121.65 10.166-245.28-79.32-355.123-147.314-59.114-42.863-105.734-96.034-145.518-149.828-8.297-8.94-33.096-22.605-51.207-31.889-27.938-22.887-55.603-46.017-79.455-73.825-55.938-51.26-123.447-82.219-186.403-132.753-12.465-10.038-44.629-4.221-16.869 25.293 21.64 26.219 46.804 48.561 74.039 68.092 1.226-8.402-14.385-14.040-17.068-22.995 22.714 10.675 40.386 20.906 59.605 35.465l-38.325-29.4c31.811 24.73 68.898 49.239 102.883 77.574 12.941 9.638 38.194-2.802 47.47 24.253-52.315-24.571-106.559-50.437-154.511-84.918l-0.008 0.608-61.16-44.666c5.8 5.524 11.397 11.467 17.838 14.493-33.958-16.332-64.295-37.021-94.316-58.18 66.987 83.498 171.414 136.553 253.248 202.362-31.677-5.811-53.908-42.863-84.013-44.666 39.561 27.591 80.889 52.914 124.18 76.972-2.578-2.732-5.044-5.548-7.257-8.661 30.489 9.242 53.997 33.006 80.964 47.501v0c-25.201-12.669-49.797-25.491-73.737-38.824 8.841 9.341 20.065 16.54 34.321 23.803-10.018-0.015-21.748-4.993-33.472-9.833l-41.689-25.471c20.445 14.385 39.124 30.892 54.942 48.184-31.438-13.935-60.948-32.958-90.964-49.516l45.451 33.564 83.75 46.009-2.836-2.343 6.041 4.128 32.855 18.781c9.478 6.379 17.362 14.813 24.864 23.904l4.733 3.021c-1.817-3.895-2.039-6.843 4.498-4.367 28.657 8.94 49.91 35.531 83.87 43.858 8.895 2.173 18.555 9.126 28.709 17.199 3.895 0.014 4.958 1.999 5.492 4.398l6.645 5.207c5.811 3.541 11.751 6.93 16.741 11.765-5.669-3.488-11.296-7.544-16.741-11.765l-6.422-4.128c0.015 2.647 0.92 5.669 4.151 7.623-41.836-21.463-85.464-43.544-126.921-69.788l4.865 9.073-9.638-12.075c-13.358-8.547-26.494-17.619-39.124-27.116 3.283 3.655 5.99 7.639 7.77 12.145-39.124-22.605-76.564-48.49-113.266-75.417-37.476-20.552-74.75-41.003-110.804-63.133 22.761 7.064 44.246 17.69 65.422 29.5-51.52-38.45-103.164-76.702-159.31-108.51 4.261 13.789 13.601 28.162 12.925 41.566-3.611 4.231-21.58-6.422-13.666 3.323 26.857 38.325 60.794 45.147 57.984 80.964-1.937 8.94-59.907 4.566-50.237 18.901 9.519 10.038 27.899 26.182 48.43 42.579 6.683 3.601 13.5 7.639 20.253 12.060 1.188 0.008 1.6 2.484 2.27 5.32 22.779 17.074 45.341 32.209 58.895 38.71l15.037 7.352c3.379 0.015 6.597-0.015 9.784-1.652 1.739 3.717 3.773 6.899 6.103 9.724l38.969 20.552c8.28 1.999 16.662 3.753 24.571 6.041-1.188 1.581-3.655 3.118-3.389 5.548l47.146 26.698c7.544 1.632 15.167 1.937 22.929 0.571 7.733 24.93 52.006 38.685 77.847 56.383l-0.015 0.536 41.883 22.761c3.118-0.015 6.272-0.628 9.42-1.484 2.063 4.498 5.629 6.629 6.645 8.841 12.28 4.151 23.542 6.191 34.843 8.087 1.013 2.199 1.55 8.934 5.184 11.109 7.639 3.488 14.693 7.491 21.463 11.543l25.894 11.318c29.581 12.365 59.543 22.946 89.378 32.537 1.876-1.532 3.323-3.874 4.803-6.272 2.661 5.375 9.98 5.886 13.020 9.526-0.015-1.188-0.015-2.419 0.015-3.717 10.675 10.47 16.068 5.619 28.559 9.182 2.497 1.393 3.717 5.108 5.912 7.030l4.128 1.151c18.372-4.948 29.48 5.154 44.142 11.683l47.555 11.665c12.465 3.18 20.209-2.13 30.316-3.202zM621.491 617.398l43.298 15.137c-14.136-7.77-24.503-18.543-43.298-15.137zM265.453 411.063c-7.869 0.836-15.444-0.009-22.868-2.243l96.246 64.674c-24.503-19.551-67.677-36.609-73.737-61.953zM583.45 600.789c0.015 0.891 0.015 1.795 0.863 2.714l0.014 0.006c-0.011-1.080-0.015-1.975-1.013-2.802zM267.851 282.319l-3.021-1.975c6.713 6.437 13.601 12.696 20.606 18.828-4.713-6.103-10.947-11.524-17.535-16.859zM184.059 228.581l-43.366-36.609c-20.552-13.085-41.333-25.156-63.705-33.54 34.843 24.203 70.774 47.043 107.061 70.151zM201.257 373.55c-7.77-2.82-16.065-5.108-24.087-7.733l20.349 13.078c-0.009-2.467 2.484-3.837 3.773-5.32zM327.324 332.451l-4.54-3.379 8.779 12.764zM124.383 333.657l15.336 9.073c-2.13-2.985-3.999-6.379-5.453-10.143-3.283 1.151-6.503 1.438-9.848 1.046zM51.552 277.506c-6.585-4.793-12.941-9.366-19.42-13.282l21.377 18.685c-0.015-2.836-0.81-5.32-1.937-5.453zM41.784 771.201l3.202-1.532c-2.27-0.008-5.492 0.571-9.108 1.55 34.155-13.935 81.59-19.91 113.266-20.195 10.808-2.732 20.906-3.081 22.605-0.571 1.632 2.467-5.852 6.797-16.703 9.54-2.343 0.863-5.118 1.705-6.797 2.578-14.744 7.733-33.283 14.961-53.997 21.58l11.896-5.108c-5.99 1.975-11.889 3.999-18.685 5.492l2.039-1.999c-20.309 8.123-49.473 12.764-65.021 10.47-15.637-2.27-11.896-10.47 8.348-18.243l8.94-3.601zM77.575 747.232l-35.428 13.282-2.199 1.438-0.005-4.398 0.015 0.015c11.979 1.115 30.976-1.151 48.241-3.961l6.236-0.713c3.021-0.009 5.184 0.015 5.99 1.046 1.876 1.705-3.021 4.733-10.978 6.81l-9.126 2.39c-21.899 7.169-57.267 14.493-71.24 9.833-3.118-1.080-1.115-3.655-0.863-5.702-1.438-2.578 6.585-6.713 17.69-9.182 11.164-2.406 21.215-2.39 22.605 0.015l5.629-1.76-4.713-0.006c3.717 1.76 13.965 0.015 21.899-0.011l11.524-1.739-5.044 7.869-6.103 0.015c0.015-0.015 1.188-0.95 1.115-0.95-11.665 0.571-22.665 1.013-35.257 2.419l-16.023 0.76c-4.498-0.015-4.423-2.315-0.005-4.398l6.629-2.802-2.927 1.455 47.555-13.837c2.419-0.81 5.492-1.226 6.93-0.863 1.226 0.015 0.015 1.393-2.173 2.199zM21.287 757.956c-2.467 1.013-4.837 2.039-8.547 2.647l-1.652-0.015 4.837-2.13c3.488-1.502 5.453-1.266 5.443-0.015zM11.114 760.423l-1.999 0.863 1.307-0.891 0.015-0.003zM694.741 555.303c45.143-24.675 89.599-51.192 132.708-79.866 1.438-0.95 2.82-1.502 3.118-1.226 0.015 0.015-0.648 1.266-1.999 2.173-43.034 28.717-87.31 55.258-132.491 79.921-1.502 0.81-2.927 1.188-3.323 0.95-0.015-0.015 0.628-1.188 2.063-1.975zM984.887 306.117c-1.115 0.589-1.349 0.015-0.628-0.81 0.608-0.92 1.999-2.243 3.081-2.802 0.891-0.536 1.226-0.009 0.608 0.81-0.691 1.080-2.13 2.315-3.021 2.802zM955.405 289.639c-5.375 4.285-10.815 7.982-15.942 10.978-0.95 0.571-1.817 1.393-2.406 2.13-0.014-0.76-1.502-0.015-3.601 1.046-40.236 27.761-82.793 57.907-126.921 84.222-0.589-0.015-1.455-0.015-2.661-0.004-3.837 0.669-10.27 3.874-16.218 8.123l-4.442 3.379c-18.194 13.176-37 25.491-55.782 37.663-4.367 1.632-9.222 3.874-14.234 6.645l-54.159 23.059c0.92-0.981 1.349-1.817 1.046-2.343-1.013-1.080-5.548 0.008-10.274 2.578l-7.169 3.636 20.065-11.543 2.578-1.632 22.665-12.12c67.062-35.266 129.464-69.98 189.285-108.922 1.080-0.536 2.484-1.685 3.081-2.578 0.015-0.691-0.005-0.981-1.188-0.015-39.613 22.012-76.381 36.677-120.896 59.497-53.332 26.853-106.936 50.827-163.384 73.553-57.682 26.951-113.73 46.236-176.152 65.494-84.364 25.986-165.128 48.35-250.151 68.858-31.975 6.683-60.074 19.141-62.38 28.231-1.307 5.524 7.064 8.565 21.005 8.779l-7.834 1.876-12.273 3.837c-11.66 3.655-21.215 7.966-27.027 12.060l-8.021 5.32c-10.27 9.126-28.162 18.555-36.394 27.421l2.661 2.105-2.13 1.226c-7.122 3.488-11.698 7.016-12.925 9.98l1.393 3.005c2.27 3.219 6.797 5.852 13.5 7.733 0.006 1.393 1.080 2.497 2.892 3.412-4.54 4.285-6.3 8.139-1.393 10.978-2.927 1.55-2.13 2.836 1.76 2.892 1.349-0.001 2.911-0.015 4.508-0.015l-0.003 0.003-4.128 2.892-4.837 1.484-15.167 4.231c-5.987 2.343-9.42 4.653-9.42 4.653-5.702 7.016-5.702 7.016-4.221 9.182l1.455 0.015-7.122 2.578c-1.455 0.736-2.419 1.455-2.419 1.455 0.001 1.349 0.001 1.349-0.836 1.999-0.015 0.571-0.005 1.013-0.005 1.013 3.379 0.81 3.379 0.81 3.522 1.226l1.853 0.015 5.727-0.015 7.064-4.886 1.876 0.836 1.484-1.913-0.736 1.632 3.727-1.632-4.221 2.13c9.073-2.343 9.073-2.343 12.764-3.081 3.773-0.92 7.122-1.266 7.544-1.307-0.015 0.536-0.015 0.836-0.015 0.836l19.154-5.184 2.063-1.393c1.013 0.015 2.892-3.847 4.733-4.357l4.958-5.184h-9.833v7.834l15.336-7.834h0.95l18.94 2.661 8.223-0.589-2.315 2.105c-1.455 0.81 0.015 2.199-0.571 2.497-20.41 7.257-43.034 13.332-65.377 19.38-4.089 0.669-7.733 2.315-8.123 3.412-0.015 1.115 2.747 1.532 6.93 0.836 47.159-2.578 103.398-15.776 149.052-32.338l36.717-10.808-1.6 1.046 10.494-3.727-6.713 4.099-4.886 1.913c-28.617 8.123-54.003 17.886-81.502 26.494-14.744 4.686-27.208 9.668-41.159 14.322-3.636 0.92-5.998 2.27-5.375 3.102 0.608 0.81 4.151 0.669 7.77-0.015 47.908-8.617 101.971-22.929 137.871-40.339 8.617-2.315 16.81-5.044 23.334-8.239l0.015-0.013-4.803 3.219c6.379-2.13 9.366-4.566 15.077-6.843l-1.502 3.118c31.327-10.143 65.893-19.097 94.11-31.677l3.305-1.226c13.176-1.999 26.358-4.498 41.369-8.934l-14.784 5.548c11.296-2.27 22.172-5.044 33.657-9.062 31.267-10.47 64.718-27.116 78.571-39.636 60.074-21.534 119.221-46.563 177.474-73.553 3.021-1.349 5.453-3.18 5.669-4.151-0.005-0.863-2.343-0.536-5.351 0.836-42.326 18.24-85.27 35.854-128.718 52.223 35.465-15.776 70.506-32.958 106.221-50.561l13.874-6.422c4.643-2.105 9.045-4.508 13.282-7.122 45.375-23.157 87.217-47.334 132.222-73.825 38.507-22.605 71.441-43.732 108.133-69.225 51.52-35.844 96.927-71.853 140.388-116.814 5.912-5.811 10.166-12.424 9.402-14.493-0.76-2.063-6.236 0.981-12.145 6.81-94.334 89.241-199.743 160.148-314.841 226.962l-37.127 20.906c0.003-0.015 0.006-0.648-0.008-0.891-0.536-0.95-2.13-1.151-4.508-0.891 13.837-7.885 27.82-15.784 41.524-24.413 40.031-20.209 79.559-42.248 118.126-70.976 26.307-19.91 48.803-39.722 70.888-60.737 30.687-23.334 60.431-47.896 89.028-74.567 1.188-0.981 2.243-2.27 2.343-2.927 0.013-0.648-0.76-0.015-1.975 0.648-20.734 17.186-42.248 34.321-64.222 51.069 2.467-3.837 3.323-6.713 1.876-7.787-1.455-1.188-5.108-0.015-9.705 2.315l13.965-12.365c2.836-2.578 4.653-5.118 3.971-5.702-0.736-0.669-3.498 0.81-6.221 3.202-18.85 16.859-38.134 33.128-57.907 48.981-24.45 17.912-49.239 35.118-74.721 51.482 2.747-3.412 4.498-6.382 4.733-8.565l-0.001-0.003 11.66-7.787c72.478-45.1 141.59-100.631 201.321-166.115 1.226-1.226 1.937-2.497 1.652-2.82-0.015-0.015-1.455 0.015-2.497 1.55-18.101 19.62-36.846 38.57-56.378 56.54l0.008-0.010c0.608-0.891 0.015-1.393-0.628-0.81-0.95 0.015-2.467 1.913-3.081 2.802-0.691 1.046-0.015 1.307 0.589 0.81-36.491 33.283-75.469 63.397-115.692 90.030 36.207-26.358 71.038-54.823 103.419-85.688l11.889-8.841c1.046-0.836 2.199-2.243 2.343-2.892 0.003-0.015-0.981-0.014-2.063 0.736l-3.305 2.497c6.183-5.852 9.638-11.665 7.982-13.176-1.817-1.226-8.28 2.547-14.675 8.492-17.352 15.776-35.019 30.892-52.914 45.967l-6.103 4.508-6.503 3.999c27.685-23.396 53.743-48.43 78.71-74.175 2.199-2.13 3.636-4.423 3.118-5.044-0.536-0.589-2.732 0.648-4.958 2.82-47.159 41.89-97.856 80.658-150.393 116.814-19.086 9.341-38.194 18.372-57.946 27.065l6.713-4.54c57.543-37.476 109.628-65.964 161.451-108.959 1.349-1.013 2.13-2.243 1.999-2.714-0.013-0.015-1.226 0.008-2.497 1.226-25.491 20.606-50.241 37.476-77.423 55.136-22.338 14.857-44.085 28.231-66.014 39.959 42.369-27.719 83.631-53.995 122.973-85.587 1.76-1.266 3.323-2.892 4.128-4.128 0.015 0.009 0.691-0.005 1.307-0.015 5.375-3.389 11.296-7.154 16.81-11.524 1.151-0.785 2.243-2.039 2.484-2.892 0.015-0.691-0.571-0.015-1.817 0.015zM169.809 710.783l-1.188 0.736 4.261-1.817 5.453-4.54-8.565 5.622zM89.558 717.143l0.005-0.001-3.202 2.547 3.118-2.497zM586.395 594.016c-25.528 11.109-50.827 22.004-75.727 33.754l18.94-6.843c19.097-8.348 38.006-17.535 56.778-26.893zM120.204 734.557c6.713-3.18 11.751-6.422 16.456-9.656 4.713-0.669 9.54-1.6 14.493-2.836 13.106-3.379 25.817-6.683 38.215-10.349-1.349 1.484 1.6 0.608 3.18 0.015l4.803-0.92-40.076 12.273c-12.145 3.773-25.666 7.242-37.127 11.109zM25.026 750.324l-1.115 0.628 2.836 1.115-1.76-1.76zM20.477 748.401l1.876-0.608c-0.836-0.536-1.438-0.012-1.876 0.608zM37.794 742.778c-0.95 0.628-1.532 1.080-2.315 1.393l2.315-1.393zM40.443 692.117l8.565 6.713-9.126-6.3 0.553-0.015z" />
<glyph unicode="&#xe60c;" glyph-name="erase" data-tags="erase" horiz-adv-x="1000" d="M174.545 231.254c-28.545-26.951-60.074-50.677-87.086-74.099l32.49 27.997c-16.278-13.96-31.479-23.819-51.005-34.458 1.989 8.019 15.449 13.837 13.965 21.178 40.836 32.923 87.337 58.751 132.302 83.551-6.818-24.367-29.635-15.037-40.676-24.159zM19.188 119.795l11.751 10.050c-3.742-3.964-7.532-7.74-11.751-10.050zM420.153 484.842c4.527 4.117 9.196 8.115 14.006 11.49-4.101-4.533-9.113-7.929-14.006-11.49zM207.092 302.1c1.795 2.855 3.791 5.497 5.917 8.038 20.355 13.144 41.309 26.018 62.845 38.723-22.988-14.435-42.355-36.846-68.771-46.785zM177.694 297.591c-19.31-15.449-40.78-28.657-63.489-37.754 21.773 10.274 42.747 23.517 63.489 37.754zM536.663 651.122c-0.748 1.060-0.845 2.167-0.659 3.235 0.465 0.713 0.785 1.502 0.877 2.436l29.081 10.905c-1.847-1.867-2.621-5.172-4.796-6.585-10.683-3.988-15.822-0.002-24.495-10.018zM414.791 480.722l-0.161-0.929-4.566-4.233-0.845-0.008c1.733 1.921 3.611 3.629 5.553 5.22zM525.165 645.044c-1.433 1.975-2.892 3.974-4.653 5.184l16.218 6.486c-0.303-0.797-0.608-1.581-0.76-2.39-2.399-3.43-8.821-4.391-10.829-9.304zM403.533 592.12c-3.005-2.146-3.038-8.123-3.822-10.135-9.759-2.467-19.584-4.899-30.157-9.42-0.744-2.035-3.746-4.172-5.249-8.249-2.836 0.527-5.635 0.721-8.426 0.669 21.038 13.239 42.851 26.186 65.858 38.747-5.713-4.117-11.666-8.063-18.207-11.62zM956.775 815.188c-28.006-16.819-67.681-20.971-90.4-46.867 36.957 8.934 84.643 27.667 98.592 10.225 13.96-17.362-44.922-22.738-70.415-36.477l8.838-0.81c-4.412 0.429-8.838 0.81-10.787-2.976 8.838-0.81 23.989 1.752 30.859-2.941l-3.895-7.506c24.414-6.349 58.567 5.727 82.731-1.115-107.133 8.979-216.039-69.857-312.773-129.768-52.066-37.751-93.086-84.582-128.181-131.959-7.299-7.874-29.149-19.877-45.1-28.117-24.596-20.146-48.971-40.529-69.975-65.021-49.371-45.15-108.706-72.414-164.251-116.906-10.978-8.847-39.308-3.675-14.857 22.314 19.063 23.092 41.206 42.764 65.209 59.948 1.080-7.441-12.657-12.365-15.034-20.287 19.994 9.402 35.538 18.413 52.499 31.235l-33.759-25.87c28.012 21.773 60.683 43.343 90.587 68.347 11.437 8.488 33.599-2.467 41.809 21.361-46.081-21.662-93.851-44.422-136.128-74.79l-0.008 0.536-53.779-39.339c5.085 4.853 10.038 10.1 15.705 12.764-29.908-14.391-56.627-32.606-83.068-51.242 58.998 73.54 150.955 120.267 223.090 178.244-27.906-5.118-47.483-37.754-73.906-39.339 34.846 24.279 71.242 46.603 109.37 67.819-2.286-2.399-4.434-4.886-6.42-7.628 26.854 8.14 47.557 29.054 71.32 41.836v0c-22.196-11.135-43.857-22.452-64.931-34.194 7.795 8.233 17.673 14.568 30.207 20.978-8.823-0.228-19.156-4.371-29.419-8.661l-36.713-22.433c18.035 12.657 34.46 27.212 48.42 42.457-27.689-12.278-53.671-28.996-80.146-43.599l39.987 29.542 73.785 40.522-2.511-2.099 5.313 3.629 28.936 16.54c8.303 5.593 15.291 13.039 21.893 21.035l4.172 2.674c-1.6-3.43-1.795-6.027 3.961-3.85 25.248 7.874 43.958 31.294 73.867 38.623 7.815 1.909 16.342 8.038 25.285 15.148 3.43 0.014 4.367 1.769 4.83 3.863l5.844 4.585c5.141 3.134 10.359 6.117 14.739 10.359-4.998-3.036-9.912-6.642-14.739-10.359l-5.655-3.629c0.45 2.324 0.81 4.986 3.655 6.713-36.846-18.906-75.246-38.33-111.787-61.459l4.285 7.99-8.488-10.635c-11.762-7.527-23.252-15.485-34.439-23.895 2.892 3.237 5.276 6.728 6.818 10.696-34.46-19.877-67.401-42.723-99.79-66.425-33.060-18.086-65.824-36.113-97.601-55.512 20.026 6.221 38.941 15.617 57.62 25.976-45.43-33.87-90.86-67.554-140.311-95.596 3.746 12.152 11.979 24.776 11.381 36.597-3.18 3.729-19.001-5.634-12.036 2.927 23.654 33.777 53.544 39.782 51.069 71.305-1.705 7.874-52.771 4.021-44.233 16.641 8.364 8.873 24.57 23.059 42.655 37.507 5.897 3.174 11.861 6.728 17.838 10.621 1.027 0.008 1.403 2.187 1.999 4.679 20.062 15.037 39.947 28.323 51.872 34.146l13.244 6.486c2.947 0.161 5.822-0.276 8.574-1.479 1.532 3.237 3.339 6.090 5.375 8.571l34.286 18.067c7.265 1.789 14.667 3.284 21.647 5.309-1.043 1.393-3.235 2.747-2.986 4.886l41.482 23.514c6.642 1.433 13.359 1.733 20.195 0.503 6.818 21.954 45.804 34.071 68.562 49.658l-0.285 0.465 36.889 20.041c2.762-0.166 5.524-0.553 8.306-1.307 1.809 3.916 4.962 5.837 5.844 7.787 10.829 3.675 20.715 5.453 30.687 7.086 0.891 1.946 1.388 7.869 4.566 9.754 6.728 3.072 12.942 6.604 18.914 10.247l22.857 9.967c26.082 10.903 52.424 20.241 78.82 28.667 1.652-1.349 2.941-3.412 4.234-5.497 2.383 4.733 8.821 5.172 11.437 8.39-0.267-1.055-0.235-2.13 0.429-3.273 9.402 9.226 14.153 4.926 25.097 8.063 2.21 1.203 3.276 4.454 5.196 6.191l3.636 0.995c16.206-4.315 25.964 4.527 38.86 10.289l41.863 10.274c10.978 2.803 17.805-1.876 26.701-2.811zM569.487 669.029l38.135 13.332c-12.449-6.843-21.58-16.328-38.135-13.332zM255.946 487.23c-6.93 0.744-13.601-0.009-20.14-1.989l84.721 56.993 0.333-0.443c-21.639-17.22-59.636-32.22-64.933-54.564zM535.996 654.362c0.161 0.797 0.436 1.581 0.76 2.39l0.014 0.006c-0.011-0.934-0.429-1.735-0.877-2.436zM258.1 373.862l-2.706-1.752c5.917 5.661 11.979 11.178 18.158 16.583-4.14-5.364-9.642-10.152-15.46-14.834zM184.186 326.559l-38.149-32.22c-18.101-11.524-36.428-22.155-56.107-29.542 30.691 21.305 62.332 41.512 94.261 61.785zM199.365 454.227c-6.841-2.484-14.15-4.479-21.257-6.817l17.922 11.49c-0.009-2.167 2.187-3.346 3.323-4.679zM310.41 417.993l-3.992-2.976 7.768 11.242zM131.623 419.099l13.509 7.99c-1.907-2.624-3.5-5.562-4.826-8.926-2.855 1.013-5.742 1.266-8.673 0.934zM67.554 369.577c-5.8-4.203-11.394-8.248-17.103-11.706l18.828 16.501c-0.45-2.515-0.713-4.673-1.733-4.803zM58.939 804.427l2.82-1.359c-1.989-0.008-4.826 0.503-8.026 1.372 30.072-12.248 71.859-17.572 99.757-17.787 9.524-2.399 18.413-2.714 19.915-0.511 1.438 2.173-5.123 5.927-14.717 8.426-2.063 0.768-4.512 1.509-5.959 2.27-12.956 6.818-29.313 13.152-47.557 19.058l10.477-4.454c-5.276 1.735-10.45 3.499-16.443 4.83l1.795-1.789c-17.886 7.154-43.572 11.257-57.276 9.214-13.785-1.999-10.477-9.196 7.352-16.069l7.874-3.174zM90.433 783.322l-31.181 11.706-1.937 1.266-0.005-3.849 0.235 0.195c10.578 0.981 27.238-1.043 42.487-3.491l5.492-0.628c2.706-0.009 4.554 0.251 5.276 0.92 1.652 1.502-2.706 4.172-9.669 6.004l-8.038 2.101c-19.328 6.314-50.465 12.764-62.744 8.659-2.762-0.959-0.959-3.235-0.76-5.010-1.236-2.286 5.742-5.897 15.617-8.046 9.831-2.119 18.685-2.074 19.873 0.235l4.958-1.576-4.14-0.006c3.235 1.558 12.3 0.166 19.254-0.011l10.15-1.543-4.454 6.911-5.375 0.333c0.333-0.303 1.043-0.85 0.964-0.85-10.274 0.503-19.962 0.905-31.042 2.146l-14.124 0.68c-3.961-0.323-3.895-2.035-0.005-3.849l5.822-2.463-2.592 1.287 41.863-12.182c2.13-0.725 4.83-1.080 6.108-0.748 1.089 0.323 0.267 1.223-1.913 1.937zM40.903 792.763c-2.173 0.877-4.254 1.795-7.527 2.324l-1.479-0.177 4.234-1.876c3.038-1.329 4.807-1.115 4.746-0.259zM31.905 794.907l-1.769 0.768 1.129-0.785 0.355-0.003zM633.988 614.286c39.759-21.722 78.913-45.087 116.883-70.335 1.266-0.85 2.484-1.329 2.747-1.060 0.228 0.214-0.562 1.148-1.769 1.921-37.994 25.363-76.954 48.633-116.765 70.406-1.345 0.721-2.578 1.055-2.927 0.836-0.214-0.267 0.562-1.046 1.826-1.752zM889.531 394.817c-0.959 0.511-1.185 0.201-0.553-0.721 0.536-0.81 1.752-1.971 2.714-2.467 0.793-0.436 1.089-0.009 0.536 0.721-0.608 0.929-1.876 2.035-2.706 2.467zM863.545 380.338c-4.733 3.773-9.526 7.038-14.014 9.669-0.823 0.511-1.6 1.262-2.119 1.876-0.014-0.669-1.329-0.285-3.136 0.934-35.438 24.488-72.924 51.001-111.725 74.177-0.511-0.201-1.282-0.235-2.343-0.004-3.346 0.589-8.954 3.412-14.278 7.154l-3.913 2.976c-16.047 11.577-32.569 22.45-49.129 33.171-3.84 1.438-8.103 3.402-12.544 5.844l-47.648 20.329c0.793-0.85 1.16-1.6 0.905-2.063-0.877-0.959-4.886 0.008-9.049 2.27l-6.367 3.197 17.673-10.234 2.309-1.438 19.951-10.673c59.072-31.060 114.020-61.634 166.711-95.913 0.934-0.472 2.181-1.484 2.715-2.27 0.285-0.608-0.005-0.863-1.055-0.276-34.902 19.388-67.172 32.303-106.451 52.41-46.971 23.652-94.183 44.741-143.928 64.78-50.766 23.737-100.139 40.722-155.166 57.663-74.304 22.887-145.446 42.637-220.318 60.646-28.207 5.897-52.909 16.849-54.973 24.823-1.148 4.853 6.198 7.541 18.533 7.733l-6.911 1.652-10.799 3.346c-10.167 3.235-18.69 7.003-23.802 10.621l-7.064 4.686c-9.045 8.035-24.749 16.34-31.996 24.148l2.383 1.867-1.861 1.080c-6.283 3.072-10.303 6.168-11.377 8.789l1.203 2.638c2.035 2.883 5.987 5.147 11.878 6.818 0.006 1.226 0.934 2.239 2.547 3.005-3.974 3.773-5.537 7.169-1.262 9.703-2.578 1.388-1.876 2.497 1.55 2.511 1.185-0.001 2.564-0.166 3.964-0.39l-0.003 0.003-3.625 2.547-4.234 1.317-13.374 3.727c-5.22 2.063-8.303 4.092-8.303 4.092-5.031 6.151-5.031 6.151-3.68 8.063l1.287 0.355-6.241 2.286c-1.287 0.659-2.13 1.282-2.13 1.282 0.001 1.188 0.001 1.188-0.725 1.769-0.183 0.495-0.005 0.905-0.005 0.905 2.947 0.725 2.947 0.725 3.097 1.080l1.632 0.285 5.048-0.39 6.199-4.315 1.66 0.725 1.307-1.681-0.638 1.433 3.284-1.438-3.68 1.876c8.019-2.099 7.998-2.099 11.255-2.706 3.346-0.81 6.283-1.115 6.636-1.16-0.195 0.457-0.166 0.725-0.166 0.725l16.869-4.566 1.809-1.236c0.877 0.177 2.542-3.389 4.18-3.822l4.387-4.554h-8.661v6.883l13.507-6.883h0.836l16.683 2.343 7.242-0.519-2.033 1.861c-1.287 0.713 0.195 1.937-0.511 2.199-17.973 6.398-37.924 11.741-57.556 17.070-3.601 0.58-6.818 2.009-7.154 3.005-0.267 0.995 2.431 1.349 6.108 0.725 41.534-2.27 91.067-13.884 131.276-28.481l32.359-9.524-1.433 0.92 8.287-2.976 0.905-0.267-5.917 3.612-4.315 1.681c-25.205 7.134-47.562 15.764-71.783 23.252-12.986 4.101-23.976 8.515-36.222 12.613-3.202 0.81-5.307 1.999-4.733 2.732 0.536 0.713 3.675 0.589 6.818-0.183 42.195-7.589 89.833-20.195 121.464-35.519 7.589-2.033 14.799-4.442 20.535-7.252l0.323-0.013-4.249 2.855c5.563-1.876 8.278-4.021 13.28-6.025l-1.317 2.762c27.66-8.909 58.075-16.819 82.85-27.903l2.902-1.089c11.559-1.789 23.214-3.961 36.428-7.847l-13.020 4.886c9.849-2.033 19.524-4.434 29.644-7.976 27.538-9.226 56.982-23.883 69.187-34.911 52.909-18.987 105.012-41.009 156.308-64.78 2.68-1.185 4.803-2.802 4.962-3.655-0.005-0.76-2.047-0.443-4.713 0.744-37.27 16.065-75.104 31.578-113.367 45.999 31.213-13.884 62.082-29.024 93.553-44.446l12.237-5.655c4.049-1.847 7.966-3.973 11.698-6.258 39.963-20.391 76.837-41.689 116.452-64.974 33.91-19.873 62.92-38.517 95.275-60.978 45.432-31.532 85.376-63.251 123.645-102.811 5.207-5.141 8.954-10.905 8.28-12.733-0.669-1.826-5.492 0.877-10.696 6.005-83.081 78.598-175.923 141.032-277.293 199.922l-32.702 18.413c0.003-0.276 0.006-0.562-0.008-0.785-0.45-0.85-1.876-1.043-3.988-0.793 12.182-6.983 24.544-13.902 36.568-21.501 35.241-17.819 70.071-37.21 104.039-62.523 23.17-17.554 42.976-34.963 62.409-53.509 27.044-20.516 53.249-42.159 78.43-65.638 1.060-0.863 1.971-1.999 2.074-2.592 0.013-0.58-0.659-0.294-1.739 0.562-18.261 15.137-37.199 30.227-56.563 44.983 2.173-3.346 2.943-5.912 1.681-6.865-1.287-1.022-4.479-0.177-8.547 2.033l12.299-10.848c2.511-2.27 4.101-4.501 3.498-5.010-0.638-0.589-3.082 0.713-5.48 2.82-16.641 14.845-33.587 29.204-51.001 43.052-21.541 15.764-43.343 30.949-65.81 45.356 2.436-2.986 3.961-5.622 4.169-7.544l-0.001-0.003 10.196-6.865c63.834-39.722 124.733-88.63 177.29-146.304 1.060-1.089 1.733-2.199 1.455-2.484-0.235-0.259-1.287 0.355-2.21 1.372-15.902 17.281-32.452 33.97-49.654 49.797l0.008-0.010c0.527-0.793 0.366-1.223-0.553-0.721-0.823 0.443-2.173 1.681-2.714 2.467-0.608 0.92-0.251 1.148 0.527 0.725-32.174 29.333-66.458 55.838-101.895 79.311 31.889-23.227 62.566-48.284 91.072-75.469l10.462-7.787c0.92-0.744 1.921-1.971 2.047-2.542 0.003-0.45-0.863-0.014-1.826 0.638l-2.902 2.199c5.446-5.141 8.488-10.274 7.037-11.605-1.628-1.089-7.29 2.237-12.918 7.48-15.283 13.884-30.859 27.252-46.642 40.388l-5.364 3.964-5.741 3.522c24.374-20.606 47.355-42.655 69.344-65.329 1.946-1.876 3.202-3.895 2.762-4.434-0.429-0.527-2.399 0.58-4.36 2.484-41.534 36.894-86.15 71.004-132.456 102.833-16.81 8.227-33.622 16.188-51.005 23.81l5.917-3.973c50.68-33.006 96.527-58.075 142.207-95.964 1.185-0.891 1.867-1.975 1.789-2.36-0.013-0.366-1.060 0.008-2.199 1.060-22.451 18.146-44.25 33.057-68.206 48.628-19.678 13.087-38.842 24.821-58.129 35.247 37.344-24.413 73.619-47.555 108.294-75.401 1.576-1.148 2.927-2.547 3.625-3.629 0.195 0.009 0.608-0.005 1.129-0.333 4.772-2.979 9.912-6.305 14.799-10.15 0.99-0.691 1.975-1.809 2.187-2.515 0.228-0.608-0.511-0.366-1.628 0.355zM171.642 751.234l-1.022 0.659 3.746-1.6 4.803-3.988-7.532 4.951zM100.948 756.792l0.005-0.001-2.82 2.215 2.793-2.199zM538.555 648.367c-22.483 9.784-44.743 19.38-66.697 29.732l16.68-6.027c16.843-7.367 33.472-15.444 50.007-23.695zM128.021 772.13c5.897-2.811 10.346-5.655 14.498-8.499 4.14-0.589 8.426-1.41 12.727-2.515 11.539-2.976 22.738-5.886 33.753-9.123-1.203 1.307 1.416 0.527 2.802 0.303l4.234-0.797-35.29 10.813c-10.729 3.346-22.525 6.379-32.702 9.804zM44.138 786.069l-0.959 0.553 2.515 0.995-1.577-1.558zM40.128 784.333l1.679-0.536c-0.721-0.403-1.236-0.012-1.679 0.536zM55.392 779.361c-0.836 0.562-1.359 0.929-2.047 1.236l2.047-1.236zM57.74 734.787l7.532 5.917-8.026-5.537 0.487-0.39z" />
<glyph unicode="&#xe60d;" glyph-name="dollar" data-tags="dollar" horiz-adv-x="1032" d="M461.958 78.652c-61.311 7.159-105.26 28.617-135.926 57.26-30.686 27.591-47.015 61.308-50.101 94.005-3.072 32.703 10.274 61.311 42.913 69.501 32.702 8.207 65.443-11.255 73.573-43.957 8.207-31.681-11.255-65.422-43.957-73.573-17.399-4.092-32.703-1.027-47.026 8.207 7.159-16.342 21.501-37.795 47.026-56.203 25.565-18.379 63.379-36.818 113.43-41.887v308.652c-49.033 20.44-94.011 45.999-126.726 79.718-32.703 33.754-53.158 75.642-53.158 128.757 0 61.311 19.388 109.366 52.098 144.11 31.681 34.743 75.625 57.235 127.757 66.426v53.157h15.328v-51.098c19.42 4.102 55.168 6.151 72.573 3.093v48.042h15.338v-49.063c60.284-7.159 105.228-31.681 134.937-60.301 28.613-29.627 43.924-63.397 44.927-91.993 1.013-33.73-10.274-62.335-41.887-70.489-32.706-8.207-65.443 11.255-73.573 43.953-9.201 32.704 11.255 65.442 42.875 73.573 17.399 4.102 32.721 2.053 47.055-7.159-19.42 43.96-73.609 86.886-154.332 98.107v-262.648c60.284-25.547 110.374-53.158 145.126-90.963 34.734-37.778 54.13-87.846 54.13-158.395 0-66.426-23.488-116.52-59.26-152.282-36.807-35.765-86.846-56.203-139.983-64.381v-50.074h-15.338v48.042c-13.28-2.033-26.561-3.038-37.778-3.038s-23.52 0-34.769 1.013v-45.999h-15.328v48.046zM461.958 793.022c-37.815-23.488-60.328-62.335-60.328-104.261 0-37.813 20.44-68.481 60.328-94.011v198.263zM549.842 811.424c-31.681 1.013-53.158-1.013-72.573-10.221v-215.653c19.42-11.255 43.957-21.463 72.573-32.701v258.551zM477.257 90.915c27.606-1.027 49.064-1.027 72.573 7.159v259.573c-19.42 11.255-43.957 23.495-72.573 36.818v-303.531zM565.165 104.182c43.957 20.445 74.596 63.397 74.596 115.495 0 53.158-24.503 91.993-74.596 127.757v-243.257z" />
<glyph unicode="&#xe60e;" glyph-name="customize" data-tags="customize" horiz-adv-x="1032" d="M707.362 403.767c-77.847-18.432-155.673-27.756-233.506-46.159 40.498 57.939 97.014 79.578 161.121 99.62 23.542 7.331 47.035 16.972 70.551 24.311 6.954 2.169 31.717 6.597 35.144 13.671 11.397 23.372 22.97 47.552 42.244 65.494 9.899 9.192 31.717 20.829 27.053 36.481-4.009 13.455-20.83 20.071-23.849 36.69-4.609 25.355 9.736 53.543 31.173 67.031 22.774 14.317 54.022 11.286 69.011-12.241 22.558-35.439-5.657-71.242-34.185-91.163-20.971-14.619-41.763-28.657-55.909-50.445-6.81-10.477-13.065-21.479-17.363-33.287-4.99-14.011-7.481-19.304 3.756-26.997 41.809-28.6 85.566 7.793 119.964 26.015 58.664 31.111 107.314-31.294 66.523-81.722-15.212-18.794-41.501-29.413-64.914-20.242-11.88 4.675-21.093 13.944-26.826 25.212-5.623 11.038-4.254 29.045-16.973 32.448-15.477 4.118-53.083-15.978-67.776-20.454-32.523-9.863-31.995-9.754-44.101-41.594-9.047-23.669-18.041-65.547-27.426-89.079-2.901-7.299-6.151-45.6-14.977-45.6-14.37 0-28.709 0-43.050 0 12.913 72.119 27.902 94.22 44.34 131.994zM805.213 631.679c21.006-46.302 83.293 0.676 71.738 38.919-16.137 53.366-92.389 4.357-71.738-38.919zM915.879 501.461c-46.587-20.966-27.858-95.631 22.766-74.247 48.131 20.372 29.204 99.471-22.766 74.247zM735.488 277.779l-76.922 12.518 3.876 23.921 76.922-12.518-3.876-23.921zM581.603 302.814l-76.922 12.518 3.876 23.921 76.922-12.518-3.876-23.921zM427.745 327.841l-76.922 12.511 3.876 23.921 76.922-12.511-3.876-23.921zM273.896 352.865l-76.939 12.518 3.876 23.921 76.939-12.518-3.876-23.921zM104.309 377.092l-76.939 12.518 3.876 23.921 76.939-12.518-3.876-23.921z" />
<glyph unicode="&#xe60f;" glyph-name="scissors" data-tags="scissors" horiz-adv-x="1064" d="M747.184 416.129c-71.436-16.916-142.859-25.47-214.29-42.362 37.162 53.17 89.031 73.031 147.86 91.423 21.602 6.731 43.165 15.578 64.748 22.308 6.383 1.987 29.106 6.058 32.254 12.547 10.461 21.45 21.083 43.637 38.77 60.099 9.089 8.441 29.106 19.114 24.83 33.478-3.681 12.349-19.115 18.421-21.887 33.671-4.231 23.268 8.932 49.138 28.606 61.516 20.902 13.138 49.577 10.355 63.328-11.235 20.698-32.525-5.186-65.377-31.372-83.66-19.247-13.415-38.324-26.295-51.307-46.298-6.252-9.615-11.99-19.712-15.934-30.547-4.577-12.854-6.865-17.716 3.451-24.775 38.367-26.243 78.526 7.153 110.093 23.873 53.835 28.55 98.484-28.723 61.046-74.995-13.959-17.25-38.086-26.993-59.569-18.575-10.901 4.289-19.357 12.798-24.62 23.14-5.159 10.128-3.906 26.654-15.579 29.78-14.205 3.778-48.715-14.665-62.196-18.77-29.844-9.052-29.359-8.954-40.47-38.174-8.304-21.723-16.561-60.153-25.17-81.749-2.66-6.695-5.649-41.847-13.744-41.847-13.188 0-26.348 0-39.505 0 11.846 66.179 25.606 86.467 40.693 121.133zM836.989 625.293c19.279-42.49 76.442 0.621 65.833 35.717-14.809 48.976-84.788 3.999-65.833-35.717zM938.541 505.791c-42.752-19.239-25.565-87.758 20.887-68.137 44.171 18.698 26.8 91.29-20.887 68.137z" />
<glyph unicode="&#xe610;" glyph-name="cutline" data-tags="cutline" horiz-adv-x="1016" d="M626.271 367.117l-64.651 10.517 3.261 20.103 64.651-10.517-3.261-20.103zM496.954 388.154l-64.651 10.517 3.261 20.103 64.651-10.517-3.261-20.103zM367.637 409.189l-64.651 10.508 3.261 20.103 64.651-10.508-3.261-20.103zM238.335 430.218l-64.663 10.517 3.261 20.103 64.663-10.517-3.261-20.103zM95.806 450.579l-64.663 10.517 3.261 20.103 64.663-10.517-3.261-20.103z" />
<glyph unicode="&#xe611;" glyph-name="close" data-tags="close, cancel, quit, remove, cross" d="M1014.662 137.34c-0.004 0.004-0.008 0.008-0.012 0.010l-310.644 310.65 310.644 310.65c0.004 0.004 0.008 0.006 0.012 0.010 3.344 3.346 5.762 7.254 7.312 11.416 4.246 11.376 1.824 24.682-7.324 33.83l-146.746 146.746c-9.148 9.146-22.45 11.566-33.828 7.32-4.16-1.55-8.070-3.968-11.418-7.31 0-0.004-0.004-0.006-0.008-0.010l-310.648-310.652-310.648 310.65c-0.004 0.004-0.006 0.006-0.010 0.010-3.346 3.342-7.254 5.76-11.414 7.31-11.38 4.248-24.682 1.826-33.83-7.32l-146.748-146.748c-9.148-9.148-11.568-22.452-7.322-33.828 1.552-4.16 3.97-8.072 7.312-11.416 0.004-0.002 0.006-0.006 0.010-0.010l310.65-310.648-310.65-310.652c-0.002-0.004-0.006-0.006-0.008-0.010-3.342-3.346-5.76-7.254-7.314-11.414-4.248-11.376-1.826-24.682 7.322-33.83l146.748-146.746c9.15-9.148 22.452-11.568 33.83-7.322 4.16 1.552 8.070 3.97 11.416 7.312 0.002 0.004 0.006 0.006 0.010 0.010l310.648 310.65 310.648-310.65c0.004-0.002 0.008-0.006 0.012-0.008 3.348-3.344 7.254-5.762 11.414-7.314 11.378-4.246 24.684-1.826 33.828 7.322l146.746 146.748c9.148 9.148 11.57 22.454 7.324 33.83-1.552 4.16-3.97 8.068-7.314 11.414z" />
<glyph unicode="&#xe612;" glyph-name="vimeo" data-tags="vimeo" d="M512 960c-282.77 0-512-229.23-512-512s229.23-512 512-512 512 229.23 512 512-229.23 512-512 512zM812.868 521.874c-33.958-191.296-223.708-353.296-280.78-390.31-57.088-37.006-109.154 14.822-128.038 53.994-21.616 44.708-86.41 286.94-103.368 307.020-16.964 20.038-67.876-20.080-67.876-20.080l-24.692 32.376c0 0 103.382 123.448 182.040 138.878 83.404 16.366 83.28-128.066 103.34-208.242 19.4-77.564 32.44-121.952 49.376-121.952 16.97 0 49.382 43.262 84.852 109.57 35.536 66.376-1.538 125.010-70.972 83.292 27.786 166.652 290.062 206.72 256.118 15.454z" />
<glyph unicode="&#xe613;" glyph-name="tumblr" data-tags="tumblr, social" d="M576.032 512l-0.002-234.184c0-59.418-0.77-93.656 5.53-110.5 6.25-16.754 21.918-34.146 38.99-44.202 22.684-13.588 48.542-20.376 77.708-20.376 51.854 0 82.478 6.848 133.742 40.54v-153.944c-43.7-20.552-81.866-32.594-117.324-40.922-35.5-8.242-73.86-12.406-115.064-12.406-46.828 0-74.456 5.886-110.41 17.656-35.958 11.868-66.66 28.806-92.020 50.54-25.45 21.922-43.022 45.208-52.848 69.832-9.826 24.636-14.716 60.414-14.716 107.244v359.1h-137.426v145.006c40.208 13.042 85.164 31.788 113.78 56.152 28.754 24.45 51.766 53.706 69.106 87.944 17.392 34.146 29.348 77.712 35.872 130.516h165.084l-0.002-255.996h255.968v-192h-255.968z" />
<glyph unicode="&#xe614;" glyph-name="expand" data-tags="expand, enlarge, maximize, fullscreen" d="M1024 960v-384l-138.26 138.26-212-212-107.48 107.48 212 212-138.26 138.26zM245.74 821.74l212-212-107.48-107.48-212 212-138.26-138.26v384h384zM885.74 181.74l138.26 138.26v-384h-384l138.26 138.26-212 212 107.48 107.48zM457.74 286.26l-212-212 138.26-138.26h-384v384l138.26-138.26 212 212z" />
<glyph unicode="&#xe615;" glyph-name="pinterest" data-tags="pinterest, social" d="M512 960c-282.77 0-512-229.23-512-512s229.226-512 512-512c282.77 0 512 229.23 512 512s-229.23 512-512 512zM561.644 275.882c-46.52 3.614-66.042 26.656-102.504 48.808-20.060-105.176-44.564-206.016-117.14-258.686-22.404 158.968 32.894 278.364 58.57 405.114-43.784 73.706 5.27 222.034 97.62 185.474 113.626-44.948-98.4-274.008 43.932-302.616 148.62-29.868 209.288 257.858 117.142 351.424-133.158 135.106-387.598 3.080-356.31-190.356 7.614-47.292 56.472-61.638 19.524-126.902-85.22 18.892-110.65 86.102-107.376 175.712 5.268 146.674 131.784 249.364 258.686 263.566 160.484 17.964 311.106-58.908 331.906-209.876 23.412-170.39-72.448-354.93-244.050-341.662z" />
<glyph unicode="&#xe616;" glyph-name="facebook" data-tags="facebook, social" d="M512 960c282.77 0 512-229.23 512-512 0-261.094-195.438-476.53-448-508.026v380.026h176l16 128h-192v64c0 35.346 28.654 64 64 64h128v128h-128c-106.040 0-192-85.96-192-192v-64h-96v-128h96v-380.026c-252.562 31.496-448 246.932-448 508.026 0 282.77 229.23 512 512 512z" />
<glyph unicode="&#xe617;" glyph-name="twitter" data-tags="twitter, social" d="M1028.267 750.933c-29.867-42.667-64-81.067-102.4-106.667 0-8.533 0-17.067 0-25.6 0-59.733-8.533-110.933-25.6-170.667s-42.667-106.667-76.8-162.133c-34.133-55.467-76.8-98.133-119.467-136.533-46.933-42.667-98.133-72.533-170.667-93.867-64-21.333-136.533-34.133-213.333-34.133-115.2 0-226.133 29.867-324.267 93.867 17.067 0 34.133-4.267 51.2-4.267 98.133 0 183.467 29.867 256 89.6-46.933 0-85.333 17.067-123.733 42.667s-59.733 59.733-76.8 102.4c17.067-4.267 25.6-4.267 42.667-4.267 21.333 0 38.4 4.267 59.733 8.533-51.2 12.8-89.6 34.133-119.467 72.533s-51.2 81.067-51.2 136.533v-4.267c29.867-17.067 59.733-25.6 93.867-25.6-21.333 17.067-42.667 42.667-64 72.533-12.8 29.867-21.333 68.267-21.333 102.4s12.8 76.8 29.867 102.4c55.467-64 115.2-115.2 192-153.6s153.6-59.733 243.2-64c-4.267 17.067-4.267 34.133-4.267 51.2 0 59.733 21.333 106.667 59.733 149.333s89.6 59.733 149.333 59.733c59.733 0 110.933-21.333 153.6-68.267 55.467 8.533 93.867 25.6 136.533 51.2-17.067-51.2-46.933-89.6-93.867-115.2 38.4 0 81.067 12.8 119.467 34.133z" />
<glyph unicode="&#xe618;" glyph-name="mail" data-tags="mail, contact, support, newsletter, letter, email, envelope, social" d="M512 960c-282.77 0-512-229.23-512-512s229.23-512 512-512 512 229.23 512 512-229.23 512-512 512zM256 704h512c9.138 0 18.004-1.962 26.144-5.662l-282.144-329.168-282.144 329.17c8.14 3.696 17.006 5.66 26.144 5.66zM192 256v384c0 1.34 0.056 2.672 0.14 4l187.664-218.942-185.598-185.598c-1.444 5.336-2.206 10.886-2.206 16.54zM768 192h-512c-5.654 0-11.202 0.762-16.54 2.208l182.118 182.118 90.422-105.498 90.424 105.494 182.116-182.12c-5.34-1.44-10.886-2.202-16.54-2.202zM832 256c0-5.654-0.762-11.2-2.206-16.54l-185.6 185.598 187.666 218.942c0.084-1.328 0.14-2.66 0.14-4v-384z" />
<glyph unicode="&#xe619;" glyph-name="google-plus" data-tags="google plus, social" d="M437.006 141.838c0-75.068-46.39-134.392-177.758-139.176-76.984 43.786-141.49 106.952-186.908 182.866 23.69 58.496 97.692 103.046 182.316 102.114 24.022-0.252 46.41-4.114 66.744-10.7 55.908-38.866 101-63.152 112.324-107.448 2.114-8.964 3.282-18.206 3.282-27.656zM512 960c-147.94 0-281.196-62.77-374.666-163.098 36.934 20.452 80.538 32.638 126.902 32.638 67.068 0 256.438 0 256.438 0l-57.304-60.14h-67.31c47.496-27.212 72.752-83.248 72.752-145.012 0-56.692-31.416-102.38-75.78-137.058-43.28-33.802-51.492-47.966-51.492-76.734 0-24.542 51.722-61.098 75.5-78.936 82.818-62.112 99.578-101.184 99.578-178.87 0-78.726-68.936-157.104-185.866-183.742 56.348-21.338 117.426-33.048 181.248-33.048 282.77 0 512 229.23 512 512s-229.23 512-512 512zM768 576v-128h-64v128h-128v64h128v128h64v-128h128v-64h-128zM365.768 620.528c11.922-90.776-27.846-149.19-96.934-147.134-69.126 2.082-134.806 65.492-146.74 156.242-11.928 90.788 34.418 160.254 103.53 158.196 69.090-2.074 128.22-76.542 140.144-167.304zM220.886 317.932c-74.68 0-138.128-25.768-182.842-63.864-24.502 59.82-38.044 125.29-38.044 193.932 0 56.766 9.256 111.368 26.312 162.396 7.374-99.442 77.352-176.192 192.97-176.192 8.514 0 16.764 0.442 24.874 1.022-7.95-15.23-13.622-32.19-13.622-49.982 0-29.97 16.488-47.070 36.868-66.894-15.402 0-30.27-0.418-46.516-0.418z" />
<glyph unicode="&#xe61a;" glyph-name="checkmark" data-tags="checkmark, tick, correct, accept, ok" d="M864 832l-480-480-224 224-160-160 384-384 640 640z" />
<glyph unicode="&#xe61b;" glyph-name="instagram" data-tags="instagram, social" horiz-adv-x="878" d="M778.286 136v370.286h-77.143q11.429-36 11.429-74.857 0-72-36.571-132.857t-99.429-96.286-137.143-35.429q-112.571 0-192.571 77.429t-80 187.143q0 38.857 11.429 74.857h-80.571v-370.286q0-14.857 10-24.857t24.857-10h610.857q14.286 0 24.571 10t10.286 24.857zM616 440.571q0 70.857-51.714 120.857t-124.857 50q-72.571 0-124.286-50t-51.714-120.857 51.714-120.857 124.286-50q73.143 0 124.857 50t51.714 120.857zM778.286 646.286v94.286q0 16-11.429 27.714t-28 11.714h-99.429q-16.571 0-28-11.714t-11.429-27.714v-94.286q0-16.571 11.429-28t28-11.429h99.429q16.571 0 28 11.429t11.429 28zM877.714 765.143v-652.571q0-46.286-33.143-79.429t-79.429-33.143h-652.571q-46.286 0-79.429 33.143t-33.143 79.429v652.571q0 46.286 33.143 79.429t79.429 33.143h652.571q46.286 0 79.429-33.143t33.143-79.429z" />
<glyph unicode="&#xe61c;" glyph-name="stylists" data-tags="stylists" horiz-adv-x="916" d="M882.785 671.107l-202.831 202.748c-4.414 4.402-10.415 6.881-16.67 6.881v0c-6.233 0-12.234-2.479-16.65-6.881l-558.022-557.531c-3.311-3.283-5.541-7.466-6.439-12.003l-50.771-253.429c-1.564-7.718 0.875-15.691 6.441-21.25 4.459-4.458 10.462-6.895 16.645-6.895 1.517 0 3.083 0.151 4.622 0.46l253.625 50.772c4.574 0.895 8.739 3.126 12.026 6.411l558.021 557.452c9.212 9.189 9.212 24.078 0 33.266zM308.118 130.301l-169.559 169.391 449.12 448.723 167.466-171.552-447.026-446.563zM119.703 251.987l140.681-140.512-175.884-35.197 35.204 175.709zM788.441 610.133l-167.441 171.552 42.288 42.251 169.558-169.451-44.404-44.351z" />
<glyph unicode="&#xe61d;" glyph-name="customize2" data-tags="customize" horiz-adv-x="916" d="M893.677 551.46c-6.996 21.587-26.79 36.042-49.158 36.042h-252.018l-79.081 254.364c-6.4 20.668-26.238 34.546-49.345 34.546-23.153 0-42.992-13.878-49.345-34.546l-79.079-254.364h-251.969c-22.326 0-42.073-14.432-49.298-36.133-6.813-21.406 0.412-44.741 17.996-58.090l205.25-157.884-78.205-255.586c-6.491-21.565 1.287-44.9 19.332-57.973 8.837-6.491 19.332-9.898 30.242-9.898 11.276 0 22.002 3.636 30.977 10.496l204.145 155.167 204.146-155.212c9.024-6.834 19.747-10.449 31.023-10.449 10.866 0 21.313 3.407 30.289 9.942 18.091 13.306 25.731 36.687 19.101 58.046l-78.021 255.513 205.11 157.792c17.676 13.533 24.902 36.917 17.906 58.23zM847.093 530.654l-218.137-167.803c-7.779-6.006-11.049-16.179-8.147-25.57l82.854-271.21c0.689-2.301-0.139-4.832-1.889-6.146-1.61-1.173-3.545-1.079-5.018 0.022l-218.415 166.031c-8.423 6.4-20.068 6.4-28.491 0l-218.461-166.077c-1.426-1.106-3.266-1.15-4.879 0.022-1.889 1.358-2.67 3.981-1.98 6.236l82.945 271.028c2.853 9.391-0.412 19.609-8.193 25.594l-218.322 167.963c-1.7 1.312-2.438 3.911-1.747 5.985 0.69 2.164 2.531 3.637 4.465 3.637h269.323c10.31 0 19.424 6.721 22.508 16.57l84.279 271.12c0.183 0.275 1.705 1.217 4.283 1.217s4.096-0.942 4.329-1.404l84.234-270.934c3.038-9.849 12.199-16.57 22.511-16.57h269.37c1.885 0 3.681-1.426 4.372-3.521 0.741-2.231 0.002-4.81-1.794-6.191z" />
<glyph unicode="&#xe61e;" glyph-name="shipping" data-tags="shipping" horiz-adv-x="916" d="M811.604 140.612l-170.794 170.794c-0.052 1.489-0.102 2.98-0.193 4.473-3.915 62.98-42.467 117.238-103.135 145.158-10.242 4.695-22.418 9.568-36.53 15.211-3.103 1.241-6.201 2.487-9.289 3.74l316.149 316.15c6.756 6.756 6.756 17.711 0 24.467s-17.711 6.756-24.467 0l-325.865-325.867-133.782 133.782c0.237 11.873 2.762 24.565 7.941 38.199 11.445 30.116 30.721 50.82 58.905 63.289 20.997 9.269 44.835 13.069 68.929 13.529 0.131 0 0.303-0.021 0.431-0.021 0.385 0 0.731 0.042 1.119 0.066 74.35 0.973 150.637-29.558 151.627-29.962 11.315-4.608 24.138 0.937 28.654 12.404 4.563 11.463-0.944 24.48-12.218 29.086-4.175 1.705-71.9 28.893-147.152 32.693v122.777c0 12.359-9.853 22.362-22.030 22.362-12.134 0-22.030-10.002-22.030-22.362v-123.539c-22.331-2.097-44.405-6.988-64.798-15.975-39.070-17.242-66.821-46.931-82.525-88.238-2.035-5.348-3.762-10.654-5.235-15.923l-157.493 157.493c-6.742 6.742-17.677 6.742-24.422 0-6.742-6.743-6.742-17.679 0-24.423l176.116-176.113c0.722-41.124 20.214-78.719 57.935-110.759 25.218-21.422 55.986-38.483 85.932-52.46l-325.107-325.107c-6.756-6.756-6.756-17.711 0-24.467s17.71-6.756 24.467 0l334.662 334.665c0.139-0.057 0.278-0.116 0.417-0.175l139.031-139.031c0.398-45.758-24.634-87.596-69.483-115.581-108.989-67.938-245.814 23.499-247.149 24.415-10.111 6.9-23.794 4.192-30.594-6.047-6.796-10.242-4.13-24.131 5.939-31.043 4.69-3.199 85.578-57.532 180.066-57.532 0.732 0 1.507 0.042 2.239 0.042v-125.633c0-12.34 9.897-22.363 22.030-22.363 12.176 0 22.030 10.023 22.030 22.363v130.266c22.934 4.758 45.997 13.41 68.498 27.428 44.851 27.966 74.951 68.738 85.895 114.217l150.857-150.857c6.742-6.742 17.677-6.742 24.422 0 6.74 6.738 6.74 17.674-0.002 24.416zM564.494 387.724l-8.112 8.112c2.839-2.601 5.541-5.311 8.112-8.112z" />
<glyph unicode="&#xe61f;" glyph-name="returns" data-tags="returns" horiz-adv-x="916" d="M885.859 437.579c-154.767 147.313-263.322 199.99-429.762 208.701-0.526 0.029-1.051 0.029-1.553 0.029-88.634-1.999-170.454-28.598-238.036-77.174l-49.357 68.596c-4.598 6.4-12.503 9.618-20.323 8.278-7.803-1.339-14.156-6.998-16.332-14.558l-103.195-358.428c-1.773-6.181-0.525-12.837 3.369-17.956 3.911-5.132 10.022-8.141 16.492-8.141h361.271c7.722 0 14.829 4.279 18.349 11.099 3.548 6.82 2.942 15.040-1.553 21.278l-44.478 61.779c87.989 83.307 197.63 101.257 275.7 101.257 68.029 0 140.169-13.65 208.622-39.481 2.641-0.999 5.382-1.419 8.095-1.329 11.078 0.372 19.932 9.39 19.932 20.469-0.001 6.243-2.804 11.831-7.241 15.582zM656.453 483.295c-128.698 0-238.522-43.53-317.618-125.895-6.815-7.107-7.602-18.037-1.836-26.028l31.312-43.489h-293.788l83.917 291.459 36.878-51.248c3.329-4.598 8.407-7.642 14.053-8.4s11.351 0.839 15.766 4.402c63.349 51.039 142.729 79.118 229.569 81.236 131.823-7.001 222.209-42.237 335.947-137.455-45.044 10.157-90.39 15.417-134.201 15.417z" />
<glyph unicode="&#xe620;" glyph-name="dress" data-tags="dress" horiz-adv-x="948" d="M836.281-8.82l-193.106 515.663-262.157 0.152-193.299-516.376 111.871-13.413-16.187-41.205 459.684 0.451-18.677 41.303zM599.854 960l-87.986-156.609v-0.427l-87.716 156.486-166.329-49.244 56.682-165.568 42.508-26.847 30.499-157.141 248.927-0.112 30.547 157.832 42.506 26.839 56.674 165.576-166.31 49.215z" />
<glyph unicode="&#xe621;" glyph-name="ondemand" data-tags="ondemand" horiz-adv-x="980" d="M268.188 346.402c-0.562-0.576-1.093-1.163-1.585-1.779-0.129-0.171-0.243-0.363-0.383-0.532-0.362-0.492-0.724-0.98-1.042-1.494-0.13-0.19-0.237-0.403-0.363-0.605-0.287-0.522-0.575-1.042-0.832-1.585-0.107-0.192-0.192-0.404-0.277-0.609-0.255-0.585-0.492-1.181-0.684-1.776-0.042-0.13-0.107-0.244-0.149-0.374l-47.035-147.716c-2.47-7.773-0.394-16.276 5.369-22.047 4.155-4.155 9.713-6.368 15.424-6.368 2.214 0 4.454 0.318 6.625 1.023l147.708 47.054c0.127 0.041 0.255 0.107 0.382 0.149 0.598 0.203 1.194 0.427 1.769 0.681 0.192 0.096 0.405 0.192 0.619 0.298 0.532 0.257 1.063 0.532 1.578 0.832 0.211 0.117 0.403 0.237 0.596 0.362 0.512 0.322 1.023 0.661 1.514 1.036 0.17 0.129 0.34 0.243 0.511 0.395 0.617 0.49 1.234 1.022 1.809 1.598l0.020 0.021 516.93 516.854c8.522 8.521 8.522 22.323 0.020 30.844l-100.652 100.725c-4.091 4.091-9.647 6.393-15.422 6.393-5.792 0-11.33-2.301-15.443-6.393l-516.973-516.932c0-0.020-0.021-0.042-0.033-0.052zM800.618 817.117l69.806-69.869-40.941-40.941-68.21 71.466 39.345 39.343zM730.427 746.907l68.187-71.469-414.276-414.211-69.818 69.806 415.907 415.875zM293.569 290.271l50.028-49.986-73.375-23.379 23.346 73.365zM901.268 608.019c-12.036 0-21.812-9.764-21.812-21.812v-425.354c0-60.133-48.91-109.066-109.066-109.066h-556.234c-60.133 0-109.066 48.931-109.066 109.066v556.234c0 60.133 48.931 109.066 109.066 109.066h425.354c12.057 0 21.812 9.778 21.812 21.812 0 12.047-9.757 21.812-21.812 21.812h-425.354c-84.185 0-152.692-68.496-152.692-152.692v-556.234c0-84.204 68.507-152.692 152.692-152.692h556.233c84.206 0 152.692 68.486 152.692 152.692v425.354c0.001 12.049-9.757 21.812-21.811 21.812z" />
<glyph unicode="&#xe622;" glyph-name="twin" data-tags="twin" horiz-adv-x="1108" d="M926.167 463.9c-13.529 3.517-27.549 7.126-32.351 9.27-5.601 2.534-9.218 16.091-9.026 32.359 14.238 17.549 24.963 42.443 33.211 77.030 6.409 4.765 12.255 11.653 17.361 20.513 11.177 19.311 19.277 48.707 12.17 70.809-4.071 12.7-11.525 21.37-18.243 26.995 0 9.634-0.065 23.39-0.365 34.759-2.479 91.86-76.827 124.409-139.783 124.409-0.214 0-0.409 0-0.604 0-63.041 0-137.372-32.573-139.847-124.409-0.301-11.369-0.365-25.126-0.365-34.759-6.721-5.624-14.174-14.291-18.266-26.995-7.072-22.103 1.014-51.497 12.168-70.809 5.107-8.863 10.985-15.748 17.361-20.513 8.25-34.586 18.976-59.482 33.245-77.030 0.186-16.266-3.459-29.825-9.035-32.359-6.783-3.005-45.229-14.118-70.669-21.457-9.78-2.793-30.070-8.885-44.475-13.175-6.783 1.801-13.333 3.478-19.557 5.107-17.071 4.419-33.19 8.603-39.263 11.327-9.519 4.25-13.633 24.222-13.221 43.946 17.228 20.73 30.153 50.638 40.061 92.783 7.603 5.32 14.657 13.434 20.763 24.030 12.449 21.543 22.187 56.090 14.174 81.063-4.911 15.235-14.083 25.278-21.967 31.48 0 11.477-0.065 29.030-0.452 43.325-1.94 72.265-41.267 107.328-73.899 124.023-35.538 18.198-73.619 20.19-88.587 20.19-0.195 0-0.365 0-0.561 0-15.033 0-53.137-1.995-88.649-20.19-32.631-16.696-71.959-51.756-73.899-124.023-0.389-14.311-0.453-31.844-0.453-43.325-7.883-6.201-17.081-16.245-21.967-31.48-8.012-24.974 1.724-59.524 14.151-81.063 6.137-10.599 13.181-18.711 20.798-24.030 9.895-42.145 22.793-72.053 40.027-92.783 0.429-19.721-3.682-39.692-13.227-43.946-6.049-2.726-22.187-6.911-39.241-11.327-79.924-20.731-213.698-55.406-213.698-144.047v-47.098c0-12.147 9.888-21.971 22.057-21.971 12.194 0 22.054 9.828 22.054 21.971v47.098c0 54.651 122.059 86.323 180.707 101.515 21.344 5.536 36.766 9.527 46.22 13.778 40.192 17.98 40.512 72.098 38.77 94.54-0.387 5.064-2.538 9.869-6.114 13.559-15.208 15.705-27.571 45.406-36.742 88.231-1.726 8.070-7.842 14.461-15.789 16.609-8.872 5.794-22.766 40.597-17.94 55.574 2.604 8.153 9.217 11.841 10.531 12.532 8.768 3.135 13.642 11.116 13.57 20.427 0 0.342-0.213 31.802 0.387 54.071 2.456 91.452 83.332 101.431 118.438 101.431 0.214-0.021 0.409-0.021 0.604 0 35.042 0 115.917-9.977 118.375-101.431 0.602-22.23 0.386-53.729 0.386-54.071-0.088-9.013 5.398-17.143 13.783-20.513 0.087-0.042 7.54-3.777 10.317-12.421 4.803-14.999-9.068-49.802-17.943-55.597-7.945-2.145-14.062-8.541-15.808-16.609-9.153-42.83-21.519-72.525-36.743-88.231-3.552-3.691-5.705-8.497-6.106-13.559-1.736-22.444-1.433-76.563 38.781-94.54 9.454-4.252 24.875-8.243 46.22-13.778 58.646-15.193 180.681-46.861 180.681-101.515v-323.168c0-12.146 9.888-21.971 22.057-21.971 12.194 0 22.054 9.828 22.054 21.971v323.166c0 57.655-56.602 92.458-118.156 115.462 30.412 8.839 49.756 14.677 57.248 18.023 35.799 16.007 36.141 63.257 34.614 82.823-0.387 5.086-2.562 9.873-6.114 13.562-12.277 12.707-22.335 37.016-29.894 72.268-1.682 7.853-7.473 14.077-15.058 16.433-7.29 5.967-16.581 32.189-13.333 42.314 1.659 5.191 5.773 7.727 6.893 8.324 8.856 3.093 13.571 11.032 13.504 20.427 0 0.279-0.195 26.63 0.301 45.233 1.983 73.601 67.415 81.624 95.821 81.624 0.153 0 0.322 0 0.473 0 28.322 0 93.756-8.026 95.738-81.624 0.518-18.583 0.321-44.954 0.321-45.233-0.065-9.010 5.406-17.143 13.809-20.511 0.040-0.041 4.782-2.62 6.589-8.243 3.231-10.13-6.030-36.347-13.354-42.314-7.582-2.359-13.374-8.584-15.033-16.433-7.561-35.255-17.617-59.566-29.917-72.268-3.553-3.69-5.705-8.453-6.114-13.562-1.509-19.567-1.161-66.818 34.632-82.823 8.184-3.646 21.238-7.036 39.305-11.715 48.337-12.532 148.916-38.622 148.916-81.752v-63.020c0-12.123 9.866-21.971 22.054-21.971 12.191 0 22.057 9.85 22.057 21.971v63.020c-0.005 77.095-113.88 106.643-181.917 124.282z" />
<glyph unicode="&#xe625;" glyph-name="delivery" data-tags="delivery" horiz-adv-x="1791" d="M1790.51 353.807v-162.73c0-40.609-32.91-73.519-73.503-73.519h-78.673c-14.198 97.517-98.255 172.513-199.695 172.513-101.194 0-185.251-74.98-199.449-172.513h-668.206c-14.215 97.517-98.272 172.513-199.465 172.513s-185.251-74.98-199.465-172.513h-98.502c-40.592 0-73.503 32.91-73.503 73.519v162.73h1790.461zM1591.242 88.406c0-84.057-68.365-152.406-152.406-152.406-84.287 0-152.652 68.365-152.652 152.406 0 84.287 68.365 152.652 152.652 152.652 84.041 0 152.406-68.365 152.406-152.652zM1515.047 88.406c0 42.135-34.306 76.211-76.211 76.211-42.152 0-76.211-34.059-76.211-76.211 0-41.905 34.043-76.211 76.211-76.211 41.905 0.016 76.211 34.322 76.211 76.211zM523.876 88.406c0-84.057-68.119-152.406-152.406-152.406-84.303 0-152.406 68.365-152.406 152.406 0 84.287 68.119 152.652 152.406 152.652s152.406-68.365 152.406-152.652zM447.681 88.406c0 42.135-34.059 76.211-76.211 76.211s-76.211-34.059-76.211-76.211c0-41.905 34.059-76.211 76.211-76.211 42.152 0.016 76.211 34.322 76.211 76.211zM1790.461 394.465h-1790.461v492.016c0 40.691 33.075 73.519 73.503 73.519h1110.995c40.691 0 73.519-32.828 73.519-73.503v-54.643h145.791c25.721 0 50.474-10.292 68.841-28.429l288.906-285.706c18.384-18.384 28.922-43.366 28.922-69.596v-53.658zM1643.439 528.011l-226.171 215.863c-2.2 1.953-5.121 3.184-8.059 3.184h-53.182c-6.369 0-11.506-5.154-11.506-11.523v-215.88c0-6.369 5.138-11.506 11.506-11.506h279.583c10.275 0.016 15.429 12.754 7.83 19.861z" />
<glyph unicode="&#xe626;" glyph-name="delivery-express" data-tags="delivery-express" horiz-adv-x="1826" d="M676.646 241.079c-84.296 0-152.412-68.372-152.412-152.667 0-84.041 68.116-152.412 152.412-152.412s152.412 68.372 152.412 152.412c0 84.296-68.116 152.667-152.412 152.667zM676.646 12.206c-42.148 0-76.206 34.313-76.206 76.206 0 42.148 34.058 76.206 76.206 76.206s76.206-34.058 76.206-76.206c0-41.907-34.058-76.206-76.206-76.206zM1826.14 353.823v-162.74c0-40.604-32.897-73.5-73.5-73.5h-78.657c-14.21 97.514-98.279 172.501-199.717 172.501-101.197 0-185.252-74.988-199.462-172.501h-398.669c-14.224 97.514-98.265 172.501-199.462 172.501s-185.252-74.988-199.462-172.501h-98.505c-40.604 0-73.514 32.897-73.514 73.5v162.74h1520.947zM1474.478 241.079c-84.281 0-152.653-68.372-152.653-152.667 0-84.041 68.372-152.412 152.653-152.412 84.055 0 152.412 68.372 152.412 152.412 0 84.296-68.357 152.667-152.412 152.667zM1474.478 12.206c-42.162 0-76.206 34.313-76.206 76.206 0 42.148 34.044 76.206 76.206 76.206 41.907 0 76.206-34.058 76.206-76.206 0-41.907-34.299-76.206-76.206-76.206zM1797.182 517.71l-288.9 285.727c-18.375 18.12-43.125 28.42-68.853 28.42h-145.782v54.643c0 40.674-32.84 73.5-73.5 73.5h-841.468c-40.434 0-73.5-32.84-73.5-73.514v-11.518l-298.307-34.37 528.583-68.825-535.454-53.212 533.57-75.852-533.57-46.27 305.192-57.562-0.014-144.408h1520.919v53.666c0.014 26.21-10.54 51.187-28.916 69.576zM1671.248 508.147h-279.592c-6.361 0-11.518 5.143-11.518 11.518v215.896c0 6.361 5.157 11.518 11.518 11.518h53.17c2.933 0 5.879-1.233 8.090-3.188l226.167-215.882c7.608-7.126 2.437-19.863-7.835-19.863z" />
<glyph unicode="&#xe627;" glyph-name="thread" data-tags="thread" horiz-adv-x="1236" d="M481.516-30.548v94.23c0 9.573 7.987 17.342 16.931 20.706 19.639 7.495 33.671 26.122 33.671 48.004v629.767c0 21.937-14.141 40.591-33.863 47.812-8.999 3.255-16.904 3.611-16.822 4.076 0.055 0.328 0.082 0.602 0.082 0.957v111.489c0 18.518-15.017 33.507-33.48 33.507h-363.927c-18.49 0-33.507-14.989-33.507-33.507v-111.517c0-0.356 0.027-0.629 0.109-0.957 0.055-0.465-7.85-0.821-16.849-4.076-19.749-7.221-33.863-25.876-33.863-47.785v-629.739c0-21.882 14.059-40.455 33.698-47.703 8.999-3.31 16.904-10.996 16.904-20.597v-94.64c0-18.463 15.017-33.452 33.507-33.452h363.927c18.436-0.027 33.48 14.935 33.48 33.425zM497.489 132.392c0-9.108-7.741-16.466-17.342-16.466h-10.203c-5.607 0-7.358 7.166-4.294 16.22 6.537 19.448 12.828 44.366 15.099 72.211 0.766 9.546 4.376 16.576 8.78 15.782 4.404-0.766 7.96-9.19 7.96-18.737v-69.011zM497.489 271.234c0-9.546-7.659-15.892-16.986-14.032-221.967 44.311-310.233 117.753-342.838 156.731-6.1 7.358-3.857 17.971 4.158 23.25 3.775 2.489 7.549 5.060 11.433 7.713 7.85 5.498 19.366 4.376 26.204-2.27 40.701-39.497 139.17-117.726 300.879-144.039 9.437-1.504 17.15-10.312 17.15-19.858v-7.495zM254.926 126.21c33.644 25.766 72.375 62.637 97.922 109.356 4.623 8.397 13.813 13.676 21.335 11.515 7.495-2.161 12.008-11.461 9.054-20.514-12.445-38.184-38.403-75.548-55.225-97.157-5.881-7.577-18.654-13.457-28.228-13.457h-41.494c-9.573 0-10.941 4.458-3.364 10.257zM190.812 124.542c-8.206-4.951-22.839-8.589-32.413-8.589h-64.087c-9.546 0-10.175 2.954-1.395 6.783 57.796 25.411 139.963 70.871 187.858 138.131 5.525 7.795 16.74 11.625 25.657 8.343 1.614-0.574 3.2-1.149 4.732-1.696 9.026-3.255 13.047-12.719 8.151-21.007-35.586-60.805-97.84-103.53-128.503-121.965zM371.476 130.012c16.521 23.797 34.929 55.17 45.323 88.021 2.872 9.081 10.257 15.29 17.314 13.676 7.057-1.696 13.020-10.722 12.391-20.241-1.997-32.030-10.558-60.504-17.861-79.541-3.419-8.972-14.36-15.974-24.016-15.974h-25.93c-9.601 0-12.637 6.154-7.221 14.059zM373.856 762.842c-97.649-207.524-252.219-302.903-323.472-337.613-8.616-4.185-15.7 0.438-15.7 10.011v13.868c0 9.601 6.783 21.089 14.935 26.012 56.237 33.89 195.982 129.679 278.532 288.023 4.404 8.507 15.482 15.482 25.082 15.482h10.531c9.519 0.027 14.196-7.084 10.093-15.782zM480.996 561.582c8.972-3.337 16.439-13.102 16.439-22.675v-22.156c0-9.601-7.413-15.181-16.466-12.035-71.719 24.809-121.774 65.072-147.923 90.1-6.866 6.647-7.44 18.518-1.887 26.231 4.212 6.018 8.452 12.035 12.637 18.217 5.334 7.905 14.688 8.753 21.472 1.969 26.012-26.040 67.752-61.735 115.729-79.651zM50.684 386.881c8.753 3.857 19.366 8.808 31.346 15.044 8.507 4.404 19.42 1.641 25.301-5.881 2.325-2.927 4.923-6.1 7.768-9.3 6.291-7.221 5.99-17.67-1.887-23.058-18.682-12.938-42.123-24.946-62.692-34.245-8.698-3.966-15.837 0.821-15.837 10.394v23.058c0 9.573 7.221 20.104 16.001 23.988zM50.712 291.693c24.699 10.503 61.16 27.845 88.896 48.469 7.659 5.717 19.475 6.127 27.216 0.52 1.532-1.149 3.091-2.243 4.705-3.31 7.85-5.525 9.136-15.427 2.27-22.101-43.381-42.205-90.92-64.388-122.649-75.466-8.999-3.146-16.466 2.544-16.466 12.063v15.892c0 9.655 7.194 20.241 16.029 23.934zM497.489 348.423c0-9.601-7.659-16.275-17.095-14.661-143.355 24.918-233.783 93.902-272.952 130.363-7.002 6.565-6.291 17.013 0.93 23.222 4.951 4.212 9.929 8.561 14.962 13.102 7.112 6.401 18.217 6.264 25.301-0.219 38.376-35.121 118.683-96.172 231.841-119.367 9.382-1.915 17.041-10.886 17.041-20.514v-11.926zM497.489 430.098c0-9.546-7.659-15.974-16.986-13.868-99.618 22.374-171.939 76.888-207.059 108.48-7.084 6.428-7.221 17.424-0.711 24.481 5.115 5.553 10.203 11.297 15.263 17.177 6.264 7.221 16.521 7.549 23.441 0.985 30.69-29.048 87.583-73.278 169.395-98.989 9.108-2.899 16.63-12.637 16.63-22.183v-16.083zM497.489 609.804c0-9.573-7.413-14.825-16.111-10.914-40.755 18.49-76.615 51.314-97.539 73.059-6.619 6.866-7.85 19.42-3.255 27.79 1.778 3.118 3.501 6.373 5.224 9.573 4.541 8.425 12.965 9.437 19.584 2.489 17.232-18.135 42.615-40.4 76.943-60.695 8.288-4.869 15.153-16.22 15.153-25.821v-15.482zM480.121 778.652c9.601 0 17.314-7.385 17.314-16.494v-62.446h0.055c0-9.546-6.674-13.375-14.606-8.014-28.857 19.53-49.043 39.716-61.543 54.24-6.264 7.221-8.917 17.752-6.647 23.058 2.243 5.306 11.844 9.655 21.362 9.655h44.065zM84.109 909.206c0 9.573 7.741 17.314 17.287 17.314h329.298c9.601 0 17.369-7.741 17.369-17.314v-76.916c0-9.573-7.713-17.314-17.342-17.314h-329.326c-9.546 0-17.287 7.741-17.287 17.314v76.916zM34.683 762.159c0 9.108 7.741 16.494 17.314 16.494h40.099c9.546 0 11.789-5.471 4.951-12.117l-49.973-48.879c-6.893-6.701-12.391-4.376-12.391 5.224v39.278zM34.683 639.728c0 9.601 5.498 22.785 12.391 29.459l99.454 97.348c6.838 6.619 20.186 12.117 29.705 12.117h9.792c9.601 0 12.828-6.318 7.002-13.95-49.153-64.306-107.058-117.151-144.969-148.689-7.385-6.127-13.375-3.228-13.375 6.346v17.369zM34.628 543.775c0.055 9.546 6.209 21.909 13.786 27.818 38.649 30.225 122.512 101.205 187.283 192.781 5.471 7.795 17.533 14.278 27.079 14.278h17.041c9.601 0 13.786-6.866 9.054-15.235-70.98-125.849-181.047-209.22-239.582-247.322-8.014-5.252-14.634-1.504-14.634 8.042v19.639zM50.876 142.977c-8.917-3.474-16.22 1.669-16.22 11.215v27.134c0.027 9.573 7.604 19.092 16.685 21.937 36.352 11.187 98.059 37.2 153.093 93.847 6.674 6.866 18.49 8.89 27.079 4.595 3.528-1.778 7.084-3.528 10.75-5.306 8.589-4.158 11.543-13.922 5.689-21.472-52.161-68.327-146.938-112.337-197.076-131.949zM430.722-30.548h-329.326c-9.546 0-17.287 7.713-17.287 17.314v76.916c0 9.601 7.741 17.314 17.287 17.314h329.298c9.601 0 17.369-7.713 17.369-17.314v-76.916c0-9.601-7.713-17.314-17.342-17.314zM1224.932 165.106c8.343 2.872 12.719 11.98 9.874 20.296-2.981 8.534-73.524 210.943-170.844 262.366-5.826 3.036-11.98 6.209-18.217 9.355 29.213 98.169 38.731 180.254 19.448 251.425-18.709 69.421-82.796 120.953-145.844 117.206-55.553-3.255-94.996-47.758-105.499-119.011-3.255-22.402-3.091-42.725-0.574-61.708-13.102-18.162-22.019-33.917-24.563-38.759l-489.612-779.604c-3.693-5.99-8.37-13.348-3.528-22.128l4.595-8.233h9.409c8.26 0 12.719 5.553 16.931 10.832l563.136 706.819c35.941-30.471 78.967-53.529 117.808-73.196-17.369-53.885-40.455-112.83-67.752-177.655-74.891-178.339-40.017-325.551 12.828-359.167 2.626-1.696 5.553-2.462 8.507-2.462 5.279 0 10.421 2.626 13.457 7.385 4.759 7.385 2.516 17.26-4.869 21.964-37.118 23.66-70.077 154.406-0.547 319.889 26.778 63.622 49.563 121.856 67.096 175.522 4.486-2.298 8.753-4.513 12.992-6.729 86.215-45.569 154.925-242.563 155.609-244.532 2.79-8.315 11.844-12.746 20.159-9.874zM827.909 525.34l-31.346-25.93 12.391 38.759c3.638 11.379 10.476 31.51 19.557 53.091 7.112-15.345 16.029-29.349 26.45-42.205-12.063-11.133-22.265-19.749-27.052-23.715zM878.074 571.456c-13.786 17.752-24.098 37.829-29.869 60.778 15.427 27.462 33.863 49.7 53.365 49.7 5.388 0 10.585-1.532 15.372-4.595 7.96-5.033 12.445-12.637 13.102-21.964 1.45-23.058-25.164-56.456-51.97-83.918zM1016.97 471.728c-36.926 18.791-75.767 39.962-107.332 67.151 21.144 27.353 62.555 87.2 57.058 131.183-1.915 15.372-9.464 28.064-21.745 36.735-10.203 7.139-21.362 10.804-33.179 10.804-24.617 0-48.359-16.275-68.327-36.434 0.274 6.783 0.848 13.704 1.915 20.925 8.288 56.046 35.887 89.58 75.849 91.905 1.45 0.055 2.872 0.109 4.322 0.109 41.822 0 92.862-34.081 108.973-93.847 17.123-63.595 8.753-138.459-17.533-228.531z" />
<glyph unicode="&#xe629;" glyph-name="youtube" data-tags="youtube, social" horiz-adv-x="878" d="M554.857 240v-120.571q0-38.286-22.286-38.286-13.143 0-25.714 12.571v172q12.571 12.571 25.714 12.571 22.286 0 22.286-38.286zM748 239.428v-26.286h-51.429v26.286q0 38.857 25.714 38.857t25.714-38.857zM196 364h61.143v53.714h-178.286v-53.714h60v-325.143h57.143v325.143zM360.571 38.857h50.857v282.286h-50.857v-216q-17.143-24-32.571-24-10.286 0-12 12-0.571 1.714-0.571 20v208h-50.857v-223.429q0-28 4.571-41.714 6.857-21.143 33.143-21.143 27.429 0 58.286 34.857v-30.857zM605.714 123.428v112.571q0 41.714-5.143 56.571-9.714 32-40.571 32-28.571 0-53.143-30.857v124h-50.857v-378.857h50.857v27.429q25.714-31.429 53.143-31.429 30.857 0 40.571 31.429 5.143 15.429 5.143 57.143zM798.857 129.143v7.429h-52q0-29.143-1.143-34.857-4-20.571-22.857-20.571-26.286 0-26.286 39.429v49.714h102.286v58.857q0 45.143-15.429 66.286-22.286 29.143-60.571 29.143-38.857 0-61.143-29.143-16-21.143-16-66.286v-98.857q0-45.143 16.571-66.286 22.286-29.143 61.714-29.143 41.143 0 61.714 30.286 10.286 15.429 12 30.857 1.143 5.143 1.143 33.143zM451.429 650.857v120q0 39.429-24.571 39.429t-24.571-39.429v-120q0-40 24.571-40t24.571 40zM862.286 221.714q0-133.714-14.857-200-8-33.714-33.143-56.571t-58.286-26.286q-105.143-12-317.143-12t-317.143 12q-33.143 3.429-58.571 26.286t-32.857 56.571q-14.857 64-14.857 200 0 133.714 14.857 200 8 33.714 33.143 56.571t58.857 26.857q104.571 11.429 316.571 11.429t317.143-11.429q33.143-4 58.571-26.857t32.857-56.571q14.857-64 14.857-200zM292 950.857h58.286l-69.143-228v-154.857h-57.143v154.857q-8 42.286-34.857 121.143-21.143 58.857-37.143 106.857h60.571l40.571-150.286zM503.429 760.571v-100q0-46.286-16-67.429-21.143-29.143-60.571-29.143-38.286 0-60 29.143-16 21.714-16 67.429v100q0 45.714 16 66.857 21.714 29.143 60 29.143 39.429 0 60.571-29.143 16-21.143 16-66.857zM694.857 853.143v-285.143h-52v31.429q-30.286-35.429-58.857-35.429-26.286 0-33.714 21.143-4.571 13.714-4.571 42.857v225.143h52v-209.714q0-18.857 0.571-20 1.714-12.571 12-12.571 15.429 0 32.571 24.571v217.714h52z" />
<glyph unicode="&#xe62a;" glyph-name="hexagon" data-tags="hexagon" horiz-adv-x="724" d="M245.782 103.12l-239.546 272.68 116.347 343.788 355.91 71.142 239.555-272.681-116.356-343.805z" />
<glyph unicode="&#xe62b;" glyph-name="facebook2" data-tags="facebook, social" horiz-adv-x="439" d="M292 633.143h146.857l-17.143-162.286h-129.714v-470.857h-194.857v470.857h-97.143v162.286h97.143v97.714q0 104 49.143 157.429t161.714 53.429h129.714v-162.286h-81.143q-22.286 0-35.714-3.714t-19.429-13.429-7.714-19.714-1.714-28.286v-81.143z" />
<glyph unicode="&#xe62c;" glyph-name="trash" data-tags="trash, remove, delete, bin" horiz-adv-x="805" d="M292.571 530.286v-329.143q0-8-5.143-13.143t-13.143-5.143h-36.571q-8 0-13.143 5.143t-5.143 13.143v329.143q0 8 5.143 13.143t13.143 5.143h36.571q8 0 13.143-5.143t5.143-13.143zM438.857 530.286v-329.143q0-8-5.143-13.143t-13.143-5.143h-36.571q-8 0-13.143 5.143t-5.143 13.143v329.143q0 8 5.143 13.143t13.143 5.143h36.571q8 0 13.143-5.143t5.143-13.143zM585.143 530.286v-329.143q0-8-5.143-13.143t-13.143-5.143h-36.571q-8 0-13.143 5.143t-5.143 13.143v329.143q0 8 5.143 13.143t13.143 5.143h36.571q8 0 13.143-5.143t5.143-13.143zM658.286 116.571v541.714h-512v-541.714q0-12.571 4-23.143t8.286-15.429 6-4.857h475.429q1.714 0 6 4.857t8.286 15.429 4 23.143zM274.286 731.428h256l-27.429 66.857q-4 5.143-9.714 6.286h-181.143q-5.714-1.143-9.714-6.286zM804.571 713.143v-36.571q0-8-5.143-13.143t-13.143-5.143h-54.857v-541.714q0-47.429-26.857-82t-64.571-34.571h-475.429q-37.714 0-64.571 33.429t-26.857 80.857v544h-54.857q-8 0-13.143 5.143t-5.143 13.143v36.571q0 8 5.143 13.143t13.143 5.143h176.571l40 95.429q8.571 21.143 30.857 36t45.143 14.857h182.857q22.857 0 45.143-14.857t30.857-36l40-95.429h176.571q8 0 13.143-5.143t5.143-13.143z" />
<glyph unicode="&#xe62d;" glyph-name="play" data-tags="play, media, control" horiz-adv-x="805" d="M790.857 421.143l-758.857-421.714q-13.143-7.429-22.571-1.714t-9.429 20.571v841.143q0 14.857 9.429 20.571t22.571-1.714l758.857-421.714q13.143-7.429 13.143-17.714t-13.143-17.714z" />
<glyph unicode="&#xe62e;" glyph-name="pause" data-tags="pause, media, control" horiz-adv-x="878" d="M877.714 841.143v-804.571q0-14.857-10.857-25.714t-25.714-10.857h-292.571q-14.857 0-25.714 10.857t-10.857 25.714v804.571q0 14.857 10.857 25.714t25.714 10.857h292.571q14.857 0 25.714-10.857t10.857-25.714zM365.714 841.143v-804.571q0-14.857-10.857-25.714t-25.714-10.857h-292.571q-14.857 0-25.714 10.857t-10.857 25.714v804.571q0 14.857 10.857 25.714t25.714 10.857h292.571q14.857 0 25.714-10.857t10.857-25.714z" />
<glyph unicode="&#xe62f;" glyph-name="zoom-in" data-tags="zoom-in, magnifier, enlarge" horiz-adv-x="951" d="M585.143 493.714v-36.571q0-7.429-5.429-12.857t-12.857-5.429h-128v-128q0-7.429-5.429-12.857t-12.857-5.429h-36.571q-7.429 0-12.857 5.429t-5.429 12.857v128h-128q-7.429 0-12.857 5.429t-5.429 12.857v36.571q0 7.429 5.429 12.857t12.857 5.429h128v128q0 7.429 5.429 12.857t12.857 5.429h36.571q7.429 0 12.857-5.429t5.429-12.857v-128h128q7.429 0 12.857-5.429t5.429-12.857zM658.286 475.428q0 105.714-75.143 180.857t-180.857 75.143-180.857-75.143-75.143-180.857 75.143-180.857 180.857-75.143 180.857 75.143 75.143 180.857zM950.857 0q0-30.286-21.429-51.714t-51.714-21.429q-30.857 0-51.429 21.714l-196 195.429q-102.286-70.857-228-70.857-81.714 0-156.286 31.714t-128.571 85.714-85.714 128.571-31.714 156.286 31.714 156.286 85.714 128.571 128.571 85.714 156.286 31.714 156.286-31.714 128.571-85.714 85.714-128.571 31.714-156.286q0-125.714-70.857-228l196-196q21.143-21.143 21.143-51.429z" />
<glyph unicode="&#xe630;" glyph-name="arrow-square-left" data-tags="arrow-square-left" d="M989.888 925.856v-955.744h-955.744v955.744h955.744zM1024 960h-1024v-1024h1024v1024zM768 448.256c0 9.408-7.616 17.056-17.056 17.056h-368.48l141.856 141.856c6.656 6.656 6.656 17.472 0 24.128-3.328 3.328-7.712 4.992-12.064 4.992s-8.736-1.664-12.064-4.992l-170.912-170.88c-1.152-1.184-1.824-2.56-2.592-3.904-0.32-0.576-0.832-1.024-1.088-1.632-0.864-2.112-1.344-4.32-1.344-6.592 0-0.032 0-0.064 0.032-0.128 0-0.032-0.032-0.096-0.032-0.128 0 0 0 0 0-0.032 0-2.24 0.48-4.48 1.344-6.592 0.256-0.64 0.768-1.056 1.088-1.632 0.736-1.344 1.408-2.72 2.592-3.872l170.912-170.912c3.328-3.328 7.712-4.992 12.064-4.992s8.736 1.664 12.064 4.992c6.656 6.656 6.656 17.472 0 24.128l-141.856 141.856h368.48c9.44-0.032 17.056 7.616 17.056 17.024 0 0.032-0.032 0.064-0.032 0.128s0.032 0.096 0.032 0.128z" />
</font>
</defs>
</svg>
