<?xml version="1.0" encoding="UTF-8" standalone="no"?>
<svg width="27px" height="27px" viewBox="0 0 27 27" version="1.1" xmlns="http://www.w3.org/2000/svg" xmlns:xlink="http://www.w3.org/1999/xlink" xmlns:sketch="http://www.bohemiancoding.com/sketch/ns">
    <!-- Generator: Sketch 3.2.2 (9983) - http://www.bohemiancoding.com/sketch -->
    <title>Cart</title>
    <desc>Created with Sketch.</desc>
    <defs></defs>
    <g id="Page-1" stroke="none" stroke-width="1" fill="none" fill-rule="evenodd" sketch:type="MSPage">
        <g id="Cart" sketch:type="MSLayerGroup" fill="#000000">
            <g id="Boostrap3-grid-system-layouts" sketch:type="MSShapeGroup">
                <g id="Desktop-2">
                    <g id="Header">
                        <g id="Group">
                            <g id="1420808956_shopping-purse-+-5" transform="translate(0.402020, 0.000000)">
                                <g id="1420808956_shopping-purse">
                                    <g id="Group">
                                        <path d="M8.61064677,11.3203125 C9.21482587,11.3203125 9.70517413,10.8163125 9.70517413,10.1953125 L9.70517413,5.8078125 C9.70517413,3.846375 11.2577612,2.25 13.1660697,2.25 C15.0743781,2.25 16.6275124,3.846375 16.6275124,5.8078125 L16.6275124,10.1953125 C16.6275124,10.8163125 17.1173134,11.3203125 17.7220398,11.3203125 C18.3262189,11.3203125 18.8165672,10.8163125 18.8165672,10.1953125 L18.8165672,5.8078125 C18.8171144,2.6055 16.2821891,0 13.1660697,0 C10.0510448,0 7.5161194,2.6055 7.5161194,5.8078125 L7.5161194,10.1953125 C7.5161194,10.8163125 8.00646766,11.3203125 8.61064677,11.3203125 L8.61064677,11.3203125 L8.61064677,11.3203125 Z" id="Shape"></path>
                                        <path d="M25.721393,8.7924375 L19.9116418,8.7924375 L19.9116418,10.1953125 C19.9116418,11.4361875 18.9298507,12.4453125 17.7225871,12.4453125 C16.5153234,12.4453125 15.5335323,11.4361875 15.5335323,10.1953125 L15.5335323,8.7924375 L10.8002488,8.7924375 L10.8002488,10.1953125 C10.8002488,11.4361875 9.81845771,12.4453125 8.61119403,12.4453125 C7.40393035,12.4453125 6.4221393,11.4361875 6.4221393,10.1953125 L6.4221393,8.7924375 L0.547263682,8.7924375 C0.245174129,8.7924375 0.0585572139,9.037125 0.130248756,9.338625 L3.96,25.3681875 C4.19094527,26.2693125 5.11363184,27 6.0199005,27 L20.2487562,27 C21.1561194,27 22.0777114,26.2693125 22.3097512,25.3681875 L26.138408,9.338625 C26.2100995,9.0365625 26.0240299,8.7924375 25.721393,8.7924375 L25.721393,8.7924375 L25.721393,8.7924375 Z" id="Shape"></path>
                                    </g>
                                </g>
                            </g>
                        </g>
                    </g>
                </g>
            </g>
        </g>
    </g>
</svg>
