<?xml version="1.0" encoding="UTF-8" standalone="no"?>
<svg width="24px" height="22px" viewBox="0 0 24 22" version="1.1" xmlns="http://www.w3.org/2000/svg" xmlns:xlink="http://www.w3.org/1999/xlink" xmlns:sketch="http://www.bohemiancoding.com/sketch/ns">
    <!-- Generator: Sketch 3.2.2 (9983) - http://www.bohemiancoding.com/sketch -->
    <title>Heart</title>
    <desc>Created with Sketch.</desc>
    <defs></defs>
    <g id="Boostrap3-grid-system-layouts" stroke="none" stroke-width="1" fill="none" fill-rule="evenodd" sketch:type="MSPage">
        <g id="Desktop-2" sketch:type="MSArtboardGroup" transform="translate(-1173.000000, -38.000000)" stroke="#000000" fill="#000000">
            <g id="Header" sketch:type="MSLayerGroup" transform="translate(-5.000000, -11.000000)">
                <path d="M1199.52381,66 L1186.3719,66 C1182.85857,66 1180,63.1414286 1180,59.6280952 C1180,56.1147619 1182.85857,53.2561905 1186.3719,53.2561905 C1186.69,53.2561905 1187.01095,53.2819048 1187.3319,53.3319048 C1187.2819,53.0109524 1187.25619,52.69 1187.25619,52.3719048 C1187.25619,48.8580952 1190.11476,46 1193.6281,46 C1197.14143,46 1200,48.8580952 1200,52.3719048 L1200,65.5238095 C1200,65.7871429 1199.78714,66 1199.52381,66 L1199.52381,66 Z M1186.3719,54.2085714 C1183.38381,54.2085714 1180.95238,56.64 1180.95238,59.6280952 C1180.95238,62.6166667 1183.38381,65.047619 1186.3719,65.047619 L1199.04762,65.047619 L1199.04762,52.3719048 C1199.04762,49.3838095 1196.61667,46.952381 1193.6281,46.952381 C1190.64,46.952381 1188.20857,49.3838095 1188.20857,52.3719048 C1188.20857,52.8514286 1188.27714,53.3404762 1188.41238,53.8257143 C1188.4581,53.9914286 1188.41143,54.1685714 1188.29,54.29 C1188.16857,54.4114286 1187.99143,54.4580952 1187.82571,54.412381 C1187.34048,54.2771429 1186.85143,54.2085714 1186.3719,54.2085714 L1186.3719,54.2085714 Z" id="Heart" sketch:type="MSShapeGroup" transform="translate(1190.000000, 56.000000) rotate(45.000000) translate(-1190.000000, -56.000000) "></path>
            </g>
        </g>
    </g>
</svg>