<?xml version="1.0" ?><!DOCTYPE svg  PUBLIC '-//W3C//DTD SVG 1.1//EN'  'http://www.w3.org/Graphics/SVG/1.1/DTD/svg11.dtd'><svg enable-background="new 0 0 128 128" height="128px" id="Layer_1" version="1.1" viewBox="0 0 128 128" width="128px" xml:space="preserve" xmlns="http://www.w3.org/2000/svg" xmlns:xlink="http://www.w3.org/1999/xlink"><g id="connections"><path d="M93.667,76.903c-6.132,0-11.612,2.766-15.281,7.111l-25.892-14.12c0.54-1.812,0.839-3.727,0.839-5.715   c0-2.114-0.333-4.149-0.941-6.062l26.022-14.261c3.669,4.326,9.136,7.08,15.252,7.08c11.046,0,20-8.954,20-20   c0-11.046-8.954-20-20-20c-11.046,0-20,8.954-20,20c0,2.058,0.313,4.043,0.89,5.911L48.477,51.139   c-3.668-4.255-9.085-6.96-15.144-6.96c-11.046,0-20,8.954-20,20c0,11.046,8.954,20,20,20c6.19,0,11.721-2.814,15.389-7.23   l25.824,14.083c-0.57,1.857-0.88,3.827-0.88,5.871c0,11.046,8.954,20,20,20c11.046,0,20-8.954,20-20   C113.667,85.857,104.712,76.903,93.667,76.903z M93.667,18.935c6.617,0,12,5.384,12,12.001s-5.383,12-12,12s-12-5.383-12-12   S87.05,18.935,93.667,18.935z M33.334,76.179c-6.617,0-12-5.383-12-12s5.383-12.001,12-12.001s12,5.384,12,12.001   S39.951,76.179,33.334,76.179z M93.667,108.903c-6.617,0-12-5.383-12-12s5.383-12.001,12-12.001s12,5.384,12,12.001   S100.284,108.903,93.667,108.903z" fill="#454545"/></g></svg>