<?xml version="1.0" encoding="UTF-8" standalone="no"?>
<svg width="505px" height="39px" viewBox="0 0 505 39" version="1.1" xmlns="http://www.w3.org/2000/svg" xmlns:xlink="http://www.w3.org/1999/xlink" xmlns:sketch="http://www.bohemiancoding.com/sketch/ns">
    <!-- Generator: Sketch 3.2.2 (9983) - http://www.bohemiancoding.com/sketch -->
    <title>Fame Logo</title>
    <desc>This is the Fame and Partners Logo</desc>
    <defs></defs>
    <g id="Page-1" stroke="none" stroke-width="1" fill="none" fill-rule="evenodd" sketch:type="MSPage">
        <path d="M130.374727,37.9308621 L154.021638,37.9308621 L154.021638,31.2497586 L137.060766,31.2497586 L137.060766,22.5231724 L150.701818,22.5231724 L150.701818,15.8904828 L137.060766,15.8904828 L137.060766,7.17062069 L154.021638,7.17062069 L154.021638,0.485482759 L130.374727,0.485482759 L130.374727,37.9308621 L130.374727,37.9308621 Z M467.106844,10.674569 C467.106844,5.14531034 464.153502,0.475396552 454.47781,0.475396552 L446.807996,0.475396552 L446.807996,37.9227931 L451.04771,37.9227931 L451.04771,21.9186724 C453.047537,21.9691034 454.904807,21.8245345 456.626917,21.4896724 C458.867477,24.1618448 464.091638,31.2248793 469.166518,37.9227931 L474.626032,37.9227931 C468.39725,29.9553621 461.455686,20.9113966 460.759714,20.1065172 C464.819214,18.1982069 467.106844,14.8193276 467.106844,10.674569 L467.106844,10.674569 Z M451.04771,20.8515517 L451.04771,1.47393103 L453.338029,1.47393103 C458.431065,1.66825862 462.719194,5.52858621 462.719194,11.5332414 C462.719194,17.151931 459.33482,20.9443448 451.04771,20.8515517 L451.04771,20.8515517 Z M0,37.9308621 L6.68536618,37.9308621 L6.68536618,22.5231724 L20.3250732,22.5231724 L20.3250732,15.8904828 L6.68536618,15.8904828 L6.68536618,7.17062069 L23.6435486,7.17062069 L23.6435486,0.485482759 L0,0.485482759 L0,37.9308621 L0,37.9308621 Z M184.203961,6.77793103 L180.97492,0.218534483 L177.745879,6.77793103 L176.844814,8.59344828 L175.956525,10.3982069 L177.745879,10.3982069 L178.635513,8.59344828 L183.302896,8.59344828 L184.203961,10.3982069 L185.978522,10.3982069 L185.089561,8.59344828 L184.203961,6.77793103 L184.203961,6.77793103 Z M179.520439,6.77793103 L180.97492,3.84082759 L182.414607,6.77793103 L179.520439,6.77793103 L179.520439,6.77793103 Z M79.5788549,0.485482759 L79.5788549,37.9308621 L86.2675832,37.9308621 L86.2675832,16.6368621 L96.2694075,26.6443966 L96.3252197,26.6443966 L106.328389,16.6368621 L106.328389,37.9308621 L113.014427,37.9308621 L113.014427,0.485482759 L96.2694075,17.2272414 L79.5788549,0.485482759 L79.5788549,0.485482759 Z M487.70022,8.00844828 C487.70022,7.15448276 487.856897,6.24605172 488.063336,5.41898276 C488.512523,3.62767241 489.459314,2.36151724 491.085266,1.45644828 C495.478296,-0.982396552 499.68775,4.11651724 502.038589,7.14775862 L502.038589,2.47986207 C499.663542,0.718137931 497.223941,0 494.414501,0 C490.50966,0 484.505473,2.81405172 484.505473,9.38622414 C484.505473,20.5335 500.61504,20.7735517 500.61504,29.6830345 C500.61504,31.9947931 500.029348,35.1477414 497.918569,36.5100517 C496.499727,37.4252069 494.46964,37.3989828 492.858482,37.1468276 C491.002557,36.8516379 489.570939,35.6217931 488.25229,34.3650517 C486.943728,33.1318448 485.802603,31.7910517 484.793948,30.3043448 L484.793948,35.1154655 C486.412503,36.924931 489.936072,38.4472759 492.890759,38.4472759 C498.844514,38.4472759 504.327563,34.6884828 504.327563,28.5379138 C504.327563,16.2972931 487.70022,16.965 487.70022,8.00844828 L487.70022,8.00844828 Z M61.0626365,24.6137069 L49.1853862,0.485482759 L37.3088083,24.6137069 L33.9936951,31.3015345 L30.7290146,37.9308621 L37.3088083,37.9308621 L40.5694541,31.3015345 L57.7481957,31.3015345 L61.0626365,37.9308621 L67.5946871,37.9308621 L64.3246272,31.3015345 L61.0626365,24.6137069 L61.0626365,24.6137069 Z M43.8368242,24.6137069 L49.1853862,13.8046552 L54.4835153,24.6137069 L43.8368242,24.6137069 L43.8368242,24.6137069 Z M263.730366,0.474724138 L266.369008,7.04218966 L254.027776,37.9227931 L256.219248,37.9227931 L267.423389,9.67132759 L278.780173,37.9227931 L283.413935,37.9227931 L268.344627,0.474724138 L263.730366,0.474724138 L263.730366,0.474724138 Z M398.446345,30.6876207 L371.240226,0.475396552 L367.100706,0.475396552 L367.100706,37.9227931 L369.137517,37.9227931 L369.137517,4.57846552 L399.775752,37.9227931 L400.493915,37.9227931 L400.493915,0.475396552 L398.446345,0.475396552 L398.446345,30.6876207 L398.446345,30.6876207 Z M325.88504,2.43212069 L338.850293,2.43212069 L338.850293,37.9227931 L343.087317,37.9227931 L343.087317,2.43212069 L355.99743,2.43212069 L355.99743,0.475396552 L325.88504,0.475396552 L325.88504,2.43212069 L325.88504,2.43212069 Z M192.548901,19.7904828 L186.764601,13.9882241 L186.764601,24.1672241 L188.565386,24.1672241 L188.565386,18.377069 L192.548901,22.3523793 L194.369188,24.1672241 L194.369188,13.9882241 L192.548901,13.9882241 L192.548901,19.7904828 L192.548901,19.7904828 Z M315.59474,10.674569 C315.59474,5.14531034 312.644088,0.475396552 302.973775,0.475396552 L295.297237,0.475396552 L295.297237,37.9227931 L299.544348,37.9227931 L299.544348,21.9186724 C301.546864,21.9691034 303.4001,21.8245345 305.114141,21.4896724 C307.36277,24.1618448 312.582224,31.2248793 317.664501,37.9227931 L323.124015,37.9227931 C316.895233,29.9553621 309.955686,20.9113966 309.257696,20.1065172 C313.316525,18.1982069 315.59474,14.8193276 315.59474,10.674569 L315.59474,10.674569 Z M299.544348,20.8515517 L299.544348,1.47393103 L301.828615,1.47393103 C306.924341,1.66825862 311.211125,5.52858621 311.211125,11.5332414 C311.211125,17.151931 307.832803,20.9443448 299.544348,20.8515517 L299.544348,20.8515517 Z M233.872157,0.478086207 L226.200326,0.478086207 L226.200326,37.9227931 L230.443402,37.9227931 L230.443402,21.9213621 C233.468023,21.9926379 237.139527,21.5461552 240.184993,20.1576207 C242.58223,19.0588966 244.589454,17.3745 245.579953,14.8798448 C246.074867,13.6338621 246.494467,12.0254483 246.494467,10.674569 C246.494467,5.14531034 243.54516,0.478086207 233.872157,0.478086207 L233.872157,0.478086207 Z M230.443402,20.8515517 L230.443402,1.47662069 L232.729687,1.47662069 C237.825413,1.66960345 242.116904,5.52858621 242.116904,11.5332414 C242.116904,17.1532759 238.731185,20.9443448 230.443402,20.8515517 L230.443402,20.8515517 Z M202.773302,29.2446207 C202.309993,28.7860345 201.774061,28.4182241 201.159454,28.1546379 C200.544847,27.8917241 199.879134,27.7538793 199.173076,27.7538793 L196.061711,27.7538793 L196.061711,37.9308621 L199.173076,37.9308621 C199.879134,37.9308621 200.544847,37.7970517 201.159454,37.5327931 C201.774061,37.2678621 202.309993,36.9027414 202.773302,36.4414655 C203.234594,35.9828793 203.596365,35.4382241 203.863322,34.8182586 C204.13028,34.2023276 204.26275,33.5406724 204.26275,32.8420345 C204.26275,32.1454138 204.13028,31.4837586 203.863322,30.8651379 C203.596365,30.2465172 203.234594,29.7045517 202.773302,29.2446207 L202.773302,29.2446207 Z M202.206438,34.1236552 C202.036312,34.5176897 201.799614,34.8639828 201.501052,35.1638793 C201.1998,35.459069 200.850133,35.6917241 200.453395,35.8571379 C200.058003,36.0319655 199.626971,36.1200517 199.173076,36.1200517 L197.877963,36.1200517 L197.877963,29.5714138 L199.173076,29.5714138 C199.626971,29.5714138 200.058003,29.6541207 200.453395,29.8289483 C200.850133,29.9930172 201.1998,30.2323966 201.501052,30.5302759 C201.799614,30.8335345 202.036312,31.1831897 202.206438,31.5799138 C202.373875,31.9726034 202.460619,32.3928621 202.460619,32.8420345 C202.460619,33.3026379 202.373875,33.7282759 202.206438,34.1236552 L202.206438,34.1236552 Z M415.017204,37.9503621 L432.273276,37.9503621 L432.273276,36.0420517 L419.264314,36.0420517 L419.264314,17.0436724 L430.031372,17.0436724 L427.716172,15.1743621 L419.264314,15.1743621 L419.264314,2.45363793 L432.273276,2.45363793 L432.273276,0.498931034 L415.017204,0.498931034 L415.017204,37.9503621 L415.017204,37.9503621 Z" id="Imported-Layers" fill="#000000" sketch:type="MSShapeGroup"></path>
    </g>
</svg>