<?xml version="1.0" encoding="UTF-8" standalone="no"?>
<svg width="50px" height="50px" viewBox="0 0 50 50" version="1.1" xmlns="http://www.w3.org/2000/svg" xmlns:xlink="http://www.w3.org/1999/xlink">
    <!-- Generator: Sketch 3.8.2 (29753) - http://www.bohemiancoding.com/sketch -->
    <title>Artboard 1</title>
    <desc>Created with Sketch.</desc>
    <defs></defs>
    <g id="Page-1" stroke="none" stroke-width="1" fill="none" fill-rule="evenodd">
        <g id="Artboard-1">
            <g id="Group" transform="translate(0.800000, 3.000000)">
                <path d="M44.6496748,20.599779 C46.6836714,21.6710019 46.7358252,23.5242176 44.6496748,24.6382894 L5.83684636,45.9556253 C3.80284971,47.0268482 2.15479089,46.0520353 2.15479089,43.6953449 L2.15479089,1.55343574 C2.15479089,-0.813966888 3.80284971,-1.82091642 5.83684636,-0.706844597 L44.6496748,20.599779 Z" id="Shape" stroke="#F3941E" stroke-width="2" transform="translate(24.174791, 22.614217) scale(1, -1) rotate(90.000000) translate(-24.174791, -22.614217) "></path>
                <path d="M25.244267,12 L23.1920004,12 L23.1920004,34.0288881 L25.244267,34.0288881 L25.244267,12 Z M24.2181337,36.4070183 C23.3104004,36.4070183 22.6000004,37.0808175 22.6000004,38.0320634 C22.6000004,38.9436741 23.3104004,39.6571086 24.2181337,39.6571086 C25.125867,39.6571086 25.836267,38.9436741 25.836267,38.0716987 C25.836267,37.1204528 25.1653337,36.4070183 24.2181337,36.4070183 L24.2181337,36.4070183 Z" id="!" fill="#F3941E"></path>
            </g>
        </g>
    </g>
</svg>