<!-- Generator: Adobe Illustrator 19.0.0, SVG Export Plug-In  -->
<svg version="1.1"
	 xmlns="http://www.w3.org/2000/svg" xmlns:xlink="http://www.w3.org/1999/xlink" xmlns:a="http://ns.adobe.com/AdobeSVGViewerExtensions/3.0/"
	 x="0px" y="0px" width="20.9px" height="22.2px" viewBox="0 0 20.9 22.2" style="enable-background:new 0 0 20.9 22.2;"
	 xml:space="preserve">
<style type="text/css">
	.st0{fill:#FFFFFF;}
</style>
<defs>
</defs>
<g id="XMLID_16_">
	<path id="XMLID_24_" class="st0" d="M5.5,16.2h-5c-0.3,0-0.5,0.2-0.5,0.5v5c0,0.3,0.2,0.5,0.5,0.5h5c0.3,0,0.5-0.2,0.5-0.5v-5
		C6,16.4,5.8,16.2,5.5,16.2z M5,21.2H1v-4h4V21.2z"/>
	<path id="XMLID_21_" class="st0" d="M5.5,8.2h-5C0.2,8.2,0,8.4,0,8.7v5c0,0.3,0.2,0.5,0.5,0.5h5c0.3,0,0.5-0.2,0.5-0.5v-5
		C6,8.4,5.8,8.2,5.5,8.2z M5,13.2H1v-4h4V13.2z"/>
	<path id="XMLID_20_" class="st0" d="M20.4,18.1H8.5c-0.3,0-0.5,0.2-0.5,0.5c0,0.3,0.2,0.5,0.5,0.5h11.9c0.3,0,0.5-0.2,0.5-0.5
		C20.9,18.4,20.7,18.1,20.4,18.1z"/>
	<path id="XMLID_19_" class="st0" d="M20.4,10.1H8.5c-0.3,0-0.5,0.2-0.5,0.5c0,0.3,0.2,0.5,0.5,0.5h11.9c0.3,0,0.5-0.2,0.5-0.5
		C20.9,10.4,20.7,10.1,20.4,10.1z"/>
	<path id="XMLID_18_" class="st0" d="M8.5,3.1h11.9c0.3,0,0.5-0.2,0.5-0.5s-0.2-0.5-0.5-0.5H8.5C8.2,2.1,8,2.4,8,2.6
		S8.2,3.1,8.5,3.1z"/>
	<path id="XMLID_17_" class="st0" d="M6.2,0.2l-4,4.7L0.9,3.5c-0.2-0.2-0.5-0.2-0.7,0C0,3.7-0.1,4,0.1,4.2L1.8,6
		C1.9,6.1,2,6.1,2.2,6.1c0,0,0,0,0,0c0.1,0,0.3-0.1,0.4-0.2l4.4-5.2c0.2-0.2,0.2-0.5-0.1-0.7C6.7-0.1,6.3,0,6.2,0.2z"/>
</g>
</svg>
