<?xml version="1.0" encoding="utf-8"?>
<!-- Generator: Adobe Illustrator 16.0.4, SVG Export Plug-In . SVG Version: 6.00 Build 0)  -->
<!DOCTYPE svg PUBLIC "-//W3C//DTD SVG 1.1//EN" "http://www.w3.org/Graphics/SVG/1.1/DTD/svg11.dtd">
<svg version="1.1" id="Layer_1" xmlns="http://www.w3.org/2000/svg" xmlns:xlink="http://www.w3.org/1999/xlink" x="0px" y="0px"
	 width="32px" height="32px" viewBox="0 0 32 32" enable-background="new 0 0 32 32" xml:space="preserve">
<g>
	<g>
		
			<line fill="none" stroke="#000000" stroke-width="0.6996" stroke-linecap="round" stroke-linejoin="round" stroke-miterlimit="10" x1="13.79" y1="4.989" x2="23.461" y2="11.075"/>
		
			<path fill="none" stroke="#000000" stroke-width="0.6996" stroke-linecap="round" stroke-linejoin="round" stroke-miterlimit="10" d="
			M23.052,0.998c-1.699-1.069-4.068-0.362-5.29,1.581l-7.194,11.429c-1.002,1.593-0.92,3.519-0.361,4.475l-0.608,2.279l1.454,0.914
			l1.792-1.533c1.103,0.09,2.875-0.669,3.878-2.263l7.192-11.43C25.138,4.509,24.752,2.068,23.052,0.998z"/>
		<g>
			<path d="M14.391,10.771l-2.415,3.838c-0.724,1.15-0.563,2.46-0.321,2.873c0.179,0.306,0.228,0.67,0.137,1.012l-0.183,0.688
				l0.541-0.463c0.269-0.229,0.619-0.343,0.972-0.314c0.478,0.039,1.728-0.382,2.451-1.532l0.937-1.488"/>
		</g>
	</g>
	<path d="M7.371,28.876c0-1.449,2.624-5.421,2.624-5.421s2.624,3.972,2.624,5.421S11.443,31.5,9.995,31.5S7.371,30.325,7.371,28.876
		z"/>
</g>
</svg>
