<?xml version="1.0" encoding="utf-8"?>
<!-- Generator: Adobe Illustrator 16.0.4, SVG Export Plug-In . SVG Version: 6.00 Build 0)  -->
<!DOCTYPE svg PUBLIC "-//W3C//DTD SVG 1.1//EN" "http://www.w3.org/Graphics/SVG/1.1/DTD/svg11.dtd">
<svg version="1.1" id="Layer_1" xmlns="http://www.w3.org/2000/svg" xmlns:xlink="http://www.w3.org/1999/xlink" x="0px" y="0px"
	 width="32px" height="32px" viewBox="0 0 32 32" enable-background="new 0 0 32 32" xml:space="preserve">
<g>
	<path fill="none" stroke="#000000" stroke-width="0.7" stroke-linecap="round" stroke-linejoin="round" stroke-miterlimit="10" d="
		M9.884,25.152H2.728c-1,0-1.846,0.782-1.875,1.781c-0.031,1.038,0.805,1.894,1.837,1.894h27.09c0.725,0,1.341,0.561,1.368,1.285
		c0.028,0.759-0.581,1.388-1.335,1.388H9.865"/>
	<path fill="none" stroke="#000000" stroke-width="0.7" stroke-linecap="round" stroke-linejoin="round" stroke-miterlimit="10" d="
		M21.769,1.804c0.875-1.335,2.673-1.705,4.008-0.829c1.336,0.878,1.704,2.673,0.828,4.007L15.878,21.302l-5.994,3.851l1.158-7.028
		L21.769,1.804z"/>
	
		<line fill="none" stroke="#000000" stroke-width="0.7" stroke-linecap="round" stroke-linejoin="round" stroke-miterlimit="10" x1="25.81" y1="6.191" x2="20.975" y2="3.013"/>
	
		<line fill="none" stroke="#000000" stroke-width="0.7" stroke-linecap="round" stroke-linejoin="round" stroke-miterlimit="10" x1="24.22" y1="8.609" x2="19.386" y2="5.431"/>
	
		<line fill="none" stroke="#000000" stroke-width="0.7" stroke-linecap="round" stroke-linejoin="round" stroke-miterlimit="10" x1="15.878" y1="21.302" x2="11.042" y2="18.124"/>
	
		<line fill="none" stroke="#000000" stroke-width="0.7" stroke-linecap="round" stroke-linejoin="round" stroke-miterlimit="10" x1="13.459" y1="19.712" x2="21.804" y2="7.02"/>
</g>
</svg>
