<!-- Generator: Adobe Illustrator 19.0.0, SVG Export Plug-In  -->
<svg version="1.1"
	 xmlns="http://www.w3.org/2000/svg" xmlns:xlink="http://www.w3.org/1999/xlink" xmlns:a="http://ns.adobe.com/AdobeSVGViewerExtensions/3.0/"
	 x="0px" y="0px" width="18px" height="24px" viewBox="0 0 18 24" style="enable-background:new 0 0 18 24;" xml:space="preserve">
<style type="text/css">
	.st0{fill:#FFFFFF;}
</style>
<defs>
</defs>
<g id="XMLID_24_">
	<path id="XMLID_29_" class="st0" d="M17.6,3.6l-3.3-3.3C14.1,0.2,13.9,0,13.5,0H1.3C0.6,0,0,0.6,0,1.3v21.4C0,23.4,0.6,24,1.3,24
		h15.4c0.7,0,1.3-0.6,1.3-1.3V4.5C18,4.1,17.8,3.8,17.6,3.6z M16.5,4H14V1.5L16.5,4z M16.7,23H1.3C1.1,23,1,22.9,1,22.7V1.3
		C1,1.1,1.1,1,1.3,1L13,1v3.5C13,4.8,13.2,5,13.5,5H17v17.7C17,22.9,16.9,23,16.7,23z"/>
	<path id="XMLID_28_" class="st0" d="M14,17H4c-0.3,0-0.5,0.2-0.5,0.5C3.5,17.8,3.7,18,4,18h10c0.3,0,0.5-0.2,0.5-0.5
		C14.5,17.2,14.3,17,14,17z"/>
	<path id="XMLID_27_" class="st0" d="M14,14H4c-0.3,0-0.5,0.2-0.5,0.5C3.5,14.8,3.7,15,4,15h10c0.3,0,0.5-0.2,0.5-0.5
		C14.5,14.2,14.3,14,14,14z"/>
	<path id="XMLID_26_" class="st0" d="M14,11H4c-0.3,0-0.5,0.2-0.5,0.5C3.5,11.8,3.7,12,4,12h10c0.3,0,0.5-0.2,0.5-0.5
		C14.5,11.2,14.3,11,14,11z"/>
	<path id="XMLID_25_" class="st0" d="M4,9h5.6c0.3,0,0.5-0.2,0.5-0.5S9.9,8,9.6,8H4C3.7,8,3.5,8.2,3.5,8.5S3.7,9,4,9z"/>
</g>
</svg>
