<?xml version="1.0" encoding="utf-8"?>
<!-- Generator: Adobe Illustrator 19.2.1, SVG Export Plug-In . SVG Version: 6.00 Build 0)  -->
<svg version="1.1" id="Layer_1" xmlns="http://www.w3.org/2000/svg" xmlns:xlink="http://www.w3.org/1999/xlink" x="0px" y="0px"
	 viewBox="0 0 300 300" style="enable-background:new 0 0 300 300;" xml:space="preserve">
<g>
	<rect x="126.7" y="-31.8" transform="matrix(-0.7082 0.706 -0.706 -0.7082 364.1302 150.3383)" width="48.5" height="364.4"/>
	<rect x="164" y="-15.8" transform="matrix(-0.7082 0.706 -0.706 -0.7082 401.5894 60.519)" width="48.5" height="258.1"/>
	<rect x="201.3" y="-0.5" transform="matrix(-0.7082 0.706 -0.706 -0.7082 439.0484 -29.3003)" width="48.5" height="153.1"/>
	<rect x="238.6" y="14.6" transform="matrix(-0.7082 0.706 -0.706 -0.7082 476.5075 -119.1195)" width="48.5" height="48.5"/>
	<rect x="89.5" y="58.5" transform="matrix(-0.7082 0.706 -0.706 -0.7082 326.6711 240.1576)" width="48.5" height="258.1"/>
	<rect x="52.2" y="148.2" transform="matrix(-0.7082 0.706 -0.706 -0.7082 289.212 329.9769)" width="48.5" height="153.1"/>
	<rect x="14.9" y="237.9" transform="matrix(-0.7082 0.706 -0.706 -0.7082 251.7529 419.7962)" width="48.5" height="48"/>
</g>
</svg>
