<?xml version="1.0" encoding="utf-8"?>
<!-- Generator: Adobe Illustrator 16.0.4, SVG Export Plug-In . SVG Version: 6.00 Build 0)  -->
<!DOCTYPE svg PUBLIC "-//W3C//DTD SVG 1.1//EN" "http://www.w3.org/Graphics/SVG/1.1/DTD/svg11.dtd">
<svg version="1.1" id="Layer_1" xmlns="http://www.w3.org/2000/svg" xmlns:xlink="http://www.w3.org/1999/xlink" x="0px" y="0px"
	 width="32px" height="32px" viewBox="0 0 32 32" enable-background="new 0 0 32 32" xml:space="preserve">
<g>
	<path d="M16.451,18.542H16c2.523-0.049,3.297-0.67,3.372-0.943c0.002-0.005,0.002-0.009,0.003-0.014
		c0.077-0.338,0.715-3.335-0.214-4.608c-0.751-1.029-0.515-2.066-0.497-2.14c0.039-0.135,0.817-2.789,1.401-4.143
		c0.304-0.704,0.376-1.265,0.214-1.668C20.164,4.741,19.97,4.629,19.906,4.6l-2.375-1.127c-0.045-0.175-0.122-0.483-0.185-0.774
		c-0.059-0.272-0.258-0.44-0.488-0.543l-0.207-0.793c-0.036-0.141-0.328-0.241-0.328-0.241V0.823C16.324,0.645,16.178,0.5,16,0.5
		c-0.179,0-0.323,0.145-0.323,0.323v0.298c0,0-0.292,0.099-0.329,0.241l-0.208,0.793c-0.229,0.104-0.428,0.271-0.486,0.543
		c-0.062,0.291-0.14,0.6-0.185,0.774L12.094,4.6c-0.063,0.03-0.258,0.142-0.372,0.426c-0.163,0.403-0.091,0.964,0.214,1.668
		c0.583,1.351,1.359,4,1.401,4.143c0.02,0.081,0.248,1.113-0.497,2.14c-0.978,1.349-0.213,4.617-0.212,4.622
		c0.074,0.273,0.849,0.894,3.37,0.943h-0.451"/>
	<g>
		
			<path fill="none" stroke="#000000" stroke-width="0.6" stroke-linecap="round" stroke-linejoin="round" stroke-miterlimit="10" d="
			M16,28.178c-0.438,0.038-1.088,0.183-1.641,0.655c-0.613,0.526-0.949,1.311-0.997,2.335c-0.001,0.004,0.005,0.332-0.311,0.332
			c-0.171,0-0.311-0.14-0.311-0.311"/>
		
			<path fill="none" stroke="#000000" stroke-width="0.6" stroke-linecap="round" stroke-linejoin="round" stroke-miterlimit="10" d="
			M16,28.178c0.438,0.038,1.088,0.183,1.641,0.655c0.613,0.526,0.949,1.311,0.998,2.335c0,0.004-0.006,0.332,0.311,0.332
			c0.172,0,0.311-0.14,0.311-0.311"/>
		
			<line fill="none" stroke="#000000" stroke-width="0.6" stroke-linecap="round" stroke-linejoin="round" stroke-miterlimit="10" x1="16" y1="18.542" x2="16" y2="31.5"/>
	</g>
</g>
</svg>
