<?xml version="1.0" encoding="utf-8"?>
<!-- Generated by IcoMoon.io -->
<!DOCTYPE svg PUBLIC "-//W3C//DTD SVG 1.1//EN" "http://www.w3.org/Graphics/SVG/1.1/DTD/svg11.dtd">
<svg version="1.1" xmlns="http://www.w3.org/2000/svg" xmlns:xlink="http://www.w3.org/1999/xlink" width="60" height="60" viewBox="0 0 60 60">
<g id="icomoon-ignore">
	<line stroke-width="1" x1="" y1="" x2="" y2="" stroke="#449FDB" opacity=""></line>
</g>
	<path d="M30 59.75c-16.404 0-29.75-13.346-29.75-29.75s13.346-29.75 29.75-29.75c16.402 0 29.75 13.346 29.75 29.75s-13.348 29.75-29.75 29.75zM30 2.25c-15.302 0-27.75 12.448-27.75 27.75 0 15.3 12.448 27.75 27.75 27.75 15.3 0 27.75-12.45 27.75-27.75 0-15.302-12.45-27.75-27.75-27.75z" fill="#000000"></path>
	<path d="M30.116 42.238c-7.208 0-12.354-3.836-14.256-7.64-0.16-0.32-0.136-0.704 0.062-1l4.288-6.43c0.004-5.084 0.196-14.064 9.908-14.064 9.714 0 9.91 8.98 9.914 14.064l4.288 6.43c0.202 0.296 0.222 0.68 0.062 1-1.906 3.804-7.052 7.64-14.266 7.64zM17.922 34.204c1.82 3.082 6.166 6.036 12.196 6.036 6.036 0 10.378-2.954 12.2-6.036l-4.12-6.178c-0.11-0.164-0.168-0.358-0.168-0.554 0-6.256-0.612-12.366-7.912-12.366-7.296 0-7.908 6.11-7.908 12.366 0 0.198-0.058 0.39-0.168 0.554l-4.12 6.178z" fill="#000000"></path>
	<path d="M46.326 53.82c-0.316 0-0.626-0.148-0.82-0.426-1.666-2.376-4.216-3.48-8.028-3.48-2.232 0-4.73-1.804-4.73-4.222v-4.456c0-0.552 0.448-1 1-1s1 0.448 1 1v4.456c0 1.198 1.5 2.222 2.73 2.222 4.458 0 7.62 1.416 9.666 4.33 0.316 0.452 0.208 1.078-0.244 1.392-0.174 0.126-0.376 0.184-0.574 0.184z" fill="#000000"></path>
	<path d="M13.748 53.71c-0.204 0-0.408-0.060-0.584-0.19-0.45-0.322-0.548-0.948-0.226-1.396 2.044-2.834 5.178-4.21 9.582-4.21 1.23 0 2.73-1.028 2.73-2.222v-4.458c0-0.55 0.448-1 1-1 0.55 0 1 0.45 1 1v4.458c0 2.416-2.498 4.222-4.73 4.222-3.764 0-6.294 1.074-7.958 3.38-0.198 0.274-0.502 0.416-0.814 0.416z" fill="#000000"></path>
</svg>
