<!-- Generator: Adobe Illustrator 19.0.0, SVG Export Plug-In  -->
<svg version="1.1"
	 xmlns="http://www.w3.org/2000/svg" xmlns:xlink="http://www.w3.org/1999/xlink" xmlns:a="http://ns.adobe.com/AdobeSVGViewerExtensions/3.0/"
	 x="0px" y="0px" width="24px" height="23.4px" viewBox="0 0 24 23.4" style="enable-background:new 0 0 24 23.4;"
	 xml:space="preserve">
<style type="text/css">
	.st0{fill:#FFFFFF;}
</style>
<defs>
</defs>
<path id="XMLID_24_" class="st0" d="M23.9,5.6C23.9,5.6,23.9,5.6,23.9,5.6c-0.1-0.1-0.1-0.1-0.2-0.2c0,0,0,0,0,0c0,0,0,0,0,0
	L12.8,0.1C12.6,0,12.5,0,12.4,0L0.3,5.4c0,0,0,0,0,0c0,0,0,0,0,0c0,0-0.1,0.1-0.1,0.1c0,0,0,0-0.1,0.1C0,5.7,0,5.8,0,5.9
	c0,0,0,0,0,0l0,0l0,0v11.6c0,0.2,0.1,0.4,0.3,0.5l12,5.4c0.1,0,0.1,0,0.2,0c0.1,0,0.2,0,0.2-0.1l11-5.4c0.2-0.1,0.3-0.3,0.3-0.4V5.9
	C24,5.8,24,5.7,23.9,5.6z M12.5,1.1l9.8,4.8l-3.5,1.7L18,8L7.8,3.2L12.5,1.1z M6.6,3.7l10.3,4.9l-4.4,2.1L1.7,5.9L6.6,3.7z M1,6.7
	l11,4.9v10.5L1,17.2V6.7z M13,22.1V11.6l10-4.9v10.5L13,22.1z"/>
<path id="XMLID_23_" class="st0" d="M6.2,10.3L3.6,9C3.3,8.9,3,9,2.9,9.2c-0.1,0.2,0,0.5,0.2,0.7l2.7,1.3c0.1,0,0.1,0,0.2,0
	c0.2,0,0.4-0.1,0.5-0.3C6.6,10.7,6.5,10.4,6.2,10.3z"/>
<path id="XMLID_22_" class="st0" d="M6.2,12.2L3.6,11c-0.2-0.1-0.5,0-0.7,0.2c-0.1,0.2,0,0.5,0.2,0.7l2.7,1.3c0.1,0,0.1,0,0.2,0
	c0.2,0,0.4-0.1,0.5-0.3C6.6,12.7,6.5,12.4,6.2,12.2z"/>
</svg>
