<?xml version="1.0" encoding="utf-8"?>
<!-- Generator: Adobe Illustrator 19.2.1, SVG Export Plug-In . SVG Version: 6.00 Build 0)  -->
<svg version="1.1" id="Layer_1" xmlns="http://www.w3.org/2000/svg" xmlns:xlink="http://www.w3.org/1999/xlink" x="0px" y="0px"
	 viewBox="0 0 300 300" style="enable-background:new 0 0 300 300;" xml:space="preserve">
<g>
	<path d="M136.6,199.4h-12.3v-97.5h26c23.1,0,35.8,10.5,35.8,29.8c0,9.6-3.8,18.3-10.4,23.7c-5.7,4.5-13.3,6.7-24.1,6.7h-15.1V199.4
		z M149.3,151.5c5.3,0,8.8-0.4,12.1-1.8c7.5-2.6,12.3-9.5,12.3-17.8s-4.7-15.1-12.4-17.7c-3.8-1.3-7.7-1.9-13.6-1.9h-11.1v39.2
		H149.3z"/>
</g>
<g>
	<path d="M149.1,10c37.6,0,72.9,14.6,99.4,41.2s41.2,61.9,41.2,99.4S275,223.5,248.5,250s-61.9,41.2-99.4,41.2S76.2,276.6,49.6,250
		S8.5,188.2,8.5,150.6s14.6-72.9,41.2-99.4S111.5,10,149.1,10 M149.1,5C68.6,5,3.5,70.2,3.5,150.6s65.2,145.6,145.6,145.6
		S294.7,231,294.7,150.6S229.5,5,149.1,5L149.1,5z"/>
</g>
</svg>
