<?xml version="1.0" encoding="utf-8"?>
<!-- Generator: Adobe Illustrator 19.2.1, SVG Export Plug-In . SVG Version: 6.00 Build 0)  -->
<svg version="1.1" id="Layer_1" xmlns="http://www.w3.org/2000/svg" xmlns:xlink="http://www.w3.org/1999/xlink" x="0px" y="0px"
	 viewBox="0 0 300 300" style="enable-background:new 0 0 300 300;" xml:space="preserve">
<g>
	<path d="M98.1,290c-1.2-1.2-2.3-2.3-3.5-3.5c-0.3-0.4-0.6-0.7-0.8-1.1c-2.9-3.8-4.8-8.1-5.8-12.7c-1.9-8.2-1.2-16.2,1.1-24.2
		c1.2-4.1,2.8-8,5.3-11.5c3-4.3,6.4-8.2,9.9-12.1c2.9-3.2,5.9-6.3,8.9-9.4c1.8-1.8,3.5-3.7,5.3-5.5c2.8-3.1,5.7-6.1,8.4-9.3
		c1.5-1.8,2.9-3.6,4.1-5.6c2.1-3.4,3.2-7.3,4-11.2c1.5-6.5,2.2-13.2,2.8-19.9c0-0.5,0.1-1.1,0.1-1.7c-0.3,0-0.5-0.1-0.7,0
		c-5.6,0.7-11.3,1.3-16.9,2.1c-4.2,0.6-8.3,1.7-12.3,3.3c-3.6,1.5-6.7,3.9-9.6,6.5c-3.2,2.8-6.4,5.7-9.5,8.6c-2.2,2-4.3,4.1-6.4,6.1
		c-2.2,2.1-4.4,4.4-6.7,6.4c-3.3,2.9-6.6,5.8-10,8.5c-2.2,1.8-4.7,3.5-7.3,4.7c-7.3,3.3-14.9,4.9-22.9,4.7c-6.1-0.2-12-1.5-17.3-4.6
		c-1.7-1-3.2-2.2-4.8-3.3c-0.9-0.9-1.8-1.8-2.8-2.8c-0.3-0.4-0.6-0.8-0.9-1.1c-3-3.9-5-8.3-5.7-13.2c-1.2-8,0.5-15.4,4.4-22.3
		c1.2-2.1,2.7-3.9,4-5.9c2-2,4-4,6-6c1.5-1.1,3-2.2,4.5-3.2c8.7-5.5,18.2-8.1,28.5-7.2c2.3,0.2,4.6,0.8,6.9,1.2
		c5.5,1.1,11.1,2.2,16.6,3.4c7.1,1.5,14.2,3,21.4,3.7c7,0.7,13.6-0.4,19.8-3.7c8.2-4.4,16.7-8.2,25.5-11.3c0.9-0.3,1.4-0.8,1.7-1.7
		c9.4-22.8,19.1-45.4,29.9-67.6c9-18.4,18.7-36.4,30.5-53.2c2.1-2.9,4.3-5.7,7.1-8c1.3-1.1,2.7-2.1,4.6-1.5c0.2,0.2,0.5,0.5,0.7,0.7
		c-1.2,3.5-2.5,7-3.7,10.5c-3.2,9.2-6.3,18.3-9.5,27.5c-5.3,15.4-10.6,30.7-15.9,46.1c-3.9,11.3-7.8,22.5-11.7,33.8
		c-0.2,0.5-0.3,1.1-0.6,1.8c0.5-0.2,0.8-0.2,1.2-0.3c11.1-3.8,22.1-7.6,33.2-11.4c15.4-5.3,30.8-10.6,46.2-15.9
		c11.9-4.1,23.9-8.2,35.8-12.3c1.1-0.4,2.3-0.8,3.4-1.3c0.2,0.2,0.5,0.5,0.7,0.7c0.5,1.3,0,2.4-0.7,3.5c-1.3,2.1-3.1,3.8-5.1,5.3
		c-3.6,2.7-7.2,5.4-11,7.9c-9.7,6.3-19.7,12.1-29.9,17.5c-16.1,8.5-32.6,16.2-49.3,23.4c-11.6,5-23.2,9.9-34.8,14.8
		c-0.6,0.3-1,0.6-1.2,1.3c-1.5,3.8-2.9,7.6-4.6,11.4c-2.3,5.2-4.9,10.3-7.4,15.5c-2,4.1-3.4,8.4-3.4,13.1c0,4.3,0.3,8.6,1.1,12.9
		c1.2,6.5,2.6,13,3.9,19.5c0.8,3.9,1.4,7.9,2.3,11.7c2.1,8.5,1.7,16.8-1.2,25.1c-1.8,5.1-4.3,9.8-7.8,14c-0.7,0.9-1.4,1.7-2.1,2.6
		c-0.7,0.7-1.5,1.5-2.2,2.2c-0.9,0.7-1.7,1.4-2.6,2.1c-4,3.3-8.5,5.7-13.5,7.1c-8,2.3-15.7,1.8-23.1-2.1
		C101.4,292.3,99.8,291.1,98.1,290z M16.7,198.7c3.2,3.1,6.9,5.2,11.1,6.2c14.4,3.4,26.5-1.2,37-10.9c1.8-1.7,3.3-3.9,4.7-6
		c3.2-4.8,5-10.1,4.6-16c-0.4-6.8-3.4-12.2-9.1-16.1c-4.5-3.1-9.5-4.6-14.8-4.7c-13.8-0.2-25.1,5.2-33.5,16.2
		c-3.2,4.1-5.1,8.8-5.8,14C10.2,188.1,12.2,193.9,16.7,198.7z M137.5,279.5c2.9-2.7,5.6-6.9,7.3-10.3c3.8-7.8,5.3-15.9,3.5-24.5
		c-1.2-5.8-3.9-10.8-8.7-14.5c-4-3-8.5-4.3-13.5-4.1c-6.7,0.3-12.4,3-17.4,7.2c-5.4,4.5-9.4,10.1-11.9,16.7
		c-2.9,7.7-3.7,15.6-1.3,23.6c1.5,4.9,4.1,9.1,8.3,12.1c5,3.6,10.6,4.7,16.6,3.5C127,287.8,132.5,284.6,137.5,279.5z"/>
</g>
</svg>
