<?xml version="1.0" encoding="utf-8"?>
<!-- Generated by IcoMoon.io -->
<!DOCTYPE svg PUBLIC "-//W3C//DTD SVG 1.1//EN" "http://www.w3.org/Graphics/SVG/1.1/DTD/svg11.dtd">
<svg version="1.1" xmlns="http://www.w3.org/2000/svg" xmlns:xlink="http://www.w3.org/1999/xlink" width="60" height="60" viewBox="0 0 60 60">
<g id="icomoon-ignore">
	<line stroke-width="1" x1="" y1="" x2="" y2="" stroke="#449FDB" opacity=""></line>
</g>
	<path d="M23.334 44.548c-5.654 0-10.972-2.208-14.97-6.222-8.258-8.288-8.258-21.768 0-30.050 3.998-4.016 9.316-6.228 14.97-6.228 5.656 0 10.974 2.212 14.974 6.228 8.258 8.282 8.258 21.762 0 30.048-4 4.016-9.316 6.224-14.974 6.224zM23.334 4.048c-5.122 0-9.936 2.002-13.554 5.638-7.48 7.504-7.48 19.718 0 27.228 3.622 3.632 8.436 5.632 13.554 5.632 5.122 0 9.938-2 13.56-5.634 7.476-7.508 7.476-19.724 0-27.226-3.624-3.634-8.438-5.638-13.56-5.638z" fill="#000000"></path>
	<path d="M53.882 57.952c-1 0-1.942-0.39-2.648-1.1l-17.11-17.176 5.488-5.51 17.122 17.178c1.46 1.464 1.46 3.848-0.004 5.31l-0.196 0.198c-0.71 0.708-1.648 1.1-2.652 1.1zM36.95 39.68l15.704 15.762c0.656 0.656 1.808 0.66 2.468 0l0.196-0.198c0.684-0.686 0.688-1.798 0.004-2.486l-15.708-15.754-2.664 2.676z" fill="#000000"></path>
</svg>
