<?xml version="1.0" encoding="UTF-8" standalone="no"?>
<svg width="61px" height="61px" viewBox="0 0 61 61" version="1.1" xmlns="http://www.w3.org/2000/svg" xmlns:xlink="http://www.w3.org/1999/xlink" xmlns:sketch="http://www.bohemiancoding.com/sketch/ns">
    <!-- Generator: Sketch 3.3.1 (12005) - http://www.bohemiancoding.com/sketch -->
    <title>Slice 1</title>
    <desc>Created with Sketch.</desc>
    <defs></defs>
    <g id="Page-1" stroke="none" stroke-width="1" fill="none" fill-rule="evenodd" sketch:type="MSPage">
        <g id="Fill-4319-+-Fill-4320" sketch:type="MSLayerGroup" fill="#000000">
            <path d="M59.955,58.7275 L47.455,21.2275 C47.285,20.725 46.81,20.375 46.27,20.375 L42.52,20.375 L42.52,27.875 C42.52,28.5775 41.9625,29.125 41.27,29.125 C40.58,29.125 40.02,28.5775 40.02,27.875 L40.02,20.375 L20.02,20.375 L20.02,27.875 C20.02,28.5775 19.4625,29.125 18.77,29.125 C18.08,29.125 17.52,28.5775 17.52,27.875 L17.52,20.375 L13.77,20.375 C13.2325,20.375 12.755,20.725 12.585,21.2275 L0.085,58.7275 C-0.045,59.125 0.0225,59.525 0.2575,59.8775 C0.4925,60.2 0.87,60.375 1.27,60.375 L58.77,60.375 C59.1725,60.375 59.55,60.2 59.785,59.8775 C60.02,59.525 60.0825,59.125 59.955,58.7275" id="Fill-4319" sketch:type="MSShapeGroup"></path>
            <path d="M20.02,10.375 C20.02,5.2 24.415,2.875 28.77,2.875 L31.27,2.875 C35.625,2.875 40.02,5.2 40.02,10.375 L40.02,17.875 L42.52,17.875 L42.52,10.375 C42.52,4.5 37.895,0.375 31.27,0.375 L28.77,0.375 C22.1475,0.375 17.52,4.5 17.52,10.375 L17.52,17.875 L20.02,17.875 L20.02,10.375" id="Fill-4320" sketch:type="MSShapeGroup"></path>
        </g>
    </g>
</svg>