<?xml version="1.0" encoding="utf-8"?>
<!-- Generated by IcoMoon.io -->
<!DOCTYPE svg PUBLIC "-//W3C//DTD SVG 1.1//EN" "http://www.w3.org/Graphics/SVG/1.1/DTD/svg11.dtd">
<svg version="1.1" xmlns="http://www.w3.org/2000/svg" xmlns:xlink="http://www.w3.org/1999/xlink" width="60" height="60" viewBox="0 0 60 60">
<g id="icomoon-ignore">
	<line stroke-width="1" x1="" y1="" x2="" y2="" stroke="#449FDB" opacity=""></line>
</g>
	<path d="M58.75 60h-57.5c-0.32 0-0.624-0.154-0.81-0.416-0.188-0.258-0.24-0.592-0.138-0.898l12.5-38c0.132-0.41 0.518-0.688 0.95-0.688h32.5c0.432 0 0.816 0.278 0.95 0.688l12.5 38c0.102 0.302 0.048 0.638-0.138 0.898-0.192 0.262-0.494 0.416-0.814 0.416zM2.632 58h54.734l-11.842-36h-31.050l-11.842 36z" fill="#000000"></path>
	<path d="M40.522 29c-0.55 0-1-0.448-1-1v-18.25c0-4.78-3.17-7.75-8.272-7.75h-2.5c-4.444 0-9.228 2.424-9.228 7.75v18.25c0 0.552-0.448 1-1 1-0.55 0-1-0.448-1-1v-18.25c0-5.65 4.722-9.75 11.228-9.75h2.5c6.24 0 10.272 3.826 10.272 9.75v18.25c0 0.552-0.448 1-1 1z" fill="#000000"></path>
</svg>
