<!-- Generator: Adobe Illustrator 19.0.0, SVG Export Plug-In  -->
<svg version="1.1"
	 xmlns="http://www.w3.org/2000/svg" xmlns:xlink="http://www.w3.org/1999/xlink" xmlns:a="http://ns.adobe.com/AdobeSVGViewerExtensions/3.0/"
	 x="0px" y="0px" width="23.5px" height="18.9px" viewBox="0 0 23.5 18.9" style="enable-background:new 0 0 23.5 18.9;"
	 xml:space="preserve">
<style type="text/css">
	.st0{fill:#FFFFFF;}
</style>
<defs>
</defs>
<g id="XMLID_15_">
	<path id="XMLID_28_" class="st0" d="M21.7,15.1c0.4-0.6,0.4-1.5,0.1-2.1c-0.2-0.3-0.2-0.6,0-0.9c0.3-0.6,0.3-1.4,0-2.1
		c-0.1-0.2-0.4-0.3-0.7-0.2c-0.2,0.1-0.3,0.4-0.2,0.7c0.2,0.3,0.2,0.8,0,1.1c-0.3,0.6-0.3,1.3,0,1.9c0.2,0.3,0.2,0.8,0,1.1
		c-0.3,0.5-0.3,1.2,0,1.8c0.3,0.5,0.1,1.1-0.2,1.3c-0.2,0.1-0.5,0.3-0.9,0c-0.6-0.4-1.2-0.4-1.7,0c-0.3,0.2-0.6,0.2-0.8,0
		c-0.5-0.4-1.3-0.4-1.8,0c-0.2,0.2-0.6,0.2-0.8,0c-0.5-0.4-1.3-0.4-1.8,0c-0.2,0.2-0.6,0.2-0.8,0c-0.5-0.4-1.2-0.4-1.8,0
		c-0.2,0.2-0.6,0.2-0.8,0c-0.5-0.4-1.2-0.4-1.8,0c-0.3,0.2-0.6,0.2-0.8,0c-0.5-0.4-1.2-0.4-1.7,0c-0.3,0.2-0.5,0.1-0.7,0.1
		c-0.3-0.1-0.5-0.4-0.5-0.7c0-0.3-0.3-0.5-0.6-0.4c-0.3,0-0.5,0.3-0.4,0.6c0.1,0.7,0.5,1.3,1.1,1.5c0.6,0.2,1.2,0.1,1.6-0.2
		c0.1-0.1,0.3-0.2,0.5,0c0.6,0.5,1.4,0.5,2,0.1c0.2-0.1,0.4-0.1,0.6,0c0.6,0.4,1.4,0.4,2,0c0.2-0.1,0.4-0.1,0.6,0
		c0.6,0.4,1.4,0.4,2,0c0.2-0.1,0.4-0.1,0.6,0c0.6,0.4,1.4,0.4,2,0c0.2-0.1,0.4-0.1,0.6,0c0.6,0.4,1.4,0.4,2-0.1c0.2-0.2,0.5,0,0.5,0
		c0.3,0.2,0.7,0.3,1,0.3c0.4,0,0.8-0.2,1.1-0.5c0.6-0.6,1-1.6,0.4-2.6C21.6,15.6,21.6,15.3,21.7,15.1z"/>
	<path id="XMLID_27_" class="st0" d="M2.8,8.1c0,0.3,0.2,0.5,0.5,0.5c0.3,0,0.5-0.2,0.5-0.5c0-0.2,0.1-0.4,0.2-0.6
		C4.3,7,4.3,6.3,4,5.7C3.8,5.5,3.8,5.2,3.8,4.9c0.1-0.3,0.3-0.6,0.5-0.7C4.5,4.2,4.8,4.1,5,4.3c0.6,0.4,1.2,0.4,1.7,0
		c0.3-0.2,0.6-0.2,0.8,0c0.5,0.4,1.3,0.4,1.8,0c0.2-0.2,0.6-0.2,0.8,0c0.5,0.4,1.3,0.4,1.8,0c0.2-0.2,0.6-0.2,0.8,0
		c0.2,0.2,0.5,0.1,0.7-0.1c0.2-0.2,0.1-0.5-0.1-0.7c-0.6-0.4-1.4-0.4-2,0c-0.2,0.1-0.4,0.1-0.6,0c-0.6-0.4-1.4-0.4-2,0
		c-0.2,0.1-0.4,0.1-0.6,0C7.6,3,6.8,3.1,6.1,3.5c-0.2,0.2-0.5,0-0.5,0C5.1,3.1,4.5,3.1,4,3.3c-0.6,0.2-1,0.8-1.1,1.5
		c-0.1,0.5,0,1,0.3,1.4c0.2,0.3,0.2,0.6,0,0.8C2.9,7.3,2.8,7.7,2.8,8.1z"/>
	<path id="XMLID_26_" class="st0" d="M12.7,6c0-0.3-0.2-0.5-0.5-0.5H5.3C5,5.5,4.8,5.7,4.8,6v1c0,0.3,0.2,0.5,0.5,0.5
		c0.3,0,0.5-0.2,0.5-0.5V6.5h6.4C12.5,6.5,12.7,6.3,12.7,6z"/>
	<path id="XMLID_25_" class="st0" d="M12.4,16.5h6.9c0.3,0,0.5-0.2,0.5-0.5v-5c0-0.3-0.2-0.5-0.5-0.5c-0.3,0-0.5,0.2-0.5,0.5v4.5
		h-6.4c-0.3,0-0.5,0.2-0.5,0.5C11.9,16.3,12.1,16.5,12.4,16.5z"/>
	<path id="XMLID_22_" class="st0" d="M18.8,1.8c-1.7,0-3,1.4-3,3.1c0,1.7,1.3,3.1,3,3.1s3-1.4,3-3.1C21.8,3.1,20.5,1.8,18.8,1.8z
		 M18.8,6.9c-1.1,0-2-0.9-2-2.1c0-1.1,0.9-2.1,2-2.1s2,0.9,2,2.1C20.8,6,19.9,6.9,18.8,6.9z"/>
	<path id="XMLID_19_" class="st0" d="M18.8,0c-2.6,0-4.7,2.2-4.7,4.8c0,2.7,2.1,4.8,4.7,4.8s4.7-2.2,4.7-4.8C23.5,2.2,21.4,0,18.8,0
		z M18.8,8.7c-2.1,0-3.7-1.7-3.7-3.8S16.8,1,18.8,1s3.7,1.7,3.7,3.8S20.9,8.7,18.8,8.7z"/>
	<path id="XMLID_18_" class="st0" d="M0.9,10.5c0.5-0.5,1.3-0.5,1.8,0c0.9,0.9,2.3,0.9,3.2,0c0.5-0.5,1.3-0.5,1.8,0
		c0.4,0.4,1,0.7,1.6,0.7c0.6,0,1.2-0.2,1.6-0.7c0.2-0.2,0.2-0.5,0-0.7c-0.2-0.2-0.5-0.2-0.7,0c-0.5,0.5-1.3,0.5-1.8,0
		C7.4,8.9,6,8.9,5.1,9.8c-0.5,0.5-1.3,0.5-1.8,0C2.5,8.9,1,8.9,0.1,9.8c-0.2,0.2-0.2,0.5,0,0.7C0.3,10.7,0.7,10.7,0.9,10.5z"/>
	<path id="XMLID_17_" class="st0" d="M0.9,12.9c0.5-0.5,1.3-0.5,1.8,0c0.9,0.9,2.3,0.9,3.2,0c0.5-0.5,1.3-0.5,1.8,0
		c0.4,0.4,1,0.7,1.6,0.7c0.6,0,1.2-0.2,1.6-0.7c0.2-0.2,0.2-0.5,0-0.7c-0.2-0.2-0.5-0.2-0.7,0c-0.5,0.5-1.3,0.5-1.8,0
		c-0.9-0.9-2.3-0.9-3.2,0c-0.5,0.5-1.3,0.5-1.8,0c-0.9-0.9-2.3-0.9-3.2,0c-0.2,0.2-0.2,0.5,0,0.7C0.3,13.1,0.7,13.1,0.9,12.9z"/>
	<path id="XMLID_16_" class="st0" d="M5.8,15.3c0.5-0.5,1.3-0.5,1.8,0C8,15.7,8.6,16,9.2,16c0.6,0,1.2-0.2,1.6-0.7
		c0.2-0.2,0.2-0.5,0-0.7c-0.2-0.2-0.5-0.2-0.7,0c-0.5,0.5-1.3,0.5-1.8,0c-0.9-0.9-2.3-0.9-3.2,0c-0.5,0.5-1.3,0.5-1.8,0
		c-0.9-0.9-2.3-0.9-3.2,0c-0.2,0.2-0.2,0.5,0,0.7c0.2,0.2,0.5,0.2,0.7,0c0.5-0.5,1.3-0.5,1.8,0C3.5,16.2,5,16.2,5.8,15.3z"/>
</g>
</svg>
