<?xml version="1.0" encoding="utf-8"?>
<!-- Generator: Adobe Illustrator 16.0.4, SVG Export Plug-In . SVG Version: 6.00 Build 0)  -->
<!DOCTYPE svg PUBLIC "-//W3C//DTD SVG 1.1//EN" "http://www.w3.org/Graphics/SVG/1.1/DTD/svg11.dtd">
<svg version="1.1" id="Layer_1" xmlns="http://www.w3.org/2000/svg" xmlns:xlink="http://www.w3.org/1999/xlink" x="0px" y="0px"
	 width="32px" height="32px" viewBox="0 0 32 32" enable-background="new 0 0 32 32" xml:space="preserve">
<g>
	<g>
		
			<rect x="8.462" y="4.998" fill="#FFFFFF" stroke="#000000" stroke-width="0.7" stroke-linecap="round" stroke-linejoin="round" stroke-miterlimit="10" width="23.038" height="14.907"/>
	</g>
</g>
<g>
	
		<rect x="4.481" y="8.546" fill="#FFFFFF" stroke="#000000" stroke-width="0.7" stroke-linecap="round" stroke-linejoin="round" stroke-miterlimit="10" width="23.039" height="14.908"/>
</g>
<g>
	
		<line fill="#FFFFFF" stroke="#000000" stroke-width="0.7" stroke-linecap="round" stroke-linejoin="round" stroke-miterlimit="10" x1="4.481" y1="13.346" x2="6.103" y2="8.546"/>
	
		<line fill="#FFFFFF" stroke="#000000" stroke-width="0.7" stroke-linecap="round" stroke-linejoin="round" stroke-miterlimit="10" x1="9.949" y1="8.546" x2="4.911" y2="23.454"/>
	
		<line fill="#FFFFFF" stroke="#000000" stroke-width="0.7" stroke-linecap="round" stroke-linejoin="round" stroke-miterlimit="10" x1="13.794" y1="8.546" x2="8.756" y2="23.454"/>
	
		<line fill="#FFFFFF" stroke="#000000" stroke-width="0.7" stroke-linecap="round" stroke-linejoin="round" stroke-miterlimit="10" x1="17.641" y1="8.546" x2="12.603" y2="23.454"/>
	
		<line fill="#FFFFFF" stroke="#000000" stroke-width="0.7" stroke-linecap="round" stroke-linejoin="round" stroke-miterlimit="10" x1="21.486" y1="8.546" x2="16.448" y2="23.454"/>
	
		<line fill="#FFFFFF" stroke="#000000" stroke-width="0.7" stroke-linecap="round" stroke-linejoin="round" stroke-miterlimit="10" x1="25.332" y1="8.546" x2="20.294" y2="23.454"/>
	
		<line fill="#FFFFFF" stroke="#000000" stroke-width="0.7" stroke-linecap="round" stroke-linejoin="round" stroke-miterlimit="10" x1="27.52" y1="13.451" x2="24.14" y2="23.454"/>
	
		<line fill="#FFFFFF" stroke="#000000" stroke-width="0.7" stroke-linecap="round" stroke-linejoin="round" stroke-miterlimit="10" x1="4.481" y1="19.273" x2="8.105" y2="8.546"/>
	
		<line fill="#FFFFFF" stroke="#000000" stroke-width="0.7" stroke-linecap="round" stroke-linejoin="round" stroke-miterlimit="10" x1="11.951" y1="8.546" x2="6.913" y2="23.454"/>
	
		<line fill="#FFFFFF" stroke="#000000" stroke-width="0.7" stroke-linecap="round" stroke-linejoin="round" stroke-miterlimit="10" x1="15.796" y1="8.546" x2="10.759" y2="23.454"/>
	
		<line fill="#FFFFFF" stroke="#000000" stroke-width="0.7" stroke-linecap="round" stroke-linejoin="round" stroke-miterlimit="10" x1="19.644" y1="8.546" x2="14.605" y2="23.454"/>
	
		<line fill="#FFFFFF" stroke="#000000" stroke-width="0.7" stroke-linecap="round" stroke-linejoin="round" stroke-miterlimit="10" x1="23.488" y1="8.546" x2="18.451" y2="23.454"/>
	
		<line fill="#FFFFFF" stroke="#000000" stroke-width="0.7" stroke-linecap="round" stroke-linejoin="round" stroke-miterlimit="10" x1="27.334" y1="8.546" x2="22.297" y2="23.454"/>
	
		<line fill="#FFFFFF" stroke="#000000" stroke-width="0.7" stroke-linecap="round" stroke-linejoin="round" stroke-miterlimit="10" x1="27.52" y1="19.379" x2="26.143" y2="23.454"/>
</g>
<g>
	<g>
		
			<rect x="0.5" y="12.095" fill="#FFFFFF" stroke="#000000" stroke-width="0.7" stroke-linecap="round" stroke-linejoin="round" stroke-miterlimit="10" width="23.038" height="14.907"/>
	</g>
	<g>
		<circle cx="2.552" cy="24.158" r="1.208"/>
		<circle cx="7.127" cy="24.158" r="1.208"/>
		<circle cx="11.702" cy="24.158" r="1.208"/>
		<circle cx="16.276" cy="24.158" r="1.208"/>
		<circle cx="20.851" cy="24.158" r="1.208"/>
		<circle cx="2.552" cy="19.837" r="1.208"/>
		<circle cx="7.127" cy="19.837" r="1.208"/>
		<circle cx="11.702" cy="19.837" r="1.208"/>
		<circle cx="16.276" cy="19.837" r="1.208"/>
		<circle cx="20.851" cy="19.837" r="1.208"/>
		<circle cx="2.552" cy="15.516" r="1.208"/>
		<circle cx="7.127" cy="15.516" r="1.208"/>
		<circle cx="11.702" cy="15.516" r="1.208"/>
		<circle cx="16.276" cy="15.516" r="1.208"/>
		<circle cx="20.851" cy="15.516" r="1.208"/>
	</g>
</g>
</svg>
