<?xml version="1.0" encoding="UTF-8" standalone="no"?>
<svg width="487px" height="38px" viewBox="0 0 487 38" version="1.1" xmlns="http://www.w3.org/2000/svg" xmlns:xlink="http://www.w3.org/1999/xlink">
    <!-- Generator: sketchtool 41 (35326) - http://www.bohemiancoding.com/sketch -->
    <title>4405A7DB-A9CC-406E-AA37-58799B090170</title>
    <desc>Created with sketchtool.</desc>
    <defs></defs>
    <g id="Desktop-Main" stroke="none" stroke-width="1" fill="none" fill-rule="evenodd">
        <g id="Screen-1" transform="translate(-852.000000, -350.000000)" fill="#FFFFFF">
            <g id="Logo" transform="translate(852.000000, 350.000000)">
                <g id="Slice-1">
                    <g id="Page-1">
                        <path d="M126.136832,37.4047763 L148.9244,37.4047763 L148.9244,30.8677966 L132.579896,30.8677966 L132.579896,22.3294592 L145.725224,22.3294592 L145.725224,15.839849 L132.579896,15.839849 L132.579896,7.30809064 L148.9244,7.30809064 L148.9244,0.76716361 L126.136832,0.76716361 L126.136832,37.4047763 L126.136832,37.4047763 L126.136832,37.4047763 L126.136832,37.4047763 Z M450.631903,10.7364522 C450.631903,5.32647002 447.785887,0.757294981 438.461816,0.757294981 L431.070728,0.757294981 L431.070728,37.3968813 L435.156369,37.3968813 L435.156369,21.7379993 C437.08352,21.7873424 438.873297,21.6458922 440.532823,21.3182537 C442.69196,23.9327823 447.726273,30.8434539 452.616727,37.3968813 L457.877841,37.3968813 C451.875416,29.6013227 445.186112,20.7524523 444.515432,19.9649357 C448.427407,18.0977912 450.631903,14.7918007 450.631903,10.7364522 L450.631903,10.7364522 L450.631903,10.7364522 L450.631903,10.7364522 Z M435.156369,20.6938985 L435.156369,1.73428921 L437.363456,1.73428921 C442.271409,1.92442479 446.403703,5.70147791 446.403703,11.5766015 C446.403703,17.0740854 443.142321,20.7846898 435.156369,20.6938985 L435.156369,20.6938985 L435.156369,20.6938985 L435.156369,20.6938985 Z M0.5,37.4047763 L6.942416,37.4047763 L6.942416,22.3294592 L20.0864479,22.3294592 L20.0864479,15.839849 L6.942416,15.839849 L6.942416,7.30809064 L23.2843279,7.30809064 L23.2843279,0.76716361 L0.5,0.76716361 L0.5,37.4047763 L0.5,37.4047763 L0.5,37.4047763 L0.5,37.4047763 Z M178.00988,6.92387202 L174.898184,0.505973907 L171.786488,6.92387202 L170.918168,8.70022518 L170.06216,10.4660518 L171.786488,10.4660518 L172.643792,8.70022518 L177.14156,8.70022518 L178.00988,10.4660518 L179.719952,10.4660518 L178.863296,8.70022518 L178.00988,6.92387202 L178.00988,6.92387202 L178.00988,6.92387202 L178.00988,6.92387202 Z M173.49656,6.92387202 L174.898184,4.05012739 L176.285552,6.92387202 L173.49656,6.92387202 L173.49656,6.92387202 L173.49656,6.92387202 L173.49656,6.92387202 Z M77.186912,0.76716361 L77.186912,37.4047763 L83.6325681,37.4047763 L83.6325681,16.5701275 L93.2709201,26.3617809 L93.3247041,26.3617809 L102.964352,16.5701275 L102.964352,37.4047763 L109.407416,37.4047763 L109.407416,0.76716361 L93.2709201,17.1477713 L77.186912,0.76716361 L77.186912,0.76716361 L77.186912,0.76716361 L77.186912,0.76716361 Z M470.476905,8.12784472 C470.476905,7.29230084 470.627887,6.40346635 470.826825,5.59423881 C471.259687,3.84157036 472.172073,2.60272852 473.738937,1.71718359 C477.972321,-0.669050804 482.0288,4.31986991 484.294209,7.28572174 L484.294209,2.71852044 C482.005472,0.994799976 479.654529,0.292153621 476.947184,0.292153621 C473.184247,0.292153621 467.398256,3.04550098 467.398256,9.47589938 C467.398256,20.3827076 482.922393,20.617581 482.922393,29.3348697 C482.922393,31.5967593 482.357985,34.6816926 480.323912,36.0146153 C478.956633,36.910029 477.000319,36.8843706 475.447713,36.6376549 C473.659233,36.3488329 472.27964,35.1455181 471.008911,33.9158869 C469.747905,32.7092826 468.648248,31.3974129 467.676248,29.9427771 L467.676248,34.650113 C469.235983,36.4205449 472.631504,37.91005 475.478817,37.91005 C481.216208,37.91005 486.5,34.2323411 486.5,28.2144513 C486.5,16.2378837 470.476905,16.8911869 470.476905,8.12784472 L470.476905,8.12784472 L470.476905,8.12784472 L470.476905,8.12784472 Z M59.3435841,24.3748969 L47.8979601,0.76716361 L36.4529841,24.3748969 L33.258344,30.9184557 L30.1123039,37.4047763 L36.4529841,37.4047763 L39.5951361,30.9184557 L56.1495919,30.9184557 L59.3435841,37.4047763 L65.6382561,37.4047763 L62.4870321,30.9184557 L59.3435841,24.3748969 L59.3435841,24.3748969 L59.3435841,24.3748969 L59.3435841,24.3748969 Z M42.7437679,24.3748969 L47.8979601,13.7990166 L53.003552,24.3748969 L42.7437679,24.3748969 L42.7437679,24.3748969 L42.7437679,24.3748969 L42.7437679,24.3748969 Z M254.646249,0.756637073 L257.189001,7.18243011 L245.296256,37.3968813 L247.408089,37.3968813 L258.205063,9.75485261 L269.149136,37.3968813 L273.614504,37.3968813 L259.092824,0.756637073 L254.646249,0.756637073 L254.646249,0.756637073 L254.646249,0.756637073 L254.646249,0.756637073 Z M384.466569,30.317785 L358.249135,0.757294981 L354.260049,0.757294981 L354.260049,37.3968813 L356.22284,37.3968813 L356.22284,4.77185309 L385.747665,37.3968813 L386.439729,37.3968813 L386.439729,0.757294981 L384.466569,0.757294981 L384.466569,30.317785 L384.466569,30.317785 L384.466569,30.317785 L384.466569,30.317785 Z M314.542183,2.67180892 L327.036271,2.67180892 L327.036271,37.3968813 L331.119321,37.3968813 L331.119321,2.67180892 L343.560271,2.67180892 L343.560271,0.757294981 L314.542183,0.757294981 L314.542183,2.67180892 L314.542183,2.67180892 L314.542183,2.67180892 L314.542183,2.67180892 Z M186.051559,19.6557187 L180.477465,13.9786256 L180.477465,23.9380457 L182.212808,23.9380457 L182.212808,18.2727949 L186.051559,22.1623504 L187.805697,23.9380457 L187.805697,13.9786256 L186.051559,13.9786256 L186.051559,19.6557187 L186.051559,19.6557187 L186.051559,19.6557187 L186.051559,19.6557187 Z M304.625839,10.7364522 C304.625839,5.32647002 301.782417,0.757294981 292.463528,0.757294981 L285.065961,0.757294981 L285.065961,37.3968813 L289.158728,37.3968813 L289.158728,21.7379993 C291.088473,21.7873424 292.874359,21.6458922 294.526112,21.3182537 C296.693025,23.9327823 301.7228,30.8434539 306.620385,37.3968813 L311.881497,37.3968813 C305.879072,29.6013227 299.191712,20.7524523 298.519088,19.9649357 C302.430416,18.0977912 304.625839,14.7918007 304.625839,10.7364522 L304.625839,10.7364522 L304.625839,10.7364522 L304.625839,10.7364522 Z M289.158728,20.6938985 L289.158728,1.73428921 L291.359983,1.73428921 C296.270527,1.92442479 300.401527,5.70147791 300.401527,11.5766015 C300.401527,17.0740854 297.145977,20.7846898 289.158728,20.6938985 L289.158728,20.6938985 L289.158728,20.6938985 L289.158728,20.6938985 Z M225.873105,0.759926615 L218.480073,0.759926615 L218.480073,37.3968813 L222.568952,37.3968813 L222.568952,21.7406309 C225.483657,21.8103693 229.021735,21.3735181 231.956528,20.0149367 C234.266647,18.9399142 236.200927,17.2918532 237.155431,14.8510124 C237.632361,13.6319079 238.036713,12.0581905 238.036713,10.7364522 C238.036713,5.32647002 235.194585,0.759926615 225.873105,0.759926615 L225.873105,0.759926615 L225.873105,0.759926615 L225.873105,0.759926615 Z M222.568952,20.6938985 L222.568952,1.73692085 L224.772151,1.73692085 C229.682697,1.92574061 233.818233,5.70147791 233.818233,11.5766015 C233.818233,17.0754013 230.555551,20.7846898 222.568952,20.6938985 L222.568952,20.6938985 L222.568952,20.6938985 L222.568952,20.6938985 Z M195.904401,28.9059133 C195.457928,28.4572196 194.941471,28.0973435 194.349201,27.8394434 C193.756928,27.5822012 193.115408,27.4473299 192.435008,27.4473299 L189.436713,27.4473299 L189.436713,37.4047763 L192.435008,37.4047763 C193.115408,37.4047763 193.756928,37.2738523 194.349201,37.0152944 C194.941471,36.7560784 195.457928,36.3988339 195.904401,35.9475086 C196.348927,35.498815 196.697553,34.9659091 196.954808,34.3593174 C197.212065,33.7566731 197.33972,33.1092911 197.33972,32.4257241 C197.33972,31.7441307 197.212065,31.0967488 196.954808,30.4914728 C196.697553,29.8861971 196.348927,29.3559226 195.904401,28.9059133 L195.904401,28.9059133 L195.904401,28.9059133 L195.904401,28.9059133 Z M195.358137,33.6796978 C195.194193,34.0652323 194.966096,34.4040553 194.678384,34.6974824 C194.388081,34.9863043 194.051119,35.2139406 193.668799,35.375786 C193.287777,35.5468424 192.872408,35.6330284 192.435008,35.6330284 L191.18696,35.6330284 L191.18696,29.2256568 L192.435008,29.2256568 C192.872408,29.2256568 193.287777,29.3065795 193.668799,29.4776358 C194.051119,29.6381654 194.388081,29.8723811 194.678384,30.1638345 C194.966096,30.4605513 195.194193,30.8026636 195.358137,31.1908298 C195.519489,31.5750484 195.603081,31.9862412 195.603081,32.4257241 C195.603081,32.8763914 195.519489,33.2928476 195.358137,33.6796978 L195.358137,33.6796978 L195.358137,33.6796978 L195.358137,33.6796978 Z M400.435232,37.4238556 L417.064208,37.4238556 L417.064208,35.556711 L404.527999,35.556711 L404.527999,16.9681622 L414.903777,16.9681622 L412.672712,15.1391764 L404.527999,15.1391764 L404.527999,2.69286199 L417.064208,2.69286199 L417.064208,0.78032178 L400.435232,0.78032178 L400.435232,37.4238556 L400.435232,37.4238556 L400.435232,37.4238556 L400.435232,37.4238556 Z" id="LOGO"></path>
                    </g>
                </g>
            </g>
        </g>
    </g>
</svg>