<svg xmlns="http://www.w3.org/2000/svg" xmlns:xlink="http://www.w3.org/1999/xlink"><defs><style>
    .sprite-symbol-usage {display: none;}
    .sprite-symbol-usage:target {display: inline;}
  </style>
<symbol viewBox="0 0 213 17" id="i-fame-logo">
    <!-- Generator: Sketch 44.1 (41455) - http://www.bohemiancoding.com/sketch -->
    <title>Fame and Partners Logo</title>
    <defs></defs>
    <g id="i-fame-logo_Grid" stroke="none" stroke-width="1" fill="none" fill-rule="evenodd">
        <g id="i-fame-logo_XXXXXL" transform="translate(-1859.000000, -21.000000)" fill-rule="nonzero" fill="#000000">
            <g id="i-fame-logo_logo" transform="translate(1859.000000, 21.000000)">
                <path d="M55.0510782,15.873752 L65.0360497,15.873752 L65.0360497,13.0777655 L57.8742761,13.0777655 L57.8742761,9.42576135 L63.6342469,9.42576135 L63.6342469,6.65003559 L57.8742761,6.65003559 L57.8742761,3.00084544 L65.0360497,3.00084544 L65.0360497,0.203170518 L55.0510782,0.203170518 L55.0510782,15.873752 L55.0510782,15.873752 L55.0510782,15.873752 Z M197.237118,4.46721882 C197.237118,2.15326981 195.990061,0.198949524 191.904474,0.198949524 L188.665875,0.198949524 L188.665875,15.8703752 L190.456105,15.8703752 L190.456105,9.17278304 C191.300537,9.19388802 192.084775,9.13338716 192.81194,8.99325015 C193.758023,10.1115322 195.963939,13.0673537 198.10682,15.8703752 L200.412115,15.8703752 C197.781995,12.5360712 194.850901,8.75124648 194.557025,8.41441111 C196.27116,7.61579904 197.237118,6.201766 197.237118,4.46721882 L197.237118,4.46721882 L197.237118,4.46721882 Z M190.456105,8.7262019 L190.456105,0.616827943 L191.423199,0.616827943 C193.573747,0.698152431 195.384421,2.3136676 195.384421,4.82656612 C195.384421,7.17794123 193.95536,8.76503502 190.456105,8.7262019 L190.456105,8.7262019 L190.456105,8.7262019 Z M0,15.873752 L2.8229138,15.873752 L2.8229138,9.42576135 L8.58231666,9.42576135 L8.58231666,6.65003559 L2.8229138,6.65003559 L2.8229138,3.00084544 L9.98355178,3.00084544 L9.98355178,0.203170518 L0,0.203170518 L0,15.873752 L0,15.873752 L0,15.873752 Z M77.7806166,2.83650806 L76.4171454,0.0914548733 L75.0536742,2.83650806 L74.673197,3.59628702 L74.2981147,4.35156356 L75.0536742,4.35156356 L75.4293245,3.59628702 L77.4001395,3.59628702 L77.7806166,4.35156356 L78.5299298,4.35156356 L78.1545636,3.59628702 L77.7806166,2.83650806 L77.7806166,2.83650806 L77.7806166,2.83650806 Z M75.8029869,2.83650806 L76.4171454,1.60735457 L77.0250571,2.83650806 L75.8029869,2.83650806 L75.8029869,2.83650806 L75.8029869,2.83650806 Z M33.6023849,0.203170518 L33.6023849,15.873752 L36.4267184,15.873752 L36.4267184,6.96238915 L40.6500155,11.1504596 L40.6735824,11.1504596 L44.8974474,6.96238915 L44.8974474,15.873752 L47.7206449,15.873752 L47.7206449,0.203170518 L40.6500155,7.20945801 L33.6023849,0.203170518 L33.6023849,0.203170518 L33.6023849,0.203170518 Z M205.932726,3.35146935 C205.932726,2.99409185 205.998883,2.61392098 206.086053,2.26779946 C206.275723,1.51815089 206.675508,0.988275428 207.362071,0.609511556 C209.21704,-0.41112483 210.994493,1.72272841 211.987141,2.99127785 L211.987141,1.03780176 C210.984271,0.300534783 209.954143,0 208.767849,0 C207.119019,0 204.583735,1.17765736 204.583735,3.92805715 C204.583735,8.59309986 211.386044,8.69355952 211.386044,12.4221044 C211.386044,13.3895562 211.138734,14.709039 210.247451,15.2791546 C209.648342,15.6621395 208.791132,15.6511649 208.110816,15.5456401 C207.327147,15.4221056 206.722642,14.9074257 206.165839,14.3814898 C205.613296,13.8654029 205.131452,13.3042921 204.705545,12.6821176 L204.705545,14.6955318 C205.388984,15.4527781 206.87682,16.0898669 208.124445,16.0898669 C210.638434,16.0898669 212.953666,14.5168431 212.953666,11.9428808 C212.953666,6.82028233 205.932726,7.09971215 205.932726,3.35146935 L205.932726,3.35146935 L205.932726,3.35146935 Z M25.7838621,10.3006327 L20.7686612,0.203170518 L15.7537444,10.3006327 L14.3539289,13.0994333 L12.9754088,15.873752 L15.7537444,15.873752 L17.1305608,13.0994333 L24.3843305,13.0994333 L25.7838621,15.873752 L28.542038,15.873752 L27.1612464,13.0994333 L25.7838621,10.3006327 L25.7838621,10.3006327 L25.7838621,10.3006327 Z M18.5102166,10.3006327 L20.7686612,5.777134 L23.0058105,10.3006327 L18.5102166,10.3006327 L18.5102166,10.3006327 L18.5102166,10.3006327 Z M111.360855,0.198668125 L112.475028,2.94709812 L107.26391,15.8703752 L108.189265,15.8703752 L112.920243,4.04737059 L117.715676,15.8703752 L119.672294,15.8703752 L113.309239,0.198668125 L111.360855,0.198668125 L111.360855,0.198668125 L111.360855,0.198668125 Z M168.245038,12.8425154 L156.757181,0.198949524 L155.009258,0.198949524 L155.009258,15.8703752 L155.869306,15.8703752 L155.869306,1.91604994 L168.806384,15.8703752 L169.10963,15.8703752 L169.10963,0.198949524 L168.245038,0.198949524 L168.245038,12.8425154 L168.245038,12.8425154 L168.245038,12.8425154 Z M137.605832,1.01782238 L143.080445,1.01782238 L143.080445,15.8703752 L144.86954,15.8703752 L144.86954,1.01782238 L150.320869,1.01782238 L150.320869,0.198949524 L137.605832,0.198949524 L137.605832,1.01782238 L137.605832,1.01782238 L137.605832,1.01782238 Z M81.3042898,8.28215329 L78.8618537,5.85395606 L78.8618537,10.1137834 L79.62224,10.1137834 L79.62224,7.69065134 L81.3042898,9.35428585 L82.0729111,10.1137834 L82.0729111,5.85395606 L81.3042898,5.85395606 L81.3042898,8.28215329 L81.3042898,8.28215329 L81.3042898,8.28215329 Z M133.260725,4.46721882 C133.260725,2.15326981 132.014805,0.198949524 127.931489,0.198949524 L124.690051,0.198949524 L124.690051,15.8703752 L126.483404,15.8703752 L126.483404,9.17278304 C127.328972,9.19388802 128.111506,9.13338716 128.835264,8.99325015 C129.784754,10.1115322 131.988682,13.0673537 134.134688,15.8703752 L136.439982,15.8703752 C133.809862,12.5360712 130.87962,8.75124648 130.584892,8.41441111 C132.298743,7.61579904 133.260725,6.201766 133.260725,4.46721882 L133.260725,4.46721882 L133.260725,4.46721882 Z M126.483404,8.7262019 L126.483404,0.616827943 L127.447942,0.616827943 C129.599626,0.698152431 131.409732,2.3136676 131.409732,4.82656612 C131.409732,7.17794123 129.983227,8.76503502 126.483404,8.7262019 L126.483404,8.7262019 L126.483404,8.7262019 Z M98.7531459,0.200075122 L95.5136947,0.200075122 L95.5136947,15.8703752 L97.3053446,15.8703752 L97.3053446,9.17390865 C98.5824993,9.20373705 100.132801,9.01688772 101.418758,8.43579747 C102.430997,7.97599055 103.278553,7.27108451 103.696794,6.22709195 C103.905773,5.7056585 104.08295,5.03255063 104.08295,4.46721882 C104.08295,2.15326981 102.837597,0.200075122 98.7531459,0.200075122 L98.7531459,0.200075122 L98.7531459,0.200075122 Z M97.3053446,8.7262019 L97.3053446,0.617953543 L98.2707343,0.617953543 C100.422419,0.698715232 102.234512,2.3136676 102.234512,4.82656612 C102.234512,7.17850406 100.804883,8.76503502 97.3053446,8.7262019 L97.3053446,8.7262019 L97.3053446,8.7262019 Z M85.621571,12.2386318 C85.4259373,12.0467173 85.1996383,11.8927917 84.9401193,11.7824831 C84.6805995,11.6724558 84.3995006,11.6147689 84.1013655,11.6147689 L82.7875836,11.6147689 L82.7875836,15.873752 L84.1013655,15.873752 C84.3995006,15.873752 84.6805995,15.8177534 84.9401193,15.7071634 C85.1996383,15.596292 85.4259373,15.443492 85.621571,15.2504518 C85.8163521,15.0585373 85.9691114,14.8306036 86.0818346,14.5711532 C86.1945586,14.3133911 86.2504939,14.0364939 86.2504939,13.7441198 C86.2504939,13.4525897 86.1945586,13.1756925 86.0818346,12.9168048 C85.9691114,12.6579173 85.8163521,12.4311091 85.621571,12.2386318 L85.621571,12.2386318 L85.621571,12.2386318 Z M85.3822111,14.2804674 C85.310375,14.4453676 85.2104282,14.5902884 85.0843596,14.7157926 C84.9571556,14.839327 84.8095072,14.9366913 84.6419833,15.0059155 C84.4750285,15.0790795 84.2930238,15.1159429 84.1013655,15.1159429 L83.5545005,15.1159429 L83.5545005,12.375392 L84.1013655,12.375392 C84.2930238,12.375392 84.4750285,12.4100042 84.6419833,12.4831681 C84.8095072,12.5518295 84.9571556,12.6520079 85.0843596,12.7766679 C85.2104282,12.9035791 85.310375,13.0499069 85.3822111,13.2159327 C85.4529117,13.3802701 85.4895397,13.5561448 85.4895397,13.7441198 C85.4895397,13.9368784 85.4529117,14.1150044 85.3822111,14.2804674 L85.3822111,14.2804674 L85.3822111,14.2804674 Z M175.242127,15.8819126 L182.52855,15.8819126 L182.52855,15.0833005 L177.035481,15.0833005 L177.035481,7.1326359 L181.5819,7.1326359 L180.604301,6.350345 L177.035481,6.350345 L177.035481,1.02682717 L182.52855,1.02682717 L182.52855,0.20879851 L175.242127,0.20879851 L175.242127,15.8819126 L175.242127,15.8819126 L175.242127,15.8819126 Z" id="i-fame-logo_LOGO-Copy-3" />
            </g>
        </g>
    </g>
</symbol>

<symbol viewBox="0 0 16 9" id="carat">
    <!-- Generator: Sketch 42 (36781) - http://www.bohemiancoding.com/sketch -->
    <title>carat</title>
    <defs></defs>
    <g id="carat_Assets" stroke="none" stroke-width="1" fill="none" fill-rule="evenodd">
        <g id="carat_carrot" fill-rule="nonzero" fill="#000000">
            <path d="M0.901910707,0.159216198 C0.695586156,-0.053072066 0.361067964,-0.053072066 0.154743413,0.159216198 C-0.0515811378,0.371504462 -0.0515811378,0.715691743 0.154743413,0.927980007 L8,9 L15.8452566,0.927980007 C16.0515811,0.715691743 16.0515811,0.371504462 15.8452566,0.159216198 C15.638932,-0.053072066 15.3044138,-0.053072066 15.0980893,0.159216198 L8,7.46247238 L0.901910707,0.159216198 Z" id="carat_Stroke-2" />
        </g>
    </g>
</symbol>

<symbol viewBox="0 0 18 18" id="i-search">
    <!-- Generator: Sketch 44.1 (41455) - http://www.bohemiancoding.com/sketch -->
    <title>Search Icon</title>
    <defs></defs>
    <g id="i-search_Grid" stroke="none" stroke-width="1" fill="none" fill-rule="evenodd">
        <g id="i-search_XXXXXL" transform="translate(-2583.000000, -18.000000)" fill-rule="nonzero" fill="#010101">
            <g id="i-search_1489720454_131" transform="translate(2583.000000, 18.000000)">
                <path d="M16.0125,1.95 C14.5125,0.45 12.375,-0.15 10.2375,0.3375 C9.7125,0.45 9.1875,0.675 8.7375,0.9375 C5.4,2.8875 4.8,7.125 6.9,9.9 C6.975,10.0125 6.975,10.1625 6.8625,10.275 L0.375,16.8375 C0.15,17.0625 0.1125,17.4 0.3,17.625 C0.4125,17.775 0.5625,17.8125 0.7125,17.8125 C0.8625,17.8125 1.0125,17.775 1.125,17.6625 L7.65,11.1375 C7.7625,11.025 7.9125,11.025 8.025,11.1 C9.4875,12.225 11.3625,12.6 13.2375,12.15 C13.7625,12.0375 14.25,11.8125 14.7,11.55 C18.3375,9.4125 18.75,4.6875 16.0125,1.95 Z M15.225,9.75 C14.2875,10.6875 13.05,11.2125 11.7375,11.2125 C10.425,11.2125 9.1875,10.6875 8.25,9.75 C7.3125,8.8125 6.7875,7.575 6.7875,6.2625 C6.7875,4.95 7.3125,3.7125 8.25,2.775 C9.1875,1.8375 10.425,1.3125 11.7375,1.3125 C13.05,1.3125 14.2875,1.8375 15.225,2.775 C16.1625,3.7125 16.6875,4.95 16.6875,6.2625 C16.6875,7.575 16.1625,8.8125 15.225,9.75 Z" id="i-search_Shape" />
            </g>
        </g>
    </g>
</symbol>

<symbol viewBox="0 0 38 36" id="share-facebook">
  <!-- Generator: Sketch 46.1 (44463) - http://www.bohemiancoding.com/sketch -->
  <desc>Created with Sketch.</desc>
  <defs></defs>
  <g id="share-facebook_Style" stroke="none" stroke-width="1" fill="none" fill-rule="evenodd">
    <g id="share-facebook_Styleguide-Copy" transform="translate(-497.000000, -1955.000000)">
      <g id="share-facebook_1495342956_social_media_circled_network-13-copy" transform="translate(497.000000, 1955.000000)"></g>
      <path d="M535,1973.5 C535,1983.16462 527.16462,1991 517.5,1991 C507.83531,1991 500,1983.16462 500,1973.5 C500,1963.83531 507.83531,1956 517.5,1956 C527.16462,1956 535,1963.83531 535,1973.5 L535,1973.5 Z" id="share-facebook_Shape" fill="#000000" fill-rule="nonzero" />
      <path d="M522.10338,1974.3967 L518.98082,1974.3967 L518.98082,1985.83589 L514.25001,1985.83589 L514.25001,1974.3967 L512,1974.3967 L512,1970.37527 L514.25001,1970.37527 L514.25001,1967.77407 C514.25001,1965.91403 515.13327,1963 519.02345,1963 L522.52681,1963.01519 L522.52681,1966.91783 L519.98462,1966.91783 C519.56728,1966.91783 518.98082,1967.12636 518.98082,1968.01305 L518.98082,1970.3801 L522.51771,1970.3801 L522.10338,1974.3967 Z" id="share-facebook_Shape" fill="#FFFFFF" fill-rule="nonzero" />
    </g>
  </g>
</symbol>
<symbol viewBox="0 0 38 35" id="share-twitter">
  <!-- Generator: Sketch 46.1 (44463) - http://www.bohemiancoding.com/sketch -->
  <desc>Created with Sketch.</desc>
  <defs></defs>
  <g id="share-twitter_Style" stroke="none" stroke-width="1" fill="none" fill-rule="evenodd">
    <g id="share-twitter_Styleguide-Copy" transform="translate(-611.000000, -1956.000000)">
      <g id="share-twitter_instagram-copy" transform="translate(611.000000, 1956.000000)"></g>
      <circle id="share-twitter_Oval" fill="#000000" fill-rule="nonzero" cx="631.5" cy="1973.5" r="17.5" />
      <path d="M641.101644,1967.83494 C640.386376,1968.15185 639.627673,1968.35985 638.850786,1968.45199 C639.66923,1967.96228 640.281681,1967.19167 640.573982,1966.2838 C639.804696,1966.74033 638.963007,1967.06197 638.085304,1967.23478 C636.87036,1965.94354 634.940341,1965.62772 633.377203,1966.46438 C631.814065,1967.30104 631.006418,1969.08217 631.407023,1970.80928 C628.255598,1970.65157 625.319348,1969.16317 623.329169,1966.71459 C622.289515,1968.50534 622.820497,1970.79575 624.542043,1971.94637 C623.919731,1971.9269 623.311105,1971.75884 622.766978,1971.45622 L622.766978,1971.50555 C622.767338,1973.37127 624.082153,1974.9784 625.910823,1975.34836 C625.333676,1975.50515 624.728354,1975.5281 624.14099,1975.41548 C624.654216,1977.01193 626.12541,1978.10565 627.802034,1978.13719 C626.41383,1979.22668 624.699517,1979.81756 622.934843,1979.8148 C622.622426,1979.81488 622.310274,1979.79662 622,1979.76009 C625.431121,1981.95786 629.788079,1982.10815 633.362488,1980.15204 C636.936896,1978.19592 639.159007,1974.4452 639.157518,1970.37056 C639.157518,1970.20065 639.153731,1970.03164 639.146157,1969.86352 C639.913362,1969.30891 640.57555,1968.62197 641.101644,1967.83494 Z" id="share-twitter_Shape" fill="#FFFFFF" fill-rule="nonzero" />
    </g>
  </g>
</symbol>
<symbol viewBox="0 0 39 36" id="share-pinterest">
  <!-- Generator: Sketch 46.1 (44463) - http://www.bohemiancoding.com/sketch -->
  <desc>Created with Sketch.</desc>
  <defs></defs>
  <g id="share-pinterest_Style" stroke="none" stroke-width="1" fill="none" fill-rule="evenodd">
    <g id="share-pinterest_Styleguide-Copy" transform="translate(-554.000000, -1956.000000)">
      <g id="share-pinterest_twitter-copy" transform="translate(554.000000, 1956.000000)"></g>
      <path d="M574.560976,1956 C564.862113,1956 557,1963.86211 557,1973.56098 C557,1983.25984 564.862113,1991.12195 574.560976,1991.12195 C584.259839,1991.12195 592.121951,1983.25984 592.121951,1973.56098 C592.121951,1963.86211 584.259839,1956 574.560976,1956 Z M581.577377,1975.55294 C580.800905,1977.32616 578.792197,1978.77068 576.830663,1978.87911 C575.515112,1978.95139 573.954939,1978.79807 573.31999,1977.50306 C573.235533,1978.12926 572.80678,1979.87509 572.626833,1980.50053 C572.431669,1981.17695 572.255527,1982.13755 571.70998,1982.6344 C571.412859,1982.90489 570.156656,1983.59424 569.823012,1982.71505 C569.38589,1981.56423 570.320243,1978.89623 570.671006,1977.59285 C570.859323,1976.89056 570.973074,1976.20311 571.0834,1975.48599 C571.175466,1974.89098 571.436065,1974.32527 571.463457,1973.71962 C571.49199,1973.0957 571.281228,1972.487 571.265249,1971.86537 C571.249651,1971.21977 571.261825,1970.51444 571.601175,1969.94226 C572.155472,1969.00752 573.588578,1968.28774 574.563639,1968.99573 C575.449677,1969.63829 575.27886,1971.01547 574.950543,1971.91749 C574.715433,1972.56271 574.530541,1973.11472 574.397007,1973.79609 C574.302278,1974.27696 574.197658,1974.9956 573.984613,1975.41637 C574.670541,1976.11409 574.958152,1976.82855 576.069028,1976.82094 C576.875935,1976.816 577.693875,1976.37697 578.177791,1975.73213 C578.650294,1975.10289 579.076383,1974.3656 579.386059,1973.64277 C579.858562,1972.53874 579.793127,1971.11819 579.68318,1969.94416 C579.574756,1968.79144 578.980513,1967.73686 578.052627,1967.04561 C575.83582,1965.39527 572.135309,1965.75973 570.357146,1967.9092 C569.283552,1969.20763 568.756647,1971.01661 568.94154,1972.69244 C569.004692,1973.265 569.49051,1973.64239 569.757577,1974.12136 C570.004861,1974.56533 569.977089,1975.62066 569.535402,1975.9992 C569.08991,1976.38001 568.412732,1975.62941 568.081752,1975.3243 C567.135224,1974.4512 566.728537,1973.34299 566.535275,1972.09477 C566.425709,1971.3864 566.474405,1970.55476 566.718265,1969.90954 C566.993321,1969.18443 567.186203,1968.4616 567.646151,1967.86964 C568.033817,1967.37088 568.462189,1966.80822 568.893604,1966.34104 C569.296868,1965.90468 569.784208,1965.62582 570.349157,1965.34277 C570.950628,1965.04109 571.508348,1964.6519 572.134928,1964.43429 C572.842541,1964.18853 573.536078,1964.08048 574.272604,1964.01809 C575.479731,1963.91613 577.032675,1963.95912 578.164095,1964.50886 C579.071057,1964.9494 580.062857,1965.53337 580.818405,1966.2737 C581.810204,1967.2461 582.473306,1968.90405 582.6076,1970.25574 C582.78184,1972.00841 582.277381,1973.95435 581.577377,1975.55294 Z" id="share-pinterest_Shape" fill="#000000" fill-rule="nonzero" />
    </g>
  </g>
</symbol>
<symbol viewBox="0 0 17 17" id="i-share">
    <!-- Generator: Sketch 44.1 (41455) - http://www.bohemiancoding.com/sketch -->
    <title>Share Icon</title>
    <defs></defs>
    <g id="i-share_Grid" stroke="none" stroke-width="1" fill="none" fill-rule="evenodd">
        <g id="i-share_XXXXXL" transform="translate(-2624.000000, -227.000000)" fill-rule="nonzero" fill="#010202">
            <g id="i-share_Group-16" transform="translate(2589.000000, 225.000000)">
                <path d="M51.9423751,8.40857875 L44.7742974,2.05210398 C44.712832,2.00145995 44.6219324,1.98587717 44.54272,2.01357989 C44.4630747,2.03998404 44.4115649,2.10361372 44.4115649,2.17460193 L44.4223863,5.19852653 C40.7998233,5.25479767 35,8.39256312 35,18.3244197 C35,18.4235435 35.0718539,18.5070845 35.1705448,18.5209358 C35.1796348,18.5222344 35.1895905,18.5231001 35.1982476,18.5231001 C35.2856843,18.5231001 35.364031,18.4663961 35.3895694,18.3811237 C36.6907314,14.0253044 41.2331111,11.8735825 43.8419278,11.8735825 C44.0877894,11.8735825 44.286037,11.8800754 44.4228192,11.8844039 L44.4119978,14.9429569 C44.4119978,15.0139451 44.4639404,15.0780076 44.5431528,15.1044118 C44.6240967,15.1312488 44.7145634,15.1160989 44.7747302,15.0654548 L51.9436737,8.68733733 C52.0189905,8.61028915 52.0189905,8.48562693 51.9423751,8.40857875 Z" id="i-share_Shape" />
            </g>
        </g>
    </g>
</symbol>

<symbol viewBox="0 0 10 18" id="i-facebook">
    <!-- Generator: Sketch 44.1 (41455) - http://www.bohemiancoding.com/sketch -->
    <title>facebook-app-symbol</title>
    <desc>Created with Sketch.</desc>
    <defs></defs>
    <g id="i-facebook_PDP" stroke="none" stroke-width="1" fill="none" fill-rule="evenodd">
        <g id="i-facebook_Log-In" transform="translate(-99.000000, -132.000000)" fill="#FFFFFF">
            <g id="i-facebook_Facebook-Button-Copy-2" transform="translate(45.000000, 123.000000)">
                <g id="i-facebook_Group-27">
                    <g id="i-facebook_facebook-app-symbol" transform="translate(54.000000, 9.000000)">
                        <g id="i-facebook_Capa_1">
                            <path d="M6.09672168,18 L6.09672168,9.7899561 L8.86469441,9.7899561 L9.27997193,6.58940692 L6.09672168,6.58940692 L6.09672168,4.54632297 C6.09672168,3.6199795 6.35414244,2.98868756 7.69044534,2.98868756 L9.39201059,2.98799141 L9.39201059,0.125306983 C9.09774881,0.087250788 8.08765211,0 6.91200402,0 C4.45706333,0 2.77636689,1.49126912 2.77636689,4.22934272 L2.77636689,6.58940692 L8.8817842e-16,6.58940692 L8.8817842e-16,9.7899561 L2.77636689,9.7899561 L2.77636689,18 L6.09672168,18 L6.09672168,18 Z" id="i-facebook_f_1_" />
                        </g>
                    </g>
                </g>
            </g>
        </g>
    </g>
</symbol></defs><use id="i-fame-logo-usage" xlink:href="#i-fame-logo" class="sprite-symbol-usage" /><use id="carat-usage" xlink:href="#carat" class="sprite-symbol-usage" /><use id="i-search-usage" xlink:href="#i-search" class="sprite-symbol-usage" /><use id="share-facebook-usage" xlink:href="#share-facebook" class="sprite-symbol-usage" /><use id="share-twitter-usage" xlink:href="#share-twitter" class="sprite-symbol-usage" /><use id="share-pinterest-usage" xlink:href="#share-pinterest" class="sprite-symbol-usage" /><use id="i-share-usage" xlink:href="#i-share" class="sprite-symbol-usage" /><use id="i-facebook-usage" xlink:href="#i-facebook" class="sprite-symbol-usage" /></svg>