<?xml version="1.0" encoding="UTF-8" standalone="no"?>
<svg width="78px" height="59px" viewBox="0 0 78 59" version="1.1" xmlns="http://www.w3.org/2000/svg" xmlns:xlink="http://www.w3.org/1999/xlink" xmlns:sketch="http://www.bohemiancoding.com/sketch/ns">
    <!-- Generator: Sketch 3.2.2 (9983) - http://www.bohemiancoding.com/sketch -->
    <title>Imported Layers</title>
    <desc>Created with Sketch.</desc>
    <defs></defs>
    <g id="Page-1" stroke="none" stroke-width="1" fill="none" fill-rule="evenodd" sketch:type="MSPage">
        <path d="M0,0 L0,58.236 L38.554,29.604 L77.11,58.236 L77.11,0 L0,0 L0,0 Z M1.3,55.654 L1.3,1.941 L37.467,28.796 L1.3,55.654 L1.3,55.654 Z M2.614,1.299 L74.493,1.299 L38.554,27.989 L2.614,1.299 L2.614,1.299 Z M75.812,55.654 L39.646,28.796 L75.812,1.941 L75.812,55.654 L75.812,55.654 Z M60.596,36.47 L60.596,31.093 L64.524,31.093 C65.212,31.093 65.859,30.962 66.466,30.699 C67.074,30.434 67.6,30.077 68.046,29.623 C68.493,29.17 68.848,28.639 69.111,28.032 C69.374,27.425 69.506,26.777 69.506,26.089 C69.506,25.402 69.374,24.754 69.111,24.147 C68.848,23.54 68.493,23.013 68.046,22.566 C67.6,22.121 67.074,21.765 66.466,21.503 C65.859,21.239 65.212,21.106 64.524,21.106 L57.896,21.106 L57.896,36.47 L60.596,36.47 L60.596,36.47 Z M60.596,23.785 L64.481,23.785 C64.802,23.785 65.102,23.847 65.38,23.971 C65.658,24.096 65.9,24.26 66.104,24.465 C66.309,24.67 66.474,24.916 66.598,25.201 C66.722,25.486 66.785,25.782 66.785,26.089 C66.785,26.411 66.722,26.711 66.598,26.99 C66.474,27.267 66.309,27.513 66.104,27.725 C65.9,27.937 65.658,28.101 65.38,28.218 C65.102,28.336 64.802,28.394 64.481,28.394 L60.596,28.394 L60.596,23.785 L60.596,23.785 Z M11.934,30.315 L17.531,30.315 L17.531,27.592 L11.934,27.592 L11.934,24.015 L18.892,24.015 L18.892,21.271 L9.191,21.271 L9.191,36.635 L11.934,36.635 L11.934,30.315 L11.934,30.315 Z" id="Imported-Layers" fill="#000000" sketch:type="MSShapeGroup"></path>
    </g>
</svg>