<?xml version="1.0" encoding="UTF-8" standalone="no"?>
<svg width="47px" height="36px" viewBox="0 0 47 36" version="1.1" xmlns="http://www.w3.org/2000/svg" xmlns:xlink="http://www.w3.org/1999/xlink" xmlns:sketch="http://www.bohemiancoding.com/sketch/ns">
    <!-- Generator: Sketch 3.3.3 (12081) - http://www.bohemiancoding.com/sketch -->
    <title>Fill 1292</title>
    <desc>Created with Sketch.</desc>
    <defs></defs>
    <g id="Page-1" stroke="none" stroke-width="1" fill="none" fill-rule="evenodd" sketch:type="MSPage">
        <g id="Fill-1292" sketch:type="MSLayerGroup" fill="#0A0B09">
            <path d="M43.5808,35.7270899 L3.5808,35.7270899 C2.288,35.7270899 1.0768,34.6887163 0.6352,33.1959544 C0.0512,31.2120049 0.9904,29.1960562 3.1472,27.8056917 L17.1504,18.8523197 C17.52,18.6155258 18.0176,18.724323 18.256,19.0987135 C18.4944,19.4683041 18.384,19.9642914 18.0128,20.2026853 L4.0128,29.1528573 C1.8144,30.5688213 1.9936,32.1351814 2.1712,32.7431659 C2.4272,33.6119438 3.0896,34.1271306 3.5808,34.1271306 L43.5808,34.1271306 C44.1344,34.1271306 44.9088,33.4983466 45.184,32.5655704 C45.3968,31.8439888 45.456,30.4392246 43.456,29.1496574 L22.8256,18.2331355 C22.5648,18.095539 22.4,17.8251459 22.4,17.5275535 L22.4,11.5277063 C22.4,11.0877175 22.7584,10.7277267 23.2,10.7277267 C24.5312,10.7277267 28.0912,8.68617872 28.0912,6.52783371 C28.0912,4.25269166 26.0976,2.3279407 23.7376,2.3279407 C21.3776,2.3279407 19.4592,4.21269268 19.4592,6.52783371 C19.4592,6.96942246 19.1008,7.32781333 18.6592,7.32781333 C18.2176,7.32781333 17.8592,6.96942246 17.8592,6.52783371 C17.8592,3.33111514 20.4976,0.727981455 23.7376,0.727981455 C26.9648,0.727981455 29.6912,3.3839138 29.6912,6.52783371 C29.6912,9.47495863 26.1664,11.7245013 24,12.2252886 L24,17.0443658 L44.264,27.7704926 C46.3936,29.1416576 47.2896,31.090408 46.72,33.0199588 C46.264,34.5623195 44.9152,35.7270899 43.5808,35.7270899" sketch:type="MSShapeGroup"></path>
        </g>
    </g>
</svg>