<?xml version="1.0" encoding="UTF-8" standalone="no"?>
<svg width="57px" height="49px" viewBox="0 0 57 49" version="1.1" xmlns="http://www.w3.org/2000/svg" xmlns:xlink="http://www.w3.org/1999/xlink" xmlns:sketch="http://www.bohemiancoding.com/sketch/ns">
    <!-- Generator: Sketch 3.3.3 (12081) - http://www.bohemiancoding.com/sketch -->
    <title>Group</title>
    <desc>Created with Sketch.</desc>
    <defs></defs>
    <g id="Page-1" stroke="none" stroke-width="1" fill="none" fill-rule="evenodd" sketch:type="MSPage">
        <g id="Group" sketch:type="MSLayerGroup" fill="#0A0B09">
            <path d="M3.8,2.12794579 C2.5872,2.12794579 1.6,3.12152048 1.6,4.33588955 L1.6,44.7348604 C1.6,45.9348298 2.5872,46.9284045 3.8,46.9284045 L23.4,46.9284045 C24.6128,46.9284045 25.6,45.9348298 25.6,44.7348604 L25.6,4.33588955 C25.6,3.12152048 24.6128,2.12794579 23.4,2.12794579 L3.8,2.12794579 L3.8,2.12794579 Z M23.4,48.5267638 L3.8,48.5267638 C1.704,48.5267638 0,46.8164074 0,44.7348604 L0,4.33588955 C0,2.23994294 1.704,0.52798655 3.8,0.52798655 L23.4,0.52798655 C25.496,0.52798655 27.2,2.23994294 27.2,4.33588955 L27.2,44.7348604 C27.2,46.8164074 25.496,48.5267638 23.4,48.5267638 L23.4,48.5267638 Z" id="Fill-433" sketch:type="MSShapeGroup"></path>
            <path d="M25.6,10.127742 L1.6,10.127742 C1.1584,10.127742 0.8,9.77575097 0.8,9.32776238 C0.8,8.87977379 1.1584,8.52938272 1.6,8.52938272 L25.6,8.52938272 C26.0416,8.52938272 26.4,8.87977379 26.4,9.32776238 C26.4,9.77575097 26.0416,10.127742 25.6,10.127742" id="Fill-434" sketch:type="MSShapeGroup"></path>
            <path d="M14.3824,6.12944386 C14.176,6.12944386 13.968,6.04784593 13.808,5.88944997 C13.664,5.74545364 13.5824,5.53585898 13.5824,5.32786428 C13.5824,5.11986957 13.664,4.91187487 13.824,4.75187895 C14.08,4.47988588 14.64,4.44788669 14.944,4.76787854 C15.1024,4.91187487 15.1824,5.11986957 15.1824,5.32786428 C15.1824,5.53585898 15.1024,5.74545364 14.96,5.88944997 C14.7824,6.04784593 14.5904,6.12944386 14.3824,6.12944386" id="Fill-435" sketch:type="MSShapeGroup"></path>
            <path d="M16,43.7268861 L12.8,43.7268861 C12.3584,43.7268861 12,43.374895 12,42.9269065 C12,42.4789179 12.3584,42.1285268 12.8,42.1285268 L16,42.1285268 C16.4416,42.1285268 16.8,42.4789179 16.8,42.9269065 C16.8,43.374895 16.4416,43.7268861 16,43.7268861" id="Fill-436" sketch:type="MSShapeGroup"></path>
            <path d="M25.6,40.5269676 L1.6,40.5269676 C1.1584,40.5269676 0.8,40.1749766 0.8,39.7285879 C0.8,39.2789994 1.1584,38.9270084 1.6,38.9270084 L25.6,38.9270084 C26.0416,38.9270084 26.4,39.2789994 26.4,39.7285879 C26.4,40.1749766 26.0416,40.5269676 25.6,40.5269676" id="Fill-437" sketch:type="MSShapeGroup"></path>
            <path d="M43.3808,2.12794579 C37.2048,2.12794579 32.1808,6.25584064 32.1808,11.3277114 C32.1808,13.6636519 33.2656,15.9035949 35.2352,17.6155513 C35.4912,17.8395455 35.576,18.2075362 35.4528,18.5115284 C34.5008,20.961066 33.224,22.9754147 31.6416,24.5609743 C35.1904,24.143385 37.9296,22.76742 39.64,20.4970778 C39.8304,20.2394844 40.1504,20.1274873 40.4528,20.1930856 C47.7904,21.825044 54.5808,17.1835623 54.5808,11.3277114 C54.5808,6.25584064 49.5568,2.12794579 43.3808,2.12794579 L43.3808,2.12794579 Z M29.2992,26.2889303 C28.9504,26.2889303 28.64,26.0633361 28.536,25.7273446 C28.4304,25.4073528 28.5536,25.0393621 28.84,24.8329674 C30.9248,23.3754045 32.5776,21.2330591 33.7584,18.4475301 C31.704,16.4635806 30.5808,13.9676442 30.5808,11.3277114 C30.5808,5.37586305 36.3232,0.52798655 43.3808,0.52798655 C50.4384,0.52798655 56.1808,5.37586305 56.1808,11.3277114 C56.1808,17.2795598 50.4384,22.1274363 43.3808,22.1274363 C42.4688,22.1274363 41.5344,22.0330387 40.6,21.8554432 C38.84,23.9673894 35.496,26.2889303 29.2992,26.2889303 L29.2992,26.2889303 Z" id="Fill-438" sketch:type="MSShapeGroup"></path>
        </g>
    </g>
</svg>