<?xml version="1.0" encoding="UTF-8" standalone="no"?>
<svg width="48px" height="50px" viewBox="0 0 48 50" version="1.1" xmlns="http://www.w3.org/2000/svg" xmlns:xlink="http://www.w3.org/1999/xlink" xmlns:sketch="http://www.bohemiancoding.com/sketch/ns">
    <!-- Generator: Sketch 3.3.3 (12081) - http://www.bohemiancoding.com/sketch -->
    <title>Fill 8011 + Fill 8012</title>
    <desc>Created with Sketch.</desc>
    <defs></defs>
    <g id="Page-1" stroke="none" stroke-width="1" fill="none" fill-rule="evenodd" sketch:type="MSPage">
        <g id="Fill-8011-+-Fill-8012" sketch:type="MSLayerGroup" fill="#0A0B09">
            <path d="M12,49.1363483 C11.8336,49.1363483 11.6704,49.0707499 11.5328,48.9747524 C11.3232,48.832356 11.2,48.5907622 11.2,48.3347687 L11.2,46.4148176 C11.2,46.2068229 11.2832,46.0148278 11.432,45.8548319 L19.2,38.000632 L19.2,27.3129042 L0.9632,31.1048076 C0.7296,31.1512064 0.4816,31.1048076 0.296,30.9432117 C0.1088,30.8008154 0,30.5768211 0,30.3352272 L0,26.3369291 C0,26.0329368 0.1664,25.7593438 0.4336,25.6153475 L19.2,15.9211944 L19.2,5.32786428 C19.2,2.68793153 21.3536,0.52798655 24,0.52798655 C24.4416,0.52798655 24.8,0.881577542 24.8,1.32956613 C24.8,1.77755472 24.4416,2.12794579 24,2.12794579 C22.2352,2.12794579 20.8,3.56790911 20.8,5.32786428 L20.8,16.4155818 C20.8,16.7051744 20.6336,16.9771675 20.3664,17.1211638 L1.6,26.8153169 L1.6,29.3432525 L19.8368,25.5513491 C20.0688,25.4873507 20.3168,25.5513491 20.504,25.712945 C20.6912,25.8569413 20.8,26.0809356 20.8,26.3369291 L20.8,38.3366234 C20.8,38.5430181 20.7168,38.7350132 20.568,38.8950092 L12.8,46.750809 L12.8,47.2147972 L23.7472,43.5684901 C24.168,43.4228938 24.6192,43.6644877 24.7584,44.0804771 C24.8992,44.4964665 24.672,44.9428551 24.2528,45.0868514 L12.2528,49.0867495 C12.1696,49.1187487 12.0848,49.1363483 12,49.1363483" id="Fill-8011" sketch:type="MSShapeGroup"></path>
            <path d="M36,49.1187487 C35.9152,49.1187487 35.8304,49.1043491 35.7472,49.0867495 L23.7472,45.0868514 C23.328,44.9428551 23.1008,44.4964665 23.2416,44.0628775 C23.3808,43.6484881 23.832,43.4228938 24.2528,43.5684901 L35.2,47.2147972 L35.2,46.750809 L27.432,38.8790096 C27.2832,38.7350132 27.2,38.5286185 27.2,38.3190238 L27.2,26.3193295 C27.2,26.0809356 27.3088,25.8569413 27.496,25.712945 C27.6816,25.5513491 27.9296,25.4873507 28.1632,25.5353495 L46.4,29.3432525 L46.4,26.8153169 L27.6336,17.1211638 C27.3664,16.9771675 27.2,16.7051744 27.2,16.4155818 L27.2,5.32786428 C27.2,3.56790911 25.7648,2.12794579 24,2.12794579 C23.5584,2.12794579 23.2,1.77755472 23.2,1.32956613 C23.2,0.881577542 23.5584,0.52798655 24,0.52798655 C26.6464,0.52798655 28.8,2.68793153 28.8,5.32786428 L28.8,15.9211944 L47.5664,25.6153475 C47.8336,25.7433442 48,26.0329368 48,26.3193295 L48,30.3208276 C48,30.5592215 47.8912,30.8008154 47.704,30.9432117 C47.5168,31.1048076 47.2688,31.1512064 47.0368,31.1048076 L28.8,27.3129042 L28.8,38.000632 L36.568,45.8548319 C36.7168,46.0148278 36.8,46.2068229 36.8,46.4148176 L36.8,48.3203691 C36.8,48.5763625 36.6768,48.8147565 36.4672,48.9747524 C36.3296,49.0707499 36.1664,49.1187487 36,49.1187487" id="Fill-8012" sketch:type="MSShapeGroup"></path>
        </g>
    </g>
</svg>